<svg width="163" height="96" viewBox="0 0 163 96" fill="none" xmlns="http://www.w3.org/2000/svg">
<path d="M5.54264 62.0972L5.6523 43.3092L21.0639 43.3995L20.9543 62.1875L17.1844 62.1691L17.2732 47.0049L9.39883 46.9654L9.30997 62.1296L5.54264 62.0972Z" fill="white"/>
<path d="M30.6206 43.4839C31.5293 43.4204 32.4412 43.5514 33.2952 43.8681C34.1493 44.1849 34.926 44.6802 35.5735 45.3209C36.6828 46.5171 37.2777 48.1011 37.2301 49.7318C37.2433 50.5384 37.0946 51.3394 36.7928 52.0876C36.491 52.8357 36.0422 53.5157 35.4731 54.0874C34.7626 54.7037 33.9361 55.1717 33.0421 55.4638C32.1481 55.7559 31.2047 55.8662 30.2674 55.7881L27.3576 55.7666L27.323 62.2579L23.5557 62.2254L23.6846 43.4118L30.6206 43.4839ZM30.4521 52.3837C30.8309 52.4258 31.2143 52.3863 31.5765 52.2676C31.9387 52.149 32.2713 51.9541 32.5517 51.696C32.8322 51.438 33.0541 51.1228 33.2024 50.7717C33.3507 50.4206 33.422 50.0418 33.4115 49.6608C33.4267 49.3004 33.3661 48.9408 33.2337 48.6053C33.1013 48.2697 32.8999 47.9657 32.6427 47.7128C32.3855 47.4599 32.0781 47.2637 31.7404 47.137C31.4026 47.0102 31.0421 46.9558 30.682 46.977L27.4517 46.9553L27.4244 52.3698L30.4521 52.3837Z" fill="white"/>
<path d="M77.6414 66.3341L77.6534 62.5193L59.3294 62.4216L59.4557 43.622L63.2397 43.643L63.1509 58.8072L67.5168 58.8324L67.6057 43.6682L71.3897 43.6891L71.3008 58.8533L75.6976 58.8696L75.7839 43.7195L79.5679 43.7404L79.4816 58.8906L81.4441 58.9139L81.3946 66.364L77.6414 66.3341Z" fill="white"/>
<path d="M83.0518 62.5582L83.164 43.7561L95.9107 43.8405L95.8823 47.3463L86.9312 47.2995L86.9088 51.3309L95.2023 51.3887L95.1739 54.8946L86.8919 54.8534L86.8642 59.0733L95.8153 59.1201L95.801 62.6285L83.0518 62.5582Z" fill="white"/>
<path d="M9.03008 64.2201L9.9748 64.2324L9.93028 70.2993L8.98299 70.3012L8.99358 68.2489C8.55966 68.4159 8.09952 68.5045 7.63461 68.5106C7.34797 68.5507 7.05595 68.524 6.78136 68.4325C6.50676 68.3411 6.25703 68.1874 6.05167 67.9834C5.84631 67.7795 5.69088 67.5308 5.59753 67.2569C5.50418 66.9829 5.47543 66.6911 5.51352 66.4042L5.53577 64.2084L6.46896 64.204L6.46867 66.1998C6.42962 66.5679 6.53452 66.9369 6.7614 67.2294C7.01796 67.4451 7.34844 67.5525 7.68281 67.5288C8.14456 67.5116 8.59881 67.4067 9.02131 67.2196L9.03008 64.2201Z" fill="white"/>
<path d="M10.9867 70.2592L11.0235 64.2345L14.8665 64.2516L14.8645 65.1399L11.9521 65.1325L11.9457 66.763L14.653 66.7767L14.6343 67.6765L11.9438 67.6513L11.936 69.369L14.8458 69.3905L14.8438 70.2789L10.9867 70.2592Z" fill="white"/>
<path d="M15.5998 70.2859L15.6366 64.2612L16.1455 64.2667L18.6448 67.972L21.1806 64.2976L21.7062 64.2916L21.6694 70.3163L20.7221 70.3181L20.7559 66.4636L18.777 69.3219L18.4873 69.3127L16.5501 66.4385L16.5304 70.2956L15.5998 70.2859Z" fill="white"/>
<path d="M29.1167 68.6314C29.118 68.8585 29.0731 69.0835 28.9848 69.2928C28.8965 69.5021 28.7666 69.6912 28.603 69.8487C28.4214 70.0238 28.2055 70.1592 27.9689 70.2464C27.7323 70.3336 27.4801 70.3707 27.2284 70.3553L24.6673 70.3392L24.7003 64.2555L27.1602 64.2677C27.385 64.2576 27.6096 64.2929 27.8205 64.3715C28.0314 64.4501 28.2243 64.5703 28.3878 64.725C28.5314 64.8609 28.6453 65.0251 28.7223 65.2071C28.7994 65.3892 28.838 65.5852 28.8356 65.7829C28.848 66.0615 28.7726 66.3369 28.6202 66.5704C28.4678 66.8039 28.246 66.9838 27.986 67.0846C28.3347 67.1662 28.6433 67.3683 28.8575 67.6553C29.0716 67.9423 29.1775 68.2957 29.1564 68.6532L29.1167 68.6314ZM25.6635 65.2036L25.6559 66.761L27.0108 66.7608C27.1229 66.7729 27.2363 66.7613 27.3437 66.7267C27.451 66.692 27.5498 66.6351 27.6337 66.5597C27.7176 66.4843 27.7846 66.3921 27.8305 66.289C27.8763 66.186 27.8999 66.0744 27.8997 65.9616C27.8996 65.854 27.8767 65.7477 27.8324 65.6496C27.7881 65.5516 27.7235 65.4641 27.6428 65.3929C27.5622 65.3217 27.4673 65.2684 27.3645 65.2366C27.2617 65.2048 27.1534 65.1953 27.0466 65.2085L25.6635 65.2036ZM27.0932 69.5002C27.2364 69.5283 27.384 69.524 27.5253 69.4874C27.6665 69.4509 27.7978 69.3831 27.9093 69.289C28.0209 69.195 28.1099 69.0771 28.1698 68.9441C28.2297 68.8111 28.259 68.6663 28.2555 68.5204C28.2519 68.3746 28.2157 68.2313 28.1494 68.1014C28.0832 67.9714 27.9886 67.8579 27.8726 67.7694C27.7567 67.6808 27.6223 67.6195 27.4795 67.5898C27.3366 67.5601 27.1889 67.5629 27.0473 67.5979L25.5911 67.5942L25.637 69.4965L27.0932 69.5002Z" fill="white"/>
<path d="M32.0153 66.4802C32.2917 66.4478 32.5719 66.4759 32.8364 66.5626C33.1008 66.6492 33.3433 66.7923 33.547 66.9819C33.7507 67.1716 33.9108 67.4032 34.0161 67.6608C34.1214 67.9184 34.1695 68.1958 34.157 68.4738C34.1619 68.7256 34.1154 68.9757 34.0202 69.2089C33.925 69.442 33.7832 69.6532 33.6035 69.8296C33.398 70.0265 33.1528 70.1772 32.8843 70.2714C32.6158 70.3656 32.3303 70.4012 32.0469 70.3757L29.8485 70.3676L29.8827 64.357L30.8159 64.3526L30.8065 66.4779L32.0153 66.4802ZM31.9283 69.5091C32.0843 69.537 32.2445 69.5297 32.3973 69.4876C32.55 69.4454 32.6914 69.3696 32.811 69.2657C32.9306 69.1618 33.0254 69.0324 33.0884 68.887C33.1514 68.7416 33.181 68.584 33.1751 68.4256C33.181 68.273 33.1533 68.121 33.0941 67.9801C33.0349 67.8393 32.9455 67.7132 32.8323 67.6106C32.7192 67.508 32.5849 67.4315 32.439 67.3863C32.2931 67.3412 32.139 67.3285 31.9877 67.3492L30.7648 67.3444L30.7618 69.5146L31.9283 69.5091ZM34.9627 64.3815L35.91 64.3797L35.8732 70.4044L34.9284 70.3921L34.9627 64.3815Z" fill="white"/>
<path d="M43.2967 69.5604L43.8928 69.5673L43.886 71.6785L42.9413 71.6662L42.9358 70.4997L39.2838 70.4737L39.279 71.6966L38.3458 71.701L38.3526 69.5898L38.8333 69.5902C39.0413 69.2085 39.1988 68.8014 39.3021 68.3792C39.4803 67.6402 39.617 66.8918 39.7115 66.1376L39.9308 64.4585L43.3213 64.4804L43.2967 69.5604ZM42.3661 69.5507L42.4246 65.3219L40.8082 65.318L40.7361 65.7128C40.6138 67.0167 40.3352 68.3011 39.9063 69.5385L42.3661 69.5507Z" fill="white"/>
<path d="M44.2946 70.3982L44.4388 69.6087C44.6001 69.6731 44.7727 69.7046 44.9464 69.7014C45.0875 69.6956 45.2255 69.6588 45.3508 69.5935C45.476 69.5283 45.5853 69.4362 45.6709 69.3238C45.8748 69.0652 46.0484 68.7841 46.1881 68.4859L44.2647 64.4196L45.3556 64.4295L46.694 67.4711L47.9898 64.4444L49.0383 64.4465L48.3963 65.888C47.8403 67.0977 47.4063 68.0382 47.0121 68.8403C46.8223 69.2676 46.5682 69.6634 46.2587 70.0139C46.1046 70.1823 45.9163 70.3158 45.7065 70.4056C45.4966 70.4954 45.27 70.5394 45.0418 70.5347C44.8047 70.5506 44.5673 70.5072 44.351 70.4085" fill="white"/>
<path d="M49.3641 70.4791L49.4009 64.4544L49.9239 64.4625L52.4232 68.1678L54.959 64.4934L55.482 64.5015L55.4478 70.5121L54.5005 70.5139L54.5343 66.6594L52.5413 69.5151L52.2657 69.5085L50.3285 66.6343L50.2947 70.4888L49.3641 70.4791Z" fill="white"/>
<path d="M60.2775 70.5492L59.7314 68.9926L57.5189 68.9819L56.9448 70.4505L55.9244 70.4535L58.339 64.5717L58.9517 64.5671L61.2876 70.6026L60.2775 70.5492ZM58.6313 66.082L57.7964 68.2605L59.4269 68.2669L58.6313 66.082Z" fill="white"/>
<path d="M61.7621 70.5581L61.7989 64.5334L65.6419 64.5506L65.6399 65.4389L62.7301 65.4174L62.7211 67.062L65.4284 67.0756L65.4097 67.9755L62.7191 67.9503L62.7114 69.668L65.6212 69.6895L65.6192 70.5778L61.7621 70.5581Z" fill="white"/>
<path d="M67.7437 65.488L65.9837 65.4725L65.9908 64.556L70.4722 64.5877L70.465 65.5042L68.7051 65.4887L68.6754 70.5969L67.714 70.5961L67.7437 65.488Z" fill="white"/>
<path d="M70.9159 70.6128L70.9386 64.5855L74.7956 64.6052L74.7937 65.4935L71.8813 65.4861L71.8749 67.1166L74.5655 67.1418L74.5635 68.0301L71.8588 68.0024L71.851 69.72L74.7749 69.7441L74.7588 70.6299L70.9159 70.6128Z" fill="white"/>
<path fill-rule="evenodd" clip-rule="evenodd" d="M38.2543 51.6233C38.5137 49.6788 39.3439 47.8549 40.64 46.3823C41.9361 44.9097 43.6399 43.8546 45.5357 43.3504C47.4316 42.8462 49.4343 42.9156 51.2907 43.5498C53.1471 44.1839 54.7738 45.3545 55.9648 46.9132C57.1559 48.472 57.858 50.349 57.9822 52.3068C58.1064 54.2646 57.6471 56.2152 56.6626 57.912C55.678 59.6088 54.2123 60.9755 52.451 61.8392C50.6896 62.7028 48.7116 63.0248 46.7673 62.7642C44.1614 62.4149 41.8008 61.0452 40.2044 58.9561C38.6081 56.8669 37.9066 54.2294 38.2543 51.6233Z" fill="#C6C6C6"/>
<path fill-rule="evenodd" clip-rule="evenodd" d="M41.2267 52.0205C41.4091 50.6639 41.9903 49.3921 42.8967 48.3665C43.8031 47.3409 44.9938 46.6076 46.3176 46.2598C47.6414 45.912 49.0387 45.9654 50.3322 46.413C51.6257 46.8607 52.757 47.6825 53.5826 48.7743C54.4082 49.866 54.8909 51.1783 54.9693 52.5448C55.0478 53.9113 54.7186 55.2703 54.0234 56.4494C53.3282 57.6284 52.2984 58.5744 51.0647 59.1672C49.831 59.76 48.449 59.9729 47.094 59.779C45.2922 59.5173 43.6661 58.5562 42.5679 57.104C41.4696 55.6518 40.9878 53.8254 41.2267 52.0205Z" fill="white"/>
<path fill-rule="evenodd" clip-rule="evenodd" d="M43.2584 54.2127C43.354 53.5052 43.657 52.8419 44.1294 52.3065C44.6017 51.7711 45.2222 51.3878 45.9123 51.2049C46.6024 51.022 47.3313 51.0477 48.0068 51.2789C48.6823 51.51 49.2741 51.9362 49.7075 52.5035C50.1409 53.0709 50.3964 53.754 50.4418 54.4665C50.4871 55.179 50.3203 55.8889 49.9623 56.5067C49.6044 57.1244 49.0714 57.6222 48.4306 57.9371C47.7899 58.252 47.0702 58.37 46.3625 58.2761C45.8908 58.2154 45.4359 58.0619 45.024 57.8243C44.6121 57.5867 44.2514 57.2698 43.9628 56.8919C43.6741 56.5141 43.4633 56.0827 43.3424 55.6229C43.2215 55.163 43.1929 54.6837 43.2584 54.2127Z" fill="#FDC300"/>
<path d="M45.5251 56.7244C45.5742 56.7561 45.6093 56.8053 45.6233 56.862C45.6373 56.9187 45.6291 56.9786 45.6005 57.0295C45.5845 57.0555 45.5635 57.078 45.5387 57.0958C45.5139 57.1135 45.4859 57.1262 45.4561 57.133C45.4264 57.1397 45.3956 57.1405 45.3656 57.1353C45.3356 57.13 45.3069 57.1188 45.2812 57.1023C44.8246 56.8062 44.4617 56.3862 44.2349 55.8915C43.9974 55.3985 43.9155 54.8449 44.0003 54.3043C44.0035 54.2762 44.0122 54.249 44.0259 54.2242C44.0396 54.1994 44.0581 54.1776 44.0802 54.16C44.1024 54.1424 44.1278 54.1293 44.155 54.1216C44.1823 54.1138 44.2108 54.1115 44.2389 54.1148C44.2979 54.1252 44.3511 54.1569 44.3882 54.204C44.4253 54.2511 44.4437 54.3102 44.4399 54.3701C44.3844 54.8256 44.4564 55.2876 44.6478 55.7046C44.8339 56.1232 45.139 56.4778 45.5251 56.7244Z" fill="white"/>
<path fill-rule="evenodd" clip-rule="evenodd" d="M97.3916 67.479C100.183 73.0302 104.557 77.629 109.962 80.694C115.367 83.7589 121.559 85.1523 127.756 84.6979C133.952 84.2435 139.875 81.9618 144.775 78.1412C149.675 74.3206 153.332 69.1328 155.283 63.2339C157.235 57.335 157.393 50.9898 155.739 45.0008C154.084 39.0119 150.69 33.6481 145.987 29.5879C141.284 25.5277 135.482 22.9533 129.316 22.1903C123.149 21.4274 116.895 22.5102 111.344 25.3017C103.907 29.0505 98.2605 35.597 95.6445 43.5045C93.0286 51.412 93.6569 60.0343 97.3916 67.479Z" fill="#C6C6C6"/>
<path fill-rule="evenodd" clip-rule="evenodd" d="M101.004 65.6475C103.429 70.4778 107.233 74.4804 111.933 77.1492C116.634 79.818 122.02 81.0331 127.411 80.6409C132.802 80.2487 137.955 78.2668 142.22 74.9458C146.484 71.6247 149.668 67.1137 151.369 61.9832C153.07 56.8526 153.212 51.3329 151.776 46.122C150.34 40.9111 147.391 36.243 143.302 32.7079C139.213 29.1729 134.168 26.9296 128.804 26.2619C123.44 25.5941 117.999 26.5318 113.168 28.9564C106.695 32.2144 101.778 37.906 99.4956 44.7835C97.2127 51.6609 97.75 59.163 100.99 65.6449" fill="white"/>
<path fill-rule="evenodd" clip-rule="evenodd" d="M147.269 51.7925C148.186 49.497 148.402 46.981 147.889 44.5628C147.376 42.1445 146.158 39.9327 144.387 38.2071C142.617 36.4815 140.375 35.3196 137.945 34.8684C135.514 34.4171 133.005 34.6969 130.733 35.6722C128.462 36.6475 126.531 38.2745 125.184 40.3475C123.837 42.4205 123.136 44.8463 123.168 47.3181C123.2 49.7899 123.964 52.1967 125.365 54.2339C126.765 56.2712 128.738 57.8474 131.034 58.7633C134.112 59.9829 137.547 59.9342 140.59 58.628C143.632 57.3218 146.033 54.8642 147.269 51.7925Z" fill="#FDC300"/>
<path d="M129.558 52.8848C129.7 53.0345 129.778 53.2347 129.773 53.4415C129.768 53.6482 129.681 53.8445 129.531 53.9872C129.382 54.1298 129.181 54.2072 128.975 54.2022C128.768 54.1973 128.572 54.1104 128.429 53.9607C127.136 52.5872 126.262 50.8736 125.909 49.0209C125.556 47.1682 125.738 45.2532 126.435 43.5005C126.472 43.4044 126.527 43.3165 126.598 43.2421C126.669 43.1677 126.754 43.1082 126.849 43.0671C126.943 43.026 127.045 43.0041 127.147 43.0027C127.25 43.0013 127.352 43.0205 127.448 43.059C127.544 43.0955 127.631 43.151 127.705 43.2221C127.779 43.2933 127.837 43.3786 127.877 43.473C127.917 43.5674 127.938 43.669 127.937 43.7715C127.937 43.874 127.916 43.9753 127.875 44.0695C127.292 45.5481 127.139 47.1615 127.433 48.7235C127.74 50.2852 128.488 51.7262 129.589 52.8759" fill="white"/>
<path d="M134.826 55.4642C135.033 55.4857 135.222 55.5878 135.354 55.7482C135.486 55.9086 135.549 56.1144 135.529 56.321C135.504 56.5244 135.401 56.71 135.242 56.8386C135.082 56.9672 134.879 57.0287 134.675 57.01C134.2 56.9536 133.729 56.8677 133.265 56.7525C132.795 56.6427 132.335 56.4953 131.889 56.3118C131.46 56.1411 131.044 55.9385 130.645 55.7057C130.538 55.6671 130.442 55.6057 130.361 55.5256C130.281 55.4455 130.22 55.3489 130.181 55.2424C130.142 55.1359 130.128 55.0223 130.138 54.9095C130.148 54.7966 130.182 54.6874 130.239 54.5894C130.296 54.4915 130.374 54.4072 130.467 54.3426C130.56 54.278 130.666 54.2345 130.778 54.2154C130.889 54.1962 131.004 54.2018 131.113 54.2317C131.222 54.2617 131.323 54.3152 131.41 54.3886C131.748 54.5878 132.101 54.7596 132.467 54.9022C132.83 55.0448 133.203 55.1616 133.583 55.2517C133.966 55.3581 134.358 55.4297 134.753 55.4654" fill="white"/>
<path d="M5.54299 62.0972L5.65523 43.2951L21.0669 43.3854L20.9546 62.1875L17.1873 62.1551L17.2736 47.0049L9.39919 46.9654L9.3129 62.1155L5.54299 62.0972Z" fill="white"/>
<path d="M30.6206 43.4839C31.5293 43.4204 32.4412 43.5514 33.2952 43.8681C34.1493 44.1849 34.926 44.6802 35.5735 45.3209C36.6801 46.5187 37.2746 48.1016 37.2301 49.7318C37.2432 50.5407 37.0943 51.344 36.7921 52.0945C36.4899 52.845 36.0405 53.5274 35.4705 54.1015C34.0274 55.3295 32.1566 55.936 30.2674 55.7881L27.355 55.7807L27.323 62.2579L23.5531 62.2395L23.6846 43.4118L30.6206 43.4839ZM30.4495 52.3978C30.8293 52.4381 31.2132 52.3968 31.5757 52.2766C31.9382 52.1565 32.2708 51.9603 32.5513 51.7011C32.8317 51.4419 33.0536 51.1258 33.2019 50.7739C33.3503 50.4221 33.4217 50.0425 33.4115 49.6608C33.4267 49.3004 33.3661 48.9408 33.2337 48.6053C33.1013 48.2697 32.8999 47.9657 32.6427 47.7128C32.3855 47.4599 32.0781 47.2637 31.7404 47.137C31.4026 47.0102 31.0421 46.9558 30.682 46.977L27.4517 46.9553L27.4244 52.3698L30.4495 52.3978Z" fill="white"/>
<path d="M77.6418 66.3341L77.6537 62.5193L59.3323 62.4075L59.4561 43.622L63.2401 43.643L63.1538 58.7931L67.5198 58.8183L67.6061 43.6682L71.3901 43.6891L71.3038 58.8392L75.6979 58.8696L75.7868 43.7054L79.5708 43.7263L79.482 58.8906L81.447 58.8998L81.3976 66.3499L77.6418 66.3341Z" fill="white"/>
<path d="M83.0537 62.5441L83.1634 43.7561L95.9127 43.8264L95.8842 47.3322L86.9331 47.2854L86.9081 51.3309L95.2042 51.3746L95.1758 54.8805L86.8938 54.8393L86.8662 59.0592L95.8173 59.106L95.803 62.6144L83.0537 62.5441Z" fill="white"/>
<path d="M9.03044 64.2201L9.97773 64.2183L9.93063 70.2993L8.98592 70.2871L8.99651 68.2348C8.56442 68.4082 8.1031 68.497 7.63754 68.4965C7.35204 68.5366 7.06114 68.5103 6.78742 68.4198C6.51369 68.3293 6.26449 68.177 6.05912 67.9747C5.85376 67.7723 5.69775 67.5254 5.60319 67.2531C5.50864 66.9807 5.47808 66.6902 5.51388 66.4042L5.53869 64.1943L6.46931 64.204L6.47159 66.1857C6.44658 66.3682 6.45968 66.554 6.51007 66.7312C6.56045 66.9084 6.64703 67.0732 6.76433 67.2153C6.88781 67.3277 7.0331 67.4136 7.19117 67.4675C7.34923 67.5214 7.5167 67.5423 7.68317 67.5288C8.14399 67.5049 8.59704 67.4002 9.02166 67.2196L9.03044 64.2201Z" fill="white"/>
<path d="M10.9893 70.2451L11.0261 64.2204L14.8665 64.2516L14.8645 65.1399L11.9547 65.1184L11.9457 66.763L14.653 66.7767L14.6369 67.6624L11.9438 67.6513L11.936 69.369L14.8458 69.3905L14.8464 70.2648L10.9893 70.2451Z" fill="white"/>
<path d="M15.6024 70.2718L15.6392 64.2471L16.1481 64.2526L18.6473 67.9579L21.1832 64.2835L21.7062 64.2916L21.6694 70.3163L20.7246 70.304L20.7585 66.4495L18.7796 69.3078L18.4899 69.2986L16.5527 66.4244L16.533 70.2815L15.6024 70.2718Z" fill="white"/>
<path d="M29.1193 68.6173C29.1222 68.8447 29.0781 69.0702 28.9897 69.2797C28.9013 69.4892 28.7705 69.6782 28.6056 69.8347C28.4256 70.0119 28.2099 70.1488 27.9729 70.2361C27.7359 70.3235 27.483 70.3593 27.231 70.3412L24.6699 70.3251L24.7003 64.2555L27.1576 64.2818C27.3831 64.2646 27.6097 64.2966 27.8217 64.3756C28.0336 64.4545 28.2259 64.5786 28.3853 64.7391C28.5275 64.8732 28.6409 65.0349 28.7184 65.2144C28.7958 65.3939 28.8357 65.5874 28.8356 65.7829C28.8345 66.0481 28.7542 66.3069 28.6052 66.5262C28.4561 66.7455 28.245 66.9154 27.9989 67.0141C28.3476 67.0957 28.6562 67.2978 28.8704 67.5848C29.0845 67.8718 29.1904 68.2253 29.1693 68.5827L29.1193 68.6173ZM25.6764 65.1331L25.6688 66.6905L27.0211 66.7044C27.1342 66.7148 27.2482 66.7015 27.3558 66.6653C27.4635 66.6292 27.5624 66.571 27.6463 66.4944C27.7302 66.4179 27.7972 66.3247 27.843 66.2209C27.8889 66.117 27.9126 66.0047 27.9126 65.8911C27.9083 65.7849 27.8824 65.6807 27.8367 65.5847C27.791 65.4887 27.7264 65.4029 27.6467 65.3326C27.567 65.2622 27.4739 65.2087 27.373 65.1753C27.2721 65.1419 27.1654 65.1292 27.0595 65.138L25.6764 65.1331ZM27.0958 69.4861C27.2349 69.508 27.3771 69.499 27.5123 69.4598C27.6475 69.4206 27.7725 69.3521 27.8783 69.2593C27.9841 69.1664 28.0682 69.0514 28.1247 68.9224C28.1811 68.7934 28.2085 68.6536 28.2049 68.5129C28.2012 68.3721 28.1667 68.2339 28.1037 68.108C28.0408 67.9821 27.9509 67.8715 27.8404 67.7842C27.73 67.6969 27.6017 67.635 27.4646 67.6028C27.3275 67.5706 27.1851 67.5689 27.0473 67.5979L25.5937 67.5801L25.6396 69.4824L27.0958 69.4861Z" fill="white"/>
<path d="M32.0153 66.4802C32.2922 66.4453 32.5734 66.4716 32.839 66.5573C33.1046 66.643 33.3481 66.786 33.5524 66.9761C33.7567 67.1663 33.9167 67.399 34.0212 67.6578C34.1256 67.9166 34.172 68.1952 34.157 68.4738C34.1611 68.7255 34.1141 68.9754 34.019 69.2084C33.9239 69.4414 33.7825 69.6527 33.6035 69.8296C33.3961 70.0221 33.1506 70.169 32.8829 70.2606C32.6152 70.3523 32.3313 70.3867 32.0494 70.3616L29.8485 70.3676L29.8853 64.3429L30.8159 64.3526L30.8065 66.4779L32.0153 66.4802ZM31.9283 69.5091C32.7436 69.5123 33.1746 69.0666 33.1751 68.4256C33.1805 68.2728 33.1528 68.1205 33.0938 67.9794C33.0348 67.8383 32.946 67.7115 32.8335 67.6079C32.7209 67.5044 32.5873 67.4263 32.4417 67.3792C32.2962 67.3322 32.1422 67.3171 31.9903 67.3351L30.7674 67.3303L30.7644 69.5005L31.9283 69.5091ZM34.9652 64.3674L35.91 64.3797L35.8757 70.3903L34.9284 70.3921L34.9652 64.3674Z" fill="white"/>
<path d="M43.2993 69.5463L43.8954 69.5532L43.8886 71.6644L42.9439 71.6521L42.9358 70.4997L39.2813 70.4878L39.2764 71.7107L38.3458 71.701L38.3526 69.5898L38.8333 69.5902C39.0392 69.2128 39.1959 68.8105 39.2996 68.3933C39.4786 67.6496 39.6162 66.8965 39.7115 66.1376L39.9282 64.4726L43.3213 64.4804L43.2993 69.5463ZM42.3661 69.5507L42.4272 65.3078L40.8107 65.304L40.7386 65.6987C40.6154 67.0073 40.336 68.2964 39.9063 69.5385L42.3661 69.5507Z" fill="white"/>
<path d="M44.2966 70.3841L44.4408 69.5946C44.6021 69.659 44.7746 69.6905 44.9483 69.6873C45.09 69.6846 45.2292 69.6491 45.3549 69.5836C45.4807 69.5181 45.5895 69.4244 45.6728 69.3097C45.8766 69.0566 46.0493 68.78 46.1875 68.4859L44.2667 64.4055L45.3575 64.4154L46.6934 67.4711L47.9917 64.4303L49.0403 64.4324L48.3982 65.8739C47.8422 67.0836 47.4082 68.0241 47.0115 68.8403C46.8226 69.2633 46.5693 69.6544 46.2607 69.9998C46.1083 70.1704 45.9204 70.3055 45.7101 70.3955C45.4998 70.4854 45.2724 70.5282 45.0438 70.5206C44.8063 70.5432 44.5671 70.4995 44.353 70.3944" fill="white"/>
<path d="M49.367 70.465L49.4013 64.4544L49.9268 64.4484L52.4261 68.1537L54.9619 64.4793L55.4849 64.4874L55.4481 70.5121L54.5034 70.4998L54.5372 66.6453L52.5442 69.501L52.2661 69.5085L50.3315 66.6202L50.2977 70.4747L49.367 70.465Z" fill="white"/>
<path d="M60.2807 70.5351L59.7346 68.9785L57.5221 68.9678L56.9454 70.4505L55.9276 70.4394L58.3396 64.5717L58.9497 64.5812L61.2856 70.6167L60.2807 70.5351ZM58.6474 65.9974L57.8125 68.1759L59.443 68.1823L58.6474 65.9974Z" fill="white"/>
<path d="M61.7647 70.544L61.8015 64.5193L65.6419 64.5506L65.6399 65.4389L62.7301 65.4174L62.7211 67.062L65.4284 67.0756L65.4123 67.9614L62.7191 67.9503L62.7114 69.668L65.6237 69.6754L65.6218 70.5637L61.7647 70.544Z" fill="white"/>
<path d="M67.7456 65.4739L65.9857 65.4584L65.9928 64.5419L70.4741 64.5736L70.467 65.4901L68.707 65.4746L68.6774 70.5828L67.716 70.582L67.7456 65.4739Z" fill="white"/>
<path d="M70.9184 70.5987L70.9411 64.5714L74.7956 64.6052L74.7937 65.4935L71.8839 65.472L71.8749 67.1166L74.568 67.1277L74.5661 68.016L71.8588 68.0024L71.851 69.72L74.7775 69.73L74.7614 70.6158L70.9184 70.5987Z" fill="white"/>
<path fill-rule="evenodd" clip-rule="evenodd" d="M38.2543 51.6233C38.5137 49.6788 39.3439 47.8549 40.64 46.3823C41.9361 44.9097 43.6399 43.8546 45.5357 43.3504C47.4316 42.8462 49.4343 42.9156 51.2907 43.5498C53.1471 44.1839 54.7738 45.3545 55.9648 46.9132C57.1559 48.472 57.858 50.349 57.9822 52.3068C58.1064 54.2646 57.6471 56.2152 56.6626 57.912C55.678 59.6088 54.2123 60.9755 52.451 61.8392C50.6896 62.7028 48.7116 63.0248 46.7673 62.7642C45.4762 62.593 44.2315 62.1689 43.1045 61.5161C41.9776 60.8632 40.9905 59.9945 40.1997 58.9597C39.4089 57.9248 38.8301 56.7441 38.4963 55.4853C38.1624 54.2264 38.0802 52.914 38.2543 51.6233Z" fill="#B2B2B2"/>
<path fill-rule="evenodd" clip-rule="evenodd" d="M41.2258 52.0205C41.4054 50.663 41.9845 49.3895 42.8894 48.3618C43.7943 47.3341 44.9842 46.5985 46.308 46.2484C47.6319 45.8984 49.0299 45.9497 50.3245 46.3958C51.6191 46.842 52.7519 47.6628 53.579 48.7541C54.4062 49.8454 54.8903 51.1579 54.97 52.5249C55.0496 53.8919 54.7212 55.2517 54.0264 56.4317C53.3316 57.6116 52.3018 58.5585 51.0678 59.152C49.8338 59.7455 48.4512 59.9588 47.0957 59.7649C45.2962 59.5037 43.6717 58.545 42.5733 57.0958C41.475 55.6467 40.9909 53.8236 41.2258 52.0205Z" fill="white"/>
<path fill-rule="evenodd" clip-rule="evenodd" d="M45.2403 47.5089C45.8474 47.297 46.5038 47.2698 47.1264 47.4307C47.749 47.5915 48.31 47.9334 48.7384 48.4129C49.1669 48.8925 49.4436 49.4882 49.5337 50.125C49.6237 50.7617 49.523 51.4108 49.2443 51.9904C48.9656 52.5699 48.5214 53.0539 47.9678 53.3811C47.4142 53.7083 46.776 53.8641 46.1339 53.8288C45.4918 53.7935 44.8745 53.5687 44.3601 53.1828C43.8457 52.7969 43.4572 52.2672 43.2437 51.6606C43.0997 51.257 43.0371 50.8289 43.0597 50.4011C43.0822 49.9732 43.1895 49.554 43.3752 49.1679C43.5609 48.7817 43.8213 48.4363 44.1415 48.1515C44.4616 47.8668 44.8351 47.6483 45.2403 47.5089Z" fill="#FDC300"/>
<path d="M44.1443 50.3243C44.1437 50.3502 44.1377 50.3757 44.1266 50.3991C44.1156 50.4226 44.0998 50.4434 44.0802 50.4604C44.0607 50.4774 44.0378 50.4902 44.013 50.4978C43.9883 50.5055 43.9622 50.5079 43.9365 50.5049C43.9034 50.5087 43.8698 50.5043 43.8389 50.4919C43.8079 50.4796 43.7806 50.4597 43.7592 50.4341C43.7379 50.4085 43.7232 50.378 43.7166 50.3454C43.71 50.3127 43.7116 50.2789 43.7213 50.2471C43.7696 49.7525 43.9566 49.2816 44.2608 48.8887C44.5644 48.5049 44.971 48.2153 45.4331 48.0539C45.485 48.036 45.5418 48.0386 45.5919 48.0613C45.6419 48.084 45.6814 48.125 45.7022 48.1759C45.7185 48.2293 45.7135 48.2869 45.6881 48.3367C45.6627 48.3864 45.6189 48.4243 45.5661 48.4424C45.1771 48.5734 44.8345 48.8145 44.5798 49.1364C44.3283 49.4632 44.1714 49.8528 44.1264 50.2628" fill="white"/>
<path fill-rule="evenodd" clip-rule="evenodd" d="M97.3914 67.479C100.184 73.0284 104.559 77.6252 109.964 80.6882C115.369 83.7512 121.561 85.1428 127.757 84.6872C133.953 84.2316 139.874 81.9492 144.773 78.1286C149.672 74.3079 153.328 69.1206 155.279 63.2223C157.229 57.3241 157.388 50.9799 155.733 44.9917C154.079 39.0035 150.686 33.6403 145.984 29.5801C141.282 25.5198 135.482 22.9449 129.317 22.1809C123.151 21.4168 116.898 22.498 111.347 25.2876C103.921 29.053 98.2868 35.6024 95.6724 43.5067C93.0579 51.411 93.6758 60.0286 97.3914 67.479Z" fill="#B2B2B2"/>
<path fill-rule="evenodd" clip-rule="evenodd" d="M101.007 65.6334C103.431 70.4655 107.233 74.4702 111.934 77.1409C116.634 79.8117 122.02 81.0285 127.412 80.6375C132.804 80.2465 137.959 78.2652 142.225 74.9443C146.49 71.6233 149.675 67.1119 151.377 61.9807C153.078 56.8494 153.22 51.3288 151.783 46.1171C150.347 40.9054 147.397 36.2368 143.307 32.7017C139.217 29.1666 134.171 26.9239 128.806 26.2572C123.441 25.5906 117.999 26.5299 113.168 28.9564C106.703 32.2177 101.791 37.9072 99.5097 44.7801C97.2279 51.6531 97.7611 59.15 100.993 65.6308" fill="white"/>
<path fill-rule="evenodd" clip-rule="evenodd" d="M116.323 57.2275C118.753 57.674 121.26 57.3907 123.528 56.4134C125.796 55.436 127.724 53.8085 129.068 51.7363C130.412 49.664 131.111 47.2401 131.079 44.7704C131.046 42.3008 130.282 39.8963 128.883 37.8604C127.485 35.8246 125.515 34.2488 123.221 33.3321C120.928 32.4153 118.414 32.1986 115.998 32.7095C113.581 33.2203 111.37 34.4357 109.644 36.2022C107.918 37.9688 106.754 40.2071 106.299 42.6347C105.697 45.8916 106.409 49.2546 108.279 51.9879C110.15 54.7213 113.027 56.6024 116.281 57.2198" fill="#FDC300"/>
<path d="M111.839 40.0626C111.719 40.2338 111.536 40.3503 111.33 40.3865C111.124 40.4226 110.912 40.3754 110.741 40.2553C110.569 40.1351 110.453 39.9519 110.417 39.7458C110.381 39.5398 110.428 39.3278 110.548 39.1566C111.636 37.6085 113.146 36.4061 114.899 35.6928C116.651 34.9796 118.572 34.7857 120.432 35.1342C120.633 35.1711 120.812 35.2867 120.929 35.4555C121.046 35.6244 121.091 35.8327 121.054 36.0346C121.013 36.2371 120.894 36.4155 120.723 36.5314C120.552 36.6473 120.343 36.6914 120.139 36.6543C118.579 36.3666 116.968 36.5271 115.495 37.1172C114.024 37.71 112.754 38.7116 111.835 40.0036" fill="white"/>
<path d="M110.309 45.7272C110.319 45.8285 110.309 45.931 110.28 46.0286C110.251 46.1262 110.203 46.2171 110.138 46.296C110.074 46.375 109.994 46.4404 109.904 46.4885C109.815 46.5366 109.716 46.5665 109.615 46.5765C109.411 46.5937 109.208 46.5309 109.049 46.4014C108.891 46.2718 108.789 46.0857 108.765 45.8823C108.719 45.3966 108.711 44.908 108.741 44.421C108.756 43.9416 108.809 43.4642 108.9 42.9931C108.994 42.5229 109.118 42.0589 109.27 41.6039C109.336 41.4093 109.477 41.2491 109.662 41.1585C109.846 41.0679 110.06 41.0543 110.254 41.1208C110.449 41.1872 110.609 41.3283 110.699 41.5128C110.79 41.6974 110.804 41.9104 110.737 42.105C110.611 42.4725 110.513 42.8491 110.444 43.2315C110.352 43.6125 110.281 43.9985 110.233 44.3876C110.219 44.7831 110.23 45.1791 110.264 45.5733" fill="white"/>
</svg>
