<svg width="218" height="52" viewBox="0 0 218 52" fill="none" xmlns="http://www.w3.org/2000/svg">
<path fill-rule="evenodd" clip-rule="evenodd" d="M66.6565 0.889487H67.7382C68.4195 0.878935 69.0847 1.09529 69.6284 1.5042C69.9075 1.72171 70.1337 1.99924 70.2899 2.31605C70.4462 2.63286 70.5286 2.98074 70.5308 3.3337C70.5293 3.35417 70.5293 3.37471 70.5308 3.39517C70.5325 3.41563 70.5325 3.43619 70.5308 3.45664V3.64691C70.5484 3.99791 70.4791 4.34784 70.3289 4.66586C70.1787 4.98388 69.9522 5.26023 69.6695 5.47056C69.1153 5.89257 68.4359 6.11912 67.7382 6.11454H67.1503V8.74902H66.1509V6.11454H65.5453C64.8415 6.12395 64.155 5.8971 63.5964 5.47056C63.3194 5.25897 63.0981 4.9835 62.9516 4.66786C62.8052 4.35222 62.7379 4.00587 62.7557 3.65862V3.57959C62.753 3.5494 62.753 3.51903 62.7557 3.48884V3.3337C62.7517 2.97657 62.8318 2.62347 62.9895 2.30271C63.1473 1.98196 63.3783 1.70246 63.664 1.48664C64.217 1.09488 64.8815 0.889716 65.56 0.901196L66.6565 0.889487ZM63.7846 3.3337V3.42152C63.7802 3.43881 63.7802 3.45691 63.7846 3.47421V3.52397C63.7669 3.77267 63.8083 4.02202 63.9053 4.25187C64.0023 4.48171 64.1523 4.6856 64.3431 4.84706C64.6888 5.13419 65.1246 5.29163 65.5747 5.292H66.1626V1.72374H65.5924C65.1383 1.70121 64.6923 1.84959 64.3431 2.1394C64.1756 2.2908 64.04 2.47381 63.9441 2.67783C63.8482 2.88184 63.794 3.10279 63.7846 3.32785V3.3337ZM67.7382 1.72374H67.168V5.292H67.7382C68.1904 5.29384 68.6291 5.13857 68.9787 4.85292C69.1693 4.68773 69.3185 4.4805 69.4144 4.24775C69.5104 4.01499 69.5504 3.76314 69.5313 3.51226V3.3337C69.5263 3.10755 69.4747 2.88484 69.3796 2.6794C69.2845 2.47395 69.1481 2.29015 68.9787 2.1394C68.6312 1.85204 68.1897 1.70201 67.7382 1.71789V1.72374ZM76.5333 3.31028H71.9859V3.38932C71.9827 3.40181 71.9827 3.41488 71.9859 3.42737V3.45664C71.9884 3.94332 72.1704 4.41211 72.4973 4.77388C72.6635 4.97009 72.8704 5.12799 73.1039 5.23666C73.3374 5.34532 73.5918 5.40216 73.8495 5.40323C74.2101 5.41097 74.5685 5.34419 74.9019 5.20711C75.1872 5.07266 75.4453 4.88711 75.6632 4.65972L75.7867 4.52507C75.8308 4.48116 75.8749 4.4314 75.919 4.37871L76.6421 5.04319C76.3066 5.446 75.8792 5.76314 75.3957 5.96818C74.9277 6.15101 74.4287 6.24244 73.9259 6.23748H73.8084C72.8462 6.20626 72.1152 5.90378 71.6155 5.33005C71.1304 4.79476 70.8631 4.09862 70.8659 3.37761C70.8694 2.6989 71.1358 2.04773 71.6096 1.55982C72.1015 1.02316 72.8315 0.754836 73.7996 0.754836C73.8978 0.75491 73.996 0.760775 74.0935 0.772399C74.1923 0.783597 74.2905 0.80021 74.3875 0.822162C74.9415 0.93614 75.4514 1.20525 75.8572 1.59787C76.0847 1.81978 76.2625 2.08704 76.379 2.38214C76.4955 2.67725 76.5481 2.99353 76.5333 3.31028ZM72.1828 2.47896H75.3369C75.2274 2.26642 75.0643 2.08587 74.8637 1.95499C74.6585 1.81064 74.4283 1.70544 74.1846 1.64471C74.0764 1.60944 73.9634 1.59069 73.8495 1.58909H73.826C73.7277 1.58879 73.6294 1.59564 73.5321 1.60958C73.4316 1.62584 73.3331 1.65232 73.2381 1.68861C73.0278 1.75461 72.8294 1.85341 72.6502 1.98133C72.4654 2.10905 72.3126 2.2773 72.2034 2.4731L72.1828 2.47896ZM78.5822 1.71203H77.9061V0.889487H81.9097V5.28029C81.9894 5.27508 82.0693 5.28762 82.1435 5.31699C82.2178 5.34635 82.2845 5.39181 82.3389 5.45007C82.4422 5.57148 82.4957 5.72723 82.4888 5.88622C82.4913 5.93205 82.4913 5.97797 82.4888 6.0238C82.4799 6.07707 82.4681 6.12983 82.4535 6.18187L81.9744 7.73328L80.9985 7.64254L81.4923 6.11454H77.6974L78.1853 7.65425L77.1977 7.74499L76.7214 6.20236V6.14674C76.7253 6.13635 76.7253 6.12494 76.7214 6.11454C76.7214 6.08234 76.7214 6.05014 76.7214 6.01794C76.7189 5.98971 76.7189 5.96129 76.7214 5.93306C76.7172 5.84688 76.7309 5.76076 76.7618 5.68015C76.7926 5.59953 76.84 5.52617 76.9008 5.4647C77.0254 5.34875 77.1888 5.28302 77.3593 5.28029L78.5822 1.71203ZM80.9044 5.292V1.71203H79.8932C79.7901 1.70684 79.6878 1.73232 79.5992 1.78521C79.5283 1.82632 79.4749 1.89194 79.4493 1.96962L78.3205 5.292H80.9044ZM88.3061 3.31028H83.7587V3.38932C83.7556 3.40181 83.7556 3.41488 83.7587 3.42737V3.45664C83.7612 3.94332 83.9433 4.41211 84.2702 4.77388C84.4347 4.96822 84.6393 5.12502 84.8701 5.23361C85.1009 5.34221 85.3524 5.40006 85.6077 5.40323C85.9683 5.41097 86.3266 5.34419 86.66 5.20711C86.9453 5.07266 87.2034 4.88711 87.4213 4.65972L87.5448 4.52507C87.586 4.48116 87.633 4.4314 87.6771 4.37871L88.4002 5.04319C88.0647 5.446 87.6374 5.76314 87.1538 5.96818C86.6858 6.15101 86.1868 6.24244 85.6841 6.23748H85.5665C84.6062 6.20626 83.8753 5.90378 83.3736 5.33005C82.8885 4.79476 82.6213 4.09862 82.624 3.37761C82.6275 2.6989 82.8939 2.04773 83.3677 1.55982C83.8674 1.02316 84.6023 0.754836 85.5724 0.754836C85.6706 0.75491 85.7688 0.760775 85.8663 0.772399C85.9652 0.783597 86.0633 0.80021 86.1603 0.822162C86.7144 0.93614 87.2243 1.20525 87.6301 1.59787C87.8575 1.81978 88.0353 2.08704 88.1518 2.38214C88.2683 2.67725 88.3209 2.99353 88.3061 3.31028ZM83.9556 2.47896H87.1097C87.0002 2.26642 86.8372 2.08587 86.6365 1.95499C86.4314 1.81064 86.2011 1.70544 85.9575 1.64471C85.9013 1.62991 85.8444 1.61818 85.787 1.60958C85.7311 1.60674 85.6752 1.60674 85.6194 1.60958H85.6077C85.5093 1.60918 85.411 1.61603 85.3137 1.63007C85.2133 1.64633 85.1148 1.67282 85.0197 1.7091C84.8095 1.7751 84.611 1.8739 84.4318 2.00182C84.2471 2.12954 84.0942 2.29779 83.985 2.49359L83.9556 2.47896ZM89.9464 6.05893V8.69341H88.9352V0.889487H89.9464V1.1383C90.1764 1.02494 90.4191 0.939436 90.6695 0.883633C90.9135 0.827983 91.1629 0.799512 91.4132 0.798744C92.1 0.794253 92.7666 1.02934 93.2975 1.46322C93.5809 1.70173 93.8041 2.0032 93.9491 2.34335C94.0941 2.68349 94.1569 3.0528 94.1323 3.42152C94.1323 4.33676 93.853 5.02757 93.2945 5.49398C92.7083 5.9696 91.9691 6.21807 91.2133 6.19358C91.009 6.19305 90.8049 6.18132 90.6019 6.15845C90.3806 6.13323 90.1608 6.0961 89.9435 6.04722L89.9464 6.05893ZM89.9464 2.07208V5.04319C90.1001 5.12069 90.2617 5.18153 90.4285 5.22467C90.6033 5.26792 90.7812 5.29825 90.9605 5.31542H91.1692C91.6262 5.2983 92.0667 5.14084 92.4303 4.86463C92.6333 4.70025 92.793 4.48902 92.8954 4.24926C92.9979 4.00951 93.04 3.74849 93.0182 3.48884C93.0357 3.23628 92.9943 2.98312 92.8975 2.74907C92.8006 2.51501 92.6508 2.30637 92.4597 2.1394C92.11 1.85201 91.6697 1.69655 91.2163 1.70032H91.0517C90.9975 1.70328 90.9435 1.70914 90.89 1.71789C90.7253 1.74155 90.5637 1.78277 90.4079 1.84083C90.2472 1.9011 90.0927 1.97658 89.9464 2.06622V2.07208ZM95.3787 1.04756C95.4967 1.00301 95.6175 0.965857 95.7402 0.936322C95.8637 0.904123 95.9901 0.877778 96.1135 0.857288C96.284 0.828016 96.4545 0.804598 96.625 0.789962C96.7955 0.775326 96.9631 0.766545 97.1247 0.766545C97.3718 0.765364 97.6185 0.783963 97.8626 0.822162C98.0729 0.852032 98.2785 0.909107 98.474 0.991939C98.7707 1.11543 99.0185 1.33239 99.1795 1.60958C99.3448 1.90987 99.4288 2.24779 99.4235 2.59019V6.10283H98.4681V5.85402C98.2434 5.97099 98.0028 6.05481 97.7538 6.10283C97.4341 6.17102 97.1078 6.20439 96.7808 6.20236H96.5721C96.068 6.17772 95.5771 6.03318 95.1406 5.78084C94.9225 5.64772 94.7462 5.45661 94.6314 5.22904C94.5166 5.00147 94.468 4.7465 94.4909 4.49287C94.4699 4.20929 94.5345 3.92592 94.6764 3.6792C94.8184 3.43247 95.0312 3.23365 95.2875 3.10831C95.8292 2.84287 96.4271 2.71133 97.0307 2.72484H97.2247H97.4158C97.5862 2.72484 97.7567 2.7629 97.9272 2.79217C98.0977 2.82144 98.2565 2.85657 98.4034 2.89462C98.4254 2.59414 98.374 2.29282 98.2535 2.01646C98.1505 1.8491 97.9895 1.72516 97.8008 1.66812L97.6127 1.62129C97.5518 1.60631 97.4899 1.59555 97.4275 1.58909C97.3668 1.58909 97.305 1.58323 97.2423 1.57153H97.0542C96.7914 1.57506 96.5299 1.60945 96.2752 1.67398C95.9696 1.74968 95.6699 1.84752 95.3787 1.9667V1.04756ZM95.555 4.51629C95.5502 4.65891 95.5901 4.79948 95.6691 4.91854C95.7481 5.03759 95.8623 5.12923 95.996 5.18077C96.3143 5.32031 96.6594 5.38923 97.0072 5.38274H97.1189C97.156 5.38533 97.1934 5.38533 97.2306 5.38274C97.4479 5.36859 97.6634 5.33429 97.8743 5.28029C98.0573 5.23686 98.2348 5.17303 98.4034 5.09002V3.73765L98.3064 3.70838C98.2607 3.69804 98.2156 3.68533 98.1712 3.67033C98.0389 3.64106 97.8773 3.61471 97.6891 3.59129C97.494 3.56889 97.2977 3.55814 97.1012 3.5591H96.9748C96.6413 3.5699 96.313 3.64444 96.0077 3.77864C95.8668 3.83794 95.7483 3.94007 95.6691 4.07044C95.5899 4.2008 95.5541 4.35275 95.5668 4.50458L95.555 4.51629ZM100.802 6.18187L99.7527 6.12625L101.325 1.73545H100.696V0.889487H104.697V6.11454H103.686V1.72374H102.592C102.513 1.71497 102.432 1.73468 102.366 1.77936C102.322 1.8181 102.284 1.86355 102.254 1.91401L102.237 1.93743C102.235 1.94514 102.235 1.95313 102.237 1.96084L100.802 6.18187ZM106.478 2.46725H108.28C108.573 2.44401 108.868 2.48086 109.146 2.57551C109.424 2.67017 109.68 2.82062 109.897 3.01756C110.24 3.34099 110.44 3.78591 110.456 4.25577V4.32309C110.439 4.78753 110.238 5.22646 109.897 5.54374C109.68 5.74167 109.425 5.89335 109.147 5.9895C108.869 6.08564 108.574 6.1242 108.28 6.10283H105.455V0.889487H106.478V2.46725ZM108.28 3.31028H106.478V5.30371H108.28C108.436 5.31516 108.592 5.29225 108.738 5.23659C108.884 5.18093 109.016 5.0939 109.124 4.98172C109.302 4.7988 109.402 4.5544 109.403 4.29968V4.26748C109.392 4.01709 109.287 3.77989 109.109 3.603C109 3.49858 108.87 3.41847 108.728 3.36799C108.585 3.31752 108.434 3.29785 108.283 3.31028H108.28ZM111.282 2.47896V0.889487H112.296V2.46725H115.191V0.889487H116.202V6.11454H115.191V3.31028H112.296V6.12625H111.282V3.31028H110.594V2.46725L111.282 2.47896ZM117.819 1.04756C117.937 1.00301 118.058 0.965857 118.181 0.936322C118.304 0.904123 118.43 0.877778 118.554 0.857288C118.724 0.828016 118.895 0.804598 119.065 0.789962C119.236 0.775326 119.403 0.766545 119.565 0.766545C119.809 0.761956 120.053 0.776638 120.294 0.810453C120.504 0.840324 120.71 0.897398 120.906 0.98023C121.203 1.10221 121.451 1.31956 121.611 1.59787C121.776 1.90218 121.858 2.24436 121.849 2.59019V6.10283H120.894V5.85402C120.669 5.97099 120.428 6.05481 120.179 6.10283C119.86 6.17102 119.533 6.20439 119.207 6.20236H118.998C118.494 6.17772 118.003 6.03318 117.566 5.78084C117.349 5.64722 117.173 5.45602 117.058 5.22858C116.943 5.00114 116.894 4.74642 116.917 4.49287C116.896 4.20929 116.96 3.92592 117.102 3.6792C117.244 3.43247 117.457 3.23365 117.713 3.10831C118.259 2.84056 118.863 2.70896 119.471 2.72484H119.665H119.856C120.027 2.72484 120.197 2.7629 120.368 2.79217C120.538 2.82144 120.697 2.85657 120.844 2.89462C120.866 2.59414 120.814 2.29282 120.694 2.01646C120.591 1.8491 120.43 1.72516 120.241 1.66812L120.053 1.62129C119.992 1.60631 119.93 1.59555 119.868 1.58909L119.683 1.55396H119.495C119.232 1.55749 118.97 1.59188 118.716 1.65641C118.41 1.73212 118.11 1.82995 117.819 1.94913V1.04756ZM117.995 4.51629C117.991 4.65891 118.03 4.79948 118.109 4.91854C118.188 5.03759 118.303 5.12923 118.436 5.18077C118.756 5.32063 119.102 5.38956 119.45 5.38274H119.559C119.596 5.38533 119.634 5.38533 119.671 5.38274C119.888 5.36859 120.104 5.33429 120.315 5.28029C120.498 5.23686 120.675 5.17303 120.844 5.09002V3.73765L120.747 3.70838C120.701 3.69804 120.656 3.68533 120.612 3.67033C120.479 3.64106 120.318 3.61471 120.13 3.59129C119.934 3.56889 119.738 3.55814 119.542 3.5591H119.412C119.079 3.5699 118.75 3.64444 118.445 3.77864C118.304 3.83794 118.186 3.94007 118.107 4.07044C118.027 4.2008 117.992 4.35275 118.004 4.50458L117.995 4.51629ZM124.045 3.24296C123.734 3.16748 123.452 3.00258 123.234 2.76875C123.073 2.59772 122.981 2.3737 122.975 2.1394V2.06037C122.996 1.90139 123.05 1.74843 123.133 1.61097C123.216 1.4735 123.326 1.35447 123.457 1.26124C123.799 1.00127 124.221 0.869624 124.651 0.889487H127.22V6.11454H126.208V3.31028H125.429C125.269 3.31135 125.115 3.37189 124.997 3.48006C124.848 3.61266 124.727 3.77269 124.639 3.95134L123.31 6.18187L122.184 6.06771L123.654 3.62642C123.712 3.53919 123.776 3.45606 123.845 3.37761C123.889 3.32947 123.943 3.29151 124.004 3.26638C124.01 3.25872 124.018 3.2527 124.027 3.24881H124.051L124.045 3.24296ZM124.633 1.72374C124.472 1.71632 124.313 1.75276 124.171 1.82912C124.124 1.85393 124.083 1.88841 124.05 1.93027C124.017 1.97214 123.993 2.02046 123.98 2.07208C123.978 2.07671 123.977 2.08169 123.977 2.08671C123.977 2.09174 123.978 2.09671 123.98 2.10135V2.12769C123.982 2.177 123.996 2.22512 124.021 2.26759C124.046 2.31007 124.082 2.34552 124.124 2.37065C124.248 2.44922 124.393 2.48711 124.539 2.47896H126.214V1.71203L124.633 1.72374ZM137.299 4.87634L137.749 5.65204C137.478 5.81524 137.186 5.9422 136.882 6.02965C136.576 6.11537 136.262 6.16643 135.944 6.18187H135.735C134.967 6.18822 134.218 5.94463 133.601 5.48812C133.286 5.25096 133.034 4.93979 132.868 4.5823C132.703 4.22481 132.628 3.83209 132.652 3.43908C132.63 3.04624 132.705 2.65395 132.87 2.29668C133.036 1.93941 133.287 1.62808 133.601 1.39004C134.214 0.924272 134.965 0.673182 135.735 0.675802H135.944C136.262 0.698064 136.576 0.752998 136.882 0.839725C137.187 0.924661 137.479 1.05176 137.749 1.21733L137.305 2.01646C137.237 1.97836 137.165 1.94605 137.091 1.91986L136.876 1.84668C136.698 1.78771 136.515 1.74269 136.329 1.71203C136.16 1.68363 135.989 1.66895 135.818 1.66812C135.298 1.65391 134.79 1.82057 134.38 2.1394C134.186 2.29458 134.032 2.4932 133.93 2.71907C133.828 2.94493 133.781 3.19164 133.792 3.43908C133.781 3.68737 133.828 3.93493 133.93 4.16173C134.032 4.38854 134.186 4.58821 134.38 4.74461C134.788 5.0665 135.298 5.23445 135.818 5.21882C135.989 5.218 136.16 5.20331 136.329 5.17491C136.515 5.14183 136.697 5.09586 136.876 5.03733C136.949 5.0157 137.021 4.98929 137.091 4.9583L137.305 4.87048L137.299 4.87634ZM143.74 3.31028H139.189V3.38932C139.188 3.40194 139.188 3.41475 139.189 3.42737V3.45664C139.191 3.9425 139.37 4.4111 139.695 4.77388C139.861 4.96971 140.067 5.12739 140.3 5.23604C140.533 5.3447 140.787 5.40174 141.044 5.40323C141.405 5.41063 141.763 5.34386 142.097 5.20711C142.382 5.07192 142.639 4.88647 142.858 4.65972L142.981 4.52507L143.114 4.37871L143.834 5.04319C143.499 5.44587 143.073 5.76303 142.59 5.96818C142.122 6.15094 141.623 6.24237 141.121 6.23748H141.006C140.046 6.20626 139.315 5.90378 138.813 5.33005C138.327 4.79505 138.059 4.09896 138.061 3.37761C138.07 2.70174 138.339 2.05513 138.813 1.57153C139.307 1.02707 140.038 0.754836 141.006 0.754836C141.104 0.755089 141.202 0.760953 141.3 0.772399C141.399 0.783822 141.497 0.800433 141.594 0.822162C142.149 0.934421 142.659 1.20378 143.064 1.59787C143.291 1.81989 143.469 2.08717 143.585 2.38225C143.702 2.67732 143.754 2.99355 143.74 3.31028ZM139.401 2.46725H142.552C142.444 2.25491 142.282 2.07434 142.082 1.94328C141.876 1.79913 141.644 1.69396 141.4 1.633C141.345 1.61791 141.289 1.60618 141.232 1.59787H141.065H141.041C140.943 1.59747 140.845 1.60432 140.747 1.61836C140.647 1.63393 140.548 1.66044 140.453 1.69739C140.243 1.76339 140.045 1.86219 139.866 1.99011C139.675 2.11059 139.516 2.27406 139.401 2.46725ZM148.94 0.889487V1.71203H146.985V6.10283H145.974V1.71203H144.019V0.889487H148.94ZM150.371 2.46725H152.173C152.469 2.44196 152.766 2.47779 153.047 2.5725C153.328 2.6672 153.586 2.81874 153.805 3.01756C154.146 3.34173 154.347 3.7862 154.363 4.25577V4.32309C154.347 4.78753 154.146 5.22646 153.805 5.54374C153.588 5.74167 153.332 5.89335 153.054 5.9895C152.776 6.08564 152.482 6.1242 152.188 6.10283H149.36V0.889487H150.386L150.371 2.46725ZM152.173 3.31028H150.371V5.30371H152.173C152.327 5.31578 152.482 5.29428 152.627 5.24069C152.771 5.1871 152.903 5.10271 153.011 4.99342C153.193 4.81215 153.299 4.56791 153.305 4.31139V4.27919C153.292 4.02939 153.187 3.79304 153.011 3.61471C152.902 3.51029 152.772 3.43017 152.63 3.3797C152.487 3.32923 152.336 3.30955 152.185 3.32199L152.173 3.31028Z" fill="white" fill-opacity="0.7"/>
<path fill-rule="evenodd" clip-rule="evenodd" d="M48.0054 44.2919V45.0969H46.0918V49.4117H45.1011V45.094H43.1846V44.2919H48.0054ZM52.5646 49.561C51.8195 49.5675 51.0982 49.2996 50.5393 48.8087C50.2578 48.5597 50.0357 48.2513 49.8892 47.9059C49.7428 47.5605 49.6756 47.1869 49.6927 46.8123C49.6746 46.4444 49.743 46.0773 49.8925 45.7403C50.0421 45.4034 50.2686 45.1059 50.554 44.8715C51.1029 44.4177 51.7954 44.172 52.5088 44.1778H52.5558C53.2763 44.1782 53.9747 44.4252 54.5341 44.8774C54.8226 45.1089 55.0527 45.4045 55.2058 45.7405C55.359 46.0765 55.4309 46.4436 55.416 46.8123C55.4297 47.1832 55.3612 47.5525 55.2154 47.894C55.0696 48.2355 54.85 48.5408 54.5723 48.7882C54.0242 49.2829 53.3072 49.5509 52.5676 49.5376L52.5646 49.561ZM52.5646 48.7326C52.7959 48.7352 53.0252 48.6911 53.2389 48.6031C53.4526 48.5151 53.6462 48.3849 53.808 48.2203C53.9826 48.0468 54.1193 47.8391 54.2093 47.6104C54.2994 47.3816 54.3409 47.1368 54.3313 46.8914C54.3497 46.3949 54.1713 45.9112 53.8345 45.5448C53.6735 45.3707 53.4768 45.2333 53.2576 45.1419C53.0385 45.0504 52.8021 45.0071 52.5646 45.015C52.3288 45.0099 52.0946 45.0545 51.8773 45.1458C51.66 45.2371 51.4645 45.3731 51.3036 45.5448C50.9735 45.9143 50.8006 46.3972 50.8215 46.8914C50.8115 47.1364 50.8522 47.3808 50.9412 47.6095C51.0302 47.8381 51.1656 48.0461 51.3388 48.2203C51.4993 48.3851 51.6918 48.5155 51.9045 48.6036C52.1173 48.6917 52.346 48.7356 52.5764 48.7326H52.5646ZM60.472 49.4176H57.5324V44.2919H60.0399C60.48 44.2577 60.9181 44.379 61.2774 44.6344C61.3984 44.7225 61.4978 44.8367 61.5681 44.9685C61.6383 45.1004 61.6777 45.2464 61.6831 45.3955C61.6846 45.4228 61.6846 45.4502 61.6831 45.4775C61.6803 45.5018 61.6803 45.5263 61.6831 45.5507C61.6565 45.6745 61.6055 45.7919 61.5331 45.8961C61.4534 46.0103 61.3539 46.1094 61.2392 46.1888C61.4137 46.2137 61.5815 46.2728 61.7329 46.3627C61.8843 46.4527 62.0162 46.5717 62.121 46.7128C62.3224 46.9757 62.4392 47.293 62.4562 47.6232V47.7666C62.4343 48.1893 62.2538 48.5883 61.9506 48.8848C61.7554 49.0683 61.5237 49.2089 61.2705 49.2976C61.0174 49.3864 60.7483 49.4212 60.4808 49.4L60.472 49.4176ZM58.5319 46.6425V48.595H60.3279C60.4708 48.6041 60.6139 48.5826 60.7477 48.5321C60.8815 48.4816 61.003 48.4033 61.104 48.3023C61.2696 48.1294 61.3631 47.9002 61.3656 47.6612V47.5734C61.334 47.3239 61.2129 47.0941 61.0246 46.9265C60.7692 46.7151 60.4416 46.6103 60.1104 46.6337L58.5319 46.6425ZM60.1751 45.8258C60.3238 45.8368 60.4718 45.7976 60.5954 45.7146C60.6356 45.6873 60.6689 45.6512 60.6929 45.6091C60.7169 45.567 60.7308 45.5199 60.7336 45.4716V45.4336C60.7371 45.4211 60.7371 45.408 60.7336 45.3955C60.6989 45.3083 60.6371 45.2344 60.5572 45.1847C60.4356 45.1105 60.2939 45.0757 60.1516 45.0852H58.5436V45.8258H60.1751ZM65.0282 44.4236C65.1433 44.3791 65.2611 44.342 65.381 44.3124C65.5044 44.2831 65.625 44.2568 65.7455 44.2363C65.913 44.207 66.0806 44.1836 66.2481 44.169C66.4157 44.1543 66.5774 44.1485 66.7391 44.1485C66.9812 44.1474 67.2231 44.166 67.4622 44.2041C67.6644 44.2335 67.862 44.2886 68.0501 44.368C68.3399 44.4908 68.5815 44.7046 68.7379 44.9769C68.9009 45.2735 68.982 45.6078 68.9731 45.9458V49.4H68.0383V49.1571C67.8167 49.2703 67.5802 49.3521 67.3358 49.4C67.0228 49.4668 66.7035 49.5002 66.3834 49.4996H66.1805C65.6865 49.4744 65.2057 49.3319 64.7784 49.0839C64.5641 48.9539 64.3906 48.7669 64.2774 48.544C64.1642 48.3211 64.1157 48.0711 64.1376 47.8222C64.1175 47.5441 64.1811 47.2662 64.3204 47.0243C64.4597 46.7823 64.6683 46.5873 64.9195 46.464C65.4519 46.1978 66.0405 46.0623 66.6362 46.0688H66.7949C66.8596 46.0688 66.9213 46.0688 66.983 46.0688C67.1506 46.0834 67.3152 46.1068 67.4828 46.1361C67.6503 46.1654 67.8061 46.1976 67.9501 46.2356C67.974 45.9353 67.9236 45.6338 67.8032 45.3575C67.7009 45.1943 67.5435 45.0729 67.3593 45.015L67.177 44.9711C67.1171 44.9563 67.0562 44.9456 66.9948 44.9389L66.8096 44.9213H66.6273C66.3706 44.9251 66.1151 44.9585 65.866 45.0208C65.5658 45.0986 65.2712 45.1964 64.9841 45.3135L65.0282 44.4236ZM65.1987 47.8222C65.194 47.9622 65.2334 48.1002 65.3114 48.2168C65.3894 48.3333 65.5022 48.4226 65.6338 48.4721C65.9456 48.6091 66.2836 48.6771 66.6244 48.6711H66.7332C66.7693 48.6752 66.8058 48.6752 66.8419 48.6711C67.0553 48.658 67.2669 48.6246 67.4739 48.5716C67.6456 48.5291 67.8122 48.4683 67.9707 48.3901V47.0904L67.8737 47.0611L67.7444 47.0231C67.5882 46.989 67.4302 46.9636 67.2711 46.947C67.0761 46.923 66.8797 46.9113 66.6832 46.9118H66.5568C66.2313 46.9234 65.911 46.9969 65.6132 47.1285C65.4746 47.1861 65.3578 47.2859 65.2796 47.4137C65.2015 47.5415 65.166 47.6907 65.1782 47.8398L65.1987 47.8222ZM72.0861 49.3415V51.9351H71.0954V44.2919H72.0861V44.5349C72.3118 44.4252 72.5496 44.3417 72.7945 44.2861C73.0336 44.2313 73.2782 44.2038 73.5235 44.2041C74.1961 44.1999 74.849 44.4298 75.3695 44.854C75.6478 45.0876 75.867 45.3832 76.0095 45.7168C76.1519 46.0503 76.2136 46.4126 76.1897 46.7743C76.1897 47.672 75.9163 48.3482 75.3695 48.8029C74.795 49.2693 74.0703 49.5126 73.3295 49.4878C73.1384 49.4878 72.9385 49.4878 72.7416 49.4556C72.5249 49.4318 72.3099 49.3947 72.0978 49.3444L72.0861 49.3415ZM72.0978 45.4394V48.3667C72.2487 48.4422 72.4074 48.5011 72.5711 48.5423C72.7417 48.5863 72.9158 48.6156 73.0914 48.6302H73.2942C73.7432 48.6162 74.1762 48.4615 74.5318 48.1881C74.7283 48.0266 74.8824 47.8199 74.9807 47.5858C75.079 47.3517 75.1187 47.0973 75.0961 46.8445C75.1164 46.596 75.0787 46.3462 74.9859 46.1146C74.8931 45.883 74.7477 45.676 74.5611 45.5097C74.2179 45.228 73.786 45.0756 73.3412 45.0794C73.2884 45.0764 73.2354 45.0764 73.1825 45.0794L73.0208 45.094C72.8591 45.1181 72.7005 45.1593 72.5476 45.2169C72.391 45.2758 72.2404 45.3493 72.0978 45.4365V45.4394ZM80.9752 45.8346C81.2584 45.8151 81.5426 45.8521 81.8112 45.9436C82.0798 46.0351 82.3272 46.1792 82.539 46.3674C82.8698 46.6727 83.0733 47.0906 83.1093 47.5383V47.6261C83.1062 47.8549 83.0575 48.0809 82.9662 48.2909C82.8749 48.5009 82.7427 48.6908 82.5773 48.8497C82.2245 49.2185 81.6905 49.403 80.9752 49.403H78.2179V44.2919H79.2086V45.8375L80.9752 45.8346ZM80.9752 48.6038C81.1246 48.6167 81.275 48.5972 81.416 48.5467C81.5571 48.4961 81.6855 48.4158 81.7924 48.3111C81.9617 48.1294 82.057 47.8915 82.0599 47.6437V47.6115C82.0553 47.4769 82.0231 47.3446 81.9652 47.2229C81.9074 47.1012 81.8251 46.9926 81.7235 46.9037C81.6218 46.8149 81.503 46.7477 81.3743 46.7063C81.2457 46.6649 81.1098 46.6502 80.9752 46.663H79.2115V48.6155L80.9752 48.6038ZM83.709 44.2919H84.6996V49.4117H83.709V44.2919ZM91.6898 45.0969H91.0284V44.2919H94.9498V48.6067C95.0276 48.6015 95.1057 48.6135 95.1784 48.6418C95.251 48.6702 95.3165 48.7142 95.3701 48.7707C95.473 48.89 95.5266 49.0438 95.52 49.201C95.5224 49.2449 95.5224 49.2888 95.52 49.3327C95.5111 49.385 95.4993 49.4368 95.4847 49.4878L95.0174 51.01L94.0591 50.9222L94.5382 49.4117H90.8344L91.3136 50.9222L90.3435 51.01L89.8761 49.4996V49.4439C89.8787 49.439 89.88 49.4334 89.88 49.4278C89.88 49.4222 89.8787 49.4167 89.8761 49.4117C89.879 49.3806 89.879 49.3492 89.8761 49.3181C89.8761 49.2829 89.8761 49.2566 89.8761 49.2332C89.8722 49.1491 89.8859 49.065 89.9162 48.9864C89.9466 48.9078 89.993 48.8364 90.0525 48.7765C90.1748 48.661 90.3366 48.5961 90.5052 48.595L91.6898 45.0969ZM93.9562 48.6097V45.0969H92.9567C92.8536 45.091 92.751 45.1165 92.6628 45.1701C92.5922 45.2103 92.5389 45.2749 92.5129 45.3516L91.4076 48.6067L93.9562 48.6097ZM97.954 49.4615L96.931 49.4088L98.4684 45.094H97.8658V44.2919H101.775V49.4117H100.782V45.094H99.7177C99.639 45.0857 99.5598 45.1054 99.4943 45.1496C99.4526 45.1888 99.4161 45.2331 99.3855 45.2813L99.3679 45.3048C99.3666 45.3115 99.3666 45.3185 99.3679 45.3253L97.954 49.4615ZM105.444 46.584C105.143 46.5107 104.87 46.3532 104.656 46.1303C104.492 45.962 104.399 45.7381 104.394 45.5038V45.4365C104.413 45.2795 104.465 45.1283 104.547 44.9926C104.629 44.857 104.738 44.7399 104.868 44.649C105.204 44.3924 105.621 44.2646 106.044 44.289H108.563V49.4088H107.572V46.6513H106.808C106.652 46.6511 106.502 46.7097 106.387 46.8152C106.242 46.9467 106.121 47.1034 106.032 47.2777L104.733 49.4615L103.627 49.3532L105.065 46.9587C105.12 46.8725 105.183 46.7912 105.253 46.7157C105.296 46.669 105.348 46.6312 105.406 46.6045L105.429 46.5898C105.437 46.5869 105.445 46.5869 105.453 46.5898L105.444 46.584ZM106.041 45.0998C105.884 45.0921 105.728 45.1287 105.591 45.2052C105.545 45.2294 105.504 45.263 105.472 45.3039C105.439 45.3447 105.416 45.3919 105.403 45.4423C105.4 45.451 105.4 45.46 105.403 45.4687V45.498C105.405 45.5463 105.42 45.5932 105.445 45.6346C105.47 45.6759 105.505 45.7105 105.547 45.7351C105.666 45.8123 105.807 45.8492 105.949 45.8405H107.593V45.0998H106.041ZM118.722 44.2919V45.9136L120.729 44.2919H122.04L119.983 45.9458C120.274 45.9512 120.552 46.0639 120.765 46.262C120.979 46.4589 121.166 46.6822 121.323 46.9265L121.385 47.0202L121.435 47.1138L122.655 49.3532L121.664 49.4615L120.33 47.2192C120.244 47.0624 120.12 46.9288 119.971 46.8299C119.828 46.7275 119.661 46.6648 119.486 46.6484H118.722V49.4059H117.743V46.6484H117.026C116.844 46.6502 116.667 46.7051 116.517 46.8065C116.356 46.9123 116.221 47.0535 116.123 47.2192L114.789 49.4586L113.719 49.3503L115.018 47.1109L115.068 47.0172C115.088 46.9849 115.109 46.9536 115.133 46.9236C115.287 46.6779 115.472 46.4536 115.685 46.2561C115.901 46.0553 116.184 45.9425 116.479 45.94L114.415 44.2919H115.718L117.734 45.9136V44.2919H118.722ZM128.466 45.4628L125.559 48.3901V49.4176H124.568V44.2919H125.559V47.2192L128.466 44.2919H129.46V49.4117H128.466V45.4628ZM134.745 49.4234H131.806V44.2919H134.313C134.753 44.2577 135.191 44.379 135.551 44.6344C135.671 44.7231 135.769 44.8375 135.839 44.9692C135.909 45.101 135.948 45.2467 135.953 45.3955C135.956 45.4227 135.956 45.4502 135.953 45.4775C135.952 45.5018 135.952 45.5263 135.953 45.5507C135.929 45.6748 135.879 45.7924 135.806 45.8961C135.727 46.0103 135.627 46.1094 135.512 46.1888C135.687 46.2141 135.854 46.2735 136.006 46.3634C136.157 46.4533 136.289 46.572 136.394 46.7128C136.596 46.9757 136.712 47.293 136.729 47.6232V47.7666C136.706 48.1896 136.525 48.5886 136.221 48.8848C136.026 49.0689 135.794 49.2099 135.541 49.2987C135.288 49.3874 135.019 49.422 134.751 49.4L134.745 49.4234ZM132.802 46.6425V48.595H134.616C134.758 48.6044 134.901 48.5831 135.034 48.5326C135.168 48.4821 135.289 48.4035 135.389 48.3023C135.557 48.1305 135.651 47.9009 135.653 47.6612V47.5734C135.622 47.3232 135.5 47.0931 135.31 46.9265C135.055 46.7153 134.729 46.6104 134.398 46.6337L132.802 46.6425ZM134.442 45.8258C134.592 45.8372 134.741 45.798 134.866 45.7146C134.906 45.6873 134.939 45.6512 134.963 45.6091C134.987 45.567 135.001 45.5199 135.004 45.4716V45.4336C135.006 45.421 135.006 45.4081 135.004 45.3955C134.969 45.3083 134.907 45.2344 134.827 45.1847C134.706 45.1114 134.564 45.0767 134.422 45.0852H132.814V45.8258H134.442ZM141.35 49.5435C140.605 49.55 139.884 49.282 139.325 48.7912C139.043 48.5422 138.821 48.2337 138.675 47.8883C138.528 47.5429 138.461 47.1693 138.478 46.7947C138.46 46.4268 138.529 46.0597 138.678 45.7228C138.828 45.3858 139.054 45.0883 139.34 44.854C139.889 44.4002 140.581 44.1544 141.294 44.1602H141.341C142.062 44.1607 142.76 44.4077 143.32 44.8598C143.608 45.0918 143.837 45.3875 143.991 45.7234C144.144 46.0593 144.216 46.4261 144.202 46.7947C144.215 47.1656 144.147 47.5349 144.001 47.8764C143.855 48.2179 143.636 48.5232 143.358 48.7707C142.81 49.2654 142.093 49.5334 141.353 49.52L141.35 49.5435ZM141.35 48.715C141.582 48.7176 141.811 48.6736 142.025 48.5855C142.238 48.4975 142.432 48.3673 142.594 48.2028C142.768 48.0288 142.904 47.821 142.994 47.5924C143.084 47.3638 143.126 47.1192 143.117 46.8738C143.135 46.3774 142.957 45.8937 142.62 45.5272C142.459 45.3532 142.262 45.2157 142.043 45.1243C141.824 45.0329 141.588 44.9896 141.35 44.9974C141.114 44.9923 140.88 45.0369 140.663 45.1282C140.446 45.2195 140.25 45.3555 140.089 45.5272C139.759 45.8968 139.586 46.3796 139.607 46.8738C139.597 47.1188 139.638 47.3633 139.727 47.5919C139.816 47.8206 139.951 48.0285 140.124 48.2028C140.285 48.3675 140.477 48.4979 140.69 48.586C140.903 48.6741 141.132 48.718 141.362 48.715H141.35ZM150.769 44.2802V45.0852H148.808V49.4H147.814V45.094H145.901V44.2919L150.769 44.2802ZM152.911 45.8258V44.2919H153.902V45.8375H156.742V44.2919H157.732V49.4117H156.742V46.6542H153.902V49.4117H152.911V46.6542H152.227V45.8375L152.911 45.8258ZM162.871 45.8258C163.153 45.806 163.437 45.843 163.705 45.9345C163.973 46.026 164.22 46.1702 164.432 46.3586C164.765 46.6618 164.969 47.0809 165.002 47.5295V47.6173C164.999 47.846 164.951 48.0718 164.86 48.2819C164.769 48.4919 164.638 48.6819 164.473 48.8409C164.12 49.2098 163.586 49.3942 162.871 49.3942H160.113V44.2919H161.104V45.8375L162.871 45.8258ZM162.871 48.595C163.02 48.6083 163.17 48.5889 163.31 48.5384C163.451 48.4878 163.579 48.4072 163.685 48.3023C163.856 48.1217 163.953 47.8833 163.955 47.6349V47.6027C163.951 47.4681 163.918 47.3359 163.861 47.2141C163.803 47.0924 163.72 46.9838 163.619 46.8949C163.517 46.8061 163.398 46.7389 163.27 46.6975C163.141 46.6561 163.005 46.6414 162.871 46.6542H161.107V48.6067L162.871 48.595ZM165.584 44.2919H166.574V49.4117H165.584V44.2919ZM172.75 49.4117L171.189 47.2602L169.629 49.4117H168.453L170.584 46.4435L169.047 44.2919H170.222L171.192 45.6385L172.151 44.2919H173.327L171.766 46.4435L173.92 49.4117H172.75Z" fill="white" fill-opacity="0.7"/>
<path fill-rule="evenodd" clip-rule="evenodd" d="M212.49 36.9624V23.541H217.043V17.1772H200.734V23.541H205.297V36.9624H212.49Z" fill="white" fill-opacity="0.7"/>
<path d="M212.49 23.541H205.297V36.9624H212.49V23.541Z" fill="white" fill-opacity="0.7"/>
<path fill-rule="evenodd" clip-rule="evenodd" d="M189.267 31.389V36.9624H196.584V17.1772H189.267V22.7536H188.456V17.1772H181.14V36.9624H188.456V31.389H189.267Z" fill="white" fill-opacity="0.7"/>
<path fill-rule="evenodd" clip-rule="evenodd" d="M176.986 27.0682C176.999 25.7039 176.727 24.3518 176.189 23.0972C175.651 21.8426 174.857 20.7128 173.858 19.7792C171.785 17.7243 169.396 16.6978 166.691 16.6997V27.0447H165.877V16.6997C163.124 16.6997 160.709 17.7262 158.634 19.7792C157.655 20.7245 156.878 21.8578 156.351 23.1107C155.824 24.3635 155.558 25.7099 155.568 27.0682C155.551 28.4433 155.822 29.8068 156.366 31.0711C156.909 32.3354 157.712 33.4727 158.722 34.4098C160.745 36.3708 163.463 37.4593 166.286 37.4395C167.69 37.4623 169.085 37.2043 170.388 36.6809C171.69 36.1575 172.874 35.3793 173.87 34.3922C174.865 33.4493 175.655 32.3136 176.193 31.0551C176.731 29.7965 177.005 28.4418 176.997 27.074" fill="white" fill-opacity="0.7"/>
<path fill-rule="evenodd" clip-rule="evenodd" d="M147.145 27.0684L151.874 17.1772H142.909V21.9721H142.095V17.1772H136.33V36.9624H142.095V31.389H142.909V36.9624H152.636L147.145 27.0684Z" fill="white" fill-opacity="0.7"/>
<path fill-rule="evenodd" clip-rule="evenodd" d="M147.144 27.0684L151.874 17.1772H142.908V36.9624H152.635L147.144 27.0684Z" fill="white" fill-opacity="0.7"/>
<path fill-rule="evenodd" clip-rule="evenodd" d="M122.526 27.0679L132.009 22.2584C131.19 20.8083 130.049 19.564 128.672 18.6207C127.296 17.6774 125.722 17.0603 124.069 16.8165C122.416 16.5726 120.73 16.7086 119.138 17.214C117.546 17.7194 116.092 18.5808 114.886 19.7322C113.882 20.6712 113.086 21.8089 112.549 23.0721C112.013 24.3354 111.747 25.6964 111.77 27.0679C111.756 28.439 112.03 29.7979 112.573 31.0579C113.116 32.3179 113.917 33.4514 114.924 34.386C116.145 35.5649 117.626 36.4428 119.249 36.9493C120.872 37.4558 122.591 37.5769 124.27 37.3029C125.948 37.0289 127.539 36.3674 128.914 35.3714C130.29 34.3754 131.412 33.0725 132.191 31.5671L122.526 27.0679Z" fill="white" fill-opacity="0.7"/>
<path fill-rule="evenodd" clip-rule="evenodd" d="M132.008 22.2586C131.15 20.6904 129.91 19.3621 128.402 18.3958C126.894 17.4296 125.166 16.8564 123.378 16.729L113.136 21.9249C112.219 23.4835 111.747 25.2617 111.769 27.068C111.749 28.7566 112.169 30.4215 112.986 31.9009L132.008 22.2586Z" fill="white" fill-opacity="0.7"/>
<path fill-rule="evenodd" clip-rule="evenodd" d="M90.2646 17.1771H96.8433V23.541L107.631 16.4629V36.9624H101.867V31.3889H101.056V36.9624H90.2646V17.1771Z" fill="white" fill-opacity="0.7"/>
<path fill-rule="evenodd" clip-rule="evenodd" d="M71.3338 29.9107H69.0439V36.9624H77.1718V31.3889H77.9831V36.9624H86.1109V29.9107H83.818L77.5862 16.4629L71.3338 29.9107Z" fill="white" fill-opacity="0.7"/>
<path fill-rule="evenodd" clip-rule="evenodd" d="M77.9824 31.3889V36.9624H86.1132V29.9106H83.8174L77.9824 17.3203V29.9106V31.3889Z" fill="white" fill-opacity="0.7"/>
<path fill-rule="evenodd" clip-rule="evenodd" d="M65.3832 27.0682C65.3963 25.7036 65.1249 24.3512 64.586 23.0965C64.0471 21.8419 63.2525 20.7123 62.2526 19.7792C60.1851 17.7243 57.7963 16.6978 55.086 16.6997V27.0448H54.2718V16.6997C51.5164 16.6997 49.1031 17.7262 47.0317 19.7792C46.0495 20.7231 45.2701 21.8559 44.7411 23.1089C44.212 24.3619 43.9442 25.7089 43.954 27.0682C43.9354 28.4426 44.2056 29.8058 44.7472 31.0701C45.2889 32.3345 46.0901 33.472 47.0993 34.4098C49.1236 36.3707 51.8417 37.4591 54.6657 37.4396C56.0697 37.4621 57.464 37.204 58.7661 36.6806C60.0683 36.1572 61.2518 35.3791 62.2467 34.3923C63.2414 33.449 64.0322 32.3134 64.5706 31.0549C65.1089 29.7965 65.3834 28.4419 65.3773 27.074" fill="white" fill-opacity="0.7"/>
<path fill-rule="evenodd" clip-rule="evenodd" d="M40.2923 27.0682C40.306 25.7038 40.035 24.3515 39.4967 23.0968C38.9583 21.8421 38.1642 20.7124 37.1646 19.7792C35.0913 17.7243 32.7024 16.6978 29.998 16.6997V27.0448H29.1838V16.6997C26.4304 16.6997 24.0171 17.7262 21.9437 19.7792C20.9616 20.7233 20.1822 21.8561 19.6527 23.109C19.1231 24.3619 18.8545 25.7088 18.8631 27.0682C18.8458 28.4433 19.1174 29.8068 19.6606 31.0711C20.2038 32.3355 21.0065 33.4727 22.0172 34.4098C24.0415 36.3707 26.7596 37.4591 29.5836 37.4396C30.9876 37.4621 32.3819 37.204 33.684 36.6806C34.9862 36.1572 36.1697 35.3791 37.1646 34.3923C38.1595 33.4493 38.9502 32.3136 39.4881 31.0551C40.0259 29.7966 40.2996 28.4418 40.2923 27.074" fill="white" fill-opacity="0.7"/>
<path fill-rule="evenodd" clip-rule="evenodd" d="M38.837 21.8371C38.3644 21.0858 37.8039 20.3931 37.1674 19.7733C35.092 17.7223 32.7022 16.6958 29.9978 16.6938V27.0447H29.1836V37.4307C29.3159 37.4307 29.4482 37.4307 29.5834 37.4307C30.9882 37.4537 32.3833 37.1956 33.6861 36.6717C34.9888 36.1477 36.1726 35.3686 37.1674 34.3805C37.8063 33.7575 38.367 33.0596 38.837 32.3021V21.8371Z" fill="white" fill-opacity="0.7"/>
<path fill-rule="evenodd" clip-rule="evenodd" d="M101.052 20.7743L107.63 16.4536V36.9624H101.866V31.3859H101.052V20.7743Z" fill="white" fill-opacity="0.7"/>
<path fill-rule="evenodd" clip-rule="evenodd" d="M189.262 31.386V36.9624H196.585V17.1743H189.262V22.7536H188.451V31.386H189.262Z" fill="white" fill-opacity="0.7"/>
<path fill-rule="evenodd" clip-rule="evenodd" d="M175.531 21.8372C175.059 21.0852 174.497 20.3923 173.859 19.7734C171.785 17.7223 169.397 16.6958 166.692 16.6938V27.0449H165.878V37.4312C166.01 37.4312 166.142 37.4312 166.278 37.4312C167.682 37.4545 169.077 37.1965 170.379 36.6725C171.681 36.1485 172.865 35.3692 173.859 34.3809C174.499 33.7587 175.061 33.0607 175.531 32.3025V21.8372Z" fill="white" fill-opacity="0.7"/>
<path fill-rule="evenodd" clip-rule="evenodd" d="M45.4336 21.8372C45.9045 21.0855 46.4641 20.3926 47.1003 19.7734C49.1717 17.7223 51.5606 16.6958 54.2669 16.6938V27.0449H55.0812V37.431C54.9489 37.431 54.8166 37.431 54.6814 37.431C53.2776 37.4555 51.8832 37.1989 50.5809 36.6764C49.2787 36.1539 48.095 35.3762 47.1003 34.3895C46.4596 33.7674 45.8979 33.0694 45.4277 32.3111L45.4336 21.8372Z" fill="white" fill-opacity="0.7"/>
<path fill-rule="evenodd" clip-rule="evenodd" d="M6.57845 17.2121H11.8255C12.5014 17.2051 13.1684 17.3654 13.7667 17.6786C14.3649 17.9918 14.8757 18.4481 15.253 19.0065C15.9808 20.0054 16.3766 21.2061 16.3847 22.4402C16.4201 23.294 16.2539 24.1442 15.8997 24.9225C15.5359 25.6247 15.0246 26.2407 14.4005 26.7286C15.0737 27.0389 15.6381 27.642 16.1025 28.5435C16.5658 29.5332 16.8018 30.6131 16.7933 31.705C16.8089 33.0917 16.2939 34.4324 15.353 35.4548C14.9187 35.9608 14.377 36.3643 13.7669 36.6361C13.1568 36.908 12.4937 37.0414 11.8255 37.0267H0.0673828V29.9633H8.97711V29.17H3.3479V23.5848H8.97711V22.7973H6.57845V17.2121Z" fill="white" fill-opacity="0.7"/>
<path fill-rule="evenodd" clip-rule="evenodd" d="M16.3877 22.7974C16.3831 23.5318 16.2197 24.2567 15.9085 24.9226C15.5422 25.6256 15.0278 26.2417 14.4005 26.7287C15.0737 27.039 15.6381 27.642 16.1025 28.5436C16.5658 29.5332 16.8018 30.6132 16.7933 31.705C16.8077 33.0916 16.2929 34.4319 15.3529 35.4549C14.9183 35.9604 14.3765 36.3636 13.7665 36.6354C13.1565 36.9072 12.4936 37.0409 11.8255 37.0268H0.0673828V29.9633H8.9771V29.17H3.3479V23.5848H8.9771V22.7974H16.3877Z" fill="white" fill-opacity="0.7"/>
<path fill-rule="evenodd" clip-rule="evenodd" d="M16.3754 29.1699C16.4668 29.4292 16.5414 29.6941 16.5988 29.9629H8.97656V29.1699H16.3754Z" fill="white" fill-opacity="0.7"/>
<path fill-rule="evenodd" clip-rule="evenodd" d="M16.5993 29.9634C16.7212 30.5411 16.7862 31.1294 16.7933 31.7197C16.804 33.1012 16.2894 34.4356 15.3529 35.4549C14.9183 35.9604 14.3765 36.3636 13.7665 36.6354C13.1565 36.9072 12.4936 37.0409 11.8255 37.0268H0.0673828V29.9634H16.5993Z" fill="white" fill-opacity="0.7"/>
</svg>
