<svg width="160" height="104" viewBox="0 0 160 104" fill="none" xmlns="http://www.w3.org/2000/svg">
<path d="M10.3825 88.2426C10.3825 90.7602 7.73691 91.8462 5.05017 91.8462C2.36343 91.8462 0.420398 90.7016 0.420398 88.9598C0.411334 88.7494 0.444759 88.5392 0.518694 88.3419C0.592629 88.1445 0.705572 87.9639 0.850837 87.8108C0.996102 87.6577 1.17074 87.5351 1.36441 87.4504C1.55808 87.3657 1.76684 87.3205 1.97835 87.3176C2.18347 87.3152 2.38698 87.3538 2.57691 87.431C2.76684 87.5081 2.93934 87.6224 3.08425 87.7669C3.22916 87.9115 3.34355 88.0835 3.42068 88.2728C3.49781 88.4621 3.53613 88.6648 3.53337 88.8691C3.54214 89.0636 3.51012 89.2578 3.43936 89.4394C3.3686 89.6209 3.26065 89.7858 3.12238 89.9235C2.98411 90.0612 2.81856 90.1687 2.63627 90.2391C2.45398 90.3096 2.25895 90.3415 2.0636 90.3328C2.73726 90.8156 3.54703 91.0738 4.37702 91.0704C6.14074 91.0704 7.16076 90.081 7.16076 88.2017C7.16076 86.7702 6.57285 85.2187 4.04779 85.2187V84.5396C6.38178 84.5396 6.7698 82.9529 6.7698 81.7908C6.7698 80.2598 6.09077 79.2499 4.55339 79.2499C4.02621 79.247 3.50662 79.3751 3.04162 79.6224C2.57662 79.8698 2.18087 80.2287 1.89017 80.6667C2.1085 80.6132 2.33634 80.6112 2.55561 80.6607C2.77487 80.7103 2.97952 80.81 3.15329 80.9521C3.32707 81.0942 3.46518 81.2747 3.55667 81.4792C3.64816 81.6837 3.69051 81.9067 3.68035 82.1304C3.68311 82.3345 3.64478 82.5371 3.56762 82.7262C3.49045 82.9153 3.37601 83.0872 3.23106 83.2315C3.08611 83.3759 2.91358 83.4898 2.72367 83.5667C2.53376 83.6435 2.3303 83.6817 2.12533 83.6789C1.91374 83.6779 1.70451 83.6345 1.51009 83.5513C1.31567 83.4682 1.14002 83.347 0.993584 83.1948C0.84715 83.0427 0.732919 82.8629 0.657681 82.6659C0.582442 82.469 0.547733 82.259 0.555617 82.0484C0.555617 80.292 2.17236 78.4829 5.25888 78.4829C7.18722 78.4829 9.90923 79.1972 9.90923 81.5625C9.90923 83.3657 8.316 84.3903 5.79388 84.8177C8.76869 85.128 10.3854 86.2521 10.3854 88.2485" fill="white" fill-opacity="0.7"/>
<path d="M24.684 85.1599C24.684 88.9975 22.0384 91.8457 18.07 91.8457C13.9047 91.8457 11.4531 89.0736 11.4531 85.1599C11.4531 81.3252 14.0987 78.4771 18.07 78.4771C22.2324 78.4771 24.684 81.2462 24.684 85.1599ZM21.474 85.3531C21.474 81.9839 19.8984 79.2498 17.876 79.2498C15.9859 79.2498 14.6631 81.5184 14.6631 84.9667C14.6631 88.3389 16.2387 91.07 18.264 91.07C20.1512 91.07 21.474 88.8043 21.474 85.3531Z" fill="white" fill-opacity="0.7"/>
<path d="M39.269 85.1599C39.269 88.9975 36.6234 91.8457 32.655 91.8457C28.4897 91.8457 26.0381 89.0736 26.0381 85.1599C26.0381 81.3252 28.6837 78.4771 32.655 78.4771C36.8174 78.4771 39.269 81.2462 39.269 85.1599ZM36.059 85.3531C36.059 81.9839 34.4834 79.2498 32.461 79.2498C30.5738 79.2498 29.251 81.5184 29.251 84.9667C29.251 88.3389 30.8266 91.07 32.849 91.07C34.7362 91.07 36.059 88.8043 36.059 85.3531Z" fill="white" fill-opacity="0.7"/>
<path d="M52.4265 79.5427V90.7805L52.6234 90.9737H53.6905V91.6528H48.1465V90.9737H49.2165L49.4105 90.7805V81.9636L44.2575 89.1325V90.7805L44.4515 90.9737H45.5215V91.6528H39.9746V90.9737H41.0446L41.2415 90.7805V79.5427L41.0446 79.3466H39.9746V78.6704H45.5215V79.3466H44.4515L44.2575 79.5427V87.8737L49.4105 80.7049V79.5427L49.2165 79.3466H48.1465V78.6704H53.6905V79.3466H52.6234L52.4265 79.5427Z" fill="white" fill-opacity="0.7"/>
<path d="M67.3181 79.5427V90.7805L67.5121 90.9737H68.5821V91.6528H63.0381V90.9737H64.1081L64.3021 90.7805V85.2568H59.1462V90.7805L59.3402 90.9737H60.4102V91.6528H54.8662V90.9737H55.9362L56.1302 90.7805V79.5427L55.9362 79.3466H54.8662V78.6704H60.4102V79.3466H59.3402L59.1462 79.5427V84.5806H64.3021V79.5427L64.1081 79.3466H63.0381V78.6704H68.5821V79.3466H67.5121L67.3181 79.5427Z" fill="white" fill-opacity="0.7"/>
<path d="M79.9883 79.5427V90.7804L80.1823 90.9736H81.2582V95.6221H80.6115C80.4175 93.1046 79.6179 91.6527 77.7513 91.6527H72.9834C71.1168 91.6527 70.3172 93.1164 70.1232 95.6221H69.4824V90.9736H70.8052C71.64 88.5528 72.0104 83.4155 72.031 79.5427L71.837 79.3466H69.9674V78.6704H81.2582V79.3466H80.1882L79.9883 79.5427ZM76.9724 79.5427L76.7784 79.3466H73.101L72.907 79.5427C72.8864 82.5051 72.71 87.9498 71.7312 90.9736H76.7901L76.9841 90.7804L76.9724 79.5427Z" fill="white" fill-opacity="0.7"/>
<path d="M83.7122 90.3533C83.7082 90.1561 83.7442 89.9602 83.8181 89.7773C83.8921 89.5943 84.0024 89.4282 84.1424 89.2887C84.2824 89.1493 84.4492 89.0395 84.6329 88.9659C84.8166 88.8923 85.0134 88.8564 85.2114 88.8603C85.8933 88.8603 86.6811 89.56 86.4753 90.7807C87.4101 90.5465 87.7981 89.9025 88.6153 88.2602L83.2448 79.3495H82.1748V78.6704H88.0715V79.3495H86.9427L86.7487 79.5427L90.0763 85.3534H90.1733L93.0335 79.5427L92.8394 79.3495H91.1845V78.6704H95.1352V79.3495H94.0652L89.7441 87.7772C88.5977 90.0049 87.8775 91.8462 85.4259 91.8462C84.4529 91.8462 83.7122 91.2051 83.7122 90.3533Z" fill="white" fill-opacity="0.7"/>
<path d="M106.102 88.3188L106.629 88.7638C105.247 90.5845 103.475 91.8462 101.082 91.8462H101.064C97.3074 91.8462 94.4678 89.036 94.4678 85.2393C94.4678 81.2846 97.522 78.4774 101.376 78.4774C102.493 78.4668 103.596 78.7323 104.586 79.2502L104.88 78.6647H105.562C105.659 79.982 105.814 81.7647 106.047 82.9854L105.406 83.1785C104.336 80.3889 102.895 79.2443 101.32 79.2443C98.927 79.2443 97.6807 81.8993 97.6807 85.0784C97.6807 88.2574 98.9065 90.8714 101.649 90.8714C103.342 90.8714 104.762 89.8644 106.105 88.313" fill="white" fill-opacity="0.7"/>
<path d="M119.421 82.1392L118.777 82.3324C117.842 80.1048 116.228 79.3495 114.829 79.3495H114.809V90.7805L115.003 90.9737H116.073V91.6528H110.529V90.9737H111.599L111.793 90.7805V79.3495C110.391 79.3495 108.777 80.1048 107.842 82.3324L107.201 82.1392L107.98 78.6704H118.642L119.421 82.1392Z" fill="white" fill-opacity="0.7"/>
<path d="M131.538 82.1948C131.538 84.6772 128.893 86.0325 126.673 86.0325H124.436V90.7805L124.63 90.9737H126.188V91.6499H120.156V90.9737H121.235L121.429 90.7805V79.5427L121.235 79.3495H120.165V78.6704H126.673C129.087 78.6704 131.538 79.6393 131.538 82.1831V82.1948ZM128.328 82.3383C128.328 80.4209 127.152 79.3378 125.897 79.3378H124.63L124.436 79.531V85.3417H125.906C127.208 85.3417 128.337 84.6069 128.337 82.3383" fill="white" fill-opacity="0.7"/>
<path d="M144.428 79.5427V90.7805L144.622 90.9737H145.692V91.6528H140.148V90.9737H141.218L141.412 90.7805V81.9636L136.257 89.1325V90.7805L136.451 90.9737H137.521V91.6528H131.977V90.9737H133.047L133.241 90.7805V79.5427L133.047 79.3466H131.977V78.6704H137.521V79.3466H136.451L136.257 79.5427V87.8737L141.412 80.7049V79.5427L141.218 79.3466H140.148V78.6704H145.692V79.3466H144.622L144.428 79.5427Z" fill="white" fill-opacity="0.7"/>
<path d="M158.361 79.5427V90.7805L158.555 90.9737H159.628V91.6528H154.081V90.9737H155.151L155.345 90.7805V85.6461H154.51C153.44 85.6461 153.108 86.2637 152.349 87.8357L150.521 91.6411H146.591V90.962C147.135 90.8654 147.602 90.7864 148.011 89.955L149.236 87.3966C149.801 86.1964 150.327 85.5934 151.241 85.3241C149.624 84.8206 148.243 83.638 148.243 81.9899C148.243 79.6276 150.697 78.6587 153.108 78.6587H159.628V79.3349H158.566L158.361 79.5427ZM155.345 79.5427L155.151 79.3466H153.887C152.64 79.3466 151.456 80.2394 151.456 81.9636C151.456 84.0361 152.602 84.967 153.887 84.967H155.357L155.345 79.5427Z" fill="white" fill-opacity="0.7"/>
<path d="M25.3571 98.5407V101.632L25.407 101.661H26.0214V103.614H25.751C25.7098 102.639 25.457 101.945 24.7927 101.945H23.4787C22.8144 101.945 22.5616 102.639 22.5204 103.614H22.2529V101.661H22.8408C23.1701 101.02 23.2759 99.2696 23.2759 98.529L23.2347 98.488H22.5792V98.1953H26.0126V98.488H25.407L25.3571 98.5407ZM24.7045 98.5407L24.6633 98.4998H23.608L23.5669 98.5407C23.5669 99.1262 23.5346 100.827 23.1906 101.673H24.6604L24.7015 101.632L24.7045 98.5407Z" fill="white" fill-opacity="0.7"/>
<path d="M30.642 98.5408V101.632L30.6832 101.673H31.2975V101.957H29.3339V101.673H29.9483L29.9894 101.632V99.3136L28.0288 101.266V101.632L28.0699 101.673H28.6814V101.957H26.7207V101.673H27.3321L27.3733 101.632V98.5408L27.3321 98.4998H26.7207V98.2129H28.6814V98.4998H28.0699L28.0288 98.5408V100.859L29.9894 98.9067V98.5408L29.9483 98.4998H29.3339V98.2129H31.2975V98.4998H30.6832L30.642 98.5408Z" fill="white" fill-opacity="0.7"/>
<path d="M31.8533 100.118C31.8393 99.8576 31.8799 99.5967 31.9725 99.3524C32.0651 99.108 32.2076 98.8855 32.3912 98.6989C32.5747 98.5123 32.7951 98.3657 33.0385 98.2685C33.2819 98.1712 33.543 98.1253 33.8051 98.1338C34.5665 98.1338 35.2455 98.5495 35.2455 99.1495C35.2508 99.2062 35.2442 99.2634 35.2261 99.3174C35.208 99.3714 35.1788 99.421 35.1404 99.4631C35.1019 99.5053 35.0551 99.539 35.0028 99.5621C34.9506 99.5852 34.8941 99.5972 34.8369 99.5974C34.7285 99.5974 34.6246 99.5545 34.548 99.4782C34.4714 99.4019 34.4283 99.2984 34.4283 99.1905C34.4245 99.0945 34.4567 99.0006 34.5187 98.927C34.5806 98.8534 34.6679 98.8054 34.7634 98.7924C34.6387 98.6644 34.4878 98.5647 34.3209 98.5001C34.154 98.4354 33.9751 98.4073 33.7963 98.4177C32.9145 98.4177 32.5646 99.1349 32.5646 100.028C32.5646 101.096 33.1349 101.714 33.8375 101.714C34.2725 101.714 34.687 101.453 35.0633 100.964L35.2837 101.152C34.8751 101.714 34.4019 102.03 33.7228 102.03C33.4708 102.035 33.2202 101.989 32.987 101.894C32.7537 101.799 32.5427 101.656 32.3672 101.476C32.1917 101.296 32.0554 101.081 31.967 100.846C31.8786 100.611 31.8399 100.36 31.8533 100.11" fill="white" fill-opacity="0.7"/>
<path d="M39.4486 99.3604L39.2017 99.4278C38.99 98.7193 38.6461 98.5086 37.9671 98.4998V101.632L38.0082 101.673H38.6344V101.966H36.6708V101.673H37.2851L37.3263 101.632V98.4998C36.6972 98.4998 36.3121 98.6783 36.0828 99.4278L35.8389 99.3604L36.027 98.2158H39.2605L39.4486 99.3604Z" fill="white" fill-opacity="0.7"/>
<path d="M44.237 100.069C44.237 101.24 43.5345 102.039 42.5527 102.039C42.2833 102.055 42.0153 101.99 41.7837 101.852C41.552 101.714 41.3672 101.51 41.2534 101.266V103.667L41.2945 103.708H42.2323V104H39.9453V103.708H40.5567L40.5979 103.667V98.5412L40.5567 98.5002H39.9453V98.2075C40.3715 98.2075 40.7449 98.2075 41.1711 98.1694L41.2122 98.2075V98.9012H41.2534C41.3792 98.6672 41.5666 98.4716 41.7955 98.3355C42.0243 98.1994 42.2861 98.1278 42.5527 98.1284C43.5345 98.1284 44.237 98.8924 44.237 100.063V100.069ZM43.4992 100.163C43.4992 99.0973 43.0583 98.4943 42.438 98.4943C41.9883 98.4943 41.5562 98.7871 41.2622 99.4691V100.693C41.5562 101.384 41.9971 101.667 42.438 101.667C43.0583 101.667 43.4992 101.228 43.4992 100.163Z" fill="white" fill-opacity="0.7"/>
<path d="M48.7348 98.5408V101.632L48.776 101.673H49.3903V101.957H47.4267V101.673H48.0411L48.0822 101.632V99.3136L46.1216 101.266V101.632L46.1627 101.673H46.7741V101.957H44.8135V101.673H45.4249L45.4661 101.632V98.5408L45.4249 98.4998H44.8135V98.2129H46.7741V98.4998H46.1627L46.1216 98.5408V100.859L48.0822 98.9067V98.5408L48.0411 98.4998H47.4267V98.2129H49.3903V98.4998H48.776L48.7348 98.5408Z" fill="white" fill-opacity="0.7"/>
<path d="M50.0986 99.9227C50.0986 98.213 50.4602 96.1726 52.7971 96.0731C53.0911 96.0731 53.2469 95.9853 53.2969 95.8535H53.5173C53.6643 96.2048 53.5173 96.7318 52.8207 96.7318C50.8923 96.7318 50.5837 97.8793 50.4279 99.1967C50.663 98.6112 51.3597 98.3009 52.0211 98.3009C52.2672 98.2971 52.5114 98.3433 52.739 98.4367C52.9665 98.5301 53.1725 98.6687 53.3444 98.844C53.5164 99.0194 53.6506 99.2278 53.739 99.4565C53.8273 99.6853 53.8679 99.9295 53.8583 100.174C53.8631 100.421 53.8178 100.667 53.7251 100.896C53.6324 101.125 53.4942 101.333 53.3188 101.508C53.1435 101.682 52.9345 101.82 52.7044 101.912C52.4743 102.005 52.2279 102.05 51.9799 102.045C50.9746 102.045 50.0986 101.296 50.0986 99.9285V99.9227ZM53.1234 100.174C53.1234 99.2786 52.8295 98.5878 52.0211 98.5878C51.3421 98.5878 50.8453 99.2962 50.8453 100.174C50.8453 101.053 51.1392 101.761 51.9476 101.761C52.6267 101.761 53.1234 101.053 53.1234 100.174Z" fill="white" fill-opacity="0.7"/>
<path d="M54.3818 101.661H54.9962L55.0374 101.62V98.5408L54.9962 98.4998H54.3818V98.207H56.3425V98.4998H55.7311L55.6899 98.5408V99.8025H56.3425C57.3978 99.8025 58.068 100.11 58.068 100.845C58.068 101.579 57.3978 101.957 56.3425 101.957H54.3818V101.661ZM56.4395 101.661C57.0274 101.661 57.3478 101.354 57.3478 100.865C57.3478 100.376 57.0539 100.075 56.4395 100.075H55.6841V101.62L55.7252 101.661H56.4395Z" fill="white" fill-opacity="0.7"/>
<path d="M64.2574 100.086C64.2574 101.289 63.4667 102.039 62.5437 102.039C61.6207 102.039 60.827 101.289 60.827 100.086H59.8452V101.632L59.8864 101.673H60.4978V101.965H58.5371V101.673H59.1515L59.1926 101.632V98.5407L59.1515 98.4997H58.5371V98.207H60.4978V98.4997H59.8864L59.8452 98.5407V99.8022H60.8417C60.9563 98.769 61.6912 98.1338 62.5437 98.1338C63.4667 98.1338 64.2574 98.8802 64.2574 100.086ZM63.5226 100.086C63.5226 99.1261 63.0993 98.4177 62.5025 98.4177C61.7735 98.4177 61.5619 99.1085 61.5619 100.086C61.5619 101.064 61.9852 101.755 62.5819 101.755C63.3109 101.755 63.5226 101.064 63.5226 100.086Z" fill="white" fill-opacity="0.7"/>
<path d="M68.4945 99.3604L68.2506 99.4278C68.036 98.7193 67.695 98.5086 67.016 98.4998V101.632L67.0571 101.673H67.6685V101.966H65.7079V101.673H66.3222L66.3634 101.632V98.4998C65.7314 98.4998 65.3492 98.6783 65.12 99.4278L64.876 99.3604L65.0612 98.2158H68.2946L68.4945 99.3604Z" fill="white" fill-opacity="0.7"/>
<path d="M72.8562 100.086C72.8435 100.454 72.7227 100.809 72.5086 101.109C72.2946 101.408 71.9969 101.638 71.6526 101.77C71.3082 101.902 70.9324 101.931 70.572 101.852C70.2116 101.773 69.8824 101.59 69.6255 101.326C69.3686 101.062 69.1953 100.729 69.1271 100.368C69.0589 100.007 69.0989 99.6337 69.2421 99.295C69.3854 98.9563 69.6254 98.667 69.9325 98.4632C70.2395 98.2593 70.6 98.1499 70.969 98.1485C71.2234 98.1462 71.4755 98.1957 71.71 98.2941C71.9444 98.3924 72.1561 98.5375 72.332 98.7205C72.508 98.9034 72.6445 99.1202 72.7331 99.3577C72.8218 99.5951 72.8607 99.8481 72.8474 100.101L72.8562 100.086ZM72.1125 100.101C72.1125 99.1409 71.6069 98.4325 70.9367 98.4325C70.1283 98.4325 69.8344 99.1233 69.8344 100.101C69.8344 101.079 70.34 101.77 71.0102 101.77C71.8186 101.77 72.1125 101.079 72.1125 100.101Z" fill="white" fill-opacity="0.7"/>
<path d="M77.5974 100.069C77.5974 101.24 76.8948 102.039 75.913 102.039C75.6437 102.054 75.3761 101.989 75.1446 101.851C74.9131 101.713 74.7282 101.51 74.6137 101.266V103.667L74.6549 103.708H75.5955V104H73.3203V103.708H73.9082L73.9494 103.667V98.5412L73.9082 98.5002H73.3203V98.2075C73.7465 98.2075 74.1228 98.2075 74.5461 98.1694L74.5873 98.2075V98.9012H74.6284C74.7542 98.6672 74.9416 98.4716 75.1705 98.3355C75.3994 98.1994 75.6611 98.1278 75.9277 98.1284C76.9095 98.1284 77.6121 98.8924 77.6121 100.063L77.5974 100.069ZM76.8772 100.163C76.8772 99.0973 76.4362 98.4943 75.8131 98.4943C75.3662 98.4943 74.9312 98.7871 74.6372 99.4691V100.693C74.9312 101.384 75.3751 101.667 75.8131 101.667C76.4362 101.667 76.8772 101.228 76.8772 100.163Z" fill="white" fill-opacity="0.7"/>
<path d="M78.3884 100.118C78.3744 99.8576 78.415 99.5967 78.5076 99.3524C78.6002 99.108 78.7428 98.8855 78.9263 98.6989C79.1098 98.5123 79.3303 98.3657 79.5737 98.2685C79.8171 98.1712 80.0782 98.1253 80.3403 98.1338C81.1016 98.1338 81.7777 98.5495 81.7777 99.1495C81.7804 99.203 81.7725 99.2564 81.7545 99.3068C81.7365 99.3572 81.7086 99.4035 81.6726 99.4432C81.6366 99.4829 81.593 99.5151 81.5445 99.5381C81.496 99.561 81.4434 99.5742 81.3897 99.5769C81.3361 99.5796 81.2824 99.5717 81.2318 99.5538C81.1812 99.5358 81.1346 99.5081 81.0948 99.4722C81.0549 99.4363 81.0225 99.393 80.9995 99.3446C80.9765 99.2963 80.9632 99.2439 80.9605 99.1905C80.9575 99.0943 80.9903 99.0003 81.0528 98.9268C81.1152 98.8533 81.2028 98.8054 81.2986 98.7924C81.1739 98.6644 81.0229 98.5647 80.856 98.5001C80.6892 98.4354 80.5102 98.4073 80.3315 98.4177C79.4496 98.4177 79.0998 99.1349 79.0998 100.028C79.0998 101.096 79.6701 101.714 80.3726 101.714C80.8077 101.714 81.2222 101.453 81.5984 100.964L81.8189 101.152C81.4103 101.714 80.937 102.03 80.258 102.03C80.0059 102.035 79.7554 101.989 79.5221 101.894C79.2888 101.799 79.0779 101.656 78.9023 101.476C78.7268 101.296 78.5906 101.081 78.5022 100.846C78.4137 100.611 78.375 100.36 78.3884 100.11" fill="white" fill-opacity="0.7"/>
<path d="M86.7461 101.661V101.954H85.4615L84.6943 100.628C84.465 100.23 84.1211 100.166 83.6802 100.166V101.629L83.7213 101.67H84.3357V101.963H82.3721V101.67H82.9864L83.0276 101.629V98.5409L82.9864 98.4999H82.3721V98.2072H84.3357V98.4999H83.7213L83.6802 98.5409V99.8816C85.1676 99.8816 84.8736 98.1252 86.0906 98.1252C86.1586 98.1196 86.2271 98.1279 86.2917 98.1497C86.3564 98.1714 86.4159 98.2061 86.4666 98.2517C86.5172 98.2972 86.558 98.3526 86.5864 98.4144C86.6147 98.4763 86.6301 98.5432 86.6314 98.6112C86.633 98.6762 86.6215 98.7409 86.5975 98.8014C86.5735 98.8619 86.5375 98.917 86.4917 98.9634C86.4459 99.0098 86.3913 99.0466 86.3309 99.0716C86.2706 99.0966 86.2059 99.1092 86.1405 99.1088C86.0111 99.1014 85.8892 99.0452 85.7997 98.9518C85.7102 98.8583 85.6597 98.7345 85.6585 98.6053C85.2087 98.9127 85.1587 99.5801 84.5385 99.8992C84.7156 99.9 84.8887 99.9518 85.0368 100.048C85.1849 100.145 85.3018 100.282 85.3733 100.444L85.8231 101.243C86.0024 101.568 86.4345 101.623 86.7461 101.664" fill="white" fill-opacity="0.7"/>
<path d="M91.2527 101.591C91.1726 101.727 91.058 101.841 90.9203 101.919C90.7826 101.998 90.6266 102.039 90.4679 102.039C90.3078 102.06 90.1456 102.021 90.0119 101.931C89.8781 101.841 89.7821 101.706 89.7418 101.55C89.5931 101.711 89.4109 101.839 89.2079 101.923C89.0049 102.008 88.7859 102.047 88.566 102.039C87.6842 102.039 87.2168 101.55 87.2168 100.965C87.2168 100.379 87.6989 99.8902 88.566 99.8902C88.7858 99.8829 89.0045 99.9227 89.2074 100.007C89.4103 100.091 89.5926 100.218 89.7418 100.379V99.5155C89.7418 98.8568 89.5302 98.4587 88.907 98.4587C88.5942 98.441 88.2843 98.5264 88.0252 98.7017C88.0986 98.7409 88.1595 98.7998 88.201 98.8718C88.2426 98.9437 88.2631 99.0257 88.2603 99.1086C88.2603 99.2165 88.2173 99.32 88.1407 99.3963C88.064 99.4726 87.9601 99.5155 87.8517 99.5155C87.7942 99.515 87.7373 99.5025 87.6849 99.4789C87.6324 99.4553 87.5854 99.421 87.547 99.3783C87.5086 99.3356 87.4795 99.2855 87.4616 99.2309C87.4437 99.1764 87.4374 99.1188 87.4431 99.0618C87.4431 98.4909 88.228 98.1338 88.9717 98.1338C89.7154 98.1338 90.3856 98.409 90.3856 99.3955V101.33C90.3856 101.486 90.4444 101.673 90.6472 101.673C90.7942 101.673 90.9088 101.544 91.0235 101.404L91.2527 101.591ZM89.7418 100.745C89.6123 100.596 89.4532 100.476 89.2746 100.392C89.096 100.308 88.9017 100.262 88.7042 100.256C88.1898 100.256 87.8606 100.534 87.8606 100.965C87.8606 101.395 88.1898 101.673 88.7042 101.673C88.9017 101.668 89.096 101.621 89.2746 101.537C89.4532 101.453 89.6123 101.333 89.7418 101.184V100.745Z" fill="white" fill-opacity="0.7"/>
<path d="M94.988 98.5408V101.632L95.0291 101.673H95.6405V101.966H93.6799V101.673H94.2942L94.3354 101.632V100.362H94.1619C93.9685 100.335 93.7715 100.365 93.5948 100.448C93.418 100.531 93.2689 100.662 93.1654 100.827L92.5129 101.954H91.5869V101.661C91.7135 101.649 91.8345 101.603 91.9377 101.529C92.0409 101.455 92.1227 101.355 92.1748 101.24L92.4364 100.757C92.5441 100.525 92.7381 100.345 92.9773 100.253C92.4776 100.083 92.069 99.7234 92.069 99.2609C92.069 98.5203 92.845 98.2012 93.6299 98.2012H95.6317V98.4939H95.0203L94.988 98.5408ZM94.3354 98.5408L94.2942 98.4998H93.8121C93.2242 98.4998 92.848 98.7749 92.848 99.2902C92.848 99.8493 93.2154 100.078 93.8121 100.078H94.3354V98.5408Z" fill="white" fill-opacity="0.7"/>
<path d="M102.549 101.661V101.954H101.264L100.497 100.628C100.268 100.23 99.9238 100.166 99.4829 100.166V101.629L99.5241 101.67H100.135V101.963H98.1748V101.67H98.7892L98.8274 101.629V98.5409L98.7892 98.4999H98.1748V98.2072H100.135V98.4999H99.5241L99.4829 98.5409V99.8816C100.97 99.8816 100.676 98.1252 101.893 98.1252C101.961 98.1196 102.03 98.1279 102.094 98.1497C102.159 98.1714 102.219 98.2061 102.269 98.2517C102.32 98.2972 102.361 98.3526 102.389 98.4144C102.418 98.4763 102.433 98.5432 102.434 98.6112C102.435 98.6761 102.424 98.7406 102.399 98.8009C102.375 98.8613 102.339 98.9162 102.294 98.9625C102.248 99.0088 102.193 99.0457 102.133 99.0708C102.073 99.0959 102.009 99.1088 101.943 99.1088C101.814 99.1014 101.692 99.0452 101.603 98.9518C101.513 98.8583 101.463 98.7345 101.461 98.6053C101.011 98.9127 100.962 99.5801 100.341 99.8992C100.518 99.9002 100.691 99.9521 100.838 100.049C100.986 100.145 101.102 100.283 101.173 100.444L101.623 101.243C101.802 101.568 102.237 101.623 102.549 101.664" fill="white" fill-opacity="0.7"/>
<path d="M106.702 100.086C106.687 100.453 106.563 100.808 106.347 101.105C106.131 101.403 105.832 101.631 105.487 101.76C105.142 101.89 104.766 101.916 104.407 101.834C104.047 101.753 103.719 101.569 103.464 101.303C103.209 101.038 103.038 100.704 102.972 100.343C102.906 99.9817 102.948 99.609 103.093 99.2713C103.238 98.9336 103.479 98.6458 103.787 98.4435C104.094 98.2413 104.455 98.1336 104.824 98.1339C105.078 98.1315 105.33 98.1811 105.565 98.2794C105.799 98.3778 106.011 98.5229 106.187 98.7058C106.363 98.8887 106.499 99.1056 106.588 99.343C106.677 99.5804 106.716 99.8334 106.702 100.086ZM105.967 100.086C105.967 99.1262 105.462 98.4178 104.792 98.4178C103.98 98.4178 103.686 99.1087 103.686 100.086C103.686 101.064 104.195 101.755 104.862 101.755C105.671 101.755 105.964 101.064 105.964 100.086" fill="white" fill-opacity="0.7"/>
<path d="M112.09 98.5408V101.632L112.131 101.673H112.783V101.957H110.74V101.673H111.313L111.355 101.632V99.2726H111.313L110.17 101.878H109.556L108.33 99.1262H108.289V101.632L108.33 101.673H108.903V101.957H107.228V101.673H107.88L107.921 101.632V98.5408L107.88 98.4998H107.228V98.2129H108.656L110.023 101.266H110.064L111.396 98.2129H112.783V98.4998H112.131L112.09 98.5408Z" fill="white" fill-opacity="0.7"/>
<path d="M117.343 98.5408V101.632L117.384 101.673H117.998V101.957H116.035V101.673H116.649L116.69 101.632V98.5408L116.649 98.4998H114.85L114.809 98.5408V101.632L114.85 101.673H115.465V101.957H113.501V101.673H114.115L114.156 101.632V98.5408L114.115 98.4998H113.501V98.2129H117.998V98.4998H117.384L117.343 98.5408Z" fill="white" fill-opacity="0.7"/>
<path d="M122.64 101.591C122.56 101.727 122.445 101.84 122.308 101.918C122.17 101.997 122.014 102.038 121.856 102.039C121.696 102.06 121.533 102.021 121.4 101.931C121.266 101.841 121.17 101.706 121.13 101.55C120.981 101.711 120.798 101.838 120.595 101.923C120.392 102.007 120.174 102.047 119.954 102.039C119.09 102.039 118.607 101.55 118.607 100.965C118.607 100.379 119.09 99.8902 119.954 99.8902C120.173 99.8833 120.392 99.9233 120.595 100.008C120.798 100.092 120.98 100.219 121.13 100.379V99.5155C121.13 98.8568 120.915 98.4587 120.295 98.4587C119.982 98.4421 119.672 98.5274 119.413 98.7017C119.487 98.7403 119.549 98.7989 119.591 98.8709C119.633 98.9429 119.654 99.0253 119.651 99.1086C119.645 99.2165 119.596 99.3175 119.515 99.3895C119.434 99.4614 119.327 99.4983 119.219 99.4921C119.11 99.4859 119.009 99.437 118.937 99.3563C118.865 99.2756 118.828 99.1697 118.834 99.0618C118.834 98.4909 119.619 98.1338 120.362 98.1338C121.106 98.1338 121.776 98.409 121.776 99.3955V101.33C121.776 101.486 121.832 101.673 122.038 101.673C122.185 101.673 122.299 101.544 122.414 101.404L122.64 101.591ZM121.13 100.745C121 100.596 120.841 100.476 120.662 100.392C120.484 100.308 120.289 100.262 120.092 100.256C119.575 100.256 119.248 100.534 119.248 100.965C119.248 101.395 119.575 101.673 120.092 101.673C120.289 101.668 120.484 101.621 120.662 101.537C120.841 101.453 121 101.333 121.13 101.184V100.745Z" fill="white" fill-opacity="0.7"/>
<path d="M127.09 98.5408V101.632L127.131 101.673H127.743V101.957H125.782V101.673H126.397L126.435 101.632V100.086H124.474V101.632L124.515 101.673H125.13V101.957H123.166V101.673H123.78L123.822 101.632V98.5408L123.78 98.4998H123.166V98.2129H125.13V98.4998H124.515L124.474 98.5408V99.8025H126.435V98.5408L126.397 98.4998H125.782V98.2129H127.743V98.4998H127.131L127.09 98.5408Z" fill="white" fill-opacity="0.7"/>
<path d="M132.381 98.5408V101.632L132.422 101.673H133.034V101.957H131.073V101.673H131.685L131.726 101.632V99.3136L129.765 101.266V101.632L129.806 101.673H130.418V101.957H128.457V101.673H129.071L129.113 101.632V98.5408L129.071 98.4998H128.457V98.2129H130.418V98.4998H129.806L129.765 98.5408V100.859L131.726 98.9067V98.5408L131.685 98.4998H131.073V98.2129H133.034V98.4998H132.422L132.381 98.5408Z" fill="white" fill-opacity="0.7"/>
<path d="M136.949 98.5408V101.632L136.99 101.673H137.602V101.966H135.638V101.673H136.252L136.293 101.632V100.362H136.12C135.927 100.335 135.73 100.365 135.553 100.448C135.376 100.531 135.227 100.662 135.123 100.827L134.462 101.954H133.536V101.661C133.663 101.649 133.784 101.603 133.887 101.529C133.99 101.455 134.072 101.355 134.124 101.24L134.386 100.757C134.493 100.525 134.687 100.345 134.927 100.253C134.427 100.083 134.018 99.7234 134.018 99.2609C134.018 98.5203 134.794 98.2012 135.579 98.2012H137.581V98.4939H136.99L136.949 98.5408ZM136.296 98.5408L136.255 98.4998H135.773C135.185 98.4998 134.809 98.7749 134.809 99.2902C134.809 99.8493 135.176 100.078 135.773 100.078H136.296V98.5408Z" fill="white" fill-opacity="0.7"/>
<path d="M72.536 53.209C72.3169 53.209 72.1068 53.2956 71.9519 53.4499C71.797 53.6042 71.71 53.8134 71.71 54.0316V61.4406C71.71 61.6588 71.797 61.868 71.9519 62.0223C72.1068 62.1765 72.3169 62.2632 72.536 62.2632C72.7551 62.2632 72.9652 62.1765 73.1201 62.0223C73.275 61.868 73.362 61.6588 73.362 61.4406V54.0316C73.362 53.8134 73.275 53.6042 73.1201 53.4499C72.9652 53.2956 72.7551 53.209 72.536 53.209Z" fill="white" fill-opacity="0.7"/>
<path d="M79.9754 53.209C79.7564 53.209 79.5463 53.2956 79.3913 53.4499C79.2364 53.6042 79.1494 53.8134 79.1494 54.0316V61.4406C79.1494 61.6588 79.2364 61.868 79.3913 62.0223C79.5463 62.1765 79.7564 62.2632 79.9754 62.2632C80.1945 62.2632 80.4046 62.1765 80.5595 62.0223C80.7144 61.868 80.8015 61.6588 80.8015 61.4406V54.0316C80.8015 53.8134 80.7144 53.6042 80.5595 53.4499C80.4046 53.2956 80.1945 53.209 79.9754 53.209Z" fill="white" fill-opacity="0.7"/>
<path d="M79.9754 42.0967C79.867 42.0967 79.7596 42.118 79.6593 42.1593C79.5591 42.2006 79.4681 42.2612 79.3913 42.3376C79.3146 42.414 79.2538 42.5047 79.2123 42.6045C79.1708 42.7043 79.1494 42.8112 79.1494 42.9193V50.3283C79.1494 50.5465 79.2364 50.7557 79.3913 50.91C79.5463 51.0642 79.7564 51.1509 79.9754 51.1509C80.1945 51.1509 80.4046 51.0642 80.5595 50.91C80.7144 50.7557 80.8015 50.5465 80.8015 50.3283V42.9193C80.8015 42.8112 80.7801 42.7043 80.7386 42.6045C80.6971 42.5047 80.6362 42.414 80.5595 42.3376C80.4828 42.2612 80.3918 42.2006 80.2915 42.1593C80.1913 42.118 80.0839 42.0967 79.9754 42.0967Z" fill="white" fill-opacity="0.7"/>
<path d="M87.4305 53.209C87.2114 53.209 87.0013 53.2956 86.8464 53.4499C86.6915 53.6042 86.6045 53.8134 86.6045 54.0316V61.4406C86.6045 61.6588 86.6915 61.868 86.8464 62.0223C87.0013 62.1765 87.2114 62.2632 87.4305 62.2632C87.6496 62.2632 87.8597 62.1765 88.0146 62.0223C88.1695 61.868 88.2565 61.6588 88.2565 61.4406V54.0316C88.2565 53.8134 88.1695 53.6042 88.0146 53.4499C87.8597 53.2956 87.6496 53.209 87.4305 53.209Z" fill="white" fill-opacity="0.7"/>
<path d="M87.4305 42.0967C87.322 42.0967 87.2146 42.118 87.1144 42.1593C87.0142 42.2006 86.9231 42.2612 86.8464 42.3376C86.7697 42.414 86.7089 42.5047 86.6674 42.6045C86.6259 42.7043 86.6045 42.8112 86.6045 42.9193V50.3283C86.6045 50.5465 86.6915 50.7557 86.8464 50.91C87.0013 51.0642 87.2114 51.1509 87.4305 51.1509C87.6496 51.1509 87.8597 51.0642 88.0146 50.91C88.1695 50.7557 88.2565 50.5465 88.2565 50.3283V42.9193C88.2565 42.8112 88.2351 42.7043 88.1936 42.6045C88.1521 42.5047 88.0913 42.414 88.0146 42.3376C87.9379 42.2612 87.8468 42.2006 87.7466 42.1593C87.6464 42.118 87.539 42.0967 87.4305 42.0967Z" fill="white" fill-opacity="0.7"/>
<path d="M79.975 15.1367C80.3431 15.1367 80.703 15.028 81.0091 14.8242C81.3151 14.6205 81.5536 14.3309 81.6944 13.9921C81.8351 13.6534 81.8718 13.2806 81.7998 12.9211C81.7277 12.5616 81.5502 12.2314 81.2897 11.9724C81.0292 11.7133 80.6973 11.5371 80.3362 11.4659C79.9751 11.3947 79.6008 11.4319 79.2609 11.5726C78.9209 11.7133 78.6305 11.9512 78.4264 12.2563C78.2223 12.5615 78.1137 12.92 78.1143 13.2866C78.115 13.7776 78.3114 14.2481 78.6603 14.595C79.0092 14.9419 79.482 15.1367 79.975 15.1367Z" fill="white" fill-opacity="0.7"/>
<path d="M79.0522 9.67139H80.8953C81.0068 9.67152 81.117 9.64635 81.2174 9.59777C81.3177 9.5492 81.4057 9.4785 81.4745 9.39104C81.5434 9.30358 81.5913 9.20166 81.6147 9.093C81.6381 8.98434 81.6363 8.8718 81.6096 8.76392L80.6895 0.933395C80.6508 0.773809 80.5592 0.631831 80.4297 0.530288C80.3001 0.428745 80.1401 0.373535 79.9752 0.373535C79.8103 0.373535 79.6502 0.428745 79.5207 0.530288C79.3911 0.631831 79.2996 0.773809 79.2609 0.933395L78.3408 8.76392C78.3141 8.87156 78.3123 8.98384 78.3355 9.09228C78.3588 9.20072 78.4064 9.30249 78.4749 9.38989C78.5435 9.47729 78.631 9.54805 78.731 9.59681C78.831 9.64558 78.9408 9.67108 79.0522 9.67139Z" fill="white" fill-opacity="0.7"/>
<path d="M61.3768 38.3906C61.2683 38.3906 61.1609 38.4119 61.0607 38.4532C60.9605 38.4946 60.8694 38.5552 60.7927 38.6315C60.716 38.7079 60.6552 38.7986 60.6137 38.8984C60.5721 38.9982 60.5508 39.1052 60.5508 39.2132V42.9191C60.5508 43.1373 60.6378 43.3465 60.7927 43.5008C60.9476 43.655 61.1577 43.7417 61.3768 43.7417C61.5959 43.7417 61.806 43.655 61.9609 43.5008C62.1158 43.3465 62.2028 43.1373 62.2028 42.9191V39.2132C62.2028 38.995 62.1158 38.7858 61.9609 38.6315C61.806 38.4773 61.5959 38.3906 61.3768 38.3906Z" fill="white" fill-opacity="0.7"/>
<path d="M74.3972 46.6284C74.3978 46.995 74.2892 47.3536 74.0851 47.6587C73.881 47.9638 73.5906 48.2018 73.2506 48.3425C72.9107 48.4832 72.5364 48.5203 72.1753 48.4491C71.8142 48.378 71.4823 48.2017 71.2218 47.9427C70.9613 47.6836 70.7838 47.3535 70.7118 46.9939C70.6397 46.6344 70.6764 46.2617 70.8171 45.9229C70.9579 45.5841 71.1964 45.2946 71.5024 45.0908C71.8085 44.8871 72.1684 44.7783 72.5365 44.7783C73.0295 44.7783 73.5023 44.9731 73.8512 45.32C74.2001 45.6669 74.3965 46.1375 74.3972 46.6284Z" fill="white" fill-opacity="0.7"/>
<path d="M43.6052 72.1426V62.263H49.3902V72.1426H51.0451V65.9689H61.3335C61.5346 65.9735 61.7309 65.9073 61.8879 65.782C62.0448 65.6568 62.1525 65.4804 62.1918 65.2839C62.2124 65.1658 62.2068 65.0445 62.1753 64.9287C62.1439 64.813 62.0874 64.7054 62.0098 64.6137C61.9322 64.5219 61.8355 64.4481 61.7262 64.3976C61.617 64.347 61.498 64.3208 61.3776 64.3209H51.0451V58.56H61.3335C61.5346 58.5645 61.7309 58.4984 61.8879 58.3731C62.0448 58.2478 62.1525 58.0714 62.1918 57.875C62.2124 57.7568 62.2068 57.6356 62.1753 57.5198C62.1439 57.404 62.0874 57.2964 62.0098 57.2047C61.9322 57.1129 61.8355 57.0392 61.7262 56.9886C61.617 56.938 61.498 56.9119 61.3776 56.9119H51.0451V54.8628H64.273V72.1514H65.925V40.039H94.0299V72.1426H95.6849V38.391H88.242V32.6301H101.47V34.6792H98.6215C98.4203 34.6746 98.224 34.7408 98.0671 34.866C97.9101 34.9913 97.8025 35.1677 97.7631 35.3641C97.743 35.4821 97.749 35.603 97.7807 35.7185C97.8123 35.8339 97.8689 35.941 97.9464 36.0325C98.0239 36.1239 98.1205 36.1973 98.2295 36.2477C98.3385 36.2982 98.4572 36.3243 98.5774 36.3243H101.47V42.0881H98.6215C98.4203 42.0836 98.224 42.1497 98.0671 42.275C97.9101 42.4003 97.8025 42.5766 97.7631 42.7731C97.743 42.8911 97.749 43.012 97.7807 43.1274C97.8123 43.2428 97.8689 43.35 97.9464 43.4414C98.0239 43.5328 98.1205 43.6063 98.2295 43.6567C98.3385 43.7071 98.4572 43.7332 98.5774 43.7333H101.47V49.4971H97.7484V72.1338H99.4004V51.151H108.907V72.1426H110.559V58.56H116.347V60.6091H113.498C113.297 60.605 113.101 60.6713 112.943 60.7964C112.786 60.9215 112.678 61.0976 112.637 61.2941C112.618 61.4122 112.624 61.5332 112.656 61.6486C112.688 61.764 112.745 61.8711 112.823 61.9624C112.9 62.0538 112.997 62.1272 113.106 62.1776C113.215 62.228 113.334 62.2541 113.454 62.2542H116.347V64.3033H113.498C113.297 64.2992 113.101 64.3655 112.943 64.4906C112.786 64.6158 112.678 64.7919 112.637 64.9883C112.618 65.1066 112.624 65.2277 112.656 65.3432C112.688 65.4588 112.745 65.5661 112.823 65.6576C112.9 65.7492 112.997 65.8229 113.106 65.8736C113.215 65.9243 113.334 65.9508 113.454 65.9514H116.347V68.0005H113.498C113.297 67.9958 113.1 68.0619 112.943 68.1871C112.785 68.3123 112.677 68.4888 112.637 68.6855C112.618 68.8036 112.624 68.9246 112.656 69.04C112.688 69.1554 112.745 69.2625 112.823 69.3538C112.9 69.4452 112.997 69.5186 113.106 69.569C113.215 69.6194 113.334 69.6455 113.454 69.6456H116.347V72.1162H118.002V57.752C118.002 57.6438 117.981 57.5365 117.94 57.4364C117.898 57.3362 117.838 57.2452 117.761 57.1685C117.684 57.0918 117.593 57.031 117.493 56.9894C117.392 56.9479 117.285 56.9265 117.176 56.9265H110.562V50.3284C110.562 50.2203 110.541 50.1132 110.5 50.0132C110.458 49.9132 110.398 49.8224 110.321 49.7459C110.244 49.6695 110.153 49.6089 110.052 49.5677C109.952 49.5265 109.844 49.5055 109.736 49.5059H103.122V31.8075C103.122 31.5886 103.035 31.3786 102.879 31.2238C102.724 31.069 102.513 30.982 102.293 30.982H88.242V28.1015C88.242 27.8859 88.157 27.6789 88.0052 27.525C87.8535 27.3712 87.6472 27.2828 87.4306 27.279H84.2266C82.6833 23.6608 82.6627 17.0598 82.6627 16.9896C82.6627 16.7729 82.5769 16.565 82.4239 16.411C82.2709 16.257 82.0631 16.1693 81.8455 16.167H78.1153C78.0068 16.167 77.8994 16.1883 77.7992 16.2296C77.699 16.2709 77.6079 16.3315 77.5312 16.4079C77.4545 16.4843 77.3936 16.575 77.3521 16.6748C77.3106 16.7746 77.2893 16.8815 77.2893 16.9896C77.2893 17.0598 77.2687 23.6579 75.7254 27.279H72.536C72.4276 27.279 72.3202 27.3003 72.2199 27.3416C72.1197 27.3829 72.0287 27.4435 71.952 27.5199C71.8753 27.5963 71.8144 27.687 71.7729 27.7868C71.7314 27.8866 71.71 27.9935 71.71 28.1015V34.6879H57.6561C57.4381 34.6879 57.2289 34.7738 57.0741 34.9268C56.9194 35.0798 56.8317 35.2875 56.8301 35.5047V53.203H50.2162C49.9971 53.203 49.787 53.2897 49.6321 53.444C49.4772 53.5982 49.3902 53.8074 49.3902 54.0256V60.612H42.7791C42.6704 60.6116 42.5627 60.6326 42.4621 60.6738C42.3616 60.7149 42.2702 60.7755 42.1932 60.8519C42.1162 60.9283 42.055 61.0191 42.0134 61.1191C41.9717 61.2191 41.9502 61.3263 41.9502 61.4346V72.1367L43.6052 72.1426ZM78.9295 17.8121H81.0225C81.0754 19.6446 81.3164 24.1058 82.454 27.279H77.495C78.6326 24.1058 78.8766 19.6446 78.9295 17.8121ZM73.362 28.9358H86.5899V38.4027H84.5323V31.8514C84.537 31.6508 84.4706 31.4549 84.3449 31.2981C84.2191 31.1413 84.0419 31.0335 83.8444 30.9937C83.7258 30.9742 83.6043 30.9806 83.4884 31.0125C83.3725 31.0444 83.265 31.101 83.1732 31.1784C83.0815 31.2558 83.0078 31.3522 82.9572 31.4608C82.9066 31.5695 82.8803 31.6877 82.8802 31.8075V38.391H80.8226V35.5544C80.8272 35.3541 80.7607 35.1587 80.6349 35.0023C80.5091 34.846 80.332 34.7388 80.1347 34.6996C80.0163 34.6796 79.8948 34.6856 79.7789 34.7171C79.663 34.7487 79.5554 34.805 79.4636 34.8822C79.3718 34.9594 79.298 35.0556 79.2474 35.1641C79.1968 35.2726 79.1706 35.3909 79.1706 35.5105V38.391H77.1129V31.8514C77.117 31.6509 77.0504 31.4553 76.9248 31.2986C76.7991 31.1419 76.6223 31.034 76.425 30.9937C76.3062 30.9737 76.1844 30.9797 76.0681 31.0114C75.9519 31.0431 75.8439 31.0996 75.7519 31.1771C75.6598 31.2546 75.5858 31.3511 75.535 31.46C75.4843 31.5689 75.458 31.6875 75.4579 31.8075V38.391H73.4003L73.362 28.9358ZM58.4851 36.3448H71.713V38.3939H64.2701V53.2118H62.2124V46.6664C62.217 46.4661 62.1505 46.2706 62.0247 46.1143C61.8989 45.958 61.7218 45.8508 61.5245 45.8116C61.4061 45.7916 61.2847 45.7976 61.1688 45.8291C61.0528 45.8606 60.9452 45.917 60.8534 45.9942C60.7616 46.0714 60.6879 46.1676 60.6372 46.2761C60.5866 46.3846 60.5604 46.5028 60.5604 46.6225V53.2089H58.5027L58.4851 36.3448Z" fill="white" fill-opacity="0.7"/>
<path d="M47.3239 72.1426V65.1463C47.3239 64.9281 47.2369 64.7189 47.082 64.5647C46.9271 64.4104 46.717 64.3237 46.4979 64.3237C46.2788 64.3237 46.0687 64.4104 45.9138 64.5647C45.7589 64.7189 45.6719 64.9281 45.6719 65.1463V72.1426H47.3239Z" fill="white" fill-opacity="0.7"/>
<path d="M73.362 72.1426V65.1463C73.362 64.9281 73.275 64.7189 73.1201 64.5647C72.9652 64.4104 72.7551 64.3237 72.536 64.3237C72.3169 64.3237 72.1068 64.4104 71.9519 64.5647C71.797 64.7189 71.71 64.9281 71.71 65.1463V72.1426H73.362Z" fill="white" fill-opacity="0.7"/>
<path d="M80.8015 72.1426V65.1463C80.8015 64.9281 80.7144 64.7189 80.5595 64.5647C80.4046 64.4104 80.1945 64.3237 79.9754 64.3237C79.7564 64.3237 79.5463 64.4104 79.3913 64.5647C79.2364 64.7189 79.1494 64.9281 79.1494 65.1463V72.1426H80.8015Z" fill="white" fill-opacity="0.7"/>
<path d="M88.2419 72.1426V65.1463C88.2419 64.9281 88.1549 64.7189 87.9999 64.5647C87.845 64.4104 87.6349 64.3237 87.4159 64.3237C87.1968 64.3237 86.9867 64.4104 86.8318 64.5647C86.6769 64.7189 86.5898 64.9281 86.5898 65.1463V72.1426H88.2419Z" fill="white" fill-opacity="0.7"/>
<path d="M103.122 72.1426V54.0313C103.109 53.8212 103.017 53.6238 102.863 53.4795C102.709 53.3352 102.506 53.2549 102.294 53.2549C102.083 53.2549 101.88 53.3352 101.726 53.4795C101.572 53.6238 101.479 53.8212 101.467 54.0313V72.1426H103.122Z" fill="white" fill-opacity="0.7"/>
<path d="M106.832 72.1426V54.0315C106.832 53.8134 106.745 53.6042 106.59 53.4499C106.435 53.2956 106.225 53.209 106.006 53.209C105.787 53.209 105.577 53.2956 105.422 53.4499C105.267 53.6042 105.18 53.8134 105.18 54.0315V72.1426H106.832Z" fill="white" fill-opacity="0.7"/>
</svg>
