<svg width="160" height="104" viewBox="0 0 160 104" fill="none" xmlns="http://www.w3.org/2000/svg">
<path d="M9.96355 88.2426C9.96355 90.7602 7.31797 91.8462 4.63123 91.8462C1.94449 91.8462 0.00145251 90.7016 0.00145251 88.9598C-0.00761116 88.7494 0.0258137 88.5392 0.0997488 88.3419C0.173684 88.1445 0.286626 87.9639 0.431892 87.8108C0.577157 87.6577 0.751793 87.5351 0.945462 87.4504C1.13913 87.3657 1.3479 87.3205 1.55941 87.3176C1.76452 87.3152 1.96804 87.3538 2.15796 87.431C2.34789 87.5081 2.52039 87.6224 2.6653 87.7669C2.81021 87.9115 2.9246 88.0835 3.00174 88.2728C3.07887 88.4621 3.11718 88.6648 3.11442 88.8691C3.12319 89.0636 3.09118 89.2578 3.02042 89.4394C2.94966 89.6209 2.84171 89.7858 2.70344 89.9235C2.56517 90.0612 2.39961 90.1687 2.21732 90.2391C2.03503 90.3096 1.84 90.3415 1.64466 90.3328C2.31832 90.8156 3.12809 91.0738 3.95807 91.0704C5.7218 91.0704 6.74182 90.081 6.74182 88.2017C6.74182 86.7702 6.15391 85.2187 3.62884 85.2187V84.5396C5.96284 84.5396 6.35086 82.9529 6.35086 81.7908C6.35086 80.2598 5.67182 79.2499 4.13445 79.2499C3.60726 79.247 3.08767 79.3751 2.62267 79.6224C2.15767 79.8698 1.76193 80.2287 1.47122 80.6667C1.68955 80.6132 1.9174 80.6112 2.13666 80.6607C2.35593 80.7103 2.56057 80.81 2.73435 80.9521C2.90812 81.0942 3.04624 81.2747 3.13773 81.4792C3.22922 81.6837 3.27156 81.9067 3.2614 82.1304C3.26417 82.3345 3.22584 82.5371 3.14867 82.7262C3.0715 82.9153 2.95707 83.0872 2.81211 83.2315C2.66716 83.3759 2.49464 83.4898 2.30472 83.5667C2.11481 83.6435 1.91136 83.6817 1.70639 83.6789C1.49479 83.6779 1.28557 83.6345 1.09114 83.5513C0.896722 83.4682 0.721074 83.347 0.574639 83.1948C0.428205 83.0427 0.313973 82.8629 0.238735 82.6659C0.163497 82.469 0.128788 82.259 0.136671 82.0484C0.136671 80.292 1.75342 78.4829 4.83993 78.4829C6.76827 78.4829 9.49029 79.1972 9.49029 81.5625C9.49029 83.3657 7.89706 84.3903 5.37493 84.8177C8.34974 85.128 9.96649 86.2521 9.96649 88.2485" fill="#333333" fill-opacity="0.7"/>
<path d="M24.265 85.1599C24.265 88.9975 21.6195 91.8457 17.6511 91.8457C13.4858 91.8457 11.0342 89.0736 11.0342 85.1599C11.0342 81.3252 13.6798 78.4771 17.6511 78.4771C21.8135 78.4771 24.265 81.2462 24.265 85.1599ZM21.0551 85.3531C21.0551 81.9839 19.4795 79.2498 17.4571 79.2498C15.5669 79.2498 14.2442 81.5184 14.2442 84.9667C14.2442 88.3389 15.8197 91.07 17.8451 91.07C19.7323 91.07 21.0551 88.8043 21.0551 85.3531Z" fill="#333333" fill-opacity="0.7"/>
<path d="M38.8499 85.1599C38.8499 88.9975 36.2044 91.8457 32.236 91.8457C28.0707 91.8457 25.6191 89.0736 25.6191 85.1599C25.6191 81.3252 28.2647 78.4771 32.236 78.4771C36.3984 78.4771 38.8499 81.2462 38.8499 85.1599ZM35.64 85.3531C35.64 81.9839 34.0644 79.2498 32.042 79.2498C30.1548 79.2498 28.832 81.5184 28.832 84.9667C28.832 88.3389 30.4076 91.07 32.43 91.07C34.3172 91.07 35.64 88.8043 35.64 85.3531Z" fill="#333333" fill-opacity="0.7"/>
<path d="M52.0075 79.5427V90.7805L52.2045 90.9737H53.2715V91.6528H47.7276V90.9737H48.7975L48.9916 90.7805V81.9636L43.8386 89.1325V90.7805L44.0326 90.9737H45.1026V91.6528H39.5557V90.9737H40.6257L40.8226 90.7805V79.5427L40.6257 79.3466H39.5557V78.6704H45.1026V79.3466H44.0326L43.8386 79.5427V87.8737L48.9916 80.7049V79.5427L48.7975 79.3466H47.7276V78.6704H53.2715V79.3466H52.2045L52.0075 79.5427Z" fill="#333333" fill-opacity="0.7"/>
<path d="M66.8991 79.5427V90.7805L67.0932 90.9737H68.1631V91.6528H62.6192V90.9737H63.6892L63.8832 90.7805V85.2568H58.7272V90.7805L58.9212 90.9737H59.9912V91.6528H54.4473V90.9737H55.5173L55.7113 90.7805V79.5427L55.5173 79.3466H54.4473V78.6704H59.9912V79.3466H58.9212L58.7272 79.5427V84.5806H63.8832V79.5427L63.6892 79.3466H62.6192V78.6704H68.1631V79.3466H67.0932L66.8991 79.5427Z" fill="#333333" fill-opacity="0.7"/>
<path d="M79.5694 79.5427V90.7804L79.7634 90.9736H80.8393V95.6221H80.1926C79.9986 93.1046 79.199 91.6527 77.3324 91.6527H72.5645C70.6979 91.6527 69.8983 93.1164 69.7043 95.6221H69.0635V90.9736H70.3863C71.2211 88.5528 71.5915 83.4155 71.6121 79.5427L71.418 79.3466H69.5485V78.6704H80.8393V79.3466H79.7693L79.5694 79.5427ZM76.5534 79.5427L76.3594 79.3466H72.682L72.488 79.5427C72.4675 82.5051 72.2911 87.9498 71.3122 90.9736H76.3712L76.5652 90.7804L76.5534 79.5427Z" fill="#333333" fill-opacity="0.7"/>
<path d="M83.2932 90.3533C83.2892 90.1561 83.3253 89.9602 83.3992 89.7773C83.4731 89.5943 83.5834 89.4282 83.7234 89.2887C83.8634 89.1493 84.0303 89.0395 84.214 88.9659C84.3977 88.8923 84.5944 88.8564 84.7924 88.8603C85.4744 88.8603 86.2622 89.56 86.0564 90.7807C86.9912 90.5465 87.3792 89.9025 88.1964 88.2602L82.8259 79.3495H81.7559V78.6704H87.6526V79.3495H86.5238L86.3298 79.5427L89.6573 85.3534H89.7543L92.6145 79.5427L92.4205 79.3495H90.7655V78.6704H94.7163V79.3495H93.6463L89.3252 87.7772C88.1787 90.0049 87.4586 91.8462 85.007 91.8462C84.034 91.8462 83.2932 91.2051 83.2932 90.3533Z" fill="#333333" fill-opacity="0.7"/>
<path d="M105.684 88.3188L106.21 88.7638C104.828 90.5845 103.056 91.8462 100.663 91.8462H100.645C96.8884 91.8462 94.0488 89.036 94.0488 85.2393C94.0488 81.2846 97.103 78.4774 100.957 78.4774C102.074 78.4668 103.177 78.7323 104.167 79.2502L104.461 78.6647H105.143C105.24 79.982 105.395 81.7647 105.628 82.9854L104.987 83.1785C103.917 80.3889 102.476 79.2443 100.901 79.2443C98.5081 79.2443 97.2617 81.8993 97.2617 85.0784C97.2617 88.2574 98.4875 90.8714 101.23 90.8714C102.923 90.8714 104.343 89.8644 105.686 88.313" fill="#333333" fill-opacity="0.7"/>
<path d="M119.002 82.1392L118.358 82.3324C117.423 80.1048 115.81 79.3495 114.41 79.3495H114.39V90.7805L114.584 90.9737H115.654V91.6528H110.11V90.9737H111.18L111.374 90.7805V79.3495C109.972 79.3495 108.358 80.1048 107.423 82.3324L106.782 82.1392L107.561 78.6704H118.223L119.002 82.1392Z" fill="#333333" fill-opacity="0.7"/>
<path d="M131.119 82.1948C131.119 84.6772 128.474 86.0325 126.254 86.0325H124.017V90.7805L124.211 90.9737H125.769V91.6499H119.737V90.9737H120.816L121.01 90.7805V79.5427L120.816 79.3495H119.746V78.6704H126.254C128.668 78.6704 131.119 79.6393 131.119 82.1831V82.1948ZM127.909 82.3383C127.909 80.4209 126.733 79.3378 125.478 79.3378H124.211L124.017 79.531V85.3417H125.487C126.789 85.3417 127.918 84.6069 127.918 82.3383" fill="#333333" fill-opacity="0.7"/>
<path d="M144.01 79.5427V90.7805L144.204 90.9737H145.274V91.6528H139.73V90.9737H140.8L140.994 90.7805V81.9636L135.838 89.1325V90.7805L136.032 90.9737H137.102V91.6528H131.558V90.9737H132.628L132.822 90.7805V79.5427L132.628 79.3466H131.558V78.6704H137.102V79.3466H136.032L135.838 79.5427V87.8737L140.994 80.7049V79.5427L140.8 79.3466H139.73V78.6704H145.274V79.3466H144.204L144.01 79.5427Z" fill="#333333" fill-opacity="0.7"/>
<path d="M157.942 79.5427V90.7805L158.136 90.9737H159.209V91.6528H153.662V90.9737H154.732L154.926 90.7805V85.6461H154.091C153.021 85.6461 152.689 86.2637 151.93 87.8357L150.102 91.6411H146.172V90.962C146.716 90.8654 147.183 90.7864 147.592 89.955L148.817 87.3966C149.382 86.1964 149.908 85.5934 150.822 85.3241C149.205 84.8206 147.824 83.638 147.824 81.9899C147.824 79.6276 150.278 78.6587 152.689 78.6587H159.209V79.3349H158.148L157.942 79.5427ZM154.926 79.5427L154.732 79.3466H153.468C152.221 79.3466 151.037 80.2394 151.037 81.9636C151.037 84.0361 152.183 84.967 153.468 84.967H154.938L154.926 79.5427Z" fill="#333333" fill-opacity="0.7"/>
<path d="M24.9381 98.5407V101.632L24.9881 101.661H25.6025V103.614H25.332C25.2909 102.639 25.0381 101.945 24.3738 101.945H23.0598C22.3954 101.945 22.1426 102.639 22.1015 103.614H21.834V101.661H22.4219C22.7511 101.02 22.8569 99.2696 22.8569 98.529L22.8158 98.488H22.1603V98.1953H25.5937V98.488H24.9881L24.9381 98.5407ZM24.2856 98.5407L24.2444 98.4998H23.1891L23.148 98.5407C23.148 99.1262 23.1156 100.827 22.7717 101.673H24.2415L24.2826 101.632L24.2856 98.5407Z" fill="#333333" fill-opacity="0.7"/>
<path d="M30.2231 98.5408V101.632L30.2642 101.673H30.8786V101.957H28.915V101.673H29.5294L29.5705 101.632V99.3136L27.6098 101.266V101.632L27.651 101.673H28.2624V101.957H26.3018V101.673H26.9132L26.9543 101.632V98.5408L26.9132 98.4998H26.3018V98.2129H28.2624V98.4998H27.651L27.6098 98.5408V100.859L29.5705 98.9067V98.5408L29.5294 98.4998H28.915V98.2129H30.8786V98.4998H30.2642L30.2231 98.5408Z" fill="#333333" fill-opacity="0.7"/>
<path d="M31.4343 100.118C31.4203 99.8576 31.4609 99.5967 31.5535 99.3524C31.6461 99.108 31.7887 98.8855 31.9722 98.6989C32.1557 98.5123 32.3762 98.3657 32.6196 98.2685C32.863 98.1712 33.124 98.1253 33.3862 98.1338C34.1475 98.1338 34.8266 98.5495 34.8266 99.1495C34.8319 99.2062 34.8253 99.2634 34.8072 99.3174C34.7891 99.3714 34.7598 99.421 34.7214 99.4631C34.683 99.5053 34.6361 99.539 34.5839 99.5621C34.5316 99.5852 34.4751 99.5972 34.418 99.5974C34.3096 99.5974 34.2057 99.5545 34.129 99.4782C34.0524 99.4019 34.0094 99.2984 34.0094 99.1905C34.0056 99.0945 34.0378 99.0006 34.0997 98.927C34.1617 98.8534 34.2489 98.8054 34.3445 98.7924C34.2198 98.6644 34.0688 98.5647 33.9019 98.5001C33.7351 98.4354 33.5561 98.4073 33.3774 98.4177C32.4955 98.4177 32.1457 99.1349 32.1457 100.028C32.1457 101.096 32.716 101.714 33.4185 101.714C33.8536 101.714 34.268 101.453 34.6443 100.964L34.8648 101.152C34.4562 101.714 33.9829 102.03 33.3039 102.03C33.0518 102.035 32.8013 101.989 32.568 101.894C32.3347 101.799 32.1237 101.656 31.9482 101.476C31.7727 101.296 31.6365 101.081 31.5481 100.846C31.4596 100.611 31.4209 100.36 31.4343 100.11" fill="#333333" fill-opacity="0.7"/>
<path d="M39.0297 99.3604L38.7827 99.4278C38.5711 98.7193 38.2272 98.5086 37.5481 98.4998V101.632L37.5893 101.673H38.2154V101.966H36.2518V101.673H36.8662L36.9073 101.632V98.4998C36.2783 98.4998 35.8932 98.6783 35.6639 99.4278L35.4199 99.3604L35.6081 98.2158H38.8415L39.0297 99.3604Z" fill="#333333" fill-opacity="0.7"/>
<path d="M43.8181 100.069C43.8181 101.24 43.1155 102.039 42.1337 102.039C41.8643 102.055 41.5964 101.99 41.3647 101.852C41.133 101.714 40.9483 101.51 40.8344 101.266V103.667L40.8756 103.708H41.8133V104H39.5264V103.708H40.1378L40.1789 103.667V98.5412L40.1378 98.5002H39.5264V98.2075C39.9526 98.2075 40.3259 98.2075 40.7521 98.1694L40.7933 98.2075V98.9012H40.8344C40.9603 98.6672 41.1477 98.4716 41.3765 98.3355C41.6054 98.1994 41.8671 98.1278 42.1337 98.1284C43.1155 98.1284 43.8181 98.8924 43.8181 100.063V100.069ZM43.0802 100.163C43.0802 99.0973 42.6393 98.4943 42.0191 98.4943C41.5693 98.4943 41.1372 98.7871 40.8433 99.4691V100.693C41.1372 101.384 41.5781 101.667 42.0191 101.667C42.6393 101.667 43.0802 101.228 43.0802 100.163Z" fill="#333333" fill-opacity="0.7"/>
<path d="M48.3159 98.5408V101.632L48.357 101.673H48.9714V101.957H47.0078V101.673H47.6221L47.6633 101.632V99.3136L45.7026 101.266V101.632L45.7438 101.673H46.3552V101.957H44.3945V101.673H45.006L45.0471 101.632V98.5408L45.006 98.4998H44.3945V98.2129H46.3552V98.4998H45.7438L45.7026 98.5408V100.859L47.6633 98.9067V98.5408L47.6221 98.4998H47.0078V98.2129H48.9714V98.4998H48.357L48.3159 98.5408Z" fill="#333333" fill-opacity="0.7"/>
<path d="M49.6797 99.9227C49.6797 98.213 50.0412 96.1726 52.3782 96.0731C52.6721 96.0731 52.8279 95.9853 52.8779 95.8535H53.0984C53.2453 96.2048 53.0984 96.7318 52.4017 96.7318C50.4734 96.7318 50.1647 97.8793 50.0089 99.1967C50.2441 98.6112 50.9407 98.3009 51.6021 98.3009C51.8482 98.2971 52.0925 98.3433 52.32 98.4367C52.5475 98.5301 52.7535 98.6687 52.9255 98.844C53.0974 99.0194 53.2317 99.2278 53.32 99.4565C53.4084 99.6853 53.449 99.9295 53.4394 100.174C53.4441 100.421 53.3988 100.667 53.3061 100.896C53.2134 101.125 53.0753 101.333 52.8999 101.508C52.7245 101.682 52.5155 101.82 52.2854 101.912C52.0554 102.005 51.809 102.05 51.561 102.045C50.5557 102.045 49.6797 101.296 49.6797 99.9285V99.9227ZM52.7045 100.174C52.7045 99.2786 52.4105 98.5878 51.6021 98.5878C50.9231 98.5878 50.4263 99.2962 50.4263 100.174C50.4263 101.053 50.7203 101.761 51.5287 101.761C52.2077 101.761 52.7045 101.053 52.7045 100.174Z" fill="#333333" fill-opacity="0.7"/>
<path d="M53.9629 101.661H54.5773L54.6184 101.62V98.5408L54.5773 98.4998H53.9629V98.207H55.9236V98.4998H55.3122L55.271 98.5408V99.8025H55.9236C56.9789 99.8025 57.6491 100.11 57.6491 100.845C57.6491 101.579 56.9789 101.957 55.9236 101.957H53.9629V101.661ZM56.0206 101.661C56.6085 101.661 56.9289 101.354 56.9289 100.865C56.9289 100.376 56.635 100.075 56.0206 100.075H55.2651V101.62L55.3063 101.661H56.0206Z" fill="#333333" fill-opacity="0.7"/>
<path d="M63.8385 100.086C63.8385 101.289 63.0478 102.039 62.1248 102.039C61.2017 102.039 60.4081 101.289 60.4081 100.086H59.4263V101.632L59.4674 101.673H60.0788V101.965H58.1182V101.673H58.7325L58.7737 101.632V98.5407L58.7325 98.4997H58.1182V98.207H60.0788V98.4997H59.4674L59.4263 98.5407V99.8022H60.4228C60.5374 98.769 61.2723 98.1338 62.1248 98.1338C63.0478 98.1338 63.8385 98.8802 63.8385 100.086ZM63.1036 100.086C63.1036 99.1261 62.6803 98.4177 62.0836 98.4177C61.3546 98.4177 61.1429 99.1085 61.1429 100.086C61.1429 101.064 61.5662 101.755 62.163 101.755C62.892 101.755 63.1036 101.064 63.1036 100.086Z" fill="#333333" fill-opacity="0.7"/>
<path d="M68.0756 99.3604L67.8316 99.4278C67.6171 98.7193 67.2761 98.5086 66.597 98.4998V101.632L66.6382 101.673H67.2496V101.966H65.2889V101.673H65.9033L65.9444 101.632V98.4998C65.3124 98.4998 64.9303 98.6783 64.701 99.4278L64.457 99.3604L64.6422 98.2158H67.8757L68.0756 99.3604Z" fill="#333333" fill-opacity="0.7"/>
<path d="M72.4373 100.086C72.4246 100.454 72.3037 100.809 72.0897 101.109C71.8757 101.408 71.578 101.638 71.2336 101.77C70.8893 101.902 70.5135 101.931 70.1531 101.852C69.7926 101.773 69.4635 101.59 69.2066 101.326C68.9496 101.062 68.7763 100.729 68.7082 100.368C68.64 100.007 68.68 99.6337 68.8232 99.295C68.9664 98.9563 69.2065 98.667 69.5135 98.4632C69.8206 98.2593 70.1811 98.1499 70.5501 98.1485C70.8045 98.1462 71.0566 98.1957 71.291 98.2941C71.5254 98.3924 71.7371 98.5375 71.9131 98.7205C72.0891 98.9034 72.2256 99.1202 72.3142 99.3577C72.4028 99.5951 72.4417 99.8481 72.4285 100.101L72.4373 100.086ZM71.6936 100.101C71.6936 99.1409 71.188 98.4325 70.5178 98.4325C69.7094 98.4325 69.4154 99.1233 69.4154 100.101C69.4154 101.079 69.921 101.77 70.5913 101.77C71.3996 101.77 71.6936 101.079 71.6936 100.101Z" fill="#333333" fill-opacity="0.7"/>
<path d="M77.1784 100.069C77.1784 101.24 76.4759 102.039 75.4941 102.039C75.2248 102.054 74.9572 101.989 74.7257 101.851C74.4941 101.713 74.3093 101.51 74.1948 101.266V103.667L74.2359 103.708H75.1766V104H72.9014V103.708H73.4893L73.5304 103.667V98.5412L73.4893 98.5002H72.9014V98.2075C73.3276 98.2075 73.7039 98.2075 74.1272 98.1694L74.1683 98.2075V98.9012H74.2095C74.3353 98.6672 74.5227 98.4716 74.7516 98.3355C74.9804 98.1994 75.2422 98.1278 75.5087 98.1284C76.4906 98.1284 77.1931 98.8924 77.1931 100.063L77.1784 100.069ZM76.4582 100.163C76.4582 99.0973 76.0173 98.4943 75.3941 98.4943C74.9473 98.4943 74.5122 98.7871 74.2183 99.4691V100.693C74.5122 101.384 74.9561 101.667 75.3941 101.667C76.0173 101.667 76.4582 101.228 76.4582 100.163Z" fill="#333333" fill-opacity="0.7"/>
<path d="M77.9695 100.118C77.9555 99.8576 77.9961 99.5967 78.0887 99.3524C78.1813 99.108 78.3239 98.8855 78.5074 98.6989C78.6909 98.5123 78.9113 98.3657 79.1547 98.2685C79.3981 98.1712 79.6592 98.1253 79.9213 98.1338C80.6827 98.1338 81.3588 98.5495 81.3588 99.1495C81.3615 99.203 81.3536 99.2564 81.3355 99.3068C81.3175 99.3572 81.2897 99.4035 81.2537 99.4432C81.2176 99.4829 81.1741 99.5151 81.1256 99.5381C81.077 99.561 81.0244 99.5742 80.9708 99.5769C80.9171 99.5796 80.8634 99.5717 80.8128 99.5538C80.7622 99.5358 80.7157 99.5081 80.6758 99.4722C80.636 99.4363 80.6036 99.393 80.5806 99.3446C80.5575 99.2963 80.5443 99.2439 80.5416 99.1905C80.5385 99.0943 80.5714 99.0003 80.6338 98.9268C80.6962 98.8533 80.7838 98.8054 80.8796 98.7924C80.7549 98.6644 80.604 98.5647 80.4371 98.5001C80.2702 98.4354 80.0913 98.4073 79.9125 98.4177C79.0307 98.4177 78.6809 99.1349 78.6809 100.028C78.6809 101.096 79.2511 101.714 79.9537 101.714C80.3887 101.714 80.8032 101.453 81.1795 100.964L81.3999 101.152C80.9913 101.714 80.5181 102.03 79.839 102.03C79.587 102.035 79.3364 101.989 79.1032 101.894C78.8699 101.799 78.6589 101.656 78.4834 101.476C78.3079 101.296 78.1717 101.081 78.0832 100.846C77.9948 100.611 77.9561 100.36 77.9695 100.11" fill="#333333" fill-opacity="0.7"/>
<path d="M86.3271 101.661V101.954H85.0425L84.2753 100.628C84.0461 100.23 83.7021 100.166 83.2612 100.166V101.629L83.3024 101.67H83.9167V101.963H81.9531V101.67H82.5675L82.6086 101.629V98.5409L82.5675 98.4999H81.9531V98.2072H83.9167V98.4999H83.3024L83.2612 98.5409V99.8816C84.7486 99.8816 84.4546 98.1252 85.6716 98.1252C85.7396 98.1196 85.8081 98.1279 85.8727 98.1497C85.9374 98.1714 85.9969 98.2061 86.0476 98.2517C86.0983 98.2972 86.139 98.3526 86.1674 98.4144C86.1958 98.4763 86.2111 98.5432 86.2125 98.6112C86.214 98.6762 86.2025 98.7409 86.1785 98.8014C86.1545 98.8619 86.1185 98.917 86.0728 98.9634C86.027 99.0098 85.9723 99.0466 85.912 99.0716C85.8516 99.0966 85.7869 99.1092 85.7216 99.1088C85.5921 99.1014 85.4703 99.0452 85.3808 98.9518C85.2913 98.8583 85.2408 98.7345 85.2395 98.6053C84.7898 98.9127 84.7398 99.5801 84.1195 99.8992C84.2966 99.9 84.4697 99.9518 84.6178 100.048C84.766 100.145 84.8828 100.282 84.9544 100.444L85.4041 101.243C85.5834 101.568 86.0155 101.623 86.3271 101.664" fill="#333333" fill-opacity="0.7"/>
<path d="M90.8338 101.591C90.7537 101.727 90.6391 101.841 90.5013 101.919C90.3636 101.998 90.2077 102.039 90.0489 102.039C89.8889 102.06 89.7267 102.021 89.5929 101.931C89.4592 101.841 89.3631 101.706 89.3229 101.55C89.1741 101.711 88.9919 101.839 88.7889 101.923C88.5859 102.008 88.3669 102.047 88.1471 102.039C87.2652 102.039 86.7979 101.55 86.7979 100.965C86.7979 100.379 87.2799 99.8902 88.1471 99.8902C88.3668 99.8829 88.5856 99.9227 88.7885 100.007C88.9914 100.091 89.1736 100.218 89.3229 100.379V99.5155C89.3229 98.8568 89.1112 98.4587 88.4881 98.4587C88.1753 98.441 87.8654 98.5264 87.6062 98.7017C87.6796 98.7409 87.7405 98.7998 87.7821 98.8718C87.8236 98.9437 87.8442 99.0257 87.8414 99.1086C87.8414 99.2165 87.7983 99.32 87.7217 99.3963C87.6451 99.4726 87.5412 99.5155 87.4328 99.5155C87.3752 99.515 87.3184 99.5025 87.2659 99.4789C87.2134 99.4553 87.1665 99.421 87.1281 99.3783C87.0896 99.3356 87.0605 99.2855 87.0426 99.2309C87.0248 99.1764 87.0185 99.1188 87.0242 99.0618C87.0242 98.4909 87.809 98.1338 88.5527 98.1338C89.2964 98.1338 89.9666 98.409 89.9666 99.3955V101.33C89.9666 101.486 90.0254 101.673 90.2283 101.673C90.3752 101.673 90.4899 101.544 90.6045 101.404L90.8338 101.591ZM89.3229 100.745C89.1934 100.596 89.0343 100.476 88.8557 100.392C88.677 100.308 88.4828 100.262 88.2852 100.256C87.7708 100.256 87.4416 100.534 87.4416 100.965C87.4416 101.395 87.7708 101.673 88.2852 101.673C88.4828 101.668 88.677 101.621 88.8557 101.537C89.0343 101.453 89.1934 101.333 89.3229 101.184V100.745Z" fill="#333333" fill-opacity="0.7"/>
<path d="M94.569 98.5408V101.632L94.6102 101.673H95.2216V101.966H93.2609V101.673H93.8753L93.9164 101.632V100.362H93.743C93.5495 100.335 93.3526 100.365 93.1758 100.448C92.9991 100.531 92.85 100.662 92.7465 100.827L92.0939 101.954H91.168V101.661C91.2945 101.649 91.4155 101.603 91.5187 101.529C91.622 101.455 91.7038 101.355 91.7559 101.24L92.0175 100.757C92.1251 100.525 92.3192 100.345 92.5584 100.253C92.0586 100.083 91.65 99.7234 91.65 99.2609C91.65 98.5203 92.4261 98.2012 93.2109 98.2012H95.2128V98.4939H94.6013L94.569 98.5408ZM93.9164 98.5408L93.8753 98.4998H93.3932C92.8053 98.4998 92.429 98.7749 92.429 99.2902C92.429 99.8493 92.7965 100.078 93.3932 100.078H93.9164V98.5408Z" fill="#333333" fill-opacity="0.7"/>
<path d="M102.13 101.661V101.954H100.845L100.078 100.628C99.8488 100.23 99.5049 100.166 99.064 100.166V101.629L99.1051 101.67H99.7165V101.963H97.7559V101.67H98.3702L98.4084 101.629V98.5409L98.3702 98.4999H97.7559V98.2072H99.7165V98.4999H99.1051L99.064 98.5409V99.8816C100.551 99.8816 100.257 98.1252 101.474 98.1252C101.542 98.1196 101.611 98.1279 101.676 98.1497C101.74 98.1714 101.8 98.2061 101.85 98.2517C101.901 98.2972 101.942 98.3526 101.97 98.4144C101.999 98.4763 102.014 98.5432 102.015 98.6112C102.016 98.6761 102.005 98.7406 101.98 98.8009C101.956 98.8613 101.92 98.9162 101.875 98.9625C101.829 99.0088 101.774 99.0457 101.714 99.0708C101.654 99.0959 101.59 99.1088 101.524 99.1088C101.395 99.1014 101.273 99.0452 101.184 98.9518C101.094 98.8583 101.044 98.7345 101.042 98.6053C100.593 98.9127 100.543 99.5801 99.9223 99.8992C100.099 99.9002 100.272 99.9521 100.419 100.049C100.567 100.145 100.683 100.283 100.754 100.444L101.204 101.243C101.383 101.568 101.818 101.623 102.13 101.664" fill="#333333" fill-opacity="0.7"/>
<path d="M106.283 100.086C106.268 100.453 106.144 100.808 105.928 101.105C105.712 101.403 105.413 101.631 105.068 101.76C104.723 101.89 104.347 101.916 103.988 101.834C103.628 101.753 103.3 101.569 103.045 101.303C102.79 101.038 102.619 100.704 102.553 100.343C102.487 99.9817 102.529 99.609 102.674 99.2713C102.819 98.9336 103.06 98.6458 103.368 98.4435C103.676 98.2413 104.036 98.1336 104.405 98.1339C104.659 98.1315 104.912 98.1811 105.146 98.2794C105.38 98.3778 105.592 98.5229 105.768 98.7058C105.944 98.8887 106.08 99.1056 106.169 99.343C106.258 99.5804 106.297 99.8334 106.283 100.086ZM105.549 100.086C105.549 99.1262 105.043 98.4178 104.373 98.4178C103.561 98.4178 103.267 99.1087 103.267 100.086C103.267 101.064 103.776 101.755 104.443 101.755C105.252 101.755 105.546 101.064 105.546 100.086" fill="#333333" fill-opacity="0.7"/>
<path d="M111.671 98.5408V101.632L111.712 101.673H112.364V101.957H110.321V101.673H110.895L110.936 101.632V99.2726H110.895L109.751 101.878H109.137L107.911 99.1262H107.87V101.632L107.911 101.673H108.484V101.957H106.809V101.673H107.461L107.502 101.632V98.5408L107.461 98.4998H106.809V98.2129H108.237L109.604 101.266H109.645L110.977 98.2129H112.364V98.4998H111.712L111.671 98.5408Z" fill="#333333" fill-opacity="0.7"/>
<path d="M116.924 98.5408V101.632L116.965 101.673H117.579V101.957H115.616V101.673H116.23L116.271 101.632V98.5408L116.23 98.4998H114.431L114.39 98.5408V101.632L114.431 101.673H115.046V101.957H113.082V101.673H113.696L113.738 101.632V98.5408L113.696 98.4998H113.082V98.2129H117.579V98.4998H116.965L116.924 98.5408Z" fill="#333333" fill-opacity="0.7"/>
<path d="M122.221 101.591C122.141 101.727 122.026 101.84 121.889 101.918C121.751 101.997 121.595 102.038 121.437 102.039C121.277 102.06 121.114 102.021 120.981 101.931C120.847 101.841 120.751 101.706 120.711 101.55C120.562 101.711 120.379 101.838 120.176 101.923C119.973 102.007 119.755 102.047 119.535 102.039C118.671 102.039 118.188 101.55 118.188 100.965C118.188 100.379 118.671 99.8902 119.535 99.8902C119.754 99.8833 119.973 99.9233 120.176 100.008C120.379 100.092 120.561 100.219 120.711 100.379V99.5155C120.711 98.8568 120.496 98.4587 119.876 98.4587C119.563 98.4421 119.254 98.5274 118.994 98.7017C119.068 98.7403 119.13 98.7989 119.172 98.8709C119.214 98.9429 119.235 99.0253 119.232 99.1086C119.226 99.2165 119.177 99.3175 119.096 99.3895C119.015 99.4614 118.908 99.4983 118.8 99.4921C118.692 99.4859 118.59 99.437 118.518 99.3563C118.446 99.2756 118.409 99.1697 118.415 99.0618C118.415 98.4909 119.2 98.1338 119.943 98.1338C120.687 98.1338 121.357 98.409 121.357 99.3955V101.33C121.357 101.486 121.413 101.673 121.619 101.673C121.766 101.673 121.881 101.544 121.995 101.404L122.221 101.591ZM120.711 100.745C120.581 100.596 120.422 100.476 120.243 100.392C120.065 100.308 119.87 100.262 119.673 100.256C119.156 100.256 118.829 100.534 118.829 100.965C118.829 101.395 119.156 101.673 119.673 101.673C119.87 101.668 120.065 101.621 120.243 101.537C120.422 101.453 120.581 101.333 120.711 101.184V100.745Z" fill="#333333" fill-opacity="0.7"/>
<path d="M126.672 98.5408V101.632L126.713 101.673H127.325V101.957H125.364V101.673H125.979L126.017 101.632V100.086H124.056V101.632L124.097 101.673H124.712V101.957H122.748V101.673H123.362L123.404 101.632V98.5408L123.362 98.4998H122.748V98.2129H124.712V98.4998H124.097L124.056 98.5408V99.8025H126.017V98.5408L125.979 98.4998H125.364V98.2129H127.325V98.4998H126.713L126.672 98.5408Z" fill="#333333" fill-opacity="0.7"/>
<path d="M131.962 98.5408V101.632L132.004 101.673H132.615V101.957H130.654V101.673H131.266L131.307 101.632V99.3136L129.346 101.266V101.632L129.387 101.673H129.999V101.957H128.038V101.673H128.652L128.694 101.632V98.5408L128.652 98.4998H128.038V98.2129H129.999V98.4998H129.387L129.346 98.5408V100.859L131.307 98.9067V98.5408L131.266 98.4998H130.654V98.2129H132.615V98.4998H132.004L131.962 98.5408Z" fill="#333333" fill-opacity="0.7"/>
<path d="M136.53 98.5408V101.632L136.571 101.673H137.183V101.966H135.219V101.673H135.833L135.874 101.632V100.362H135.701C135.508 100.335 135.311 100.365 135.134 100.448C134.957 100.531 134.808 100.662 134.705 100.827L134.043 101.954H133.117V101.661C133.244 101.649 133.365 101.603 133.468 101.529C133.571 101.455 133.653 101.355 133.705 101.24L133.967 100.757C134.074 100.525 134.268 100.345 134.508 100.253C134.008 100.083 133.599 99.7234 133.599 99.2609C133.599 98.5203 134.375 98.2012 135.16 98.2012H137.162V98.4939H136.571L136.53 98.5408ZM135.877 98.5408L135.836 98.4998H135.354C134.766 98.4998 134.39 98.7749 134.39 99.2902C134.39 99.8493 134.757 100.078 135.354 100.078H135.877V98.5408Z" fill="#333333" fill-opacity="0.7"/>
<path d="M72.117 53.209C71.8979 53.209 71.6878 53.2956 71.5329 53.4499C71.378 53.6042 71.291 53.8134 71.291 54.0316V61.4406C71.291 61.6588 71.378 61.868 71.5329 62.0223C71.6878 62.1765 71.8979 62.2632 72.117 62.2632C72.3361 62.2632 72.5462 62.1765 72.7011 62.0223C72.856 61.868 72.943 61.6588 72.943 61.4406V54.0316C72.943 53.8134 72.856 53.6042 72.7011 53.4499C72.5462 53.2956 72.3361 53.209 72.117 53.209Z" fill="#333333" fill-opacity="0.7"/>
<path d="M79.5565 53.209C79.3374 53.209 79.1273 53.2956 78.9724 53.4499C78.8175 53.6042 78.7305 53.8134 78.7305 54.0316V61.4406C78.7305 61.6588 78.8175 61.868 78.9724 62.0223C79.1273 62.1765 79.3374 62.2632 79.5565 62.2632C79.7756 62.2632 79.9857 62.1765 80.1406 62.0223C80.2955 61.868 80.3825 61.6588 80.3825 61.4406V54.0316C80.3825 53.8134 80.2955 53.6042 80.1406 53.4499C79.9857 53.2956 79.7756 53.209 79.5565 53.209Z" fill="#333333" fill-opacity="0.7"/>
<path d="M79.5565 42.0967C79.448 42.0967 79.3406 42.118 79.2404 42.1593C79.1402 42.2006 79.0491 42.2612 78.9724 42.3376C78.8957 42.414 78.8349 42.5047 78.7933 42.6045C78.7518 42.7043 78.7305 42.8112 78.7305 42.9193V50.3283C78.7305 50.5465 78.8175 50.7557 78.9724 50.91C79.1273 51.0642 79.3374 51.1509 79.5565 51.1509C79.7756 51.1509 79.9857 51.0642 80.1406 50.91C80.2955 50.7557 80.3825 50.5465 80.3825 50.3283V42.9193C80.3825 42.8112 80.3611 42.7043 80.3196 42.6045C80.2781 42.5047 80.2173 42.414 80.1406 42.3376C80.0639 42.2612 79.9728 42.2006 79.8726 42.1593C79.7724 42.118 79.665 42.0967 79.5565 42.0967Z" fill="#333333" fill-opacity="0.7"/>
<path d="M87.0116 53.209C86.7925 53.209 86.5824 53.2956 86.4275 53.4499C86.2726 53.6042 86.1855 53.8134 86.1855 54.0316V61.4406C86.1855 61.6588 86.2726 61.868 86.4275 62.0223C86.5824 62.1765 86.7925 62.2632 87.0116 62.2632C87.2306 62.2632 87.4407 62.1765 87.5956 62.0223C87.7505 61.868 87.8376 61.6588 87.8376 61.4406V54.0316C87.8376 53.8134 87.7505 53.6042 87.5956 53.4499C87.4407 53.2956 87.2306 53.209 87.0116 53.209Z" fill="#333333" fill-opacity="0.7"/>
<path d="M87.0116 42.0967C86.9031 42.0967 86.7957 42.118 86.6955 42.1593C86.5952 42.2006 86.5042 42.2612 86.4275 42.3376C86.3508 42.414 86.2899 42.5047 86.2484 42.6045C86.2069 42.7043 86.1855 42.8112 86.1855 42.9193V50.3283C86.1855 50.5465 86.2726 50.7557 86.4275 50.91C86.5824 51.0642 86.7925 51.1509 87.0116 51.1509C87.2306 51.1509 87.4407 51.0642 87.5956 50.91C87.7505 50.7557 87.8376 50.5465 87.8376 50.3283V42.9193C87.8376 42.8112 87.8162 42.7043 87.7747 42.6045C87.7332 42.5047 87.6723 42.414 87.5956 42.3376C87.5189 42.2612 87.4279 42.2006 87.3277 42.1593C87.2274 42.118 87.12 42.0967 87.0116 42.0967Z" fill="#333333" fill-opacity="0.7"/>
<path d="M79.556 15.1367C79.9242 15.1367 80.284 15.028 80.5901 14.8242C80.8962 14.6205 81.1346 14.3309 81.2754 13.9921C81.4161 13.6534 81.4528 13.2806 81.3808 12.9211C81.3087 12.5616 81.1312 12.2314 80.8707 11.9724C80.6102 11.7133 80.2784 11.5371 79.9172 11.4659C79.5561 11.3947 79.1819 11.4319 78.8419 11.5726C78.502 11.7133 78.2116 11.9512 78.0075 12.2563C77.8034 12.5615 77.6947 12.92 77.6953 13.2866C77.6961 13.7776 77.8925 14.2481 78.2413 14.595C78.5902 14.9419 79.0631 15.1367 79.556 15.1367Z" fill="#333333" fill-opacity="0.7"/>
<path d="M78.6332 9.67139H80.4763C80.5879 9.67152 80.6981 9.64635 80.7984 9.59777C80.8988 9.5492 80.9867 9.4785 81.0556 9.39104C81.1244 9.30358 81.1724 9.20166 81.1958 9.093C81.2192 8.98434 81.2174 8.8718 81.1906 8.76392L80.2705 0.933395C80.2318 0.773809 80.1403 0.631831 80.0107 0.530288C79.8812 0.428745 79.7211 0.373535 79.5562 0.373535C79.3914 0.373535 79.2313 0.428745 79.1017 0.530288C78.9722 0.631831 78.8807 0.773809 78.8419 0.933395L77.9219 8.76392C77.8951 8.87156 77.8933 8.98384 77.9166 9.09228C77.9398 9.20072 77.9875 9.30249 78.056 9.38989C78.1245 9.47729 78.2121 9.54805 78.3121 9.59681C78.4121 9.64558 78.5219 9.67108 78.6332 9.67139Z" fill="#333333" fill-opacity="0.7"/>
<path d="M60.9579 38.3906C60.8494 38.3906 60.742 38.4119 60.6418 38.4532C60.5415 38.4946 60.4505 38.5552 60.3738 38.6315C60.2971 38.7079 60.2362 38.7986 60.1947 38.8984C60.1532 38.9982 60.1318 39.1052 60.1318 39.2132V42.9191C60.1318 43.1373 60.2189 43.3465 60.3738 43.5008C60.5287 43.655 60.7388 43.7417 60.9579 43.7417C61.1769 43.7417 61.387 43.655 61.5419 43.5008C61.6968 43.3465 61.7839 43.1373 61.7839 42.9191V39.2132C61.7839 38.995 61.6968 38.7858 61.5419 38.6315C61.387 38.4773 61.1769 38.3906 60.9579 38.3906Z" fill="#333333" fill-opacity="0.7"/>
<path d="M73.9783 46.6284C73.9789 46.995 73.8702 47.3536 73.6661 47.6587C73.462 47.9638 73.1716 48.2018 72.8317 48.3425C72.4917 48.4832 72.1175 48.5203 71.7564 48.4491C71.3952 48.378 71.0634 48.2017 70.8029 47.9427C70.5423 47.6836 70.3648 47.3535 70.2928 46.9939C70.2208 46.6344 70.2574 46.2617 70.3982 45.9229C70.5389 45.5841 70.7774 45.2946 71.0835 45.0908C71.3895 44.8871 71.7494 44.7783 72.1176 44.7783C72.6105 44.7783 73.0834 44.9731 73.4322 45.32C73.7811 45.6669 73.9775 46.1375 73.9783 46.6284Z" fill="#333333" fill-opacity="0.7"/>
<path d="M43.1862 72.1426V62.263H48.9712V72.1426H50.6262V65.9689H60.9145C61.1156 65.9735 61.3119 65.9073 61.4689 65.782C61.6259 65.6568 61.7335 65.4804 61.7729 65.2839C61.7934 65.1658 61.7878 65.0445 61.7564 64.9287C61.7249 64.813 61.6685 64.7054 61.5909 64.6137C61.5133 64.5219 61.4165 64.4481 61.3073 64.3976C61.1981 64.347 61.0791 64.3208 60.9586 64.3209H50.6262V58.56H60.9145C61.1156 58.5645 61.3119 58.4984 61.4689 58.3731C61.6259 58.2478 61.7335 58.0714 61.7729 57.875C61.7934 57.7568 61.7878 57.6356 61.7564 57.5198C61.7249 57.404 61.6685 57.2964 61.5909 57.2047C61.5133 57.1129 61.4165 57.0392 61.3073 56.9886C61.1981 56.938 61.0791 56.9119 60.9586 56.9119H50.6262V54.8628H63.8541V72.1514H65.5061V40.039H93.611V72.1426H95.2659V38.391H87.823V32.6301H101.051V34.6792H98.2025C98.0014 34.6746 97.8051 34.7408 97.6481 34.866C97.4911 34.9913 97.3835 35.1677 97.3442 35.3641C97.3241 35.4821 97.3301 35.603 97.3617 35.7185C97.3934 35.8339 97.4499 35.941 97.5275 36.0325C97.605 36.1239 97.7016 36.1973 97.8106 36.2477C97.9196 36.2982 98.0383 36.3243 98.1584 36.3243H101.051V42.0881H98.2025C98.0014 42.0836 97.8051 42.1497 97.6481 42.275C97.4911 42.4003 97.3835 42.5766 97.3442 42.7731C97.3241 42.8911 97.3301 43.012 97.3617 43.1274C97.3934 43.2428 97.4499 43.35 97.5275 43.4414C97.605 43.5328 97.7016 43.6063 97.8106 43.6567C97.9196 43.7071 98.0383 43.7332 98.1584 43.7333H101.051V49.4971H97.3295V72.1338H98.9815V51.151H108.488V72.1426H110.14V58.56H115.928V60.6091H113.079C112.878 60.605 112.682 60.6713 112.524 60.7964C112.367 60.9215 112.259 61.0976 112.218 61.2941C112.199 61.4122 112.205 61.5332 112.237 61.6486C112.269 61.764 112.326 61.8711 112.404 61.9624C112.481 62.0538 112.578 62.1272 112.687 62.1776C112.796 62.228 112.915 62.2541 113.035 62.2542H115.928V64.3033H113.079C112.878 64.2992 112.682 64.3655 112.524 64.4906C112.367 64.6158 112.259 64.7919 112.218 64.9883C112.199 65.1066 112.205 65.2277 112.237 65.3432C112.269 65.4588 112.326 65.5661 112.404 65.6576C112.481 65.7492 112.578 65.8229 112.687 65.8736C112.796 65.9243 112.915 65.9508 113.035 65.9514H115.928V68.0005H113.079C112.878 67.9958 112.681 68.0619 112.524 68.1871C112.366 68.3123 112.258 68.4888 112.218 68.6855C112.199 68.8036 112.205 68.9246 112.237 69.04C112.269 69.1554 112.326 69.2625 112.404 69.3538C112.481 69.4452 112.578 69.5186 112.687 69.569C112.796 69.6194 112.915 69.6455 113.035 69.6456H115.928V72.1162H117.583V57.752C117.583 57.6438 117.562 57.5365 117.521 57.4364C117.479 57.3362 117.419 57.2452 117.342 57.1685C117.265 57.0918 117.174 57.031 117.074 56.9894C116.973 56.9479 116.866 56.9265 116.757 56.9265H110.143V50.3284C110.143 50.2203 110.122 50.1132 110.081 50.0132C110.039 49.9132 109.979 49.8224 109.902 49.7459C109.825 49.6695 109.734 49.6089 109.633 49.5677C109.533 49.5265 109.425 49.5055 109.317 49.5059H102.703V31.8075C102.703 31.5886 102.616 31.3786 102.46 31.2238C102.305 31.069 102.094 30.982 101.874 30.982H87.823V28.1015C87.8231 27.8859 87.738 27.6789 87.5863 27.525C87.4346 27.3712 87.2282 27.2828 87.0117 27.279H83.8076C82.2644 23.6608 82.2438 17.0598 82.2438 16.9896C82.2438 16.7729 82.158 16.565 82.005 16.411C81.852 16.257 81.6441 16.1693 81.4266 16.167H77.6963C77.5879 16.167 77.4804 16.1883 77.3802 16.2296C77.28 16.2709 77.1889 16.3315 77.1122 16.4079C77.0355 16.4843 76.9747 16.575 76.9332 16.6748C76.8917 16.7746 76.8703 16.8815 76.8703 16.9896C76.8703 17.0598 76.8497 23.6579 75.3065 27.279H72.1171C72.0086 27.279 71.9012 27.3003 71.801 27.3416C71.7008 27.3829 71.6097 27.4435 71.533 27.5199C71.4563 27.5963 71.3955 27.687 71.354 27.7868C71.3124 27.8866 71.2911 27.9935 71.2911 28.1015V34.6879H57.2372C57.0191 34.6879 56.8099 34.7738 56.6552 34.9268C56.5004 35.0798 56.4127 35.2875 56.4112 35.5047V53.203H49.7972C49.5781 53.203 49.368 53.2897 49.2131 53.444C49.0582 53.5982 48.9712 53.8074 48.9712 54.0256V60.612H42.3602C42.2515 60.6116 42.1438 60.6326 42.0432 60.6738C41.9426 60.7149 41.8512 60.7755 41.7742 60.8519C41.6972 60.9283 41.6361 61.0191 41.5944 61.1191C41.5527 61.2191 41.5312 61.3263 41.5313 61.4346V72.1367L43.1862 72.1426ZM78.5106 17.8121H80.6035C80.6564 19.6446 80.8975 24.1058 82.0351 27.279H77.0761C78.2137 24.1058 78.4577 19.6446 78.5106 17.8121ZM72.9431 28.9358H86.171V38.4027H84.1133V31.8514C84.118 31.6508 84.0517 31.4549 83.9259 31.2981C83.8002 31.1413 83.623 31.0335 83.4255 30.9937C83.3068 30.9742 83.1854 30.9806 83.0695 31.0125C82.9536 31.0444 82.846 31.101 82.7543 31.1784C82.6626 31.2558 82.5888 31.3522 82.5382 31.4608C82.4877 31.5695 82.4614 31.6877 82.4613 31.8075V38.391H80.4036V35.5544C80.4082 35.3541 80.3418 35.1587 80.216 35.0023C80.0902 34.846 79.9131 34.7388 79.7158 34.6996C79.5973 34.6796 79.4759 34.6856 79.36 34.7171C79.2441 34.7487 79.1365 34.805 79.0447 34.8822C78.9529 34.9594 78.8791 35.0556 78.8285 35.1641C78.7779 35.2726 78.7516 35.3909 78.7516 35.5105V38.391H76.6939V31.8514C76.6981 31.6509 76.6315 31.4553 76.5058 31.2986C76.3802 31.1419 76.2033 31.034 76.0061 30.9937C75.8872 30.9737 75.7654 30.9797 75.6492 31.0114C75.5329 31.0431 75.425 31.0996 75.3329 31.1771C75.2408 31.2546 75.1669 31.3511 75.1161 31.46C75.0653 31.5689 75.039 31.6875 75.039 31.8075V38.391H72.9813L72.9431 28.9358ZM58.0661 36.3448H71.294V38.3939H63.8511V53.2118H61.7935V46.6664C61.798 46.4661 61.7316 46.2706 61.6058 46.1143C61.48 45.958 61.3029 45.8508 61.1056 45.8116C60.9871 45.7916 60.8657 45.7976 60.7498 45.8291C60.6339 45.8606 60.5263 45.917 60.4345 45.9942C60.3427 46.0714 60.2689 46.1676 60.2183 46.2761C60.1677 46.3846 60.1415 46.5028 60.1414 46.6225V53.2089H58.0838L58.0661 36.3448Z" fill="#333333" fill-opacity="0.7"/>
<path d="M46.9049 72.1426V65.1463C46.9049 64.9281 46.8179 64.7189 46.663 64.5647C46.5081 64.4104 46.298 64.3237 46.0789 64.3237C45.8599 64.3237 45.6498 64.4104 45.4949 64.5647C45.34 64.7189 45.2529 64.9281 45.2529 65.1463V72.1426H46.9049Z" fill="#333333" fill-opacity="0.7"/>
<path d="M72.943 72.1426V65.1463C72.943 64.9281 72.856 64.7189 72.7011 64.5647C72.5462 64.4104 72.3361 64.3237 72.117 64.3237C71.8979 64.3237 71.6878 64.4104 71.5329 64.5647C71.378 64.7189 71.291 64.9281 71.291 65.1463V72.1426H72.943Z" fill="#333333" fill-opacity="0.7"/>
<path d="M80.3825 72.1426V65.1463C80.3825 64.9281 80.2955 64.7189 80.1406 64.5647C79.9857 64.4104 79.7756 64.3237 79.5565 64.3237C79.3374 64.3237 79.1273 64.4104 78.9724 64.5647C78.8175 64.7189 78.7305 64.9281 78.7305 65.1463V72.1426H80.3825Z" fill="#333333" fill-opacity="0.7"/>
<path d="M87.8229 72.1426V65.1463C87.8229 64.9281 87.7359 64.7189 87.581 64.5647C87.4261 64.4104 87.216 64.3237 86.9969 64.3237C86.7778 64.3237 86.5677 64.4104 86.4128 64.5647C86.2579 64.7189 86.1709 64.9281 86.1709 65.1463V72.1426H87.8229Z" fill="#333333" fill-opacity="0.7"/>
<path d="M102.703 72.1426V54.0313C102.69 53.8212 102.598 53.6238 102.444 53.4795C102.29 53.3352 102.087 53.2549 101.875 53.2549C101.664 53.2549 101.461 53.3352 101.307 53.4795C101.153 53.6238 101.06 53.8212 101.048 54.0313V72.1426H102.703Z" fill="#333333" fill-opacity="0.7"/>
<path d="M106.413 72.1426V54.0315C106.413 53.8134 106.326 53.6042 106.171 53.4499C106.016 53.2956 105.806 53.209 105.587 53.209C105.368 53.209 105.158 53.2956 105.003 53.4499C104.848 53.6042 104.761 53.8134 104.761 54.0315V72.1426H106.413Z" fill="#333333" fill-opacity="0.7"/>
</svg>
