<svg width="218" height="52" viewBox="0 0 218 52" fill="none" xmlns="http://www.w3.org/2000/svg">
<path fill-rule="evenodd" clip-rule="evenodd" d="M66.6604 0.889487H67.7421C68.4234 0.878935 69.0886 1.09529 69.6323 1.5042C69.9114 1.72171 70.1376 1.99924 70.2939 2.31605C70.4501 2.63286 70.5325 2.98074 70.5347 3.3337C70.5333 3.35417 70.5333 3.37471 70.5347 3.39517C70.5364 3.41563 70.5364 3.43619 70.5347 3.45664V3.64691C70.5523 3.99791 70.483 4.34784 70.3328 4.66586C70.1826 4.98388 69.9562 5.26023 69.6734 5.47056C69.1192 5.89257 68.4398 6.11912 67.7421 6.11454H67.1542V8.74902H66.1548V6.11454H65.5493C64.8454 6.12395 64.1589 5.8971 63.6003 5.47056C63.3233 5.25897 63.102 4.9835 62.9555 4.66786C62.8091 4.35222 62.7418 4.00587 62.7596 3.65862V3.57959C62.7569 3.5494 62.7569 3.51903 62.7596 3.48884V3.3337C62.7556 2.97657 62.8357 2.62347 62.9934 2.30271C63.1512 1.98196 63.3822 1.70246 63.668 1.48664C64.221 1.09488 64.8854 0.889716 65.564 0.901196L66.6604 0.889487ZM63.7885 3.3337V3.42152C63.7841 3.43881 63.7841 3.45691 63.7885 3.47421V3.52397C63.7708 3.77267 63.8122 4.02202 63.9092 4.25187C64.0062 4.48171 64.1562 4.6856 64.347 4.84706C64.6927 5.13419 65.1285 5.29163 65.5786 5.292H66.1666V1.72374H65.5963C65.1422 1.70121 64.6963 1.84959 64.347 2.1394C64.1795 2.2908 64.0439 2.47381 63.948 2.67783C63.8521 2.88184 63.7979 3.10279 63.7885 3.32785V3.3337ZM67.7421 1.72374H67.1719V5.292H67.7421C68.1944 5.29384 68.633 5.13857 68.9826 4.85292C69.1732 4.68773 69.3224 4.4805 69.4183 4.24775C69.5143 4.01499 69.5543 3.76314 69.5353 3.51226V3.3337C69.5302 3.10755 69.4786 2.88484 69.3835 2.6794C69.2884 2.47395 69.152 2.29015 68.9826 2.1394C68.6351 1.85204 68.1936 1.70201 67.7421 1.71789V1.72374ZM76.5372 3.31028H71.9898V3.38932C71.9867 3.40181 71.9867 3.41488 71.9898 3.42737V3.45664C71.9923 3.94332 72.1743 4.41211 72.5012 4.77388C72.6674 4.97009 72.8744 5.12799 73.1078 5.23666C73.3413 5.34532 73.5957 5.40216 73.8534 5.40323C74.2141 5.41097 74.5724 5.34419 74.9058 5.20711C75.1911 5.07266 75.4492 4.88711 75.6671 4.65972L75.7906 4.52507C75.8347 4.48116 75.8788 4.4314 75.9229 4.37871L76.646 5.04319C76.3105 5.446 75.8832 5.76314 75.3996 5.96818C74.9316 6.15101 74.4326 6.24244 73.9299 6.23748H73.8123C72.8501 6.20626 72.1191 5.90378 71.6194 5.33005C71.1343 4.79476 70.8671 4.09862 70.8698 3.37761C70.8733 2.6989 71.1397 2.04773 71.6135 1.55982C72.1054 1.02316 72.8354 0.754836 73.8035 0.754836C73.9017 0.75491 73.9999 0.760775 74.0974 0.772399C74.1962 0.783597 74.2944 0.80021 74.3914 0.822162C74.9455 0.93614 75.4553 1.20525 75.8611 1.59787C76.0886 1.81978 76.2664 2.08704 76.3829 2.38214C76.4994 2.67725 76.552 2.99353 76.5372 3.31028ZM72.1867 2.47896H75.3408C75.2313 2.26642 75.0682 2.08587 74.8676 1.95499C74.6624 1.81064 74.4322 1.70544 74.1885 1.64471C74.0803 1.60944 73.9673 1.59069 73.8534 1.58909H73.8299C73.7316 1.58879 73.6333 1.59564 73.536 1.60958C73.4355 1.62584 73.337 1.65232 73.242 1.68861C73.0317 1.75461 72.8333 1.85341 72.6541 1.98133C72.4693 2.10905 72.3165 2.2773 72.2073 2.4731L72.1867 2.47896ZM78.5861 1.71203H77.91V0.889487H81.9136V5.28029C81.9933 5.27508 82.0732 5.28762 82.1474 5.31699C82.2217 5.34635 82.2884 5.39181 82.3428 5.45007C82.4461 5.57148 82.4997 5.72723 82.4927 5.88622C82.4952 5.93205 82.4952 5.97797 82.4927 6.0238C82.4838 6.07707 82.472 6.12983 82.4574 6.18187L81.9783 7.73328L81.0024 7.64254L81.4962 6.11454H77.7013L78.1892 7.65425L77.2016 7.74499L76.7254 6.20236V6.14674C76.7292 6.13635 76.7292 6.12494 76.7254 6.11454C76.7254 6.08234 76.7254 6.05014 76.7254 6.01794C76.7228 5.98971 76.7228 5.96129 76.7254 5.93306C76.7211 5.84688 76.7348 5.76076 76.7657 5.68015C76.7965 5.59953 76.8439 5.52617 76.9047 5.4647C77.0293 5.34875 77.1927 5.28302 77.3632 5.28029L78.5861 1.71203ZM80.9083 5.292V1.71203H79.8971C79.794 1.70684 79.6917 1.73232 79.6032 1.78521C79.5322 1.82632 79.4788 1.89194 79.4532 1.96962L78.3245 5.292H80.9083ZM88.3101 3.31028H83.7626V3.38932C83.7595 3.40181 83.7595 3.41488 83.7626 3.42737V3.45664C83.7651 3.94332 83.9472 4.41211 84.2741 4.77388C84.4386 4.96822 84.6432 5.12502 84.874 5.23361C85.1048 5.34221 85.3563 5.40006 85.6116 5.40323C85.9722 5.41097 86.3305 5.34419 86.6639 5.20711C86.9492 5.07266 87.2073 4.88711 87.4253 4.65972L87.5487 4.52507C87.5899 4.48116 87.6369 4.4314 87.681 4.37871L88.4041 5.04319C88.0686 5.446 87.6413 5.76314 87.1578 5.96818C86.6897 6.15101 86.1907 6.24244 85.688 6.23748H85.5704C84.6102 6.20626 83.8792 5.90378 83.3775 5.33005C82.8924 4.79476 82.6252 4.09862 82.6279 3.37761C82.6314 2.6989 82.8979 2.04773 83.3716 1.55982C83.8714 1.02316 84.6062 0.754836 85.5763 0.754836C85.6745 0.75491 85.7727 0.760775 85.8702 0.772399C85.9691 0.783597 86.0672 0.80021 86.1642 0.822162C86.7183 0.93614 87.2282 1.20525 87.634 1.59787C87.8614 1.81978 88.0392 2.08704 88.1557 2.38214C88.2723 2.67725 88.3248 2.99353 88.3101 3.31028ZM83.9595 2.47896H87.1137C87.0042 2.26642 86.8411 2.08587 86.6404 1.95499C86.4353 1.81064 86.205 1.70544 85.9614 1.64471C85.9052 1.62991 85.8483 1.61818 85.7909 1.60958C85.7351 1.60674 85.6791 1.60674 85.6233 1.60958H85.6116C85.5132 1.60918 85.415 1.61603 85.3176 1.63007C85.2172 1.64633 85.1187 1.67282 85.0237 1.7091C84.8134 1.7751 84.6149 1.8739 84.4358 2.00182C84.251 2.12954 84.0981 2.29779 83.9889 2.49359L83.9595 2.47896ZM89.9503 6.05893V8.69341H88.9391V0.889487H89.9503V1.1383C90.1803 1.02494 90.423 0.939436 90.6734 0.883633C90.9174 0.827983 91.1668 0.799512 91.4171 0.798744C92.1039 0.794253 92.7705 1.02934 93.3014 1.46322C93.5848 1.70173 93.808 2.0032 93.953 2.34335C94.098 2.68349 94.1608 3.0528 94.1362 3.42152C94.1362 4.33676 93.857 5.02757 93.2984 5.49398C92.7122 5.9696 91.973 6.21807 91.2173 6.19358C91.013 6.19305 90.8088 6.18132 90.6058 6.15845C90.3845 6.13323 90.1647 6.0961 89.9474 6.04722L89.9503 6.05893ZM89.9503 2.07208V5.04319C90.104 5.12069 90.2656 5.18153 90.4324 5.22467C90.6073 5.26792 90.7851 5.29825 90.9645 5.31542H91.1732C91.6302 5.2983 92.0706 5.14084 92.4342 4.86463C92.6372 4.70025 92.7969 4.48902 92.8993 4.24926C93.0018 4.00951 93.0439 3.74849 93.0221 3.48884C93.0396 3.23628 92.9983 2.98312 92.9014 2.74907C92.8045 2.51501 92.6547 2.30637 92.4636 2.1394C92.1139 1.85201 91.6736 1.69655 91.2202 1.70032H91.0556C91.0014 1.70328 90.9474 1.70914 90.8939 1.71789C90.7293 1.74155 90.5676 1.78277 90.4118 1.84083C90.2511 1.9011 90.0966 1.97658 89.9503 2.06622V2.07208ZM95.3826 1.04756C95.5006 1.00301 95.6214 0.965857 95.7441 0.936322C95.8676 0.904123 95.994 0.877778 96.1175 0.857288C96.2879 0.828016 96.4584 0.804598 96.6289 0.789962C96.7994 0.775326 96.967 0.766545 97.1287 0.766545C97.3757 0.765364 97.6224 0.783963 97.8665 0.822162C98.0768 0.852032 98.2824 0.909107 98.4779 0.991939C98.7746 1.11543 99.0224 1.33239 99.1834 1.60958C99.3487 1.90987 99.4328 2.24779 99.4274 2.59019V6.10283H98.472V5.85402C98.2473 5.97099 98.0067 6.05481 97.7577 6.10283C97.438 6.17102 97.1117 6.20439 96.7847 6.20236H96.576C96.0719 6.17772 95.581 6.03318 95.1445 5.78084C94.9265 5.64772 94.7501 5.45661 94.6353 5.22904C94.5206 5.00147 94.4719 4.7465 94.4948 4.49287C94.4738 4.20929 94.5384 3.92592 94.6804 3.6792C94.8223 3.43247 95.0351 3.23365 95.2914 3.10831C95.8331 2.84287 96.431 2.71133 97.0346 2.72484H97.2286H97.4197C97.5902 2.72484 97.7607 2.7629 97.9311 2.79217C98.1016 2.82144 98.2604 2.85657 98.4073 2.89462C98.4294 2.59414 98.3779 2.29282 98.2574 2.01646C98.1544 1.8491 97.9934 1.72516 97.8047 1.66812L97.6166 1.62129C97.5557 1.60631 97.4938 1.59555 97.4314 1.58909C97.3707 1.58909 97.3089 1.58323 97.2462 1.57153H97.0581C96.7953 1.57506 96.5338 1.60945 96.2791 1.67398C95.9735 1.74968 95.6739 1.84752 95.3826 1.9667V1.04756ZM95.5589 4.51629C95.5541 4.65891 95.594 4.79948 95.673 4.91854C95.752 5.03759 95.8662 5.12923 95.9999 5.18077C96.3182 5.32031 96.6633 5.38923 97.0111 5.38274H97.1228C97.16 5.38533 97.1973 5.38533 97.2345 5.38274C97.4518 5.36859 97.6673 5.33429 97.8782 5.28029C98.0612 5.23686 98.2387 5.17303 98.4073 5.09002V3.73765L98.3103 3.70838C98.2646 3.69804 98.2195 3.68533 98.1751 3.67033C98.0428 3.64106 97.8812 3.61471 97.693 3.59129C97.4979 3.56889 97.3016 3.55814 97.1051 3.5591H96.9787C96.6452 3.5699 96.3169 3.64444 96.0116 3.77864C95.8707 3.83794 95.7522 3.94007 95.673 4.07044C95.5938 4.2008 95.558 4.35275 95.5707 4.50458L95.5589 4.51629ZM100.806 6.18187L99.7566 6.12625L101.329 1.73545H100.7V0.889487H104.701V6.11454H103.69V1.72374H102.596C102.517 1.71497 102.436 1.73468 102.37 1.77936C102.326 1.8181 102.288 1.86355 102.258 1.91401L102.241 1.93743C102.239 1.94514 102.239 1.95313 102.241 1.96084L100.806 6.18187ZM106.482 2.46725H108.284C108.577 2.44401 108.872 2.48086 109.15 2.57551C109.428 2.67017 109.684 2.82062 109.901 3.01756C110.244 3.34099 110.444 3.78591 110.459 4.25577V4.32309C110.443 4.78753 110.242 5.22646 109.901 5.54374C109.684 5.74167 109.429 5.89335 109.151 5.9895C108.873 6.08564 108.578 6.1242 108.284 6.10283H105.459V0.889487H106.482V2.46725ZM108.284 3.31028H106.482V5.30371H108.284C108.44 5.31516 108.596 5.29225 108.742 5.23659C108.888 5.18093 109.02 5.0939 109.128 4.98172C109.306 4.7988 109.406 4.5544 109.407 4.29968V4.26748C109.396 4.01709 109.291 3.77989 109.113 3.603C109.004 3.49858 108.874 3.41847 108.732 3.36799C108.589 3.31752 108.438 3.29785 108.287 3.31028H108.284ZM111.285 2.47896V0.889487H112.3V2.46725H115.195V0.889487H116.206V6.11454H115.195V3.31028H112.3V6.12625H111.285V3.31028H110.598V2.46725L111.285 2.47896ZM117.823 1.04756C117.941 1.00301 118.062 0.965857 118.185 0.936322C118.308 0.904123 118.434 0.877778 118.558 0.857288C118.728 0.828016 118.899 0.804598 119.069 0.789962C119.24 0.775326 119.407 0.766545 119.569 0.766545C119.813 0.761956 120.057 0.776638 120.298 0.810453C120.508 0.840324 120.714 0.897398 120.909 0.98023C121.207 1.10221 121.455 1.31956 121.615 1.59787C121.78 1.90218 121.862 2.24436 121.853 2.59019V6.10283H120.898V5.85402C120.673 5.97099 120.432 6.05481 120.183 6.10283C119.864 6.17102 119.537 6.20439 119.21 6.20236H119.002C118.498 6.17772 118.007 6.03318 117.57 5.78084C117.353 5.64722 117.177 5.45602 117.062 5.22858C116.947 5.00114 116.898 4.74642 116.921 4.49287C116.9 4.20929 116.964 3.92592 117.106 3.6792C117.248 3.43247 117.461 3.23365 117.717 3.10831C118.263 2.84056 118.866 2.70896 119.475 2.72484H119.669H119.86C120.031 2.72484 120.201 2.7629 120.372 2.79217C120.542 2.82144 120.701 2.85657 120.848 2.89462C120.87 2.59414 120.818 2.29282 120.698 2.01646C120.595 1.8491 120.434 1.72516 120.245 1.66812L120.057 1.62129C119.996 1.60631 119.934 1.59555 119.872 1.58909L119.687 1.55396H119.499C119.236 1.55749 118.974 1.59188 118.72 1.65641C118.414 1.73212 118.114 1.82995 117.823 1.94913V1.04756ZM117.999 4.51629C117.995 4.65891 118.034 4.79948 118.113 4.91854C118.192 5.03759 118.307 5.12923 118.44 5.18077C118.76 5.32063 119.106 5.38956 119.454 5.38274H119.563C119.6 5.38533 119.638 5.38533 119.675 5.38274C119.892 5.36859 120.108 5.33429 120.319 5.28029C120.502 5.23686 120.679 5.17303 120.848 5.09002V3.73765L120.751 3.70838C120.705 3.69804 120.66 3.68533 120.616 3.67033C120.483 3.64106 120.322 3.61471 120.133 3.59129C119.938 3.56889 119.742 3.55814 119.546 3.5591H119.416C119.083 3.5699 118.754 3.64444 118.449 3.77864C118.308 3.83794 118.19 3.94007 118.11 4.07044C118.031 4.2008 117.995 4.35275 118.008 4.50458L117.999 4.51629ZM124.049 3.24296C123.738 3.16748 123.456 3.00258 123.238 2.76875C123.077 2.59772 122.985 2.3737 122.979 2.1394V2.06037C123 1.90139 123.054 1.74843 123.137 1.61097C123.22 1.4735 123.33 1.35447 123.461 1.26124C123.802 1.00127 124.225 0.869624 124.654 0.889487H127.224V6.11454H126.212V3.31028H125.433C125.273 3.31135 125.119 3.37189 125.001 3.48006C124.852 3.61266 124.731 3.77269 124.643 3.95134L123.314 6.18187L122.188 6.06771L123.658 3.62642C123.716 3.53919 123.78 3.45606 123.849 3.37761C123.893 3.32947 123.947 3.29151 124.008 3.26638C124.014 3.25872 124.022 3.2527 124.031 3.24881H124.055L124.049 3.24296ZM124.637 1.72374C124.476 1.71632 124.317 1.75276 124.175 1.82912C124.128 1.85393 124.087 1.88841 124.054 1.93027C124.021 1.97214 123.997 2.02046 123.984 2.07208C123.982 2.07671 123.981 2.08169 123.981 2.08671C123.981 2.09174 123.982 2.09671 123.984 2.10135V2.12769C123.986 2.177 124 2.22512 124.025 2.26759C124.05 2.31007 124.086 2.34552 124.128 2.37065C124.252 2.44922 124.397 2.48711 124.543 2.47896H126.218V1.71203L124.637 1.72374ZM137.303 4.87634L137.753 5.65204C137.482 5.81524 137.19 5.9422 136.886 6.02965C136.58 6.11537 136.265 6.16643 135.948 6.18187H135.739C134.971 6.18822 134.222 5.94463 133.605 5.48812C133.29 5.25096 133.038 4.93979 132.872 4.5823C132.707 4.22481 132.632 3.83209 132.656 3.43908C132.634 3.04624 132.709 2.65395 132.874 2.29668C133.04 1.93941 133.291 1.62808 133.605 1.39004C134.218 0.924272 134.968 0.673182 135.739 0.675802H135.948C136.266 0.698064 136.58 0.752998 136.886 0.839725C137.191 0.924661 137.483 1.05176 137.753 1.21733L137.309 2.01646C137.24 1.97836 137.169 1.94605 137.095 1.91986L136.88 1.84668C136.702 1.78771 136.519 1.74269 136.333 1.71203C136.164 1.68363 135.993 1.66895 135.822 1.66812C135.302 1.65391 134.794 1.82057 134.384 2.1394C134.19 2.29458 134.036 2.4932 133.934 2.71907C133.832 2.94493 133.785 3.19164 133.796 3.43908C133.785 3.68737 133.832 3.93493 133.934 4.16173C134.036 4.38854 134.19 4.58821 134.384 4.74461C134.792 5.0665 135.301 5.23445 135.822 5.21882C135.993 5.218 136.164 5.20331 136.333 5.17491C136.518 5.14183 136.701 5.09586 136.88 5.03733C136.953 5.0157 137.025 4.98929 137.095 4.9583L137.309 4.87048L137.303 4.87634ZM143.744 3.31028H139.193V3.38932C139.192 3.40194 139.192 3.41475 139.193 3.42737V3.45664C139.195 3.9425 139.374 4.4111 139.699 4.77388C139.865 4.96971 140.071 5.12739 140.304 5.23604C140.537 5.3447 140.791 5.40174 141.048 5.40323C141.409 5.41063 141.767 5.34386 142.101 5.20711C142.385 5.07192 142.643 4.88647 142.862 4.65972L142.985 4.52507L143.118 4.37871L143.838 5.04319C143.503 5.44587 143.077 5.76303 142.594 5.96818C142.126 6.15094 141.627 6.24237 141.125 6.23748H141.01C140.05 6.20626 139.319 5.90378 138.817 5.33005C138.331 4.79505 138.063 4.09896 138.065 3.37761C138.073 2.70174 138.343 2.05513 138.817 1.57153C139.311 1.02707 140.042 0.754836 141.01 0.754836C141.108 0.755089 141.206 0.760953 141.304 0.772399C141.403 0.783822 141.501 0.800433 141.598 0.822162C142.153 0.934421 142.663 1.20378 143.068 1.59787C143.295 1.81989 143.473 2.08717 143.589 2.38225C143.706 2.67732 143.758 2.99355 143.744 3.31028ZM139.405 2.46725H142.556C142.448 2.25491 142.286 2.07434 142.086 1.94328C141.88 1.79913 141.648 1.69396 141.404 1.633C141.349 1.61791 141.293 1.60618 141.236 1.59787H141.069H141.045C140.947 1.59747 140.849 1.60432 140.751 1.61836C140.651 1.63393 140.552 1.66044 140.457 1.69739C140.247 1.76339 140.049 1.86219 139.869 1.99011C139.679 2.11059 139.52 2.27406 139.405 2.46725ZM148.944 0.889487V1.71203H146.989V6.10283H145.978V1.71203H144.023V0.889487H148.944ZM150.375 2.46725H152.177C152.473 2.44196 152.77 2.47779 153.051 2.5725C153.332 2.6672 153.59 2.81874 153.809 3.01756C154.15 3.34173 154.351 3.7862 154.367 4.25577V4.32309C154.351 4.78753 154.15 5.22646 153.809 5.54374C153.592 5.74167 153.336 5.89335 153.058 5.9895C152.78 6.08564 152.485 6.1242 152.192 6.10283H149.364V0.889487H150.39L150.375 2.46725ZM152.177 3.31028H150.375V5.30371H152.177C152.331 5.31578 152.486 5.29428 152.631 5.24069C152.775 5.1871 152.906 5.10271 153.015 4.99342C153.197 4.81215 153.303 4.56791 153.309 4.31139V4.27919C153.296 4.02939 153.191 3.79304 153.015 3.61471C152.906 3.51029 152.776 3.43017 152.634 3.3797C152.491 3.32923 152.34 3.30955 152.189 3.32199L152.177 3.31028Z" fill="#333333" fill-opacity="0.7"/>
<path fill-rule="evenodd" clip-rule="evenodd" d="M48.0093 44.2919V45.0969H46.0957V49.4117H45.1051V45.094H43.1885V44.2919H48.0093ZM52.5685 49.561C51.8234 49.5675 51.1021 49.2996 50.5432 48.8087C50.2617 48.5597 50.0396 48.2513 49.8931 47.9059C49.7467 47.5605 49.6795 47.1869 49.6966 46.8123C49.6785 46.4444 49.7469 46.0773 49.8964 45.7403C50.046 45.4034 50.2725 45.1059 50.5579 44.8715C51.1068 44.4177 51.7993 44.172 52.5127 44.1778H52.5597C53.2802 44.1782 53.9786 44.4252 54.538 44.8774C54.8265 45.1089 55.0566 45.4045 55.2097 45.7405C55.3629 46.0765 55.4349 46.4436 55.4199 46.8123C55.4336 47.1832 55.3652 47.5525 55.2193 47.894C55.0735 48.2355 54.854 48.5408 54.5762 48.7882C54.0281 49.2829 53.3111 49.5509 52.5715 49.5376L52.5685 49.561ZM52.5685 48.7326C52.7998 48.7352 53.0291 48.6911 53.2428 48.6031C53.4565 48.5151 53.6501 48.3849 53.812 48.2203C53.9866 48.0468 54.1232 47.8391 54.2132 47.6104C54.3033 47.3816 54.3448 47.1368 54.3352 46.8914C54.3536 46.3949 54.1752 45.9112 53.8384 45.5448C53.6775 45.3707 53.4807 45.2333 53.2615 45.1419C53.0424 45.0504 52.806 45.0071 52.5685 45.015C52.3327 45.0099 52.0985 45.0545 51.8812 45.1458C51.6639 45.2371 51.4684 45.3731 51.3075 45.5448C50.9774 45.9143 50.8045 46.3972 50.8254 46.8914C50.8154 47.1364 50.8561 47.3808 50.9451 47.6095C51.0341 47.8381 51.1695 48.0461 51.3427 48.2203C51.5032 48.3851 51.6957 48.5155 51.9085 48.6036C52.1212 48.6917 52.3499 48.7356 52.5803 48.7326H52.5685ZM60.4759 49.4176H57.5363V44.2919H60.0438C60.4839 44.2577 60.922 44.379 61.2813 44.6344C61.4023 44.7225 61.5017 44.8367 61.572 44.9685C61.6423 45.1004 61.6816 45.2464 61.687 45.3955C61.6885 45.4228 61.6885 45.4502 61.687 45.4775C61.6842 45.5018 61.6842 45.5263 61.687 45.5507C61.6604 45.6745 61.6094 45.7919 61.537 45.8961C61.4573 46.0103 61.3578 46.1094 61.2431 46.1888C61.4176 46.2137 61.5854 46.2728 61.7368 46.3627C61.8882 46.4527 62.0201 46.5717 62.125 46.7128C62.3263 46.9757 62.4431 47.293 62.4601 47.6232V47.7666C62.4382 48.1893 62.2577 48.5883 61.9545 48.8848C61.7593 49.0683 61.5276 49.2089 61.2744 49.2976C61.0213 49.3864 60.7522 49.4212 60.4847 49.4L60.4759 49.4176ZM58.5358 46.6425V48.595H60.3318C60.4747 48.6041 60.6178 48.5826 60.7516 48.5321C60.8854 48.4816 61.0069 48.4033 61.1079 48.3023C61.2735 48.1294 61.3671 47.9002 61.3695 47.6612V47.5734C61.338 47.3239 61.2168 47.0941 61.0285 46.9265C60.7731 46.7151 60.4455 46.6103 60.1143 46.6337L58.5358 46.6425ZM60.179 45.8258C60.3277 45.8368 60.4757 45.7976 60.5993 45.7146C60.6395 45.6873 60.6729 45.6512 60.6968 45.6091C60.7208 45.567 60.7347 45.5199 60.7375 45.4716V45.4336C60.741 45.4211 60.741 45.408 60.7375 45.3955C60.7028 45.3083 60.641 45.2344 60.5611 45.1847C60.4395 45.1105 60.2978 45.0757 60.1555 45.0852H58.5475V45.8258H60.179ZM65.0322 44.4236C65.1472 44.3791 65.2651 44.342 65.3849 44.3124C65.5084 44.2831 65.6289 44.2568 65.7494 44.2363C65.9169 44.207 66.0845 44.1836 66.2521 44.169C66.4196 44.1543 66.5813 44.1485 66.743 44.1485C66.9851 44.1474 67.227 44.166 67.4661 44.2041C67.6683 44.2335 67.8659 44.2886 68.054 44.368C68.3439 44.4908 68.5854 44.7046 68.7418 44.9769C68.9048 45.2735 68.9859 45.6078 68.977 45.9458V49.4H68.0422V49.1571C67.8206 49.2703 67.5841 49.3521 67.3397 49.4C67.0267 49.4668 66.7074 49.5002 66.3873 49.4996H66.1844C65.6904 49.4744 65.2097 49.3319 64.7823 49.0839C64.568 48.9539 64.3945 48.7669 64.2813 48.544C64.1681 48.3211 64.1196 48.0711 64.1415 47.8222C64.1214 47.5441 64.1851 47.2662 64.3243 47.0243C64.4636 46.7823 64.6722 46.5873 64.9234 46.464C65.4558 46.1978 66.0444 46.0623 66.6401 46.0688H66.7988C66.8635 46.0688 66.9252 46.0688 66.9869 46.0688C67.1545 46.0834 67.3191 46.1068 67.4867 46.1361C67.6542 46.1654 67.81 46.1976 67.954 46.2356C67.9779 45.9353 67.9275 45.6338 67.8071 45.3575C67.7048 45.1943 67.5474 45.0729 67.3632 45.015L67.181 44.9711C67.121 44.9563 67.0601 44.9456 66.9987 44.9389L66.8135 44.9213H66.6313C66.3745 44.9251 66.119 44.9585 65.8699 45.0208C65.5697 45.0986 65.2751 45.1964 64.9881 45.3135L65.0322 44.4236ZM65.2026 47.8222C65.1979 47.9622 65.2373 48.1002 65.3153 48.2168C65.3933 48.3333 65.5061 48.4226 65.6377 48.4721C65.9495 48.6091 66.2875 48.6771 66.6283 48.6711H66.7371C66.7732 48.6752 66.8097 48.6752 66.8458 48.6711C67.0592 48.658 67.2708 48.6246 67.4778 48.5716C67.6495 48.5291 67.8161 48.4683 67.9746 48.3901V47.0904L67.8776 47.0611L67.7483 47.0231C67.5921 46.989 67.4341 46.9636 67.275 46.947C67.08 46.923 66.8836 46.9113 66.6871 46.9118H66.5607C66.2352 46.9234 65.9149 46.9969 65.6171 47.1285C65.4785 47.1861 65.3617 47.2859 65.2835 47.4137C65.2054 47.5415 65.1699 47.6907 65.1821 47.8398L65.2026 47.8222ZM72.09 49.3415V51.9351H71.0993V44.2919H72.09V44.5349C72.3158 44.4252 72.5535 44.3417 72.7984 44.2861C73.0375 44.2313 73.2821 44.2038 73.5274 44.2041C74.2 44.1999 74.8529 44.4298 75.3734 44.854C75.6517 45.0876 75.8709 45.3832 76.0134 45.7168C76.1558 46.0503 76.2175 46.4126 76.1936 46.7743C76.1936 47.672 75.9202 48.3482 75.3734 48.8029C74.7989 49.2693 74.0742 49.5126 73.3334 49.4878C73.1423 49.4878 72.9424 49.4878 72.7455 49.4556C72.5288 49.4318 72.3138 49.3947 72.1017 49.3444L72.09 49.3415ZM72.1017 45.4394V48.3667C72.2526 48.4422 72.4113 48.5011 72.575 48.5423C72.7456 48.5863 72.9197 48.6156 73.0953 48.6302H73.2981C73.7471 48.6162 74.1801 48.4615 74.5357 48.1881C74.7322 48.0266 74.8863 47.8199 74.9846 47.5858C75.0829 47.3517 75.1226 47.0973 75.1001 46.8445C75.1203 46.596 75.0826 46.3462 74.9898 46.1146C74.897 45.883 74.7516 45.676 74.5651 45.5097C74.2218 45.228 73.7899 45.0756 73.3452 45.0794C73.2923 45.0764 73.2393 45.0764 73.1864 45.0794L73.0247 45.094C72.863 45.1181 72.7044 45.1593 72.5515 45.2169C72.3949 45.2758 72.2443 45.3493 72.1017 45.4365V45.4394ZM80.9791 45.8346C81.2623 45.8151 81.5465 45.8521 81.8151 45.9436C82.0837 46.0351 82.3311 46.1792 82.5429 46.3674C82.8737 46.6727 83.0772 47.0906 83.1132 47.5383V47.6261C83.1101 47.8549 83.0614 48.0809 82.9701 48.2909C82.8788 48.5009 82.7466 48.6908 82.5812 48.8497C82.2284 49.2185 81.6944 49.403 80.9791 49.403H78.2218V44.2919H79.2125V45.8375L80.9791 45.8346ZM80.9791 48.6038C81.1285 48.6167 81.2789 48.5972 81.4199 48.5467C81.561 48.4961 81.6894 48.4158 81.7963 48.3111C81.9656 48.1294 82.0609 47.8915 82.0638 47.6437V47.6115C82.0592 47.4769 82.027 47.3446 81.9691 47.2229C81.9113 47.1012 81.829 46.9926 81.7274 46.9037C81.6258 46.8149 81.5069 46.7477 81.3783 46.7063C81.2496 46.6649 81.1137 46.6502 80.9791 46.663H79.2154V48.6155L80.9791 48.6038ZM83.7129 44.2919H84.7035V49.4117H83.7129V44.2919ZM91.6937 45.0969H91.0323V44.2919H94.9537V48.6067C95.0315 48.6015 95.1096 48.6135 95.1823 48.6418C95.2549 48.6702 95.3204 48.7142 95.374 48.7707C95.4769 48.89 95.5305 49.0438 95.5239 49.201C95.5263 49.2449 95.5263 49.2888 95.5239 49.3327C95.515 49.385 95.5032 49.4368 95.4887 49.4878L95.0213 51.01L94.063 50.9222L94.5421 49.4117H90.8383L91.3175 50.9222L90.3474 51.01L89.88 49.4996V49.4439C89.8826 49.439 89.884 49.4334 89.884 49.4278C89.884 49.4222 89.8826 49.4167 89.88 49.4117C89.8829 49.3806 89.8829 49.3492 89.88 49.3181C89.88 49.2829 89.88 49.2566 89.88 49.2332C89.8761 49.1491 89.8898 49.065 89.9201 48.9864C89.9505 48.9078 89.9969 48.8364 90.0564 48.7765C90.1787 48.661 90.3405 48.5961 90.5091 48.595L91.6937 45.0969ZM93.9601 48.6097V45.0969H92.9607C92.8575 45.091 92.7549 45.1165 92.6667 45.1701C92.5961 45.2103 92.5428 45.2749 92.5168 45.3516L91.4115 48.6067L93.9601 48.6097ZM97.9579 49.4615L96.9349 49.4088L98.4723 45.094H97.8697V44.2919H101.779V49.4117H100.786V45.094H99.7216C99.6429 45.0857 99.5637 45.1054 99.4982 45.1496C99.4566 45.1888 99.42 45.2331 99.3894 45.2813L99.3718 45.3048C99.3705 45.3115 99.3705 45.3185 99.3718 45.3253L97.9579 49.4615ZM105.448 46.584C105.147 46.5107 104.874 46.3532 104.66 46.1303C104.496 45.962 104.403 45.7381 104.398 45.5038V45.4365C104.417 45.2795 104.469 45.1283 104.551 44.9926C104.632 44.857 104.742 44.7399 104.872 44.649C105.207 44.3924 105.625 44.2646 106.047 44.289H108.567V49.4088H107.576V46.6513H106.812C106.656 46.6511 106.506 46.7097 106.391 46.8152C106.246 46.9467 106.125 47.1034 106.036 47.2777L104.736 49.4615L103.631 49.3532L105.069 46.9587C105.124 46.8725 105.187 46.7912 105.257 46.7157C105.3 46.669 105.352 46.6312 105.41 46.6045L105.433 46.5898C105.441 46.5869 105.449 46.5869 105.457 46.5898L105.448 46.584ZM106.045 45.0998C105.888 45.0921 105.732 45.1287 105.595 45.2052C105.548 45.2294 105.508 45.263 105.475 45.3039C105.443 45.3447 105.42 45.3919 105.407 45.4423C105.404 45.451 105.404 45.46 105.407 45.4687V45.498C105.409 45.5463 105.424 45.5932 105.449 45.6346C105.474 45.6759 105.509 45.7105 105.551 45.7351C105.67 45.8123 105.811 45.8492 105.953 45.8405H107.597V45.0998H106.045ZM118.726 44.2919V45.9136L120.733 44.2919H122.044L119.987 45.9458C120.278 45.9512 120.556 46.0639 120.769 46.262C120.982 46.4589 121.17 46.6822 121.327 46.9265L121.389 47.0202L121.439 47.1138L122.659 49.3532L121.668 49.4615L120.334 47.2192C120.247 47.0624 120.124 46.9288 119.975 46.8299C119.832 46.7275 119.665 46.6648 119.49 46.6484H118.726V49.4059H117.747V46.6484H117.03C116.848 46.6502 116.671 46.7051 116.521 46.8065C116.36 46.9123 116.225 47.0535 116.127 47.2192L114.793 49.4586L113.723 49.3503L115.022 47.1109L115.072 47.0172C115.092 46.9849 115.113 46.9536 115.136 46.9236C115.291 46.6779 115.476 46.4536 115.689 46.2561C115.904 46.0553 116.188 45.9425 116.483 45.94L114.419 44.2919H115.721L117.738 45.9136V44.2919H118.726ZM128.47 45.4628L125.563 48.3901V49.4176H124.572V44.2919H125.563V47.2192L128.47 44.2919H129.464V49.4117H128.47V45.4628ZM134.749 49.4234H131.81V44.2919H134.317C134.757 44.2577 135.195 44.379 135.554 44.6344C135.675 44.7231 135.773 44.8375 135.843 44.9692C135.913 45.101 135.952 45.2467 135.957 45.3955C135.96 45.4227 135.96 45.4502 135.957 45.4775C135.956 45.5018 135.956 45.5263 135.957 45.5507C135.933 45.6748 135.883 45.7924 135.81 45.8961C135.73 46.0103 135.631 46.1094 135.516 46.1888C135.691 46.2141 135.858 46.2735 136.01 46.3634C136.161 46.4533 136.293 46.572 136.398 46.7128C136.599 46.9757 136.716 47.293 136.733 47.6232V47.7666C136.71 48.1896 136.529 48.5886 136.225 48.8848C136.03 49.0689 135.798 49.2099 135.545 49.2987C135.292 49.3874 135.023 49.422 134.755 49.4L134.749 49.4234ZM132.806 46.6425V48.595H134.62C134.762 48.6044 134.905 48.5831 135.038 48.5326C135.172 48.4821 135.293 48.4035 135.393 48.3023C135.561 48.1305 135.655 47.9009 135.657 47.6612V47.5734C135.626 47.3232 135.504 47.0931 135.313 46.9265C135.059 46.7153 134.733 46.6104 134.402 46.6337L132.806 46.6425ZM134.446 45.8258C134.596 45.8372 134.745 45.798 134.87 45.7146C134.91 45.6873 134.943 45.6512 134.967 45.6091C134.991 45.567 135.005 45.5199 135.008 45.4716V45.4336C135.01 45.421 135.01 45.4081 135.008 45.3955C134.973 45.3083 134.911 45.2344 134.831 45.1847C134.709 45.1114 134.568 45.0767 134.426 45.0852H132.818V45.8258H134.446ZM141.354 49.5435C140.609 49.55 139.888 49.282 139.329 48.7912C139.047 48.5422 138.825 48.2337 138.679 47.8883C138.532 47.5429 138.465 47.1693 138.482 46.7947C138.464 46.4268 138.533 46.0597 138.682 45.7228C138.832 45.3858 139.058 45.0883 139.344 44.854C139.892 44.4002 140.585 44.1544 141.298 44.1602H141.345C142.066 44.1607 142.764 44.4077 143.324 44.8598C143.612 45.0918 143.841 45.3875 143.994 45.7234C144.148 46.0593 144.22 46.4261 144.206 46.7947C144.219 47.1656 144.151 47.5349 144.005 47.8764C143.859 48.2179 143.64 48.5232 143.362 48.7707C142.814 49.2654 142.097 49.5334 141.357 49.52L141.354 49.5435ZM141.354 48.715C141.585 48.7176 141.815 48.6736 142.029 48.5855C142.242 48.4975 142.436 48.3673 142.598 48.2028C142.772 48.0288 142.908 47.821 142.998 47.5924C143.088 47.3638 143.13 47.1192 143.121 46.8738C143.139 46.3774 142.961 45.8937 142.624 45.5272C142.463 45.3532 142.266 45.2157 142.047 45.1243C141.828 45.0329 141.592 44.9896 141.354 44.9974C141.118 44.9923 140.884 45.0369 140.667 45.1282C140.45 45.2195 140.254 45.3555 140.093 45.5272C139.763 45.8968 139.59 46.3796 139.611 46.8738C139.601 47.1188 139.642 47.3633 139.731 47.5919C139.82 47.8206 139.955 48.0285 140.128 48.2028C140.289 48.3675 140.481 48.4979 140.694 48.586C140.907 48.6741 141.136 48.718 141.366 48.715H141.354ZM150.772 44.2802V45.0852H148.812V49.4H147.818V45.094H145.905V44.2919L150.772 44.2802ZM152.915 45.8258V44.2919H153.906V45.8375H156.746V44.2919H157.736V49.4117H156.746V46.6542H153.906V49.4117H152.915V46.6542H152.23V45.8375L152.915 45.8258ZM162.875 45.8258C163.157 45.806 163.441 45.843 163.709 45.9345C163.977 46.026 164.224 46.1702 164.435 46.3586C164.769 46.6618 164.973 47.0809 165.006 47.5295V47.6173C165.003 47.846 164.955 48.0718 164.864 48.2819C164.773 48.4919 164.642 48.6819 164.477 48.8409C164.124 49.2098 163.59 49.3942 162.875 49.3942H160.117V44.2919H161.108V45.8375L162.875 45.8258ZM162.875 48.595C163.023 48.6083 163.174 48.5889 163.314 48.5384C163.455 48.4878 163.583 48.4072 163.689 48.3023C163.86 48.1217 163.957 47.8833 163.959 47.6349V47.6027C163.955 47.4681 163.922 47.3359 163.865 47.2141C163.807 47.0924 163.724 46.9838 163.623 46.8949C163.521 46.8061 163.402 46.7389 163.274 46.6975C163.145 46.6561 163.009 46.6414 162.875 46.6542H161.111V48.6067L162.875 48.595ZM165.588 44.2919H166.578V49.4117H165.588V44.2919ZM172.754 49.4117L171.193 47.2602L169.633 49.4117H168.457L170.588 46.4435L169.05 44.2919H170.226L171.196 45.6385L172.155 44.2919H173.33L171.77 46.4435L173.924 49.4117H172.754Z" fill="#333333" fill-opacity="0.7"/>
<path fill-rule="evenodd" clip-rule="evenodd" d="M212.493 36.9624V23.541H217.047V17.1772H200.738V23.541H205.3V36.9624H212.493Z" fill="#333333" fill-opacity="0.7"/>
<path d="M212.494 23.541H205.301V36.9624H212.494V23.541Z" fill="#333333" fill-opacity="0.7"/>
<path fill-rule="evenodd" clip-rule="evenodd" d="M189.271 31.389V36.9624H196.588V17.1772H189.271V22.7536H188.46V17.1772H181.144V36.9624H188.46V31.389H189.271Z" fill="#333333" fill-opacity="0.7"/>
<path fill-rule="evenodd" clip-rule="evenodd" d="M176.989 27.0682C177.002 25.7039 176.731 24.3518 176.193 23.0972C175.655 21.8426 174.861 20.7128 173.862 19.7792C171.788 17.7243 169.4 16.6978 166.695 16.6997V27.0447H165.881V16.6997C163.128 16.6997 160.713 17.7262 158.638 19.7792C157.658 20.7245 156.882 21.8578 156.355 23.1107C155.828 24.3635 155.561 25.7099 155.572 27.0682C155.555 28.4433 155.826 29.8068 156.37 31.0711C156.913 32.3354 157.715 33.4727 158.726 34.4098C160.749 36.3708 163.466 37.4593 166.29 37.4395C167.694 37.4623 169.089 37.2043 170.392 36.6809C171.694 36.1575 172.878 35.3793 173.874 34.3922C174.868 33.4493 175.659 32.3136 176.197 31.0551C176.735 29.7965 177.009 28.4418 177.001 27.074" fill="#333333" fill-opacity="0.7"/>
<path fill-rule="evenodd" clip-rule="evenodd" d="M147.149 27.0684L151.878 17.1772H142.913V21.9721H142.098V17.1772H136.334V36.9624H142.098V31.389H142.913V36.9624H152.64L147.149 27.0684Z" fill="#333333" fill-opacity="0.7"/>
<path fill-rule="evenodd" clip-rule="evenodd" d="M147.148 27.0684L151.878 17.1772H142.912V36.9624H152.639L147.148 27.0684Z" fill="#333333" fill-opacity="0.7"/>
<path fill-rule="evenodd" clip-rule="evenodd" d="M122.53 27.0679L132.012 22.2584C131.194 20.8083 130.052 19.564 128.676 18.6207C127.3 17.6774 125.725 17.0603 124.073 16.8165C122.42 16.5726 120.733 16.7086 119.142 17.214C117.55 17.7194 116.096 18.5808 114.89 19.7322C113.886 20.6712 113.09 21.8089 112.553 23.0721C112.017 24.3354 111.751 25.6964 111.774 27.0679C111.76 28.439 112.034 29.7979 112.577 31.0579C113.12 32.3179 113.92 33.4514 114.928 34.386C116.149 35.5649 117.63 36.4428 119.253 36.9493C120.876 37.4558 122.595 37.5769 124.274 37.3029C125.952 37.0289 127.542 36.3674 128.918 35.3714C130.293 34.3754 131.416 33.0725 132.195 31.5671L122.53 27.0679Z" fill="#333333" fill-opacity="0.7"/>
<path fill-rule="evenodd" clip-rule="evenodd" d="M132.012 22.2586C131.154 20.6904 129.914 19.3621 128.406 18.3958C126.898 17.4296 125.17 16.8564 123.381 16.729L113.14 21.9249C112.223 23.4835 111.751 25.2617 111.773 27.068C111.753 28.7566 112.172 30.4215 112.99 31.9009L132.012 22.2586Z" fill="#333333" fill-opacity="0.7"/>
<path fill-rule="evenodd" clip-rule="evenodd" d="M90.2686 17.1771H96.8472V23.541L107.635 16.4629V36.9624H101.871V31.3889H101.06V36.9624H90.2686V17.1771Z" fill="#333333" fill-opacity="0.7"/>
<path fill-rule="evenodd" clip-rule="evenodd" d="M71.3377 29.9107H69.0479V36.9624H77.1757V31.3889H77.987V36.9624H86.1148V29.9107H83.8219L77.5901 16.4629L71.3377 29.9107Z" fill="#333333" fill-opacity="0.7"/>
<path fill-rule="evenodd" clip-rule="evenodd" d="M77.9863 31.3889V36.9624H86.1171V29.9106H83.8213L77.9863 17.3203V29.9106V31.3889Z" fill="#333333" fill-opacity="0.7"/>
<path fill-rule="evenodd" clip-rule="evenodd" d="M65.3871 27.0682C65.4003 25.7036 65.1288 24.3512 64.5899 23.0965C64.051 21.8419 63.2565 20.7123 62.2565 19.7792C60.189 17.7243 57.8002 16.6978 55.0899 16.6997V27.0448H54.2757V16.6997C51.5204 16.6997 49.107 17.7262 47.0356 19.7792C46.0534 20.7231 45.274 21.8559 44.745 23.1089C44.2159 24.3619 43.9481 25.7089 43.9579 27.0682C43.9393 28.4426 44.2095 29.8058 44.7511 31.0701C45.2928 32.3345 46.094 33.472 47.1032 34.4098C49.1275 36.3707 51.8456 37.4591 54.6696 37.4396C56.0736 37.4621 57.4679 37.204 58.7701 36.6806C60.0722 36.1572 61.2557 35.3791 62.2506 34.3923C63.2454 33.449 64.0362 32.3134 64.5745 31.0549C65.1128 29.7965 65.3873 28.4419 65.3812 27.074" fill="#333333" fill-opacity="0.7"/>
<path fill-rule="evenodd" clip-rule="evenodd" d="M40.2962 27.0682C40.3099 25.7038 40.0389 24.3515 39.5006 23.0968C38.9622 21.8421 38.1681 20.7124 37.1685 19.7792C35.0952 17.7243 32.7063 16.6978 30.0019 16.6997V27.0448H29.1877V16.6997C26.4343 16.6997 24.021 17.7262 21.9476 19.7792C20.9655 20.7233 20.1861 21.8561 19.6566 23.109C19.1271 24.3619 18.8584 25.7088 18.867 27.0682C18.8497 28.4433 19.1213 29.8068 19.6645 31.0711C20.2077 32.3355 21.0104 33.4727 22.0211 34.4098C24.0454 36.3707 26.7635 37.4591 29.5875 37.4396C30.9915 37.4621 32.3858 37.204 33.6879 36.6806C34.9901 36.1572 36.1736 35.3791 37.1685 34.3923C38.1634 33.4493 38.9541 32.3136 39.492 31.0551C40.0298 29.7966 40.3035 28.4418 40.2962 27.074" fill="#333333" fill-opacity="0.7"/>
<path fill-rule="evenodd" clip-rule="evenodd" d="M38.8409 21.8371C38.3683 21.0858 37.8078 20.3931 37.1713 19.7733C35.096 17.7223 32.7061 16.6958 30.0017 16.6938V27.0447H29.1875V37.4307C29.3198 37.4307 29.4521 37.4307 29.5873 37.4307C30.9921 37.4537 32.3872 37.1956 33.69 36.6717C34.9927 36.1477 36.1765 35.3686 37.1713 34.3805C37.8102 33.7575 38.3709 33.0596 38.8409 32.3021V21.8371Z" fill="#333333" fill-opacity="0.7"/>
<path fill-rule="evenodd" clip-rule="evenodd" d="M101.056 20.7743L107.634 16.4536V36.9624H101.87V31.3859H101.056V20.7743Z" fill="#333333" fill-opacity="0.7"/>
<path fill-rule="evenodd" clip-rule="evenodd" d="M189.266 31.386V36.9624H196.589V17.1743H189.266V22.7536H188.455V31.386H189.266Z" fill="#333333" fill-opacity="0.7"/>
<path fill-rule="evenodd" clip-rule="evenodd" d="M175.535 21.8372C175.063 21.0852 174.501 20.3923 173.863 19.7734C171.789 17.7223 169.4 16.6958 166.696 16.6938V27.0449H165.882V37.4312C166.014 37.4312 166.146 37.4312 166.282 37.4312C167.686 37.4545 169.081 37.1965 170.383 36.6725C171.685 36.1485 172.869 35.3692 173.863 34.3809C174.503 33.7587 175.065 33.0607 175.535 32.3025V21.8372Z" fill="#333333" fill-opacity="0.7"/>
<path fill-rule="evenodd" clip-rule="evenodd" d="M45.4375 21.8372C45.9084 21.0855 46.468 20.3926 47.1042 19.7734C49.1756 17.7223 51.5645 16.6958 54.2708 16.6938V27.0449H55.0851V37.431C54.9528 37.431 54.8205 37.431 54.6853 37.431C53.2815 37.4555 51.8871 37.1989 50.5848 36.6764C49.2826 36.1539 48.0989 35.3762 47.1042 34.3895C46.4635 33.7674 45.9018 33.0694 45.4316 32.3111L45.4375 21.8372Z" fill="#333333" fill-opacity="0.7"/>
<path fill-rule="evenodd" clip-rule="evenodd" d="M6.58234 17.2121H11.8294C12.5053 17.2051 13.1723 17.3654 13.7705 17.6786C14.3688 17.9918 14.8795 18.4481 15.2569 19.0065C15.9847 20.0054 16.3804 21.2061 16.3886 22.4402C16.4239 23.294 16.2578 24.1442 15.9036 24.9225C15.5398 25.6247 15.0285 26.2407 14.4044 26.7286C15.0776 27.0389 15.642 27.642 16.1064 28.5435C16.5697 29.5332 16.8057 30.6131 16.7972 31.705C16.8128 33.0917 16.2978 34.4324 15.3568 35.4548C14.9226 35.9608 14.3809 36.3643 13.7708 36.6361C13.1607 36.908 12.4976 37.0414 11.8294 37.0267H0.0712891V29.9633H8.981V29.17H3.3518V23.5848H8.981V22.7973H6.58234V17.2121Z" fill="#333333" fill-opacity="0.7"/>
<path fill-rule="evenodd" clip-rule="evenodd" d="M16.3916 22.7974C16.387 23.5318 16.2236 24.2567 15.9124 24.9226C15.5461 25.6256 15.0317 26.2417 14.4044 26.7287C15.0776 27.039 15.642 27.642 16.1064 28.5436C16.5697 29.5332 16.8057 30.6132 16.7972 31.705C16.8116 33.0916 16.2968 34.4319 15.3568 35.4549C14.9222 35.9604 14.3804 36.3636 13.7704 36.6354C13.1605 36.9072 12.4975 37.0409 11.8294 37.0268H0.0712891V29.9633H8.98101V29.17H3.35181V23.5848H8.98101V22.7974H16.3916Z" fill="#333333" fill-opacity="0.7"/>
<path fill-rule="evenodd" clip-rule="evenodd" d="M16.3793 29.1699C16.4707 29.4292 16.5453 29.6941 16.6027 29.9629H8.98047V29.1699H16.3793Z" fill="#333333" fill-opacity="0.7"/>
<path fill-rule="evenodd" clip-rule="evenodd" d="M16.6032 29.9634C16.7251 30.5411 16.7901 31.1294 16.7972 31.7197C16.8079 33.1012 16.2933 34.4356 15.3569 35.4549C14.9222 35.9604 14.3804 36.3636 13.7704 36.6354C13.1605 36.9072 12.4975 37.0409 11.8294 37.0268H0.0712891V29.9634H16.6032Z" fill="#333333" fill-opacity="0.7"/>
</svg>
