<svg width="166" height="43" viewBox="0 0 166 43" fill="none" xmlns="http://www.w3.org/2000/svg">
<path d="M164.375 15.0507H146.6C146.296 15.0507 146.087 15.0711 146.093 15.477C146.11 16.9922 146.093 18.5104 146.093 20.0257C146.093 20.341 146.196 20.4666 146.509 20.449C146.821 20.4315 147.082 20.449 147.369 20.449C149.051 20.449 150.734 20.449 152.417 20.449C152.758 20.449 152.922 20.5629 152.893 20.9191C152.893 21.0709 152.893 21.2111 152.893 21.3746C152.893 28.3641 152.893 35.3546 152.893 42.3461C152.893 42.8016 153.002 42.9505 153.466 42.93C154.851 42.9008 156.236 42.93 157.62 42.93C158.274 42.93 158.274 42.93 158.274 42.2556C158.274 35.1726 158.274 28.0906 158.274 21.0096C158.274 20.5746 158.394 20.4257 158.827 20.4432C160.745 20.4666 162.669 20.4432 164.59 20.4432C164.736 20.4432 164.876 20.4695 165.031 20.4841V15.0244C164.822 15.0244 164.615 15.0507 164.406 15.0507" fill="#333333" fill-opacity="0.7"/>
<path d="M47.2715 29.3072C47.4922 21.1323 40.8899 14.8814 33.8777 14.6712C25.6987 14.4259 19.3831 21.5527 19.6181 28.8284C19.3802 36.1274 25.412 42.9739 33.3789 42.9972C41.1021 43.0177 47.0651 36.5741 47.2629 29.3072H47.2715ZM33.4075 37.45C28.6171 37.45 24.9361 33.3216 24.9705 28.7641C25.0106 24.2738 28.8063 20.1455 33.5423 20.2097C37.9515 20.2768 41.9937 24.2971 41.793 28.8809C41.9621 33.2603 38.1722 37.4441 33.4047 37.45" fill="#333333" fill-opacity="0.7"/>
<path d="M107.675 14.6677C99.7915 14.586 93.4702 21.5259 93.7138 28.857C93.4845 36.1181 99.5077 42.985 107.509 42.9996C115.249 42.9996 121.27 36.4363 121.373 29.0497C121.468 21.2397 115.014 14.7436 107.675 14.6677ZM107.486 37.4407C105.251 37.4268 103.112 36.5124 101.537 34.8974C99.9622 33.2825 99.079 31.0982 99.0805 28.822C99.0404 24.209 102.945 20.142 107.629 20.2033C112.119 20.2588 116.127 24.3871 115.892 28.857C116.109 33.2364 112.268 37.4699 107.486 37.4407Z" fill="#333333" fill-opacity="0.7"/>
<path d="M143.143 14.9482H124.466C123.844 14.9482 123.844 14.9482 123.844 15.5643V28.8514C123.844 33.3272 123.844 37.8029 123.844 42.2816C123.844 42.6962 123.95 42.8393 124.371 42.8305C125.742 42.8071 127.112 42.8305 128.482 42.8305C129.216 42.8305 129.216 42.8305 129.216 42.1035V20.9743C129.216 20.3495 129.216 20.3466 129.838 20.3466H137.659C138.416 20.3466 138.416 20.3466 138.416 21.1232C138.416 28.1595 138.416 35.1977 138.416 42.2378C138.416 42.6962 138.53 42.8393 138.989 42.8217C140.374 42.7926 141.759 42.8217 143.146 42.8217C143.791 42.8217 143.791 42.8218 143.791 42.1853V15.6168C143.791 14.9628 143.791 14.9628 143.16 14.9628" fill="#333333" fill-opacity="0.7"/>
<path d="M15.2601 27.3686C15.2059 27.3318 15.1604 27.2833 15.127 27.2265C15.0935 27.1697 15.0728 27.106 15.0665 27.04C15.0602 26.974 15.0684 26.9075 15.0905 26.8451C15.1125 26.7828 15.148 26.7262 15.1942 26.6795C16.4126 24.8665 16.705 22.8432 16.3409 20.7265C15.9774 18.7694 14.8927 17.028 13.3091 15.8593C11.7255 14.6906 9.76287 14.183 7.82356 14.4405C5.73651 14.6799 4.09669 15.7573 2.75215 17.3601C2.09001 18.1744 1.60795 19.1244 1.33881 20.1454C1.2872 20.3235 1.18113 20.5396 1.49075 20.6067L6.51629 21.6958L6.68543 21.3133C6.83745 20.9754 7.06644 20.6794 7.35338 20.4498C7.64032 20.2201 7.97691 20.0636 8.33521 19.993C8.6935 19.9225 9.06315 19.9401 9.41344 20.0443C9.76372 20.1485 10.0845 20.3363 10.3492 20.5921C11.2924 21.5235 11.3211 23.0183 10.4295 24.1833C9.64113 25.2139 8.53453 25.6431 7.34767 25.9642C7.18426 26.008 6.96351 26.0723 6.89471 26.1978C6.54209 26.8401 6.22961 27.5058 5.88845 28.189C6.49335 28.2795 7.03518 28.3379 7.56841 28.4459C9.36591 28.8138 10.8538 29.678 11.8371 31.31C12.7172 32.7698 12.6972 34.5216 11.8113 35.7128C10.0625 38.0485 6.35001 37.52 5.33229 34.9157C5.24055 34.6851 5.13161 34.6238 4.89653 34.6997C4.41204 34.8457 3.91895 34.9566 3.42872 35.0851L0 35.9814C0.0544696 36.1887 0.0860047 36.3318 0.131874 36.4748C1.37321 40.5039 5.44123 43.3213 10.0711 42.7023C12.1113 42.4275 13.9952 41.4424 15.4034 39.9141C17.3443 37.8908 18.0983 35.4471 17.8316 32.6764C17.6404 30.6446 16.7221 28.7554 15.2515 27.3686" fill="#333333" fill-opacity="0.7"/>
<path d="M76.3553 29.3072C76.5761 21.1323 69.9738 14.8814 62.9644 14.6712C54.7854 14.4259 48.4697 21.5527 48.702 28.8284C48.4669 36.1274 54.4987 42.9739 62.4627 42.9972C70.2031 43.0177 76.1518 36.5741 76.3467 29.3072H76.3553ZM62.4971 37.45C57.7066 37.45 54.0228 33.3216 54.0572 28.7641C54.0916 24.2738 57.8844 20.1367 62.6318 20.2097C67.0439 20.2768 71.0861 24.2971 70.8826 28.8809C71.0517 33.2603 67.2646 37.4441 62.4971 37.45Z" fill="#333333" fill-opacity="0.7"/>
<path d="M78.6393 33.3244H91.4511C91.5143 33.3244 91.5748 33.2988 91.6194 33.2534C91.664 33.2079 91.6891 33.1463 91.6891 33.082V28.796C91.6891 28.7318 91.664 28.6701 91.6194 28.6247C91.5748 28.5792 91.5143 28.5537 91.4511 28.5537H78.6393C78.5762 28.5537 78.5157 28.5792 78.4711 28.6247C78.4264 28.6701 78.4014 28.7318 78.4014 28.796V33.082C78.4014 33.1463 78.4264 33.2079 78.4711 33.2534C78.5157 33.2988 78.5762 33.3244 78.6393 33.3244Z" fill="#333333" fill-opacity="0.7"/>
<path d="M46.0783 2.68015C45.7572 2.68015 45.6626 2.77649 45.5938 3.15604L45.009 6.54863C45.009 6.64497 44.9746 6.79679 44.9746 6.84059C44.9746 7.04204 45.0721 7.10335 45.3215 7.10335C45.6426 7.10335 45.7372 7.00701 45.7974 6.63622L46.3879 3.24363C46.4084 3.14172 46.4199 3.03815 46.4223 2.93415C46.4223 2.7327 46.3335 2.67139 46.0841 2.67139" fill="#333333" fill-opacity="0.7"/>
<path d="M89.0148 2.68018C88.6937 2.68018 88.5991 2.77652 88.5303 3.15607L87.934 6.60121C87.9195 6.68318 87.9108 6.76612 87.9082 6.84938C87.9082 7.05083 88.0028 7.11214 88.2551 7.11214C88.5733 7.11214 88.6593 7.02455 88.731 6.64501L89.3273 3.21154C89.3424 3.12376 89.351 3.03495 89.3531 2.94586C89.3531 2.74441 89.2671 2.6831 89.0148 2.6831" fill="#333333" fill-opacity="0.7"/>
<path d="M59.1712 2.75879H58.8329L58.4258 5.11199H58.7698C59.1052 5.11199 59.2285 5.01565 59.2973 4.6361L59.5209 3.36607C59.5431 3.25632 59.5574 3.14508 59.5639 3.03323C59.5639 2.81134 59.4521 2.75879 59.1769 2.75879" fill="#333333" fill-opacity="0.7"/>
<path d="M76.857 3.21175L76.7452 3.81027C76.7231 3.93869 76.7087 4.06837 76.7021 4.19857C76.7021 4.41755 76.814 4.49054 77.0834 4.49054H77.4303L77.7313 2.73877H77.3873C77.049 2.73877 76.9286 2.80884 76.857 3.19715" fill="#333333" fill-opacity="0.7"/>
<path d="M72.8261 2.3623L71.9346 5.47461H72.6169L72.8261 2.3623Z" fill="#333333" fill-opacity="0.7"/>
<path d="M54.5069 2.68018C54.1858 2.68018 54.0912 2.77652 54.0224 3.15607L53.4233 6.60121C53.4087 6.68318 53.4001 6.76612 53.3975 6.84938C53.3975 7.05083 53.4921 7.11214 53.7443 7.11214C54.0654 7.11214 54.1514 7.02455 54.2202 6.64501L54.8165 3.21154C54.8323 3.1238 54.8419 3.03501 54.8452 2.94586C54.8452 2.74441 54.7563 2.6831 54.5069 2.6831" fill="#333333" fill-opacity="0.7"/>
<path d="M6.38392 4.83755C6.18611 5.98496 6.02843 6.37327 5.63281 7.0331H6.6362L7.37871 2.75879H6.74801L6.38392 4.83755Z" fill="#333333" fill-opacity="0.7"/>
<path d="M24.981 2.75879H24.6542L24.2471 5.11199H24.5854C24.9236 5.11199 25.044 5.01565 25.1128 4.6361L25.3393 3.36607C25.36 3.25607 25.3744 3.14494 25.3823 3.03323C25.3823 2.81134 25.2677 2.75879 24.9924 2.75879" fill="#333333" fill-opacity="0.7"/>
<path d="M34.4302 6.56639L34.5506 5.87152C34.5708 5.77547 34.5823 5.67774 34.585 5.57956C34.585 5.36059 34.4732 5.2876 34.2038 5.2876H33.8683L33.5645 7.01601H33.9027C34.241 7.01601 34.3614 6.92842 34.4302 6.54887" fill="#333333" fill-opacity="0.7"/>
<path d="M38.8766 5.30512H38.5412L38.2373 7.03352H38.5756C38.9139 7.03352 39.0429 6.93718 39.1031 6.56639L39.2235 5.87152C39.2427 5.77531 39.2542 5.67767 39.2579 5.57956C39.2579 5.35767 39.1461 5.2876 38.8766 5.2876" fill="#333333" fill-opacity="0.7"/>
<path d="M163.409 5.16187H124.738L125.644 0H1.86917L0 10.3237H165L163.409 5.16187ZM8.14178 9.50917H6.7743L7.00078 8.19534H5.08574L4.8736 9.50917H3.49466L3.91895 7.03334H4.24863C4.67005 6.30927 4.83633 5.91513 5.05134 4.6451L5.57884 1.59411H9.09356L8.15038 7.03334H8.56607L8.14178 9.50917ZM11.754 8.19534L12.614 3.92979L10.7363 8.19534H8.93589L10.0826 1.59411H11.4673L10.5929 5.97352L12.5223 1.59411H14.2768L13.13 8.19534H11.754ZM18.4365 3.81593H17.0605C17.1225 3.52721 17.1656 3.2346 17.1895 2.94005C17.1895 2.74735 17.1035 2.6948 16.8684 2.6948C16.5674 2.6948 16.49 2.79115 16.4298 3.15318L15.822 6.65671C15.8062 6.73257 15.7975 6.80981 15.7962 6.88736C15.7962 7.07129 15.8822 7.11509 16.1087 7.11509C16.3954 7.11509 16.5072 7.0275 16.5674 6.65671L16.7222 5.74871H18.0983L17.9807 6.42314C17.7284 7.91214 17.3672 8.27417 15.9367 8.27417C14.6839 8.27417 14.2166 8.0698 14.2166 7.19975C14.2241 6.93891 14.2529 6.67915 14.3026 6.42314L14.8387 3.36339C15.0996 1.86563 15.5066 1.51236 17.1149 1.51236C18.2416 1.51236 18.6028 1.77804 18.6028 2.53714C18.5843 2.9693 18.5296 3.39907 18.4394 3.82177L18.4365 3.81593ZM20.601 8.20118H19.0873L20.0305 2.75903H19.0099L19.2077 1.59119H22.7654L22.5676 2.75903H21.5442L20.601 8.20118ZM24.2619 6.28008H24.0297L23.7 8.20118H22.1863L23.3331 1.59995H24.8468C26.2572 1.59995 26.908 1.7868 26.908 2.74735C26.9051 2.93045 26.8879 3.11302 26.8564 3.29332L26.6213 4.63342C26.3891 5.97352 25.7613 6.28008 24.2677 6.28008H24.2619ZM29.5283 8.19534L30.3883 3.92979L28.502 8.19534H26.7016L27.8483 1.59411H29.2244L28.35 5.97352L30.2794 1.59411H32.0453L30.8986 8.19534H29.5283ZM36.2366 2.75903H34.3159L34.0722 4.14292H34.3245C35.5859 4.14292 36.1334 4.39693 36.1334 5.27865C36.1303 5.45898 36.1121 5.6387 36.079 5.81586L35.9586 6.49613C35.7005 7.93258 35.0154 8.19534 33.3784 8.19534H31.8504L32.9971 1.59411H36.4373L36.2366 2.75903ZM40.7519 5.81586L40.6315 6.49613C40.3706 7.93258 39.6883 8.19534 38.0513 8.19534H36.5233L37.6701 1.59411H39.1837L38.7422 4.14292H38.9888C40.2502 4.14292 40.7978 4.39693 40.7978 5.27865C40.7947 5.45898 40.7764 5.6387 40.7433 5.81586H40.7519ZM47.9103 3.36631L47.3857 6.42314C47.099 8.00849 46.7264 8.27417 45.1095 8.27417C43.8366 8.27417 43.3894 8.0698 43.3894 7.20559C43.3944 6.91946 43.4232 6.63427 43.4754 6.35307L43.6674 5.30201H43.0597L42.558 8.19242H41.0443L42.191 1.59119H43.7076L43.2661 4.14001H43.8624L44 3.36339C44.2695 1.86563 44.6766 1.51236 46.2935 1.51236C47.5577 1.51236 48.0135 1.74301 48.0135 2.59845C48.0105 2.85529 47.9846 3.11132 47.9361 3.36339L47.9103 3.36631ZM50.1063 8.19242H48.5927L49.5358 2.75611H48.5152L48.7131 1.58827H52.2708L52.073 2.75611H51.0294L50.1063 8.19242ZM55.84 6.42314C55.5533 7.99097 55.1835 8.27417 53.5666 8.27417C52.2937 8.27417 51.8465 8.0698 51.8465 7.20559C51.8391 6.94401 51.8535 6.68225 51.8895 6.42314L52.4256 3.36339C52.6865 1.86563 53.1022 1.51236 54.7191 1.51236C55.9833 1.51236 56.4391 1.74301 56.4391 2.59845C56.4347 2.85521 56.4088 3.11111 56.3617 3.36339L55.84 6.42314ZM58.4803 6.27132H58.2481L57.9184 8.19242H56.4047L57.5515 1.59119H59.0652C60.4756 1.59119 61.1264 1.77804 61.1264 2.73859C61.1235 2.92169 61.1063 3.10426 61.0748 3.28456L60.8397 4.62466C60.6075 5.96476 59.9797 6.27132 58.4861 6.27132H58.4803ZM63.6779 2.69772C63.374 2.69772 63.2966 2.79407 63.2364 3.1561L62.6315 6.65963C62.6157 6.73549 62.607 6.81273 62.6057 6.89028C62.6057 7.07421 62.6917 7.11801 62.9182 7.11801C63.2192 7.11801 63.3138 7.03042 63.374 6.65963L63.5317 5.75163H64.9077L64.7902 6.42314C64.5379 7.91214 64.1738 8.27417 62.7462 8.27417C61.4905 8.27417 61.0261 8.0698 61.0261 7.19975C61.0321 6.93909 61.0589 6.67937 61.1063 6.42314L61.6367 3.36631C61.8947 1.86855 62.3018 1.51528 63.913 1.51528C65.0368 1.51528 65.4008 1.78096 65.4008 2.54006C65.3823 2.97222 65.3276 3.40199 65.2374 3.82469H63.8614C63.9234 3.53597 63.9665 3.24336 63.9904 2.9488C63.9904 2.75611 63.9044 2.70356 63.6693 2.70356L63.6779 2.69772ZM67.9179 8.20118L67.2872 5.1969L66.7683 8.20118H65.2518L66.3985 1.59995H67.9122L67.4191 4.44656L68.8898 1.59995H70.4321L68.6575 4.70349L69.4889 8.20702L67.9179 8.20118ZM73.9927 8.20118H72.4446L72.5478 6.58956H71.5874L71.1373 8.20118H69.6237L71.7337 1.59995H74.1418L73.9927 8.20118ZM78.2929 8.20118H76.7793L77.2207 5.66404H76.9971L75.8504 8.20118H74.3367L75.6784 5.48011C75.4993 5.40459 75.3492 5.27169 75.2509 5.10152C75.1526 4.93135 75.1115 4.7332 75.1337 4.53707C75.1594 4.11858 75.2169 3.70275 75.3057 3.29332C75.558 1.85687 76.2489 1.59995 77.9116 1.59995H79.4253L78.2929 8.20118ZM84.1355 8.20118L83.5048 5.1969L82.9831 8.20118H81.4694L82.6161 1.59995H84.1298L83.6367 4.44656L85.1074 1.59995H86.6469L84.8723 4.70349L85.7037 8.20702L84.1355 8.20118ZM90.3221 6.42314C90.0354 7.99097 89.6656 8.27417 88.0459 8.27417C86.773 8.27417 86.3258 8.0698 86.3258 7.20559C86.3294 6.94285 86.3563 6.68098 86.406 6.42314L86.9421 3.36339C87.2002 1.86563 87.6158 1.51236 89.2356 1.51236C90.497 1.51236 90.9557 1.74301 90.9557 2.59845C90.9513 2.85521 90.9254 3.11111 90.8783 3.36339L90.3221 6.42314ZM95.643 8.19242L96.7008 2.60721L94.7256 8.19242H93.0485V2.61013L92.1884 8.19534H90.8783L92.025 1.59411H94.1952V6.79685L95.987 1.59411H98.1428L96.9961 8.19534L95.643 8.19242ZM100.247 8.19242L101.199 2.75903H100.419L99.4788 8.19534H97.9622L99.1089 1.59411H102.919L101.772 8.19534L100.247 8.19242ZM106.746 8.19242H105.212L105.316 6.5808H104.352L103.902 8.19242H102.389L104.499 1.59119H106.904L106.746 8.19242ZM109.653 8.19242L110.155 5.30201H109.375L108.873 8.19242H107.36L108.506 1.59119H110.023L109.581 4.14001H110.361L110.803 1.59119H112.316L111.17 8.19242H109.653ZM114.94 8.19242L115.8 3.92687L113.922 8.19242H112.121L113.268 1.59119H114.644L113.77 5.9706L115.699 1.59119H117.465L116.318 8.19242H114.94ZM120.96 8.19242H119.446L119.888 5.65528H119.661L118.529 8.19242H117.015L118.357 5.47135C118.177 5.39592 118.027 5.26314 117.928 5.09303C117.829 4.92293 117.788 4.72472 117.809 4.52831C117.835 4.10966 117.894 3.69377 117.984 3.28456C118.234 1.84811 118.927 1.59119 120.59 1.59119H122.104L120.96 8.19242Z" fill="#333333" fill-opacity="0.7"/>
<path d="M105.571 2.3623L104.68 5.47461H105.362L105.571 2.3623Z" fill="#333333" fill-opacity="0.7"/>
<path d="M119.509 3.21175L119.398 3.81027C119.375 3.93869 119.361 4.06837 119.354 4.19857C119.354 4.41755 119.466 4.49054 119.736 4.49054H120.08L120.384 2.73877H120.037C119.701 2.73877 119.578 2.80884 119.509 3.19715" fill="#333333" fill-opacity="0.7"/>
</svg>
