<svg width="198" height="52" viewBox="0 0 198 52" fill="none" xmlns="http://www.w3.org/2000/svg">
<path fill-rule="evenodd" clip-rule="evenodd" d="M47.7476 0.675781H3.70936C2.7775 0.682457 1.88612 1.05594 1.22978 1.71471C0.573437 2.37349 0.205422 3.26406 0.206056 4.19206V48.3846C0.205422 49.3126 0.573437 50.2032 1.22978 50.8619C1.88612 51.5207 2.7775 51.8942 3.70936 51.9009H47.7476C48.6795 51.8942 49.5708 51.5207 50.2272 50.8619C50.8835 50.2032 51.2515 49.3126 51.2509 48.3846V4.19206C51.2515 3.26406 50.8835 2.37349 50.2272 1.71471C49.5708 1.05594 48.6795 0.682457 47.7476 0.675781V0.675781ZM46.6629 46.5207C46.6623 46.7991 46.5515 47.0661 46.3544 47.2636C46.1574 47.4611 45.8901 47.5732 45.6105 47.5756C32.3635 47.5756 19.1188 47.7043 5.85104 47.7043C5.71145 47.704 5.5733 47.6762 5.44457 47.6225C5.31584 47.5687 5.19908 47.4901 5.10102 47.3912C5.00296 47.2922 4.92555 47.1749 4.87326 47.0461C4.82097 46.9172 4.79483 46.7792 4.79635 46.6402V33.391C4.79574 33.1126 4.90588 32.8453 5.10267 32.6476C5.29947 32.4499 5.56689 32.3379 5.84642 32.3361H18.0364V19.6706C18.0365 19.444 18.1096 19.2234 18.2451 19.0414C18.3805 18.8593 18.5711 18.7254 18.7888 18.6594C18.9066 18.6181 19.0309 18.5987 19.1558 18.6019H31.3435V5.92722C31.3428 5.64864 31.4529 5.38112 31.6496 5.18305C31.8464 4.98499 32.1138 4.87247 32.3935 4.87004H45.6059C45.8859 4.87246 46.1535 4.98491 46.3506 5.18291C46.5477 5.38091 46.6583 5.64842 46.6583 5.92722L46.6629 46.5207Z" fill="#333333" fill-opacity="0.7"/>
<path d="M126.286 37.1027H129.609C130.629 37.1027 131.4 36.9326 131.917 36.5879C132.434 36.2432 132.711 35.5767 132.711 34.593C132.711 33.6094 132.446 32.9452 131.917 32.5982C131.389 32.2511 130.618 32.0833 129.609 32.0833H126.286V37.1027ZM122.854 41.7497V30.3689C122.852 30.2559 122.873 30.1437 122.915 30.0387C122.957 29.9338 123.019 29.8382 123.099 29.7575C123.175 29.6746 123.267 29.6087 123.371 29.5643C123.474 29.5199 123.586 29.498 123.699 29.5001H130.648C134.313 29.5001 136.147 31.1978 136.152 34.593C136.157 37.9883 134.322 39.6859 130.648 39.6859H126.286V41.7543C126.287 41.8675 126.266 41.9797 126.222 42.0844C126.179 42.189 126.115 42.2839 126.034 42.3634C125.956 42.4444 125.862 42.5086 125.758 42.5521C125.654 42.5955 125.542 42.6174 125.43 42.6162H123.717C123.604 42.6172 123.491 42.5953 123.387 42.5518C123.282 42.5084 123.187 42.4443 123.108 42.3634C123.026 42.2857 122.961 42.1919 122.917 42.0878C122.873 41.9837 122.852 41.8717 122.854 41.7589V41.7497ZM108.084 31.2353V30.3689C108.08 30.2543 108.1 30.1403 108.142 30.0336C108.184 29.9269 108.247 29.83 108.329 29.7486C108.41 29.6673 108.506 29.6033 108.613 29.5605C108.72 29.5178 108.834 29.4973 108.949 29.5001H120.505C120.619 29.4972 120.732 29.5174 120.838 29.5597C120.944 29.602 121.04 29.6654 121.121 29.746C121.203 29.8275 121.267 29.9248 121.309 30.0319C121.352 30.1391 121.372 30.2537 121.368 30.3689V31.2261C121.372 31.3399 121.352 31.4532 121.309 31.5589C121.267 31.6645 121.203 31.7602 121.121 31.8397C121.04 31.9201 120.944 31.9831 120.838 32.025C120.732 32.0669 120.619 32.0868 120.505 32.0833H116.443V41.7635C116.446 41.8757 116.424 41.9871 116.38 42.0905C116.337 42.1939 116.272 42.2869 116.189 42.3634C116.11 42.4422 116.016 42.5044 115.913 42.5463C115.809 42.5881 115.698 42.6088 115.587 42.607H113.865C113.753 42.6086 113.642 42.5878 113.538 42.546C113.434 42.5042 113.34 42.4421 113.26 42.3634C113.179 42.2864 113.114 42.1933 113.071 42.09C113.028 41.9866 113.006 41.8755 113.009 41.7635V32.0833H108.942C108.828 32.0871 108.714 32.0674 108.608 32.0255C108.501 31.9836 108.405 31.9204 108.324 31.8397C108.242 31.7602 108.178 31.6645 108.135 31.5589C108.093 31.4532 108.073 31.3399 108.077 31.2261L108.084 31.2353ZM93.4545 41.7497V30.3689C93.4526 30.2549 93.4744 30.1418 93.5185 30.0366C93.5626 29.9314 93.628 29.8364 93.7107 29.7575C93.7914 29.6739 93.8887 29.6078 93.9963 29.5635C94.104 29.5192 94.2197 29.4976 94.3361 29.5001H96.0324C96.1453 29.4984 96.2573 29.5205 96.3611 29.5649C96.4649 29.6092 96.5582 29.6749 96.6347 29.7575C96.716 29.8372 96.7803 29.9324 96.8235 30.0375C96.8667 30.1426 96.8881 30.2553 96.8863 30.3689V34.4804H103.154V30.3689C103.153 30.2549 103.175 30.1419 103.219 30.0368C103.263 29.9317 103.328 29.8366 103.411 29.7575C103.489 29.6751 103.583 29.6097 103.688 29.5654C103.793 29.5211 103.906 29.4989 104.02 29.5001H105.714C105.83 29.497 105.946 29.5183 106.053 29.5626C106.16 29.607 106.257 29.6734 106.337 29.7575C106.419 29.8367 106.485 29.9317 106.53 30.0367C106.575 30.1418 106.598 30.2547 106.598 30.3689V41.7497C106.599 41.8628 106.577 41.9749 106.532 42.079C106.488 42.1831 106.422 42.2768 106.339 42.3542C106.259 42.4353 106.163 42.4995 106.057 42.5429C105.951 42.5863 105.838 42.6081 105.723 42.607H104.029C103.802 42.6089 103.583 42.5213 103.42 42.3634C103.336 42.2874 103.271 42.1946 103.226 42.0911C103.182 41.9877 103.161 41.8759 103.164 41.7635V37.0636H96.8863V41.7635C96.8887 41.8755 96.8676 41.9866 96.8243 42.09C96.7809 42.1933 96.7164 42.2864 96.6347 42.3634C96.5558 42.442 96.4618 42.5041 96.3583 42.5459C96.2549 42.5877 96.144 42.6085 96.0324 42.607H94.3361C94.2217 42.6075 94.1084 42.5854 94.0026 42.542C93.8968 42.4986 93.8008 42.4348 93.7199 42.3542C93.635 42.2781 93.5673 42.1848 93.5215 42.0806C93.4758 41.9763 93.4529 41.8635 93.4545 41.7497ZM79.5613 41.729V30.3505C79.5595 30.2375 79.5814 30.1255 79.6255 30.0214C79.6696 29.9173 79.735 29.8236 79.8175 29.746C79.8975 29.6667 79.9925 29.604 80.0972 29.5618C80.2018 29.5196 80.3139 29.4986 80.4268 29.5001H90.9228C91.0365 29.4979 91.1494 29.5197 91.254 29.5641C91.3586 29.6085 91.4526 29.6744 91.5298 29.7575C91.6107 29.8375 91.6746 29.9328 91.7178 30.0378C91.761 30.1428 91.7826 30.2554 91.7813 30.3689V31.2261C91.7832 31.3393 91.7619 31.4517 91.7187 31.5565C91.6754 31.6612 91.6111 31.756 91.5298 31.8351C91.4513 31.9159 91.3568 31.9797 91.2523 32.0224C91.1479 32.0651 91.0357 32.0859 90.9228 32.0833H82.9954V34.7424H89.8266C89.9391 34.741 90.0506 34.7627 90.1543 34.8062C90.2579 34.8497 90.3514 34.9141 90.4289 34.9952C90.5091 35.0759 90.572 35.1718 90.6141 35.2772C90.6561 35.3826 90.6763 35.4954 90.6736 35.6088V36.4707C90.6748 36.5838 90.6532 36.696 90.61 36.8007C90.5667 36.9053 90.5028 37.0002 90.422 37.0797C90.3444 37.1606 90.2508 37.2246 90.1471 37.2677C90.0435 37.3108 89.932 37.3321 89.8197 37.3302H82.9885V40.0284H90.9044C91.015 40.0255 91.1251 40.0459 91.2273 40.0883C91.3295 40.1307 91.4215 40.194 91.4975 40.2743C91.5764 40.3533 91.6385 40.4473 91.6802 40.5508C91.7218 40.6542 91.7421 40.765 91.7398 40.8764V41.7543C91.7419 41.8674 91.7204 41.9798 91.6767 42.0842C91.6331 42.1886 91.5681 42.2829 91.4859 42.3611C91.4064 42.442 91.3112 42.5059 91.206 42.549C91.1009 42.592 90.988 42.6133 90.8744 42.6116H80.4268C80.3119 42.611 80.1983 42.5877 80.0925 42.5432C79.9867 42.4987 79.8909 42.4337 79.8104 42.3521C79.73 42.2705 79.6665 42.1738 79.6238 42.0677C79.581 41.9615 79.5598 41.848 79.5613 41.7336V41.729ZM63.4318 41.7543V30.3551C63.4296 30.2423 63.451 30.1303 63.4947 30.0262C63.5384 29.9221 63.6035 29.8283 63.6857 29.7506C63.7658 29.6715 63.8609 29.609 63.9655 29.5668C64.0701 29.5246 64.1821 29.5035 64.2949 29.5047H66.0097C66.1226 29.503 66.2346 29.5251 66.3384 29.5695C66.4422 29.6138 66.5354 29.6795 66.612 29.7621C66.6929 29.8421 66.7568 29.9374 66.8 30.0424C66.8432 30.1474 66.8648 30.26 66.8636 30.3735V40.0261H72.984V30.3505C72.983 30.2386 73.0045 30.1276 73.0471 30.024C73.0897 29.9204 73.1525 29.8263 73.232 29.7471C73.3115 29.668 73.406 29.6054 73.51 29.563C73.614 29.5206 73.7255 29.4992 73.8379 29.5001H75.5595C75.6728 29.4983 75.7852 29.5202 75.8894 29.5646C75.9936 29.6089 76.0872 29.6747 76.1642 29.7575C76.245 29.8375 76.309 29.9328 76.3522 30.0378C76.3954 30.1428 76.417 30.2554 76.4157 30.3689V40.0215H77.3989C77.5126 40.0198 77.6255 40.0416 77.7303 40.0855C77.8352 40.1294 77.9298 40.1945 78.0081 40.2766C78.09 40.3559 78.1547 40.4511 78.1983 40.5562C78.242 40.6613 78.2636 40.7742 78.262 40.8879V41.7474C78.2641 41.8605 78.2426 41.9729 78.1989 42.0773C78.1552 42.1817 78.0903 42.276 78.0081 42.3542C77.9289 42.4348 77.834 42.4985 77.7293 42.5416C77.6246 42.5847 77.5122 42.6061 77.3989 42.6047H64.2949C64.1815 42.6057 64.069 42.5838 63.9643 42.5404C63.8596 42.4969 63.7648 42.4328 63.6857 42.3519C63.6035 42.2742 63.5384 42.1804 63.4947 42.0763C63.451 41.9722 63.4296 41.8602 63.4318 41.7474V41.7543ZM179.941 7.58646C179.941 7.27849 180.105 7.12681 180.437 7.12681H181.18C181.321 7.12394 181.458 7.16747 181.572 7.25062C181.685 7.33376 181.767 7.45184 181.806 7.58646C181.979 8.01393 182.371 8.22537 182.973 8.22307C183.576 8.22077 183.97 8.00703 184.127 7.58646C184.167 7.4503 184.252 7.33124 184.367 7.24802C184.482 7.1648 184.622 7.12215 184.764 7.12681H185.526C185.858 7.12681 186.027 7.28309 186.027 7.58646C186.044 7.95636 185.978 8.3254 185.833 8.66658C185.689 9.00776 185.469 9.31244 185.191 9.55834C184.554 10.0314 183.78 10.2869 182.985 10.2869C182.19 10.2869 181.416 10.0314 180.779 9.55834C180.501 9.31233 180.282 9.00756 180.138 8.66637C179.994 8.32518 179.928 7.9562 179.946 7.58646H179.941ZM176.265 23.5638V12.1829C176.261 12.0674 176.282 11.9524 176.326 11.8455C176.37 11.7386 176.437 11.6421 176.521 11.5624C176.605 11.4806 176.704 11.4167 176.814 11.3744C176.923 11.3321 177.04 11.3124 177.158 11.3165H178.815C178.93 11.3144 179.045 11.335 179.152 11.3772C179.259 11.4194 179.357 11.4824 179.44 11.5624C179.523 11.6397 179.589 11.7334 179.633 11.8375C179.677 11.9416 179.699 12.0538 179.696 12.1668V21.3138L184.901 12.1829C185.045 11.9401 185.241 11.7316 185.475 11.5716C185.668 11.4187 185.903 11.3295 186.149 11.3165H188.847C188.96 11.3145 189.072 11.3362 189.175 11.3802C189.279 11.4241 189.372 11.4893 189.449 11.5716C189.529 11.6522 189.592 11.7478 189.634 11.8527C189.676 11.9576 189.698 12.0698 189.696 12.1829V23.5638C189.698 23.6779 189.675 23.7911 189.629 23.8957C189.584 24.0003 189.516 24.094 189.431 24.1705C189.348 24.2517 189.25 24.3156 189.142 24.3586C189.034 24.4016 188.919 24.4229 188.803 24.421H187.141C187.026 24.4228 186.911 24.4015 186.804 24.3585C186.697 24.3154 186.6 24.2515 186.518 24.1705C186.435 24.0927 186.37 23.9986 186.325 23.8941C186.281 23.7897 186.258 23.6772 186.26 23.5638V15.0833L181.49 23.5638C181.341 23.8097 181.136 24.0175 180.892 24.1705C180.676 24.3256 180.419 24.4128 180.153 24.421H177.132C177.019 24.4228 176.906 24.4015 176.801 24.3584C176.696 24.3153 176.6 24.2514 176.521 24.1705C176.438 24.0929 176.372 23.9988 176.328 23.8943C176.284 23.7897 176.262 23.6772 176.265 23.5638ZM170.19 23.5822V12.1829C170.189 12.0694 170.21 11.9568 170.253 11.8517C170.297 11.7467 170.361 11.6514 170.442 11.5716C170.519 11.4895 170.612 11.4243 170.716 11.3804C170.82 11.3364 170.931 11.3147 171.044 11.3165H172.757C172.872 11.313 172.986 11.3339 173.092 11.3779C173.199 11.4219 173.294 11.4879 173.373 11.5716C173.453 11.6518 173.517 11.7472 173.559 11.8522C173.602 11.9572 173.624 12.0696 173.622 12.1829V23.5638C173.623 23.6772 173.601 23.7897 173.557 23.8941C173.512 23.9986 173.446 24.0927 173.364 24.1705C173.285 24.251 173.19 24.3146 173.086 24.3577C172.982 24.4007 172.87 24.4223 172.757 24.421H171.044C170.934 24.4244 170.823 24.4058 170.72 24.3663C170.616 24.3269 170.522 24.2674 170.442 24.1912C170.36 24.115 170.295 24.0223 170.252 23.9193C170.208 23.8163 170.187 23.7053 170.19 23.5937V23.5822ZM159.648 21.8493H163.398C164.418 21.8493 164.928 21.2694 164.928 20.1095C164.928 18.9497 164.418 18.369 163.398 18.3675H159.648V21.8493ZM156.216 23.5454V12.1829C156.213 12.0684 156.233 11.9544 156.275 11.8477C156.317 11.7411 156.38 11.644 156.461 11.5624C156.542 11.4812 156.639 11.4175 156.746 11.3752C156.852 11.3328 156.967 11.3129 157.082 11.3165H158.794C158.907 11.3142 159.019 11.3358 159.123 11.3798C159.227 11.4237 159.32 11.4891 159.397 11.5716C159.478 11.6514 159.542 11.7467 159.585 11.8517C159.628 11.9568 159.65 12.0694 159.648 12.1829V15.7728H163.398C164.832 15.7728 166.019 16.1558 166.957 16.9219C167.896 17.688 168.364 18.749 168.363 20.1049C168.363 21.4655 167.901 22.5227 166.948 23.2857C165.995 24.0487 164.825 24.4348 163.398 24.4348H157.038C156.928 24.4364 156.82 24.4141 156.72 24.3697C156.62 24.3252 156.531 24.2596 156.459 24.1774C156.305 24.0087 156.222 23.7872 156.228 23.5592L156.216 23.5454ZM144.264 16.3335H149.136C149.304 16.3414 149.472 16.3161 149.631 16.2589C149.789 16.2017 149.935 16.1138 150.059 16.0003C150.178 15.8761 150.27 15.7286 150.329 15.5673C150.389 15.4059 150.414 15.2341 150.403 15.0626C150.418 14.8927 150.396 14.7215 150.338 14.5609C150.28 14.4004 150.188 14.2543 150.067 14.1329C149.947 14.0115 149.802 13.9177 149.641 13.858C149.481 13.7983 149.309 13.7741 149.138 13.7871H144.264V16.3335ZM144.264 21.9504H149.475C149.675 21.964 149.876 21.9333 150.062 21.8606C150.249 21.7879 150.417 21.6749 150.555 21.5299C150.816 21.2048 150.947 20.7959 150.924 20.3807C150.948 19.9647 150.814 19.555 150.551 19.2316C150.413 19.0869 150.246 18.9739 150.06 18.9009C149.874 18.8278 149.675 18.7963 149.475 18.8087H144.264V21.9504ZM140.83 12.1829C140.829 12.069 140.851 11.9561 140.895 11.851C140.939 11.7459 141.004 11.6508 141.086 11.5716C141.164 11.4895 141.259 11.4244 141.364 11.3805C141.469 11.3366 141.582 11.3148 141.695 11.3165H149.099C149.869 11.3081 150.636 11.4237 151.37 11.6589C152.052 11.8894 152.657 12.3039 153.117 12.8563C153.605 13.4622 153.86 14.2219 153.835 14.9983C153.835 15.9344 153.425 16.7365 152.607 17.4045C153.777 18.0319 154.363 19.0478 154.356 20.4589C154.356 21.7152 153.89 22.6882 152.958 23.3776C151.96 24.0878 150.756 24.4512 149.531 24.4118H141.695C141.582 24.4133 141.47 24.3918 141.365 24.3488C141.26 24.3057 141.165 24.2419 141.086 24.1613C141.004 24.0834 140.938 23.9892 140.894 23.8847C140.85 23.7803 140.828 23.6679 140.83 23.5546V12.1829ZM128.665 14.6053C128.05 15.3361 127.742 16.4247 127.742 17.8711C127.742 19.3174 128.05 20.4068 128.665 21.1392C129.281 21.8654 130.273 22.2293 131.642 22.2308C133.027 22.2308 134.006 21.8654 134.62 21.1392C135.233 20.4129 135.543 19.3189 135.543 17.8711C135.543 16.4232 135.236 15.343 134.62 14.6053C134.003 13.8675 133.016 13.5067 131.642 13.5067C130.269 13.5067 129.284 13.8721 128.665 14.6053ZM126.173 23.0651C124.931 21.9742 124.31 20.2421 124.308 17.8688C124.307 15.4955 124.928 13.7633 126.173 12.6725C127.421 11.5816 129.244 11.0361 131.642 11.0361C134.041 11.0361 135.863 11.5816 137.11 12.6725C138.35 13.7664 138.971 15.4985 138.972 17.8688C138.974 20.239 138.353 21.9711 137.11 23.0651C135.868 24.1575 134.046 24.7037 131.642 24.7037C129.239 24.7037 127.416 24.1575 126.173 23.0651ZM113.521 18.9168H116.845C117.867 18.9168 118.638 18.7467 119.166 18.402C119.695 18.0572 119.958 17.3907 119.958 16.4094C119.958 15.428 119.695 14.7615 119.166 14.4145C118.638 14.0675 117.867 13.8997 116.845 13.8997H113.521V18.9168ZM110.08 23.5638V12.1829C110.078 12.07 110.099 11.9578 110.141 11.8529C110.183 11.748 110.246 11.6524 110.325 11.5716C110.401 11.4893 110.494 11.424 110.597 11.38C110.701 11.3361 110.812 11.3144 110.925 11.3165H117.876C121.541 11.3165 123.375 13.0141 123.378 16.4094C123.381 19.8046 121.547 21.5023 117.876 21.5023H113.521V23.5707C113.523 23.6839 113.502 23.7964 113.459 23.9012C113.416 24.006 113.351 24.1008 113.27 24.1797C113.192 24.2608 113.099 24.3249 112.995 24.3681C112.891 24.4112 112.78 24.4324 112.667 24.4302H110.953C110.839 24.4317 110.727 24.4102 110.622 24.3672C110.517 24.3241 110.423 24.2603 110.343 24.1797C110.261 24.1016 110.196 24.0074 110.152 23.9029C110.109 23.7985 110.087 23.6861 110.089 23.573L110.08 23.5638ZM97.6271 21.847H104.054V13.8997H101.338C100.822 13.8816 100.318 14.0516 99.9188 14.3777C99.5239 14.7255 99.2533 15.1917 99.148 15.7061L97.6271 21.847ZM92.5499 23.573V22.6882C92.5479 22.5762 92.569 22.465 92.6119 22.3614C92.6548 22.2579 92.7185 22.1641 92.7991 22.086C92.876 22.0062 92.9685 21.943 93.0709 21.9003C93.1733 21.8576 93.2835 21.8363 93.3945 21.8378H94.0869L95.7785 14.9247C96.3616 12.5315 98.3356 11.3326 101.7 11.328H106.623C106.735 11.3277 106.846 11.3494 106.95 11.3919C107.053 11.4344 107.147 11.4968 107.227 11.5756C107.306 11.6543 107.369 11.7479 107.412 11.851C107.455 11.954 107.477 12.0645 107.477 12.176V23.5822C107.48 23.6936 107.459 23.8043 107.416 23.9072C107.373 24.0102 107.309 24.103 107.228 24.1797C107.147 24.256 107.052 24.3157 106.949 24.3551C106.845 24.3946 106.734 24.4131 106.623 24.4095H93.3899C93.2771 24.4114 93.1651 24.3903 93.0608 24.3476C92.9564 24.305 92.8619 24.2416 92.783 24.1613C92.7028 24.0815 92.6394 23.9864 92.5966 23.8819C92.5538 23.7773 92.5324 23.6652 92.5337 23.5523L92.5499 23.573ZM82.0146 18.6731H87.7842V13.8997H85.1901C84.6404 13.8882 84.1033 14.0644 83.668 14.3988C83.2327 14.7332 82.9253 15.2059 82.7969 15.7383L82.0146 18.6731ZM77.1842 23.5799L79.4713 14.8765C80.0867 12.5062 82.1015 11.3196 85.5155 11.3165H90.4266C90.5332 11.3133 90.639 11.3347 90.7359 11.379C90.8327 11.4232 90.918 11.4891 90.9851 11.5716C91.1342 11.7333 91.2166 11.945 91.2159 12.1645V23.5822C91.2188 23.694 91.1976 23.8052 91.1538 23.9082C91.11 24.0113 91.0446 24.1038 90.9621 24.1797C90.7973 24.3333 90.5784 24.4159 90.3528 24.4095H88.6404C88.5277 24.415 88.4151 24.3974 88.3095 24.3579C88.204 24.3184 88.1076 24.2577 88.0265 24.1797C87.9459 24.099 87.8829 24.0027 87.8412 23.8968C87.7995 23.7908 87.7801 23.6775 87.7842 23.5638V21.2656H81.3222L80.7106 23.5638C80.6501 23.8112 80.5038 24.0293 80.2975 24.1797C80.1039 24.3288 79.866 24.4096 79.6213 24.4095H77.8235C77.7208 24.4162 77.618 24.3972 77.5245 24.3542C77.431 24.3113 77.3497 24.2458 77.2881 24.1636C77.2032 24.0572 77.1575 23.9249 77.1588 23.789C77.1588 23.7201 77.1727 23.6488 77.1819 23.5592L77.1842 23.5799ZM63.441 23.5454V12.1829C63.44 12.0679 63.4619 11.9538 63.5055 11.8473C63.549 11.7408 63.6134 11.6439 63.6949 11.5624C63.7721 11.4782 63.8663 11.4111 63.9712 11.3656C64.0762 11.32 64.1897 11.297 64.3042 11.2981H66.0189C66.1324 11.2967 66.245 11.3196 66.3489 11.3652C66.4528 11.4108 66.5457 11.478 66.6212 11.5624C66.7023 11.6441 66.7662 11.7411 66.8094 11.8476C66.8526 11.9541 66.8741 12.0681 66.8728 12.1829V16.5496H68.8321C69.3363 16.5584 69.83 16.4053 70.2399 16.1129C70.7206 15.7265 71.1138 15.2432 71.3939 14.6949L72.804 12.1668C73.127 11.5831 73.5632 11.2866 74.1171 11.282H76.2219C76.4527 11.282 76.598 11.3648 76.6419 11.5371C76.6537 11.579 76.6599 11.6223 76.6604 11.6658C76.6491 11.8429 76.5953 12.0148 76.5034 12.1668L74.5187 15.7751C74.2665 16.2544 73.9419 16.6923 73.5563 17.0736C73.1669 17.4317 72.6891 17.6807 72.1716 17.7952C72.6474 17.9256 73.0758 18.1887 73.4063 18.5536C73.826 18.9731 74.2004 19.4353 74.5233 19.9326L76.7988 23.5707C76.8907 23.7074 76.9441 23.8661 76.9534 24.0303C76.954 24.0837 76.9446 24.1367 76.9258 24.1866C76.8658 24.3521 76.7181 24.4325 76.4803 24.4325H74.4033C74.1299 24.4212 73.8649 24.3353 73.6371 24.1843C73.3808 24.0324 73.1629 23.8241 73.0001 23.5753L71.3823 21.015C71.0789 20.4869 70.6889 20.0131 70.2284 19.6131C69.8323 19.2956 69.3358 19.1286 68.8275 19.142H66.8682V23.5822C66.871 23.6938 66.8501 23.8048 66.8067 23.9078C66.7633 24.0108 66.6986 24.1035 66.6166 24.1797C66.5366 24.256 66.4421 24.3156 66.3387 24.355C66.2353 24.3945 66.125 24.413 66.0143 24.4095H64.2949C64.181 24.4108 64.0681 24.3885 63.9633 24.3442C63.8584 24.2999 63.7639 24.2345 63.6857 24.1521C63.6038 24.0713 63.5392 23.9749 63.4956 23.8687C63.452 23.7625 63.4303 23.6487 63.4318 23.5339" fill="#333333" fill-opacity="0.7"/>
<path d="M192.798 4.87925C193.053 4.87925 193.297 4.9799 193.477 5.15913C193.658 5.33836 193.76 5.58154 193.76 5.83531V46.7438C193.76 46.9976 193.658 47.2407 193.477 47.42C193.297 47.5992 193.053 47.6999 192.798 47.6999H60.8377C60.5829 47.6999 60.3384 47.5992 60.158 47.42C59.9776 47.2407 59.8759 46.9976 59.8753 46.7438V5.83531C59.8759 5.58154 59.9776 5.33836 60.158 5.15913C60.3384 4.9799 60.5829 4.87925 60.8377 4.87925H192.798ZM192.798 0.675786H60.8377C59.4634 0.675786 58.1453 1.2193 57.1733 2.18684C56.2013 3.15437 55.6549 4.46671 55.6543 5.83531V46.7438C55.6549 48.1124 56.2013 49.4247 57.1733 50.3923C58.1453 51.3598 59.4634 51.9033 60.8377 51.9033H192.798C193.479 51.9042 194.154 51.7714 194.784 51.5124C195.413 51.2534 195.985 50.8733 196.468 50.3939C196.95 49.9145 197.332 49.3451 197.593 48.7184C197.854 48.0917 197.988 47.4199 197.988 46.7415V5.83301C197.988 5.15496 197.853 4.48367 197.592 3.85749C197.33 3.23131 196.948 2.66251 196.466 2.18358C195.984 1.70466 195.412 1.325 194.782 1.06629C194.153 0.807574 193.479 0.67488 192.798 0.675786Z" fill="#333333" fill-opacity="0.7"/>
</svg>
