<svg width="198" height="52" viewBox="0 0 198 52" fill="none" xmlns="http://www.w3.org/2000/svg">
<path fill-rule="evenodd" clip-rule="evenodd" d="M47.7427 0.675781H3.70448C2.77262 0.682457 1.88124 1.05594 1.2249 1.71471C0.568555 2.37349 0.200539 3.26406 0.201173 4.19206V48.3846C0.200539 49.3126 0.568555 50.2032 1.2249 50.8619C1.88124 51.5207 2.77262 51.8942 3.70448 51.9009H47.7427C48.6746 51.8942 49.566 51.5207 50.2223 50.8619C50.8787 50.2032 51.2467 49.3126 51.246 48.3846V4.19206C51.2467 3.26406 50.8787 2.37349 50.2223 1.71471C49.566 1.05594 48.6746 0.682457 47.7427 0.675781V0.675781ZM46.658 46.5207C46.6574 46.7991 46.5466 47.0661 46.3496 47.2636C46.1525 47.4611 45.8852 47.5732 45.6057 47.5756C32.3587 47.5756 19.1139 47.7043 5.84616 47.7043C5.70657 47.704 5.56842 47.6762 5.43969 47.6225C5.31096 47.5687 5.19419 47.4901 5.09614 47.3912C4.99808 47.2922 4.92067 47.1749 4.86838 47.0461C4.81609 46.9172 4.78995 46.7792 4.79147 46.6402V33.391C4.79085 33.1126 4.901 32.8453 5.09779 32.6476C5.29459 32.4499 5.56201 32.3379 5.84154 32.3361H18.0316V19.6706C18.0316 19.444 18.1047 19.2234 18.2402 19.0414C18.3756 18.8593 18.5662 18.7254 18.7839 18.6594C18.9017 18.6181 19.0261 18.5987 19.1509 18.6019H31.3386V5.92722C31.338 5.64864 31.448 5.38112 31.6448 5.18305C31.8415 4.98499 32.1089 4.87247 32.3887 4.87004H45.6011C45.881 4.87246 46.1487 4.98491 46.3458 5.18291C46.5429 5.38091 46.6534 5.64842 46.6534 5.92722L46.658 46.5207Z" fill="white" fill-opacity="0.7"/>
<path d="M126.281 37.1027H129.604C130.624 37.1027 131.395 36.9326 131.912 36.5879C132.429 36.2432 132.706 35.5767 132.706 34.593C132.706 33.6094 132.441 32.9452 131.912 32.5982C131.384 32.2511 130.613 32.0833 129.604 32.0833H126.281V37.1027ZM122.849 41.7497V30.3689C122.847 30.2559 122.868 30.1437 122.91 30.0387C122.952 29.9338 123.014 29.8382 123.094 29.7575C123.17 29.6746 123.262 29.6087 123.366 29.5643C123.469 29.5199 123.581 29.498 123.694 29.5001H130.643C134.308 29.5001 136.142 31.1978 136.147 34.593C136.152 37.9883 134.317 39.6859 130.643 39.6859H126.281V41.7543C126.282 41.8675 126.261 41.9797 126.218 42.0844C126.174 42.189 126.11 42.2839 126.029 42.3634C125.951 42.4444 125.857 42.5086 125.753 42.5521C125.649 42.5955 125.538 42.6174 125.425 42.6162H123.712C123.599 42.6172 123.486 42.5953 123.382 42.5518C123.277 42.5084 123.182 42.4443 123.103 42.3634C123.021 42.2857 122.956 42.1919 122.912 42.0878C122.868 41.9837 122.847 41.8717 122.849 41.7589V41.7497ZM108.079 31.2353V30.3689C108.075 30.2543 108.095 30.1403 108.137 30.0336C108.179 29.9269 108.243 29.83 108.324 29.7486C108.405 29.6673 108.502 29.6033 108.608 29.5605C108.715 29.5178 108.829 29.4973 108.944 29.5001H120.5C120.614 29.4972 120.727 29.5174 120.833 29.5597C120.939 29.602 121.036 29.6654 121.116 29.746C121.198 29.8275 121.262 29.9248 121.304 30.0319C121.347 30.1391 121.367 30.2537 121.363 30.3689V31.2261C121.367 31.3399 121.347 31.4532 121.305 31.5589C121.262 31.6645 121.198 31.7602 121.116 31.8397C121.035 31.9201 120.939 31.9831 120.833 32.025C120.727 32.0669 120.614 32.0868 120.5 32.0833H116.438V41.7635C116.441 41.8757 116.419 41.9871 116.376 42.0905C116.332 42.1939 116.267 42.2869 116.184 42.3634C116.105 42.4422 116.011 42.5044 115.908 42.5463C115.804 42.5881 115.694 42.6088 115.582 42.607H113.86C113.748 42.6086 113.637 42.5878 113.533 42.546C113.429 42.5042 113.335 42.4421 113.256 42.3634C113.174 42.2864 113.109 42.1933 113.066 42.09C113.023 41.9866 113.002 41.8755 113.004 41.7635V32.0833H108.938C108.823 32.0871 108.709 32.0674 108.603 32.0255C108.497 31.9836 108.4 31.9204 108.319 31.8397C108.237 31.7602 108.173 31.6645 108.131 31.5589C108.088 31.4532 108.068 31.3399 108.072 31.2261L108.079 31.2353ZM93.4496 41.7497V30.3689C93.4477 30.2549 93.4695 30.1418 93.5136 30.0366C93.5577 29.9314 93.6231 29.8364 93.7058 29.7575C93.7865 29.6739 93.8838 29.6078 93.9914 29.5635C94.0991 29.5192 94.2148 29.4976 94.3312 29.5001H96.0275C96.1404 29.4984 96.2524 29.5205 96.3562 29.5649C96.46 29.6092 96.5533 29.6749 96.6298 29.7575C96.7111 29.8372 96.7754 29.9324 96.8186 30.0375C96.8618 30.1426 96.8832 30.2553 96.8814 30.3689V34.4804H103.149V30.3689C103.148 30.2549 103.17 30.1419 103.214 30.0368C103.258 29.9317 103.323 29.8366 103.406 29.7575C103.484 29.6751 103.578 29.6097 103.683 29.5654C103.788 29.5211 103.901 29.4989 104.015 29.5001H105.709C105.825 29.497 105.941 29.5183 106.048 29.5626C106.155 29.607 106.252 29.6734 106.332 29.7575C106.415 29.8367 106.48 29.9317 106.525 30.0367C106.57 30.1418 106.593 30.2547 106.593 30.3689V41.7497C106.594 41.8628 106.572 41.9749 106.527 42.079C106.483 42.1831 106.417 42.2768 106.334 42.3542C106.254 42.4353 106.158 42.4995 106.052 42.5429C105.946 42.5863 105.833 42.6081 105.718 42.607H104.024C103.797 42.6089 103.578 42.5213 103.415 42.3634C103.332 42.2874 103.266 42.1946 103.221 42.0911C103.177 41.9877 103.156 41.8759 103.159 41.7635V37.0636H96.8814V41.7635C96.8838 41.8755 96.8627 41.9866 96.8194 42.09C96.776 42.1933 96.7115 42.2864 96.6298 42.3634C96.5509 42.442 96.4569 42.5041 96.3534 42.5459C96.25 42.5877 96.1391 42.6085 96.0275 42.607H94.3312C94.2168 42.6075 94.1035 42.5854 93.9977 42.542C93.8919 42.4986 93.7959 42.4348 93.715 42.3542C93.6301 42.2781 93.5624 42.1848 93.5166 42.0806C93.4709 41.9763 93.448 41.8635 93.4496 41.7497ZM79.5564 41.729V30.3505C79.5547 30.2375 79.5765 30.1255 79.6206 30.0214C79.6647 29.9173 79.7301 29.8236 79.8126 29.746C79.8926 29.6667 79.9877 29.604 80.0923 29.5618C80.1969 29.5196 80.309 29.4986 80.4219 29.5001H90.9179C91.0316 29.4979 91.1445 29.5197 91.2491 29.5641C91.3537 29.6085 91.4477 29.6744 91.5249 29.7575C91.6058 29.8375 91.6697 29.9328 91.7129 30.0378C91.7561 30.1428 91.7777 30.2554 91.7764 30.3689V31.2261C91.7783 31.3393 91.757 31.4517 91.7138 31.5565C91.6705 31.6612 91.6062 31.756 91.5249 31.8351C91.4464 31.9159 91.3519 31.9797 91.2475 32.0224C91.143 32.0651 91.0308 32.0859 90.9179 32.0833H82.9905V34.7424H89.8217C89.9342 34.741 90.0457 34.7627 90.1494 34.8062C90.253 34.8497 90.3465 34.9141 90.4241 34.9952C90.5042 35.0759 90.5671 35.1718 90.6092 35.2772C90.6512 35.3826 90.6714 35.4954 90.6687 35.6088V36.4707C90.6699 36.5838 90.6483 36.696 90.6051 36.8007C90.5618 36.9053 90.4979 37.0002 90.4171 37.0797C90.3395 37.1606 90.2459 37.2246 90.1422 37.2677C90.0386 37.3108 89.9271 37.3321 89.8148 37.3302H82.9836V40.0284H90.8995C91.0101 40.0255 91.1202 40.0459 91.2224 40.0883C91.3246 40.1307 91.4167 40.194 91.4926 40.2743C91.5715 40.3533 91.6337 40.4473 91.6753 40.5508C91.7169 40.6542 91.7372 40.765 91.7349 40.8764V41.7543C91.737 41.8674 91.7155 41.9798 91.6718 42.0842C91.6282 42.1886 91.5632 42.2829 91.481 42.3611C91.4015 42.442 91.3063 42.5059 91.2011 42.549C91.096 42.592 90.9831 42.6133 90.8695 42.6116H80.4219C80.307 42.611 80.1934 42.5877 80.0876 42.5432C79.9819 42.4987 79.886 42.4337 79.8055 42.3521C79.7251 42.2705 79.6616 42.1738 79.6189 42.0677C79.5761 41.9615 79.5549 41.848 79.5564 41.7336V41.729ZM63.4269 41.7543V30.3551C63.4247 30.2423 63.4461 30.1303 63.4898 30.0262C63.5336 29.9221 63.5986 29.8283 63.6808 29.7506C63.7609 29.6715 63.856 29.609 63.9606 29.5668C64.0652 29.5246 64.1772 29.5035 64.2901 29.5047H66.0048C66.1177 29.503 66.2297 29.5251 66.3335 29.5695C66.4373 29.6138 66.5305 29.6795 66.6071 29.7621C66.688 29.8421 66.7519 29.9374 66.7951 30.0424C66.8383 30.1474 66.86 30.26 66.8587 30.3735V40.0261H72.9791V30.3505C72.9782 30.2386 72.9996 30.1276 73.0422 30.024C73.0848 29.9204 73.1476 29.8263 73.2271 29.7471C73.3066 29.668 73.4011 29.6054 73.5051 29.563C73.6091 29.5206 73.7206 29.4992 73.833 29.5001H75.5546C75.6679 29.4983 75.7803 29.5202 75.8845 29.5646C75.9887 29.6089 76.0823 29.6747 76.1593 29.7575C76.2402 29.8375 76.3041 29.9328 76.3473 30.0378C76.3905 30.1428 76.4121 30.2554 76.4108 30.3689V40.0215H77.394C77.5077 40.0198 77.6206 40.0416 77.7254 40.0855C77.8303 40.1294 77.9249 40.1945 78.0032 40.2766C78.0851 40.3559 78.1498 40.4511 78.1934 40.5562C78.2371 40.6613 78.2588 40.7742 78.2571 40.8879V41.7474C78.2592 41.8605 78.2377 41.9729 78.1941 42.0773C78.1504 42.1817 78.0854 42.276 78.0032 42.3542C77.924 42.4348 77.8291 42.4985 77.7244 42.5416C77.6197 42.5847 77.5073 42.6061 77.394 42.6047H64.2901C64.1766 42.6057 64.0641 42.5838 63.9594 42.5404C63.8547 42.4969 63.7599 42.4328 63.6808 42.3519C63.5986 42.2742 63.5336 42.1804 63.4898 42.0763C63.4461 41.9722 63.4247 41.8602 63.4269 41.7474V41.7543ZM179.936 7.58646C179.936 7.27849 180.1 7.12681 180.432 7.12681H181.175C181.316 7.12394 181.453 7.16747 181.567 7.25062C181.68 7.33376 181.762 7.45184 181.801 7.58646C181.974 8.01393 182.366 8.22537 182.969 8.22307C183.571 8.22077 183.966 8.00703 184.122 7.58646C184.162 7.4503 184.247 7.33124 184.362 7.24802C184.477 7.1648 184.617 7.12215 184.759 7.12681H185.521C185.853 7.12681 186.022 7.28309 186.022 7.58646C186.039 7.95636 185.973 8.3254 185.828 8.66658C185.684 9.00776 185.464 9.31244 185.186 9.55834C184.549 10.0314 183.775 10.2869 182.98 10.2869C182.185 10.2869 181.411 10.0314 180.774 9.55834C180.496 9.31233 180.277 9.00756 180.133 8.66637C179.989 8.32518 179.923 7.9562 179.941 7.58646H179.936ZM176.26 23.5638V12.1829C176.256 12.0674 176.277 11.9524 176.321 11.8455C176.365 11.7386 176.432 11.6421 176.516 11.5624C176.6 11.4806 176.699 11.4167 176.809 11.3744C176.918 11.3321 177.035 11.3124 177.153 11.3165H178.81C178.925 11.3144 179.04 11.335 179.147 11.3772C179.255 11.4194 179.352 11.4824 179.435 11.5624C179.518 11.6397 179.584 11.7334 179.628 11.8375C179.672 11.9416 179.694 12.0538 179.691 12.1668V21.3138L184.896 12.1829C185.04 11.9401 185.237 11.7316 185.47 11.5716C185.663 11.4187 185.898 11.3295 186.144 11.3165H188.842C188.955 11.3145 189.067 11.3362 189.17 11.3802C189.274 11.4241 189.368 11.4893 189.444 11.5716C189.524 11.6522 189.587 11.7478 189.629 11.8527C189.672 11.9576 189.693 12.0698 189.691 12.1829V23.5638C189.693 23.6779 189.67 23.7911 189.624 23.8957C189.579 24.0003 189.511 24.094 189.426 24.1705C189.343 24.2517 189.245 24.3156 189.137 24.3586C189.03 24.4016 188.914 24.4229 188.798 24.421H187.136C187.021 24.4228 186.907 24.4015 186.8 24.3585C186.693 24.3154 186.595 24.2515 186.513 24.1705C186.431 24.0927 186.365 23.9986 186.32 23.8941C186.276 23.7897 186.254 23.6772 186.255 23.5638V15.0833L181.485 23.5638C181.336 23.8097 181.131 24.0175 180.887 24.1705C180.671 24.3256 180.414 24.4128 180.148 24.421H177.127C177.014 24.4228 176.901 24.4015 176.796 24.3584C176.691 24.3153 176.595 24.2514 176.516 24.1705C176.433 24.0929 176.367 23.9988 176.323 23.8943C176.279 23.7897 176.257 23.6772 176.26 23.5638ZM170.185 23.5822V12.1829C170.184 12.0694 170.205 11.9568 170.249 11.8517C170.292 11.7467 170.356 11.6514 170.437 11.5716C170.514 11.4895 170.607 11.4243 170.711 11.3804C170.815 11.3364 170.927 11.3147 171.039 11.3165H172.752C172.867 11.313 172.981 11.3339 173.087 11.3779C173.194 11.4219 173.289 11.4879 173.368 11.5716C173.448 11.6518 173.512 11.7472 173.554 11.8522C173.597 11.9572 173.619 12.0696 173.617 12.1829V23.5638C173.619 23.6772 173.596 23.7897 173.552 23.8941C173.507 23.9986 173.442 24.0927 173.359 24.1705C173.28 24.251 173.185 24.3146 173.081 24.3577C172.977 24.4007 172.865 24.4223 172.752 24.421H171.039C170.929 24.4244 170.818 24.4058 170.715 24.3663C170.612 24.3269 170.517 24.2674 170.437 24.1912C170.355 24.115 170.29 24.0223 170.247 23.9193C170.204 23.8163 170.183 23.7053 170.185 23.5937V23.5822ZM159.643 21.8493H163.393C164.413 21.8493 164.924 21.2694 164.924 20.1095C164.924 18.9497 164.413 18.369 163.393 18.3675H159.643V21.8493ZM156.211 23.5454V12.1829C156.208 12.0684 156.228 11.9544 156.27 11.8477C156.312 11.7411 156.375 11.644 156.456 11.5624C156.537 11.4812 156.634 11.4175 156.741 11.3752C156.848 11.3328 156.962 11.3129 157.077 11.3165H158.789C158.902 11.3142 159.014 11.3358 159.118 11.3798C159.222 11.4237 159.315 11.4891 159.392 11.5716C159.473 11.6514 159.537 11.7467 159.58 11.8517C159.623 11.9568 159.645 12.0694 159.643 12.1829V15.7728H163.393C164.827 15.7728 166.014 16.1558 166.952 16.9219C167.891 17.688 168.359 18.749 168.358 20.1049C168.358 21.4655 167.896 22.5227 166.943 23.2857C165.99 24.0487 164.82 24.4348 163.393 24.4348H157.033C156.923 24.4364 156.815 24.4141 156.715 24.3697C156.615 24.3252 156.526 24.2596 156.454 24.1774C156.3 24.0087 156.217 23.7872 156.223 23.5592L156.211 23.5454ZM144.259 16.3335H149.131C149.299 16.3414 149.468 16.3161 149.626 16.2589C149.784 16.2017 149.93 16.1138 150.054 16.0003C150.173 15.8761 150.265 15.7286 150.324 15.5673C150.384 15.4059 150.409 15.2341 150.398 15.0626C150.413 14.8927 150.391 14.7215 150.333 14.5609C150.275 14.4004 150.183 14.2543 150.062 14.1329C149.942 14.0115 149.797 13.9177 149.636 13.858C149.476 13.7983 149.304 13.7741 149.133 13.7871H144.259V16.3335ZM144.259 21.9504H149.47C149.67 21.964 149.871 21.9333 150.058 21.8606C150.244 21.7879 150.413 21.6749 150.55 21.5299C150.811 21.2048 150.942 20.7959 150.92 20.3807C150.943 19.9647 150.809 19.555 150.546 19.2316C150.409 19.0869 150.241 18.9739 150.055 18.9009C149.869 18.8278 149.67 18.7963 149.47 18.8087H144.259V21.9504ZM140.825 12.1829C140.824 12.069 140.846 11.9561 140.89 11.851C140.934 11.7459 140.999 11.6508 141.081 11.5716C141.16 11.4895 141.254 11.4244 141.359 11.3805C141.464 11.3366 141.577 11.3148 141.69 11.3165H149.094C149.865 11.3081 150.631 11.4237 151.365 11.6589C152.047 11.8894 152.652 12.3039 153.112 12.8563C153.6 13.4622 153.855 14.2219 153.83 14.9983C153.83 15.9344 153.42 16.7365 152.602 17.4045C153.772 18.0319 154.358 19.0478 154.351 20.4589C154.351 21.7152 153.885 22.6882 152.953 23.3776C151.955 24.0878 150.751 24.4512 149.526 24.4118H141.69C141.577 24.4133 141.465 24.3918 141.36 24.3488C141.255 24.3057 141.16 24.2419 141.081 24.1613C140.999 24.0834 140.933 23.9892 140.889 23.8847C140.845 23.7803 140.823 23.6679 140.825 23.5546V12.1829ZM128.66 14.6053C128.045 15.3361 127.737 16.4247 127.737 17.8711C127.737 19.3174 128.045 20.4068 128.66 21.1392C129.276 21.8654 130.268 22.2293 131.637 22.2308C133.022 22.2308 134.001 21.8654 134.615 21.1392C135.228 20.4129 135.538 19.3189 135.538 17.8711C135.538 16.4232 135.231 15.343 134.615 14.6053C133.998 13.8675 133.011 13.5067 131.637 13.5067C130.264 13.5067 129.279 13.8721 128.66 14.6053ZM126.168 23.0651C124.926 21.9742 124.305 20.2421 124.303 17.8688C124.302 15.4955 124.923 13.7633 126.168 12.6725C127.416 11.5816 129.239 11.0361 131.637 11.0361C134.036 11.0361 135.859 11.5816 137.105 12.6725C138.345 13.7664 138.966 15.4985 138.967 17.8688C138.969 20.239 138.348 21.9711 137.105 23.0651C135.863 24.1575 134.041 24.7037 131.637 24.7037C129.234 24.7037 127.411 24.1575 126.168 23.0651ZM113.516 18.9168H116.84C117.862 18.9168 118.633 18.7467 119.161 18.402C119.69 18.0572 119.953 17.3907 119.953 16.4094C119.953 15.428 119.69 14.7615 119.161 14.4145C118.633 14.0675 117.862 13.8997 116.84 13.8997H113.516V18.9168ZM110.075 23.5638V12.1829C110.074 12.07 110.094 11.9578 110.136 11.8529C110.178 11.748 110.241 11.6524 110.32 11.5716C110.396 11.4893 110.489 11.424 110.593 11.38C110.696 11.3361 110.808 11.3144 110.92 11.3165H117.871C121.536 11.3165 123.37 13.0141 123.373 16.4094C123.376 19.8046 121.542 21.5023 117.871 21.5023H113.516V23.5707C113.518 23.6839 113.497 23.7964 113.454 23.9012C113.411 24.006 113.346 24.1008 113.265 24.1797C113.187 24.2608 113.094 24.3249 112.99 24.3681C112.886 24.4112 112.775 24.4324 112.662 24.4302H110.948C110.834 24.4317 110.722 24.4102 110.617 24.3672C110.513 24.3241 110.418 24.2603 110.338 24.1797C110.256 24.1016 110.191 24.0074 110.147 23.9029C110.104 23.7985 110.082 23.6861 110.085 23.573L110.075 23.5638ZM97.6222 21.847H104.05V13.8997H101.333C100.817 13.8816 100.313 14.0516 99.9139 14.3777C99.519 14.7255 99.2484 15.1917 99.1431 15.7061L97.6222 21.847ZM92.545 23.573V22.6882C92.543 22.5762 92.5641 22.465 92.607 22.3614C92.6499 22.2579 92.7136 22.1641 92.7942 22.086C92.8711 22.0062 92.9636 21.943 93.066 21.9003C93.1684 21.8576 93.2786 21.8363 93.3896 21.8378H94.082L95.7736 14.9247C96.3567 12.5315 98.3307 11.3326 101.696 11.328H106.618C106.73 11.3277 106.841 11.3494 106.945 11.3919C107.048 11.4344 107.143 11.4968 107.222 11.5756C107.301 11.6543 107.364 11.7479 107.407 11.851C107.45 11.954 107.472 12.0645 107.472 12.176V23.5822C107.475 23.6936 107.454 23.8043 107.411 23.9072C107.368 24.0102 107.304 24.103 107.223 24.1797C107.142 24.256 107.048 24.3157 106.944 24.3551C106.84 24.3946 106.729 24.4131 106.618 24.4095H93.385C93.2722 24.4114 93.1602 24.3903 93.0559 24.3476C92.9515 24.305 92.857 24.2416 92.7781 24.1613C92.6979 24.0815 92.6345 23.9864 92.5917 23.8819C92.5489 23.7773 92.5275 23.6652 92.5288 23.5523L92.545 23.573ZM82.0097 18.6731H87.7793V13.8997H85.1852C84.6355 13.8882 84.0984 14.0644 83.6631 14.3988C83.2278 14.7332 82.9204 15.2059 82.792 15.7383L82.0097 18.6731ZM77.1793 23.5799L79.4664 14.8765C80.0818 12.5062 82.0966 11.3196 85.5107 11.3165H90.4217C90.5283 11.3133 90.6341 11.3347 90.731 11.379C90.8278 11.4232 90.9131 11.4891 90.9802 11.5716C91.1293 11.7333 91.2117 11.945 91.211 12.1645V23.5822C91.2139 23.694 91.1927 23.8052 91.1489 23.9082C91.1051 24.0113 91.0397 24.1038 90.9572 24.1797C90.7924 24.3333 90.5735 24.4159 90.3479 24.4095H88.6355C88.5228 24.415 88.4102 24.3974 88.3047 24.3579C88.1991 24.3184 88.1027 24.2577 88.0216 24.1797C87.941 24.099 87.878 24.0027 87.8363 23.8968C87.7946 23.7908 87.7752 23.6775 87.7793 23.5638V21.2656H81.3173L80.7057 23.5638C80.6452 23.8112 80.4989 24.0293 80.2926 24.1797C80.099 24.3288 79.8612 24.4096 79.6164 24.4095H77.8186C77.7159 24.4162 77.6131 24.3972 77.5196 24.3542C77.4261 24.3113 77.3448 24.2458 77.2832 24.1636C77.1983 24.0572 77.1526 23.9249 77.154 23.789C77.154 23.7201 77.1678 23.6488 77.177 23.5592L77.1793 23.5799ZM63.4361 23.5454V12.1829C63.4351 12.0679 63.457 11.9538 63.5006 11.8473C63.5442 11.7408 63.6086 11.6439 63.69 11.5624C63.7672 11.4782 63.8614 11.4111 63.9663 11.3656C64.0713 11.32 64.1848 11.297 64.2993 11.2981H66.014C66.1276 11.2967 66.2401 11.3196 66.344 11.3652C66.4479 11.4108 66.5408 11.478 66.6164 11.5624C66.6974 11.6441 66.7614 11.7411 66.8045 11.8476C66.8477 11.9541 66.8693 12.0681 66.8679 12.1829V16.5496H68.8273C69.3314 16.5584 69.8251 16.4053 70.235 16.1129C70.7157 15.7265 71.1089 15.2432 71.389 14.6949L72.7991 12.1668C73.1222 11.5831 73.5583 11.2866 74.1122 11.282H76.217C76.4478 11.282 76.5932 11.3648 76.637 11.5371C76.6488 11.579 76.655 11.6223 76.6555 11.6658C76.6442 11.8429 76.5904 12.0148 76.4985 12.1668L74.5138 15.7751C74.2616 16.2544 73.9371 16.6923 73.5514 17.0736C73.162 17.4317 72.6842 17.6807 72.1667 17.7952C72.6425 17.9256 73.0709 18.1887 73.4014 18.5536C73.8211 18.9731 74.1955 19.4353 74.5184 19.9326L76.7939 23.5707C76.8858 23.7074 76.9392 23.8661 76.9486 24.0303C76.9491 24.0837 76.9398 24.1367 76.9209 24.1866C76.8609 24.3521 76.7132 24.4325 76.4755 24.4325H74.3984C74.125 24.4212 73.86 24.3353 73.6322 24.1843C73.3759 24.0324 73.1581 23.8241 72.9952 23.5753L71.3774 21.015C71.074 20.4869 70.684 20.0131 70.2235 19.6131C69.8274 19.2956 69.3309 19.1286 68.8226 19.142H66.8633V23.5822C66.8661 23.6938 66.8452 23.8048 66.8018 23.9078C66.7584 24.0108 66.6937 24.1035 66.6117 24.1797C66.5317 24.256 66.4372 24.3156 66.3338 24.355C66.2304 24.3945 66.1201 24.413 66.0094 24.4095H64.2901C64.1762 24.4108 64.0632 24.3885 63.9584 24.3442C63.8535 24.2999 63.759 24.2345 63.6808 24.1521C63.599 24.0713 63.5343 23.9749 63.4907 23.8687C63.4471 23.7625 63.4254 23.6487 63.4269 23.5339" fill="white" fill-opacity="0.7"/>
<path d="M192.793 4.87925C193.048 4.87925 193.292 4.9799 193.473 5.15913C193.653 5.33836 193.755 5.58154 193.755 5.83531V46.7438C193.755 46.9976 193.653 47.2407 193.473 47.42C193.292 47.5992 193.048 47.6999 192.793 47.6999H60.8328C60.578 47.6999 60.3336 47.5992 60.1531 47.42C59.9727 47.2407 59.8711 46.9976 59.8705 46.7438V5.83531C59.8711 5.58154 59.9727 5.33836 60.1531 5.15913C60.3336 4.9799 60.578 4.87925 60.8328 4.87925H192.793ZM192.793 0.675786H60.8328C59.4585 0.675786 58.1404 1.2193 57.1684 2.18684C56.1964 3.15437 55.65 4.46671 55.6494 5.83531V46.7438C55.65 48.1124 56.1964 49.4247 57.1684 50.3923C58.1404 51.3598 59.4585 51.9033 60.8328 51.9033H192.793C193.474 51.9042 194.149 51.7714 194.779 51.5124C195.408 51.2534 195.981 50.8733 196.463 50.3939C196.945 49.9145 197.327 49.3451 197.588 48.7184C197.849 48.0917 197.983 47.4199 197.983 46.7415V5.83301C197.983 5.15496 197.848 4.48367 197.587 3.85749C197.326 3.23131 196.943 2.66251 196.461 2.18358C195.979 1.70466 195.407 1.325 194.778 1.06629C194.148 0.807574 193.474 0.67488 192.793 0.675786Z" fill="white" fill-opacity="0.7"/>
</svg>
