<svg width="150" height="96" viewBox="0 0 150 96" fill="none" xmlns="http://www.w3.org/2000/svg">
<path d="M34.8795 95.7707H34.3805V91.8023H33.659C33.4982 91.9921 33.3525 92.1942 33.2233 92.4067C33.0007 92.7675 32.7266 93.2126 32.4807 93.6483C31.5905 95.2295 31.2625 95.7801 30.9017 95.7801H30.4121C30.0514 95.7801 29.7234 95.2295 28.8309 93.6483C28.5966 93.2126 28.3108 92.7675 28.0883 92.4067C27.9602 92.194 27.8153 91.9919 27.6549 91.8023H26.9404V95.7847H26.4414V91.2939H27.683C28.0438 91.2939 28.3717 91.8445 29.2525 93.4257C29.5079 93.8615 29.782 94.3276 30.0069 94.6673C30.1244 94.8868 30.2701 95.09 30.4403 95.2717H30.8853C31.0569 95.0906 31.2034 94.8873 31.3211 94.6673C31.5553 94.3276 31.82 93.8615 32.0754 93.4257C32.9562 91.8445 33.2842 91.2939 33.6449 91.2939H34.8865L34.8795 95.7707Z" fill="white" fill-opacity="0.7"/>
<path d="M48.8035 94.7751H42.1833L41.6843 95.7707H41.1104L41.3868 95.2717L42.7923 92.4301C43.3429 91.2939 43.9801 91.2939 44.5001 91.2939H46.496C47.0161 91.2939 47.6509 91.2939 48.2038 92.4301L49.6679 95.3584L49.8788 95.7707H49.3072L48.8035 94.7751ZM48.5692 94.2761L47.7634 92.6527C47.3206 91.8023 46.9575 91.8023 46.4913 91.8023H44.4954C44.0269 91.8023 43.6685 91.8023 43.2328 92.662L42.4269 94.2855L48.5692 94.2761Z" fill="white" fill-opacity="0.7"/>
<path d="M56.3701 95.7707H55.8711V91.2939H61.0904C62.8193 91.2939 63.7118 91.3572 63.9883 91.6336C64.3162 91.9311 64.3162 92.2919 64.3162 92.7909C64.3162 93.2899 64.3162 93.6389 63.9883 93.9458C63.7118 94.2222 62.8169 94.2761 61.0904 94.2761H56.3701V95.7707ZM56.3701 93.7771H61.0904C61.559 93.7771 62.1634 93.7771 62.6834 93.756C63.0096 93.7497 63.3337 93.7033 63.6486 93.6178C63.8172 93.4468 63.8172 93.2899 63.8172 92.7909C63.8172 92.2919 63.8172 92.1537 63.6486 91.9827C63.6275 91.9616 63.4565 91.8773 62.6834 91.8234C62.1634 91.7929 61.559 91.7929 61.0904 91.7929H56.3701V93.7771Z" fill="white" fill-opacity="0.7"/>
<path d="M78.9953 95.7707H78.3581L78.3043 95.6536C78.2738 95.6536 77.5616 94.6884 77.0837 94.1894C76.6504 93.7771 75.1534 93.7771 74.2726 93.7771H71.0468V95.7707H70.5479V91.2939H71.0468V93.2875H74.2726C75.1534 93.2875 76.6504 93.2875 77.0837 92.8752C77.5523 92.3762 78.2738 91.4111 78.3043 91.4111L78.3581 91.2939H78.9953L78.6861 91.6875C78.3058 92.2267 77.8836 92.7351 77.4234 93.2079C77.2626 93.352 77.0758 93.4641 76.8729 93.5382C77.076 93.6106 77.2631 93.722 77.4234 93.8661C77.8842 94.3376 78.3065 94.8452 78.6861 95.3842L78.9953 95.7707Z" fill="white" fill-opacity="0.7"/>
<path d="M93.6717 91.7929H85.7255V93.2899H92.6737V93.7771H85.7255V95.2717H93.6717V95.7707H85.2266V93.7771V93.2899V91.2939H93.6717V91.7929Z" fill="white" fill-opacity="0.7"/>
<path d="M108.263 91.7929H104.283V95.7707H103.796V91.7929H99.8184V91.2939H103.796H104.283H108.263V91.7929Z" fill="white" fill-opacity="0.7"/>
<path d="M56.7853 17.0728C56.6373 17.1751 56.4993 17.2912 56.373 17.4195C56.4993 17.2912 56.6373 17.1751 56.7853 17.0728Z" fill="#929292"/>
<path d="M65.3829 14.9927C65.329 14.9692 65.2751 14.9482 65.2236 14.9224C64.8955 14.773 64.5554 14.6515 64.2069 14.5593H64.1108L64.153 14.5359C63.9468 14.482 63.7383 14.4351 63.5275 14.4L63.0168 14.3672C62.9621 14.3801 62.9052 14.3801 62.8505 14.3672L62.3023 14.4094L61.7471 14.5335L61.2364 14.7303L60.7679 15.0255L60.625 15.1801H60.6391C60.6987 15.1474 60.7615 15.1207 60.8265 15.1004C61.2399 15.0018 61.6641 14.9554 62.0891 14.9622C62.5924 14.9594 63.0937 15.0256 63.579 15.159C63.9786 15.2641 64.3651 15.4134 64.7316 15.6041L64.8604 15.6744C65.1398 15.4879 65.4301 15.3181 65.7296 15.166L65.3758 14.981" fill="white" fill-opacity="0.7"/>
<path d="M52.461 26.809C52.2602 26.4028 52.0895 25.9823 51.9503 25.551C51.6963 24.8129 51.5573 24.0402 51.538 23.2599C51.5166 22.4638 51.6627 21.6721 51.9667 20.9361C52.2735 20.2023 52.741 19.5466 53.3348 19.0175C53.4191 18.9402 53.5433 18.9074 53.5878 18.7832H53.4917C53.384 18.8277 53.2739 18.8675 53.1661 18.9167C52.771 19.1012 52.4117 19.3542 52.1049 19.664L51.7254 20.1325C51.7145 20.1733 51.6896 20.209 51.6551 20.2333L51.4209 20.6409L51.2241 21.0719C51.0313 21.5402 50.8899 22.0279 50.8024 22.5267C50.7837 22.6743 50.7626 22.8219 50.7439 22.9671C50.7514 23.0378 50.7459 23.1093 50.7275 23.1779C50.7157 23.5856 50.7275 23.9955 50.7415 24.4008C50.7673 24.5952 50.7907 24.7873 50.8165 24.9794C50.8914 25.3472 50.9687 25.715 51.0742 26.0758C51.1327 26.2515 51.1913 26.4248 51.2522 26.6005L51.4607 27.1065L51.7067 27.5961L52.7491 27.3806C52.6414 27.1979 52.5687 26.9941 52.4727 26.8067" fill="white" fill-opacity="0.7"/>
<path d="M55.9015 18.1084C55.8532 18.1323 55.8076 18.1613 55.7656 18.1951C55.8076 18.1613 55.8532 18.1323 55.9015 18.1084Z" fill="white" fill-opacity="0.7"/>
<path d="M64.5508 22.2266C64.5063 22.1118 64.4642 21.9924 64.415 21.887C64.3658 21.7815 64.3166 21.6714 64.2627 21.5684C64.3166 21.6714 64.3681 21.7792 64.415 21.887C64.4618 21.9947 64.5063 22.1212 64.5508 22.2266Z" fill="white" fill-opacity="0.7"/>
<path d="M71.5292 15.6674C71.4707 15.5924 71.4074 15.5174 71.3418 15.4448L70.9014 15.0091C71.1429 14.8383 71.4113 14.7092 71.6956 14.6272C71.9969 14.5163 72.3123 14.4485 72.6326 14.4258C73.08 14.3508 73.5392 14.3719 73.989 14.3368C73.6762 14.1916 73.3556 14.0641 73.0285 13.9549C72.4287 13.792 71.8012 13.7577 71.1872 13.8542C70.8483 13.8925 70.5125 13.9543 70.1822 14.0392C70.0628 14.0697 70.0604 14.0228 70.0721 13.9198C70.1289 13.3817 70.3786 12.8825 70.7749 12.5142C70.8147 12.4767 70.8546 12.4416 70.8967 12.3994C70.5681 12.4496 70.2508 12.5575 69.9597 12.718C69.9409 12.7649 69.9222 12.8117 69.9058 12.8586C69.7984 13.1614 69.7276 13.476 69.695 13.7956C69.6906 13.8463 69.6787 13.896 69.6598 13.9432C69.6598 13.9994 69.6598 14.0064 69.6598 14.0674C69.6542 14.3873 69.6824 14.7069 69.7442 15.0208C69.7614 15.0718 69.7679 15.1259 69.763 15.1796C69.7582 15.2332 69.7422 15.2853 69.7161 15.3324C69.6887 15.3691 69.6534 15.3994 69.6129 15.4208C69.5724 15.4423 69.5276 15.4545 69.4818 15.4565C69.4561 15.4588 69.4302 15.4588 69.4045 15.4565C69.3149 15.4531 69.2276 15.4278 69.15 15.3829C69.0724 15.3379 69.007 15.2748 68.9594 15.1988C68.826 15.0017 68.7321 14.7805 68.683 14.5476C68.6642 14.4843 68.6478 14.4234 68.6267 14.3602C68.5011 13.941 68.4326 13.5069 68.4229 13.0694V12.9898C68.4229 12.9523 68.4229 12.9148 68.4229 12.8773C68.0859 12.5624 67.6377 12.3939 67.1767 12.4088C67.2516 12.5165 67.3242 12.6173 67.3922 12.7204C67.5967 13.0102 67.7249 13.347 67.7647 13.6996C67.7647 13.798 67.7647 13.8284 67.6545 13.8144C66.4342 13.6506 65.1945 13.9084 64.1406 14.5452L64.1945 14.5593C64.3843 14.5429 64.5764 14.5265 64.7661 14.5148C65.4759 14.4511 66.1909 14.4803 66.8932 14.6015C66.933 14.6015 66.9705 14.6226 67.0103 14.6319C67.0592 14.6363 67.1078 14.6441 67.1556 14.6554C67.2042 14.6666 67.252 14.6815 67.2985 14.6999C67.3618 14.7058 67.4228 14.7267 67.4765 14.7608C67.077 14.98 66.7393 15.2967 66.495 15.6814C66.4762 15.7119 66.4551 15.7376 66.4364 15.7681C66.306 16.034 66.2084 16.3149 66.1459 16.6044C66.1098 16.7587 66.084 16.9152 66.0686 17.0729C66.1436 16.9605 66.2209 16.8527 66.3029 16.7473C66.4524 16.5288 66.6387 16.3378 66.8534 16.1827C66.9005 16.1447 66.9498 16.1095 67.001 16.0773C67.2351 15.9292 67.4991 15.8348 67.774 15.8009C67.8326 15.8009 67.8513 15.8009 67.8349 15.8782C67.7951 16.0469 67.7647 16.2179 67.7295 16.3889C67.716 16.5227 67.7105 16.6573 67.7131 16.7918C67.7295 17.7078 68.1231 18.4972 68.6502 19.2422C68.6314 18.9236 68.6033 18.6073 68.5986 18.2887C68.5986 18.181 68.5986 18.0732 68.5986 17.9655C68.6077 17.4619 68.6995 16.9633 68.8704 16.4896C68.8914 16.4287 68.9219 16.3725 68.9477 16.3139C69.0492 16.0507 69.1872 15.8031 69.3576 15.5783C69.3881 15.5315 69.4185 15.5409 69.4584 15.5783C69.6947 15.7184 69.921 15.875 70.1354 16.0469C70.7235 16.4932 71.2546 17.0101 71.7166 17.586C72.1213 18.0801 72.4892 18.6031 72.8177 19.1508C72.8411 19.1907 72.8669 19.2281 72.902 19.2797C72.7947 18.2611 72.4908 17.273 72.0071 16.3701C71.8695 16.124 71.7129 15.889 71.5386 15.6674" fill="white" fill-opacity="0.7"/>
<path d="M70.2267 11.2375C69.9375 11.0841 69.6169 10.9991 69.2897 10.9892C69.2286 10.9779 69.1655 10.9866 69.1098 11.014C69.0541 11.0415 69.0087 11.0862 68.9805 11.1415C68.7086 11.7204 68.5625 12.3503 68.5518 12.9898C68.5518 13.0132 68.5518 13.0367 68.5518 13.0601C68.5608 13.4857 68.6278 13.9082 68.7509 14.3157C68.8072 14.5989 68.9126 14.8701 69.0624 15.1169C69.1038 15.1847 69.1638 15.239 69.2352 15.2735C69.3067 15.308 69.3866 15.3211 69.4654 15.3113C69.6481 15.2832 69.6364 15.1591 69.6083 15.0373C69.544 14.7141 69.5142 14.3851 69.5193 14.0557C69.5236 14.0082 69.5236 13.9603 69.5193 13.9128C69.5403 13.8677 69.5538 13.8194 69.5591 13.7699C69.5911 13.4367 69.6634 13.1087 69.7746 12.793C69.9304 12.3638 70.1298 11.9517 70.3696 11.5632C70.454 11.4226 70.4212 11.3289 70.2314 11.2375" fill="white" fill-opacity="0.7"/>
<path d="M66.137 18.0477L66.6617 17.8767C66.2663 17.8321 65.8671 17.8321 65.4717 17.8767C65.5513 17.9821 65.6286 18.0875 65.7059 18.1953C65.8488 18.1414 65.9917 18.0875 66.137 18.0383" fill="white" fill-opacity="0.7"/>
<path d="M63.5975 16.0304C63.3099 15.834 63.0076 15.6601 62.6932 15.5103C62.2742 15.3136 61.8238 15.1923 61.3626 15.1519C61.123 15.1464 60.8833 15.1597 60.6458 15.1917H60.6317C60.1545 15.2913 59.708 15.5033 59.3292 15.8102C59.1908 15.9498 59.0646 16.1011 58.9521 16.2623C58.8943 16.373 58.8434 16.4873 58.7998 16.6043C58.6944 16.6582 58.5913 16.6043 58.4882 16.6043H57.9752C57.9143 16.5504 57.8299 16.5293 57.7761 16.4637C57.7718 16.4628 57.7679 16.4608 57.7646 16.458C57.7613 16.4551 57.7588 16.4514 57.7573 16.4473C57.5994 16.3495 57.4625 16.2213 57.3544 16.0702C57.3511 16.0709 57.3478 16.0708 57.3445 16.0701C57.3413 16.0694 57.3382 16.068 57.3356 16.066C57.3329 16.064 57.3307 16.0615 57.3291 16.0585C57.3275 16.0556 57.3265 16.0524 57.3263 16.0491C57.2029 15.9234 57.1029 15.7766 57.0311 15.6157L56.7547 15.1472L56.4314 14.6974L56.0566 14.2617L56.0214 14.2219L55.6045 13.8822C55.3007 13.673 54.9619 13.5199 54.6042 13.4301C54.3378 13.3544 54.0568 13.3464 53.7866 13.4066C53.6882 13.4692 53.6058 13.5539 53.5461 13.6539C53.4863 13.754 53.4507 13.8667 53.4422 13.9829C53.4165 14.1235 53.4047 14.2687 53.386 14.414C53.3887 14.6075 53.4139 14.8001 53.461 14.9879C53.4953 15.0807 53.5493 15.1649 53.6193 15.2349C53.6892 15.3048 53.7735 15.3588 53.8662 15.3932C53.9666 15.4049 54.068 15.4049 54.1684 15.3932H54.2083C54.3916 15.3391 54.5817 15.3115 54.7728 15.3112C54.9024 15.2931 55.0343 15.3035 55.1594 15.3416C55.3661 15.3791 55.5609 15.4657 55.7272 15.5941C55.8935 15.7225 56.0266 15.889 56.1151 16.0796C56.2168 16.236 56.2802 16.4141 56.3002 16.5996C56.3735 16.8679 56.3981 17.1472 56.3728 17.4242C56.2721 17.5577 56.1737 17.6936 56.073 17.8295C56.0214 17.9209 56.0097 18.038 55.9043 18.0942C55.788 18.057 55.6689 18.0288 55.5482 18.0099C55.3513 18.0102 55.1547 18.0259 54.9602 18.0567C54.5163 18.1844 54.106 18.4084 53.7585 18.7127L53.7444 18.7431C53.7404 18.7531 53.734 18.762 53.7257 18.7689C53.4306 19.0512 53.1962 19.3908 53.037 19.7668C52.9143 20.04 52.8254 20.3272 52.7722 20.6219C52.681 21.1303 52.655 21.6483 52.6949 22.1633C52.7176 22.4976 52.7614 22.8302 52.8261 23.1589C52.923 23.635 53.0498 24.1044 53.2056 24.5645C53.3674 25.0585 53.5615 25.5414 53.7866 26.0099C53.9599 26.3636 54.1333 26.7127 54.323 27.0617L56.4314 26.6284C56.2674 26.3707 56.1222 26.1013 55.984 25.8319C55.8457 25.5625 55.7029 25.2767 55.5834 24.9838C55.4639 24.691 55.3187 24.3302 55.2132 23.9953C54.8941 23.0293 54.7567 22.0127 54.808 20.9967C54.8331 20.5132 54.9116 20.0339 55.0422 19.5677C55.1435 19.2142 55.2875 18.8744 55.4709 18.5557C55.4959 18.512 55.524 18.4675 55.5553 18.4222C55.6149 18.3344 55.6867 18.2555 55.7684 18.1879C55.8101 18.1537 55.8557 18.1246 55.9043 18.1012C55.9395 18.1364 55.9231 18.1762 55.9043 18.2137C55.8428 18.3763 55.7927 18.5431 55.7544 18.7127C55.6681 19.088 55.6349 19.4736 55.656 19.8582C55.6727 20.1963 55.7126 20.5329 55.7755 20.8655C55.8709 21.3903 56.0032 21.9078 56.1714 22.414C56.3946 23.0888 56.663 23.7478 56.9749 24.3865C57.2443 24.937 57.5184 25.4852 57.8323 26.0263C57.8909 26.1247 57.9541 26.2207 58.015 26.3191L58.7178 26.1739C58.6545 26.0427 58.5936 25.9068 58.5421 25.7663C58.2172 24.9677 58.135 24.091 58.3059 23.246C58.4767 22.401 58.893 21.6251 59.5026 21.0154L59.5283 20.9967C59.637 20.8608 59.7621 20.7388 59.9008 20.6336C59.5377 20.7226 59.2707 20.821 58.9146 20.9358C58.9333 20.725 59.2894 20.3712 59.5073 20.2002C59.9198 19.8923 60.3885 19.6679 60.8871 19.5396C61.1474 19.4605 61.4127 19.3987 61.6812 19.3545C61.7819 19.3381 61.796 19.2866 61.7421 19.2257C61.5309 18.9344 61.2269 18.7237 60.88 18.6283C60.8402 18.6143 60.7184 18.5323 60.6739 18.5182C60.6341 18.2652 61.0487 18.2676 61.3181 18.2652C61.0384 17.9457 60.7241 17.6581 60.3811 17.4078C60.0197 17.1241 59.6157 16.8995 59.184 16.7425C59.1231 16.7214 59.0551 16.7121 58.9895 16.6957C58.948 16.6849 58.9084 16.6675 58.8724 16.6441C58.8518 16.6308 58.8322 16.6159 58.8138 16.5996C58.8601 16.5699 58.9119 16.55 58.9661 16.5411C59.285 16.4976 59.6092 16.5143 59.9219 16.5902C60.3808 16.683 60.8241 16.8407 61.2385 17.0588C61.3204 17.1009 61.3977 17.1454 61.4727 17.19C61.4727 17.1618 61.4727 17.1337 61.4727 17.1056C61.4637 17.0429 61.4741 16.979 61.5026 16.9224C61.5311 16.8659 61.5763 16.8194 61.632 16.7894C61.7856 16.6951 61.9625 16.6456 62.1427 16.6465H62.2013C62.2402 16.6442 62.2792 16.6504 62.3155 16.6648C62.3517 16.6791 62.3844 16.7013 62.4112 16.7296C62.438 16.758 62.4583 16.7919 62.4706 16.8289C62.4829 16.866 62.4869 16.9052 62.4824 16.944C62.4853 17.2224 62.5072 17.5002 62.548 17.7756V17.8154C62.9058 17.2238 63.3548 16.6925 63.8786 16.2412C63.7871 16.1627 63.6909 16.0899 63.5904 16.0233" fill="white" fill-opacity="0.7"/>
<path d="M63.0002 19.3616C62.8768 19.1734 62.7694 18.9751 62.6793 18.7689C62.6605 18.7291 62.6207 18.6049 62.6113 18.5792C62.5738 18.4761 62.5434 18.3707 62.5153 18.2653C62.473 18.1112 62.4402 17.9548 62.4169 17.7967C62.3743 17.5105 62.3516 17.2217 62.3489 16.9323C62.3489 16.8175 62.3091 16.773 62.1943 16.7683C62.0214 16.7571 61.8493 16.8006 61.7024 16.8925C61.6677 16.9092 61.6393 16.9367 61.6215 16.971C61.6038 17.0052 61.5976 17.0442 61.604 17.0822C61.604 17.1408 61.6204 17.1994 61.6274 17.2556C61.681 17.6595 61.7914 18.0539 61.9554 18.4269C62.0378 18.5954 62.1301 18.7589 62.2318 18.9165C62.2851 18.9978 62.343 19.0761 62.4052 19.1508C62.5064 19.3135 62.6338 19.4584 62.7823 19.5795C62.8148 19.6078 62.8564 19.6234 62.8995 19.6234C62.9425 19.6234 62.9842 19.6078 63.0166 19.5795C63.0916 19.5068 63.0494 19.4319 63.0025 19.3616" fill="white" fill-opacity="0.7"/>
<path d="M63.85 25.497L63.8477 25.4946L63.85 25.497Z" fill="#929292"/>
<path d="M61.4443 23.9137C61.3974 23.7637 61.3529 23.5974 61.3154 23.4217C61.3529 23.5974 61.3974 23.7637 61.4443 23.9137L61.4677 23.7965C61.5258 23.431 61.604 23.0689 61.702 22.7119C61.604 23.0689 61.5258 23.431 61.4677 23.7965L61.4443 23.9137Z" fill="#929292"/>
<path d="M62.3789 21.0553C62.4281 20.9687 62.4796 20.8796 62.5359 20.793C62.4796 20.8796 62.4281 20.9687 62.3789 21.0553Z" fill="#929292"/>
<path d="M64.2676 18.9728C64.298 18.9451 64.33 18.9193 64.3636 18.8955C64.33 18.9193 64.298 18.9451 64.2676 18.9728Z" fill="#929292"/>
<path d="M65.083 19.856C65.1981 19.8747 65.3105 19.907 65.418 19.952C65.3105 19.907 65.1981 19.8747 65.083 19.856Z" fill="#929292"/>
<path d="M77.7232 12.8374C77.6892 12.8442 77.6541 12.8442 77.6201 12.8374C77.6541 12.8442 77.6892 12.8442 77.7232 12.8374Z" fill="white" fill-opacity="0.7"/>
<path d="M78.4356 3.68007L78.4567 3.66602C78.3389 3.6938 78.2316 3.75478 78.1475 3.84171L78.2131 3.79954C78.288 3.75972 78.363 3.72224 78.4356 3.68007Z" fill="white" fill-opacity="0.7"/>
<path d="M74.1386 20.1417C74.1095 20.1404 74.0807 20.1486 74.0566 20.1652C74.0807 20.1486 74.1095 20.1404 74.1386 20.1417Z" fill="white" fill-opacity="0.7"/>
<path d="M78.0093 12.2775L77.9531 12.4532H77.9789C77.9789 12.3923 77.9976 12.3314 78.0093 12.2705" fill="white" fill-opacity="0.7"/>
<path d="M82.9893 10.3193C83.0288 10.3265 83.0692 10.3265 83.1087 10.3193C83.0692 10.3265 83.0288 10.3265 82.9893 10.3193Z" fill="white" fill-opacity="0.7"/>
<path d="M91.3457 7.78195L91.334 7.75618L91.2989 7.64608C91.2872 7.62031 91.2754 7.59454 91.2614 7.56877L91.2356 7.51489L91.1513 7.36965C91.0974 7.28297 91.0435 7.20098 91.1981 7.14944C91.2661 7.12602 91.2637 7.04168 91.2801 6.98077L91.2099 6.8613C91.0394 6.75887 90.8557 6.68006 90.664 6.62704C90.6336 6.61533 90.5984 6.60127 90.5937 6.56613C90.5891 6.53099 90.6336 6.51928 90.6593 6.50288L90.835 6.40683C90.8567 6.35925 90.8587 6.30506 90.8408 6.25597C90.8228 6.20689 90.7862 6.16683 90.739 6.14446C90.6383 6.07653 90.5164 6.0531 90.411 5.99453C90.3713 5.99642 90.3319 5.98577 90.2986 5.96408L90.2517 5.95002L90.0409 5.90551C89.8265 5.89836 89.6118 5.90854 89.399 5.93597C89.4031 5.90825 89.4135 5.88182 89.4293 5.85869C89.4452 5.83556 89.466 5.81633 89.4904 5.80244C89.5302 5.70639 89.4904 5.65954 89.399 5.63611L89.2538 5.59395H88.7501C88.7372 5.5997 88.7232 5.60267 88.7091 5.60267C88.695 5.60267 88.681 5.5997 88.6681 5.59395C88.6521 5.6032 88.6339 5.60807 88.6154 5.60807C88.5969 5.60807 88.5787 5.6032 88.5627 5.59395L87.9419 5.63846C87.7617 5.70778 87.587 5.79079 87.4195 5.88677C87.4054 5.77667 87.5905 5.68999 87.4453 5.58223H87.211L87.0775 5.61737L86.9721 5.66423L86.7214 5.79775L86.2669 6.16086C86.2013 6.23817 86.1381 6.31781 86.0748 6.39512C86.0748 6.39512 86.0584 6.39512 86.0561 6.38107C85.9905 6.18194 85.946 6.16554 85.7633 6.28268L85.7024 6.31547L84.9996 7.01826C84.9738 7.01826 84.9668 6.99952 84.9785 6.98077C85.1507 6.6729 85.3515 6.38191 85.5782 6.11166C85.5804 6.09693 85.5863 6.08299 85.5953 6.07112C85.6043 6.05925 85.6162 6.04984 85.6297 6.04373C85.6306 6.03156 85.635 6.01992 85.6425 6.01031C85.6501 6.0007 85.6603 5.99357 85.6719 5.98985C85.8874 5.70639 86.1404 5.4487 86.3747 5.18867L86.4075 5.16056C86.4152 5.146 86.4238 5.13192 86.4333 5.1184L86.5316 4.94738C86.6909 4.66861 86.6347 4.5632 86.3161 4.54446L87.0728 3.96817L87.1173 3.92835C87.1252 3.90977 87.1368 3.89296 87.1512 3.87888C87.1657 3.8648 87.1828 3.85375 87.2016 3.84636L87.2321 3.81824L87.2625 3.77842L87.2907 3.75265L87.4429 3.51839L87.4945 3.3263C87.4882 3.3165 87.4849 3.30512 87.4849 3.2935C87.4849 3.28188 87.4882 3.2705 87.4945 3.2607V3.21151C87.4945 3.21151 87.4945 3.21151 87.4945 3.19745C87.4945 3.1834 87.4945 3.16231 87.4945 3.14591C87.4945 3.12952 87.4453 3.06861 87.457 3.01941C87.3586 2.78515 87.1595 2.81795 86.9603 2.86011C87.0845 2.73361 87.1946 2.62585 87.3258 2.51107C87.4712 2.39396 87.577 2.2348 87.6285 2.05534C87.6801 1.87588 87.675 1.68488 87.6139 1.50843C87.595 1.39842 87.5374 1.2988 87.4515 1.22751C87.3656 1.15621 87.257 1.11793 87.1454 1.11955C87.1032 1.11955 87.0986 1.10315 87.1032 1.07036C87.1165 0.911986 87.0974 0.752577 87.047 0.601834C87.0002 0.5175 86.951 0.433166 86.9018 0.348832C86.8592 0.323917 86.8256 0.286206 86.8057 0.241071C86.796 0.229003 86.785 0.218009 86.7729 0.208275C86.7519 0.197962 86.7315 0.186222 86.712 0.173135C86.6273 0.1055 86.5291 0.0565731 86.4241 0.0295715C86.3191 0.00256983 86.2095 -0.00189487 86.1027 0.0164709C85.9958 0.0348367 85.894 0.0756171 85.804 0.136131C85.714 0.196644 85.6379 0.27552 85.5805 0.367573C85.4998 0.490768 85.4353 0.623825 85.3885 0.763474C85.3721 0.810327 85.3721 0.86655 85.3135 0.899346C85.2877 0.816407 85.2317 0.746181 85.1565 0.702566H85.1097C85.1097 0.702566 85.098 0.702566 85.0909 0.702566C85.0786 0.71 85.0644 0.713927 85.0499 0.713927C85.0355 0.713927 85.0213 0.71 85.0089 0.702566C85.0061 0.704211 85.0029 0.705077 84.9996 0.705077C84.9963 0.705077 84.9931 0.704211 84.9902 0.702566C84.9068 0.719583 84.8278 0.753697 84.7583 0.802758C84.6887 0.851818 84.6301 0.91476 84.5861 0.987614C84.542 1.06047 84.5136 1.14165 84.5025 1.22605C84.4914 1.31045 84.498 1.39622 84.5217 1.47797C84.5217 1.52951 84.5381 1.58105 84.5475 1.63024C84.5568 1.67944 84.5662 1.68646 84.5732 1.71458C84.6101 1.75977 84.6343 1.81393 84.6435 1.87153C84.6693 1.9012 84.6856 1.93792 84.6903 1.97695C84.7245 2.00938 84.7489 2.05078 84.7606 2.09642C84.7606 2.09642 84.7419 2.11048 84.7349 2.09642C84.3577 1.96524 84.0438 2.24635 84.0836 2.68676C84.1165 2.95358 84.2085 3.20968 84.353 3.4364C84.3811 3.48559 84.4022 3.53713 84.442 3.61678C84.3629 3.60263 84.2816 3.60735 84.2047 3.63056C84.1277 3.65376 84.0574 3.69479 83.9993 3.75031L83.9524 3.81356C83.9524 3.82996 83.936 3.84401 83.929 3.85807C83.9079 3.91429 83.8868 3.96817 83.8634 4.02439C83.84 4.08062 83.84 4.18838 83.8259 4.25866V4.30785C83.8334 4.32023 83.8373 4.3344 83.8373 4.34885C83.8373 4.36329 83.8334 4.37746 83.8259 4.38984C83.8564 4.77403 83.8868 5.15588 83.9149 5.53772C83.9149 5.58458 83.9149 5.63143 83.9149 5.67828C83.9254 5.69772 83.9309 5.71945 83.9309 5.74153C83.9309 5.76361 83.9254 5.78534 83.9149 5.80478C83.9213 5.81411 83.9247 5.82513 83.9247 5.83641C83.9247 5.84769 83.9213 5.85871 83.9149 5.86803C83.9411 6.06288 83.9521 6.25948 83.9477 6.45603C83.9492 6.47254 83.9452 6.48909 83.9363 6.50307C83.9274 6.51706 83.9141 6.5277 83.8986 6.53334C83.8611 6.32484 83.8259 6.11635 83.7884 5.9102C83.7833 5.89112 83.777 5.87235 83.7697 5.85398L83.7205 5.71811L83.6502 5.5916L83.6338 5.56818C83.5284 5.48384 83.4605 5.55646 83.3832 5.65251L83.3387 5.30112L83.1513 4.75763C83.0614 4.58696 82.9487 4.42934 82.8163 4.28911C82.7413 4.261 82.678 4.19072 82.582 4.2118C82.5501 4.29541 82.5365 4.38488 82.5422 4.47418L82.2002 3.97286L81.6895 3.60038C81.6786 3.60077 81.6678 3.59785 81.6586 3.59199C81.6494 3.58614 81.6422 3.57763 81.6379 3.56758C81.6263 3.56713 81.6151 3.56336 81.6055 3.55672C81.596 3.55008 81.5885 3.54084 81.584 3.5301C81.5536 3.5301 81.5372 3.50433 81.5208 3.48325L81.1413 3.24899C81.1298 3.25094 81.118 3.24928 81.1075 3.24425C81.097 3.23921 81.0884 3.23105 81.0827 3.22088C80.9937 3.22088 80.8906 3.12249 80.825 3.26304C80.8461 3.34035 80.8672 3.41531 80.8859 3.49731C80.7017 3.33639 80.5006 3.1958 80.2862 3.07798L80.0051 2.98193L79.9559 2.97022L79.9255 2.9585C79.8177 2.94445 79.71 2.92805 79.6022 2.91868C79.5527 2.90895 79.5013 2.91793 79.458 2.9439C79.4148 2.96986 79.3826 3.01096 79.3679 3.05924C79.3835 3.12359 79.4088 3.1852 79.4429 3.24196C79.4593 3.26773 79.4897 3.29818 79.464 3.33098C79.4517 3.34255 79.4362 3.35027 79.4196 3.35318C79.4029 3.3561 79.3858 3.35408 79.3703 3.34738C79.1944 3.30529 79.0146 3.28174 78.8338 3.2771L78.7495 3.29584L78.6956 3.3263C78.6487 3.41531 78.6089 3.50199 78.6956 3.59335C78.7019 3.59738 78.7071 3.60292 78.7106 3.60947C78.7142 3.61602 78.7161 3.62337 78.7161 3.63084C78.7161 3.6383 78.7142 3.64565 78.7106 3.6522C78.7071 3.65875 78.7019 3.66429 78.6956 3.66832C78.6181 3.65446 78.5388 3.65446 78.4613 3.66832L78.4403 3.68237C78.3676 3.72454 78.2927 3.76202 78.2177 3.80185L78.1521 3.84636L78.1006 3.87915L78.0514 3.90961C77.9717 3.9916 77.8921 4.07125 77.8171 4.14387C77.782 4.2282 77.7445 4.31019 77.7094 4.39219C77.7105 4.39917 77.7105 4.40629 77.7094 4.41327C77.7105 4.43434 77.7105 4.45545 77.7094 4.47652C77.6013 4.5469 77.5233 4.6549 77.4904 4.77957C77.4575 4.90423 77.4721 5.03667 77.5313 5.15119C77.5454 5.19102 77.5618 5.23318 77.5758 5.27535C77.5899 5.31752 77.6016 5.31986 77.6133 5.34094C77.6507 5.37379 77.679 5.41576 77.6953 5.46276C77.7227 5.48303 77.7425 5.5119 77.7515 5.54475C77.7862 5.56602 77.8139 5.59696 77.8312 5.63377C77.8312 5.63377 77.8171 5.64783 77.8124 5.64783C77.4728 5.59863 77.2526 5.88209 77.358 6.24988C77.4286 6.4698 77.547 6.67139 77.7047 6.84022C77.7375 6.8777 77.7632 6.91752 77.8101 6.97843C77.7411 6.97942 77.6733 6.9967 77.6122 7.02886C77.5512 7.06102 77.4986 7.10715 77.4587 7.1635L77.4282 7.22441V7.26423L77.4001 7.41416V7.62734C77.4001 7.64139 77.4001 7.6531 77.4001 7.66716C77.409 7.6763 77.4152 7.68766 77.418 7.70003C77.4209 7.71241 77.4204 7.72534 77.4165 7.73744L77.6766 8.69088C77.6766 8.73071 77.6906 8.77053 77.6976 8.81036C77.7103 8.82444 77.7193 8.84144 77.7238 8.85983C77.7283 8.87822 77.7281 8.89744 77.7234 8.91577C77.7307 8.92247 77.7359 8.9311 77.7383 8.94065C77.7408 8.9502 77.7405 8.96027 77.7375 8.96965C77.7891 9.12975 77.829 9.29338 77.8569 9.45926C77.862 9.47271 77.8619 9.48753 77.8567 9.50092C77.8515 9.51431 77.8416 9.52533 77.8288 9.53188C77.7632 9.36321 77.7 9.19455 77.6367 9.02353L77.611 8.97902L77.5407 8.87361C77.5126 8.84315 77.4868 8.81036 77.461 8.77756L77.4423 8.76116C77.3392 8.70728 77.2947 8.7799 77.2455 8.87361C77.2104 8.7635 77.1799 8.67448 77.1518 8.58312L76.8988 8.17082C76.7947 8.04245 76.6742 7.92825 76.5404 7.83114C76.4725 7.83114 76.4092 7.77258 76.3342 7.80303C76.3177 7.88024 76.3177 7.96009 76.3342 8.03729L75.9641 7.66716L75.4722 7.4329C75.4534 7.4329 75.4394 7.4329 75.4253 7.41182C75.415 7.41423 75.4042 7.41325 75.3945 7.40903C75.3848 7.40481 75.3767 7.39757 75.3714 7.38839C75.3601 7.38876 75.3489 7.3864 75.3387 7.38151C75.3285 7.37661 75.3196 7.36933 75.3129 7.36028L74.9638 7.21269C74.9549 7.21624 74.945 7.21679 74.9357 7.21426C74.9264 7.21172 74.9182 7.20624 74.9123 7.19864C74.835 7.19864 74.7342 7.1471 74.7014 7.27594L74.7905 7.45867C74.6088 7.35209 74.4164 7.26493 74.2165 7.19864L73.9635 7.16584H73.919H73.8932C73.7995 7.16584 73.7058 7.16584 73.6121 7.18458C73.5687 7.18485 73.527 7.20094 73.4946 7.22984C73.4623 7.25874 73.4416 7.29846 73.4364 7.34154C73.4604 7.39355 73.492 7.4417 73.5301 7.48444C73.5489 7.50318 73.5793 7.52192 73.5606 7.55706C73.5419 7.5922 73.5137 7.58517 73.4856 7.58517C73.3289 7.57657 73.1717 7.586 73.0171 7.61328L72.9492 7.64139L72.9093 7.67419C72.8836 7.75852 72.8648 7.83817 72.9562 7.90845C73.0007 7.9389 72.9679 7.97639 72.9398 7.99747C72.9117 8.01855 72.8274 8.08883 72.7711 8.13334L72.6844 8.22002L72.6493 8.25281L72.4877 8.48708L72.4385 8.72134L72.4525 8.86189C72.4533 8.87516 72.4533 8.88845 72.4525 8.90172C72.4689 8.93686 72.483 8.972 72.497 9.00479C72.5111 9.03759 72.5252 9.04696 72.5369 9.06804L72.6071 9.16878C72.7549 9.29921 72.9466 9.36871 73.1436 9.36321C73.3524 9.31942 73.5651 9.29666 73.7785 9.29528C73.6064 9.38923 73.4569 9.51954 73.3404 9.67712C73.2348 9.83586 73.1601 10.0131 73.1202 10.1995C73.1037 10.2643 73.1065 10.3325 73.1281 10.3957C73.1498 10.4589 73.1893 10.5145 73.242 10.5556C73.3351 10.5809 73.4313 10.5935 73.5278 10.5931C73.7058 10.5616 73.8812 10.5169 74.0525 10.4596C74.1078 10.4237 74.1688 10.3976 74.2329 10.3823C74.1978 10.49 74.172 10.5907 74.2634 10.6774C74.31 10.7177 74.3656 10.7462 74.4256 10.7604C74.4855 10.7747 74.548 10.7744 74.6077 10.7594C74.6991 10.743 74.7881 10.7126 74.8795 10.6868C75.0224 10.6493 75.102 10.5228 75.2238 10.4338C75.2374 10.5426 75.2683 10.6486 75.3152 10.7477C75.373 10.7972 75.4425 10.8312 75.5171 10.8463C75.5917 10.8615 75.669 10.8574 75.7416 10.8344H75.7556L75.779 10.8227L75.8423 10.7852C75.9144 10.7016 76.0062 10.6372 76.1094 10.5978C76.1351 10.5767 76.1726 10.5556 76.1937 10.5767C76.2148 10.5978 76.1937 10.6399 76.1679 10.668L76.1492 10.6985C76.1701 10.7386 76.2008 10.7728 76.2385 10.7978C76.2762 10.8228 76.3196 10.8378 76.3647 10.8414C76.5956 10.8927 76.8101 11.0005 76.9892 11.155C77.1682 11.3095 77.3062 11.506 77.3908 11.7269C77.5468 12.0381 77.6595 12.3691 77.7258 12.7108C77.7258 12.7272 77.7258 12.7459 77.7258 12.7647C77.7258 12.7834 77.7258 12.7881 77.7258 12.7998L77.7375 12.8233C77.8008 12.8542 77.8733 12.8609 77.9413 12.842C77.8733 12.8609 77.8008 12.8542 77.7375 12.8233H77.7117C77.6165 12.8408 77.5188 12.8408 77.4236 12.8233C77.4209 12.8259 77.4178 12.828 77.4144 12.8294C77.411 12.8308 77.4074 12.8315 77.4037 12.8315C77.4 12.8315 77.3963 12.8308 77.3929 12.8294C77.3895 12.828 77.3863 12.8259 77.3837 12.8233L76.9363 12.8514C76.6658 12.8763 76.3968 12.9154 76.1304 12.9685C75.7776 13.0737 75.4374 13.2175 75.1161 13.3972C75.0878 13.4291 75.0525 13.4539 75.013 13.4698C74.8064 13.6324 74.615 13.8135 74.4414 14.011C74.2529 14.2773 74.1126 14.5746 74.0268 14.8894C74.0145 14.9215 74.0043 14.9544 73.9963 14.9878C73.9953 15.0003 73.9953 15.0128 73.9963 15.0253L73.9471 15.4587L74.3641 15.5009L75.0669 15.5688L75.4979 15.6086C75.6036 15.6122 75.7055 15.6487 75.7895 15.7129C75.8735 15.7772 75.9353 15.866 75.9665 15.967C75.9974 16.043 76.0093 16.1255 76.0011 16.2071C75.993 16.2888 75.965 16.3672 75.9196 16.4356C75.8916 16.4784 75.8586 16.5177 75.8212 16.5527C75.762 16.6058 75.6919 16.6453 75.6158 16.6684C75.5397 16.6915 75.4595 16.6975 75.3808 16.6862L75.095 16.6581L74.1111 16.5668H74.0385C74.0146 16.5612 73.9897 16.5612 73.9659 16.5668C73.9518 16.6979 73.9893 16.8291 73.9659 16.9603C73.9987 17.1411 74.0105 17.325 74.001 17.5085C74.0025 17.5098 74.0037 17.5114 74.0045 17.5132C74.0053 17.5151 74.0058 17.517 74.0058 17.519C74.0058 17.521 74.0053 17.523 74.0045 17.5248C74.0037 17.5266 74.0025 17.5282 74.001 17.5296C74.0345 17.7316 74.0494 17.9363 74.0455 18.141C74.0478 18.1436 74.0491 18.1469 74.0491 18.1504C74.0491 18.1538 74.0478 18.1572 74.0455 18.1597C74.0947 18.394 74.0924 18.6423 74.1252 18.8813C74.1252 18.9258 74.1369 18.9703 74.1439 19.0148C74.194 19.0511 74.2557 19.0677 74.3173 19.0616L75.9571 19.2186L77.1659 19.3264L77.4236 19.3498C77.4236 19.4318 77.4095 19.5138 77.4072 19.584C77.4072 19.8183 77.3837 20.0315 77.372 20.254C77.3759 20.3014 77.3653 20.3487 77.3416 20.3899V20.4204H77.2432L76.0156 20.3056L74.4274 20.1556C74.3992 20.1556 74.3711 20.1556 74.343 20.1556C74.3139 20.1543 74.2851 20.1625 74.261 20.1791C74.261 20.3852 74.3219 20.5843 74.3126 20.7928C74.3183 20.8041 74.3213 20.8165 74.3213 20.8291C74.3213 20.8418 74.3183 20.8542 74.3126 20.8655C74.3204 20.8751 74.3246 20.8871 74.3246 20.8994C74.3246 20.9118 74.3204 20.9238 74.3126 20.9334C74.3126 20.9334 74.3126 20.9334 74.3126 20.9521C74.3688 21.17 74.3735 21.3972 74.4086 21.6174C74.4438 21.8376 74.4602 21.9969 74.4859 22.1867C74.4988 22.2255 74.4988 22.2674 74.4859 22.3062C74.4849 22.3155 74.4849 22.3249 74.4859 22.3343C74.4992 22.3504 74.5079 22.3697 74.5112 22.3903C74.5145 22.4109 74.5123 22.432 74.5047 22.4514C74.5062 22.4527 74.5074 22.4543 74.5082 22.4562C74.509 22.458 74.5094 22.46 74.5094 22.4619C74.5094 22.4639 74.509 22.4659 74.5082 22.4677C74.5074 22.4695 74.5062 22.4712 74.5047 22.4725C74.5418 22.6036 74.5615 22.7391 74.5632 22.8754C74.5632 22.8754 74.5632 22.8918 74.5632 22.9012C74.5701 22.9081 74.5748 22.9169 74.5769 22.9264C74.579 22.936 74.5783 22.9459 74.5749 22.9551L75.3995 22.7841L76.9667 22.4608L77.3017 22.3928L77.9436 22.2593C77.9265 22.1498 77.9337 22.0378 77.9647 21.9313C77.9869 21.8535 78.0248 21.781 78.0762 21.7184C78.1276 21.6558 78.1913 21.6045 78.2634 21.5676C78.3354 21.5307 78.4143 21.509 78.4951 21.5038C78.5759 21.4987 78.6569 21.5103 78.7331 21.5378L79.8646 21.8657L80.0871 21.8212L83.8236 21.0552C83.8611 20.9943 83.8939 20.9334 83.929 20.8748C83.9779 20.751 84.0433 20.6344 84.1234 20.5281C84.1469 20.4403 84.192 20.3597 84.2546 20.2939C84.2546 20.2939 84.2546 20.2728 84.271 20.2611C84.2874 20.2493 84.271 20.24 84.2874 20.2306C84.3451 20.0966 84.4132 19.9673 84.4912 19.8441C84.5029 19.8253 84.5147 19.8066 84.5287 19.7878L84.5475 19.7504C84.5898 19.6198 84.6549 19.4977 84.7395 19.3896C84.7395 19.3896 84.7395 19.3755 84.7395 19.3732C84.7376 19.3584 84.7402 19.3434 84.7468 19.33C84.7535 19.3166 84.764 19.3056 84.777 19.2982C84.777 19.2982 84.777 19.2842 84.7887 19.2795C84.7868 19.2653 84.7894 19.2509 84.7961 19.2383C84.8028 19.2257 84.8134 19.2155 84.8262 19.2092C84.8241 19.2061 84.823 19.2024 84.823 19.1987C84.823 19.1949 84.8241 19.1912 84.8262 19.1881C84.9996 18.8438 85.1706 18.4994 85.3463 18.1574C85.398 18.0305 85.4632 17.9096 85.5407 17.7966C85.5406 17.7924 85.5419 17.7882 85.5445 17.7848C85.547 17.7814 85.5507 17.7789 85.5548 17.7779C85.6368 17.5436 85.775 17.3094 85.8781 17.0751L85.9273 16.9463C85.8898 16.8783 85.8195 16.8736 85.7562 16.8549C85.0839 16.6605 84.4116 16.4684 83.7416 16.2692C83.6266 16.2447 83.5212 16.1874 83.4381 16.1043C83.3549 16.0211 83.2976 15.9157 83.2731 15.8007C83.2442 15.6742 83.2546 15.5419 83.3027 15.4214C83.3508 15.3009 83.4344 15.1979 83.5425 15.126C83.6097 15.0788 83.6869 15.0475 83.7681 15.0345C83.8493 15.0215 83.9323 15.0272 84.011 15.0511L86.3536 15.7304C86.3744 15.7361 86.3947 15.7431 86.4145 15.7515C86.4342 15.7606 86.4499 15.7764 86.459 15.796C86.6933 15.2924 86.9486 14.8004 86.9861 14.2335C86.9892 14.2161 86.9956 14.1994 87.0049 14.1843C87.0049 14.1609 87.0049 14.1375 87.0049 14.114C87.0049 13.9969 87.0049 13.8798 87.0049 13.7603L86.9346 13.3129L86.9135 13.2566C86.7972 12.8913 86.6283 12.5449 86.4122 12.2282L86.363 12.1556C86.0954 11.8455 85.7989 11.5615 85.4775 11.3076C85.0963 11.064 84.6987 10.8471 84.2874 10.6587C84.1236 10.624 83.9658 10.5656 83.8189 10.4853C83.7754 10.4819 83.7323 10.4749 83.6901 10.4642C83.7323 10.4749 83.7754 10.4819 83.8189 10.4853C83.8564 10.4268 83.8962 10.3705 83.936 10.312C84.0694 10.1188 84.2158 9.93484 84.3741 9.76146C84.498 9.62435 84.6328 9.49744 84.777 9.38195C84.8028 9.33944 84.8426 9.30716 84.8895 9.29059L84.9129 9.27419L85.0066 9.20157C85.151 9.08819 85.3164 9.00455 85.4934 8.95549C85.6703 8.90643 85.8552 8.89293 86.0374 8.91577C86.1147 8.92866 86.1932 8.93415 86.2716 8.93217C86.3794 8.93217 86.4871 8.93217 86.4614 8.7635C86.4473 8.67683 86.5082 8.71665 86.541 8.73773C86.6179 8.79968 86.6776 8.88035 86.7144 8.972C86.7616 9.08226 86.8433 9.17425 86.9472 9.23422C87.051 9.29418 87.1716 9.31889 87.2907 9.30465C87.4382 9.23671 87.4968 9.09381 87.5811 8.94623C87.6499 9.08598 87.7323 9.2186 87.8271 9.34213C87.9328 9.44387 88.0537 9.52845 88.1855 9.59279C88.469 9.70289 88.6353 9.61153 88.6775 9.29528L88.818 9.45223C88.9816 9.58708 89.1529 9.71223 89.3311 9.82705C89.434 9.86739 89.5407 9.89721 89.6497 9.91607C89.7266 9.90374 89.7977 9.86743 89.8528 9.81233C89.9079 9.75722 89.9442 9.68613 89.9566 9.60919C89.9917 9.40847 89.9917 9.20317 89.9566 9.00245V8.97434L89.9355 8.88766C89.8708 8.68405 89.7743 8.49193 89.6497 8.31841L90.2728 8.6698C90.4922 8.76532 90.7402 8.7712 90.9639 8.6862L91.0412 8.64403C91.042 8.63876 91.0439 8.63372 91.0468 8.6292C91.0496 8.62468 91.0533 8.62077 91.0577 8.61771C91.062 8.61466 91.067 8.61251 91.0722 8.61139C91.0774 8.61028 91.0828 8.61023 91.088 8.61123L91.1396 8.57141L91.1747 8.53393C91.2492 8.45635 91.3101 8.36688 91.3551 8.26921L91.3902 7.98341C91.3902 7.91548 91.3645 7.84988 91.3527 7.78195H91.3457ZM79.1571 3.71985C79.1755 3.72715 79.1942 3.73341 79.2133 3.7386L79.2485 3.76202C79.2723 3.79694 79.3068 3.82322 79.3468 3.83699L79.5085 4.02674C79.5766 4.14795 79.6189 4.28195 79.6326 4.4203C79.6326 4.44841 79.6326 4.45778 79.6772 4.45309C79.7709 4.43465 79.8682 4.44992 79.9517 4.49621C80.0353 4.54251 80.0999 4.61684 80.134 4.7061C80.2166 4.84315 80.2551 5.0023 80.2442 5.16196C80.2333 5.32162 80.1735 5.47407 80.0731 5.59863C80.0004 5.68999 79.9325 5.78604 79.8646 5.88677C79.7675 5.88366 79.6713 5.90629 79.5858 5.95237C79.6701 5.82587 79.7521 5.71811 79.8388 5.59863C79.9393 5.47407 79.999 5.32162 80.0099 5.16196C80.0208 5.0023 79.9823 4.84315 79.8997 4.7061C79.8656 4.61684 79.8011 4.54251 79.7175 4.49621C79.6339 4.44992 79.5366 4.43465 79.4429 4.45309C79.4054 4.45309 79.3984 4.45309 79.3984 4.4203C79.3846 4.28195 79.3423 4.14795 79.2742 4.02674L79.1126 3.83699C79.0726 3.82322 79.0381 3.79694 79.0142 3.76202L78.9791 3.7386C78.96 3.73341 78.9412 3.72715 78.9228 3.71985C78.8608 3.69214 78.7954 3.67246 78.7284 3.66129C78.8739 3.63603 79.0237 3.65649 79.1571 3.71985ZM81.7785 18.7243C81.7014 18.8161 81.5988 18.883 81.4837 18.9164C81.3686 18.9497 81.2461 18.9481 81.1319 18.9117L80.989 18.8695C79.9067 18.5533 78.8244 18.2417 77.7422 17.9325L77.6953 17.9161C77.6646 17.9048 77.632 17.8992 77.5993 17.8997C77.5821 17.9011 77.5654 17.9059 77.5501 17.9138C77.4821 17.8177 77.5337 17.7006 77.4938 17.5998C77.5239 17.4494 77.5396 17.2964 77.5407 17.143C77.5594 17.143 77.5547 17.122 77.5407 17.1079V17.0376C77.5636 16.952 77.5762 16.8639 77.5782 16.7752C77.5899 16.6979 77.5782 16.6113 77.6555 16.5597C77.7 16.6253 77.775 16.6323 77.8429 16.6511L78.8268 16.9392C79.6514 17.1735 80.4783 17.4218 81.3076 17.642L81.4646 17.6889C81.5678 17.7168 81.6623 17.7706 81.739 17.8451C81.8158 17.9197 81.8723 18.0125 81.9032 18.1149C81.9341 18.2174 81.9385 18.326 81.9159 18.4305C81.8932 18.5351 81.8443 18.6321 81.7738 18.7126L81.7785 18.7243ZM83.3387 10.319C83.2984 10.326 83.2572 10.326 83.2169 10.319C83.1778 10.3082 83.1412 10.2899 83.1091 10.2651H83.0739C82.9627 10.2608 82.8531 10.2362 82.7507 10.1925C82.7442 10.1973 82.7364 10.1998 82.7284 10.1998C82.7204 10.1998 82.7126 10.1973 82.7062 10.1925C82.5328 10.1691 82.3618 10.1503 82.1884 10.1246C81.8771 10.0932 81.5643 10.0792 81.2514 10.0824C80.8245 10.1264 80.4036 10.216 79.9958 10.3495C79.9576 10.3806 79.9127 10.4023 79.8646 10.4127C79.5921 10.5523 79.3333 10.717 79.0915 10.9047C78.7851 11.195 78.5343 11.5387 78.3512 11.919L78.2435 12.2704C78.2318 12.3313 78.2224 12.3922 78.213 12.4531L78.5293 12.5468C78.9978 12.685 79.4663 12.8256 79.9348 12.9568C80.0567 12.9828 80.1674 13.0462 80.2514 13.1382C80.3354 13.2302 80.3885 13.3461 80.4034 13.4698C80.408 13.5103 80.408 13.5512 80.4034 13.5916C80.4042 13.6955 80.3784 13.7979 80.3284 13.889C80.2783 13.9801 80.2058 14.0567 80.1176 14.1117C80.0375 14.1591 79.9481 14.1887 79.8555 14.1984C79.7629 14.2081 79.6693 14.1977 79.5811 14.1679C79.1126 14.025 78.6324 13.8891 78.1591 13.7533L78.0772 13.7275C78.0495 13.7205 78.0205 13.7205 77.9928 13.7275C77.9784 13.6818 77.9784 13.6327 77.9928 13.5869C78.0373 13.3527 78.0818 13.1067 78.1053 12.8654C78.1053 12.8256 78.1053 12.7881 78.117 12.7506C78.1732 12.6686 78.0982 12.5492 78.1896 12.4765L78.2458 12.3009C78.2739 12.1205 78.302 11.9401 78.3325 11.7597C78.4028 11.338 78.4988 10.9234 78.5972 10.5064C78.6617 10.2664 78.7439 10.0315 78.8432 9.80363C78.8221 9.80363 78.8104 9.80363 78.8174 9.77551C78.9119 9.47992 79.0334 9.19368 79.1805 8.92046C79.1799 8.90763 79.1826 8.89486 79.1884 8.88338C79.1941 8.87189 79.2027 8.86207 79.2133 8.85487C79.2126 8.84417 79.2149 8.83349 79.2198 8.82399C79.2248 8.81449 79.2323 8.80654 79.2414 8.80099C79.3843 8.53093 79.5407 8.26823 79.71 8.01387L79.7334 7.98576L79.7474 7.94359L79.8037 7.78429C79.8927 7.52426 79.8271 7.44227 79.5553 7.47741C79.6467 7.37902 79.7357 7.27829 79.8247 7.1799C79.767 7.16146 79.7141 7.13023 79.6701 7.08854L79.8693 6.87067L79.8997 6.82851C79.9074 6.79505 79.9275 6.76576 79.9559 6.74651L79.977 6.7184L79.9981 6.68092L80.0168 6.65281C80.0473 6.57785 80.0777 6.50288 80.1059 6.41855L80.1199 6.24988C80.115 6.24133 80.1124 6.23164 80.1124 6.22177C80.1124 6.2119 80.115 6.2022 80.1199 6.19366V6.15149C80.1199 6.15149 80.1199 6.15149 80.1199 6.13978V6.09761C80.1012 6.06481 80.066 6.04139 80.0684 5.99688C80.0437 5.95687 80.01 5.92318 79.97 5.89849C80.0274 5.86883 80.0941 5.86251 80.1561 5.88084C80.2181 5.89918 80.2706 5.94075 80.3026 5.99688C80.3026 6.04139 80.3354 6.06481 80.3542 6.09761V6.13978C80.3542 6.13978 80.3542 6.13978 80.3542 6.15149V6.19366C80.3492 6.2022 80.3466 6.2119 80.3466 6.22177C80.3466 6.23164 80.3492 6.24133 80.3542 6.24988L80.3401 6.41855C80.312 6.49351 80.2816 6.56847 80.2511 6.65281L80.2324 6.68092L80.2113 6.7184L80.1902 6.74651C80.1618 6.76576 80.1417 6.79505 80.134 6.82851L80.1035 6.87067L79.8247 7.1799C79.8787 7.19665 79.9346 7.20611 79.9911 7.20801C80.1 7.20525 80.2087 7.19665 80.3167 7.18224C80.49 7.18224 80.6095 7.04402 80.7665 6.96906C80.7497 7.10023 80.7552 7.2333 80.7829 7.36262C80.8382 7.43199 80.9101 7.48621 80.9921 7.52021C81.074 7.55422 81.1632 7.56689 81.2514 7.55706C81.2525 7.5556 81.2539 7.55442 81.2555 7.55361C81.2572 7.5528 81.2589 7.55237 81.2608 7.55237C81.2626 7.55237 81.2644 7.5528 81.266 7.55361C81.2676 7.55442 81.269 7.5556 81.2701 7.55706H81.2982L81.3802 7.52895C81.4799 7.44839 81.5984 7.39439 81.7246 7.37199C81.7597 7.35325 81.8066 7.33685 81.8253 7.37199C81.8441 7.40713 81.8019 7.43993 81.7761 7.46804C81.7668 7.47839 81.7582 7.48934 81.7504 7.50083C81.7649 7.55128 81.7921 7.59715 81.8295 7.63406C81.8668 7.67097 81.913 7.69769 81.9635 7.71167C82.0896 7.76236 82.2086 7.8293 82.3173 7.91079C82.3805 7.91079 82.418 7.94125 82.418 7.99981C82.4578 8.03572 82.4954 8.07405 82.5305 8.1146C82.7231 8.35365 82.8592 8.63313 82.9287 8.93217C83.0408 9.32132 83.0975 9.72429 83.0974 10.1292C83.0962 10.1456 83.0962 10.1621 83.0974 10.1784V10.2347V10.2651C83.1294 10.2899 83.166 10.3082 83.2051 10.319C83.2454 10.326 83.2867 10.326 83.327 10.319C83.327 10.2956 83.3387 10.2745 83.3457 10.2511C83.3457 10.2745 83.3316 10.2956 83.327 10.319H83.3387Z" fill="white" fill-opacity="0.7"/>
<path d="M83.1084 10.3311C83.1084 10.3077 83.1201 10.2866 83.1271 10.2632C83.1271 10.2866 83.1131 10.3077 83.1084 10.3311Z" fill="white" fill-opacity="0.7"/>
<path d="M77.3646 17.8955C77.3475 17.8969 77.3307 17.9017 77.3154 17.9096C77.3307 17.9017 77.3475 17.8969 77.3646 17.8955Z" fill="white" fill-opacity="0.7"/>
<path d="M77.8382 13.7279C77.8106 13.7209 77.7816 13.7209 77.7539 13.7279C77.7816 13.7209 77.8106 13.7209 77.8382 13.7279Z" fill="white" fill-opacity="0.7"/>
<path d="M73.893 18.4526C73.893 18.4526 73.715 16.11 73.7314 15.5454C73.7478 14.9808 73.8227 14.9082 73.8227 14.9082L73.7993 14.8895L73.6166 14.7958H73.5768C73.3706 14.6867 73.155 14.5965 72.9325 14.5264C72.8412 14.5264 72.7498 14.5404 72.6608 14.5568C72.3472 14.5789 72.0381 14.6443 71.7425 14.7513H71.7167C71.7089 14.9017 71.654 15.046 71.5598 15.1636C71.5172 15.221 71.4693 15.2743 71.4169 15.3229L71.4356 15.3416C71.5082 15.4212 71.5715 15.4986 71.6347 15.5759C71.8161 15.806 71.9797 16.0496 72.1243 16.3044C72.6131 17.2185 72.9209 18.2184 73.0309 19.2491L73.0895 19.8136L72.7498 19.2912L72.6936 19.2022C72.3689 18.6601 72.0048 18.1426 71.6043 17.6538C71.1493 17.0849 70.6252 16.5749 70.0441 16.1357C70.0207 16.1147 69.9949 16.0983 69.9715 16.0795C69.8942 16.1053 69.8169 16.1311 69.7372 16.1521C69.5241 16.2154 69.3064 16.2616 69.086 16.2904C69.0772 16.3087 69.0693 16.3274 69.0625 16.3466L69.0321 16.4145C69.0137 16.4503 68.9973 16.4871 68.9829 16.5246C68.8178 16.9851 68.7284 17.4692 68.7182 17.9583C68.7182 18.0637 68.7182 18.1691 68.7182 18.2769C68.7182 18.4948 68.7369 18.7173 68.751 18.9328C68.751 19.0289 68.7627 19.1273 68.7674 19.2233L68.7955 19.6918L68.5261 19.3123C67.8795 18.3917 67.589 17.6139 67.5679 16.787C67.5659 16.6477 67.5722 16.5085 67.5867 16.37C67.4766 16.3611 67.3672 16.3462 67.2587 16.3255C67.1639 16.3059 67.0713 16.2768 66.9823 16.2388L66.9284 16.2786C66.7216 16.4275 66.5424 16.6115 66.399 16.8221C66.324 16.9252 66.2491 17.0306 66.1647 17.1431L65.8742 17.5694L65.9234 17.0564C65.9395 16.8931 65.9669 16.731 66.0054 16.5715C66.074 16.2741 66.1786 15.9861 66.317 15.7141C66.3301 15.6911 66.345 15.6692 66.3615 15.6485L66.3849 15.6133C66.406 15.5805 66.4318 15.5501 66.4529 15.5173C66.5181 15.341 66.6308 15.1861 66.7785 15.0699C66.8593 15.0014 66.9455 14.9395 67.0362 14.8848L67.1533 14.8098H67.165H67.1252C67.0839 14.7983 67.0415 14.7912 66.9987 14.7887L66.9354 14.7723L66.8675 14.7559L66.7855 14.7419C66.4234 14.8783 66.0691 15.0347 65.7243 15.2104C65.4253 15.3626 65.1352 15.5316 64.8552 15.7164C64.5871 15.8964 64.3297 16.0919 64.0845 16.3021L63.9955 16.3841C63.4845 16.8342 63.0459 17.3605 62.6953 17.9442L62.8007 17.9958C62.9105 17.7932 63.0662 17.6191 63.2552 17.4874C63.3916 17.3874 63.5458 17.3142 63.7097 17.2719C63.7097 17.2719 63.7471 17.2907 63.7284 17.3656C63.6549 17.614 63.6224 17.8728 63.6324 18.1317C63.6745 18.38 63.6745 18.3776 63.6886 18.38C63.8164 18.2994 63.9503 18.2289 64.0892 18.1691C64.5387 17.9845 65.0118 17.863 65.4947 17.8084C65.8937 17.7709 66.2952 17.7709 66.6942 17.8084C66.7855 17.8459 66.8089 17.8412 66.8207 17.8997C66.8324 17.9583 66.8066 17.9981 66.741 18.0286C66.0338 18.209 65.3544 18.4848 64.7217 18.8485C65.1903 18.8202 65.6606 18.8319 66.1272 18.8836C66.4891 18.9243 66.8471 18.994 67.1978 19.0921C67.5527 19.1916 67.8977 19.3234 68.2286 19.4857C68.7717 19.7545 69.2566 20.1279 69.6552 20.5844C69.6693 20.6031 69.6857 20.6172 69.6997 20.6359C70.2871 21.3429 70.6312 22.2201 70.6813 23.1378C70.6953 23.3359 70.6953 23.5348 70.6813 23.7328L74.3943 22.9715H74.4131L74.1226 20.6429L73.893 18.4526Z" fill="white" fill-opacity="0.7"/>
<path d="M63.5766 17.6188C63.5954 17.5251 63.6188 17.4314 63.6422 17.333C63.3138 17.4511 63.0392 17.6841 62.8691 17.9889L63.5719 18.3239C63.5172 18.0929 63.5172 17.8522 63.5719 17.6211" fill="white" fill-opacity="0.7"/>
<path d="M64.4662 18.8346L64.5458 18.7761C64.9156 18.5458 65.3081 18.3543 65.7171 18.2045C65.86 18.1482 66.0029 18.0967 66.1482 18.0475L66.6729 17.8765C66.2775 17.8319 65.8783 17.8319 65.4829 17.8765C65.3353 17.8952 65.19 17.9187 65.0448 17.9515C64.8996 17.9843 64.773 18.0194 64.6395 18.0616H64.6255C64.3103 18.1645 64.0065 18.2995 63.7189 18.4645C63.6439 18.5067 63.6228 18.4903 63.5994 18.42C63.518 18.1602 63.5099 17.8829 63.576 17.6188C63.5947 17.5251 63.6181 17.4314 63.6416 17.333C63.4552 17.4014 63.2846 17.5068 63.1401 17.6429C62.9956 17.779 62.8801 17.9429 62.8006 18.1248L62.653 17.9983C62.6366 18.0264 62.6225 18.0569 62.6085 18.085C62.5944 18.1131 62.6296 18.181 62.6436 18.2302C62.6717 18.331 62.6998 18.434 62.735 18.5324L62.7514 18.5769C62.7654 18.6214 62.7865 18.687 62.7982 18.7128C62.8852 18.9128 62.9894 19.1049 63.1098 19.2867C63.1354 19.3122 63.1558 19.3425 63.1697 19.3759C63.1836 19.4093 63.1907 19.445 63.1907 19.4812C63.1907 19.5173 63.1836 19.5531 63.1697 19.5865C63.1558 19.6199 63.1354 19.6501 63.1098 19.6756C63.0559 19.7282 62.9836 19.7577 62.9083 19.7576C62.8353 19.7548 62.7646 19.7312 62.7045 19.6897C62.5782 19.5957 62.4689 19.4808 62.3812 19.35C62.3575 19.3149 62.3317 19.2812 62.3039 19.2493C62.2407 19.1673 62.1798 19.0806 62.1236 18.9939C62.0211 18.8315 61.928 18.6634 61.8448 18.4903L61.8167 18.4153C61.6922 18.4014 61.5671 18.3944 61.4419 18.3942C61.2314 18.3902 61.0214 18.417 60.8187 18.4739L60.9476 18.516C61.3563 18.6453 61.7032 18.9205 61.9221 19.2891C61.9619 19.357 62.0088 19.4226 61.908 19.439C61.6272 19.4839 61.3494 19.5465 61.0764 19.6264C60.568 19.7401 60.0866 19.9517 59.6591 20.2496C59.4754 20.4055 59.3009 20.5721 59.1367 20.7485C59.4928 20.6338 59.7669 20.533 60.13 20.444C60.1932 20.4229 60.2588 20.4042 60.3221 20.3878C60.4504 20.352 60.5812 20.3254 60.7133 20.3081C60.7793 20.2984 60.8458 20.2921 60.9124 20.2894C61.1532 20.257 61.3975 20.2633 61.6363 20.3081L61.4372 20.7485C61.3594 20.9586 61.2999 21.1749 61.2591 21.3951C61.2199 21.6078 61.1964 21.8231 61.1889 22.0393C61.1889 22.1822 61.1889 22.3204 61.1889 22.4586C61.1889 22.5969 61.2076 22.728 61.224 22.8592C61.2505 23.056 61.2833 23.2434 61.3224 23.4215C61.3599 23.5972 61.4044 23.7635 61.4512 23.9134C61.4512 23.8666 61.4676 23.8314 61.4723 23.7963C61.5315 23.4309 61.6097 23.0689 61.7066 22.7117C61.7394 22.5945 61.7745 22.4774 61.8143 22.3579C61.8542 22.2384 61.908 22.0838 61.9596 21.948C61.9596 21.9245 61.9807 21.8988 61.99 21.873C62.1017 21.5923 62.2316 21.3192 62.3789 21.0554C62.4281 20.9664 62.4796 20.8797 62.5359 20.793C62.6271 20.6299 62.7297 20.4734 62.8427 20.3245L62.9013 20.2402C62.9247 20.2097 62.9435 20.1957 62.9833 20.2168L63.0255 20.2425C63.1904 20.3295 63.3446 20.4356 63.4846 20.5588L63.5361 20.6056C63.576 20.6384 63.6158 20.6689 63.6533 20.704C63.8208 20.8698 63.9692 21.0536 64.096 21.2522C64.1612 21.3502 64.2207 21.4519 64.2741 21.5567C64.328 21.6598 64.3795 21.7676 64.4263 21.8753C64.4732 21.9831 64.5177 22.1096 64.5599 22.215C64.602 22.3204 64.6442 22.4493 64.6864 22.557C64.8761 21.7746 64.9206 21.0039 64.4919 20.2753C64.4123 20.1676 64.335 20.0575 64.2577 19.9521C64.2225 19.9075 64.2342 19.8911 64.2811 19.8771H64.342C64.7073 19.7983 65.0877 19.8284 65.436 19.9638C65.5457 20.0104 65.6528 20.0628 65.757 20.1207L65.9725 20.2472C65.9272 20.1662 65.8772 20.088 65.8225 20.013C65.6687 19.8022 65.4848 19.6151 65.2767 19.4578C64.9477 19.237 64.5663 19.1069 64.171 19.0806C64.2006 19.0389 64.24 19.0051 64.2858 18.9822C64.3157 18.9539 64.3478 18.9281 64.3818 18.9049C64.415 18.8827 64.4495 18.8624 64.4849 18.844" fill="white" fill-opacity="0.7"/>
<path d="M67.9783 29.353C69.6904 28.9758 71.4527 28.8809 73.1954 29.0719C75.7512 29.2921 78.6045 31.8456 79.0402 34.8113C79.3728 36.3481 79.5251 37.8216 79.743 39.3396C79.786 39.6142 79.7524 39.8954 79.6457 40.1521C79.5391 40.4088 79.3636 40.6311 79.1386 40.7944C78.6776 41.1694 78.1046 41.3796 77.5105 41.3917C77.3065 41.4068 77.103 41.3577 76.9283 41.2515C76.7535 41.1452 76.6164 40.987 76.5359 40.799C76.2179 40.0664 75.9372 39.3182 75.6949 38.5572C75.1655 36.9361 74.205 35.7273 72.4879 35.3431C71.7285 35.1862 70.95 35.1436 70.1781 35.2166C68.4844 35.3572 66.9851 35.985 65.9145 37.3765C65.5325 37.8527 65.255 38.4039 65.1 38.9944C64.945 39.5848 64.916 40.2013 65.0149 40.8037C65.1344 41.5838 64.8767 42.1952 64.1599 42.5115C63.5742 42.7715 62.2647 43.3806 61.6322 43.4321C60.5148 43.5259 59.2006 43.1018 58.7367 42.1086C58.1206 40.785 58.0878 38.5314 58.3689 37.0602C58.8219 34.9698 60.0595 33.1327 61.8266 31.9276C63.8835 30.4681 65.3406 29.8942 67.976 29.3507L67.9783 29.353ZM60.0111 36.1771C60.8024 34.5492 62.1313 33.2442 63.7734 32.4828C66.1958 31.3183 68.8212 30.6349 71.504 30.4705C73.4577 30.3299 75.2264 30.85 76.6577 32.2602C76.8662 32.464 77.0607 32.6772 77.2621 32.888C77.2393 32.7652 77.1862 32.6501 77.1075 32.553C75.9034 30.9132 74.1933 30.2479 72.2583 30.1495C68.4328 29.9527 64.9962 31.0866 61.925 33.3612C60.9763 34.064 60.2173 34.9449 59.9971 36.1724" fill="white" fill-opacity="0.7"/>
<path d="M72.0074 46.421C68.8894 47.0325 66.1766 45.6386 64.9913 43.0781C64.9421 43.0085 64.9222 42.9225 64.9358 42.8384C64.9494 42.7543 64.9954 42.6789 65.0639 42.6283C65.2814 42.4182 65.4484 42.1614 65.5523 41.8774C65.6562 41.5933 65.6942 41.2894 65.6636 40.9885C65.4902 38.3132 66.6334 36.7015 69.2314 36.0034C70.0933 35.7689 70.9936 35.7107 71.8785 35.8324C73.5184 36.0667 74.6756 37.1818 75.1582 38.9809C75.3198 39.5712 75.5377 40.1522 75.7509 40.7215C75.8116 40.9133 75.9177 41.0877 76.0601 41.2298C76.4185 41.539 76.3811 41.867 76.2546 42.2676C75.533 44.5704 73.9471 45.9174 71.998 46.421H72.0074ZM66.6217 41.2931C66.7625 42.0543 67.1254 42.757 67.6646 43.3125C68.2038 43.868 68.8953 44.2516 69.6521 44.415C70.4088 44.5784 71.197 44.5142 71.9174 44.2307C72.6378 43.9471 73.2582 43.4568 73.7005 42.8214C74.1429 42.186 74.3873 41.4339 74.4032 40.6599C74.4191 39.8859 74.2056 39.1245 73.7897 38.4715C73.3738 37.8185 72.774 37.3031 72.0659 36.9903C71.3577 36.6774 70.5728 36.581 69.81 36.7132C69.3001 36.8034 68.8131 36.9939 68.3773 37.2735C67.9415 37.5531 67.5654 37.9164 67.2708 38.3423C66.9763 38.7682 66.7691 39.2483 66.6613 39.7548C66.5535 40.2613 66.5472 40.7841 66.6428 41.2931" fill="white" fill-opacity="0.7"/>
<path d="M72.0983 38.1964C72.5722 38.5167 72.9401 38.9707 73.1553 39.5007C73.3705 40.0306 73.4232 40.6126 73.3067 41.1726C73.1903 41.7326 72.9099 42.2454 72.5013 42.6456C72.0927 43.0459 71.5743 43.3156 71.012 43.4204C70.4497 43.5253 69.8689 43.4605 69.3435 43.2344C68.8181 43.0084 68.3718 42.6311 68.0614 42.1507C67.7509 41.6703 67.5903 41.1085 67.6 40.5366C67.6097 39.9647 67.7893 39.4086 68.1159 38.939C68.5492 38.317 69.2098 37.8905 69.9549 37.7516C70.7001 37.6126 71.47 37.7724 72.0983 38.1964ZM68.1955 40.1314C68.5165 39.281 69.0154 38.6087 69.9619 38.4119C70.8661 38.2245 71.6298 38.5899 72.3513 39.0889C72.0723 38.6859 71.6717 38.3828 71.208 38.2238C70.7444 38.0649 70.242 38.0586 69.7745 38.2057C68.8608 38.4939 68.2119 39.267 68.1979 40.1314" fill="white" fill-opacity="0.7"/>
<path d="M80.4566 38.3909C80.3535 38.4986 80.0419 38.8242 80.1239 39.1194C80.1617 39.2063 80.2176 39.284 80.2879 39.3475C80.3582 39.4109 80.4413 39.4586 80.5316 39.4872C82.1011 40.1478 104.443 34.4154 105.026 34.4506C105.086 34.4541 105.146 34.4412 105.199 34.4131C105.398 34.3053 105.473 33.9446 105.394 33.6845C105.335 33.5091 105.219 33.3585 105.064 33.2566C104.91 33.1547 104.726 33.1074 104.541 33.1223C104.495 33.1312 104.45 33.1454 104.407 33.1645C104.295 33.2207 92.3477 35.999 89.7076 36.6456L89.5225 36.6925C84.7436 37.8474 81.4264 37.3742 80.4566 38.3909Z" fill="white" fill-opacity="0.7"/>
<path d="M118.204 36.9245C114.985 37.5898 111.722 35.54 111.127 32.3095C110.963 31.4616 110.977 30.5889 111.169 29.7468C111.36 28.9047 111.725 28.1117 112.24 27.4181C112.931 26.4811 114.004 25.9962 115.093 25.6237C117.004 24.9678 118.794 25.3191 120.481 26.3499C121.184 26.7786 121.514 27.4931 121.814 28.2099C121.997 28.6433 122.076 29.1189 122.254 29.5546C122.372 29.8776 122.552 30.1745 122.784 30.4284C122.86 30.4952 122.921 30.5782 122.962 30.6714C123.002 30.7646 123.021 30.8656 123.018 30.9672C123.027 32.3648 122.551 33.7224 121.672 34.8087C120.792 35.895 119.563 36.6427 118.194 36.9245H118.204ZM117.78 34.8583C118.542 34.6997 119.241 34.3178 119.786 33.7613C120.331 33.2048 120.698 32.4987 120.84 31.7329C120.983 30.9671 120.895 30.1762 120.586 29.4608C120.278 28.7454 119.764 28.1379 119.11 27.7155C118.455 27.2931 117.69 27.0749 116.911 27.0887C116.132 27.1025 115.375 27.3476 114.736 27.7929C114.097 28.2382 113.605 28.8636 113.322 29.5894C113.039 30.3153 112.979 31.1088 113.148 31.8691C113.372 32.8776 113.985 33.7571 114.853 34.3167C115.722 34.8764 116.776 35.071 117.787 34.8583" fill="white" fill-opacity="0.7"/>
<path d="M124.482 30.0157C124.421 30.0274 124.36 30.0438 124.297 30.0532C123.149 30.2429 122.711 29.8705 122.807 28.7085C122.854 28.4173 123.005 28.1529 123.231 27.9636C123.516 27.7419 123.841 27.5772 124.189 27.4787C124.824 27.2819 125.255 27.5372 125.466 28.165L125.503 28.2705C125.85 29.3855 125.616 29.7908 124.482 30.0157Z" fill="white" fill-opacity="0.7"/>
<path d="M114.77 29.1822C115.134 28.7422 115.62 28.42 116.167 28.2563C116.715 28.0927 117.298 28.095 117.844 28.2628C118.39 28.4307 118.874 28.7566 119.234 29.1994C119.595 29.6422 119.816 30.182 119.87 30.7506C119.925 31.3191 119.809 31.8909 119.538 32.3937C119.267 32.8965 118.853 33.3077 118.349 33.5754C117.844 33.843 117.271 33.9551 116.703 33.8974C116.135 33.8397 115.597 33.6149 115.156 33.2513C114.567 32.7618 114.196 32.059 114.123 31.2965C114.051 30.534 114.283 29.7738 114.77 29.1822ZM119.005 29.7491C118.722 28.9807 117.583 28.4091 116.644 28.5637C115.592 28.7324 114.737 29.5945 114.721 30.4964C115.629 28.3341 117.616 28.388 119.005 29.7491Z" fill="white" fill-opacity="0.7"/>
<path d="M122.578 28.3291C122.392 27.9472 122.205 27.556 122.011 27.1578C121.675 26.494 121.141 25.9512 120.483 25.6046C117.494 23.9507 114.552 24.5832 112.139 26.5745C111.347 27.228 110.968 28.1698 110.757 29.1513C110.572 30.0298 110.522 30.9341 110.365 31.8219C110.269 32.4119 110.137 32.9955 109.97 33.5695C109.905 33.7686 109.793 33.949 109.643 34.0951C109.494 34.2413 109.31 34.3487 109.11 34.4082C108.407 34.6867 107.645 34.781 106.896 34.6822C106.675 34.6424 106.46 34.5764 106.254 34.4855C106.168 34.4612 106.088 34.4201 106.017 34.3647C105.947 34.3092 105.889 34.2404 105.845 34.1623C105.802 34.0841 105.774 33.9982 105.764 33.9093C105.754 33.8205 105.761 33.7305 105.786 33.6445C105.94 32.6934 105.758 31.7493 105.551 30.8146C105.345 29.8377 104.486 26.6611 104.661 25.6725C104.984 23.8477 105.42 23.1285 107.238 21.58C107.449 21.3987 107.674 21.2342 107.91 21.0881C110.675 19.3803 115.212 18.4339 118.319 18.0005C119.691 17.8084 119.912 17.6936 121.27 18.0216C122.545 18.3261 123.807 20.4391 123.77 22.2547C123.688 22.6801 123.557 23.0945 123.379 23.4892C123.102 24.0843 123.639 25.4289 123.718 26.0333C123.73 26.1317 123.735 26.2324 123.754 26.3308C123.88 26.9258 123.918 27.4553 123.175 27.7223C122.941 27.809 122.774 28.1112 122.57 28.3197L122.578 28.3291ZM105.523 24.2646L105.605 24.3279C106.057 23.946 106.484 23.5244 106.969 23.1894C107.462 22.8591 107.981 22.5677 108.519 22.3179C111.635 20.821 114.859 19.6684 118.286 19.1812C119.354 19.0336 120.439 18.9867 121.514 18.893C120.238 18.6506 118.929 18.6364 117.649 18.8509C115.45 19.236 113.296 19.8435 111.221 20.664C109.63 21.2919 108.051 21.9595 106.702 23.0605C106.288 23.4391 105.897 23.8411 105.53 24.2646H105.523ZM123.301 23.1636C124.021 21.9923 122.917 19.1812 122.156 18.9961C122.135 20.0714 122.585 22.2758 123.301 23.1636Z" fill="white" fill-opacity="0.7"/>
<path d="M89.099 34.6425C88.0752 31.3207 86.8149 26.4012 86.6111 22.8428L85.9833 22.9716C76.6339 24.9956 61.1656 28.1793 51.7553 29.9011C51.3998 29.955 51.0511 30.0469 50.7152 30.1752C50.6497 30.2284 50.5986 30.2973 50.5667 30.3755C50.5347 30.4537 50.523 30.5387 50.5325 30.6226C50.5735 30.6897 50.63 30.746 50.6973 30.7867C50.7645 30.8275 50.8406 30.8516 50.919 30.8569C51.582 30.8686 51.8209 30.9951 52.0341 31.6206C52.1589 32.0277 52.2614 32.4414 52.341 32.8598C52.6619 34.2654 53.278 37.2827 53.6341 38.6906C53.8496 39.5456 54.4212 39.9251 55.2013 39.8267C55.2693 39.8267 56.2977 39.7494 57.8813 39.6464C57.8286 38.7545 57.8821 37.8596 58.0406 36.9805C58.5125 34.8016 59.802 32.8866 61.6435 31.6299C63.6699 30.1916 65.1364 29.5778 67.903 29.0085C69.6467 28.6255 71.4412 28.529 73.216 28.7227C75.9967 28.957 78.8899 31.6744 79.3584 34.6988C79.6114 35.9778 79.7988 36.8469 79.9112 37.9175C82.6966 37.3342 87.1476 36.4089 88.2064 36.1746C89.3473 35.9239 89.4386 35.7553 89.0919 34.6332L89.099 34.6425ZM54.2104 38.8335C53.9518 38.2005 53.7587 37.5427 53.6341 36.8704C53.4326 35.6381 52.9899 32.8129 52.854 31.5667C53.011 32.3304 53.1796 33.0917 53.3225 33.8577C53.4654 34.6238 53.9176 37.0414 54.0534 37.8402C54.1729 38.543 54.2877 39.2598 55.2435 39.3512C55.0374 39.4119 54.816 39.392 54.6241 39.2954C54.4323 39.1988 54.2843 39.0328 54.2104 38.8311V38.8335ZM54.7258 30.2384C61.9738 28.4791 69.2992 26.9751 76.6199 25.7336C75.9546 26.1318 56.2813 30.1845 54.7258 30.2384ZM87.9909 35.5374C87.8471 35.5351 87.7093 35.4798 87.6038 35.3821C87.4983 35.2844 87.4326 35.1512 87.4193 35.008C86.8266 32.0329 85.8896 27.4835 85.2618 24.5154C85.236 24.4498 85.224 24.3795 85.2264 24.309C85.2289 24.2385 85.2458 24.1693 85.2761 24.1056C85.3064 24.042 85.3495 23.9852 85.4026 23.9388C85.4558 23.8924 85.5178 23.8575 85.585 23.836C86.2878 27.2164 87.2975 32.164 87.9909 35.5491" fill="white" fill-opacity="0.7"/>
<path d="M85.3647 22.8101L84.0809 23.0748C84.0317 22.8405 83.9708 22.6273 83.9474 22.4095C83.917 22.112 83.7951 22.0487 83.5023 22.112C81.394 22.5571 73.1503 24.2484 71.0513 24.6888L69.7465 24.9582C69.6621 24.9746 69.5802 25.0027 69.4607 25.0379C69.5333 25.3869 69.6012 25.7243 69.6762 26.0897L68.3878 26.3544C68.3175 26.0171 68.2472 25.6704 68.1722 25.3026L54.1142 28.1864C54.1775 28.4956 54.2407 28.7954 54.3063 29.1234L53.0249 29.3858C52.9593 29.0766 52.9007 28.7861 52.8305 28.4487L50.9938 28.8282C50.9236 28.4768 50.8603 28.1747 50.79 27.8279C50.9165 27.7928 51.043 27.753 51.1719 27.7272L85.5287 20.6572C86.2455 20.5096 86.2479 20.5096 86.3884 21.2311C86.4025 21.3038 86.4118 21.3787 86.4306 21.5005L85.1492 21.7582C85.2265 22.1307 85.2921 22.461 85.3647 22.803" fill="white" fill-opacity="0.7"/>
<path d="M101.499 19.5795C101.388 19.4704 101.253 19.39 101.105 19.3452H101.072L101.06 19.3124C100.517 17.7171 99.838 16.1714 99.0294 14.6928C98.8256 14.2922 98.343 13.3552 97.666 13.3153C97.5999 13.307 97.533 13.307 97.4669 13.3153C97.2865 13.3481 96.9164 13.402 96.4057 13.4746C94.4262 13.7558 90.3149 14.3414 89.2771 14.9716C89.1703 15.0242 89.0756 15.0984 88.999 15.1896C88.9224 15.2807 88.8655 15.3868 88.832 15.501C88.8378 15.6031 88.8599 15.7035 88.8976 15.7985V15.8126V15.829C88.8976 15.9461 89.0546 17.0307 89.9167 21.5473V21.6035C89.9167 21.6551 89.8885 21.723 89.8651 21.8097C89.8044 22.01 89.7621 22.2154 89.7386 22.4234C89.2256 27.7599 91.7017 32.834 91.9782 33.3798L103.174 31.0771C103.278 31.0556 103.377 31.0137 103.466 30.9537C103.554 30.8938 103.63 30.8171 103.689 30.7279C103.748 30.6387 103.788 30.5388 103.808 30.4339C103.828 30.329 103.828 30.2212 103.806 30.1166L101.747 20.0949C101.715 19.9027 101.626 19.7246 101.492 19.5842L101.499 19.5795ZM93.1659 22.6483C93.1693 22.6645 93.1694 22.6812 93.1663 22.6974C93.1632 22.7136 93.1568 22.729 93.1477 22.7428C93.1385 22.7565 93.1267 22.7683 93.1129 22.7774C93.0992 22.7866 93.0837 22.7928 93.0675 22.7959L91.4581 23.1286C91.4273 23.2483 91.3563 23.3539 91.2571 23.4277C91.1579 23.5015 91.0364 23.5391 90.9129 23.5343C90.7893 23.5294 90.6711 23.4824 90.578 23.4011C90.4849 23.3197 90.4224 23.2089 90.4011 23.0871C90.3797 22.9653 90.4007 22.8399 90.4605 22.7317C90.5204 22.6235 90.6154 22.539 90.73 22.4924C90.8445 22.4457 90.9715 22.4397 91.09 22.4754C91.2084 22.511 91.311 22.5861 91.3808 22.6882L93.0019 22.4609C93.0335 22.4561 93.0657 22.4636 93.0919 22.4819C93.1181 22.5003 93.1362 22.528 93.1424 22.5593L93.1659 22.6483ZM99.7955 19.4881L91.088 21.2896C90.9854 21.3117 90.8795 21.3131 90.7764 21.2936C90.6733 21.2741 90.5752 21.2341 90.4878 21.176C90.4005 21.1179 90.3256 21.0429 90.2678 20.9553C90.2099 20.8678 90.1702 20.7696 90.1509 20.6665C89.4036 16.7285 89.235 15.5549 89.2256 15.5127C89.2877 15.4084 89.3767 15.3227 89.4833 15.2644C89.7175 15.1238 90.3055 14.8896 91.8118 14.5804C93.3884 14.2571 95.3258 13.983 96.4666 13.819C96.9843 13.7464 97.3568 13.6925 97.5419 13.6574C97.5785 13.6538 97.6154 13.6538 97.652 13.6574C98.1205 13.6855 98.5539 14.5476 98.6991 14.8287C99.3333 15.998 99.8897 17.2078 100.365 18.4504C100.404 18.5556 100.42 18.668 100.412 18.78C100.404 18.892 100.371 19.001 100.317 19.0994C100.263 19.1979 100.189 19.2835 100.099 19.3506C100.009 19.4177 99.9053 19.4646 99.7955 19.4881Z" fill="white" fill-opacity="0.7"/>
<path d="M118.339 16.956C118.216 16.7515 118.063 16.5667 117.885 16.4078C116.793 15.4029 114.943 15.5856 114.186 15.6606C113.811 15.6957 113.532 15.7496 113.453 15.7636C110.065 16.4149 108.325 16.7499 105.357 17.3824C104.773 16.3704 103.543 14.8313 102.995 14.1472C102.292 13.2781 101.976 12.9408 101.538 12.6011C101.697 12.5238 101.803 12.4488 101.819 12.3481C101.852 12.1349 101.475 11.91 101.365 11.8468C100.339 11.2471 99.0971 11.493 98.7738 11.5563C95.883 12.1185 92.4159 12.4512 89.5884 13.4444C89.294 13.5433 89.0148 13.6828 88.7591 13.8591C88.1667 14.27 87.7126 14.8507 87.4566 15.5247L87.4262 15.5762C87.3826 15.6705 87.3534 15.7708 87.3395 15.8737C87.124 17.5792 88.1758 21.1001 88.403 21.742C88.4222 21.8265 88.4114 21.9151 88.3726 21.9926C88.307 22.1098 88.3046 22.0887 88.2765 22.1004C88.0423 22.1918 87.5456 22.9601 87.6089 24.935C87.6185 25.3767 87.6576 25.8173 87.726 26.2539C88.5061 30.5034 89.5369 36.1163 90.8253 36.06C90.8703 36.0583 90.9147 36.0487 90.9565 36.0319C93.0531 35.2964 102.632 33.1763 105.492 32.5508C105.445 31.9931 105.357 31.4396 105.23 30.8946C105.188 30.7025 105.12 30.4143 105.04 30.084C104.607 28.2615 104.195 26.4155 104.337 25.6331C104.68 23.7191 105.181 22.918 107.029 21.3437C107.25 21.1522 107.485 20.9776 107.732 20.8213C110.756 18.9472 115.634 18.0547 118.274 17.6869L118.595 17.6401C118.532 17.4066 118.445 17.1805 118.335 16.9654L118.339 16.956ZM87.473 15.9018C87.4802 15.8451 87.4936 15.7893 87.5128 15.7355C87.6287 15.7188 87.7468 15.7258 87.86 15.756C87.9731 15.7862 88.0789 15.839 88.1711 15.9112C88.2519 15.995 88.3057 16.1011 88.3257 16.2158C88.8716 18.6005 88.9582 20.3669 89.312 21.0134C89.3472 21.0683 89.3622 21.1338 89.3541 21.1985C89.3237 21.4 88.8856 21.6295 88.5342 21.7232C88.3281 21.1376 87.2622 17.5698 87.473 15.9018ZM101.885 20.0787L103.944 30.0981C103.97 30.2198 103.972 30.3456 103.949 30.4681C103.926 30.5905 103.879 30.7072 103.811 30.8112C103.742 30.9153 103.654 31.0046 103.55 31.074C103.447 31.1434 103.331 31.1915 103.208 31.2155L91.8303 33.5417L91.8654 33.4551C91.6312 32.9865 89.08 27.8328 89.6024 22.4073C89.6256 22.1912 89.6695 21.9778 89.7336 21.7701C89.7524 21.6951 89.7711 21.6295 89.7781 21.585V21.5639C88.7989 16.4289 88.7544 15.9253 88.7591 15.8269C88.7165 15.7161 88.6935 15.5988 88.6912 15.4802C88.7257 15.3454 88.7887 15.2196 88.876 15.1113C88.9633 15.003 89.0728 14.9147 89.1972 14.8523C90.2537 14.2081 94.3908 13.6178 96.3773 13.3367C96.8669 13.2664 97.2558 13.2125 97.4315 13.1797C97.5085 13.1637 97.5873 13.1582 97.6657 13.1633C98.4177 13.2102 98.905 14.1589 99.1392 14.6157C99.9454 16.0904 100.624 17.6312 101.168 19.2213C101.351 19.2856 101.512 19.3981 101.636 19.547C101.76 19.696 101.841 19.8757 101.871 20.067L101.885 20.0787ZM104.48 17.9961C103.965 18.3358 102.695 18.9332 102.248 18.5654C102.146 18.4607 102.06 18.3424 101.99 18.214C101.412 17.366 101.215 16.7569 99.8514 14.5267C99.7389 14.344 99.5211 13.9036 99.6429 13.5897C99.6968 13.4515 100.02 13.2711 100.086 13.2195C100.437 12.9431 100.948 12.8541 101.257 12.7276C101.742 13.0884 102.039 13.3976 102.787 14.3182C103.617 15.3163 104.386 16.3647 105.087 17.4573C104.904 17.6575 104.701 17.8381 104.48 17.9961ZM105.806 19.7765C105.795 19.7241 105.795 19.6699 105.805 19.6173C105.815 19.5647 105.836 19.5146 105.865 19.4699C105.895 19.4252 105.933 19.3869 105.978 19.3571C106.022 19.3273 106.072 19.3066 106.125 19.2963L108.118 18.8863C108.171 18.875 108.225 18.8743 108.278 18.8841C108.331 18.8939 108.381 18.9141 108.426 18.9436C108.471 18.973 108.509 19.011 108.539 19.0555C108.57 19.1 108.59 19.15 108.601 19.2026L105.806 19.7765ZM105.701 19.2635C105.682 19.1593 105.705 19.0519 105.765 18.9643C105.824 18.8767 105.916 18.816 106.019 18.795L108.013 18.385C108.066 18.374 108.12 18.3735 108.172 18.3835C108.225 18.3934 108.275 18.4137 108.32 18.4431C108.365 18.4724 108.403 18.5104 108.433 18.5547C108.464 18.599 108.485 18.6488 108.496 18.7013L105.701 19.2635ZM105.595 18.7528C105.585 18.7002 105.584 18.6459 105.594 18.5931C105.604 18.5404 105.625 18.4901 105.654 18.4452C105.684 18.4004 105.722 18.3618 105.767 18.3318C105.811 18.3018 105.861 18.2808 105.914 18.2702L107.908 17.8603C108.014 17.8388 108.124 17.8599 108.214 17.9191C108.304 17.9783 108.368 18.0709 108.39 18.1765L105.595 18.7528Z" fill="white" fill-opacity="0.7"/>
<path d="M149.33 46.3273L127.255 56.5481L125.644 53.9361C125.644 53.9361 128.064 49.3821 128.755 45.8682C129.446 42.3542 127.949 40.8526 126.276 40.4497C124.604 40.0468 117.112 43.4459 117.112 43.4459C116.845 44.0034 116.901 43.6966 116.498 47.3464C116.095 50.9961 118.246 52.4181 118.4 52.1112C118.555 51.8043 118.419 51.6685 118.382 51.4202C118.344 51.1718 118.899 49.8834 119.764 48.6535C120.628 47.4237 123.491 46.0767 123.779 46.2711C124.067 46.4655 124.144 46.7396 124.067 48.3068C123.99 49.874 122.877 51.7083 122.069 52.7461C121.261 53.7839 120.284 55.5572 120.975 56.1241C121.666 56.691 122.357 59.0079 122.357 59.0079C122.357 59.0079 121.666 59.3148 112.68 64.6278C103.693 69.9409 89.8579 80.6115 89.1645 83.2235C88.4711 85.8355 90.8559 85.7582 92.3926 85.6059C93.9294 85.4537 124.552 76.9383 124.552 76.9383C124.552 76.9383 126.454 74.5183 128.242 68.3526C130.029 62.1868 128.068 58.4386 128.068 58.4386L148.004 47.9953L149.33 46.3273ZM121.724 69.7277C119.982 72.8504 119.879 73.0706 119.879 73.0706C119.879 73.0706 104.837 78.2572 104.204 78.1424C103.572 78.0276 107.231 68.8071 122.819 60.9101C122.819 60.9101 124.721 64.3608 121.724 69.7277Z" fill="white" fill-opacity="0.7"/>
<path d="M114.097 53.2053L111.637 54.3578C111.637 54.3578 111.872 55.1918 111.017 57.7616C109.506 62.2688 106.062 62.8849 105.755 63.0372C105.448 63.1895 105.052 61.5567 105.57 57.9936C106.254 53.3786 109.637 52.041 110.958 52.137C111.355 52.1422 111.743 52.2626 112.073 52.4837C112.495 52.7508 112.572 52.3689 112.727 51.9824C112.881 51.5959 112.764 50.2161 111.956 48.4474C111.148 46.6787 108.615 45.067 107.739 45.1818C106.863 45.2966 105.474 46.3344 103.244 49.026C101.014 51.7177 99.5166 58.7081 99.5166 58.7081C99.5166 58.7081 95.0657 63.9063 93.9084 64.0469C91.8797 64.2999 89.9986 59.7341 89.9986 59.7341L93.7046 54.6155C93.7046 54.6155 95.8434 54.5124 97.1881 54.3203C98.5327 54.1283 99.7954 51.7083 99.8423 51.3991C99.8891 51.0899 99.5354 51.0149 97.345 51.132C95.1547 51.2492 92.8425 50.0123 92.8425 50.0123C92.8425 50.0123 92.374 49.8975 91.8422 50.4363C91.3104 50.9751 88.2393 55.7259 88.2393 55.7259C88.2393 55.7259 87.6607 54.1493 87.335 53.1303C86.9172 51.8323 86.7877 50.4589 86.9555 49.1057L80.7007 50.3777C80.7007 50.3777 80.5087 51.1578 81.277 54.4234C82.0454 57.689 84.3576 60.7087 84.3576 60.7087C83.4971 61.9588 82.4728 63.0878 81.3122 64.0656C79.5833 65.4478 78.3206 61.8214 78.3206 61.8214C78.3206 61.8214 73.9025 65.087 72.4805 65.7031C71.0585 66.3192 72.3657 61.2849 72.443 59.863C72.5203 58.441 74.1719 51.7177 74.1719 51.7177L64.115 53.7722C64.115 53.7722 63.9417 56.1148 62.5876 60.5166C61.2336 64.9183 57.6026 67.3734 56.1619 68.4978C54.7211 69.6223 56.2509 63.5409 56.2509 63.5409L47.9486 65.2416C47.9486 65.2416 47.7144 66.0475 46.2784 68.9593C44.8423 71.8712 41.647 74.598 40.7264 74.5113C39.8057 74.4247 38.3978 73.9819 41.1059 69.0835C43.8139 64.1851 48.9864 61.6691 49.3894 61.7839C49.7923 61.8987 50.0242 61.9268 50.1671 61.7535C50.31 61.5801 50.4552 61.0928 49.9937 60.1417C49.5323 59.1906 46.0113 56.1359 44.7205 55.8477C43.4297 55.5596 42.0991 56.8855 39.0982 60.5166C36.0974 64.1476 33.9984 71.2364 33.9984 71.2364C33.9984 71.2364 31.473 73.5438 30.5524 73.6891C29.6317 73.8343 28.5635 70.0861 26.7761 64.15C25.1597 58.7619 23.4144 50.3965 23.1005 48.8644C25.3448 45.1326 27.9263 41.6749 30.8569 38.9364C35.425 34.6681 37.9269 32.691 39.2435 31.932C39.2754 32.0079 39.3012 32.0862 39.3208 32.1662C39.4754 32.7425 37.2124 38.2758 37.2124 38.2758C37.2124 38.2758 43.1674 35.816 44.7439 32.6277C46.3205 29.4394 45.5896 26.134 45.0508 25.2883C44.512 24.4426 42.6309 23.9437 40.8622 24.1357C40.2243 24.2543 39.6131 24.4877 39.0584 24.8245L39.035 24.8385C37.5474 25.6584 35.7085 27.0874 34.1155 28.5867C29.5816 32.3475 25.4569 36.5759 21.8097 41.2017C23.0232 37.2029 25.073 28.7858 20.2332 30.4585C13.9315 32.6441 5.62228 36.5633 5.62228 36.5633L6.55932 38.5241C6.55932 38.5241 9.44074 35.6403 10.3637 37.5425C11.2867 39.4447 12.3175 54.81 7.99535 65.7992C5.90105 70.0674 0 84.7533 0 84.7533L10.6003 82.5793C10.6003 82.5793 13.5216 69.367 17.9046 59.1532C18.6706 63.1567 20.7485 73.9749 21.1538 75.7225C21.6551 77.8753 24.1524 80.1734 28.0716 79.5269C31.9908 78.8803 35.254 75.767 35.254 75.767C35.254 75.767 36.4464 77.5333 37.1281 78.0721C37.8098 78.6109 39.3185 79.9931 43.5047 76.9969C47.691 74.0007 49.0965 69.4466 49.0965 69.4466C49.0965 69.4466 49.1832 72.7263 50.7364 74.0288C52.2895 75.3313 53.517 75.6686 57.7806 73.4244C62.0442 71.1801 66.1812 60.369 66.1812 60.369C66.1812 60.369 65.6354 63.077 65.1153 65.4993C64.5953 67.9216 63.5786 71.5292 67.5844 72.0586C71.5903 72.5881 74.2656 68.8211 74.2656 68.8211C74.2656 68.8211 75.4603 70.4071 76.7862 70.6952C78.1122 70.9834 80.2299 70.0908 81.3824 69.5427C82.535 68.9945 86.4425 64.2811 86.4425 64.2811C86.4425 64.2811 88.2861 67.1626 88.518 67.4507C88.75 67.7388 90.1579 69.4396 93.6718 68.2285C97.1857 67.0173 99.9828 61.8893 99.9828 61.8893C99.9828 61.8893 100.039 62.6109 100.069 63.0419C100.1 63.4729 100.847 65.2908 101.135 65.6937C101.424 66.0967 102.749 66.9892 103.441 67.1345C104.132 67.2797 106.416 67.0525 108.051 65.8952C109.543 64.8387 110.513 64.6255 112.593 60.1183C113.764 57.5883 114.083 53.2053 114.083 53.2053" fill="white" fill-opacity="0.7"/>
</svg>
