<svg width="94" height="94" viewBox="0 0 94 94" fill="none" xmlns="http://www.w3.org/2000/svg">
<path fill-rule="evenodd" clip-rule="evenodd" d="M38.9136 52.7943L38.8477 53.4819L41.42 53.4803L41.4151 40.811H38.9136V52.7943Z" fill="#333333" fill-opacity="0.7"/>
<path fill-rule="evenodd" clip-rule="evenodd" d="M43.2822 23.1394C42.6428 23.3216 42.7993 23.9156 42.7993 24.5836V33.9625C42.7993 34.4925 42.6708 35.3656 43.0647 35.5937C43.2921 35.725 44.5908 35.7447 44.8924 35.6397C45.4065 35.4624 45.2829 34.8191 45.2813 34.1857V24.8084C45.2813 24.2028 45.4082 23.5283 45.0061 23.2395C44.744 23.0508 43.6003 23.0475 43.2822 23.1394Z" fill="#333333" fill-opacity="0.7"/>
<path fill-rule="evenodd" clip-rule="evenodd" d="M47.319 41.63V52.6452C47.319 53.5577 47.9782 53.3903 49.0378 53.3903C49.5602 53.3903 49.8025 53.1655 49.8025 52.6452V41.5545C49.8025 40.6585 48.9785 40.8111 48.1414 40.8111C47.5234 40.8111 47.3174 41.0163 47.3174 41.6317" fill="#333333" fill-opacity="0.7"/>
<path fill-rule="evenodd" clip-rule="evenodd" d="M50.2334 28.0082C53.0482 28.0082 52.7054 28.3513 52.7054 25.5464C52.7054 22.7415 53.0532 23.1091 50.2598 23.1091L50.2334 28.0082Z" fill="#333333" fill-opacity="0.7"/>
<path fill-rule="evenodd" clip-rule="evenodd" d="M30.2953 41.2835L30.2871 45.6733H32.6653V41.3343C32.6043 40.7862 32.1099 40.8075 31.5545 40.8092C30.915 40.8092 30.4206 40.7107 30.3003 41.2835" fill="#333333" fill-opacity="0.7"/>
<path fill-rule="evenodd" clip-rule="evenodd" d="M91.2803 31.4206L89.6323 27.4113C88.9088 25.8433 88.0927 24.3193 87.1883 22.8473L83.0222 17.1033L80.3079 14.1492C80.064 13.908 79.8778 13.7225 79.6355 13.4796C78.0649 11.9074 75.9473 10.3303 74.1806 9.01079C73.6285 8.60051 73.0682 8.25915 72.4848 7.87184C69.5596 5.92052 66.3245 4.42543 63.0137 3.2356C61.5851 2.72459 60.1313 2.28639 58.658 1.92268C57.0953 1.52749 55.5126 1.21523 53.9166 0.987231C52.1436 0.735975 50.3575 0.587475 48.5672 0.54248L46.1908 0.54248C42.7208 0.618278 39.2696 1.0723 35.8989 1.89643C34.4223 2.25411 32.9666 2.69241 31.5383 3.20934C28.0247 4.52226 26.9667 5.05892 23.8239 6.76735L22.0556 7.83409C20.2099 9.05511 18.8387 10.1219 17.1544 11.4446L13.5156 14.8205C12.5697 15.7559 11.7572 16.844 10.864 17.8369C10.1833 18.5918 9.6428 19.437 9.02974 20.2526C7.50039 22.286 6.95325 23.5842 5.79305 25.5158C5.18328 26.53 4.47464 28.1827 4.0099 29.3216C1.99108 34.3599 0.529297 40.1023 0.529297 45.6494C0.529297 50.6155 0.68421 53.5597 1.89055 58.3617C2.24973 59.8322 2.68987 61.2819 3.20896 62.7042C3.48089 63.4279 3.70337 64.0483 3.98847 64.7572C4.90312 67.0549 6.04684 69.1687 7.30757 71.2775C8.26506 72.8809 9.38077 74.3498 10.5031 75.8366C10.6283 76.0007 10.6992 76.1123 10.8327 76.2568C11.065 76.521 11.2546 76.7491 11.4787 77.0281L14.1946 79.9822L14.867 80.6518L17.1182 82.6523C17.3885 82.8706 17.634 83.0593 17.896 83.2924C18.1581 83.5254 18.4218 83.7059 18.6887 83.9176C20.8312 85.6195 23.1944 87.0588 25.6005 88.3487C31.3537 91.4341 39.3301 93.584 45.8315 93.584C50.8184 93.584 53.7749 93.4297 58.597 92.2284C61.4755 91.4933 64.2827 90.5048 66.9854 89.2743C68.2758 88.7016 69.4343 88.0369 70.672 87.364C71.0115 87.1786 71.2389 87.0358 71.5668 86.8405L77.3349 82.6917C77.5996 82.4864 77.8532 82.2673 78.0946 82.0352L78.8428 81.3657C78.9503 81.2505 79.0636 81.141 79.1823 81.0374C80.1925 80.1988 81.0874 79.2092 81.9839 78.2475L83.6319 76.3109C83.8577 76.0582 84.0456 75.7874 84.2582 75.5215C85.3161 74.1922 86.2856 72.7953 87.1603 71.3399C90.43 65.9356 92.6334 60.016 93.5299 53.7156C93.76 52.0929 93.9052 50.4594 93.965 48.8217V45.2358C93.7837 40.4913 92.9036 35.75 91.2803 31.4206ZM56.5304 21.6099H59.5907L66.2306 46.6275L66.2586 46.5766C66.4349 46.2107 66.8931 44.2413 67.0826 43.5504C67.0826 43.5422 67.0826 43.534 67.0826 43.5274L69.5431 34.1433L69.6568 33.6953C70.5467 30.1635 71.5207 26.7007 72.4287 23.1788C72.5617 22.6613 72.6935 22.1427 72.8243 21.623H75.9242V54.6576L72.5589 54.6757C72.5589 52.4618 72.6216 36.8725 72.5243 36.0438L67.6643 54.6757H67.0299H64.81C64.7457 54.3819 64.6749 54.0849 64.6007 53.7862C64.2958 52.5438 63.9316 51.2769 63.6119 50.0509C63.2114 48.5148 62.8011 46.9902 62.4055 45.4475C62.2226 44.7287 62.0281 43.9967 61.832 43.2582C61.2519 41.087 60.6422 38.8616 60.1379 36.7675C60.1111 36.6284 60.0679 36.4929 60.0093 36.3638C59.989 36.3187 59.9572 36.2796 59.917 36.2505V54.6478L57.0116 54.6576H56.5287L56.5304 21.6099ZM66.2421 59.9979C66.837 59.9618 66.6327 60.0685 66.9013 60.4443C67.2985 60.0964 66.9013 59.9848 67.6149 59.9848C67.4501 60.3705 67.2425 60.4771 67.132 60.8595C67.3656 61.0911 67.5445 61.3713 67.6561 61.6801C66.959 61.6801 67.2837 61.4306 66.8865 61.1254C66.7861 61.3264 66.6603 61.5139 66.5124 61.6834H66.1828C66.2108 61.452 66.5602 61.0614 66.7167 60.8119L66.2421 59.9979ZM65.9306 59.9979C65.9306 60.5411 65.9801 61.1681 65.8944 61.6965L65.6027 61.685C65.5677 61.3783 65.5583 61.0693 65.5747 60.7611C65.5714 59.97 65.4461 59.9946 65.9306 59.9946V59.9979ZM64.6534 60.6084C65.0605 60.7233 65.5994 60.6856 65.4181 61.3371C65.2962 61.7835 64.7902 61.6899 64.2777 61.6899L64.2678 59.993C64.8166 60.0094 64.571 60.0554 64.6534 60.6084ZM62.867 59.993V60.6495H63.5559C63.5559 60.0816 63.3911 60.0078 63.9168 59.993L63.8772 61.6916L63.5674 61.6801L63.5559 60.9449H62.867L62.8307 61.6916L62.5374 61.6801C62.5027 61.3481 62.4928 61.0141 62.5077 60.6806C62.4945 60.1062 62.3561 60.0029 62.867 59.9946V59.993ZM62.3264 60.0865C62.2852 60.377 62.3363 60.29 61.9556 60.2933L61.9243 61.6834H61.6211L61.5964 60.2868C61.1596 60.2868 61.2388 60.3803 61.2223 59.9864C61.5189 59.9946 62.1073 59.906 62.3297 60.0882L62.3264 60.0865ZM60.5136 61.685C59.9484 61.8393 59.4787 61.5784 59.3402 61.1467C59.1557 60.5773 59.3979 60.2096 59.9319 60.016C61.1184 59.586 61.5964 61.3913 60.5169 61.6867L60.5136 61.685ZM59.0551 61.4569C58.6316 61.7704 58.5607 61.6899 57.9642 61.6899L57.9378 61.4274V59.993C58.3597 59.993 59.2562 59.9618 58.8261 60.7578C59.065 61.022 59.1095 61.0072 59.0502 61.4585L59.0551 61.4569ZM56.0673 59.9946C56.5254 60.0094 56.4068 59.8683 56.4068 61.0122L56.5617 60.8907C56.5768 60.8779 56.5911 60.8642 56.6045 60.8497C57.0561 60.4016 57.0561 59.9733 57.5505 59.952C57.5963 60.5302 57.5891 61.1114 57.5291 61.6883L57.2324 61.667L57.2209 60.6675L57.1715 60.7053L57.0347 60.8201C56.5782 61.26 56.6029 61.6883 56.0689 61.7211L56.0673 59.9946ZM54.5709 60.6216V59.9946C55.0307 60.0094 54.828 59.9799 54.9005 60.1719C54.9928 60.4131 54.8708 60.3836 55.0554 60.5855C55.1922 60.2753 55.3158 59.9503 55.8151 60.0209C55.6503 60.2769 55.4328 60.5001 55.2449 60.7594C55.3883 61.0696 55.7739 61.4487 55.8217 61.6916C55.474 61.6916 55.4674 61.7047 55.2944 61.4569C55.1213 61.2091 55.207 61.2485 54.9137 61.0171L54.8906 61.6735L54.589 61.6867L54.5577 60.9843C53.915 61.7622 54.2281 61.6899 53.6645 61.6817C53.8293 61.2698 54.1408 61.0959 54.2677 60.7233C54.0393 60.5064 53.8394 60.2615 53.6727 59.9946C54.3863 59.9848 53.9249 60.0291 54.5676 60.6216H54.5709ZM48.6381 21.5032C49.4242 21.4556 51.7693 21.4064 52.6988 21.6C52.7802 21.6158 52.8601 21.6383 52.9377 21.6673C53.6546 21.9611 54.0056 22.396 54.177 23.0163C54.3015 23.5797 54.353 24.1566 54.3303 24.733C54.3303 25.1613 54.3517 25.6241 54.3616 26.0869C54.3797 27.006 54.3451 27.925 53.9776 28.5897L53.9628 28.6143C53.9298 28.6717 53.8952 28.7275 53.8573 28.7784C53.3266 29.5153 52.4038 29.622 51.3391 29.6285C50.9848 29.6285 50.614 29.6285 50.2383 29.6285V37.314L48.6133 37.296L48.6381 21.5032ZM52.7037 61.6899C52.3626 61.6095 52.5208 61.5078 52.4779 61.068C52.0857 61.4077 52.3131 61.6932 51.6539 61.6867C51.7732 61.4553 51.9139 61.2356 52.0742 61.0302C51.6638 60.7709 51.3227 59.8732 52.8388 60.0176C52.8388 60.313 52.8388 60.6117 52.8388 60.9088C52.8388 61.0187 52.8537 61.2682 52.8388 61.3617C52.8042 61.7802 52.8899 61.5587 52.7004 61.6899H52.7037ZM51.3326 40.7637C51.3904 41.124 51.4185 41.4885 51.4166 41.8534C51.4479 42.8233 51.4594 44.3053 51.4594 45.8233C51.4594 48.2506 51.4331 50.7714 51.4331 51.4541C51.4331 52.5438 51.6144 54.2999 50.029 54.8595C49.8835 54.9107 49.7342 54.9502 49.5824 54.9777C49.3643 55.0166 49.1442 55.0429 48.9232 55.0564C48.2575 55.1208 47.5861 55.0228 46.967 54.7709C46.8381 54.7147 46.7146 54.6471 46.5978 54.569C46.5714 54.551 46.5467 54.5296 46.5204 54.5099C46.494 54.4902 46.4281 54.441 46.3836 54.4016C46.0943 54.1412 45.8876 53.8024 45.7886 53.4268C45.67 53.0017 45.6568 49.9951 45.6667 47.2462C45.6749 45.2375 45.6947 43.3666 45.6947 42.7462C45.6947 41.6401 45.5695 40.0449 46.9159 39.4393C47.1324 39.3439 47.3607 39.2776 47.5949 39.2423C49.4176 38.9453 50.8563 39.3556 51.3293 40.7637H51.3326ZM49.884 61.7047C49.884 62.284 49.5708 62.2726 49.5642 61.6916L48.5392 61.7195C48.5392 62.1281 48.6117 62.0477 48.2953 62.0805C48.1964 61.9361 48.2195 62.0805 48.2195 61.6522C48.2195 61.1123 48.4238 61.5898 48.5227 60.981C48.5473 60.6533 48.5517 60.3245 48.5359 59.9963L49.6977 60.0143V61.3945L50.1806 61.365L50.2383 59.9914L51.4199 60.0143L51.3886 61.6817H51.0854L51.0606 60.2851H50.5942C50.591 61.2534 50.7162 61.7047 49.8807 61.7047H49.884ZM46.377 61.6916L46.344 61.429V59.9946H46.7181C47.2801 59.9946 47.4795 60.3081 47.2323 60.7594C48.0431 61.5833 47.084 61.6916 46.3737 61.6916H46.377ZM45.4261 61.6916C44.1357 62.0051 43.7929 60.2556 44.9317 59.9782C46.1512 59.6894 46.4792 61.4421 45.4228 61.6982L45.4261 61.6916ZM41.222 23.3068C41.2513 23.143 41.3017 22.9835 41.372 22.8325C41.502 22.5243 41.7026 22.2506 41.9579 22.0335C42.2132 21.8163 42.516 21.6617 42.842 21.582C43.1416 21.5174 43.4468 21.4822 43.7533 21.4769C44.3746 21.4556 45.08 21.5016 45.4277 21.6279L45.5167 21.6673C45.7858 21.7856 46.0306 21.9525 46.2385 22.1597C46.4729 22.388 46.655 22.664 46.7725 22.9687C46.8384 23.1526 46.8796 23.8189 46.9043 24.7379C46.9785 27.4704 46.9043 32.4267 46.9043 33.5115C46.9043 34.1187 46.962 34.8408 46.8384 35.494C46.7099 36.1734 46.3836 36.779 45.5876 37.1072C45.4858 37.1484 45.3818 37.1841 45.2761 37.2139L45.2069 37.2303C44.6251 37.3632 43.1996 37.3616 42.7151 37.2057C42.6558 37.186 42.5997 37.163 42.5503 37.14C42.5256 37.1302 42.4992 37.122 42.4761 37.1105C42.1569 36.9702 41.8773 36.7538 41.662 36.4803C41.5247 36.3058 41.4136 36.1123 41.3324 35.9059C41.2648 35.7418 41.222 35.1559 41.194 34.3435C41.0984 31.6553 41.1775 26.4398 41.1775 25.3172C41.1709 24.7067 41.0968 23.937 41.222 23.3068ZM42.3756 56.5548L42.3476 55.1221H37.6672V56.5302H36.0423V55.3962L36.0538 53.476H36.3291C36.6306 53.476 36.8647 53.4645 37.0278 53.3644C37.191 53.2643 37.28 53.0805 37.28 52.7309C37.3063 51.8234 37.28 48.9235 37.2684 46.0383C37.2684 45.6543 37.2684 45.2703 37.2684 44.8895C37.2602 43.2779 37.2585 41.7566 37.2684 40.6915C37.2684 40.6291 37.2684 40.5684 37.2684 40.5093C37.2619 40.077 37.2806 39.6446 37.3245 39.2145H39.4669H43.0365V53.4744L43.3941 53.4859L43.9907 53.5056L43.9775 55.4076V56.5482H43.9626L42.3756 56.5548ZM42.7349 61.6916C42.3558 61.6916 42.5404 61.7375 42.3806 61.5767C42.3806 61.5767 42.2619 61.1894 41.7082 61.3371C41.306 61.5701 41.7691 61.6867 41.1314 61.6916C41.1314 61.6128 41.6455 59.9815 41.9389 59.9651C42.2322 59.9487 42.7398 61.5931 42.7398 61.6916H42.7349ZM40.9056 61.429C40.7243 61.7671 40.3469 61.685 39.8541 61.6867L39.8212 61.4224V59.9881C40.3156 59.9881 40.3502 59.9487 40.754 60.1276C40.8347 60.4246 40.8347 60.5313 40.6979 60.7693C40.955 60.9367 41.0704 61.0778 40.9056 61.429ZM38.928 61.6982C37.5964 62.0264 37.2964 60.2441 38.4336 59.9799C39.6712 59.6878 39.9398 61.4487 38.928 61.6982ZM37.2009 61.6982L36.9042 61.6768V60.2999C36.4675 60.2999 36.5581 60.4016 36.5318 59.9996H37.6359C37.6129 60.3984 37.692 60.2999 37.2421 60.2999C37.2649 60.7649 37.2484 61.231 37.1926 61.6932L37.2009 61.6982ZM43.4402 59.9996C44.3071 59.9996 44.429 61.0581 43.3578 61.0811L43.3348 61.2107L43.3117 61.6834L43.0068 61.6982L42.9722 61.4339V59.9996H43.4402ZM33.5357 21.4983H35.1375L35.1458 23.3987L35.1656 27.9365L36.456 24.7034C36.5581 24.4441 36.6554 24.1996 36.7509 23.9551L37.1102 23.0475C37.1844 22.8621 37.2437 22.6996 37.2964 22.5552C37.4958 22.007 37.5684 21.7346 37.72 21.6C37.8716 21.4655 38.0628 21.4802 38.4879 21.4999C38.7302 21.5098 39.0433 21.5278 39.457 21.5311L37.2651 27.1487C37.1681 27.3777 37.0834 27.6116 37.0113 27.8495C36.9207 28.2007 37.0262 28.3287 37.2388 29.1198C37.5173 30.1586 37.7859 31.2073 38.0628 32.2576C38.2067 32.8189 38.3506 33.3802 38.4945 33.9414C38.7846 35.0689 39.0779 36.1964 39.3861 37.3091H37.6903L35.8956 30.6247C35.6007 31.1561 35.3789 31.7247 35.2364 32.3151C35.1575 32.7354 35.1221 33.1627 35.131 33.5902V37.3124H33.4895L33.5011 32.6679L33.5357 21.4983ZM35.9006 61.6949C35.8268 61.7043 35.7519 61.697 35.6814 61.6735C35.4507 61.5997 35.4358 61.1812 34.8458 61.3453C34.4025 61.6013 34.981 61.6949 34.2377 61.6982C34.3168 61.4241 34.8195 59.9881 35.0733 59.975C35.3271 59.9618 35.8314 61.429 35.8923 61.6899L35.9006 61.6949ZM28.6592 40.9836C28.6877 40.8487 28.7291 40.7168 28.7828 40.5897C28.8712 40.3823 28.9895 40.1888 29.1338 40.0153C29.1586 39.9858 29.1849 39.9579 29.2096 39.93C29.3229 39.8083 29.4482 39.6983 29.5837 39.6018C29.7708 39.4787 29.9776 39.3883 30.1952 39.3343C31.2318 39.0471 32.832 39.1931 33.4088 39.6329C33.6613 39.8288 33.8729 40.0718 34.0317 40.3485C34.1615 40.5673 34.2492 40.8083 34.2905 41.0591C34.4553 42.1012 34.3135 44.54 34.3135 45.7282C34.3135 47.4349 34.4009 53.8666 34.2971 55.017L32.7051 54.9875V47.325H30.2429V49.7161V55.0039H29.0448H28.646C28.4994 53.7534 28.623 51.6707 28.623 50.3316C28.623 48.9924 28.5208 41.6827 28.6592 40.9836ZM33.1369 59.9946V60.6166C33.3675 60.4553 33.5562 60.2415 33.6873 59.993L34.1372 60.0209C33.9382 60.277 33.6982 60.4988 33.4269 60.6774C33.5917 61.0335 34.0037 61.3059 34.1619 61.6817H33.6873C33.5639 61.4115 33.3781 61.1742 33.1451 60.9892L33.0924 61.6949L32.799 61.6719C32.7747 61.3443 32.7675 61.0156 32.7776 60.6872C32.7693 60.1161 32.6243 60.0094 33.1369 59.9946ZM32.3689 60.9104C32.8633 61.6407 31.975 61.7178 31.3471 61.6817V60.0176C32.0508 59.9356 32.415 60.0176 32.3096 60.6232C32.2667 60.8366 32.2354 60.7085 32.3689 60.9104ZM31.1395 61.6522C30.8099 61.7901 30.7505 61.6128 30.678 61.3371C29.7551 61.3371 30.0798 61.3174 29.9364 61.4635C29.704 61.6982 30.0122 61.6916 29.4915 61.6916C29.5162 61.4602 29.7551 60.9793 29.8656 60.7217C30.1952 59.9635 30.0534 59.9815 30.4555 59.952L31.1395 61.6522ZM28.445 60.034C28.4626 60.0257 28.4807 60.0185 28.4994 60.0127L28.562 59.9996H29.4552C29.4371 60.3934 29.5178 60.2999 29.0811 60.2999C29.1083 60.7661 29.0968 61.2338 29.0465 61.6982L28.7334 61.6867V60.2999C28.3494 60.2999 28.4038 60.3836 28.3593 60.0931L28.445 60.034ZM28.2307 60.0718V60.4394C27.9094 60.2753 28.0017 60.2605 27.5501 60.313C27.2057 60.5018 26.9601 61.7556 28.2357 61.2682C28.2357 61.5964 28.1747 61.9246 27.4792 61.6768C26.4031 61.2994 27.0409 59.4416 28.2307 60.0718ZM21.2135 39.2128H21.909H22.7775C22.7856 39.2469 22.7916 39.2814 22.7956 39.3162C22.9258 40.2205 22.7346 44.4743 22.8368 45.7068H25.2841L25.3121 39.9628V39.2095H25.8395H26.8925L26.8827 55.0006L25.2973 54.9892C25.261 54.5116 25.2627 53.5351 25.2725 52.4339V52.4027C25.2725 52.1171 25.2725 51.8234 25.2824 51.5296C25.3055 49.6357 25.3335 47.6746 25.2363 47.3332L22.822 47.3431L22.7972 55.022L21.1921 54.9908L21.2135 39.2128ZM26.1262 61.6867C25.2033 61.964 24.643 61.0876 24.9957 60.4115C25.1325 60.1506 25.2725 60.0948 25.5395 60.0094C26.7492 59.6237 27.1414 61.3814 26.1262 61.6867ZM23.1301 62.0674L23.1202 61.5029C23.3345 61.0401 23.44 61.7441 23.4367 60.0078L24.5903 59.9946C24.5903 61.9181 24.7732 61.1648 24.7913 61.7326C24.8029 62.1216 24.4485 62.3989 24.4403 61.6916H23.4367C23.4367 62.0937 23.5289 62.0855 23.1301 62.0674ZM16.3502 50.1839C17.896 49.7276 19.0892 50.7599 19.4007 51.8693C19.4926 52.1864 19.5196 52.5186 19.48 52.8462C19.4404 53.1739 19.3351 53.4903 19.1703 53.7766C19.0055 54.0629 18.7846 54.3132 18.5206 54.5128C18.2567 54.7124 17.9552 54.8571 17.634 54.9383C14.5555 55.7113 13.1514 51.1259 16.3502 50.1839ZM68.2922 68.6139C65.8647 69.7234 63.0631 70.2731 60.1082 70.3897C56.9358 70.516 54.0106 69.8038 50.8414 69.8038C50.1229 69.8038 48.5507 69.7693 48.0629 70.0631C48.7633 71.6205 51.8533 70.4061 51.8533 72.7431C51.8533 74.5959 49.3483 74.6763 47.6295 74.7568C44.4158 74.9077 40.0486 74.2644 38.0001 71.9094C37.4596 71.289 37.2124 70.8328 36.3521 70.4159C35.0832 69.7956 33.8323 69.9006 32.4809 69.9925C32.8106 70.987 33.0528 71.0592 34.129 71.3054C34.9315 71.4876 35.6023 71.9422 35.7193 72.7611C36.011 74.7879 33.562 74.998 31.8563 74.998C28.6905 74.998 25.1391 74.1774 22.6077 72.5035C21.0635 71.481 19.7138 70.1271 18.8634 68.4186C17.339 65.353 17.1462 60.0816 17.227 56.5072L20.4208 56.586C20.3763 60.0209 20.4472 65.1003 22.11 67.6358C23.4647 69.7004 26.2037 71.2463 29.6497 71.6468C29.1553 69.9515 29.0531 69.4723 29.3299 67.772L29.4354 67.4126C29.587 67.0581 32.9638 66.7348 33.7994 66.7348C35.8495 66.7348 38.4303 67.4274 39.6696 68.9077C40.3667 69.7381 40.6155 70.2206 41.8548 70.7491C42.904 71.1818 44.0176 71.439 45.1509 71.5106C44.9416 70.7294 44.6647 70.3454 44.6647 69.3213C44.6647 67.7064 44.8097 67.5932 46.4511 67.1189C52.4417 65.3842 58.3926 68.8142 65.8219 66.1588C68.9877 65.0264 71.173 63.0308 72.231 60.1112C72.7353 58.7228 72.6727 58.0368 72.8622 56.5712L76.0412 56.5056C76.0412 61.9213 73.1308 66.3984 68.284 68.6139H68.2922Z" fill="#333333" fill-opacity="0.7"/>
<path fill-rule="evenodd" clip-rule="evenodd" d="M59.92 60.3508C59.3515 60.6789 59.7634 61.6946 60.4572 61.3353C61.0784 61.0202 60.6219 59.934 59.92 60.3508Z" fill="#333333" fill-opacity="0.7"/>
<path fill-rule="evenodd" clip-rule="evenodd" d="M38.3577 60.3731C38.2143 60.4536 38.1714 60.3814 38.1071 60.6915C37.9852 61.2659 38.4977 61.5777 38.9312 61.3348C39.4982 61.0148 39.0762 59.9694 38.3626 60.3731" fill="#333333" fill-opacity="0.7"/>
<path fill-rule="evenodd" clip-rule="evenodd" d="M44.861 60.3829C44.7387 60.4614 44.6518 60.5841 44.6185 60.7251C44.5851 60.8662 44.608 61.0146 44.6823 61.1392C44.7565 61.2637 44.8764 61.3548 45.0167 61.3931C45.1569 61.4315 45.3067 61.4141 45.4344 61.3448C46.011 61.046 45.5662 59.9151 44.861 60.3829Z" fill="#333333" fill-opacity="0.7"/>
<path fill-rule="evenodd" clip-rule="evenodd" d="M25.5201 60.3965C25.3954 60.4716 25.3054 60.5927 25.2698 60.7334C25.2341 60.8741 25.2556 61.0232 25.3295 61.1483C25.4035 61.2734 25.5239 61.3643 25.6648 61.4015C25.8057 61.4387 25.9556 61.4191 26.082 61.3469C26.6785 61.035 26.2105 59.8942 25.5201 60.3965Z" fill="#333333" fill-opacity="0.7"/>
<path fill-rule="evenodd" clip-rule="evenodd" d="M23.7744 60.7594C23.7679 60.9733 23.7324 61.1852 23.6689 61.3896H24.2605V60.2949H23.7761L23.7744 60.7594Z" fill="#333333" fill-opacity="0.7"/>
<path fill-rule="evenodd" clip-rule="evenodd" d="M48.8717 60.7594C48.8812 60.9747 48.8447 61.1895 48.7646 61.3896H49.3545V60.2949H48.8717V60.7594Z" fill="#333333" fill-opacity="0.7"/>
<path fill-rule="evenodd" clip-rule="evenodd" d="M64.624 61.3895C64.835 61.3895 65.1185 61.4043 65.0756 61.1482C65.0394 60.9282 64.8119 60.9594 64.624 60.9463V61.3895Z" fill="#333333" fill-opacity="0.7"/>
<path fill-rule="evenodd" clip-rule="evenodd" d="M40.1836 61.4092C40.5774 61.3747 40.5873 61.4256 40.6038 61.0251L40.1836 60.9644V61.4092Z" fill="#333333" fill-opacity="0.7"/>
<path fill-rule="evenodd" clip-rule="evenodd" d="M46.7176 61.4092C47.1231 61.3911 47.1066 61.4092 47.1116 61.0301L46.7061 60.9497L46.7176 61.4092Z" fill="#333333" fill-opacity="0.7"/>
<path fill-rule="evenodd" clip-rule="evenodd" d="M31.7098 61.4087C32.0494 61.3906 32.0708 61.4087 32.1301 61.1298C31.9653 60.9576 32.0098 60.9789 31.6982 60.9658L31.7098 61.4087Z" fill="#333333" fill-opacity="0.7"/>
<path fill-rule="evenodd" clip-rule="evenodd" d="M58.2725 61.3814C58.6779 61.4454 58.691 61.3814 58.6976 61.0302L58.3104 60.9629L58.2725 61.3814Z" fill="#333333" fill-opacity="0.7"/>
<path fill-rule="evenodd" clip-rule="evenodd" d="M52.4948 60.7594V60.2803C51.9048 60.3508 51.9427 60.7217 52.4948 60.7627" fill="#333333" fill-opacity="0.7"/>
<path fill-rule="evenodd" clip-rule="evenodd" d="M43.3232 60.7725C43.8884 60.6986 43.9 60.3572 43.3232 60.2915V60.7725Z" fill="#333333" fill-opacity="0.7"/>
<path fill-rule="evenodd" clip-rule="evenodd" d="M30.0918 61.0496L30.5284 61.0562L30.3422 60.5376L30.0918 61.0496Z" fill="#333333" fill-opacity="0.7"/>
<path fill-rule="evenodd" clip-rule="evenodd" d="M58.2705 60.6836C58.4205 60.6655 58.5523 60.7164 58.5919 60.5195C58.6364 60.2997 58.4402 60.3079 58.2705 60.2734V60.6836Z" fill="#333333" fill-opacity="0.7"/>
<path fill-rule="evenodd" clip-rule="evenodd" d="M41.7295 61.0329L42.1564 61.0542L42.0443 60.7263C42.017 60.6748 41.982 60.6278 41.9405 60.5869L41.7295 61.0329Z" fill="#333333" fill-opacity="0.7"/>
<path fill-rule="evenodd" clip-rule="evenodd" d="M34.8535 61.0286L35.2821 61.0581L35.0925 60.5479L34.8535 61.0286Z" fill="#333333" fill-opacity="0.7"/>
<path fill-rule="evenodd" clip-rule="evenodd" d="M40.1836 60.6841C40.3484 60.6545 40.4489 60.6841 40.4852 60.5199C40.5313 60.3164 40.3484 60.318 40.1836 60.2803V60.6841Z" fill="#333333" fill-opacity="0.7"/>
<path fill-rule="evenodd" clip-rule="evenodd" d="M31.6982 60.6836C32.0837 60.6491 32.1925 60.403 31.7724 60.2783C31.734 60.3321 31.7102 60.3948 31.7032 60.4604C31.6982 60.5348 31.6982 60.6093 31.7032 60.6836" fill="#333333" fill-opacity="0.7"/>
<path fill-rule="evenodd" clip-rule="evenodd" d="M46.7044 60.6841C47.0685 60.6282 47.1641 60.441 46.7966 60.2817C46.6945 60.446 46.7044 60.3967 46.7044 60.6841Z" fill="#333333" fill-opacity="0.7"/>
</svg>
