<svg width="150" height="96" viewBox="0 0 150 96" fill="none" xmlns="http://www.w3.org/2000/svg">
<path d="M35.4567 95.7707H34.9577V91.8023H34.2361C34.0754 91.9921 33.9297 92.1942 33.8004 92.4067C33.5779 92.7675 33.3038 93.2126 33.0578 93.6483C32.1676 95.2295 31.8397 95.7801 31.4789 95.7801H30.9893C30.6285 95.7801 30.3006 95.2295 29.408 93.6483C29.1738 93.2126 28.888 92.7675 28.6654 92.4067C28.5373 92.194 28.3924 91.9919 28.232 91.8023H27.5175V95.7847H27.0186V91.2939H28.2601C28.6209 91.2939 28.9489 91.8445 29.8297 93.4257C30.085 93.8615 30.3591 94.3276 30.584 94.6673C30.7015 94.8868 30.8472 95.09 31.0174 95.2717H31.4625C31.634 95.0906 31.7806 94.8873 31.8982 94.6673C32.1325 94.3276 32.3972 93.8615 32.6525 93.4257C33.5334 91.8445 33.8613 91.2939 34.2221 91.2939H35.4637L35.4567 95.7707Z" fill="#1D1D1B" fill-opacity="0.7"/>
<path d="M49.3806 94.7751H42.7604L42.2614 95.7707H41.6875L41.9639 95.2717L43.3695 92.4301C43.92 91.2939 44.5572 91.2939 45.0773 91.2939H47.0732C47.5932 91.2939 48.2281 91.2939 48.7809 92.4301L50.2451 95.3584L50.4559 95.7707H49.8843L49.3806 94.7751ZM49.1464 94.2761L48.3405 92.6527C47.8978 91.8023 47.5347 91.8023 47.0685 91.8023H45.0726C44.6041 91.8023 44.2456 91.8023 43.8099 92.662L43.004 94.2855L49.1464 94.2761Z" fill="#1D1D1B" fill-opacity="0.7"/>
<path d="M56.9472 95.7707H56.4482V91.2939H61.6676C63.3964 91.2939 64.289 91.3572 64.5654 91.6336C64.8934 91.9311 64.8934 92.2919 64.8934 92.7909C64.8934 93.2899 64.8934 93.6389 64.5654 93.9458C64.289 94.2222 63.3941 94.2761 61.6676 94.2761H56.9472V95.7707ZM56.9472 93.7771H61.6676C62.1361 93.7771 62.7405 93.7771 63.2606 93.756C63.5867 93.7497 63.9109 93.7033 64.2257 93.6178C64.3944 93.4468 64.3944 93.2899 64.3944 92.7909C64.3944 92.2919 64.3944 92.1537 64.2257 91.9827C64.2046 91.9616 64.0336 91.8773 63.2606 91.8234C62.7405 91.7929 62.1361 91.7929 61.6676 91.7929H56.9472V93.7771Z" fill="#1D1D1B" fill-opacity="0.7"/>
<path d="M79.5725 95.7707H78.9353L78.8814 95.6536C78.8509 95.6536 78.1388 94.6884 77.6609 94.1894C77.2275 93.7771 75.7306 93.7771 74.8498 93.7771H71.624V95.7707H71.125V91.2939H71.624V93.2875H74.8498C75.7306 93.2875 77.2275 93.2875 77.6609 92.8752C78.1294 92.3762 78.8509 91.4111 78.8814 91.4111L78.9353 91.2939H79.5725L79.2632 91.6875C78.883 92.2267 78.4608 92.7351 78.0006 93.2079C77.8398 93.352 77.6529 93.4641 77.4501 93.5382C77.6532 93.6106 77.8402 93.722 78.0006 93.8661C78.4614 94.3376 78.8836 94.8452 79.2632 95.3842L79.5725 95.7707Z" fill="#1D1D1B" fill-opacity="0.7"/>
<path d="M94.2488 91.7929H86.3027V93.2899H93.2509V93.7771H86.3027V95.2717H94.2488V95.7707H85.8037V93.7771V93.2899V91.2939H94.2488V91.7929Z" fill="#1D1D1B" fill-opacity="0.7"/>
<path d="M108.841 91.7929H104.861V95.7707H104.373V91.7929H100.396V91.2939H104.373H104.861H108.841V91.7929Z" fill="#1D1D1B" fill-opacity="0.7"/>
<path d="M57.3625 17.0728C57.2145 17.1751 57.0764 17.2912 56.9502 17.4195C57.0764 17.2912 57.2145 17.1751 57.3625 17.0728Z" fill="#929292"/>
<path d="M65.96 14.9927C65.9061 14.9692 65.8522 14.9482 65.8007 14.9224C65.4726 14.773 65.1325 14.6515 64.784 14.5593H64.688L64.7301 14.5359C64.524 14.482 64.3155 14.4351 64.1046 14.4L63.594 14.3672C63.5393 14.3801 63.4823 14.3801 63.4276 14.3672L62.8795 14.4094L62.3243 14.5335L61.8136 14.7303L61.345 15.0255L61.2021 15.1801H61.2162C61.2759 15.1474 61.3386 15.1207 61.4036 15.1004C61.8171 15.0018 62.2413 14.9554 62.6663 14.9622C63.1696 14.9594 63.6709 15.0256 64.1562 15.159C64.5557 15.2641 64.9423 15.4134 65.3088 15.6041L65.4376 15.6744C65.717 15.4879 66.0072 15.3181 66.3067 15.166L65.953 14.981" fill="#1D1D1B" fill-opacity="0.7"/>
<path d="M53.0381 26.809C52.8373 26.4028 52.6666 25.9823 52.5274 25.551C52.2735 24.8129 52.1344 24.0402 52.1151 23.2599C52.0938 22.4638 52.2398 21.6721 52.5438 20.9361C52.8507 20.2023 53.3182 19.5466 53.9119 19.0175C53.9963 18.9402 54.1204 18.9074 54.1649 18.7832H54.0689C53.9611 18.8277 53.851 18.8675 53.7433 18.9167C53.3482 19.1012 52.9889 19.3542 52.6821 19.664L52.3026 20.1325C52.2916 20.1733 52.2668 20.209 52.2323 20.2333L51.998 20.6409L51.8012 21.0719C51.6084 21.5402 51.467 22.0279 51.3796 22.5267C51.3608 22.6743 51.3397 22.8219 51.321 22.9671C51.3286 23.0378 51.323 23.1093 51.3046 23.1779C51.2929 23.5856 51.3046 23.9955 51.3187 24.4008C51.3444 24.5952 51.3679 24.7873 51.3936 24.9794C51.4686 25.3472 51.5459 25.715 51.6513 26.0758C51.7099 26.2515 51.7684 26.4248 51.8293 26.6005L52.0378 27.1065L52.2838 27.5961L53.3263 27.3806C53.2185 27.1979 53.1459 26.9941 53.0498 26.8067" fill="#1D1D1B" fill-opacity="0.7"/>
<path d="M56.4786 18.1084C56.4303 18.1323 56.3848 18.1613 56.3428 18.1951C56.3848 18.1613 56.4303 18.1323 56.4786 18.1084Z" fill="#1D1D1B" fill-opacity="0.7"/>
<path d="M65.128 22.2266C65.0835 22.1118 65.0413 21.9924 64.9921 21.887C64.9429 21.7815 64.8937 21.6714 64.8398 21.5684C64.8937 21.6714 64.9453 21.7792 64.9921 21.887C65.039 21.9947 65.0835 22.1212 65.128 22.2266Z" fill="#1D1D1B" fill-opacity="0.7"/>
<path d="M72.1064 15.6674C72.0478 15.5924 71.9846 15.5174 71.919 15.4448L71.4786 15.0091C71.72 14.8383 71.9885 14.7092 72.2727 14.6272C72.574 14.5163 72.8895 14.4485 73.2098 14.4258C73.6572 14.3508 74.1163 14.3719 74.5661 14.3368C74.2534 14.1916 73.9327 14.0641 73.6057 13.9549C73.0058 13.792 72.3784 13.7577 71.7644 13.8542C71.4255 13.8925 71.0897 13.9543 70.7594 14.0392C70.6399 14.0697 70.6376 14.0228 70.6493 13.9198C70.7061 13.3817 70.9557 12.8825 71.3521 12.5142C71.3919 12.4767 71.4317 12.4416 71.4739 12.3994C71.1452 12.4496 70.828 12.5575 70.5368 12.718C70.5181 12.7649 70.4994 12.8117 70.483 12.8586C70.3755 13.1614 70.3047 13.476 70.2721 13.7956C70.2677 13.8463 70.2559 13.896 70.237 13.9432C70.237 13.9994 70.237 14.0064 70.237 14.0674C70.2313 14.3873 70.2596 14.7069 70.3213 15.0208C70.3386 15.0718 70.345 15.1259 70.3402 15.1796C70.3353 15.2332 70.3193 15.2853 70.2932 15.3324C70.2658 15.3691 70.2306 15.3994 70.1901 15.4208C70.1495 15.4423 70.1048 15.4545 70.0589 15.4565C70.0332 15.4588 70.0073 15.4588 69.9816 15.4565C69.8921 15.4531 69.8047 15.4278 69.7271 15.3829C69.6496 15.3379 69.5841 15.2748 69.5365 15.1988C69.4031 15.0017 69.3092 14.7805 69.2601 14.5476C69.2414 14.4843 69.225 14.4234 69.2039 14.3602C69.0783 13.941 69.0097 13.5069 69.0001 13.0694V12.9898C69.0001 12.9523 69.0001 12.9148 69.0001 12.8773C68.663 12.5624 68.2149 12.3939 67.7538 12.4088C67.8288 12.5165 67.9014 12.6173 67.9693 12.7204C68.1739 13.0102 68.302 13.347 68.3418 13.6996C68.3418 13.798 68.3418 13.8284 68.2317 13.8144C67.0113 13.6506 65.7716 13.9084 64.7178 14.5452L64.7717 14.5593C64.9614 14.5429 65.1535 14.5265 65.3433 14.5148C66.053 14.4511 66.7681 14.4803 67.4703 14.6015C67.5102 14.6015 67.5477 14.6226 67.5875 14.6319C67.6364 14.6363 67.6849 14.6441 67.7327 14.6554C67.7814 14.6666 67.8292 14.6815 67.8756 14.6999C67.9389 14.7058 68 14.7267 68.0537 14.7608C67.6541 14.98 67.3165 15.2967 67.0721 15.6814C67.0534 15.7119 67.0323 15.7376 67.0135 15.7681C66.8831 16.034 66.7856 16.3149 66.7231 16.6044C66.687 16.7587 66.6611 16.9152 66.6457 17.0729C66.7207 16.9605 66.798 16.8527 66.88 16.7473C67.0296 16.5288 67.2158 16.3378 67.4305 16.1827C67.4776 16.1447 67.5269 16.1095 67.5781 16.0773C67.8122 15.9292 68.0762 15.8348 68.3512 15.8009C68.4097 15.8009 68.4285 15.8009 68.4121 15.8782C68.3723 16.0469 68.3418 16.2179 68.3067 16.3889C68.2932 16.5227 68.2877 16.6573 68.2903 16.7918C68.3067 17.7078 68.7002 18.4972 69.2273 19.2422C69.2086 18.9236 69.1805 18.6073 69.1758 18.2887C69.1758 18.181 69.1758 18.0732 69.1758 17.9655C69.1848 17.4619 69.2767 16.9633 69.4475 16.4896C69.4686 16.4287 69.4991 16.3725 69.5248 16.3139C69.6263 16.0507 69.7643 15.8031 69.9348 15.5783C69.9652 15.5315 69.9957 15.5409 70.0355 15.5783C70.2719 15.7184 70.4981 15.875 70.7125 16.0469C71.3007 16.4932 71.8317 17.0101 72.2938 17.586C72.6984 18.0801 73.0664 18.6031 73.3948 19.1508C73.4182 19.1907 73.444 19.2281 73.4792 19.2797C73.3719 18.2611 73.0679 17.273 72.5843 16.3701C72.4467 16.124 72.29 15.889 72.1158 15.6674" fill="#1D1D1B" fill-opacity="0.7"/>
<path d="M70.8039 11.2375C70.5147 11.0841 70.1941 10.9991 69.8668 10.9892C69.8058 10.9779 69.7427 10.9866 69.6869 11.014C69.6312 11.0415 69.5858 11.0862 69.5576 11.1415C69.2857 11.7204 69.1396 12.3503 69.1289 12.9898C69.1289 13.0132 69.1289 13.0367 69.1289 13.0601C69.1379 13.4857 69.2049 13.9082 69.328 14.3157C69.3843 14.5989 69.4898 14.8701 69.6396 15.1169C69.6809 15.1847 69.7409 15.239 69.8124 15.2735C69.8839 15.308 69.9638 15.3211 70.0425 15.3113C70.2252 15.2832 70.2135 15.1591 70.1854 15.0373C70.1212 14.7141 70.0913 14.3851 70.0964 14.0557C70.1007 14.0082 70.1007 13.9603 70.0964 13.9128C70.1175 13.8677 70.1309 13.8194 70.1362 13.7699C70.1682 13.4367 70.2406 13.1087 70.3518 12.793C70.5075 12.3638 70.7069 11.9517 70.9468 11.5632C71.0311 11.4226 70.9983 11.3289 70.8086 11.2375" fill="#1D1D1B" fill-opacity="0.7"/>
<path d="M66.7141 18.0477L67.2389 17.8767C66.8434 17.8321 66.4443 17.8321 66.0488 17.8767C66.1285 17.9821 66.2058 18.0875 66.2831 18.1953C66.426 18.1414 66.5689 18.0875 66.7141 18.0383" fill="#1D1D1B" fill-opacity="0.7"/>
<path d="M64.1746 16.0304C63.8871 15.834 63.5847 15.6601 63.2704 15.5103C62.8513 15.3136 62.4009 15.1923 61.9398 15.1519C61.7001 15.1464 61.4605 15.1597 61.2229 15.1917H61.2089C60.7317 15.2913 60.2852 15.5033 59.9064 15.8102C59.768 15.9498 59.6418 16.1011 59.5292 16.2623C59.4714 16.373 59.4206 16.4873 59.3769 16.6043C59.2715 16.6582 59.1684 16.6043 59.0654 16.6043H58.5523C58.4914 16.5504 58.4071 16.5293 58.3532 16.4637C58.349 16.4628 58.345 16.4608 58.3417 16.458C58.3385 16.4551 58.336 16.4514 58.3345 16.4473C58.1766 16.3495 58.0396 16.2213 57.9315 16.0702C57.9283 16.0709 57.9249 16.0708 57.9217 16.0701C57.9184 16.0694 57.9154 16.068 57.9127 16.066C57.9101 16.064 57.9079 16.0615 57.9063 16.0585C57.9047 16.0556 57.9037 16.0524 57.9034 16.0491C57.78 15.9234 57.6801 15.7766 57.6083 15.6157L57.3318 15.1472L57.0086 14.6974L56.6337 14.2617L56.5986 14.2219L56.1816 13.8822C55.8778 13.673 55.5391 13.5199 55.1813 13.4301C54.915 13.3544 54.634 13.3464 54.3637 13.4066C54.2654 13.4692 54.183 13.5539 54.1232 13.6539C54.0634 13.754 54.0279 13.8667 54.0194 13.9829C53.9936 14.1235 53.9819 14.2687 53.9632 14.414C53.9659 14.6075 53.991 14.8001 54.0381 14.9879C54.0725 15.0807 54.1265 15.1649 54.1964 15.2349C54.2664 15.3048 54.3506 15.3588 54.4434 15.3932C54.5438 15.4049 54.6452 15.4049 54.7456 15.3932H54.7854C54.9687 15.3391 55.1588 15.3115 55.35 15.3112C55.4795 15.2931 55.6114 15.3035 55.7365 15.3416C55.9433 15.3791 56.138 15.4657 56.3044 15.5941C56.4707 15.7225 56.6037 15.889 56.6923 16.0796C56.794 16.236 56.8574 16.4141 56.8774 16.5996C56.9506 16.8679 56.9752 17.1472 56.95 17.4242C56.8493 17.5577 56.7509 17.6936 56.6501 17.8295C56.5986 17.9209 56.5869 18.038 56.4815 18.0942C56.3651 18.057 56.2461 18.0288 56.1254 18.0099C55.9285 18.0102 55.7319 18.0259 55.5374 18.0567C55.0935 18.1844 54.6832 18.4084 54.3356 18.7127L54.3216 18.7431C54.3175 18.7531 54.3111 18.762 54.3028 18.7689C54.0077 19.0512 53.7734 19.3908 53.6141 19.7668C53.4915 20.04 53.4026 20.3272 53.3494 20.6219C53.2581 21.1303 53.2321 21.6483 53.2721 22.1633C53.2947 22.4976 53.3386 22.8302 53.4033 23.1589C53.5001 23.635 53.6269 24.1044 53.7828 24.5645C53.9445 25.0585 54.1386 25.5414 54.3637 26.0099C54.5371 26.3636 54.7104 26.7127 54.9002 27.0617L57.0086 26.6284C56.8446 26.3707 56.6993 26.1013 56.5611 25.8319C56.4229 25.5625 56.28 25.2767 56.1605 24.9838C56.0411 24.691 55.8958 24.3302 55.7904 23.9953C55.4713 23.0293 55.3339 22.0127 55.3851 20.9967C55.4102 20.5132 55.4888 20.0339 55.6194 19.5677C55.7207 19.2142 55.8646 18.8744 56.0481 18.5557C56.0731 18.512 56.1012 18.4675 56.1324 18.4222C56.192 18.3344 56.2638 18.2555 56.3456 18.1879C56.3872 18.1537 56.4329 18.1246 56.4815 18.1012C56.5166 18.1364 56.5002 18.1762 56.4815 18.2137C56.42 18.3763 56.3699 18.5431 56.3315 18.7127C56.2452 19.088 56.2121 19.4736 56.2331 19.8582C56.2498 20.1963 56.2897 20.5329 56.3526 20.8655C56.4481 21.3903 56.5804 21.9078 56.7485 22.414C56.9717 23.0888 57.2402 23.7478 57.552 24.3865C57.8214 24.937 58.0955 25.4852 58.4094 26.0263C58.468 26.1247 58.5312 26.2207 58.5922 26.3191L59.2949 26.1739C59.2317 26.0427 59.1708 25.9068 59.1192 25.7663C58.7944 24.9677 58.7122 24.091 58.883 23.246C59.0539 22.401 59.4701 21.6251 60.0797 21.0154L60.1055 20.9967C60.2142 20.8608 60.3393 20.7388 60.478 20.6336C60.1149 20.7226 59.8478 20.821 59.4917 20.9358C59.5105 20.725 59.8665 20.3712 60.0844 20.2002C60.497 19.8923 60.9657 19.6679 61.4642 19.5396C61.7246 19.4605 61.9899 19.3987 62.2583 19.3545C62.3591 19.3381 62.3731 19.2866 62.3193 19.2257C62.1081 18.9344 61.8041 18.7237 61.4572 18.6283C61.4174 18.6143 61.2955 18.5323 61.251 18.5182C61.2112 18.2652 61.6258 18.2676 61.8952 18.2652C61.6155 17.9457 61.3013 17.6581 60.9582 17.4078C60.5969 17.1241 60.1928 16.8995 59.7611 16.7425C59.7002 16.7214 59.6323 16.7121 59.5667 16.6957C59.5251 16.6849 59.4856 16.6675 59.4496 16.6441C59.4289 16.6308 59.4094 16.6159 59.391 16.5996C59.4372 16.5699 59.489 16.55 59.5433 16.5411C59.8621 16.4976 60.1863 16.5143 60.499 16.5902C60.958 16.683 61.4013 16.8407 61.8156 17.0588C61.8976 17.1009 61.9749 17.1454 62.0499 17.19C62.0499 17.1618 62.0499 17.1337 62.0499 17.1056C62.0408 17.0429 62.0513 16.979 62.0798 16.9224C62.1082 16.8659 62.1534 16.8194 62.2092 16.7894C62.3628 16.6951 62.5396 16.6456 62.7198 16.6465H62.7784C62.8174 16.6442 62.8563 16.6504 62.8926 16.6648C62.9289 16.6791 62.9616 16.7013 62.9884 16.7296C63.0152 16.758 63.0354 16.7919 63.0477 16.8289C63.06 16.866 63.064 16.9052 63.0595 16.944C63.0624 17.2224 63.0843 17.5002 63.1251 17.7756V17.8154C63.4829 17.2238 63.932 16.6925 64.4557 16.2412C64.3643 16.1627 64.2681 16.0899 64.1676 16.0233" fill="#1D1D1B" fill-opacity="0.7"/>
<path d="M63.5773 19.3616C63.4539 19.1734 63.3466 18.9751 63.2564 18.7689C63.2377 18.7291 63.1978 18.6049 63.1885 18.5792C63.151 18.4761 63.1205 18.3707 63.0924 18.2653C63.0502 18.1112 63.0173 17.9548 62.994 17.7967C62.9514 17.5105 62.9287 17.2217 62.9261 16.9323C62.9261 16.8175 62.8863 16.773 62.7715 16.7683C62.5985 16.7571 62.4265 16.8006 62.2795 16.8925C62.2448 16.9092 62.2164 16.9367 62.1987 16.971C62.181 17.0052 62.1748 17.0442 62.1811 17.0822C62.1811 17.1408 62.1975 17.1994 62.2046 17.2556C62.2581 17.6595 62.3685 18.0539 62.5325 18.4269C62.615 18.5954 62.7073 18.7589 62.809 18.9165C62.8622 18.9978 62.9201 19.0761 62.9823 19.1508C63.0835 19.3135 63.211 19.4584 63.3595 19.5795C63.3919 19.6078 63.4335 19.6234 63.4766 19.6234C63.5197 19.6234 63.5613 19.6078 63.5937 19.5795C63.6687 19.5068 63.6265 19.4319 63.5797 19.3616" fill="#1D1D1B" fill-opacity="0.7"/>
<path d="M64.4271 25.497L64.4248 25.4946L64.4271 25.497Z" fill="#929292"/>
<path d="M62.0214 23.9137C61.9746 23.7637 61.9301 23.5974 61.8926 23.4217C61.9301 23.5974 61.9746 23.7637 62.0214 23.9137L62.0449 23.7965C62.1029 23.431 62.1811 23.0689 62.2791 22.7119C62.1811 23.0689 62.1029 23.431 62.0449 23.7965L62.0214 23.9137Z" fill="#929292"/>
<path d="M62.9561 21.0553C63.0052 20.9687 63.0568 20.8796 63.113 20.793C63.0568 20.8796 63.0052 20.9687 62.9561 21.0553Z" fill="#929292"/>
<path d="M64.8447 18.9728C64.8751 18.9451 64.9072 18.9193 64.9408 18.8955C64.9072 18.9193 64.8751 18.9451 64.8447 18.9728Z" fill="#929292"/>
<path d="M65.6602 19.856C65.7752 19.8747 65.8876 19.907 65.9951 19.952C65.8876 19.907 65.7752 19.8747 65.6602 19.856Z" fill="#929292"/>
<path d="M78.3003 12.8374C78.2663 12.8442 78.2313 12.8442 78.1973 12.8374C78.2313 12.8442 78.2663 12.8442 78.3003 12.8374Z" fill="#1D1D1B" fill-opacity="0.7"/>
<path d="M79.0128 3.68007L79.0338 3.66602C78.9161 3.6938 78.8088 3.75478 78.7246 3.84171L78.7902 3.79954C78.8652 3.75972 78.9401 3.72224 79.0128 3.68007Z" fill="#1D1D1B" fill-opacity="0.7"/>
<path d="M74.7158 20.1417C74.6866 20.1404 74.6578 20.1486 74.6338 20.1652C74.6578 20.1486 74.6866 20.1404 74.7158 20.1417Z" fill="#1D1D1B" fill-opacity="0.7"/>
<path d="M78.5865 12.2775L78.5303 12.4532H78.556C78.556 12.3923 78.5748 12.3314 78.5865 12.2705" fill="#1D1D1B" fill-opacity="0.7"/>
<path d="M83.5664 10.3193C83.6059 10.3265 83.6464 10.3265 83.6859 10.3193C83.6464 10.3265 83.6059 10.3265 83.5664 10.3193Z" fill="#1D1D1B" fill-opacity="0.7"/>
<path d="M91.9229 7.78195L91.9112 7.75618L91.876 7.64608C91.8643 7.62031 91.8526 7.59454 91.8385 7.56877L91.8128 7.51489L91.7284 7.36965C91.6746 7.28297 91.6207 7.20098 91.7753 7.14944C91.8432 7.12602 91.8409 7.04168 91.8573 6.98077L91.787 6.8613C91.6165 6.75887 91.4329 6.68006 91.2412 6.62704C91.2107 6.61533 91.1756 6.60127 91.1709 6.56613C91.1662 6.53099 91.2107 6.51928 91.2365 6.50288L91.4122 6.40683C91.4338 6.35925 91.4359 6.30506 91.4179 6.25597C91.3999 6.20689 91.3634 6.16683 91.3161 6.14446C91.2154 6.07653 91.0936 6.0531 90.9882 5.99453C90.9484 5.99642 90.9091 5.98577 90.8757 5.96408L90.8289 5.95002L90.618 5.90551C90.4036 5.89836 90.1889 5.90854 89.9762 5.93597C89.9803 5.90825 89.9906 5.88182 90.0065 5.85869C90.0223 5.83556 90.0432 5.81633 90.0675 5.80244C90.1073 5.70639 90.0675 5.65954 89.9762 5.63611L89.8309 5.59395H89.3273C89.3144 5.5997 89.3004 5.60267 89.2863 5.60267C89.2721 5.60267 89.2582 5.5997 89.2453 5.59395C89.2292 5.6032 89.2111 5.60807 89.1926 5.60807C89.174 5.60807 89.1559 5.6032 89.1398 5.59395L88.519 5.63846C88.3388 5.70778 88.1642 5.79079 87.9967 5.88677C87.9826 5.77667 88.1677 5.68999 88.0224 5.58223H87.7882L87.6546 5.61737L87.5492 5.66423L87.2985 5.79775L86.8441 6.16086C86.7785 6.23817 86.7152 6.31781 86.652 6.39512C86.652 6.39512 86.6356 6.39512 86.6332 6.38107C86.5677 6.18194 86.5231 6.16554 86.3404 6.28268L86.2795 6.31547L85.5767 7.01826C85.551 7.01826 85.5439 6.99952 85.5556 6.98077C85.7278 6.6729 85.9286 6.38191 86.1554 6.11166C86.1576 6.09693 86.1635 6.08299 86.1725 6.07112C86.1815 6.05925 86.1933 6.04984 86.2069 6.04373C86.2077 6.03156 86.2122 6.01992 86.2197 6.01031C86.2272 6.0007 86.2374 5.99357 86.2491 5.98985C86.4646 5.70639 86.7176 5.4487 86.9518 5.18867L86.9846 5.16056C86.9924 5.146 87.001 5.13192 87.0104 5.1184L87.1088 4.94738C87.2681 4.66861 87.2119 4.5632 86.8933 4.54446L87.6499 3.96817L87.6945 3.92835C87.7024 3.90977 87.7139 3.89296 87.7284 3.87888C87.7429 3.8648 87.76 3.85375 87.7788 3.84636L87.8092 3.81824L87.8397 3.77842L87.8678 3.75265L88.0201 3.51839L88.0716 3.3263C88.0654 3.3165 88.062 3.30512 88.062 3.2935C88.062 3.28188 88.0654 3.2705 88.0716 3.2607V3.21151C88.0716 3.21151 88.0716 3.21151 88.0716 3.19745C88.0716 3.1834 88.0716 3.16231 88.0716 3.14591C88.0716 3.12952 88.0224 3.06861 88.0341 3.01941C87.9357 2.78515 87.7366 2.81795 87.5375 2.86011C87.6617 2.73361 87.7718 2.62585 87.9029 2.51107C88.0484 2.39396 88.1541 2.2348 88.2057 2.05534C88.2572 1.87588 88.2522 1.68488 88.1911 1.50843C88.1721 1.39842 88.1145 1.2988 88.0286 1.22751C87.9427 1.15621 87.8342 1.11793 87.7226 1.11955C87.6804 1.11955 87.6757 1.10315 87.6804 1.07036C87.6936 0.911986 87.6745 0.752577 87.6242 0.601834C87.5773 0.5175 87.5281 0.433166 87.4789 0.348832C87.4364 0.323917 87.4028 0.286206 87.3829 0.241071C87.3731 0.229003 87.3622 0.218009 87.3501 0.208275C87.329 0.197962 87.3087 0.186222 87.2892 0.173135C87.2044 0.1055 87.1063 0.0565731 87.0013 0.0295715C86.8962 0.00256983 86.7867 -0.00189487 86.6798 0.0164709C86.5729 0.0348367 86.4712 0.0756171 86.3812 0.136131C86.2912 0.196644 86.215 0.27552 86.1577 0.367573C86.077 0.490768 86.0124 0.623825 85.9656 0.763474C85.9492 0.810327 85.9492 0.86655 85.8906 0.899346C85.8648 0.816407 85.8088 0.746181 85.7337 0.702566H85.6868C85.6868 0.702566 85.6751 0.702566 85.6681 0.702566C85.6557 0.71 85.6415 0.713927 85.6271 0.713927C85.6126 0.713927 85.5985 0.71 85.5861 0.702566C85.5832 0.704211 85.58 0.705077 85.5767 0.705077C85.5734 0.705077 85.5702 0.704211 85.5674 0.702566C85.484 0.719583 85.405 0.753697 85.3354 0.802758C85.2659 0.851818 85.2072 0.91476 85.1632 0.987614C85.1192 1.06047 85.0907 1.14165 85.0797 1.22605C85.0686 1.31045 85.0751 1.39622 85.0988 1.47797C85.0988 1.52951 85.1152 1.58105 85.1246 1.63024C85.134 1.67944 85.1433 1.68646 85.1504 1.71458C85.1872 1.75977 85.2115 1.81393 85.2207 1.87153C85.2464 1.9012 85.2628 1.93792 85.2675 1.97695C85.3017 2.00938 85.3261 2.05078 85.3378 2.09642C85.3378 2.09642 85.319 2.11048 85.312 2.09642C84.9348 1.96524 84.6209 2.24635 84.6608 2.68676C84.6937 2.95358 84.7857 3.20968 84.9302 3.4364C84.9583 3.48559 84.9794 3.53713 85.0192 3.61678C84.9401 3.60263 84.8588 3.60735 84.7818 3.63056C84.7049 3.65376 84.6345 3.69479 84.5764 3.75031L84.5296 3.81356C84.5296 3.82996 84.5132 3.84401 84.5061 3.85807C84.4851 3.91429 84.464 3.96817 84.4406 4.02439C84.4171 4.08062 84.4171 4.18838 84.4031 4.25866V4.30785C84.4105 4.32023 84.4144 4.3344 84.4144 4.34885C84.4144 4.36329 84.4105 4.37746 84.4031 4.38984C84.4335 4.77403 84.464 5.15588 84.4921 5.53772C84.4921 5.58458 84.4921 5.63143 84.4921 5.67828C84.5026 5.69772 84.508 5.71945 84.508 5.74153C84.508 5.76361 84.5026 5.78534 84.4921 5.80478C84.4984 5.81411 84.5018 5.82513 84.5018 5.83641C84.5018 5.84769 84.4984 5.85871 84.4921 5.86803C84.5183 6.06288 84.5292 6.25948 84.5249 6.45603C84.5264 6.47254 84.5224 6.48909 84.5135 6.50307C84.5046 6.51706 84.4913 6.5277 84.4757 6.53334C84.4382 6.32484 84.4031 6.11635 84.3656 5.9102C84.3604 5.89112 84.3541 5.87235 84.3469 5.85398L84.2977 5.71811L84.2274 5.5916L84.211 5.56818C84.1056 5.48384 84.0376 5.55646 83.9603 5.65251L83.9158 5.30112L83.7284 4.75763C83.6385 4.58696 83.5258 4.42934 83.3934 4.28911C83.3184 4.261 83.2552 4.19072 83.1591 4.2118C83.1273 4.29541 83.1137 4.38488 83.1193 4.47418L82.7773 3.97286L82.2666 3.60038C82.2557 3.60077 82.2449 3.59785 82.2357 3.59199C82.2265 3.58614 82.2193 3.57763 82.2151 3.56758C82.2034 3.56713 82.1922 3.56336 82.1827 3.55672C82.1731 3.55008 82.1657 3.54084 82.1612 3.5301C82.1307 3.5301 82.1143 3.50433 82.0979 3.48325L81.7184 3.24899C81.707 3.25094 81.6952 3.24928 81.6847 3.24425C81.6742 3.23921 81.6655 3.23105 81.6599 3.22088C81.5709 3.22088 81.4678 3.12249 81.4022 3.26304C81.4233 3.34035 81.4444 3.41531 81.4631 3.49731C81.2788 3.33639 81.0778 3.1958 80.8634 3.07798L80.5823 2.98193L80.5331 2.97022L80.5026 2.9585C80.3949 2.94445 80.2871 2.92805 80.1793 2.91868C80.1298 2.90895 80.0785 2.91793 80.0352 2.9439C79.9919 2.96986 79.9598 3.01096 79.9451 3.05924C79.9607 3.12359 79.9859 3.1852 80.02 3.24196C80.0364 3.26773 80.0669 3.29818 80.0411 3.33098C80.0288 3.34255 80.0134 3.35027 79.9967 3.35318C79.9801 3.3561 79.9629 3.35408 79.9474 3.34738C79.7715 3.30529 79.5917 3.28174 79.411 3.2771L79.3266 3.29584L79.2727 3.3263C79.2259 3.41531 79.1861 3.50199 79.2727 3.59335C79.279 3.59738 79.2842 3.60292 79.2878 3.60947C79.2914 3.61602 79.2933 3.62337 79.2933 3.63084C79.2933 3.6383 79.2914 3.64565 79.2878 3.6522C79.2842 3.65875 79.279 3.66429 79.2727 3.66832C79.1953 3.65446 79.116 3.65446 79.0385 3.66832L79.0174 3.68237C78.9448 3.72454 78.8698 3.76202 78.7949 3.80185L78.7293 3.84636L78.6777 3.87915L78.6285 3.90961C78.5489 3.9916 78.4692 4.07125 78.3943 4.14387C78.3591 4.2282 78.3216 4.31019 78.2865 4.39219C78.2876 4.39917 78.2876 4.40629 78.2865 4.41327C78.2877 4.43434 78.2877 4.45545 78.2865 4.47652C78.1785 4.5469 78.1004 4.6549 78.0675 4.77957C78.0346 4.90423 78.0492 5.03667 78.1085 5.15119C78.1225 5.19102 78.1389 5.23318 78.153 5.27535C78.167 5.31752 78.1787 5.31986 78.1905 5.34094C78.2279 5.37379 78.2561 5.41576 78.2725 5.46276C78.2998 5.48303 78.3196 5.5119 78.3287 5.54475C78.3633 5.56602 78.391 5.59696 78.4083 5.63377C78.4083 5.63377 78.3943 5.64783 78.3896 5.64783C78.0499 5.59863 77.8297 5.88209 77.9351 6.24988C78.0058 6.4698 78.1242 6.67139 78.2818 6.84022C78.3146 6.8777 78.3404 6.91752 78.3872 6.97843C78.3182 6.97942 78.2504 6.9967 78.1894 7.02886C78.1283 7.06102 78.0757 7.10715 78.0358 7.1635L78.0054 7.22441V7.26423L77.9773 7.41416V7.62734C77.9773 7.64139 77.9773 7.6531 77.9773 7.66716C77.9861 7.6763 77.9923 7.68766 77.9952 7.70003C77.9981 7.71241 77.9976 7.72534 77.9937 7.73744L78.2537 8.69088C78.2537 8.73071 78.2678 8.77053 78.2748 8.81036C78.2875 8.82444 78.2964 8.84144 78.3009 8.85983C78.3054 8.87822 78.3053 8.89744 78.3006 8.91577C78.3078 8.92247 78.313 8.9311 78.3155 8.94065C78.318 8.9502 78.3177 8.96027 78.3146 8.96965C78.3663 9.12975 78.4062 9.29338 78.4341 9.45926C78.4391 9.47271 78.439 9.48753 78.4339 9.50092C78.4287 9.51431 78.4188 9.52533 78.406 9.53188C78.3404 9.36321 78.2771 9.19455 78.2139 9.02353L78.1881 8.97902L78.1178 8.87361C78.0897 8.84315 78.064 8.81036 78.0382 8.77756L78.0194 8.76116C77.9164 8.70728 77.8719 8.7799 77.8227 8.87361C77.7875 8.7635 77.7571 8.67448 77.729 8.58312L77.476 8.17082C77.3718 8.04245 77.2513 7.92825 77.1175 7.83114C77.0496 7.83114 76.9864 7.77258 76.9114 7.80303C76.8948 7.88024 76.8948 7.96009 76.9114 8.03729L76.5413 7.66716L76.0493 7.4329C76.0306 7.4329 76.0165 7.4329 76.0025 7.41182C75.9922 7.41423 75.9813 7.41325 75.9716 7.40903C75.9619 7.40481 75.9538 7.39757 75.9486 7.38839C75.9373 7.38876 75.9261 7.3864 75.9159 7.38151C75.9057 7.37661 75.8968 7.36933 75.89 7.36028L75.541 7.21269C75.532 7.21624 75.5221 7.21679 75.5129 7.21426C75.5036 7.21172 75.4953 7.20624 75.4894 7.19864C75.4121 7.19864 75.3114 7.1471 75.2786 7.27594L75.3676 7.45867C75.186 7.35209 74.9936 7.26493 74.7937 7.19864L74.5407 7.16584H74.4962H74.4704C74.3767 7.16584 74.283 7.16584 74.1893 7.18458C74.1459 7.18485 74.1041 7.20094 74.0718 7.22984C74.0394 7.25874 74.0187 7.29846 74.0136 7.34154C74.0376 7.39355 74.0691 7.4417 74.1073 7.48444C74.126 7.50318 74.1565 7.52192 74.1377 7.55706C74.119 7.5922 74.0909 7.58517 74.0628 7.58517C73.906 7.57657 73.7488 7.586 73.5943 7.61328L73.5263 7.64139L73.4865 7.67419C73.4607 7.75852 73.442 7.83817 73.5333 7.90845C73.5779 7.9389 73.5451 7.97639 73.5169 7.99747C73.4888 8.01855 73.4045 8.08883 73.3483 8.13334L73.2616 8.22002L73.2265 8.25281L73.0648 8.48708L73.0156 8.72134L73.0297 8.86189C73.0304 8.87516 73.0304 8.88845 73.0297 8.90172C73.0461 8.93686 73.0601 8.972 73.0742 9.00479C73.0882 9.03759 73.1023 9.04696 73.114 9.06804L73.1843 9.16878C73.332 9.29921 73.5238 9.36871 73.7208 9.36321C73.9296 9.31942 74.1422 9.29666 74.3556 9.29528C74.1836 9.38923 74.0341 9.51954 73.9175 9.67712C73.8119 9.83586 73.7372 10.0131 73.6973 10.1995C73.6809 10.2643 73.6837 10.3325 73.7053 10.3957C73.7269 10.4589 73.7665 10.5145 73.8191 10.5556C73.9123 10.5809 74.0084 10.5935 74.1049 10.5931C74.2829 10.5616 74.4583 10.5169 74.6297 10.4596C74.685 10.4237 74.746 10.3976 74.8101 10.3823C74.7749 10.49 74.7492 10.5907 74.8405 10.6774C74.8871 10.7177 74.9428 10.7462 75.0027 10.7604C75.0626 10.7747 75.1251 10.7744 75.1849 10.7594C75.2763 10.743 75.3653 10.7126 75.4566 10.6868C75.5995 10.6493 75.6792 10.5228 75.801 10.4338C75.8146 10.5426 75.8454 10.6486 75.8924 10.7477C75.9502 10.7972 76.0197 10.8312 76.0943 10.8463C76.1689 10.8615 76.2461 10.8574 76.3187 10.8344H76.3328L76.3562 10.8227L76.4194 10.7852C76.4916 10.7016 76.5834 10.6372 76.6865 10.5978C76.7123 10.5767 76.7498 10.5556 76.7708 10.5767C76.7919 10.5978 76.7708 10.6399 76.7451 10.668L76.7263 10.6985C76.7472 10.7386 76.7779 10.7728 76.8156 10.7978C76.8533 10.8228 76.8968 10.8378 76.9418 10.8414C77.1727 10.8927 77.3873 11.0005 77.5663 11.155C77.7454 11.3095 77.8834 11.506 77.9679 11.7269C78.124 12.0381 78.2367 12.3691 78.3029 12.7108C78.3029 12.7272 78.3029 12.7459 78.3029 12.7647C78.3029 12.7834 78.3029 12.7881 78.3029 12.7998L78.3146 12.8233C78.378 12.8542 78.4505 12.8609 78.5184 12.842C78.4505 12.8609 78.378 12.8542 78.3146 12.8233H78.2889C78.1936 12.8408 78.096 12.8408 78.0007 12.8233C77.9981 12.8259 77.995 12.828 77.9916 12.8294C77.9882 12.8308 77.9845 12.8315 77.9808 12.8315C77.9771 12.8315 77.9734 12.8308 77.97 12.8294C77.9666 12.828 77.9635 12.8259 77.9609 12.8233L77.5134 12.8514C77.243 12.8763 76.974 12.9154 76.7076 12.9685C76.3547 13.0737 76.0146 13.2175 75.6932 13.3972C75.665 13.4291 75.6297 13.4539 75.5902 13.4698C75.3835 13.6324 75.1922 13.8135 75.0186 14.011C74.8301 14.2773 74.6897 14.5746 74.6039 14.8894C74.5916 14.9215 74.5815 14.9544 74.5735 14.9878C74.5725 15.0003 74.5725 15.0128 74.5735 15.0253L74.5243 15.4587L74.9413 15.5009L75.644 15.5688L76.0751 15.6086C76.1808 15.6122 76.2827 15.6487 76.3666 15.7129C76.4506 15.7772 76.5125 15.866 76.5436 15.967C76.5746 16.043 76.5865 16.1255 76.5783 16.2071C76.5701 16.2888 76.5421 16.3672 76.4967 16.4356C76.4688 16.4784 76.4357 16.5177 76.3984 16.5527C76.3392 16.6058 76.2691 16.6453 76.193 16.6684C76.1169 16.6915 76.0367 16.6975 75.9579 16.6862L75.6721 16.6581L74.6882 16.5668H74.6156C74.5917 16.5612 74.5669 16.5612 74.543 16.5668C74.529 16.6979 74.5664 16.8291 74.543 16.9603C74.5758 17.1411 74.5876 17.325 74.5782 17.5085C74.5796 17.5098 74.5808 17.5114 74.5817 17.5132C74.5825 17.5151 74.5829 17.517 74.5829 17.519C74.5829 17.521 74.5825 17.523 74.5817 17.5248C74.5808 17.5266 74.5796 17.5282 74.5782 17.5296C74.6117 17.7316 74.6266 17.9363 74.6227 18.141C74.625 18.1436 74.6262 18.1469 74.6262 18.1504C74.6262 18.1538 74.625 18.1572 74.6227 18.1597C74.6719 18.394 74.6695 18.6423 74.7023 18.8813C74.7023 18.9258 74.714 18.9703 74.721 19.0148C74.7712 19.0511 74.8328 19.0677 74.8944 19.0616L76.5342 19.2186L77.743 19.3264L78.0007 19.3498C78.0007 19.4318 77.9867 19.5138 77.9843 19.584C77.9843 19.8183 77.9609 20.0315 77.9492 20.254C77.953 20.3014 77.9424 20.3487 77.9187 20.3899V20.4204H77.8203L76.5928 20.3056L75.0045 20.1556C74.9764 20.1556 74.9483 20.1556 74.9202 20.1556C74.891 20.1543 74.8622 20.1625 74.8382 20.1791C74.8382 20.3852 74.8991 20.5843 74.8897 20.7928C74.8955 20.8041 74.8985 20.8165 74.8985 20.8291C74.8985 20.8418 74.8955 20.8542 74.8897 20.8655C74.8975 20.8751 74.9018 20.8871 74.9018 20.8994C74.9018 20.9118 74.8975 20.9238 74.8897 20.9334C74.8897 20.9334 74.8897 20.9334 74.8897 20.9521C74.9459 21.17 74.9506 21.3972 74.9858 21.6174C75.0209 21.8376 75.0373 21.9969 75.0631 22.1867C75.0759 22.2255 75.0759 22.2674 75.0631 22.3062C75.0621 22.3155 75.0621 22.3249 75.0631 22.3343C75.0763 22.3504 75.0851 22.3697 75.0884 22.3903C75.0917 22.4109 75.0894 22.432 75.0818 22.4514C75.0833 22.4527 75.0845 22.4543 75.0853 22.4562C75.0861 22.458 75.0866 22.46 75.0866 22.4619C75.0866 22.4639 75.0861 22.4659 75.0853 22.4677C75.0845 22.4695 75.0833 22.4712 75.0818 22.4725C75.119 22.6036 75.1386 22.7391 75.1404 22.8754C75.1404 22.8754 75.1404 22.8918 75.1404 22.9012C75.1472 22.9081 75.152 22.9169 75.154 22.9264C75.1561 22.936 75.1554 22.9459 75.1521 22.9551L75.9767 22.7841L77.5439 22.4608L77.8789 22.3928L78.5208 22.2593C78.5037 22.1498 78.5109 22.0378 78.5419 21.9313C78.564 21.8535 78.602 21.781 78.6534 21.7184C78.7047 21.6558 78.7684 21.6045 78.8405 21.5676C78.9126 21.5307 78.9915 21.509 79.0723 21.5038C79.1531 21.4987 79.2341 21.5103 79.3102 21.5378L80.4417 21.8657L80.6643 21.8212L84.4007 21.0552C84.4382 20.9943 84.471 20.9334 84.5061 20.8748C84.5551 20.751 84.6205 20.6344 84.7006 20.5281C84.724 20.4403 84.7691 20.3597 84.8318 20.2939C84.8318 20.2939 84.8318 20.2728 84.8482 20.2611C84.8646 20.2493 84.8482 20.24 84.8646 20.2306C84.9222 20.0966 84.9904 19.9673 85.0684 19.8441C85.0801 19.8253 85.0918 19.8066 85.1059 19.7878L85.1246 19.7504C85.167 19.6198 85.232 19.4977 85.3167 19.3896C85.3167 19.3896 85.3167 19.3755 85.3167 19.3732C85.3148 19.3584 85.3173 19.3434 85.324 19.33C85.3307 19.3166 85.3412 19.3056 85.3542 19.2982C85.3542 19.2982 85.3542 19.2842 85.3659 19.2795C85.3639 19.2653 85.3665 19.2509 85.3733 19.2383C85.38 19.2257 85.3905 19.2155 85.4034 19.2092C85.4013 19.2061 85.4001 19.2024 85.4001 19.1987C85.4001 19.1949 85.4013 19.1912 85.4034 19.1881C85.5767 18.8438 85.7477 18.4994 85.9234 18.1574C85.9751 18.0305 86.0403 17.9096 86.1179 17.7966C86.1177 17.7924 86.1191 17.7882 86.1216 17.7848C86.1242 17.7814 86.1278 17.7789 86.1319 17.7779C86.2139 17.5436 86.3521 17.3094 86.4552 17.0751L86.5044 16.9463C86.4669 16.8783 86.3966 16.8736 86.3334 16.8549C85.6611 16.6605 84.9887 16.4684 84.3187 16.2692C84.2038 16.2447 84.0983 16.1874 84.0152 16.1043C83.9321 16.0211 83.8748 15.9157 83.8502 15.8007C83.8214 15.6742 83.8317 15.5419 83.8798 15.4214C83.9279 15.3009 84.0116 15.1979 84.1196 15.126C84.1869 15.0788 84.264 15.0475 84.3452 15.0345C84.4264 15.0215 84.5095 15.0272 84.5881 15.0511L86.9308 15.7304C86.9515 15.7361 86.9719 15.7431 86.9917 15.7515C87.0113 15.7606 87.0271 15.7764 87.0362 15.796C87.2704 15.2924 87.5258 14.8004 87.5633 14.2335C87.5664 14.2161 87.5727 14.1994 87.582 14.1843C87.582 14.1609 87.582 14.1375 87.582 14.114C87.582 13.9969 87.582 13.8798 87.582 13.7603L87.5117 13.3129L87.4906 13.2566C87.3743 12.8913 87.2055 12.5449 86.9893 12.2282L86.9401 12.1556C86.6726 11.8455 86.3761 11.5615 86.0546 11.3076C85.6735 11.064 85.2758 10.8471 84.8646 10.6587C84.7008 10.624 84.5429 10.5656 84.396 10.4853C84.3526 10.4819 84.3095 10.4749 84.2672 10.4642C84.3095 10.4749 84.3526 10.4819 84.396 10.4853C84.4335 10.4268 84.4734 10.3705 84.5132 10.312C84.6466 10.1188 84.7929 9.93484 84.9513 9.76146C85.0752 9.62435 85.2099 9.49744 85.3542 9.38195C85.38 9.33944 85.4197 9.30716 85.4666 9.29059L85.49 9.27419L85.5838 9.20157C85.7282 9.08819 85.8936 9.00455 86.0705 8.95549C86.2474 8.90643 86.4323 8.89293 86.6145 8.91577C86.6919 8.92866 86.7703 8.93415 86.8488 8.93217C86.9565 8.93217 87.0643 8.93217 87.0385 8.7635C87.0245 8.67683 87.0854 8.71665 87.1182 8.73773C87.1951 8.79968 87.2548 8.88035 87.2915 8.972C87.3388 9.08226 87.4204 9.17425 87.5243 9.23422C87.6282 9.29418 87.7487 9.31889 87.8678 9.30465C88.0154 9.23671 88.074 9.09381 88.1583 8.94623C88.227 9.08598 88.3094 9.2186 88.4043 9.34213C88.5099 9.44387 88.6309 9.52845 88.7627 9.59279C89.0461 9.70289 89.2125 9.61153 89.2546 9.29528L89.3952 9.45223C89.5587 9.58708 89.73 9.71223 89.9082 9.82705C90.0111 9.86739 90.1179 9.89721 90.2268 9.91607C90.3038 9.90374 90.3749 9.86743 90.43 9.81233C90.4851 9.75722 90.5214 9.68613 90.5337 9.60919C90.5688 9.40847 90.5688 9.20317 90.5337 9.00245V8.97434L90.5126 8.88766C90.4479 8.68405 90.3515 8.49193 90.2268 8.31841L90.85 8.6698C91.0693 8.76532 91.3174 8.7712 91.541 8.6862L91.6183 8.64403C91.6192 8.63876 91.6211 8.63372 91.6239 8.6292C91.6267 8.62468 91.6304 8.62077 91.6348 8.61771C91.6392 8.61466 91.6441 8.61251 91.6493 8.61139C91.6546 8.61028 91.6599 8.61023 91.6652 8.61123L91.7167 8.57141L91.7519 8.53393C91.8263 8.45635 91.8873 8.36688 91.9322 8.26921L91.9674 7.98341C91.9674 7.91548 91.9416 7.84988 91.9299 7.78195H91.9229ZM79.7342 3.71985C79.7526 3.72715 79.7714 3.73341 79.7905 3.7386L79.8256 3.76202C79.8495 3.79694 79.884 3.82322 79.924 3.83699L80.0856 4.02674C80.1537 4.14795 80.196 4.28195 80.2098 4.4203C80.2098 4.44841 80.2098 4.45778 80.2543 4.45309C80.3481 4.43465 80.4453 4.44992 80.5289 4.49621C80.6125 4.54251 80.677 4.61684 80.7111 4.7061C80.7937 4.84315 80.8322 5.0023 80.8213 5.16196C80.8104 5.32162 80.7507 5.47407 80.6502 5.59863C80.5776 5.68999 80.5097 5.78604 80.4417 5.88677C80.3446 5.88366 80.2485 5.90629 80.1629 5.95237C80.2473 5.82587 80.3293 5.71811 80.4159 5.59863C80.5164 5.47407 80.5762 5.32162 80.5871 5.16196C80.598 5.0023 80.5595 4.84315 80.4769 4.7061C80.4428 4.61684 80.3782 4.54251 80.2946 4.49621C80.211 4.44992 80.1138 4.43465 80.02 4.45309C79.9826 4.45309 79.9755 4.45309 79.9755 4.4203C79.9617 4.28195 79.9195 4.14795 79.8514 4.02674L79.6897 3.83699C79.6497 3.82322 79.6152 3.79694 79.5913 3.76202L79.5562 3.7386C79.5371 3.73341 79.5184 3.72715 79.5 3.71985C79.4379 3.69214 79.3726 3.67246 79.3055 3.66129C79.4511 3.63603 79.6008 3.65649 79.7342 3.71985ZM82.3556 18.7243C82.2786 18.8161 82.176 18.883 82.0609 18.9164C81.9457 18.9497 81.8233 18.9481 81.7091 18.9117L81.5662 18.8695C80.4839 18.5533 79.4016 18.2417 78.3193 17.9325L78.2725 17.9161C78.2417 17.9048 78.2092 17.8992 78.1764 17.8997C78.1592 17.9011 78.1425 17.9059 78.1272 17.9138C78.0593 17.8177 78.1108 17.7006 78.071 17.5998C78.101 17.4494 78.1167 17.2964 78.1178 17.143C78.1366 17.143 78.1319 17.122 78.1178 17.1079V17.0376C78.1408 16.952 78.1534 16.8639 78.1553 16.7752C78.167 16.6979 78.1553 16.6113 78.2326 16.5597C78.2771 16.6253 78.3521 16.6323 78.42 16.6511L79.4039 16.9392C80.2285 17.1735 81.0555 17.4218 81.8848 17.642L82.0417 17.6889C82.145 17.7168 82.2394 17.7706 82.3162 17.8451C82.3929 17.9197 82.4494 18.0125 82.4804 18.1149C82.5113 18.2174 82.5156 18.326 82.493 18.4305C82.4704 18.5351 82.4215 18.6321 82.3509 18.7126L82.3556 18.7243ZM83.9158 10.319C83.8755 10.326 83.8343 10.326 83.794 10.319C83.7549 10.3082 83.7183 10.2899 83.6862 10.2651H83.6511C83.5398 10.2608 83.4302 10.2362 83.3278 10.1925C83.3214 10.1973 83.3136 10.1998 83.3056 10.1998C83.2975 10.1998 83.2897 10.1973 83.2833 10.1925C83.11 10.1691 82.9389 10.1503 82.7656 10.1246C82.4543 10.0932 82.1414 10.0792 81.8285 10.0824C81.4017 10.1264 80.9807 10.216 80.5729 10.3495C80.5348 10.3806 80.4898 10.4023 80.4417 10.4127C80.1693 10.5523 79.9105 10.717 79.6687 10.9047C79.3623 11.195 79.1114 11.5387 78.9284 11.919L78.8206 12.2704C78.8089 12.3313 78.7995 12.3922 78.7902 12.4531L79.1064 12.5468C79.5749 12.685 80.0435 12.8256 80.512 12.9568C80.6338 12.9828 80.7445 13.0462 80.8285 13.1382C80.9125 13.2302 80.9657 13.3461 80.9805 13.4698C80.9851 13.5103 80.9851 13.5512 80.9805 13.5916C80.9814 13.6955 80.9556 13.7979 80.9055 13.889C80.8555 13.9801 80.7829 14.0567 80.6947 14.1117C80.6146 14.1591 80.5252 14.1887 80.4326 14.1984C80.34 14.2081 80.2465 14.1977 80.1583 14.1679C79.6897 14.025 79.2095 13.8891 78.7363 13.7533L78.6543 13.7275C78.6266 13.7205 78.5976 13.7205 78.57 13.7275C78.5556 13.6818 78.5556 13.6327 78.57 13.5869C78.6145 13.3527 78.659 13.1067 78.6824 12.8654C78.6824 12.8256 78.6824 12.7881 78.6941 12.7506C78.7503 12.6686 78.6754 12.5492 78.7667 12.4765L78.823 12.3009C78.8511 12.1205 78.8792 11.9401 78.9096 11.7597C78.9799 11.338 79.076 10.9234 79.1744 10.5064C79.2389 10.2664 79.3211 10.0315 79.4203 9.80363C79.3993 9.80363 79.3875 9.80363 79.3946 9.77551C79.489 9.47992 79.6106 9.19368 79.7577 8.92046C79.7571 8.90763 79.7598 8.89486 79.7655 8.88338C79.7712 8.87189 79.7798 8.86207 79.7905 8.85487C79.7898 8.84417 79.792 8.83349 79.797 8.82399C79.8019 8.81449 79.8094 8.80654 79.8186 8.80099C79.9615 8.53093 80.1178 8.26823 80.2871 8.01387L80.3105 7.98576L80.3246 7.94359L80.3808 7.78429C80.4698 7.52426 80.4042 7.44227 80.1325 7.47741C80.2239 7.37902 80.3129 7.27829 80.4019 7.1799C80.3441 7.16146 80.2913 7.13023 80.2473 7.08854L80.4464 6.87067L80.4769 6.82851C80.4846 6.79505 80.5046 6.76576 80.5331 6.74651L80.5542 6.7184L80.5752 6.68092L80.594 6.65281C80.6244 6.57785 80.6549 6.50288 80.683 6.41855L80.6971 6.24988C80.6921 6.24133 80.6895 6.23164 80.6895 6.22177C80.6895 6.2119 80.6921 6.2022 80.6971 6.19366V6.15149C80.6971 6.15149 80.6971 6.15149 80.6971 6.13978V6.09761C80.6783 6.06481 80.6432 6.04139 80.6455 5.99688C80.6208 5.95687 80.5871 5.92318 80.5471 5.89849C80.6046 5.86883 80.6712 5.86251 80.7332 5.88084C80.7952 5.89918 80.8477 5.94075 80.8798 5.99688C80.8798 6.04139 80.9126 6.06481 80.9313 6.09761V6.13978C80.9313 6.13978 80.9313 6.13978 80.9313 6.15149V6.19366C80.9264 6.2022 80.9238 6.2119 80.9238 6.22177C80.9238 6.23164 80.9264 6.24133 80.9313 6.24988L80.9173 6.41855C80.8892 6.49351 80.8587 6.56847 80.8282 6.65281L80.8095 6.68092L80.7884 6.7184L80.7673 6.74651C80.7389 6.76576 80.7188 6.79505 80.7111 6.82851L80.6807 6.87067L80.4019 7.1799C80.4558 7.19665 80.5118 7.20611 80.5682 7.20801C80.6771 7.20525 80.7858 7.19665 80.8938 7.18224C81.0672 7.18224 81.1867 7.04402 81.3436 6.96906C81.3268 7.10023 81.3324 7.2333 81.36 7.36262C81.4153 7.43199 81.4873 7.48621 81.5692 7.52021C81.6512 7.55422 81.7404 7.56689 81.8285 7.55706C81.8296 7.5556 81.831 7.55442 81.8327 7.55361C81.8343 7.5528 81.8361 7.55237 81.8379 7.55237C81.8397 7.55237 81.8415 7.5528 81.8432 7.55361C81.8448 7.55442 81.8462 7.5556 81.8473 7.55706H81.8754L81.9574 7.52895C82.0571 7.44839 82.1755 7.39439 82.3017 7.37199C82.3369 7.35325 82.3837 7.33685 82.4025 7.37199C82.4212 7.40713 82.3791 7.43993 82.3533 7.46804C82.344 7.47839 82.3354 7.48934 82.3275 7.50083C82.3421 7.55128 82.3693 7.59715 82.4066 7.63406C82.4439 7.67097 82.4901 7.69769 82.5407 7.71167C82.6668 7.76236 82.7857 7.8293 82.8944 7.91079C82.9577 7.91079 82.9952 7.94125 82.9952 7.99981C83.035 8.03572 83.0725 8.07405 83.1076 8.1146C83.3002 8.35365 83.4364 8.63313 83.5059 8.93217C83.6179 9.32132 83.6747 9.72429 83.6745 10.1292C83.6734 10.1456 83.6734 10.1621 83.6745 10.1784V10.2347V10.2651C83.7066 10.2899 83.7432 10.3082 83.7823 10.319C83.8226 10.326 83.8638 10.326 83.9041 10.319C83.9041 10.2956 83.9158 10.2745 83.9228 10.2511C83.9228 10.2745 83.9088 10.2956 83.9041 10.319H83.9158Z" fill="#1D1D1B" fill-opacity="0.7"/>
<path d="M83.6855 10.3311C83.6855 10.3077 83.6973 10.2866 83.7043 10.2632C83.7043 10.2866 83.6902 10.3077 83.6855 10.3311Z" fill="#1D1D1B" fill-opacity="0.7"/>
<path d="M77.9418 17.8955C77.9246 17.8969 77.9079 17.9017 77.8926 17.9096C77.9079 17.9017 77.9246 17.8969 77.9418 17.8955Z" fill="#1D1D1B" fill-opacity="0.7"/>
<path d="M78.4154 13.7279C78.3877 13.7209 78.3587 13.7209 78.3311 13.7279C78.3587 13.7209 78.3877 13.7209 78.4154 13.7279Z" fill="#1D1D1B" fill-opacity="0.7"/>
<path d="M74.4702 18.4526C74.4702 18.4526 74.2921 16.11 74.3085 15.5454C74.3249 14.9808 74.3999 14.9082 74.3999 14.9082L74.3765 14.8895L74.1937 14.7958H74.1539C73.9477 14.6867 73.7321 14.5965 73.5097 14.5264C73.4183 14.5264 73.327 14.5404 73.2379 14.5568C72.9243 14.5789 72.6153 14.6443 72.3196 14.7513H72.2939C72.286 14.9017 72.2311 15.046 72.1369 15.1636C72.0943 15.221 72.0465 15.2743 71.994 15.3229L72.0128 15.3416C72.0854 15.4212 72.1486 15.4986 72.2119 15.5759C72.3932 15.806 72.5569 16.0496 72.7015 16.3044C73.1903 17.2185 73.4981 18.2184 73.6081 19.2491L73.6666 19.8136L73.327 19.2912L73.2707 19.2022C72.946 18.6601 72.5819 18.1426 72.1814 17.6538C71.7265 17.0849 71.2024 16.5749 70.6212 16.1357C70.5978 16.1147 70.572 16.0983 70.5486 16.0795C70.4713 16.1053 70.394 16.1311 70.3144 16.1521C70.1013 16.2154 69.8835 16.2616 69.6631 16.2904C69.6543 16.3087 69.6465 16.3274 69.6397 16.3466L69.6092 16.4145C69.5909 16.4503 69.5745 16.4871 69.56 16.5246C69.3949 16.9851 69.3055 17.4692 69.2953 17.9583C69.2953 18.0637 69.2953 18.1691 69.2953 18.2769C69.2953 18.4948 69.3141 18.7173 69.3281 18.9328C69.3281 19.0289 69.3398 19.1273 69.3445 19.2233L69.3726 19.6918L69.1032 19.3123C68.4567 18.3917 68.1662 17.6139 68.1451 16.787C68.1431 16.6477 68.1493 16.5085 68.1638 16.37C68.0538 16.3611 67.9443 16.3462 67.8359 16.3255C67.7411 16.3059 67.6485 16.2768 67.5594 16.2388L67.5056 16.2786C67.2987 16.4275 67.1195 16.6115 66.9761 16.8221C66.9012 16.9252 66.8262 17.0306 66.7419 17.1431L66.4514 17.5694L66.5006 17.0564C66.5167 16.8931 66.5441 16.731 66.5826 16.5715C66.6511 16.2741 66.7558 15.9861 66.8941 15.7141C66.9073 15.6911 66.9221 15.6692 66.9387 15.6485L66.9621 15.6133C66.9832 15.5805 67.0089 15.5501 67.03 15.5173C67.0952 15.341 67.2079 15.1861 67.3556 15.0699C67.4365 15.0014 67.5226 14.9395 67.6133 14.8848L67.7305 14.8098H67.7422H67.7023C67.6611 14.7983 67.6186 14.7912 67.5758 14.7887L67.5126 14.7723L67.4447 14.7559L67.3627 14.7419C67.0005 14.8783 66.6462 15.0347 66.3015 15.2104C66.0025 15.3626 65.7123 15.5316 65.4324 15.7164C65.1642 15.8964 64.9069 16.0919 64.6616 16.3021L64.5726 16.3841C64.0616 16.8342 63.6231 17.3605 63.2725 17.9442L63.3779 17.9958C63.4877 17.7932 63.6433 17.6191 63.8323 17.4874C63.9688 17.3874 64.123 17.3142 64.2868 17.2719C64.2868 17.2719 64.3243 17.2907 64.3056 17.3656C64.232 17.614 64.1996 17.8728 64.2095 18.1317C64.2517 18.38 64.2517 18.3776 64.2657 18.38C64.3936 18.2994 64.5275 18.2289 64.6663 18.1691C65.1159 17.9845 65.5889 17.863 66.0719 17.8084C66.4708 17.7709 66.8724 17.7709 67.2713 17.8084C67.3627 17.8459 67.3861 17.8412 67.3978 17.8997C67.4095 17.9583 67.3837 17.9981 67.3182 18.0286C66.6109 18.209 65.9316 18.4848 65.2988 18.8485C65.7675 18.8202 66.2377 18.8319 66.7044 18.8836C67.0663 18.9243 67.4243 18.994 67.775 19.0921C68.1298 19.1916 68.4748 19.3234 68.8057 19.4857C69.3489 19.7545 69.8337 20.1279 70.2324 20.5844C70.2464 20.6031 70.2628 20.6172 70.2769 20.6359C70.8642 21.3429 71.2084 22.2201 71.2584 23.1378C71.2724 23.3359 71.2724 23.5348 71.2584 23.7328L74.9715 22.9715H74.9902L74.6997 20.6429L74.4702 18.4526Z" fill="#1D1D1B" fill-opacity="0.7"/>
<path d="M64.1538 17.6188C64.1725 17.5251 64.1959 17.4314 64.2194 17.333C63.8909 17.4511 63.6163 17.6841 63.4463 17.9889L64.1491 18.3239C64.0944 18.0929 64.0944 17.8522 64.1491 17.6211" fill="#1D1D1B" fill-opacity="0.7"/>
<path d="M65.0433 18.8346L65.123 18.7761C65.4927 18.5458 65.8853 18.3543 66.2943 18.2045C66.4372 18.1482 66.5801 18.0967 66.7253 18.0475L67.2501 17.8765C66.8546 17.8319 66.4554 17.8319 66.06 17.8765C65.9124 17.8952 65.7672 17.9187 65.6219 17.9515C65.4767 17.9843 65.3502 18.0194 65.2167 18.0616H65.2026C64.8874 18.1645 64.5836 18.2995 64.296 18.4645C64.2211 18.5067 64.2 18.4903 64.1765 18.42C64.0951 18.1602 64.087 17.8829 64.1531 17.6188C64.1719 17.5251 64.1953 17.4314 64.2187 17.333C64.0324 17.4014 63.8618 17.5068 63.7173 17.6429C63.5727 17.779 63.4572 17.9429 63.3777 18.1248L63.2301 17.9983C63.2137 18.0264 63.1997 18.0569 63.1856 18.085C63.1716 18.1131 63.2067 18.181 63.2208 18.2302C63.2489 18.331 63.277 18.434 63.3121 18.5324L63.3285 18.5769C63.3426 18.6214 63.3637 18.687 63.3754 18.7128C63.4623 18.9128 63.5666 19.1049 63.6869 19.2867C63.7126 19.3122 63.7329 19.3425 63.7468 19.3759C63.7607 19.4093 63.7679 19.445 63.7679 19.4812C63.7679 19.5173 63.7607 19.5531 63.7468 19.5865C63.7329 19.6199 63.7126 19.6501 63.6869 19.6756C63.6331 19.7282 63.5608 19.7577 63.4855 19.7576C63.4125 19.7548 63.3418 19.7312 63.2817 19.6897C63.1554 19.5957 63.0461 19.4808 62.9584 19.35C62.9347 19.3149 62.9089 19.2812 62.8811 19.2493C62.8178 19.1673 62.7569 19.0806 62.7007 18.9939C62.5982 18.8315 62.5051 18.6634 62.4219 18.4903L62.3938 18.4153C62.2694 18.4014 62.1442 18.3944 62.019 18.3942C61.8085 18.3902 61.5986 18.417 61.3959 18.4739L61.5247 18.516C61.9335 18.6453 62.2804 18.9205 62.4992 19.2891C62.5391 19.357 62.5859 19.4226 62.4852 19.439C62.2043 19.4839 61.9265 19.5465 61.6536 19.6264C61.1451 19.7401 60.6637 19.9517 60.2363 20.2496C60.0525 20.4055 59.8781 20.5721 59.7139 20.7485C60.0699 20.6338 60.344 20.533 60.7071 20.444C60.7704 20.4229 60.836 20.4042 60.8992 20.3878C61.0276 20.352 61.1583 20.3254 61.2904 20.3081C61.3565 20.2984 61.4229 20.2921 61.4896 20.2894C61.7303 20.257 61.9747 20.2633 62.2134 20.3081L62.0143 20.7485C61.9366 20.9586 61.877 21.1749 61.8363 21.3951C61.7971 21.6078 61.7736 21.8231 61.766 22.0393C61.766 22.1822 61.766 22.3204 61.766 22.4586C61.766 22.5969 61.7847 22.728 61.8011 22.8592C61.8277 23.056 61.8605 23.2434 61.8995 23.4215C61.937 23.5972 61.9815 23.7635 62.0284 23.9134C62.0284 23.8666 62.0448 23.8314 62.0495 23.7963C62.1087 23.4309 62.1869 23.0689 62.2837 22.7117C62.3165 22.5945 62.3516 22.4774 62.3915 22.3579C62.4313 22.2384 62.4852 22.0838 62.5367 21.948C62.5367 21.9245 62.5578 21.8988 62.5672 21.873C62.6789 21.5923 62.8088 21.3192 62.956 21.0554C63.0052 20.9664 63.0568 20.8797 63.113 20.793C63.2043 20.6299 63.3068 20.4734 63.4199 20.3245L63.4785 20.2402C63.5019 20.2097 63.5206 20.1957 63.5604 20.2168L63.6026 20.2425C63.7676 20.3295 63.9217 20.4356 64.0618 20.5588L64.1133 20.6056C64.1531 20.6384 64.1929 20.6689 64.2304 20.704C64.3979 20.8698 64.5464 21.0536 64.6732 21.2522C64.7384 21.3502 64.7978 21.4519 64.8512 21.5567C64.9051 21.6598 64.9566 21.7676 65.0035 21.8753C65.0503 21.9831 65.0949 22.1096 65.137 22.215C65.1792 22.3204 65.2214 22.4493 65.2635 22.557C65.4533 21.7746 65.4978 21.0039 65.0691 20.2753C64.9894 20.1676 64.9121 20.0575 64.8348 19.9521C64.7997 19.9075 64.8114 19.8911 64.8582 19.8771H64.9192C65.2844 19.7983 65.6648 19.8284 66.0132 19.9638C66.1228 20.0104 66.23 20.0628 66.3341 20.1207L66.5496 20.2472C66.5044 20.1662 66.4543 20.088 66.3997 20.013C66.2459 19.8022 66.062 19.6151 65.8539 19.4578C65.5248 19.237 65.1435 19.1069 64.7481 19.0806C64.7777 19.0389 64.8172 19.0051 64.8629 18.9822C64.8928 18.9539 64.9249 18.9281 64.959 18.9049C64.9922 18.8827 65.0266 18.8624 65.0621 18.844" fill="#1D1D1B" fill-opacity="0.7"/>
<path d="M68.5555 29.353C70.2676 28.9758 72.0298 28.8809 73.7725 29.0719C76.3283 29.2921 79.1816 31.8456 79.6173 34.8113C79.95 36.3481 80.1022 37.8216 80.3201 39.3396C80.3632 39.6142 80.3295 39.8954 80.2229 40.1521C80.1162 40.4088 79.9407 40.6311 79.7157 40.7944C79.2548 41.1694 78.6817 41.3796 78.0876 41.3917C77.8837 41.4068 77.6801 41.3577 77.5054 41.2515C77.3307 41.1452 77.1935 40.987 77.1131 40.799C76.7951 40.0664 76.5144 39.3182 76.2721 38.5572C75.7426 36.9361 74.7822 35.7273 73.065 35.3431C72.3057 35.1862 71.5272 35.1436 70.7552 35.2166C69.0615 35.3572 67.5622 35.985 66.4917 37.3765C66.1096 37.8527 65.8321 38.4039 65.6771 38.9944C65.5221 39.5848 65.4932 40.2013 65.5921 40.8037C65.7116 41.5838 65.4539 42.1952 64.737 42.5115C64.1514 42.7715 62.8419 43.3806 62.2094 43.4321C61.0919 43.5259 59.7777 43.1018 59.3139 42.1086C58.6978 40.785 58.665 38.5314 58.9461 37.0602C59.399 34.9698 60.6366 33.1327 62.4038 31.9276C64.4606 30.4681 65.9177 29.8942 68.5532 29.3507L68.5555 29.353ZM60.5883 36.1771C61.3795 34.5492 62.7084 33.2442 64.3505 32.4828C66.773 31.3183 69.3984 30.6349 72.0811 30.4705C74.0349 30.3299 75.8036 30.85 77.2349 32.2602C77.4434 32.464 77.6378 32.6772 77.8393 32.888C77.8165 32.7652 77.7633 32.6501 77.6847 32.553C76.4806 30.9132 74.7705 30.2479 72.8355 30.1495C69.01 29.9527 65.5733 31.0866 62.5022 33.3612C61.5534 34.064 60.7944 34.9449 60.5742 36.1724" fill="#1D1D1B" fill-opacity="0.7"/>
<path d="M72.5845 46.421C69.4665 47.0325 66.7538 45.6386 65.5684 43.0781C65.5193 43.0085 65.4994 42.9225 65.513 42.8384C65.5265 42.7543 65.5725 42.6789 65.641 42.6283C65.8586 42.4182 66.0256 42.1614 66.1295 41.8774C66.2333 41.5933 66.2714 41.2894 66.2407 40.9885C66.0674 38.3132 67.2106 36.7015 69.8085 36.0034C70.6704 35.7689 71.5708 35.7107 72.4557 35.8324C74.0955 36.0667 75.2528 37.1818 75.7354 38.9809C75.897 39.5712 76.1149 40.1522 76.328 40.7215C76.3887 40.9133 76.4948 41.0877 76.6373 41.2298C76.9957 41.539 76.9582 41.867 76.8317 42.2676C76.1102 44.5704 74.5242 45.9174 72.5752 46.421H72.5845ZM67.1989 41.2931C67.3397 42.0543 67.7025 42.757 68.2417 43.3125C68.781 43.868 69.4725 44.2516 70.2292 44.415C70.986 44.5784 71.7742 44.5142 72.4945 44.2307C73.2149 43.9471 73.8353 43.4568 74.2777 42.8214C74.72 42.186 74.9645 41.4339 74.9804 40.6599C74.9962 39.8859 74.7828 39.1245 74.3669 38.4715C73.951 37.8185 73.3512 37.3031 72.643 36.9903C71.9349 36.6774 71.15 36.581 70.3872 36.7132C69.8772 36.8034 69.3903 36.9939 68.9544 37.2735C68.5186 37.5531 68.1425 37.9164 67.848 38.3423C67.5535 38.7682 67.3463 39.2483 67.2385 39.7548C67.1307 40.2613 67.1244 40.7841 67.22 41.2931" fill="#1D1D1B" fill-opacity="0.7"/>
<path d="M72.6755 38.1964C73.1493 38.5167 73.5173 38.9707 73.7324 39.5007C73.9476 40.0306 74.0003 40.6126 73.8839 41.1726C73.7674 41.7326 73.4871 42.2454 73.0785 42.6456C72.6698 43.0459 72.1514 43.3156 71.5891 43.4204C71.0269 43.5253 70.4461 43.4605 69.9207 43.2344C69.3953 43.0084 68.949 42.6311 68.6385 42.1507C68.328 41.6703 68.1675 41.1085 68.1772 40.5366C68.1869 39.9647 68.3664 39.4086 68.693 38.939C69.1263 38.317 69.7869 37.8905 70.5321 37.7516C71.2772 37.6126 72.0471 37.7724 72.6755 38.1964ZM68.7727 40.1314C69.0936 39.281 69.5926 38.6087 70.539 38.4119C71.4433 38.2245 72.2069 38.5899 72.9285 39.0889C72.6495 38.6859 72.2489 38.3828 71.7852 38.2238C71.3215 38.0649 70.8191 38.0586 70.3516 38.2057C69.438 38.4939 68.7891 39.267 68.775 40.1314" fill="#1D1D1B" fill-opacity="0.7"/>
<path d="M81.0337 38.3909C80.9307 38.4986 80.6191 38.8242 80.7011 39.1194C80.7388 39.2063 80.7947 39.284 80.865 39.3475C80.9354 39.4109 81.0184 39.4586 81.1087 39.4872C82.6783 40.1478 105.02 34.4154 105.603 34.4506C105.663 34.4541 105.723 34.4412 105.776 34.4131C105.976 34.3053 106.051 33.9446 105.971 33.6845C105.912 33.5091 105.796 33.3585 105.641 33.2566C105.487 33.1547 105.303 33.1074 105.118 33.1223C105.072 33.1312 105.027 33.1454 104.985 33.1645C104.872 33.2207 92.9249 35.999 90.2847 36.6456L90.0997 36.6925C85.3207 37.8474 82.0036 37.3742 81.0337 38.3909Z" fill="#1D1D1B" fill-opacity="0.7"/>
<path d="M118.781 36.9245C115.562 37.5898 112.299 35.54 111.704 32.3095C111.54 31.4616 111.554 30.5889 111.746 29.7468C111.938 28.9047 112.302 28.1117 112.817 27.4181C113.508 26.4811 114.581 25.9962 115.67 25.6237C117.582 24.9678 119.371 25.3191 121.058 26.3499C121.761 26.7786 122.091 27.4931 122.391 28.2099C122.574 28.6433 122.653 29.1189 122.831 29.5546C122.949 29.8776 123.129 30.1745 123.361 30.4284C123.437 30.4952 123.498 30.5782 123.539 30.6714C123.579 30.7646 123.598 30.8656 123.595 30.9672C123.604 32.3648 123.129 33.7224 122.249 34.8087C121.37 35.895 120.141 36.6427 118.772 36.9245H118.781ZM118.357 34.8583C119.12 34.6997 119.818 34.3178 120.363 33.7613C120.908 33.2048 121.275 32.4987 121.418 31.7329C121.56 30.9671 121.472 30.1762 121.163 29.4608C120.855 28.7454 120.341 28.1379 119.687 27.7155C119.032 27.2931 118.267 27.0749 117.488 27.0887C116.709 27.1025 115.952 27.3476 115.313 27.7929C114.674 28.2382 114.182 28.8636 113.899 29.5894C113.616 30.3153 113.556 31.1088 113.726 31.8691C113.95 32.8776 114.562 33.7571 115.431 34.3167C116.299 34.8764 117.353 35.071 118.364 34.8583" fill="#1D1D1B" fill-opacity="0.7"/>
<path d="M125.059 30.0157C124.998 30.0274 124.937 30.0438 124.874 30.0532C123.726 30.2429 123.288 29.8705 123.384 28.7085C123.431 28.4173 123.582 28.1529 123.808 27.9636C124.093 27.7419 124.419 27.5772 124.766 27.4787C125.401 27.2819 125.832 27.5372 126.043 28.165L126.08 28.2705C126.427 29.3855 126.193 29.7908 125.059 30.0157Z" fill="#1D1D1B" fill-opacity="0.7"/>
<path d="M115.347 29.1822C115.711 28.7422 116.197 28.42 116.745 28.2563C117.292 28.0927 117.875 28.095 118.421 28.2628C118.967 28.4307 119.451 28.7566 119.812 29.1994C120.172 29.6422 120.394 30.182 120.448 30.7506C120.502 31.3191 120.386 31.8909 120.115 32.3937C119.844 32.8965 119.43 33.3077 118.926 33.5754C118.421 33.843 117.849 33.9551 117.28 33.8974C116.712 33.8397 116.174 33.6149 115.733 33.2513C115.144 32.7618 114.773 32.059 114.7 31.2965C114.628 30.534 114.86 29.7738 115.347 29.1822ZM119.582 29.7491C119.299 28.9807 118.16 28.4091 117.221 28.5637C116.169 28.7324 115.314 29.5945 115.298 30.4964C116.207 28.3341 118.193 28.388 119.582 29.7491Z" fill="#1D1D1B" fill-opacity="0.7"/>
<path d="M123.155 28.3291C122.97 27.9472 122.782 27.556 122.588 27.1578C122.252 26.494 121.718 25.9512 121.06 25.6046C118.071 23.9507 115.129 24.5832 112.716 26.5745C111.924 27.228 111.545 28.1698 111.334 29.1513C111.149 30.0298 111.1 30.9341 110.943 31.8219C110.846 32.4119 110.714 32.9955 110.547 33.5695C110.482 33.7686 110.37 33.949 110.221 34.0951C110.071 34.2413 109.888 34.3487 109.687 34.4082C108.984 34.6867 108.222 34.781 107.473 34.6822C107.252 34.6424 107.037 34.5764 106.831 34.4855C106.745 34.4612 106.665 34.4201 106.595 34.3647C106.524 34.3092 106.466 34.2404 106.422 34.1623C106.379 34.0841 106.351 33.9982 106.341 33.9093C106.331 33.8205 106.338 33.7305 106.363 33.6445C106.517 32.6934 106.335 31.7493 106.129 30.8146C105.922 29.8377 105.063 26.6611 105.238 25.6725C105.562 23.8477 105.997 23.1285 107.815 21.58C108.026 21.3987 108.251 21.2342 108.488 21.0881C111.252 19.3803 115.79 18.4339 118.896 18.0005C120.269 17.8084 120.489 17.6936 121.847 18.0216C123.122 18.3261 124.385 20.4391 124.347 22.2547C124.265 22.6801 124.134 23.0945 123.956 23.4892C123.679 24.0843 124.216 25.4289 124.296 26.0333C124.307 26.1317 124.312 26.2324 124.331 26.3308C124.457 26.9258 124.495 27.4553 123.752 27.7223C123.518 27.809 123.351 28.1112 123.148 28.3197L123.155 28.3291ZM106.1 24.2646L106.182 24.3279C106.635 23.946 107.061 23.5244 107.546 23.1894C108.039 22.8591 108.558 22.5677 109.097 22.3179C112.212 20.821 115.436 19.6684 118.863 19.1812C119.931 19.0336 121.016 18.9867 122.091 18.893C120.815 18.6506 119.507 18.6364 118.226 18.8509C116.027 19.236 113.873 19.8435 111.798 20.664C110.207 21.2919 108.628 21.9595 107.279 23.0605C106.866 23.4391 106.474 23.8411 106.107 24.2646H106.1ZM123.879 23.1636C124.598 21.9923 123.494 19.1812 122.733 18.9961C122.712 20.0714 123.162 22.2758 123.879 23.1636Z" fill="#1D1D1B" fill-opacity="0.7"/>
<path d="M89.6761 34.6425C88.6524 31.3207 87.3921 26.4012 87.1883 22.8428L86.5604 22.9716C77.2111 24.9956 61.7428 28.1793 52.3325 29.9011C51.977 29.955 51.6283 30.0469 51.2924 30.1752C51.2268 30.2284 51.1758 30.2973 51.1438 30.3755C51.1119 30.4537 51.1001 30.5387 51.1096 30.6226C51.1507 30.6897 51.2072 30.746 51.2744 30.7867C51.3417 30.8275 51.4177 30.8516 51.4962 30.8569C52.1591 30.8686 52.3981 30.9951 52.6113 31.6206C52.7361 32.0277 52.8385 32.4414 52.9181 32.8598C53.2391 34.2654 53.8552 37.2827 54.2113 38.6906C54.4268 39.5456 54.9984 39.9251 55.7785 39.8267C55.8464 39.8267 56.8748 39.7494 58.4584 39.6464C58.4057 38.7545 58.4592 37.8596 58.6177 36.9805C59.0897 34.8016 60.3792 32.8866 62.2207 31.6299C64.247 30.1916 65.7135 29.5778 68.4801 29.0085C70.2239 28.6255 72.0184 28.529 73.7932 28.7227C76.5739 28.957 79.467 31.6744 79.9355 34.6988C80.1885 35.9778 80.3759 36.8469 80.4884 37.9175C83.2737 37.3342 87.7247 36.4089 88.7836 36.1746C89.9244 35.9239 90.0158 35.7553 89.6691 34.6332L89.6761 34.6425ZM54.7875 38.8335C54.529 38.2005 54.3359 37.5427 54.2113 36.8704C54.0098 35.6381 53.567 32.8129 53.4312 31.5667C53.5881 32.3304 53.7568 33.0917 53.8997 33.8577C54.0426 34.6238 54.4947 37.0414 54.6306 37.8402C54.7501 38.543 54.8649 39.2598 55.8206 39.3512C55.6146 39.4119 55.3932 39.392 55.2013 39.2954C55.0094 39.1988 54.8615 39.0328 54.7875 38.8311V38.8335ZM55.3029 30.2384C62.551 28.4791 69.8763 26.9751 77.197 25.7336C76.5317 26.1318 56.8584 30.1845 55.3029 30.2384ZM88.5681 35.5374C88.4243 35.5351 88.2864 35.4798 88.1809 35.3821C88.0754 35.2844 88.0097 35.1512 87.9965 35.008C87.4038 32.0329 86.4667 27.4835 85.8389 24.5154C85.8131 24.4498 85.8011 24.3795 85.8036 24.309C85.8061 24.2385 85.823 24.1693 85.8533 24.1056C85.8836 24.042 85.9266 23.9852 85.9798 23.9388C86.0329 23.8924 86.095 23.8575 86.1622 23.836C86.865 27.2164 87.8746 32.164 88.5681 35.5491" fill="#1D1D1B" fill-opacity="0.7"/>
<path d="M85.9418 22.8101L84.6581 23.0748C84.6089 22.8405 84.548 22.6273 84.5246 22.4095C84.4941 22.112 84.3723 22.0487 84.0795 22.112C81.9711 22.5571 73.7274 24.2484 71.6285 24.6888L70.3236 24.9582C70.2393 24.9746 70.1573 25.0027 70.0378 25.0379C70.1105 25.3869 70.1784 25.7243 70.2533 26.0897L68.9649 26.3544C68.8946 26.0171 68.8244 25.6704 68.7494 25.3026L54.6914 28.1864C54.7546 28.4956 54.8179 28.7954 54.8835 29.1234L53.602 29.3858C53.5365 29.0766 53.4779 28.7861 53.4076 28.4487L51.571 28.8282C51.5007 28.4768 51.4375 28.1747 51.3672 27.8279C51.4937 27.7928 51.6202 27.753 51.749 27.7272L86.1058 20.6572C86.8227 20.5096 86.825 20.5096 86.9656 21.2311C86.9796 21.3038 86.989 21.3787 87.0077 21.5005L85.7263 21.7582C85.8036 22.1307 85.8692 22.461 85.9418 22.803" fill="#1D1D1B" fill-opacity="0.7"/>
<path d="M102.076 19.5795C101.966 19.4704 101.83 19.39 101.682 19.3452H101.649L101.638 19.3124C101.095 17.7171 100.415 16.1714 99.6066 14.6928C99.4028 14.2922 98.9202 13.3552 98.2432 13.3153C98.1771 13.307 98.1102 13.307 98.0441 13.3153C97.8637 13.3481 97.4935 13.402 96.9829 13.4746C95.0033 13.7558 90.8921 14.3414 89.8543 14.9716C89.7475 15.0242 89.6528 15.0984 89.5761 15.1896C89.4995 15.2807 89.4427 15.3868 89.4092 15.501C89.4149 15.6031 89.4371 15.7035 89.4748 15.7985V15.8126V15.829C89.4748 15.9461 89.6317 17.0307 90.4938 21.5473V21.6035C90.4938 21.6551 90.4657 21.723 90.4423 21.8097C90.3816 22.01 90.3392 22.2154 90.3158 22.4234C89.8027 27.7599 92.2789 32.834 92.5553 33.3798L103.751 31.0771C103.855 31.0556 103.955 31.0137 104.043 30.9537C104.131 30.8938 104.207 30.8171 104.266 30.7279C104.325 30.6387 104.365 30.5388 104.385 30.4339C104.406 30.329 104.405 30.2212 104.383 30.1166L102.324 20.0949C102.293 19.9027 102.204 19.7246 102.069 19.5842L102.076 19.5795ZM93.743 22.6483C93.7464 22.6645 93.7466 22.6812 93.7434 22.6974C93.7403 22.7136 93.734 22.729 93.7248 22.7428C93.7157 22.7565 93.7039 22.7683 93.6901 22.7774C93.6763 22.7866 93.6609 22.7928 93.6446 22.7959L92.0352 23.1286C92.0044 23.2483 91.9335 23.3539 91.8343 23.4277C91.7351 23.5015 91.6136 23.5391 91.49 23.5343C91.3664 23.5294 91.2483 23.4824 91.1552 23.4011C91.062 23.3197 90.9996 23.2089 90.9782 23.0871C90.9568 22.9653 90.9778 22.8399 91.0377 22.7317C91.0975 22.6235 91.1926 22.539 91.3071 22.4924C91.4216 22.4457 91.5487 22.4397 91.6671 22.4754C91.7855 22.511 91.8882 22.5861 91.9579 22.6882L93.579 22.4609C93.6106 22.4561 93.6429 22.4636 93.669 22.4819C93.6952 22.5003 93.7133 22.528 93.7196 22.5593L93.743 22.6483ZM100.373 19.4881L91.6651 21.2896C91.5626 21.3117 91.4566 21.3131 91.3535 21.2936C91.2505 21.2741 91.1523 21.2341 91.065 21.176C90.9776 21.1179 90.9028 21.0429 90.8449 20.9553C90.787 20.8678 90.7473 20.7696 90.7281 20.6665C89.9808 16.7285 89.8121 15.5549 89.8027 15.5127C89.8649 15.4084 89.9539 15.3227 90.0604 15.2644C90.2947 15.1238 90.8827 14.8896 92.389 14.5804C93.9656 14.2571 95.9029 13.983 97.0438 13.819C97.5615 13.7464 97.934 13.6925 98.119 13.6574C98.1556 13.6538 98.1925 13.6538 98.2291 13.6574C98.6976 13.6855 99.131 14.5476 99.2763 14.8287C99.9105 15.998 100.467 17.2078 100.942 18.4504C100.981 18.5556 100.997 18.668 100.989 18.78C100.981 18.892 100.949 19.001 100.895 19.0994C100.841 19.1979 100.766 19.2835 100.676 19.3506C100.586 19.4177 100.482 19.4646 100.373 19.4881Z" fill="#1D1D1B" fill-opacity="0.7"/>
<path d="M118.916 16.956C118.793 16.7515 118.64 16.5667 118.462 16.4078C117.37 15.4029 115.52 15.5856 114.763 15.6606C114.388 15.6957 114.109 15.7496 114.03 15.7636C110.642 16.4149 108.902 16.7499 105.934 17.3824C105.35 16.3704 104.12 14.8313 103.572 14.1472C102.87 13.2781 102.553 12.9408 102.115 12.6011C102.275 12.5238 102.38 12.4488 102.396 12.3481C102.429 12.1349 102.052 11.91 101.942 11.8468C100.916 11.2471 99.6742 11.493 99.3509 11.5563C96.4602 12.1185 92.9931 12.4512 90.1655 13.4444C89.8711 13.5433 89.592 13.6828 89.3363 13.8591C88.7439 14.27 88.2898 14.8507 88.0338 15.5247L88.0033 15.5762C87.9597 15.6705 87.9305 15.7708 87.9166 15.8737C87.7011 17.5792 88.7529 21.1001 88.9802 21.742C88.9993 21.8265 88.9886 21.9151 88.9497 21.9926C88.8841 22.1098 88.8818 22.0887 88.8537 22.1004C88.6194 22.1918 88.1228 22.9601 88.186 24.935C88.1957 25.3767 88.2348 25.8173 88.3032 26.2539C89.0833 30.5034 90.114 36.1163 91.4024 36.06C91.4475 36.0583 91.4918 36.0487 91.5336 36.0319C93.6303 35.2964 103.209 33.1763 106.07 32.5508C106.022 31.9931 105.934 31.4396 105.807 30.8946C105.765 30.7025 105.697 30.4143 105.617 30.084C105.184 28.2615 104.772 26.4155 104.915 25.6331C105.257 23.7191 105.758 22.918 107.606 21.3437C107.827 21.1522 108.062 20.9776 108.309 20.8213C111.333 18.9472 116.211 18.0547 118.851 17.6869L119.172 17.6401C119.109 17.4066 119.022 17.1805 118.912 16.9654L118.916 16.956ZM88.0502 15.9018C88.0574 15.8451 88.0707 15.7893 88.09 15.7355C88.2059 15.7188 88.324 15.7258 88.4371 15.756C88.5502 15.7862 88.6561 15.839 88.7483 15.9112C88.829 15.995 88.8829 16.1011 88.9029 16.2158C89.4487 18.6005 89.5354 20.3669 89.8891 21.0134C89.9244 21.0683 89.9393 21.1338 89.9313 21.1985C89.9008 21.4 89.4628 21.6295 89.1114 21.7232C88.9052 21.1376 87.8393 17.5698 88.0502 15.9018ZM102.462 20.0787L104.521 30.0981C104.547 30.2198 104.549 30.3456 104.526 30.4681C104.503 30.5905 104.456 30.7072 104.388 30.8112C104.319 30.9153 104.231 31.0046 104.127 31.074C104.024 31.1434 103.908 31.1915 103.786 31.2155L92.4074 33.5417L92.4426 33.4551C92.2083 32.9865 89.6572 27.8328 90.1796 22.4073C90.2028 22.1912 90.2467 21.9778 90.3108 21.7701C90.3295 21.6951 90.3483 21.6295 90.3553 21.585V21.5639C89.3761 16.4289 89.3316 15.9253 89.3363 15.8269C89.2936 15.7161 89.2707 15.5988 89.2683 15.4802C89.3028 15.3454 89.3659 15.2196 89.4532 15.1113C89.5405 15.003 89.65 14.9147 89.7743 14.8523C90.8308 14.2081 94.9679 13.6178 96.9544 13.3367C97.444 13.2664 97.8329 13.2125 98.0086 13.1797C98.0856 13.1637 98.1644 13.1582 98.2429 13.1633C98.9949 13.2102 99.4821 14.1589 99.7164 14.6157C100.523 16.0904 101.201 17.6312 101.745 19.2213C101.928 19.2856 102.09 19.3981 102.213 19.547C102.337 19.696 102.418 19.8757 102.448 20.067L102.462 20.0787ZM105.058 17.9961C104.542 18.3358 103.272 18.9332 102.825 18.5654C102.723 18.4607 102.637 18.3424 102.567 18.214C101.989 17.366 101.792 16.7569 100.429 14.5267C100.316 14.344 100.098 13.9036 100.22 13.5897C100.274 13.4515 100.597 13.2711 100.663 13.2195C101.014 12.9431 101.525 12.8541 101.834 12.7276C102.319 13.0884 102.617 13.3976 103.364 14.3182C104.194 15.3163 104.963 16.3647 105.664 17.4573C105.481 17.6575 105.278 17.8381 105.058 17.9961ZM106.383 19.7765C106.373 19.7241 106.372 19.6699 106.382 19.6173C106.392 19.5647 106.413 19.5146 106.443 19.4699C106.472 19.4252 106.51 19.3869 106.555 19.3571C106.599 19.3273 106.649 19.3066 106.702 19.2963L108.696 18.8863C108.748 18.875 108.802 18.8743 108.855 18.8841C108.908 18.8939 108.958 18.9141 109.003 18.9436C109.048 18.973 109.087 19.011 109.117 19.0555C109.147 19.1 109.168 19.15 109.178 19.2026L106.383 19.7765ZM106.278 19.2635C106.259 19.1593 106.282 19.0519 106.342 18.9643C106.401 18.8767 106.493 18.816 106.597 18.795L108.59 18.385C108.643 18.374 108.697 18.3735 108.749 18.3835C108.802 18.3934 108.852 18.4137 108.897 18.4431C108.942 18.4724 108.98 18.5104 109.011 18.5547C109.041 18.599 109.062 18.6488 109.073 18.7013L106.278 19.2635ZM106.173 18.7528C106.162 18.7002 106.161 18.6459 106.171 18.5931C106.181 18.5404 106.202 18.4901 106.232 18.4452C106.261 18.4004 106.299 18.3618 106.344 18.3318C106.388 18.3018 106.439 18.2808 106.491 18.2702L108.485 17.8603C108.591 17.8388 108.701 17.8599 108.791 17.9191C108.881 17.9783 108.945 18.0709 108.967 18.1765L106.173 18.7528Z" fill="#1D1D1B" fill-opacity="0.7"/>
<path d="M149.907 46.3273L127.833 56.5481L126.221 53.9361C126.221 53.9361 128.641 49.3821 129.332 45.8682C130.023 42.3542 128.526 40.8526 126.853 40.4497C125.181 40.0468 117.689 43.4459 117.689 43.4459C117.422 44.0034 117.478 43.6966 117.075 47.3464C116.672 50.9961 118.823 52.4181 118.977 52.1112C119.132 51.8043 118.996 51.6685 118.959 51.4202C118.921 51.1718 119.476 49.8834 120.341 48.6535C121.205 47.4237 124.068 46.0767 124.356 46.2711C124.644 46.4655 124.722 46.7396 124.644 48.3068C124.567 49.874 123.454 51.7083 122.646 52.7461C121.838 53.7839 120.861 55.5572 121.552 56.1241C122.243 56.691 122.934 59.0079 122.934 59.0079C122.934 59.0079 122.243 59.3148 113.257 64.6278C104.271 69.9409 90.435 80.6115 89.7416 83.2235C89.0482 85.8355 91.433 85.7582 92.9698 85.6059C94.5065 85.4537 125.129 76.9383 125.129 76.9383C125.129 76.9383 127.031 74.5183 128.819 68.3526C130.606 62.1868 128.645 58.4386 128.645 58.4386L148.581 47.9953L149.907 46.3273ZM122.302 69.7277C120.559 72.8504 120.456 73.0706 120.456 73.0706C120.456 73.0706 105.414 78.2572 104.781 78.1424C104.149 78.0276 107.808 68.8071 123.396 60.9101C123.396 60.9101 125.298 64.3608 122.302 69.7277Z" fill="#1D1D1B" fill-opacity="0.7"/>
<path d="M114.674 53.2053L112.214 54.3578C112.214 54.3578 112.449 55.1918 111.594 57.7616C110.083 62.2688 106.639 62.8849 106.332 63.0372C106.025 63.1895 105.629 61.5567 106.147 57.9936C106.831 53.3786 110.214 52.041 111.535 52.137C111.933 52.1422 112.32 52.2626 112.65 52.4837C113.072 52.7508 113.149 52.3689 113.304 51.9824C113.458 51.5959 113.341 50.2161 112.533 48.4474C111.725 46.6787 109.192 45.067 108.316 45.1818C107.44 45.2966 106.051 46.3344 103.821 49.026C101.591 51.7177 100.094 58.7081 100.094 58.7081C100.094 58.7081 95.6428 63.9063 94.4856 64.0469C92.4568 64.2999 90.5757 59.7341 90.5757 59.7341L94.2817 54.6155C94.2817 54.6155 96.4206 54.5124 97.7652 54.3203C99.1099 54.1283 100.373 51.7083 100.419 51.3991C100.466 51.0899 100.113 51.0149 97.9222 51.132C95.7318 51.2492 93.4197 50.0123 93.4197 50.0123C93.4197 50.0123 92.9511 49.8975 92.4194 50.4363C91.8876 50.9751 88.8164 55.7259 88.8164 55.7259C88.8164 55.7259 88.2378 54.1493 87.9122 53.1303C87.4944 51.8323 87.3649 50.4589 87.5327 49.1057L81.2779 50.3777C81.2779 50.3777 81.0858 51.1578 81.8542 54.4234C82.6226 57.689 84.9347 60.7087 84.9347 60.7087C84.0743 61.9588 83.05 63.0878 81.8893 64.0656C80.1605 65.4478 78.8978 61.8214 78.8978 61.8214C78.8978 61.8214 74.4796 65.087 73.0577 65.7031C71.6357 66.3192 72.9429 61.2849 73.0202 59.863C73.0975 58.441 74.749 51.7177 74.749 51.7177L64.6922 53.7722C64.6922 53.7722 64.5188 56.1148 63.1648 60.5166C61.8108 64.9183 58.1797 67.3734 56.739 68.4978C55.2983 69.6223 56.828 63.5409 56.828 63.5409L48.5258 65.2416C48.5258 65.2416 48.2915 66.0475 46.8555 68.9593C45.4195 71.8712 42.2242 74.598 41.3035 74.5113C40.3829 74.4247 38.9749 73.9819 41.683 69.0835C44.3911 64.1851 49.5636 61.6691 49.9665 61.7839C50.3694 61.8987 50.6013 61.9268 50.7442 61.7535C50.8871 61.5801 51.0324 61.0928 50.5709 60.1417C50.1094 59.1906 46.5884 56.1359 45.2977 55.8477C44.0069 55.5596 42.6763 56.8855 39.6754 60.5166C36.6745 64.1476 34.5755 71.2364 34.5755 71.2364C34.5755 71.2364 32.0502 73.5438 31.1295 73.6891C30.2089 73.8343 29.1407 70.0861 27.3532 64.15C25.7368 58.7619 23.9916 50.3965 23.6777 48.8644C25.9219 45.1326 28.5035 41.6749 31.4341 38.9364C36.0022 34.6681 38.5041 32.691 39.8206 31.932C39.8525 32.0079 39.8784 32.0862 39.8979 32.1662C40.0526 32.7425 37.7896 38.2758 37.7896 38.2758C37.7896 38.2758 43.7445 35.816 45.3211 32.6277C46.8977 29.4394 46.1668 26.134 45.628 25.2883C45.0892 24.4426 43.2081 23.9437 41.4394 24.1357C40.8014 24.2543 40.1902 24.4877 39.6356 24.8245L39.6121 24.8385C38.1246 25.6584 36.2856 27.0874 34.6926 28.5867C30.1588 32.3475 26.0341 36.5759 22.3869 41.2017C23.6004 37.2029 25.6502 28.7858 20.8103 30.4585C14.5087 32.6441 6.19942 36.5633 6.19942 36.5633L7.13647 38.5241C7.13647 38.5241 10.0179 35.6403 10.9409 37.5425C11.8639 39.4447 12.8946 54.81 8.57249 65.7992C6.4782 70.0674 0.577148 84.7533 0.577148 84.7533L11.1775 82.5793C11.1775 82.5793 14.0987 69.367 18.4818 59.1532C19.2478 63.1567 21.3257 73.9749 21.731 75.7225C22.2323 77.8753 24.7295 80.1734 28.6487 79.5269C32.5679 78.8803 35.8312 75.767 35.8312 75.767C35.8312 75.767 37.0236 77.5333 37.7053 78.0721C38.387 78.6109 39.8956 79.9931 44.0819 76.9969C48.2681 74.0007 49.6737 69.4466 49.6737 69.4466C49.6737 69.4466 49.7603 72.7263 51.3135 74.0288C52.8667 75.3313 54.0942 75.6686 58.3577 73.4244C62.6213 71.1801 66.7584 60.369 66.7584 60.369C66.7584 60.369 66.2125 63.077 65.6925 65.4993C65.1724 67.9216 64.1557 71.5292 68.1616 72.0586C72.1675 72.5881 74.8427 68.8211 74.8427 68.8211C74.8427 68.8211 76.0375 70.4071 77.3634 70.6952C78.6893 70.9834 80.807 70.0908 81.9596 69.5427C83.1122 68.9945 87.0196 64.2811 87.0196 64.2811C87.0196 64.2811 88.8633 67.1626 89.0952 67.4507C89.3271 67.7388 90.735 69.4396 94.2489 68.2285C97.7629 67.0173 100.56 61.8893 100.56 61.8893C100.56 61.8893 100.616 62.6109 100.647 63.0419C100.677 63.4729 101.424 65.2908 101.713 65.6937C102.001 66.0967 103.327 66.9892 104.018 67.1345C104.709 67.2797 106.993 67.0525 108.628 65.8952C110.12 64.8387 111.09 64.6255 113.17 60.1183C114.342 57.5883 114.66 53.2053 114.66 53.2053" fill="#1D1D1B" fill-opacity="0.7"/>
</svg>
