<svg width="94" height="94" viewBox="0 0 94 94" fill="none" xmlns="http://www.w3.org/2000/svg">
<path fill-rule="evenodd" clip-rule="evenodd" d="M38.9097 52.7943L38.8438 53.4819L41.4163 53.4803L41.4113 40.811H38.9097V52.7943Z" fill="white" fill-opacity="0.7"/>
<path fill-rule="evenodd" clip-rule="evenodd" d="M43.2783 23.1394C42.6389 23.3216 42.7954 23.9156 42.7954 24.5836V33.9625C42.7954 34.4925 42.6669 35.3656 43.0608 35.5937C43.2882 35.725 44.5869 35.7447 44.8886 35.6397C45.4028 35.4624 45.2792 34.8191 45.2775 34.1857V24.8084C45.2775 24.2028 45.4044 23.5283 45.0023 23.2395C44.7402 23.0508 43.5964 23.0475 43.2783 23.1394Z" fill="white" fill-opacity="0.7"/>
<path fill-rule="evenodd" clip-rule="evenodd" d="M47.3151 41.63V52.6452C47.3151 53.5577 47.9743 53.3903 49.0339 53.3903C49.5562 53.3903 49.7985 53.1655 49.7985 52.6452V41.5545C49.7985 40.6585 48.9745 40.8111 48.1374 40.8111C47.5195 40.8111 47.3135 41.0163 47.3135 41.6317" fill="white" fill-opacity="0.7"/>
<path fill-rule="evenodd" clip-rule="evenodd" d="M50.2295 28.0082C53.0443 28.0082 52.7015 28.3513 52.7015 25.5464C52.7015 22.7415 53.0492 23.1091 50.2559 23.1091L50.2295 28.0082Z" fill="white" fill-opacity="0.7"/>
<path fill-rule="evenodd" clip-rule="evenodd" d="M30.2914 41.2835L30.2832 45.6733H32.6613V41.3343C32.6003 40.7862 32.1059 40.8075 31.5505 40.8092C30.9111 40.8092 30.4167 40.7107 30.2964 41.2835" fill="white" fill-opacity="0.7"/>
<path fill-rule="evenodd" clip-rule="evenodd" d="M91.2764 31.4206L89.6284 27.4113C88.9049 25.8433 88.0888 24.3193 87.1844 22.8473L83.0183 17.1033L80.304 14.1492C80.0601 13.908 79.8739 13.7225 79.6316 13.4796C78.061 11.9074 75.9434 10.3303 74.1767 9.01079C73.6246 8.60051 73.0643 8.25915 72.4809 7.87184C69.5557 5.92052 66.3206 4.42543 63.0098 3.2356C61.5812 2.72459 60.1274 2.28639 58.6541 1.92268C57.0914 1.52749 55.5087 1.21523 53.9127 0.987231C52.1397 0.735975 50.3536 0.587475 48.5633 0.54248L46.1869 0.54248C42.7169 0.618278 39.2657 1.0723 35.895 1.89643C34.4184 2.25411 32.9627 2.69241 31.5344 3.20934C28.0208 4.52226 26.9628 5.05892 23.82 6.76735L22.0517 7.83409C20.2059 9.05511 18.8348 10.1219 17.1505 11.4446L13.5117 14.8205C12.5658 15.7559 11.7533 16.844 10.8601 17.8369C10.1794 18.5918 9.6389 19.437 9.02584 20.2526C7.49648 22.286 6.94934 23.5842 5.78914 25.5158C5.17938 26.53 4.47073 28.1827 4.00599 29.3216C1.98718 34.3599 0.525391 40.1023 0.525391 45.6494C0.525391 50.6155 0.680304 53.5597 1.88665 58.3617C2.24583 59.8322 2.68596 61.2819 3.20506 62.7042C3.47698 63.4279 3.69946 64.0483 3.98457 64.7572C4.89921 67.0549 6.04293 69.1687 7.30366 71.2775C8.26116 72.8809 9.37686 74.3498 10.4992 75.8366C10.6244 76.0007 10.6953 76.1123 10.8288 76.2568C11.0611 76.521 11.2507 76.7491 11.4748 77.0281L14.1907 79.9822L14.8631 80.6518L17.1143 82.6523C17.3846 82.8706 17.6301 83.0593 17.8921 83.2924C18.1542 83.5254 18.4179 83.7059 18.6848 83.9176C20.8272 85.6195 23.1905 87.0588 25.5966 88.3487C31.3498 91.4341 39.3262 93.584 45.8276 93.584C50.8145 93.584 53.771 93.4297 58.5931 92.2284C61.4716 91.4933 64.2788 90.5048 66.9815 89.2743C68.2719 88.7016 69.4304 88.0369 70.6681 87.364C71.0076 87.1786 71.235 87.0358 71.5629 86.8405L77.331 82.6917C77.5957 82.4864 77.8493 82.2673 78.0907 82.0352L78.8389 81.3657C78.9464 81.2505 79.0597 81.141 79.1784 81.0374C80.1886 80.1988 81.0835 79.2092 81.98 78.2475L83.628 76.3109C83.8538 76.0582 84.0417 75.7874 84.2543 75.5215C85.3122 74.1922 86.2817 72.7953 87.1564 71.3399C90.4261 65.9356 92.6295 60.016 93.526 53.7156C93.7561 52.0929 93.9013 50.4594 93.9611 48.8217V45.2358C93.7798 40.4913 92.8997 35.75 91.2764 31.4206ZM56.5265 21.6099H59.5868L66.2267 46.6275L66.2547 46.5766C66.431 46.2107 66.8892 44.2413 67.0787 43.5504C67.0787 43.5422 67.0787 43.534 67.0787 43.5274L69.5392 34.1433L69.6529 33.6953C70.5428 30.1635 71.5168 26.7007 72.4248 23.1788C72.5578 22.6613 72.6896 22.1427 72.8204 21.623H75.9203V54.6576L72.555 54.6757C72.555 52.4618 72.6177 36.8725 72.5204 36.0438L67.6604 54.6757H67.026H64.8061C64.7418 54.3819 64.671 54.0849 64.5968 53.7862C64.2919 52.5438 63.9277 51.2769 63.608 50.0509C63.2075 48.5148 62.7972 46.9902 62.4016 45.4475C62.2187 44.7287 62.0242 43.9967 61.8281 43.2582C61.248 41.087 60.6383 38.8616 60.134 36.7675C60.1072 36.6284 60.064 36.4929 60.0054 36.3638C59.9851 36.3187 59.9533 36.2796 59.9131 36.2505V54.6478L57.0077 54.6576H56.5248L56.5265 21.6099ZM66.2382 59.9979C66.8331 59.9618 66.6288 60.0685 66.8974 60.4443C67.2946 60.0964 66.8974 59.9848 67.611 59.9848C67.4462 60.3705 67.2386 60.4771 67.1281 60.8595C67.3616 61.0911 67.5406 61.3713 67.6522 61.6801C66.9551 61.6801 67.2797 61.4306 66.8826 61.1254C66.7822 61.3264 66.6564 61.5139 66.5085 61.6834H66.1789C66.2069 61.452 66.5563 61.0614 66.7128 60.8119L66.2382 59.9979ZM65.9267 59.9979C65.9267 60.5411 65.9762 61.1681 65.8905 61.6965L65.5988 61.685C65.5638 61.3783 65.5544 61.0693 65.5708 60.7611C65.5675 59.97 65.4422 59.9946 65.9267 59.9946V59.9979ZM64.6495 60.6084C65.0566 60.7233 65.5955 60.6856 65.4142 61.3371C65.2922 61.7835 64.7863 61.6899 64.2738 61.6899L64.2639 59.993C64.8127 60.0094 64.5671 60.0554 64.6495 60.6084ZM62.8631 59.993V60.6495H63.5519C63.5519 60.0816 63.3871 60.0078 63.9129 59.993L63.8733 61.6916L63.5635 61.6801L63.5519 60.9449H62.8631L62.8268 61.6916L62.5335 61.6801C62.4988 61.3481 62.4889 61.0141 62.5038 60.6806C62.4906 60.1062 62.3522 60.0029 62.8631 59.9946V59.993ZM62.3225 60.0865C62.2813 60.377 62.3324 60.29 61.9517 60.2933L61.9204 61.6834H61.6172L61.5925 60.2868C61.1557 60.2868 61.2348 60.3803 61.2184 59.9864C61.515 59.9946 62.1033 59.906 62.3258 60.0882L62.3225 60.0865ZM60.5097 61.685C59.9445 61.8393 59.4748 61.5784 59.3363 61.1467C59.1518 60.5773 59.394 60.2096 59.928 60.016C61.1145 59.586 61.5925 61.3913 60.513 61.6867L60.5097 61.685ZM59.0512 61.4569C58.6277 61.7704 58.5568 61.6899 57.9602 61.6899L57.9339 61.4274V59.993C58.3558 59.993 59.2523 59.9618 58.8222 60.7578C59.0611 61.022 59.1056 61.0072 59.0463 61.4585L59.0512 61.4569ZM56.0634 59.9946C56.5215 60.0094 56.4029 59.8683 56.4029 61.0122L56.5578 60.8907C56.5729 60.8779 56.5872 60.8642 56.6006 60.8497C57.0522 60.4016 57.0522 59.9733 57.5466 59.952C57.5924 60.5302 57.5852 61.1114 57.5252 61.6883L57.2285 61.667L57.217 60.6675L57.1676 60.7053L57.0308 60.8201C56.5743 61.26 56.599 61.6883 56.065 61.7211L56.0634 59.9946ZM54.567 60.6216V59.9946C55.0268 60.0094 54.8241 59.9799 54.8966 60.1719C54.9889 60.4131 54.8669 60.3836 55.0515 60.5855C55.1883 60.2753 55.3119 59.9503 55.8112 60.0209C55.6464 60.2769 55.4289 60.5001 55.241 60.7594C55.3844 61.0696 55.77 61.4487 55.8178 61.6916C55.4701 61.6916 55.4635 61.7047 55.2905 61.4569C55.1174 61.2091 55.2031 61.2485 54.9098 61.0171L54.8867 61.6735L54.5851 61.6867L54.5538 60.9843C53.9111 61.7622 54.2242 61.6899 53.6606 61.6817C53.8254 61.2698 54.1369 61.0959 54.2638 60.7233C54.0354 60.5064 53.8355 60.2615 53.6688 59.9946C54.3824 59.9848 53.921 60.0291 54.5637 60.6216H54.567ZM48.6341 21.5032C49.4202 21.4556 51.7654 21.4064 52.6948 21.6C52.7762 21.6158 52.8562 21.6383 52.9338 21.6673C53.6507 21.9611 54.0017 22.396 54.1731 23.0163C54.2976 23.5797 54.3491 24.1566 54.3264 24.733C54.3264 25.1613 54.3478 25.6241 54.3577 26.0869C54.3758 27.006 54.3412 27.925 53.9737 28.5897L53.9589 28.6143C53.9259 28.6717 53.8913 28.7275 53.8534 28.7784C53.3227 29.5153 52.3999 29.622 51.3352 29.6285C50.9809 29.6285 50.6101 29.6285 50.2344 29.6285V37.314L48.6094 37.296L48.6341 21.5032ZM52.6998 61.6899C52.3587 61.6095 52.5169 61.5078 52.474 61.068C52.0818 61.4077 52.3092 61.6932 51.65 61.6867C51.7693 61.4553 51.91 61.2356 52.0702 61.0302C51.6599 60.7709 51.3188 59.8732 52.8349 60.0176C52.8349 60.313 52.8349 60.6117 52.8349 60.9088C52.8349 61.0187 52.8498 61.2682 52.8349 61.3617C52.8003 61.7802 52.886 61.5587 52.6965 61.6899H52.6998ZM51.3286 40.7637C51.3865 41.124 51.4146 41.4885 51.4127 41.8534C51.444 42.8233 51.4555 44.3053 51.4555 45.8233C51.4555 48.2506 51.4292 50.7714 51.4292 51.4541C51.4292 52.5438 51.6105 54.2999 50.0251 54.8595C49.8796 54.9107 49.7303 54.9502 49.5785 54.9777C49.3604 55.0166 49.1403 55.0429 48.9193 55.0564C48.2536 55.1208 47.5822 55.0228 46.9631 54.7709C46.8342 54.7147 46.7107 54.6471 46.5939 54.569C46.5675 54.551 46.5428 54.5296 46.5165 54.5099C46.4901 54.4902 46.4242 54.441 46.3797 54.4016C46.0904 54.1412 45.8837 53.8024 45.7847 53.4268C45.6661 53.0017 45.6529 49.9951 45.6628 47.2462C45.671 45.2375 45.6908 43.3666 45.6908 42.7462C45.6908 41.6401 45.5655 40.0449 46.912 39.4393C47.1285 39.3439 47.3568 39.2776 47.591 39.2423C49.4137 38.9453 50.8524 39.3556 51.3254 40.7637H51.3286ZM49.88 61.7047C49.88 62.284 49.5669 62.2726 49.5603 61.6916L48.5353 61.7195C48.5353 62.1281 48.6078 62.0477 48.2914 62.0805C48.1925 61.9361 48.2156 62.0805 48.2156 61.6522C48.2156 61.1123 48.4199 61.5898 48.5188 60.981C48.5434 60.6533 48.5478 60.3245 48.532 59.9963L49.6938 60.0143V61.3945L50.1767 61.365L50.2344 59.9914L51.416 60.0143L51.3847 61.6817H51.0814L51.0567 60.2851H50.5903C50.587 61.2534 50.7123 61.7047 49.8767 61.7047H49.88ZM46.3731 61.6916L46.3401 61.429V59.9946H46.7142C47.2762 59.9946 47.4756 60.3081 47.2284 60.7594C48.0392 61.5833 47.0801 61.6916 46.3698 61.6916H46.3731ZM45.4222 61.6916C44.1318 62.0051 43.789 60.2556 44.9278 59.9782C46.1473 59.6894 46.4753 61.4421 45.4189 61.6982L45.4222 61.6916ZM41.2181 23.3068C41.2474 23.143 41.2978 22.9835 41.3681 22.8325C41.4981 22.5243 41.6987 22.2506 41.954 22.0335C42.2093 21.8163 42.512 21.6617 42.8381 21.582C43.1377 21.5174 43.4429 21.4822 43.7494 21.4769C44.3707 21.4556 45.0761 21.5016 45.4238 21.6279L45.5128 21.6673C45.7819 21.7856 46.0267 21.9525 46.2346 22.1597C46.4689 22.388 46.6511 22.664 46.7686 22.9687C46.8345 23.1526 46.8757 23.8189 46.9004 24.7379C46.9746 27.4704 46.9004 32.4267 46.9004 33.5115C46.9004 34.1187 46.9581 34.8408 46.8345 35.494C46.706 36.1734 46.3797 36.779 45.5837 37.1072C45.4819 37.1484 45.3779 37.1841 45.2722 37.2139L45.203 37.2303C44.6212 37.3632 43.1957 37.3616 42.7112 37.2057C42.6519 37.186 42.5958 37.163 42.5464 37.14C42.5217 37.1302 42.4953 37.122 42.4722 37.1105C42.153 36.9702 41.8734 36.7538 41.6581 36.4803C41.5208 36.3058 41.4097 36.1123 41.3285 35.9059C41.2609 35.7418 41.2181 35.1559 41.1901 34.3435C41.0945 31.6553 41.1736 26.4398 41.1736 25.3172C41.167 24.7067 41.0928 23.937 41.2181 23.3068ZM42.3717 56.5548L42.3437 55.1221H37.6633V56.5302H36.0384V55.3962L36.0499 53.476H36.3251C36.6267 53.476 36.8608 53.4645 37.0239 53.3644C37.1871 53.2643 37.2761 53.0805 37.2761 52.7309C37.3024 51.8234 37.2761 48.9235 37.2645 46.0383C37.2645 45.6543 37.2645 45.2703 37.2645 44.8895C37.2563 43.2779 37.2546 41.7566 37.2645 40.6915C37.2645 40.6291 37.2645 40.5684 37.2645 40.5093C37.258 40.077 37.2767 39.6446 37.3205 39.2145H39.463H43.0326V53.4744L43.3902 53.4859L43.9868 53.5056L43.9736 55.4076V56.5482H43.9587L42.3717 56.5548ZM42.731 61.6916C42.3519 61.6916 42.5365 61.7375 42.3766 61.5767C42.3766 61.5767 42.258 61.1894 41.7043 61.3371C41.3021 61.5701 41.7652 61.6867 41.1275 61.6916C41.1275 61.6128 41.6416 59.9815 41.935 59.9651C42.2283 59.9487 42.7359 61.5931 42.7359 61.6916H42.731ZM40.9017 61.429C40.7204 61.7671 40.343 61.685 39.8502 61.6867L39.8173 61.4224V59.9881C40.3117 59.9881 40.3463 59.9487 40.7501 60.1276C40.8308 60.4246 40.8308 60.5313 40.694 60.7693C40.9511 60.9367 41.0665 61.0778 40.9017 61.429ZM38.9241 61.6982C37.5925 62.0264 37.2925 60.2441 38.4297 59.9799C39.6673 59.6878 39.9359 61.4487 38.9241 61.6982ZM37.1969 61.6982L36.9003 61.6768V60.2999C36.4636 60.2999 36.5542 60.4016 36.5279 59.9996H37.632C37.6089 60.3984 37.6881 60.2999 37.2381 60.2999C37.261 60.7649 37.2445 61.231 37.1887 61.6932L37.1969 61.6982ZM43.4363 59.9996C44.3032 59.9996 44.4251 61.0581 43.3539 61.0811L43.3308 61.2107L43.3078 61.6834L43.0029 61.6982L42.9683 61.4339V59.9996H43.4363ZM33.5318 21.4983H35.1336L35.1419 23.3987L35.1617 27.9365L36.452 24.7034C36.5542 24.4441 36.6515 24.1996 36.747 23.9551L37.1063 23.0475C37.1805 22.8621 37.2398 22.6996 37.2925 22.5552C37.4919 22.007 37.5645 21.7346 37.7161 21.6C37.8677 21.4655 38.0589 21.4802 38.484 21.4999C38.7263 21.5098 39.0394 21.5278 39.4531 21.5311L37.2612 27.1487C37.1642 27.3777 37.0795 27.6116 37.0074 27.8495C36.9168 28.2007 37.0223 28.3287 37.2349 29.1198C37.5134 30.1586 37.782 31.2073 38.0589 32.2576C38.2028 32.8189 38.3467 33.3802 38.4906 33.9414C38.7807 35.0689 39.074 36.1964 39.3822 37.3091H37.6864L35.8917 30.6247C35.5967 31.1561 35.375 31.7247 35.2325 32.3151C35.1535 32.7354 35.1182 33.1627 35.127 33.5902V37.3124H33.4856L33.4972 32.6679L33.5318 21.4983ZM35.8967 61.6949C35.8229 61.7043 35.748 61.697 35.6775 61.6735C35.4468 61.5997 35.4319 61.1812 34.8419 61.3453C34.3986 61.6013 34.9771 61.6949 34.2338 61.6982C34.3129 61.4241 34.8156 59.9881 35.0694 59.975C35.3232 59.9618 35.8274 61.429 35.8884 61.6899L35.8967 61.6949ZM28.6553 40.9836C28.6838 40.8487 28.7252 40.7168 28.7789 40.5897C28.8673 40.3823 28.9856 40.1888 29.1299 40.0153C29.1546 39.9858 29.181 39.9579 29.2057 39.93C29.319 39.8083 29.4443 39.6983 29.5798 39.6018C29.7669 39.4787 29.9737 39.3883 30.1912 39.3343C31.2278 39.0471 32.8281 39.1931 33.4049 39.6329C33.6574 39.8288 33.869 40.0718 34.0278 40.3485C34.1576 40.5673 34.2453 40.8083 34.2866 41.0591C34.4514 42.1012 34.3096 44.54 34.3096 45.7282C34.3096 47.4349 34.397 53.8666 34.2931 55.017L32.7012 54.9875V47.325H30.239V49.7161V55.0039H29.0409H28.6421C28.4954 53.7534 28.619 51.6707 28.619 50.3316C28.619 48.9924 28.5169 41.6827 28.6553 40.9836ZM33.1329 59.9946V60.6166C33.3636 60.4553 33.5523 60.2415 33.6834 59.993L34.1333 60.0209C33.9343 60.277 33.6943 60.4988 33.423 60.6774C33.5878 61.0335 33.9998 61.3059 34.158 61.6817H33.6834C33.56 61.4115 33.3742 61.1742 33.1412 60.9892L33.0885 61.6949L32.7951 61.6719C32.7708 61.3443 32.7636 61.0156 32.7737 60.6872C32.7654 60.1161 32.6204 60.0094 33.1329 59.9946ZM32.365 60.9104C32.8594 61.6407 31.9711 61.7178 31.3432 61.6817V60.0176C32.0469 59.9356 32.4111 60.0176 32.3056 60.6232C32.2628 60.8366 32.2315 60.7085 32.365 60.9104ZM31.1356 61.6522C30.806 61.7901 30.7466 61.6128 30.6741 61.3371C29.7512 61.3371 30.0759 61.3174 29.9325 61.4635C29.7001 61.6982 30.0083 61.6916 29.4875 61.6916C29.5123 61.4602 29.7512 60.9793 29.8616 60.7217C30.1912 59.9635 30.0495 59.9815 30.4516 59.952L31.1356 61.6522ZM28.4411 60.034C28.4587 60.0257 28.4768 60.0185 28.4954 60.0127L28.5581 59.9996H29.4513C29.4332 60.3934 29.5139 60.2999 29.0772 60.2999C29.1044 60.7661 29.0929 61.2338 29.0426 61.6982L28.7295 61.6867V60.2999C28.3455 60.2999 28.3999 60.3836 28.3554 60.0931L28.4411 60.034ZM28.2268 60.0718V60.4394C27.9055 60.2753 27.9977 60.2605 27.5462 60.313C27.2018 60.5018 26.9562 61.7556 28.2318 61.2682C28.2318 61.5964 28.1708 61.9246 27.4753 61.6768C26.3992 61.2994 27.037 59.4416 28.2268 60.0718ZM21.2096 39.2128H21.905H22.7735C22.7817 39.2469 22.7877 39.2814 22.7917 39.3162C22.9219 40.2205 22.7307 44.4743 22.8329 45.7068H25.2802L25.3082 39.9628V39.2095H25.8356H26.8886L26.8787 55.0006L25.2934 54.9892C25.2571 54.5116 25.2587 53.5351 25.2686 52.4339V52.4027C25.2686 52.1171 25.2686 51.8234 25.2785 51.5296C25.3016 49.6357 25.3296 47.6746 25.2324 47.3332L22.818 47.3431L22.7933 55.022L21.1882 54.9908L21.2096 39.2128ZM26.1223 61.6867C25.1994 61.964 24.6391 61.0876 24.9918 60.4115C25.1286 60.1506 25.2686 60.0948 25.5356 60.0094C26.7453 59.6237 27.1375 61.3814 26.1223 61.6867ZM23.1262 62.0674L23.1163 61.5029C23.3306 61.0401 23.436 61.7441 23.4328 60.0078L24.5864 59.9946C24.5864 61.9181 24.7693 61.1648 24.7874 61.7326C24.799 62.1216 24.4446 62.3989 24.4364 61.6916H23.4328C23.4328 62.0937 23.525 62.0855 23.1262 62.0674ZM16.3463 50.1839C17.8921 49.7276 19.0853 50.7599 19.3968 51.8693C19.4887 52.1864 19.5157 52.5186 19.4761 52.8462C19.4365 53.1739 19.3312 53.4903 19.1664 53.7766C19.0016 54.0629 18.7807 54.3132 18.5167 54.5128C18.2528 54.7124 17.9513 54.8571 17.6301 54.9383C14.5516 55.7113 13.1475 51.1259 16.3463 50.1839ZM68.2883 68.6139C65.8608 69.7234 63.0592 70.2731 60.1043 70.3897C56.9319 70.516 54.0067 69.8038 50.8375 69.8038C50.119 69.8038 48.5468 69.7693 48.059 70.0631C48.7594 71.6205 51.8494 70.4061 51.8494 72.7431C51.8494 74.5959 49.3444 74.6763 47.6256 74.7568C44.4119 74.9077 40.0447 74.2644 37.9962 71.9094C37.4557 71.289 37.2085 70.8328 36.3482 70.4159C35.0793 69.7956 33.8284 69.9006 32.477 69.9925C32.8066 70.987 33.0489 71.0592 34.1251 71.3054C34.9276 71.4876 35.5984 71.9422 35.7154 72.7611C36.0071 74.7879 33.5581 74.998 31.8524 74.998C28.6866 74.998 25.1351 74.1774 22.6038 72.5035C21.0596 71.481 19.7099 70.1271 18.8595 68.4186C17.3351 65.353 17.1423 60.0816 17.223 56.5072L20.4169 56.586C20.3724 60.0209 20.4433 65.1003 22.1061 67.6358C23.4608 69.7004 26.1998 71.2463 29.6458 71.6468C29.1514 69.9515 29.0492 69.4723 29.326 67.772L29.4315 67.4126C29.5831 67.0581 32.9599 66.7348 33.7955 66.7348C35.8456 66.7348 38.4264 67.4274 39.6657 68.9077C40.3628 69.7381 40.6116 70.2206 41.8509 70.7491C42.9001 71.1818 44.0137 71.439 45.147 71.5106C44.9377 70.7294 44.6608 70.3454 44.6608 69.3213C44.6608 67.7064 44.8058 67.5932 46.4472 67.1189C52.4378 65.3842 58.3887 68.8142 65.818 66.1588C68.9838 65.0264 71.1691 63.0308 72.2271 60.1112C72.7314 58.7228 72.6687 58.0368 72.8583 56.5712L76.0373 56.5056C76.0373 61.9213 73.1269 66.3984 68.2801 68.6139H68.2883Z" fill="white" fill-opacity="0.7"/>
<path fill-rule="evenodd" clip-rule="evenodd" d="M59.9161 60.3508C59.3476 60.6789 59.7595 61.6946 60.4532 61.3353C61.0745 61.0202 60.618 59.934 59.9161 60.3508Z" fill="white" fill-opacity="0.7"/>
<path fill-rule="evenodd" clip-rule="evenodd" d="M38.3537 60.3731C38.2104 60.4536 38.1675 60.3814 38.1032 60.6915C37.9813 61.2659 38.4938 61.5777 38.9273 61.3348C39.4943 61.0148 39.0723 59.9694 38.3587 60.3731" fill="white" fill-opacity="0.7"/>
<path fill-rule="evenodd" clip-rule="evenodd" d="M44.8571 60.3829C44.7349 60.4614 44.6479 60.5841 44.6146 60.7251C44.5812 60.8662 44.6041 61.0146 44.6784 61.1392C44.7527 61.2637 44.8726 61.3548 45.0129 61.3931C45.1532 61.4315 45.3029 61.4141 45.4306 61.3448C46.0074 61.046 45.5625 59.9151 44.8571 60.3829Z" fill="white" fill-opacity="0.7"/>
<path fill-rule="evenodd" clip-rule="evenodd" d="M25.5152 60.3965C25.3905 60.4716 25.3006 60.5927 25.2649 60.7334C25.2292 60.8741 25.2507 61.0232 25.3246 61.1483C25.3986 61.2734 25.5191 61.3643 25.66 61.4015C25.8008 61.4387 25.9508 61.4191 26.0772 61.3469C26.6738 61.035 26.2057 59.8942 25.5152 60.3965Z" fill="white" fill-opacity="0.7"/>
<path fill-rule="evenodd" clip-rule="evenodd" d="M23.7705 60.7594C23.764 60.9733 23.7285 61.1852 23.665 61.3896H24.2567V60.2949H23.7722L23.7705 60.7594Z" fill="white" fill-opacity="0.7"/>
<path fill-rule="evenodd" clip-rule="evenodd" d="M48.8679 60.7594C48.8773 60.9747 48.8408 61.1895 48.7607 61.3896H49.3507V60.2949H48.8679V60.7594Z" fill="white" fill-opacity="0.7"/>
<path fill-rule="evenodd" clip-rule="evenodd" d="M64.6201 61.3895C64.831 61.3895 65.1144 61.4043 65.0716 61.1482C65.0353 60.9282 64.808 60.9594 64.6201 60.9463V61.3895Z" fill="white" fill-opacity="0.7"/>
<path fill-rule="evenodd" clip-rule="evenodd" d="M40.1797 61.4092C40.5736 61.3747 40.5835 61.4256 40.6 61.0251L40.1797 60.9644V61.4092Z" fill="white" fill-opacity="0.7"/>
<path fill-rule="evenodd" clip-rule="evenodd" d="M46.7137 61.4092C47.1192 61.3911 47.1027 61.4092 47.1077 61.0301L46.7021 60.9497L46.7137 61.4092Z" fill="white" fill-opacity="0.7"/>
<path fill-rule="evenodd" clip-rule="evenodd" d="M31.7059 61.4087C32.0454 61.3906 32.0669 61.4087 32.1262 61.1298C31.9614 60.9576 32.0059 60.9789 31.6943 60.9658L31.7059 61.4087Z" fill="white" fill-opacity="0.7"/>
<path fill-rule="evenodd" clip-rule="evenodd" d="M58.2686 61.3814C58.6742 61.4454 58.6874 61.3814 58.694 61.0302L58.3065 60.9629L58.2686 61.3814Z" fill="white" fill-opacity="0.7"/>
<path fill-rule="evenodd" clip-rule="evenodd" d="M52.4908 60.7594V60.2803C51.9009 60.3508 51.9388 60.7217 52.4908 60.7627" fill="white" fill-opacity="0.7"/>
<path fill-rule="evenodd" clip-rule="evenodd" d="M43.3193 60.7725C43.8847 60.6986 43.8962 60.3572 43.3193 60.2915V60.7725Z" fill="white" fill-opacity="0.7"/>
<path fill-rule="evenodd" clip-rule="evenodd" d="M30.0879 61.0496L30.5244 61.0562L30.3383 60.5376L30.0879 61.0496Z" fill="white" fill-opacity="0.7"/>
<path fill-rule="evenodd" clip-rule="evenodd" d="M58.2666 60.6836C58.4166 60.6655 58.5484 60.7164 58.588 60.5195C58.6325 60.2997 58.4363 60.3079 58.2666 60.2734V60.6836Z" fill="white" fill-opacity="0.7"/>
<path fill-rule="evenodd" clip-rule="evenodd" d="M41.7256 61.0329L42.1523 61.0542L42.0403 60.7263C42.013 60.6748 41.978 60.6278 41.9365 60.5869L41.7256 61.0329Z" fill="white" fill-opacity="0.7"/>
<path fill-rule="evenodd" clip-rule="evenodd" d="M34.8496 61.0286L35.2782 61.0581L35.0886 60.5479L34.8496 61.0286Z" fill="white" fill-opacity="0.7"/>
<path fill-rule="evenodd" clip-rule="evenodd" d="M40.1797 60.6841C40.3445 60.6545 40.445 60.6841 40.4813 60.5199C40.5274 60.3164 40.3445 60.318 40.1797 60.2803V60.6841Z" fill="white" fill-opacity="0.7"/>
<path fill-rule="evenodd" clip-rule="evenodd" d="M31.6943 60.6836C32.0801 60.6491 32.1889 60.403 31.7685 60.2783C31.7301 60.3321 31.7063 60.3948 31.6993 60.4604C31.6943 60.5348 31.6943 60.6093 31.6993 60.6836" fill="white" fill-opacity="0.7"/>
<path fill-rule="evenodd" clip-rule="evenodd" d="M46.7005 60.6841C47.0644 60.6282 47.16 60.441 46.7927 60.2817C46.6906 60.446 46.7005 60.3967 46.7005 60.6841Z" fill="white" fill-opacity="0.7"/>
</svg>
