<svg width="94" height="94" viewBox="0 0 94 94" fill="none" xmlns="http://www.w3.org/2000/svg">
<path d="M47.2415 93.0415C21.4813 93.0415 0.525391 72.1729 0.525391 46.5215C0.525391 20.8701 21.4813 0 47.2415 0C73.0017 0 93.9561 20.8686 93.9561 46.5215C93.9561 72.1744 73.0002 93.0415 47.2415 93.0415ZM47.2415 1.67146C22.4082 1.67146 2.20384 21.7917 2.20384 46.5215C2.20384 71.2513 22.4082 91.37 47.2415 91.37C72.0747 91.37 92.2776 71.2498 92.2776 46.5215C92.2776 21.7932 72.0732 1.67146 47.2415 1.67146Z" fill="white" fill-opacity="0.7"/>
<path d="M17.6864 42.6933H13.3006V38.8081H11.2861V66.8438H13.3006V44.6978H17.6864V66.8438H19.7008V38.8081H17.6864V42.6933Z" fill="white" fill-opacity="0.7"/>
<path d="M37.6395 60.9525H33.6107C33.5622 60.9573 33.5133 60.9517 33.4672 60.936C33.4211 60.9202 33.379 60.8948 33.3437 60.8614C33.3104 60.8261 33.285 60.7841 33.2692 60.7383C33.2535 60.6924 33.2477 60.6438 33.2522 60.5955V38.8081H31.2393V60.5955C31.2393 61.3036 31.4583 61.8816 31.8887 62.3103C32.3192 62.739 32.8997 62.9586 33.6107 62.9586H37.6395V66.8423H39.6525V38.8081H37.6395V60.9525Z" fill="white" fill-opacity="0.7"/>
<path d="M48.7705 61.4021L44.3846 64.1132V38.8081H42.3701V67.5532L48.7705 63.7353V66.8437H50.7849V38.8081H48.7705V61.4021Z" fill="white" fill-opacity="0.7"/>
<path d="M59.9043 42.6933H55.5169V38.8081H53.5039V66.8438H55.5169V44.6978H59.9043V66.8438H61.9172V38.8081H59.9043V42.6933Z" fill="white" fill-opacity="0.7"/>
<path d="M24.6261 38.8081L21.3262 66.8423H23.3451L23.7951 62.9586H27.374L27.824 66.8423H29.8445L26.5446 38.8081H24.6261ZM27.1325 60.9525H24.0396L25.5861 47.8078L27.1325 60.9525Z" fill="white" fill-opacity="0.7"/>
<path d="M79.8972 38.8081H77.9757L74.6758 66.8423H76.6947L77.1522 62.9586H80.7176L81.1751 66.8423H83.1941L79.8972 38.8081ZM80.4837 60.9525H77.3907L78.9357 47.8078L80.4837 60.9525Z" fill="white" fill-opacity="0.7"/>
<path d="M71.463 41.3788L73.0499 40.4318V38.0986L68.6641 40.8097L66.6496 42.0554V38.8081H64.6367V66.8433H66.6496V44.2482L69.6855 42.4378L71.2965 45.6448V66.8433H73.3109V45.0577L71.463 41.3788Z" fill="white" fill-opacity="0.7"/>
<path d="M36.974 60.3608H33.9171C33.8992 60.3608 33.882 60.3538 33.8694 60.3412C33.8567 60.3285 33.8496 60.3114 33.8496 60.2936V38.8753C33.8496 38.8575 33.8567 38.8404 33.8694 38.8278C33.882 38.8152 33.8992 38.8081 33.9171 38.8081H36.974C36.9919 38.8081 37.0091 38.8152 37.0217 38.8278C37.0344 38.8404 37.0415 38.8575 37.0415 38.8753V60.2936C37.0415 60.3114 37.0344 60.3285 37.0217 60.3412C37.0091 60.3538 36.9919 60.3608 36.974 60.3608Z" fill="white" fill-opacity="0.7"/>
<path d="M17.0245 66.8418H13.9645C13.9465 66.8418 13.9291 66.8348 13.9162 66.8222C13.9033 66.8096 13.8959 66.7925 13.8955 66.7746V45.3578C13.8959 45.3397 13.9033 45.3224 13.9161 45.3096C13.929 45.2968 13.9463 45.2894 13.9645 45.2891H17.0245C17.0427 45.2894 17.06 45.2968 17.0729 45.3096C17.0857 45.3224 17.0931 45.3397 17.0935 45.3578V66.7686C17.0931 66.7866 17.0857 66.8037 17.0728 66.8162C17.0599 66.8288 17.0425 66.8358 17.0245 66.8358" fill="white" fill-opacity="0.7"/>
<path d="M70.5603 45.7958L69.4324 43.5553C69.4266 43.544 69.4185 43.5341 69.4087 43.526C69.3989 43.5179 69.3875 43.512 69.3752 43.5085C69.363 43.505 69.3502 43.504 69.3376 43.5057C69.3249 43.5073 69.3128 43.5115 69.3019 43.518L67.4239 44.6308C67.41 44.6395 67.3985 44.6516 67.3906 44.666C67.3827 44.6804 67.3787 44.6965 67.3789 44.7129V66.7477C67.3789 66.7727 67.3889 66.7966 67.4066 66.8142C67.4243 66.8319 67.4483 66.8418 67.4734 66.8418H70.4733C70.4985 66.8418 70.5227 66.8319 70.5407 66.8143C70.5587 66.7967 70.5689 66.7728 70.5693 66.7477V45.8362C70.5693 45.8227 70.5618 45.8093 70.5588 45.7944" fill="white" fill-opacity="0.7"/>
<path d="M40.8403 23.7096C41.0573 23.6806 41.2678 23.6149 41.4627 23.5154C42.7332 18.8954 45.2741 15.1641 49.0405 12.1991C49.063 12.3485 49.0795 12.4605 49.099 12.5725C49.249 13.5031 49.3735 14.4411 49.576 15.3628C49.7635 16.2172 50.026 17.0581 50.278 17.9021C50.5773 18.8463 50.967 19.7597 51.4419 20.6296C51.6549 21.0239 51.8994 21.4018 52.1379 21.8037C52.1379 21.8037 52.6614 22.1532 53.0889 22.1666C53.3496 22.1738 53.6093 22.1312 53.8539 22.0412C53.8179 21.9978 53.7834 21.9605 53.7534 21.9187C53.4894 21.5542 53.2149 21.1957 52.9629 20.8238C52.3676 19.8944 51.8871 18.8969 51.5319 17.8528C51.1809 16.8648 50.8978 15.8542 50.6845 14.828C50.584 14.365 50.512 13.8944 50.431 13.4284C50.3755 13.1088 50.323 12.7906 50.281 12.4694C50.254 12.2708 50.242 12.0706 50.218 11.8182C50.5255 11.981 50.809 12.1169 51.0775 12.2663C51.7374 12.6577 52.2924 13.1834 52.8879 13.6599C53.2822 13.9836 53.7651 14.1819 54.2739 14.229C55.1198 14.2984 55.9637 14.0735 56.6618 13.5927C57.0098 13.3657 57.3443 13.1192 57.6698 12.8623C57.8588 12.6976 58.0386 12.5225 58.2083 12.338C57.6302 12.1473 57.0765 11.8902 56.5583 11.5717C56.1083 11.2984 55.6913 10.9922 55.2683 10.6874C54.9398 10.4251 54.5745 10.2122 54.1839 10.0556C53.67 9.87423 53.1218 9.80974 52.5796 9.86687C52.0374 9.92399 51.5149 10.1013 51.0505 10.3857C50.74 10.5874 50.4505 10.8189 50.1625 11.0295C50.053 10.5455 49.726 10.4186 49.351 10.5157C49.3306 10.5152 49.3105 10.5106 49.2919 10.5021C49.2733 10.4936 49.2567 10.4815 49.243 10.4664C49.135 10.3454 49.039 10.2124 48.928 10.0929C48.3506 9.45099 47.6722 8.90667 46.9196 8.48123C46.1053 8.03115 45.2035 7.76017 44.2752 7.68657C43.6762 7.63675 43.0732 7.67551 42.4857 7.80159C41.805 7.94378 41.1566 8.21017 40.5733 8.58728C40.0618 8.93233 39.5743 9.31472 39.0733 9.68516C38.3528 10.2197 37.5904 10.6957 36.7934 11.1087C36.1088 11.4798 35.3907 11.7859 34.6484 12.0228C34.6484 12.0422 34.6484 12.0557 34.6559 12.0617C35.1337 12.5828 35.6584 13.0593 36.2234 13.4852C36.654 13.8079 37.1049 14.1027 37.5734 14.368C38.0609 14.6374 38.5696 14.8672 39.0943 15.0551C39.7703 15.2978 40.4891 15.3995 41.2062 15.3538C41.5762 15.3293 41.9427 15.2667 42.2997 15.1671C43.2402 14.9012 43.9917 14.3306 44.6996 13.6928C45.0251 13.3941 45.3626 13.1192 45.7076 12.8503C46.3152 12.3695 46.9619 11.9398 47.6411 11.5657C47.8256 11.4657 48.0205 11.3865 48.2095 11.2969C44.1597 14.5367 41.4147 18.6161 40.1878 23.629C40.3965 23.7019 40.6182 23.7309 40.8388 23.7141" fill="white" fill-opacity="0.7"/>
<path d="M59.8634 25.4168C59.7143 24.5606 59.4388 23.7311 59.046 22.9552C58.8422 22.5708 58.5633 22.2311 58.2255 21.9559C57.4665 21.3435 56.586 21.2195 55.6486 21.3808C55.0156 21.4948 54.4069 21.7155 53.8486 22.0336C53.604 22.1236 53.3443 22.1662 53.0836 22.159C52.6562 22.1456 52.1327 21.7961 52.1327 21.7961C52.0487 21.7841 51.9722 21.7751 51.8972 21.7617C51.4636 21.6703 51.0194 21.6391 50.5772 21.6691C50.1622 21.7005 49.7532 21.7864 49.3608 21.9245C48.9275 22.0862 48.5244 22.3189 48.1683 22.6131C47.5683 23.0986 47.2683 23.7633 47.0478 24.4698C46.9983 24.6191 46.9578 24.7775 46.9173 24.9179C46.7494 24.6445 46.5859 24.3548 46.3999 24.0799C46.1813 23.7401 45.8932 23.45 45.5543 23.2286C45.2155 23.0073 44.8335 22.8596 44.4334 22.7953C43.9413 22.7235 43.4396 22.7551 42.9605 22.8879C42.4339 23.0288 41.9292 23.2408 41.4605 23.5183C41.2651 23.6179 41.0541 23.6836 40.8365 23.7125C40.6165 23.7292 40.3953 23.7002 40.1871 23.6273C39.8601 23.5735 39.5496 23.5272 39.2421 23.469C38.7781 23.391 38.3039 23.3946 37.8411 23.4794C37.3134 23.5606 36.8074 23.7465 36.3532 24.0261C35.8089 24.3332 35.3608 24.7846 35.0587 25.3301C34.685 26.0908 34.4803 26.9228 34.4587 27.7693C34.4422 28.1381 34.4528 28.5075 34.4902 28.8747C34.5272 29.3232 34.5969 29.7685 34.6987 30.207C34.8261 30.6643 34.9819 31.1133 35.1652 31.5514C35.4293 32.1952 35.8124 32.784 36.2947 33.287C36.8196 33.8503 37.4608 34.2936 38.1741 34.5866C38.7565 34.8343 39.3757 34.9857 40.0071 35.0347C39.99 34.2341 39.7284 33.4578 39.2571 32.8091C38.2221 32.1085 37.4436 31.2526 37.4436 29.5229C37.4436 26.9164 39.2196 24.407 40.976 24.407C42.7325 24.407 44.5069 26.9164 44.5069 29.5229C44.5069 31.2482 43.7299 32.104 42.695 32.8091C42.2306 33.445 41.9693 34.2054 41.945 34.9913C42.0755 34.9764 42.206 34.96 42.3365 34.9376C43.0226 34.8335 43.6941 34.6501 44.3374 34.3909C45.1761 34.0481 45.9188 33.5079 46.5019 32.8165C46.9083 32.3231 47.2214 31.7604 47.4258 31.1555C47.5068 30.9166 47.5758 30.6701 47.6343 30.449C47.8773 30.7866 48.1008 31.1511 48.3843 31.4692C48.9086 32.0838 49.5668 32.5712 50.3087 32.8942C51.0491 33.2135 51.8437 33.3894 52.6502 33.4125C52.6097 32.7374 52.4072 32.0682 51.8222 31.2541C51.3407 30.5312 51.0377 29.502 51.0377 28.3549C51.0377 28.2518 51.0452 28.1502 51.0452 28.0561C51.0452 26.8776 51.6452 23.1852 51.6452 23.1852H52.2572V28.6656H52.8977L53.1496 23.1852H53.8096L54.0631 28.6656H54.7021V23.1703H55.3141C55.3141 23.1703 55.9141 26.8627 55.9141 28.0412C55.9141 28.1413 55.9216 28.2428 55.9216 28.3399C55.9216 29.4871 55.6216 30.5162 55.1371 31.2392C54.5626 32.0398 54.3586 32.6955 54.3121 33.3572C54.547 33.3412 54.7809 33.3122 55.0126 33.2706C55.5904 33.1655 56.1545 32.9956 56.694 32.7643C57.2365 32.5328 57.7375 32.215 58.1775 31.8232C58.7269 31.3266 59.1654 30.7205 59.4644 30.0442C59.7877 29.3171 59.9734 28.5367 60.0119 27.7425C60.0602 26.962 60.0098 26.1787 59.8619 25.4108" fill="white" fill-opacity="0.7"/>
<path d="M26.8418 71.8174H27.3248V73.0362H29.0002V71.8174H29.4817V74.6987H29.0002V73.4799H27.3248V74.6987H26.8418V71.8174Z" fill="white" fill-opacity="0.7"/>
<path d="M32.9468 74.3208C33.023 74.3185 33.0984 74.3043 33.1703 74.2789V74.6688C33.0545 74.7112 32.9322 74.7334 32.8088 74.7345C32.6938 74.7447 32.5788 74.7158 32.4824 74.6526C32.386 74.5894 32.3139 74.4956 32.2778 74.3865C31.9609 74.6452 31.5609 74.7815 31.1513 74.7704C30.6398 74.7704 30.1328 74.5 30.1328 73.8936C30.1328 73.1467 30.8198 72.9226 31.4408 72.9226C31.7102 72.9253 31.9786 72.9553 32.2418 73.0123V72.9107C32.2418 72.4775 31.9418 72.1892 31.4168 72.1892C31.0557 72.1895 30.6984 72.2632 30.3668 72.4058V71.9383C30.721 71.8135 31.0936 71.7484 31.4693 71.7456C32.2403 71.7456 32.7278 72.1653 32.7278 72.9704V74.0982C32.7229 74.1285 32.7253 74.1596 32.7348 74.1888C32.7443 74.2181 32.7606 74.2446 32.7824 74.2664C32.8042 74.2881 32.8309 74.3043 32.8603 74.3138C32.8896 74.3233 32.9208 74.3256 32.9513 74.3208H32.9468ZM31.2578 74.3566C31.4425 74.3567 31.6253 74.3196 31.7952 74.2474C31.9651 74.1753 32.1185 74.0697 32.2463 73.9369V73.4081C32.0044 73.358 31.7583 73.33 31.5113 73.3245C31.0898 73.3245 30.6308 73.4499 30.6308 73.8697C30.6308 74.2057 30.9308 74.3566 31.2578 74.3566Z" fill="white" fill-opacity="0.7"/>
<path d="M35.1278 74.7466C35.0082 74.7462 34.8898 74.724 34.7783 74.6809V74.3029C34.8398 74.3258 34.9047 74.338 34.9703 74.3388C35.4833 74.3388 35.6528 73.3664 35.7068 71.8174H37.8336V74.6988H37.3522V72.2625H36.1762C36.0802 73.7383 35.8762 74.7466 35.1263 74.7466" fill="white" fill-opacity="0.7"/>
<path d="M41.4222 74.7704C40.6992 74.7704 39.9942 74.3149 39.8922 73.48H39.1812V74.6987H38.6982V71.8177H39.1812V73.0424H39.8922C39.9942 72.2075 40.6992 71.752 41.4222 71.752C42.2127 71.752 42.9657 72.2807 42.9657 73.2634C42.9657 74.2462 42.2157 74.7764 41.4222 74.7764V74.7704ZM41.4222 74.3208C41.6323 74.3211 41.8378 74.2594 42.0126 74.1434C42.1875 74.0273 42.3238 73.8623 42.4044 73.6691C42.485 73.4759 42.5063 73.2633 42.4655 73.058C42.4247 72.8528 42.3236 72.6643 42.1752 72.5162C42.0267 72.3682 41.8375 72.2673 41.6315 72.2264C41.4254 72.1855 41.2118 72.2064 41.0177 72.2863C40.8235 72.3663 40.6576 72.5019 40.5408 72.6758C40.424 72.8497 40.3617 73.0542 40.3617 73.2634C40.3542 73.4041 40.3764 73.5449 40.427 73.6765C40.4776 73.808 40.5555 73.9276 40.6555 74.0273C40.7555 74.127 40.8754 74.2047 41.0075 74.2552C41.1396 74.3058 41.2809 74.3282 41.4222 74.3208Z" fill="white" fill-opacity="0.7"/>
<path d="M45.0048 74.7705C44.1319 74.7705 43.5049 74.173 43.5049 73.0841C43.5049 72.1177 43.8784 71.4515 44.3959 71.1273C45.2283 70.618 45.7998 70.8286 46.2228 70.4253V70.9302C45.8058 71.2289 45.3423 71.0975 44.6794 71.4813C44.2759 71.7218 44.1139 72.1117 43.9924 72.4777C44.1126 72.3081 44.2726 72.1703 44.4584 72.0763C44.6443 71.9823 44.8504 71.935 45.0588 71.9384C45.246 71.9331 45.4323 71.9657 45.6064 72.0343C45.7806 72.1028 45.9389 72.2058 46.0719 72.3371C46.2048 72.4684 46.3096 72.6252 46.3799 72.798C46.4502 72.9709 46.4845 73.1561 46.4808 73.3425C46.4808 74.2387 45.8808 74.7705 45.0048 74.7705ZM44.9928 74.3149C45.6258 74.3149 45.9993 73.8997 45.9993 73.3545C45.9993 72.8093 45.6258 72.394 44.9928 72.394C44.8634 72.391 44.7346 72.4135 44.6139 72.4602C44.4931 72.5069 44.3829 72.5769 44.2894 72.6661C44.1959 72.7554 44.121 72.8621 44.069 72.9802C44.017 73.0983 43.9889 73.2255 43.9864 73.3545C43.9864 73.8997 44.3839 74.3149 44.9928 74.3149Z" fill="white" fill-opacity="0.7"/>
<path d="M48.5351 71.7456C49.3241 71.7456 50.0786 72.2744 50.0786 73.2588C50.0786 74.2432 49.3286 74.7705 48.5351 74.7705C47.7417 74.7705 46.9932 74.2372 46.9932 73.2588C46.9932 72.2804 47.7522 71.7456 48.5351 71.7456ZM48.5351 72.2012C48.325 72.2009 48.1196 72.2627 47.9447 72.3787C47.7699 72.4947 47.6335 72.6598 47.5529 72.853C47.4723 73.0463 47.4511 73.259 47.4919 73.4642C47.5327 73.6695 47.6337 73.858 47.7822 74.0061C47.9306 74.1542 48.1199 74.255 48.3259 74.296C48.532 74.3369 48.7456 74.316 48.9397 74.236C49.1338 74.156 49.2998 74.0205 49.4165 73.8465C49.5333 73.6726 49.5956 73.468 49.5956 73.2588C49.6032 73.1181 49.5809 72.9773 49.5303 72.8457C49.4797 72.7141 49.4019 72.5945 49.3019 72.4948C49.2019 72.3951 49.082 72.3174 48.9499 72.2668C48.8178 72.2162 48.6765 72.1939 48.5351 72.2012Z" fill="white" fill-opacity="0.7"/>
<path d="M50.7588 71.8173H51.2403V73.925L53.0117 71.8173H53.4227V74.6987H52.9397V72.594L51.1683 74.7002H50.7588V71.8173ZM52.0908 71.3692C51.7893 71.3782 51.493 71.2896 51.2463 71.1167V70.6851C51.4937 70.8572 51.7882 70.9495 52.09 70.9495C52.3918 70.9495 52.6863 70.8572 52.9337 70.6851V71.1167C52.6876 71.2896 52.3918 71.3782 52.0908 71.3692Z" fill="white" fill-opacity="0.7"/>
<path d="M55.8252 71.8174H57.4107C57.9163 71.8174 58.3018 72.0877 58.3018 72.5986C58.3057 72.7303 58.2715 72.8604 58.2031 72.9733C58.1347 73.0861 58.0351 73.177 57.9163 73.2349C58.0563 73.2809 58.1781 73.3701 58.2639 73.4896C58.3496 73.6091 58.3949 73.7527 58.3933 73.8996C58.3933 74.3746 58.0858 74.6987 57.4587 74.6987H55.8252V71.8174ZM57.3627 73.0422C57.6147 73.0422 57.8128 72.9466 57.8128 72.6524C57.8128 72.3282 57.5652 72.2431 57.3627 72.2431H56.3127V73.0422H57.3627ZM57.3927 74.285C57.6927 74.285 57.9103 74.1939 57.9103 73.8757C57.9103 73.5351 57.6522 73.456 57.4107 73.456H56.3082V74.285H57.3927Z" fill="white" fill-opacity="0.7"/>
<path d="M59.1221 71.8174H59.605V73.0183H60.1885L61.1049 71.8174H61.6659L60.568 73.2513L61.7979 74.6987H61.2309L60.1705 73.4619H59.605V74.6987H59.1221V71.8174Z" fill="white" fill-opacity="0.7"/>
<path d="M65.1398 71.8174L63.7163 75.1333C63.4163 75.8294 63.0473 76.0937 62.6258 76.0937C62.5199 76.0941 62.4144 76.08 62.3123 76.0519V75.6382C62.3947 75.6617 62.48 75.6738 62.5658 75.674C62.8913 75.674 63.1268 75.4395 63.3158 74.972L63.4238 74.7076L62.0498 71.8204H62.5628L63.6533 74.155L64.6298 71.8204L65.1398 71.8174Z" fill="white" fill-opacity="0.7"/>
<path d="M66.9282 71.7458C67.2422 71.7366 67.5522 71.818 67.8207 71.9803V72.4449C67.5781 72.2724 67.2862 72.1823 66.9882 72.1879C66.4288 72.1879 65.8438 72.5001 65.8438 73.2544C65.8438 74.0087 66.4108 74.3239 66.9762 74.3239C67.2833 74.323 67.5847 74.2421 67.8507 74.0894V74.5688C67.557 74.707 67.235 74.775 66.9102 74.7675C66.1513 74.7675 65.3623 74.294 65.3623 73.2738C65.3623 72.2283 66.1753 71.7488 66.9282 71.7488" fill="white" fill-opacity="0.7"/>
<path d="M24.3994 72.7614C24.4929 72.7637 24.5836 72.7935 24.6602 72.847C24.7368 72.9004 24.7959 72.9752 24.8301 73.0619C24.8642 73.1486 24.8719 73.2435 24.8523 73.3345C24.8326 73.4256 24.7864 73.5089 24.7194 73.5739C24.6525 73.639 24.5678 73.6829 24.4759 73.7002C24.384 73.7176 24.289 73.7075 24.2028 73.6713C24.1166 73.6352 24.0431 73.5745 23.9913 73.4969C23.9396 73.4193 23.912 73.3282 23.912 73.235C23.9081 73.1708 23.9181 73.1065 23.9414 73.0464C23.9647 72.9864 24.0007 72.9321 24.0469 72.8871C24.0932 72.8422 24.1486 72.8077 24.2094 72.786C24.2703 72.7643 24.3351 72.7559 24.3994 72.7614Z" fill="white" fill-opacity="0.7"/>
<path d="M70.0752 72.7614C70.1687 72.7637 70.2594 72.7935 70.336 72.847C70.4126 72.9004 70.4717 72.9752 70.5059 73.0619C70.54 73.1486 70.5477 73.2435 70.5281 73.3345C70.5084 73.4256 70.4622 73.5089 70.3952 73.5739C70.3283 73.639 70.2435 73.6829 70.1517 73.7002C70.0598 73.7176 69.9648 73.7075 69.8786 73.6713C69.7924 73.6352 69.7188 73.5745 69.6671 73.4969C69.6154 73.4193 69.5878 73.3282 69.5877 73.235C69.5838 73.1708 69.5939 73.1065 69.6172 73.0464C69.6405 72.9864 69.6764 72.9321 69.7227 72.8871C69.769 72.8422 69.8244 72.8077 69.8852 72.786C69.946 72.7643 70.0108 72.7559 70.0752 72.7614Z" fill="white" fill-opacity="0.7"/>
</svg>
