<svg width="94" height="94" viewBox="0 0 94 94" fill="none" xmlns="http://www.w3.org/2000/svg">
<path d="M46.8226 93.0415C21.0623 93.0415 0.106445 72.1729 0.106445 46.5215C0.106445 20.8701 21.0623 0 46.8226 0C72.5828 0 93.5372 20.8686 93.5372 46.5215C93.5372 72.1744 72.5813 93.0415 46.8226 93.0415ZM46.8226 1.67146C21.9893 1.67146 1.7849 21.7917 1.7849 46.5215C1.7849 71.2513 21.9893 91.37 46.8226 91.37C71.6559 91.37 91.8588 71.2498 91.8588 46.5215C91.8588 21.7932 71.6544 1.67146 46.8226 1.67146Z" fill="#333333" fill-opacity="0.7"/>
<path d="M17.2675 42.6933H12.8816V38.8081H10.8672V66.8438H12.8816V44.6978H17.2675V66.8438H19.282V38.8081H17.2675V42.6933Z" fill="#333333" fill-opacity="0.7"/>
<path d="M37.2207 60.9525H33.1918C33.1433 60.9573 33.0944 60.9517 33.0483 60.936C33.0022 60.9202 32.9601 60.8948 32.9248 60.8614C32.8915 60.8261 32.8661 60.7841 32.8503 60.7383C32.8346 60.6924 32.8287 60.6438 32.8333 60.5955V38.8081H30.8203V60.5955C30.8203 61.3036 31.0393 61.8816 31.4698 62.3103C31.9003 62.739 32.4808 62.9586 33.1918 62.9586H37.2207V66.8423H39.2336V38.8081H37.2207V60.9525Z" fill="#333333" fill-opacity="0.7"/>
<path d="M48.3515 61.4021L43.9656 64.1132V38.8081H41.9512V67.5532L48.3515 63.7353V66.8437H50.366V38.8081H48.3515V61.4021Z" fill="#333333" fill-opacity="0.7"/>
<path d="M59.4854 42.6933H55.0979V38.8081H53.085V66.8438H55.0979V44.6978H59.4854V66.8438H61.4984V38.8081H59.4854V42.6933Z" fill="#333333" fill-opacity="0.7"/>
<path d="M24.2071 38.8081L20.9072 66.8423H22.9262L23.3761 62.9586H26.955L27.405 66.8423H29.4254L26.1255 38.8081H24.2071ZM26.7135 60.9525H23.6206L25.1671 47.8078L26.7135 60.9525Z" fill="#333333" fill-opacity="0.7"/>
<path d="M79.4781 38.8081H77.5567L74.2568 66.8423H76.2758L76.7332 62.9586H80.2986L80.7561 66.8423H82.775L79.4781 38.8081ZM80.0646 60.9525H76.9717L78.5167 47.8078L80.0646 60.9525Z" fill="#333333" fill-opacity="0.7"/>
<path d="M71.044 41.3788L72.631 40.4318V38.0986L68.2451 40.8097L66.2307 42.0554V38.8081H64.2178V66.8433H66.2307V44.2482L69.2666 42.4378L70.8775 45.6448V66.8433H72.892V45.0577L71.044 41.3788Z" fill="#333333" fill-opacity="0.7"/>
<path d="M36.5549 60.3608H33.4982C33.4803 60.3608 33.4631 60.3538 33.4504 60.3412C33.4378 60.3285 33.4307 60.3114 33.4307 60.2936V38.8753C33.4307 38.8575 33.4378 38.8404 33.4504 38.8278C33.4631 38.8152 33.4803 38.8081 33.4982 38.8081H36.5549C36.5728 38.8081 36.59 38.8152 36.6027 38.8278C36.6153 38.8404 36.6224 38.8575 36.6224 38.8753V60.2936C36.6224 60.3114 36.6153 60.3285 36.6027 60.3412C36.59 60.3538 36.5728 60.3608 36.5549 60.3608Z" fill="#333333" fill-opacity="0.7"/>
<path d="M16.6056 66.8418H13.5456C13.5275 66.8418 13.5102 66.8348 13.4973 66.8222C13.4844 66.8096 13.477 66.7925 13.4766 66.7746V45.3578C13.4769 45.3397 13.4843 45.3224 13.4972 45.3096C13.5101 45.2968 13.5274 45.2894 13.5456 45.2891H16.6056C16.6237 45.2894 16.6411 45.2968 16.6539 45.3096C16.6668 45.3224 16.6742 45.3397 16.6746 45.3578V66.7686C16.6742 66.7866 16.6667 66.8037 16.6538 66.8162C16.6409 66.8288 16.6236 66.8358 16.6056 66.8358" fill="#333333" fill-opacity="0.7"/>
<path d="M70.1414 45.7958L69.0134 43.5553C69.0076 43.544 68.9996 43.5341 68.9897 43.526C68.9799 43.5179 68.9685 43.512 68.9563 43.5085C68.9441 43.505 68.9312 43.504 68.9186 43.5057C68.906 43.5073 68.8938 43.5115 68.8829 43.518L67.005 44.6308C66.991 44.6395 66.9796 44.6516 66.9717 44.666C66.9638 44.6804 66.9598 44.6965 66.96 44.7129V66.7477C66.96 66.7727 66.9699 66.7966 66.9876 66.8142C67.0054 66.8319 67.0294 66.8418 67.0545 66.8418H70.0544C70.0796 66.8418 70.1038 66.8319 70.1217 66.8143C70.1397 66.7967 70.15 66.7728 70.1504 66.7477V45.8362C70.1504 45.8227 70.1429 45.8093 70.1399 45.7944" fill="#333333" fill-opacity="0.7"/>
<path d="M40.4213 23.7096C40.6384 23.6806 40.8489 23.6149 41.0438 23.5154C42.3143 18.8954 44.8552 15.1641 48.6216 12.1991C48.6441 12.3485 48.6606 12.4605 48.6801 12.5725C48.8301 13.5031 48.9546 14.4411 49.1571 15.3628C49.3446 16.2172 49.607 17.0581 49.859 17.9021C50.1583 18.8463 50.5481 19.7597 51.023 20.6296C51.236 21.0239 51.4805 21.4018 51.719 21.8037C51.719 21.8037 52.2425 22.1532 52.67 22.1666C52.9307 22.1738 53.1903 22.1312 53.4349 22.0412C53.3989 21.9978 53.3644 21.9605 53.3344 21.9187C53.0704 21.5542 52.796 21.1957 52.544 20.8238C51.9486 19.8944 51.4682 18.8969 51.113 17.8528C50.762 16.8648 50.4788 15.8542 50.2655 14.828C50.165 14.365 50.093 13.8944 50.012 13.4284C49.9565 13.1088 49.904 12.7906 49.862 12.4694C49.835 12.2708 49.823 12.0706 49.799 11.8182C50.1065 11.981 50.39 12.1169 50.6585 12.2663C51.3185 12.6577 51.8735 13.1834 52.469 13.6599C52.8632 13.9836 53.3461 14.1819 53.8549 14.229C54.7008 14.2984 55.5448 14.0735 56.2429 13.5927C56.5908 13.3657 56.9253 13.1192 57.2508 12.8623C57.4399 12.6976 57.6197 12.5225 57.7893 12.338C57.2113 12.1473 56.6575 11.8902 56.1394 11.5717C55.6894 11.2984 55.2724 10.9922 54.8494 10.6874C54.5209 10.4251 54.1555 10.2122 53.7649 10.0556C53.251 9.87423 52.7028 9.80974 52.1606 9.86687C51.6184 9.92399 51.0959 10.1013 50.6315 10.3857C50.321 10.5874 50.0315 10.8189 49.7435 11.0295C49.634 10.5455 49.3071 10.4186 48.9321 10.5157C48.9116 10.5152 48.8915 10.5106 48.873 10.5021C48.8544 10.4936 48.8377 10.4815 48.8241 10.4664C48.7161 10.3454 48.6201 10.2124 48.5091 10.0929C47.9316 9.45099 47.2533 8.90667 46.5006 8.48123C45.6863 8.03115 44.7846 7.76017 43.8562 7.68657C43.2573 7.63675 42.6543 7.67551 42.0668 7.80159C41.3861 7.94378 40.7377 8.21017 40.1543 8.58728C39.6428 8.93233 39.1553 9.31472 38.6544 9.68516C37.9339 10.2197 37.1714 10.6957 36.3744 11.1087C35.6899 11.4798 34.9717 11.7859 34.2295 12.0228C34.2295 12.0422 34.2295 12.0557 34.237 12.0617C34.7147 12.5828 35.2394 13.0593 35.8044 13.4852C36.235 13.8079 36.6859 14.1027 37.1544 14.368C37.642 14.6374 38.1506 14.8672 38.6754 15.0551C39.3513 15.2978 40.0702 15.3995 40.7873 15.3538C41.1573 15.3293 41.5237 15.2667 41.8808 15.1671C42.8212 14.9012 43.5727 14.3306 44.2807 13.6928C44.6062 13.3941 44.9437 13.1192 45.2887 12.8503C45.8962 12.3695 46.543 11.9398 47.2221 11.5657C47.4066 11.4657 47.6016 11.3865 47.7906 11.2969C43.7407 14.5367 40.9958 18.6161 39.7688 23.629C39.9776 23.7019 40.1992 23.7309 40.4198 23.7141" fill="#333333" fill-opacity="0.7"/>
<path d="M59.4446 25.4168C59.2955 24.5606 59.02 23.7311 58.6271 22.9552C58.4234 22.5708 58.1444 22.2311 57.8067 21.9559C57.0477 21.3435 56.1672 21.2195 55.2297 21.3808C54.5968 21.4948 53.9881 21.7155 53.4298 22.0336C53.1852 22.1236 52.9255 22.1662 52.6648 22.159C52.2373 22.1456 51.7138 21.7961 51.7138 21.7961C51.6298 21.7841 51.5533 21.7751 51.4783 21.7617C51.0447 21.6703 50.6005 21.6391 50.1584 21.6691C49.7433 21.7005 49.3343 21.7864 48.9419 21.9245C48.5086 22.0862 48.1055 22.3189 47.7494 22.6131C47.1494 23.0986 46.8494 23.7633 46.629 24.4698C46.5795 24.6191 46.539 24.7775 46.4985 24.9179C46.3305 24.6445 46.167 24.3548 45.981 24.0799C45.7624 23.7401 45.4743 23.45 45.1354 23.2286C44.7966 23.0073 44.4146 22.8596 44.0145 22.7953C43.5224 22.7235 43.0207 22.7551 42.5416 22.8879C42.015 23.0288 41.5103 23.2408 41.0416 23.5183C40.8462 23.6179 40.6352 23.6836 40.4176 23.7125C40.1975 23.7292 39.9764 23.7002 39.7681 23.6273C39.4411 23.5735 39.1307 23.5272 38.8232 23.469C38.3591 23.391 37.885 23.3946 37.4222 23.4794C36.8945 23.5606 36.3885 23.7465 35.9342 24.0261C35.39 24.3332 34.9419 24.7846 34.6398 25.3301C34.266 26.0908 34.0614 26.9228 34.0398 27.7693C34.0233 28.1381 34.0338 28.5075 34.0713 28.8747C34.1083 29.3232 34.178 29.7685 34.2798 30.207C34.4072 30.6643 34.563 31.1133 34.7463 31.5514C35.0103 32.1952 35.3935 32.784 35.8757 33.287C36.4007 33.8503 37.0418 34.2936 37.7552 34.5866C38.3376 34.8343 38.9567 34.9857 39.5881 35.0347C39.5711 34.2341 39.3095 33.4578 38.8382 32.8091C37.8032 32.1085 37.0247 31.2526 37.0247 29.5229C37.0247 26.9164 38.8007 24.407 40.5571 24.407C42.3136 24.407 44.088 26.9164 44.088 29.5229C44.088 31.2482 43.311 32.104 42.2761 32.8091C41.8117 33.445 41.5503 34.2054 41.5261 34.9913C41.6566 34.9764 41.7871 34.96 41.9176 34.9376C42.6037 34.8335 43.2752 34.6501 43.9185 34.3909C44.7572 34.0481 45.5 33.5079 46.083 32.8165C46.4894 32.3231 46.8025 31.7604 47.0069 31.1555C47.0879 30.9166 47.1569 30.6701 47.2154 30.449C47.4584 30.7866 47.6819 31.1511 47.9654 31.4692C48.4897 32.0838 49.1479 32.5712 49.8899 32.8942C50.6302 33.2135 51.4249 33.3894 52.2313 33.4125C52.1908 32.7374 51.9883 32.0682 51.4033 31.2541C50.9218 30.5312 50.6188 29.502 50.6188 28.3549C50.6188 28.2518 50.6263 28.1502 50.6263 28.0561C50.6263 26.8776 51.2263 23.1852 51.2263 23.1852H51.8383V28.6656H52.4788L52.7308 23.1852H53.3908L53.6443 28.6656H54.2832V23.1703H54.8952C54.8952 23.1703 55.4952 26.8627 55.4952 28.0412C55.4952 28.1413 55.5027 28.2428 55.5027 28.3399C55.5027 29.4871 55.2027 30.5162 54.7182 31.2392C54.1438 32.0398 53.9398 32.6955 53.8933 33.3572C54.1282 33.3412 54.362 33.3122 54.5937 33.2706C55.1716 33.1655 55.7357 32.9956 56.2752 32.7643C56.8177 32.5328 57.3187 32.215 57.7587 31.8232C58.3081 31.3266 58.7466 30.7205 59.0456 30.0442C59.3689 29.3171 59.5545 28.5367 59.5931 27.7425C59.6414 26.962 59.591 26.1787 59.4431 25.4108" fill="#333333" fill-opacity="0.7"/>
<path d="M26.4219 71.8174H26.9049V73.0362H28.5804V71.8174H29.0619V74.6987H28.5804V73.4799H26.9049V74.6987H26.4219V71.8174Z" fill="#333333" fill-opacity="0.7"/>
<path d="M32.5278 74.3208C32.6041 74.3185 32.6795 74.3043 32.7513 74.2789V74.6688C32.6355 74.7112 32.5132 74.7334 32.3898 74.7345C32.2749 74.7447 32.1599 74.7158 32.0635 74.6526C31.9671 74.5894 31.895 74.4956 31.8589 74.3865C31.5419 74.6452 31.142 74.7815 30.7324 74.7704C30.2209 74.7704 29.7139 74.5 29.7139 73.8936C29.7139 73.1467 30.4009 72.9226 31.0219 72.9226C31.2912 72.9253 31.5596 72.9553 31.8228 73.0123V72.9107C31.8228 72.4775 31.5229 72.1892 30.9979 72.1892C30.6367 72.1895 30.2794 72.2632 29.9479 72.4058V71.9383C30.3021 71.8135 30.6747 71.7484 31.0504 71.7456C31.8214 71.7456 32.3088 72.1653 32.3088 72.9704V74.0982C32.3039 74.1285 32.3063 74.1596 32.3158 74.1888C32.3253 74.2181 32.3417 74.2446 32.3635 74.2664C32.3853 74.2881 32.412 74.3043 32.4413 74.3138C32.4707 74.3233 32.5019 74.3256 32.5323 74.3208H32.5278ZM30.8389 74.3566C31.0235 74.3567 31.2063 74.3196 31.3762 74.2474C31.5461 74.1753 31.6996 74.0697 31.8273 73.9369V73.4081C31.5854 73.358 31.3394 73.33 31.0924 73.3245C30.6709 73.3245 30.2119 73.4499 30.2119 73.8697C30.2119 74.2057 30.5119 74.3566 30.8389 74.3566Z" fill="#333333" fill-opacity="0.7"/>
<path d="M34.7089 74.7466C34.5893 74.7462 34.4708 74.724 34.3594 74.6809V74.3029C34.4208 74.3258 34.4858 74.338 34.5514 74.3388C35.0643 74.3388 35.2338 73.3664 35.2878 71.8174H37.4147V74.6988H36.9332V72.2625H35.7573C35.6613 73.7383 35.4573 74.7466 34.7074 74.7466" fill="#333333" fill-opacity="0.7"/>
<path d="M41.0032 74.7704C40.2802 74.7704 39.5752 74.3149 39.4732 73.48H38.7623V74.6987H38.2793V71.8177H38.7623V73.0424H39.4732C39.5752 72.2075 40.2802 71.752 41.0032 71.752C41.7937 71.752 42.5466 72.2807 42.5466 73.2634C42.5466 74.2462 41.7967 74.7764 41.0032 74.7764V74.7704ZM41.0032 74.3208C41.2133 74.3211 41.4188 74.2594 41.5936 74.1434C41.7684 74.0273 41.9048 73.8623 41.9854 73.6691C42.066 73.4759 42.0872 73.2633 42.0464 73.058C42.0056 72.8528 41.9046 72.6643 41.7561 72.5162C41.6077 72.3682 41.4185 72.2673 41.2124 72.2264C41.0064 72.1855 40.7928 72.2064 40.5986 72.2863C40.4045 72.3663 40.2386 72.5019 40.1218 72.6758C40.0051 72.8497 39.9427 73.0542 39.9427 73.2634C39.9352 73.4041 39.9574 73.5449 40.008 73.6765C40.0586 73.808 40.1365 73.9276 40.2365 74.0273C40.3365 74.127 40.4564 74.2047 40.5885 74.2552C40.7206 74.3058 40.8619 74.3282 41.0032 74.3208Z" fill="#333333" fill-opacity="0.7"/>
<path d="M44.5859 74.7705C43.7129 74.7705 43.0859 74.173 43.0859 73.0841C43.0859 72.1177 43.4594 71.4515 43.9769 71.1273C44.8094 70.618 45.3809 70.8286 45.8039 70.4253V70.9302C45.3869 71.2289 44.9234 71.0975 44.2604 71.4813C43.8569 71.7218 43.6949 72.1117 43.5734 72.4777C43.6936 72.3081 43.8536 72.1703 44.0395 72.0763C44.2254 71.9823 44.4315 71.935 44.6399 71.9384C44.8271 71.9331 45.0134 71.9657 45.1875 72.0343C45.3616 72.1028 45.52 72.2058 45.6529 72.3371C45.7859 72.4684 45.8907 72.6252 45.961 72.798C46.0313 72.9709 46.0656 73.1561 46.0619 73.3425C46.0619 74.2387 45.4619 74.7705 44.5859 74.7705ZM44.5739 74.3149C45.2069 74.3149 45.5804 73.8997 45.5804 73.3545C45.5804 72.8093 45.2069 72.394 44.5739 72.394C44.4444 72.391 44.3156 72.4135 44.1949 72.4602C44.0742 72.5069 43.9639 72.5769 43.8704 72.6661C43.7769 72.7554 43.702 72.8621 43.65 72.9802C43.598 73.0983 43.57 73.2255 43.5674 73.3545C43.5674 73.8997 43.9649 74.3149 44.5739 74.3149Z" fill="#333333" fill-opacity="0.7"/>
<path d="M48.1161 71.7456C48.9051 71.7456 49.6595 72.2744 49.6595 73.2588C49.6595 74.2432 48.9096 74.7705 48.1161 74.7705C47.3227 74.7705 46.5742 74.2372 46.5742 73.2588C46.5742 72.2804 47.3332 71.7456 48.1161 71.7456ZM48.1161 72.2012C47.906 72.2009 47.7006 72.2627 47.5257 72.3787C47.3509 72.4947 47.2146 72.6598 47.134 72.853C47.0534 73.0463 47.0321 73.259 47.0729 73.4642C47.1137 73.6695 47.2147 73.858 47.3632 74.0061C47.5117 74.1542 47.7009 74.255 47.9069 74.296C48.1129 74.3369 48.3265 74.316 48.5207 74.236C48.7148 74.156 48.8807 74.0205 48.9975 73.8465C49.1143 73.6726 49.1766 73.468 49.1766 73.2588C49.1841 73.1181 49.1619 72.9773 49.1113 72.8457C49.0607 72.7141 48.9829 72.5945 48.8829 72.4948C48.7829 72.3951 48.6629 72.3174 48.5308 72.2668C48.3987 72.2162 48.2575 72.1939 48.1161 72.2012Z" fill="#333333" fill-opacity="0.7"/>
<path d="M50.3398 71.8173H50.8213V73.925L52.5928 71.8173H53.0038V74.6987H52.5208V72.594L50.7493 74.7002H50.3398V71.8173ZM51.6718 71.3692C51.3703 71.3782 51.074 71.2896 50.8273 71.1167V70.6851C51.0747 70.8572 51.3693 70.9495 51.6711 70.9495C51.9729 70.9495 52.2674 70.8572 52.5148 70.6851V71.1167C52.2687 71.2896 51.9728 71.3782 51.6718 71.3692Z" fill="#333333" fill-opacity="0.7"/>
<path d="M55.4062 71.8174H56.9918C57.4973 71.8174 57.8828 72.0877 57.8828 72.5986C57.8868 72.7303 57.8525 72.8604 57.7842 72.9733C57.7158 73.0861 57.6162 73.177 57.4973 73.2349C57.6374 73.2809 57.7592 73.3701 57.8449 73.4896C57.9307 73.6091 57.976 73.7527 57.9743 73.8996C57.9743 74.3746 57.6668 74.6987 57.0398 74.6987H55.4062V71.8174ZM56.9438 73.0422C57.1958 73.0422 57.3938 72.9466 57.3938 72.6524C57.3938 72.3282 57.1463 72.2431 56.9438 72.2431H55.8938V73.0422H56.9438ZM56.9738 74.285C57.2738 74.285 57.4913 74.1939 57.4913 73.8757C57.4913 73.5351 57.2333 73.456 56.9918 73.456H55.8893V74.285H56.9738Z" fill="#333333" fill-opacity="0.7"/>
<path d="M58.7031 71.8174H59.1861V73.0183H59.7695L60.686 71.8174H61.2469L60.149 73.2513L61.3789 74.6987H60.812L59.7515 73.4619H59.1861V74.6987H58.7031V71.8174Z" fill="#333333" fill-opacity="0.7"/>
<path d="M64.7208 71.8174L63.2973 75.1333C62.9973 75.8294 62.6283 76.0937 62.2069 76.0937C62.1009 76.0941 61.9955 76.08 61.8934 76.0519V75.6382C61.9758 75.6617 62.0611 75.6738 62.1469 75.674C62.4724 75.674 62.7078 75.4395 62.8968 74.972L63.0048 74.7076L61.6309 71.8204H62.1439L63.2343 74.155L64.2108 71.8204L64.7208 71.8174Z" fill="#333333" fill-opacity="0.7"/>
<path d="M66.5093 71.7458C66.8233 71.7366 67.1332 71.818 67.4018 71.9803V72.4449C67.1592 72.2724 66.8673 72.1823 66.5693 72.1879C66.0098 72.1879 65.4248 72.5001 65.4248 73.2544C65.4248 74.0087 65.9918 74.3239 66.5573 74.3239C66.8643 74.323 67.1658 74.2421 67.4318 74.0894V74.5688C67.1381 74.707 66.816 74.775 66.4913 74.7675C65.7323 74.7675 64.9434 74.294 64.9434 73.2738C64.9434 72.2283 65.7563 71.7488 66.5093 71.7488" fill="#333333" fill-opacity="0.7"/>
<path d="M23.9804 72.7614C24.0739 72.7637 24.1646 72.7935 24.2412 72.847C24.3178 72.9004 24.3769 72.9752 24.411 73.0619C24.4452 73.1486 24.4529 73.2435 24.4332 73.3345C24.4135 73.4256 24.3673 73.5089 24.3004 73.5739C24.2334 73.639 24.1487 73.6829 24.0569 73.7002C23.965 73.7176 23.87 73.7075 23.7838 73.6713C23.6977 73.6352 23.6241 73.5745 23.5724 73.4969C23.5206 73.4193 23.493 73.3282 23.493 73.235C23.4891 73.1708 23.4991 73.1065 23.5224 73.0464C23.5457 72.9864 23.5817 72.9321 23.628 72.8871C23.6742 72.8422 23.7296 72.8077 23.7904 72.786C23.8513 72.7643 23.9161 72.7559 23.9804 72.7614Z" fill="#333333" fill-opacity="0.7"/>
<path d="M69.6563 72.7614C69.7498 72.7637 69.8406 72.7935 69.9172 72.847C69.9938 72.9004 70.0529 72.9752 70.087 73.0619C70.1212 73.1486 70.1289 73.2435 70.1092 73.3345C70.0895 73.4256 70.0433 73.5089 69.9764 73.5739C69.9094 73.639 69.8247 73.6829 69.7328 73.7002C69.6409 73.7176 69.5459 73.7075 69.4597 73.6713C69.3735 73.6352 69.2999 73.5745 69.2482 73.4969C69.1964 73.4193 69.1688 73.3282 69.1688 73.235C69.1649 73.1708 69.1749 73.1065 69.1982 73.0464C69.2215 72.9864 69.2575 72.9321 69.3038 72.8871C69.35 72.8422 69.4055 72.8077 69.4663 72.786C69.5271 72.7643 69.5919 72.7559 69.6563 72.7614Z" fill="#333333" fill-opacity="0.7"/>
</svg>
