<svg width="197" height="76" viewBox="0 0 197 76" fill="none" xmlns="http://www.w3.org/2000/svg">
<path d="M5.39609 69.0029H1.9359V72.6491C1.9359 73.3584 1.8516 73.705 1.58265 74.0238H0.651367V75.7373H1.19328V74.5419H5.7092V75.7373H6.27118V74.0238H5.39609V69.0029ZM2.47781 72.6411V69.5409H4.85418V74.0238H2.2209C2.42172 73.5915 2.51005 73.1161 2.47781 72.6411Z" fill="white" fill-opacity="0.7"/>
<path d="M10.538 68.9274C9.97148 68.9118 9.41301 69.0634 8.93321 69.3629C8.45341 69.6625 8.07384 70.0965 7.84247 70.6101C7.6111 71.1238 7.53832 71.694 7.63334 72.2488C7.72836 72.8035 7.9869 73.3178 8.37629 73.7266C8.76568 74.1355 9.26843 74.4206 9.82099 74.5458C10.3735 74.671 10.9511 74.6308 11.4806 74.4302C12.0102 74.2297 12.4679 73.8777 12.796 73.4189C13.1241 72.9601 13.3078 72.415 13.3239 71.8525V71.7728C13.3313 71.4064 13.266 71.0422 13.1317 70.7009C12.9973 70.3596 12.7965 70.048 12.5408 69.7837C12.2851 69.5195 11.9794 69.3079 11.6413 69.1609C11.3032 69.014 10.9392 68.9346 10.5702 68.9274H10.538ZM10.538 69.4654C10.9966 69.4531 11.4486 69.5758 11.837 69.818C12.2255 70.0603 12.533 70.4112 12.7209 70.8267C12.9089 71.2422 12.9688 71.7035 12.8931 72.1527C12.8174 72.6019 12.6095 73.0188 12.2956 73.3509C11.9817 73.683 11.5758 73.9155 11.1291 74.019C10.6824 74.1225 10.2148 74.0925 9.78526 73.9327C9.35569 73.773 8.98335 73.4906 8.71514 73.1211C8.44694 72.7516 8.29485 72.3116 8.27805 71.8565V71.7927C8.27003 71.4975 8.32069 71.2037 8.42712 70.9279C8.53356 70.6522 8.69368 70.3999 8.89834 70.1857C9.103 69.9714 9.34819 69.7992 9.6199 69.679C9.8916 69.5589 10.1845 69.493 10.4818 69.4853H10.53" fill="white" fill-opacity="0.7"/>
<path d="M20.02 72.8403C19.8376 73.2138 19.5522 73.5281 19.1969 73.7469C18.8416 73.9656 18.431 74.0796 18.013 74.0758C17.4138 74.051 16.8474 73.7973 16.4323 73.3677C16.0172 72.938 15.7854 72.3657 15.7854 71.7703C15.7854 71.1749 16.0172 70.6026 16.4323 70.1729C16.8474 69.7433 17.4138 69.4895 18.013 69.4648C18.425 69.4627 18.8293 69.5755 19.1799 69.7904C19.5305 70.0053 19.8133 70.3137 19.996 70.6803L20.0602 70.8078L20.5379 70.5528L20.4736 70.4332C20.2446 69.9786 19.892 69.5966 19.4558 69.3304C19.0195 69.0642 18.517 68.9244 18.0049 68.9268C17.2639 68.9543 16.5625 69.266 16.048 69.7962C15.5335 70.3265 15.2461 71.034 15.2461 71.7703C15.2461 72.5065 15.5335 73.2141 16.048 73.7443C16.5625 74.2746 17.2639 74.5862 18.0049 74.6138C18.5202 74.6145 19.0253 74.4718 19.4631 74.202C19.9008 73.9323 20.2537 73.5461 20.4817 73.0874L20.5459 72.9639L20.0562 72.7128L20.02 72.8403Z" fill="white" fill-opacity="0.7"/>
<path d="M21.8984 69.517H23.8132V74.5376H24.3551V69.517H26.2739V69.0029H21.8984V69.517Z" fill="white" fill-opacity="0.7"/>
<path d="M29.1794 69.0029L26.9355 74.5376H27.5216L28.0354 73.2864H30.8453L31.3752 74.5376H31.9612L29.6451 69.0029H29.1794ZM28.2321 72.7605L29.4364 69.8278L30.6406 72.7605H28.2321Z" fill="white" fill-opacity="0.7"/>
<path d="M36.8711 71.7165C37.0832 71.5918 37.256 71.4109 37.3702 71.1941C37.4843 70.9773 37.5353 70.7332 37.5174 70.4892C37.5174 69.3934 36.6262 69.0029 35.8635 69.0029H33.8242V74.5376H35.9398C36.7868 74.5376 37.6418 74.0634 37.6418 73.0075C37.6517 72.7416 37.5843 72.4785 37.4476 72.2495C37.3109 72.0206 37.1108 71.8356 36.8711 71.7165ZM35.8635 69.517C35.9921 69.4996 36.123 69.5075 36.2485 69.5404C36.374 69.5732 36.4918 69.6304 36.5951 69.7084C36.6984 69.7865 36.7851 69.8841 36.8504 69.9955C36.9157 70.1069 36.9582 70.23 36.9754 70.3577V70.5012C36.9754 71.3579 36.2729 71.4854 35.8555 71.4854H34.3702V69.517H35.8635ZM34.3702 71.9994H35.9357C36.4737 71.9994 37.1039 72.2664 37.1039 73.0115C37.0997 73.288 36.9855 73.5517 36.7862 73.745C36.5869 73.9383 36.3187 74.0456 36.0401 74.0435H35.9357H34.3702V71.9994Z" fill="white" fill-opacity="0.7"/>
<path d="M40.3114 73.5733V69.0029H39.7695V74.5376H40.2914L43.5187 69.9752V74.5376H44.0606V69.0029H43.5508L40.3114 73.5733Z" fill="white" fill-opacity="0.7"/>
<path d="M49.2234 72.9597L46.9916 69.0029H46.4697V74.5376H47.0156V70.1306L49.0187 73.6809H49.4201L51.4312 70.1226V74.5376H51.9731V69.0029H51.4432L49.2234 72.9597Z" fill="white" fill-opacity="0.7"/>
<path d="M61.0491 71.6409C60.5582 71.9107 60.0046 72.0481 59.4435 72.0394C58.5002 72.0394 58.0185 71.6847 58.0185 70.9754V68.9829H57.4766V70.9993C57.4766 71.9916 58.179 72.5614 59.4033 72.5614C59.9687 72.5624 60.5271 72.4371 61.0371 72.1948V74.5181H61.579V69.0028H61.0371L61.0491 71.6409Z" fill="white" fill-opacity="0.7"/>
<path d="M63.5488 69.517H65.4636V74.5376H66.0055V69.517H67.9243V69.0029H63.5488V69.517Z" fill="white" fill-opacity="0.7"/>
<path d="M71.9823 68.9273C71.4156 68.9164 70.8583 69.0725 70.381 69.376C69.9037 69.6795 69.5277 70.1166 69.3006 70.6322C69.0735 71.1478 69.0055 71.7187 69.1052 72.2727C69.2049 72.8266 69.4678 73.3388 69.8607 73.7444C70.2535 74.1501 70.7587 74.4309 71.3124 74.5516C71.866 74.6722 72.4433 74.6271 72.9711 74.422C73.4989 74.217 73.9537 73.8611 74.2778 73.3995C74.602 72.9379 74.781 72.3912 74.7922 71.8285V71.7728C74.7997 71.4064 74.7343 71.0422 74.6 70.7009C74.4656 70.3596 74.2648 70.0479 74.0091 69.7837C73.7534 69.5194 73.4477 69.3078 73.1096 69.1609C72.7715 69.0139 72.4075 68.9345 72.0385 68.9273H71.9823ZM71.9823 69.4653C72.4411 69.4514 72.8938 69.5728 73.2833 69.814C73.6728 70.0553 73.9816 70.4057 74.1707 70.8209C74.3599 71.2362 74.4209 71.6977 74.3462 72.1474C74.2714 72.5971 74.0642 73.0147 73.7507 73.3476C73.4372 73.6805 73.0314 73.9138 72.5845 74.018C72.1376 74.1222 71.6696 74.0927 71.2396 73.9332C70.8096 73.7737 70.4367 73.4914 70.1681 73.1218C69.8996 72.7522 69.7472 72.3119 69.7304 71.8564V71.7847C69.7229 71.489 69.7742 71.1947 69.8813 70.9187C69.9884 70.6427 70.1493 70.3903 70.3547 70.176C70.5601 69.9617 70.806 69.7897 71.0784 69.6698C71.3508 69.5499 71.6443 69.4845 71.9422 69.4773H71.9823" fill="white" fill-opacity="0.7"/>
<path d="M81.8224 72.2983L80.1365 69.0029H79.5264L81.5334 72.8682L81.2765 73.3623C81.1906 73.5732 81.0412 73.7527 80.8486 73.8761C80.656 73.9995 80.4298 74.0608 80.2007 74.0516H80.0763L80.0121 74.5776H80.1726C80.8149 74.5776 81.3327 74.3824 81.7783 73.5177L84.1466 69.0029H83.5365L81.8224 72.2983Z" fill="white" fill-opacity="0.7"/>
<path d="M85.9961 74.5376H86.538V69.5249H89.4563V69.0029H85.9961V74.5376Z" fill="white" fill-opacity="0.7"/>
<path d="M93.5155 68.9274C92.949 68.9118 92.3905 69.0634 91.9107 69.3629C91.4309 69.6625 91.0514 70.0965 90.82 70.6101C90.5886 71.1238 90.5159 71.694 90.6109 72.2488C90.7059 72.8035 90.9644 73.3178 91.3538 73.7266C91.7432 74.1355 92.246 74.4206 92.7985 74.5458C93.3511 74.671 93.9286 74.6308 94.4581 74.4302C94.9877 74.2297 95.4454 73.8777 95.7735 73.4189C96.1016 72.9601 96.2853 72.415 96.3014 71.8525V71.7728C96.3088 71.4064 96.2435 71.0422 96.1091 70.7009C95.9748 70.3596 95.774 70.048 95.5183 69.7837C95.2626 69.5195 94.9569 69.3079 94.6188 69.1609C94.2807 69.014 93.9167 68.9346 93.5477 68.9274H93.5155ZM93.5155 69.4654C93.9744 69.4515 94.4271 69.5729 94.8166 69.8141C95.206 70.0554 95.5148 70.4057 95.704 70.821C95.8931 71.2362 95.9542 71.6978 95.8794 72.1475C95.8047 72.5971 95.5975 73.0148 95.2839 73.3477C94.9704 73.6806 94.5646 73.9138 94.1177 74.0181C93.6708 74.1223 93.2029 74.0928 92.7728 73.9333C92.3428 73.7738 91.97 73.4914 91.7014 73.1218C91.4328 72.7522 91.2805 72.3119 91.2636 71.8565V71.7848C91.2556 71.4896 91.3063 71.1957 91.4127 70.92C91.5191 70.6442 91.6792 70.392 91.8839 70.1777C92.0886 69.9634 92.3337 69.7913 92.6054 69.6711C92.8771 69.5509 93.17 69.4851 93.4674 69.4773H93.5155" fill="white" fill-opacity="0.7"/>
<path d="M102.342 69.0029H98.8822V72.6491C98.8822 73.3584 98.7939 73.705 98.5289 74.0238H97.5977V75.7373H98.1396V74.5419H102.651V75.7373H103.193V74.0238H102.342V69.0029ZM99.4241 72.6411V69.5409H101.808V74.0238H99.1752C99.376 73.5915 99.4644 73.1161 99.4321 72.6411" fill="white" fill-opacity="0.7"/>
<path d="M108.857 71.5611H105.722V69.0029H105.18V74.5376H105.722V72.091H108.857V74.5376H109.399V69.0029H108.857V71.5611Z" fill="white" fill-opacity="0.7"/>
<path d="M114.301 68.9274C113.734 68.9118 113.176 69.0634 112.696 69.3629C112.216 69.6625 111.837 70.0965 111.605 70.6101C111.374 71.1238 111.301 71.694 111.396 72.2488C111.491 72.8035 111.75 73.3178 112.139 73.7266C112.528 74.1355 113.031 74.4206 113.584 74.5458C114.136 74.671 114.714 74.6308 115.243 74.4302C115.773 74.2297 116.231 73.8777 116.559 73.4189C116.887 72.9601 117.07 72.415 117.087 71.8525V71.7728C117.094 71.4064 117.029 71.0422 116.894 70.7009C116.76 70.3596 116.559 70.048 116.303 69.7837C116.048 69.5195 115.742 69.3079 115.404 69.1609C115.066 69.014 114.702 68.9346 114.333 68.9274H114.301ZM114.301 69.4654C114.759 69.4523 115.212 69.5743 115.601 69.8161C115.99 70.0578 116.298 70.4085 116.486 70.8238C116.675 71.2392 116.735 71.7007 116.66 72.1501C116.585 72.5995 116.377 73.0168 116.064 73.3493C115.75 73.6818 115.344 73.9146 114.897 74.0185C114.451 74.1224 113.983 74.0927 113.553 73.933C113.123 73.7734 112.751 73.491 112.482 73.1215C112.214 72.7519 112.062 72.3118 112.045 71.8565V71.7888C112.037 71.4936 112.087 71.1997 112.194 70.9239C112.3 70.6482 112.46 70.396 112.665 70.1817C112.87 69.9674 113.115 69.7952 113.387 69.6751C113.658 69.5549 113.951 69.489 114.249 69.4813H114.301" fill="white" fill-opacity="0.7"/>
<path d="M126.749 69.0029H126.07L124.116 71.4933H122.935V69.0029H122.394V74.5376H122.935V72.0233H124.124L126.143 74.5376H126.829L124.593 71.7563L126.749 69.0029Z" fill="white" fill-opacity="0.7"/>
<path d="M130.526 72.2982L128.836 69.0025H128.229L130.237 72.8681L129.984 73.3622C129.898 73.5732 129.748 73.7527 129.556 73.8761C129.363 73.9995 129.137 74.0609 128.908 74.0517H128.783L128.715 74.5737H128.88C129.522 74.5737 130.04 74.3785 130.485 73.5137L132.838 68.9985H132.232L130.526 72.2982Z" fill="white" fill-opacity="0.7"/>
<path d="M138.554 69.0029H135.094V72.6491C135.094 73.3584 135.006 73.705 134.741 74.0238H133.81V75.7373H134.351V74.5419H138.868V75.7373H139.409V74.0238H138.554V69.0029ZM135.636 72.6411V69.5409H138.012V74.0238H135.379C135.584 73.5927 135.672 73.1163 135.636 72.6411Z" fill="white" fill-opacity="0.7"/>
<path d="M143.785 69.0029H143.315L141.067 74.5376H141.653L142.167 73.2864H144.977L145.507 74.5376H146.093L143.813 69.0906L143.785 69.0029ZM142.352 72.7605L143.556 69.8278L144.76 72.7605H142.352Z" fill="white" fill-opacity="0.7"/>
<path d="M155.598 72.8403C155.416 73.2138 155.13 73.5281 154.775 73.7469C154.42 73.9656 154.009 74.0796 153.591 74.0758C152.992 74.051 152.426 73.7973 152.01 73.3677C151.595 72.938 151.363 72.3657 151.363 71.7703C151.363 71.1749 151.595 70.6026 152.01 70.1729C152.426 69.7433 152.992 69.4895 153.591 69.4648C154.003 69.4625 154.407 69.5753 154.757 69.7903C155.107 70.0052 155.388 70.3137 155.57 70.6803L155.638 70.8078L156.116 70.5528L156.052 70.4332C155.823 69.9786 155.47 69.5966 155.034 69.3304C154.598 69.0642 154.095 68.9244 153.583 68.9268C152.842 68.9543 152.141 69.266 151.626 69.7962C151.112 70.3265 150.824 71.034 150.824 71.7703C150.824 72.5065 151.112 73.2141 151.626 73.7443C152.141 74.2746 152.842 74.5862 153.583 74.6138C154.098 74.6145 154.603 74.4718 155.041 74.202C155.479 73.9323 155.832 73.5461 156.06 73.0874L156.124 72.9639L155.634 72.7128L155.598 72.8403Z" fill="white" fill-opacity="0.7"/>
<path d="M162.471 69.0029H161.792L159.833 71.4933H158.657V69.0029H158.111V74.5376H158.657V72.0233H159.841L161.861 74.5376H162.551L160.311 71.7563L162.471 69.0029Z" fill="white" fill-opacity="0.7"/>
<path d="M166.697 69.0029H166.223L163.979 74.5376H164.566L165.079 73.2864H167.889L168.419 74.5376H169.005L166.725 69.0906L166.697 69.0029ZM165.276 72.7605L166.46 69.8278L167.665 72.7605H165.276Z" fill="white" fill-opacity="0.7"/>
<path d="M177.451 69.0029H176.773L174.762 71.5451H174.272V69.0029H173.73V71.5451H173.232L171.229 69.0029H170.547L172.759 71.8041L170.479 74.5376H171.165L173.228 72.0751H173.73V74.5376H174.272V72.0751H174.774L176.837 74.5376H177.523L175.243 71.8041L177.451 69.0029Z" fill="white" fill-opacity="0.7"/>
<path d="M179.33 74.5376H182.943V74.0156H179.876V72.0153H182.883V71.5013H179.876V69.5249H182.943V69.0029H179.33V74.5376Z" fill="white" fill-opacity="0.7"/>
<path d="M184.745 69.517H186.656V74.5376H187.198V69.517H189.117V69.0029H184.745V69.517Z" fill="white" fill-opacity="0.7"/>
<path d="M194.684 69.5249V69.0029H191.075V74.5376H194.684V74.0156H191.617V72.0153H194.624V71.5013H191.617V69.5249H194.684Z" fill="white" fill-opacity="0.7"/>
<path d="M3.39286 29.5757H7.44317L6.39547 36.2504H13.2597L14.2874 29.5757H18.3618L15.7405 46.145H11.6621L12.6415 40.0401H5.79735L4.82191 46.145H0.767578L3.39286 29.5757Z" fill="white" fill-opacity="0.7"/>
<path d="M18.9318 37.8607C19.298 35.5056 20.4969 33.3569 22.3137 31.7994C24.1304 30.2419 26.4465 29.3775 28.8469 29.3608C33.4271 29.3608 36.811 33.1704 36.0483 37.8806C35.2856 42.5908 31.4922 46.4004 26.1293 46.4004C21.5531 46.4004 18.1692 42.5908 18.9318 37.8806V37.8607ZM31.9458 37.8806C32.3472 35.3064 30.7416 33.294 28.2287 33.294C25.7158 33.294 23.4358 35.2864 23.0103 37.8607C22.5848 40.435 24.2145 42.4513 26.7314 42.4513C29.2483 42.4513 31.4962 40.4589 31.9258 37.8607" fill="white" fill-opacity="0.7"/>
<path d="M51.2301 46.145H47.1758L49.1829 33.5526H43.9083L42.9569 39.5659C42.2625 43.9214 40.6447 46.145 36.0646 46.145C35.8037 46.145 35.2297 46.1211 34.8604 46.0972L35.4103 42.6184C35.6752 42.6661 35.9439 42.6901 36.2131 42.6901C37.6422 42.6901 38.5494 41.8134 38.9548 39.2352L40.5043 29.5757H53.9035L51.2301 46.145Z" fill="white" fill-opacity="0.7"/>
<path d="M56.6523 29.5757H60.7026L59.7271 35.7085H62.9706C66.2822 35.7085 68.2853 37.9321 67.8076 40.9128C67.2858 44.2761 65.0659 46.145 61.385 46.145H54.0391L56.6523 29.5757ZM61.3248 42.8056C62.7779 42.8056 63.7332 42.1681 63.9219 40.9128C64.1106 39.6576 63.376 39.0439 61.9148 39.0439H59.1973L58.6032 42.8056H61.3248Z" fill="white" fill-opacity="0.7"/>
<path d="M125.729 38.0239C126.088 35.6941 127.271 33.5676 129.067 32.0264C130.863 30.4852 133.154 29.6305 135.528 29.6157C140.048 29.6157 143.388 33.3775 142.633 38.0239C141.878 42.6703 138.141 46.436 132.846 46.436C128.331 46.436 124.987 42.6743 125.741 38.0239H125.729ZM138.587 38.0239C139.012 35.5014 137.411 33.517 134.918 33.517C132.425 33.517 130.189 35.5094 129.788 38.0239C129.386 40.5384 130.964 42.5587 133.461 42.5587C135.957 42.5587 138.165 40.5663 138.587 38.0239Z" fill="white" fill-opacity="0.7"/>
<path d="M141.746 42.742H144.451C145.627 41.0365 146.286 38.6774 146.639 36.4617L147.699 29.8506H160.307L158.26 42.742H160.99L159.862 49.915H155.815L156.401 46.1811H145.202L144.616 49.915H140.602L141.746 42.742ZM154.262 42.742L155.695 33.6802H151.087L150.637 36.4378C150.264 38.8288 149.65 41.0165 148.59 42.742H154.262Z" fill="white" fill-opacity="0.7"/>
<path d="M164.43 29.8506H168.428L166.923 39.4983L175.064 29.8506H179.323L176.733 46.2012H172.735L174.265 36.5534L166.1 46.2012H161.841L164.43 29.8506Z" fill="white" fill-opacity="0.7"/>
<path d="M182.08 29.8506H186.078L185.043 36.4378H191.819L192.83 29.8506H196.857L194.267 46.2012H190.245L191.209 40.1718H184.457L183.493 46.2012H179.491L182.08 29.8506Z" fill="white" fill-opacity="0.7"/>
<path d="M50.9772 13.4209H47.6575C47.2795 13.4209 46.9171 13.2719 46.6498 13.0066C46.3826 12.7413 46.2324 12.3815 46.2324 12.0063C46.2324 11.6312 46.3826 11.2714 46.6498 11.0061C46.9171 10.7408 47.2795 10.5918 47.6575 10.5918H50.9772C51.3552 10.5918 51.7176 10.7408 51.9849 11.0061C52.2521 11.2714 52.4023 11.6312 52.4023 12.0063C52.4023 12.3815 52.2521 12.7413 51.9849 13.0066C51.7176 13.2719 51.3552 13.4209 50.9772 13.4209Z" fill="white" fill-opacity="0.7"/>
<path d="M58.8968 21.562H56.3518C55.9738 21.562 55.6114 21.413 55.3441 21.1477C55.0769 20.8824 54.9268 20.5226 54.9268 20.1475C54.9268 19.7723 55.0769 19.4125 55.3441 19.1472C55.6114 18.8819 55.9738 18.7329 56.3518 18.7329H58.8968C59.2747 18.7329 59.6372 18.8819 59.9044 19.1472C60.1716 19.4125 60.3218 19.7723 60.3218 20.1475C60.3218 20.5226 60.1716 20.8824 59.9044 21.1477C59.6372 21.413 59.2747 21.562 58.8968 21.562Z" fill="white" fill-opacity="0.7"/>
<path d="M44.3696 59.208H39.4563C39.0783 59.208 38.7159 59.059 38.4486 58.7936C38.1814 58.5283 38.0312 58.1684 38.0312 57.7932C38.0312 57.418 38.1814 57.0581 38.4486 56.7928C38.7159 56.5275 39.0783 56.3784 39.4563 56.3784H44.3696C44.7475 56.3784 45.11 56.5275 45.3772 56.7928C45.6445 57.0581 45.7946 57.418 45.7946 57.7932C45.7946 58.1684 45.6445 58.5283 45.3772 58.7936C45.11 59.059 44.7475 59.208 44.3696 59.208Z" fill="white" fill-opacity="0.7"/>
<path d="M120.414 30.3213C117.464 40.1721 118.64 49.5169 120.378 58.7978C120.383 58.8534 120.406 58.9057 120.445 58.9462C120.484 58.9868 120.535 59.0131 120.591 59.021H113.048C112.952 59.021 112.863 58.9293 112.835 58.7978C111.109 49.5169 109.921 40.1721 112.879 30.3213C114.786 24.838 114.296 17.0912 112.879 8.46777H113.317C113.317 9.66326 114.084 10.6555 115.019 10.6555C115.358 10.6298 115.683 10.5042 115.95 10.2949C116.217 10.0855 116.416 9.80179 116.52 9.47995C116.52 9.42711 116.541 9.37643 116.579 9.33906C116.617 9.3017 116.668 9.28071 116.721 9.28071C116.774 9.28071 116.825 9.3017 116.863 9.33906C116.9 9.37643 116.922 9.42711 116.922 9.47995C117.004 9.81467 117.197 10.1123 117.47 10.3251C117.743 10.5379 118.08 10.6536 118.427 10.6536C118.774 10.6536 119.111 10.5379 119.384 10.3251C119.657 10.1123 119.85 9.81467 119.932 9.47995C119.932 9.42711 119.953 9.37643 119.991 9.33906C120.029 9.3017 120.08 9.28071 120.133 9.28071C120.186 9.28071 120.237 9.3017 120.275 9.33906C120.312 9.37643 120.334 9.42711 120.334 9.47995C120.417 9.68944 120.535 9.88347 120.683 10.0538C121.887 18.0237 122.232 25.1727 120.434 30.3213" fill="white" fill-opacity="0.7"/>
<path d="M114.14 1.28271V6.24806C114.14 6.80596 113.417 7.26025 112.534 7.26025C111.639 7.26025 110.929 6.80596 110.929 6.24806V4.21569C110.929 3.65778 110.206 3.20748 109.323 3.20748H95.0807C94.1855 3.20748 93.475 3.65778 93.475 4.21569V6.24806C93.475 6.80596 92.7484 7.26025 91.8693 7.26025C90.9902 7.26025 90.2637 6.80596 90.2637 6.24806V1.28271C90.2637 0.724801 90.9862 0.270508 91.8693 0.270508H112.526C113.417 0.270508 114.132 0.724801 114.132 1.28271" fill="white" fill-opacity="0.7"/>
<path d="M73.9865 13.4209H56.6653C56.2873 13.4209 55.9249 13.2719 55.6576 13.0066C55.3904 12.7413 55.2402 12.3815 55.2402 12.0063C55.2402 11.6312 55.3904 11.2714 55.6576 11.0061C55.9249 10.7408 56.2873 10.5918 56.6653 10.5918H73.9865C74.3644 10.5918 74.7269 10.7408 74.9941 11.0061C75.2614 11.2714 75.4115 11.6312 75.4115 12.0063C75.4115 12.3815 75.2614 12.7413 74.9941 13.0066C74.7269 13.2719 74.3644 13.4209 73.9865 13.4209Z" fill="white" fill-opacity="0.7"/>
<path d="M77.8476 21.562H64.6008C64.2229 21.562 63.8604 21.413 63.5932 21.1477C63.3259 20.8824 63.1758 20.5226 63.1758 20.1475C63.1758 19.7723 63.3259 19.4125 63.5932 19.1472C63.8604 18.8819 64.2229 18.7329 64.6008 18.7329H77.8476C78.2256 18.7329 78.588 18.8819 78.8553 19.1472C79.1225 19.4125 79.2726 19.7723 79.2726 20.1475C79.2726 20.5226 79.1225 20.8824 78.8553 21.1477C78.588 21.413 78.2256 21.562 77.8476 21.562Z" fill="white" fill-opacity="0.7"/>
<path d="M75.6762 59.208H50.0617C49.6838 59.208 49.3213 59.059 49.0541 58.7936C48.7869 58.5283 48.6367 58.1684 48.6367 57.7932C48.6367 57.418 48.7869 57.0581 49.0541 56.7928C49.3213 56.5275 49.6838 56.3784 50.0617 56.3784H75.6762C76.0541 56.3784 76.4166 56.5275 76.6838 56.7928C76.9511 57.0581 77.1012 57.418 77.1012 57.7932C77.1012 58.1684 76.9511 58.5283 76.6838 58.7936C76.4166 59.059 76.0541 59.208 75.6762 59.208Z" fill="white" fill-opacity="0.7"/>
<path d="M108.729 8.46766H108.412C108.412 9.63923 107.789 10.5916 106.999 10.6474C106.576 10.1923 106.099 9.79072 105.578 9.45194C105.566 9.41662 105.542 9.38632 105.511 9.36603C105.48 9.34575 105.442 9.33669 105.405 9.34036C105.349 9.34036 105.293 9.40412 105.256 9.49179C105.008 10.1892 104.506 10.6634 103.932 10.6634C103.847 10.6626 103.762 10.6519 103.679 10.6315C103.463 10.5611 103.265 10.4453 103.099 10.2919C102.933 10.1385 102.802 9.95118 102.715 9.74284L102.619 9.51968V9.49179C102.551 9.29254 102.35 9.29254 102.282 9.49179C102.223 9.6532 102.148 9.80812 102.057 9.95404L102.029 9.99389C101.947 10.1149 101.852 10.2259 101.744 10.3246C101.697 10.3688 101.646 10.4088 101.592 10.4442C101.468 10.5199 101.332 10.575 101.19 10.6076C101.119 10.6156 101.048 10.6156 100.977 10.6076C100.886 10.6083 100.795 10.5948 100.708 10.5677C100.588 10.54 100.474 10.4914 100.371 10.4243C100.183 10.2883 100.022 10.1179 99.8976 9.92216C99.8695 9.87434 99.8414 9.82652 99.8133 9.77074L99.7691 9.69502C99.737 9.62329 99.7089 9.54758 99.6808 9.47187V9.44397C99.6126 9.24472 99.4118 9.24472 99.3436 9.44397C99.3417 9.44839 99.3408 9.45313 99.3408 9.45792C99.3408 9.46271 99.3417 9.46745 99.3436 9.47187C99.3155 9.54758 99.2834 9.62329 99.2513 9.69502C99.2389 9.71903 99.2241 9.74173 99.2071 9.76277C99.1831 9.81793 99.1549 9.87121 99.1228 9.92216C99.1224 9.92925 99.1199 9.93605 99.1157 9.94173C99.1114 9.9474 99.1055 9.95169 99.0987 9.95404C99.0511 10.0251 98.9988 10.093 98.9422 10.1573C98.854 10.2575 98.7543 10.3471 98.6451 10.4243C98.544 10.4921 98.431 10.5408 98.312 10.5677C98.1365 10.6195 97.9496 10.6195 97.7741 10.5677C97.6725 10.5435 97.5751 10.5046 97.485 10.4522L97.3285 10.3406L97.2603 10.2848C97.2305 10.2599 97.2036 10.2318 97.18 10.2011C97.1519 10.1692 97.1198 10.1493 97.0917 10.1134C97.0636 10.0776 97.0114 10.0098 96.9752 9.95404L96.9471 9.91419C96.9301 9.89037 96.9153 9.86502 96.903 9.83848C96.8296 9.71079 96.7665 9.57754 96.7143 9.43999C96.6421 9.23675 96.4534 9.23675 96.3771 9.43999C96.3332 9.55905 96.2809 9.6749 96.2206 9.78667C96.1648 9.88892 96.1004 9.98625 96.0279 10.0776C95.976 10.1424 95.9196 10.2036 95.8593 10.2609C95.8594 10.2676 95.857 10.2742 95.8525 10.2793C95.8481 10.2845 95.842 10.2878 95.8352 10.2888C95.7866 10.333 95.7342 10.373 95.6787 10.4083V10.4282C95.5756 10.4954 95.4615 10.5439 95.3415 10.5717C95.2545 10.5988 95.1637 10.6123 95.0725 10.6116C94.9859 10.611 94.8997 10.6003 94.8156 10.5797C94.601 10.5075 94.4041 10.3909 94.2381 10.2378C94.072 10.0846 93.9405 9.89827 93.8522 9.69104C93.8201 9.61931 93.788 9.54359 93.7599 9.46788V9.43999C93.6876 9.24074 93.491 9.24074 93.4187 9.43999C93.3588 9.60152 93.2821 9.75643 93.1899 9.90224L93.1618 9.94209C93.0805 10.0621 92.9863 10.173 92.8808 10.2728C92.8321 10.317 92.7798 10.357 92.7242 10.3924V10.4123C92.6002 10.488 92.4647 10.5432 92.3228 10.5757C92.2529 10.5904 92.1815 10.5971 92.1101 10.5956C92.0189 10.5963 91.9281 10.5829 91.8411 10.5558C91.7198 10.5281 91.6044 10.4795 91.4999 10.4123C91.2935 10.2955 91.1132 10.1382 90.9701 9.95006C90.942 9.90224 90.9139 9.85442 90.8858 9.79863C90.8577 9.74284 90.8577 9.75081 90.8456 9.72292C90.8107 9.65028 90.7799 9.57578 90.7533 9.49976V9.47187C90.681 9.27262 90.4843 9.27262 90.4121 9.47187V9.49976C90.384 9.57547 90.3479 9.65119 90.3157 9.72292C90.3046 9.74676 90.2912 9.76945 90.2756 9.79066C90.2516 9.84582 90.2234 9.8991 90.1913 9.95006C90.1801 9.95786 90.1716 9.96903 90.1672 9.98194C90.1196 10.053 90.0673 10.1209 90.0107 10.1852C89.9225 10.2854 89.8228 10.375 89.7136 10.4522C89.6106 10.5193 89.4965 10.5679 89.3764 10.5956C89.2009 10.6474 89.014 10.6474 88.8385 10.5956C88.7372 10.5707 88.64 10.5318 88.5495 10.4801L88.397 10.3685L88.3247 10.3127L88.2444 10.229C88.2163 10.1971 88.1882 10.1772 88.1601 10.1413C88.1169 10.0916 88.0779 10.0382 88.0437 9.98194L88.0156 9.94209C87.9986 9.91827 87.9838 9.89292 87.9715 9.86637C87.8949 9.74035 87.8317 9.60681 87.7828 9.46788C87.7065 9.26465 87.5179 9.26465 87.4416 9.46788C87.4008 9.58753 87.3497 9.70351 87.2891 9.81457C87.2319 9.91691 87.1661 10.0142 87.0924 10.1055C87.0404 10.1703 86.9841 10.2315 86.9238 10.2888C86.9238 10.2955 86.9214 10.3021 86.917 10.3072C86.9126 10.3123 86.9064 10.3157 86.8997 10.3167C86.851 10.3609 86.7987 10.4009 86.7431 10.4362C86.6387 10.5034 86.5232 10.552 86.4019 10.5797C86.3149 10.6068 86.2242 10.6202 86.133 10.6195C86.0003 10.6434 85.8643 10.6434 85.7316 10.6195C85.5159 10.5492 85.3182 10.4333 85.1519 10.2799C84.9856 10.1265 84.8547 9.93923 84.7682 9.73089C84.7361 9.65916 84.7039 9.58344 84.6759 9.50773V9.47984C84.6076 9.28059 84.4069 9.28059 84.3387 9.47984C84.2905 9.64388 84.2259 9.80274 84.146 9.95404L84.1179 9.99389C84.0363 10.1149 83.9406 10.2259 83.8329 10.3246C83.7856 10.3688 83.7346 10.4088 83.6803 10.4442H83.6603C83.5362 10.5199 83.4007 10.575 83.2588 10.6076C83.1882 10.6156 83.1168 10.6156 83.0461 10.6076C82.9346 10.6076 82.8237 10.5915 82.7169 10.5598C82.0506 10.3326 81.5528 9.4639 81.5528 8.42383H81.1514C81.324 9.61931 81.4766 10.8148 81.6171 11.9585C82.4761 19.1553 82.5965 25.5511 81.1514 30.2892C80.0606 34.4715 79.5209 38.7766 79.5457 43.0967V47.8507C79.5354 49.3082 79.7327 50.7598 80.1318 52.1624C81.2799 56.1872 84.0015 59.0205 87.1767 59.0205H108.584C108.809 59.0205 108.103 54.0633 108.103 54.0633C108.103 54.0633 107.97 52.8997 107.91 52.3179C107.882 52.0788 107.858 51.8437 107.834 51.6046L107.725 50.5206C107.697 50.2656 107.673 50.0026 107.653 49.7516C107.621 49.4049 107.589 49.0582 107.557 48.7234C107.537 48.4604 107.512 48.1974 107.496 47.9265C107.468 47.5877 107.44 47.249 107.416 46.9183C107.396 46.6513 107.376 46.3883 107.364 46.1213C107.34 45.7945 107.32 45.4638 107.296 45.133C107.296 44.866 107.268 44.5951 107.256 44.336C107.256 44.0093 107.227 43.6865 107.211 43.3637C107.195 43.0409 107.187 42.8257 107.183 42.5667C107.179 42.3077 107.159 41.9291 107.155 41.6103C107.151 41.2915 107.155 41.0724 107.155 40.8134V37.3305C107.155 37.0635 107.179 36.7049 107.195 36.3941C107.211 36.0832 107.219 35.876 107.231 35.5971C107.243 35.3181 107.276 34.9675 107.296 34.6606C107.316 34.3538 107.332 34.1506 107.352 33.8915C107.372 33.6325 107.428 33.2659 107.428 32.9471C107.456 32.696 107.48 32.449 107.504 32.2059C107.541 31.8831 107.585 31.5683 107.625 31.2495C107.661 31.0104 107.689 30.7753 107.721 30.5402C107.773 30.2015 107.826 29.8787 107.882 29.548C107.918 29.3288 107.95 29.1056 107.99 28.8865C108.054 28.5198 108.131 28.1612 108.207 27.8065L108.315 27.2606C108.432 26.7147 108.56 26.1847 108.697 25.6666C108.789 25.4355 108.873 25.1924 108.954 24.9454C108.96 24.8869 108.978 24.8301 109.006 24.778C109.146 24.3237 109.283 23.8535 109.407 23.3673C109.691 22.1777 109.882 20.9679 109.977 19.749C110.009 19.4262 110.029 19.0955 110.045 18.7568C110.163 15.2878 109.708 11.8231 108.701 8.49954L108.729 8.46766ZM102.174 26.5035C102.178 26.662 102.169 26.8207 102.145 26.9777C102.096 27.5643 102.002 28.1464 101.864 28.7191C101.808 28.9542 101.744 29.1813 101.672 29.4045C101.668 29.4309 101.66 29.4565 101.648 29.4802C101.612 29.6037 101.567 29.7193 101.527 29.8309C101.459 30.0859 101.399 30.341 101.343 30.6C101.323 30.6916 101.307 30.7793 101.29 30.863C101.254 31.0343 101.214 31.2137 101.186 31.385C101.177 31.4928 101.159 31.5995 101.13 31.7038C101.11 31.8074 101.078 32.0226 101.054 32.178C101.03 32.3334 101.026 32.4051 101.009 32.5247C100.993 32.6442 100.969 32.8355 100.953 32.9869C100.937 33.1384 100.929 33.226 100.913 33.3456C100.897 33.4651 100.885 33.6484 100.873 33.7999C100.874 33.9213 100.864 34.0426 100.845 34.1625C100.817 34.2781 100.845 34.4693 100.813 34.6208C100.797 34.7438 100.797 34.8683 100.813 34.9914V38.4025C100.809 38.5583 100.817 38.7141 100.837 38.8687C100.849 39.0013 100.849 39.1346 100.837 39.2672C100.832 39.4258 100.841 39.5845 100.865 39.7414C100.893 39.8968 100.865 39.9964 100.893 40.1399C100.921 40.2834 100.893 40.4667 100.929 40.63C100.965 40.7934 100.929 40.8851 100.957 41.0285L101.005 41.5267C101.005 41.6502 101.03 41.7737 101.038 41.8973C101.046 42.0208 101.074 42.2439 101.094 42.4153C101.114 42.5867 101.118 42.6504 101.126 42.766C101.162 43.0409 101.19 43.3239 101.222 43.6028C101.267 43.9271 101.193 44.2567 101.013 44.5313C100.834 44.7857 100.624 45.0173 100.387 45.2207C100.387 45.2207 100.359 45.2566 100.343 45.2605C100.301 45.2894 100.262 45.3228 100.227 45.3602C100.21 45.3803 100.19 45.3966 100.167 45.408L99.8895 45.5913L99.8293 45.6192C99.7534 45.6658 99.6742 45.7071 99.5925 45.7427C99.5706 45.7586 99.5461 45.7707 99.5202 45.7786L99.2151 45.8902H99.175C99.0861 45.9193 98.9947 45.9406 98.902 45.9539C98.8741 45.9499 98.8457 45.9499 98.8177 45.9539C98.7109 45.9619 98.6035 45.9619 98.4966 45.9539H91.1467C89.6173 45.9539 88.3006 44.5871 87.7507 42.6464C87.558 41.9738 87.462 41.2775 87.4657 40.5782V38.267C87.4495 36.1851 87.7072 34.11 88.2324 32.0943C88.9268 29.8189 88.8666 26.7306 88.4572 23.2637C88.393 22.7058 88.3167 22.14 88.2324 21.5621H88.4211C88.3996 21.7669 88.4397 21.9733 88.5361 22.1555C88.6325 22.3377 88.781 22.4876 88.963 22.5863C89.014 22.6013 89.0665 22.6107 89.1195 22.6142H89.2239C89.2912 22.6016 89.3553 22.5758 89.4126 22.5385L89.4888 22.4747C89.5437 22.4303 89.59 22.3762 89.6253 22.3153C89.6694 22.2464 89.7057 22.1729 89.7337 22.0961C89.7658 22.0005 89.8622 22.0005 89.8943 22.0961C89.9065 22.1317 89.9213 22.1663 89.9384 22.1997C89.9881 22.3004 90.0602 22.3886 90.1492 22.4576C90.2382 22.5266 90.3418 22.5747 90.4522 22.5982C90.4917 22.6142 90.534 22.6224 90.5767 22.6221C90.6206 22.6223 90.6642 22.6142 90.7051 22.5982C90.763 22.5876 90.8178 22.5645 90.8657 22.5305L90.946 22.4667C90.9778 22.4425 91.005 22.4128 91.0263 22.3791C91.062 22.3351 91.0942 22.2885 91.1226 22.2396C91.1507 22.1838 91.1708 22.136 91.1948 22.0762C91.2003 22.0593 91.211 22.0446 91.2254 22.0341C91.2399 22.0237 91.2573 22.018 91.2751 22.018C91.293 22.018 91.3104 22.0237 91.3248 22.0341C91.3393 22.0446 91.35 22.0593 91.3554 22.0762C91.3794 22.1437 91.4118 22.2079 91.4518 22.2675C91.4569 22.2802 91.4636 22.2923 91.4718 22.3033V22.3233C91.4883 22.3501 91.5071 22.3755 91.528 22.399L91.5682 22.4428L91.6083 22.4827C91.617 22.494 91.628 22.5035 91.6404 22.5106L91.7167 22.5664C91.7611 22.5894 91.8083 22.6068 91.8572 22.6182C91.9398 22.6502 92.0315 22.6502 92.1141 22.6182C92.1729 22.6064 92.2288 22.5834 92.2787 22.5504C92.331 22.5143 92.3783 22.4714 92.4192 22.4229C92.4433 22.391 92.4714 22.3631 92.4954 22.3273C92.5284 22.2845 92.5554 22.2376 92.5757 22.1878V22.1519C92.5958 22.1194 92.612 22.0846 92.6239 22.0483C92.656 21.9527 92.7483 21.9527 92.7885 22.0483C92.8007 22.0838 92.8155 22.1185 92.8326 22.1519V22.1878C92.845 22.2118 92.8598 22.2345 92.8768 22.2555C92.935 22.3516 93.0129 22.4345 93.1056 22.4986C93.1555 22.5316 93.2114 22.5546 93.2702 22.5664C93.3061 22.572 93.3427 22.572 93.3786 22.5664H93.4829C93.5502 22.5538 93.6144 22.528 93.6716 22.4906L93.7438 22.4269C93.8 22.3826 93.8476 22.3286 93.8843 22.2675C93.9284 22.1986 93.9647 22.1251 93.9927 22.0483C94.0288 21.9527 94.1252 21.9527 94.1573 22.0483C94.1692 22.0846 94.1854 22.1194 94.2055 22.1519C94.2544 22.2664 94.3321 22.3665 94.4313 22.4426C94.5304 22.5186 94.6475 22.5681 94.7715 22.5863C94.811 22.6023 94.8533 22.6104 94.8959 22.6102C94.9399 22.6103 94.9834 22.6022 95.0244 22.5863C95.0831 22.5745 95.139 22.5515 95.1889 22.5185L95.2652 22.4548C95.2962 22.4297 95.3233 22.4001 95.3455 22.3671C95.3822 22.3247 95.4132 22.2779 95.4378 22.2276C95.466 22.175 95.4901 22.1204 95.5101 22.0642C95.5502 21.9686 95.6425 21.9686 95.6787 22.0642C95.7015 22.1308 95.7311 22.1949 95.767 22.2555C95.7702 22.27 95.7788 22.2828 95.7911 22.2914V22.3113C95.8075 22.3382 95.8263 22.3635 95.8473 22.387L95.8874 22.4309L95.9235 22.4707L95.9637 22.4986L96.0359 22.5544C96.0858 22.5692 96.1368 22.5799 96.1885 22.5863C96.231 22.6016 96.2757 22.6097 96.3209 22.6102C96.3649 22.6103 96.4085 22.6022 96.4494 22.5863C96.5067 22.5738 96.5611 22.5508 96.61 22.5185C96.6623 22.4824 96.7096 22.4396 96.7505 22.391C96.7802 22.3628 96.8058 22.3306 96.8267 22.2954V22.2755C96.8425 22.2515 96.8559 22.2262 96.8669 22.1997C96.875 22.1887 96.8818 22.1766 96.8869 22.1639C96.8957 22.1271 96.9107 22.0921 96.9311 22.0603C96.9672 21.9646 97.0636 21.9646 97.0957 22.0603C97.1076 22.0965 97.1238 22.1313 97.1438 22.1639V22.2077L97.184 22.2755C97.2444 22.3712 97.3235 22.4539 97.4168 22.5185C97.4656 22.5508 97.5201 22.5738 97.5774 22.5863C97.6199 22.6016 97.6646 22.6097 97.7098 22.6102H97.7941C97.8632 22.5951 97.9296 22.5696 97.9908 22.5345L98.0671 22.4707C98.1189 22.4232 98.1647 22.3697 98.2036 22.3113V22.2914C98.2489 22.2226 98.2866 22.1491 98.316 22.0722C98.3521 21.9766 98.4444 21.9766 98.4806 22.0722L98.5207 22.1758C98.5743 22.2829 98.6536 22.3752 98.7516 22.4447C98.8496 22.5142 98.9633 22.5587 99.0827 22.5743C99.1208 22.5902 99.1618 22.5983 99.2031 22.5982C99.3547 22.5791 99.4969 22.5148 99.6108 22.4138C99.7248 22.3127 99.8052 22.1797 99.8414 22.0324C99.8456 22.0151 99.854 21.9992 99.8659 21.986C99.8778 21.9728 99.8928 21.9627 99.9096 21.9567C99.9285 21.9547 99.9475 21.9592 99.9635 21.9693C99.9796 21.9794 99.9917 21.9946 99.9979 22.0124C100.243 22.1831 100.472 22.3766 100.68 22.5903C101.062 22.5903 101.359 22.1081 101.359 21.5422H101.515C101.998 23.1439 102.216 24.8126 102.162 26.4835" fill="white" fill-opacity="0.7"/>
</svg>
