<svg width="197" height="76" viewBox="0 0 197 76" fill="none" xmlns="http://www.w3.org/2000/svg">
<path d="M5.40098 69.0029H1.94078V72.6491C1.94078 73.3584 1.85648 73.705 1.58753 74.0238H0.65625V75.7373H1.19816V74.5419H5.71408V75.7373H6.27606V74.0238H5.40098V69.0029ZM2.48269 72.6411V69.5409H4.85907V74.0238H2.22578C2.4266 73.5915 2.51494 73.1161 2.48269 72.6411Z" fill="#333333" fill-opacity="0.7"/>
<path d="M10.5429 68.9274C9.97631 68.9118 9.41785 69.0634 8.93806 69.3629C8.45828 69.6625 8.07871 70.0965 7.84734 70.6101C7.61598 71.1238 7.54321 71.694 7.63822 72.2488C7.73324 72.8035 7.99178 73.3178 8.38116 73.7266C8.77054 74.1355 9.27328 74.4206 9.82583 74.5458C10.3784 74.671 10.9559 74.6308 11.4854 74.4302C12.015 74.2297 12.4727 73.8777 12.8008 73.4189C13.1289 72.9601 13.3126 72.415 13.3287 71.8525V71.7728C13.3361 71.4064 13.2708 71.0422 13.1364 70.7009C13.0021 70.3596 12.8013 70.048 12.5456 69.7837C12.2898 69.5195 11.9842 69.3079 11.6461 69.1609C11.308 69.014 10.944 68.9346 10.575 68.9274H10.5429ZM10.5429 69.4654C11.0014 69.4531 11.4534 69.5758 11.8418 69.818C12.2303 70.0603 12.5378 70.4112 12.7257 70.8267C12.9136 71.2422 12.9735 71.7035 12.8978 72.1527C12.8222 72.6019 12.6143 73.0188 12.3004 73.3509C11.9865 73.683 11.5806 73.9155 11.1339 74.019C10.6872 74.1225 10.2197 74.0925 9.79009 73.9327C9.36053 73.773 8.9882 73.4906 8.72 73.1211C8.4518 72.7516 8.29972 72.3116 8.28292 71.8565V71.7927C8.2749 71.4975 8.32556 71.2037 8.43199 70.9279C8.53842 70.6522 8.69854 70.3999 8.9032 70.1857C9.10785 69.9714 9.35304 69.7992 9.62474 69.679C9.89643 69.5589 10.1893 69.493 10.4867 69.4853H10.5348" fill="#333333" fill-opacity="0.7"/>
<path d="M20.025 72.8403C19.8426 73.2138 19.5571 73.5281 19.2018 73.7469C18.8465 73.9656 18.4359 74.0796 18.0179 74.0758C17.4187 74.051 16.8523 73.7973 16.4372 73.3677C16.022 72.938 15.7902 72.3657 15.7902 71.7703C15.7902 71.1749 16.022 70.6026 16.4372 70.1729C16.8523 69.7433 17.4187 69.4895 18.0179 69.4648C18.4299 69.4627 18.8343 69.5755 19.1848 69.7904C19.5354 70.0053 19.8182 70.3137 20.0009 70.6803L20.0651 70.8078L20.5428 70.5528L20.4786 70.4332C20.2495 69.9786 19.8969 69.5966 19.4607 69.3304C19.0244 69.0642 18.5219 68.9244 18.0099 68.9268C17.2688 68.9543 16.5673 69.266 16.0529 69.7962C15.5384 70.3265 15.251 71.034 15.251 71.7703C15.251 72.5065 15.5384 73.2141 16.0529 73.7443C16.5673 74.2746 17.2688 74.5862 18.0099 74.6138C18.5251 74.6145 19.0302 74.4718 19.468 74.202C19.9057 73.9323 20.2586 73.5461 20.4866 73.0874L20.5508 72.9639L20.0611 72.7128L20.025 72.8403Z" fill="#333333" fill-opacity="0.7"/>
<path d="M21.9033 69.517H23.8181V74.5376H24.36V69.517H26.2787V69.0029H21.9033V69.517Z" fill="#333333" fill-opacity="0.7"/>
<path d="M29.1844 69.0029L26.9404 74.5376H27.5265L28.0403 73.2864H30.8502L31.3801 74.5376H31.9662L29.65 69.0029H29.1844ZM28.237 72.7605L29.4413 69.8278L30.6455 72.7605H28.237Z" fill="#333333" fill-opacity="0.7"/>
<path d="M36.8759 71.7165C37.0879 71.5918 37.2608 71.4109 37.3749 71.1941C37.4891 70.9773 37.5401 70.7332 37.5221 70.4892C37.5221 69.3934 36.631 69.0029 35.8683 69.0029H33.8291V74.5376H35.9446C36.7916 74.5376 37.6466 74.0634 37.6466 73.0075C37.6564 72.7416 37.589 72.4785 37.4524 72.2495C37.3157 72.0206 37.1156 71.8356 36.8759 71.7165ZM35.8683 69.517C35.9969 69.4996 36.1278 69.5075 36.2533 69.5404C36.3788 69.5732 36.4966 69.6304 36.5999 69.7084C36.7032 69.7865 36.7899 69.8841 36.8552 69.9955C36.9205 70.1069 36.9629 70.23 36.9802 70.3577V70.5012C36.9802 71.3579 36.2777 71.4854 35.8603 71.4854H34.375V69.517H35.8683ZM34.375 71.9994H35.9406C36.4785 71.9994 37.1087 72.2664 37.1087 73.0115C37.1044 73.288 36.9903 73.5517 36.791 73.745C36.5917 73.9383 36.3235 74.0456 36.0449 74.0435H35.9406H34.375V71.9994Z" fill="#333333" fill-opacity="0.7"/>
<path d="M40.3163 73.5733V69.0029H39.7744V74.5376H40.2963L43.5236 69.9752V74.5376H44.0656V69.0029H43.5558L40.3163 73.5733Z" fill="#333333" fill-opacity="0.7"/>
<path d="M49.2283 72.9597L46.9964 69.0029H46.4746V74.5376H47.0205V70.1306L49.0236 73.6809H49.425L51.4361 70.1226V74.5376H51.978V69.0029H51.4481L49.2283 72.9597Z" fill="#333333" fill-opacity="0.7"/>
<path d="M61.054 71.6409C60.5631 71.9107 60.0095 72.0481 59.4484 72.0394C58.505 72.0394 58.0234 71.6847 58.0234 70.9754V68.9829H57.4814V70.9993C57.4814 71.9916 58.1839 72.5614 59.4082 72.5614C59.9736 72.5624 60.532 72.4371 61.042 72.1948V74.5181H61.5839V69.0028H61.042L61.054 71.6409Z" fill="#333333" fill-opacity="0.7"/>
<path d="M63.5537 69.517H65.4685V74.5376H66.0104V69.517H67.9291V69.0029H63.5537V69.517Z" fill="#333333" fill-opacity="0.7"/>
<path d="M71.9872 68.9273C71.4205 68.9164 70.8632 69.0725 70.3859 69.376C69.9086 69.6795 69.5326 70.1166 69.3055 70.6322C69.0784 71.1478 69.0104 71.7187 69.1101 72.2727C69.2098 72.8266 69.4727 73.3388 69.8656 73.7444C70.2584 74.1501 70.7636 74.4309 71.3173 74.5516C71.8709 74.6722 72.4482 74.6271 72.976 74.422C73.5039 74.217 73.9586 73.8611 74.2828 73.3995C74.6069 72.9379 74.7859 72.3912 74.7972 71.8285V71.7728C74.8046 71.4064 74.7393 71.0422 74.6049 70.7009C74.4706 70.3596 74.2698 70.0479 74.0141 69.7837C73.7583 69.5194 73.4527 69.3078 73.1145 69.1609C72.7764 69.0139 72.4124 68.9345 72.0434 68.9273H71.9872ZM71.9872 69.4653C72.4461 69.4514 72.8988 69.5728 73.2882 69.814C73.6777 70.0553 73.9865 70.4057 74.1757 70.8209C74.3648 71.2362 74.4259 71.6977 74.3511 72.1474C74.2764 72.5971 74.0692 73.0147 73.7556 73.3476C73.4421 73.6805 73.0363 73.9138 72.5894 74.018C72.1425 74.1222 71.6745 74.0927 71.2445 73.9332C70.8145 73.7737 70.4416 73.4914 70.173 73.1218C69.9044 72.7522 69.7521 72.3119 69.7352 71.8564V71.7847C69.7278 71.489 69.7791 71.1947 69.8862 70.9187C69.9933 70.6427 70.1542 70.3903 70.3596 70.176C70.565 69.9617 70.8109 69.7897 71.0833 69.6698C71.3557 69.5499 71.6492 69.4845 71.9471 69.4773H71.9872" fill="#333333" fill-opacity="0.7"/>
<path d="M81.8274 72.2983L80.1414 69.0029H79.5312L81.5383 72.8682L81.2814 73.3623C81.1956 73.5732 81.0461 73.7527 80.8535 73.8761C80.6609 73.9995 80.4347 74.0608 80.2056 74.0516H80.0812L80.017 74.5776H80.1775C80.8198 74.5776 81.3376 74.3824 81.7832 73.5177L84.1516 69.0029H83.5414L81.8274 72.2983Z" fill="#333333" fill-opacity="0.7"/>
<path d="M86.001 74.5376H86.5429V69.5249H89.4612V69.0029H86.001V74.5376Z" fill="#333333" fill-opacity="0.7"/>
<path d="M93.5204 68.9274C92.9539 68.9118 92.3954 69.0634 91.9156 69.3629C91.4358 69.6625 91.0562 70.0965 90.8249 70.6101C90.5935 71.1238 90.5207 71.694 90.6158 72.2488C90.7108 72.8035 90.9693 73.3178 91.3587 73.7266C91.7481 74.1355 92.2508 74.4206 92.8034 74.5458C93.3559 74.671 93.9334 74.6308 94.463 74.4302C94.9925 74.2297 95.4502 73.8777 95.7783 73.4189C96.1064 72.9601 96.2901 72.415 96.3062 71.8525V71.7728C96.3136 71.4064 96.2483 71.0422 96.114 70.7009C95.9796 70.3596 95.7788 70.048 95.5231 69.7837C95.2674 69.5195 94.9617 69.3079 94.6236 69.1609C94.2855 69.014 93.9215 68.9346 93.5525 68.9274H93.5204ZM93.5204 69.4654C93.9792 69.4515 94.4319 69.5729 94.8214 69.8141C95.2109 70.0554 95.5196 70.4057 95.7088 70.821C95.8979 71.2362 95.959 71.6978 95.8842 72.1475C95.8095 72.5971 95.6023 73.0148 95.2888 73.3477C94.9753 73.6806 94.5695 73.9138 94.1226 74.0181C93.6757 74.1223 93.2077 74.0928 92.7777 73.9333C92.3477 73.7738 91.9749 73.4914 91.7063 73.1218C91.4377 72.7522 91.2853 72.3119 91.2685 71.8565V71.7848C91.2605 71.4896 91.3111 71.1957 91.4176 70.92C91.524 70.6442 91.6841 70.392 91.8888 70.1777C92.0934 69.9634 92.3386 69.7913 92.6103 69.6711C92.882 69.5509 93.1749 69.4851 93.4722 69.4773H93.5204" fill="#333333" fill-opacity="0.7"/>
<path d="M102.347 69.0029H98.8871V72.6491C98.8871 73.3584 98.7988 73.705 98.5338 74.0238H97.6025V75.7373H98.1445V74.5419H102.656V75.7373H103.198V74.0238H102.347V69.0029ZM99.429 72.6411V69.5409H101.813V74.0238H99.1801C99.3809 73.5915 99.4693 73.1161 99.437 72.6411" fill="#333333" fill-opacity="0.7"/>
<path d="M108.862 71.5611H105.726V69.0029H105.185V74.5376H105.726V72.091H108.862V74.5376H109.403V69.0029H108.862V71.5611Z" fill="#333333" fill-opacity="0.7"/>
<path d="M114.306 68.9274C113.739 68.9118 113.181 69.0634 112.701 69.3629C112.221 69.6625 111.841 70.0965 111.61 70.6101C111.379 71.1238 111.306 71.694 111.401 72.2488C111.496 72.8035 111.754 73.3178 112.144 73.7266C112.533 74.1355 113.036 74.4206 113.589 74.5458C114.141 74.671 114.719 74.6308 115.248 74.4302C115.778 74.2297 116.235 73.8777 116.564 73.4189C116.892 72.9601 117.075 72.415 117.091 71.8525V71.7728C117.099 71.4064 117.034 71.0422 116.899 70.7009C116.765 70.3596 116.564 70.048 116.308 69.7837C116.053 69.5195 115.747 69.3079 115.409 69.1609C115.071 69.014 114.707 68.9346 114.338 68.9274H114.306ZM114.306 69.4654C114.764 69.4523 115.217 69.5743 115.606 69.8161C115.995 70.0578 116.303 70.4085 116.491 70.8238C116.68 71.2392 116.74 71.7007 116.665 72.1501C116.59 72.5995 116.382 73.0168 116.069 73.3493C115.755 73.6818 115.349 73.9146 114.902 74.0185C114.455 74.1224 113.988 74.0927 113.558 73.933C113.128 73.7734 112.755 73.491 112.487 73.1215C112.219 72.7519 112.066 72.3118 112.05 71.8565V71.7888C112.042 71.4936 112.092 71.1997 112.199 70.9239C112.305 70.6482 112.465 70.396 112.67 70.1817C112.875 69.9674 113.12 69.7952 113.391 69.6751C113.663 69.5549 113.956 69.489 114.253 69.4813H114.306" fill="#333333" fill-opacity="0.7"/>
<path d="M126.754 69.0029H126.075L124.121 71.4933H122.94V69.0029H122.398V74.5376H122.94V72.0233H124.129L126.148 74.5376H126.834L124.598 71.7563L126.754 69.0029Z" fill="#333333" fill-opacity="0.7"/>
<path d="M130.53 72.2982L128.841 69.0025H128.234L130.241 72.8681L129.989 73.3622C129.903 73.5732 129.753 73.7527 129.561 73.8761C129.368 73.9995 129.142 74.0609 128.913 74.0517H128.788L128.72 74.5737H128.885C129.527 74.5737 130.045 74.3785 130.49 73.5137L132.843 68.9985H132.237L130.53 72.2982Z" fill="#333333" fill-opacity="0.7"/>
<path d="M138.559 69.0029H135.099V72.6491C135.099 73.3584 135.011 73.705 134.746 74.0238H133.814V75.7373H134.356V74.5419H138.872V75.7373H139.414V74.0238H138.559V69.0029ZM135.641 72.6411V69.5409H138.017V74.0238H135.384C135.589 73.5927 135.677 73.1163 135.641 72.6411Z" fill="#333333" fill-opacity="0.7"/>
<path d="M143.79 69.0029H143.32L141.072 74.5376H141.658L142.172 73.2864H144.982L145.512 74.5376H146.098L143.818 69.0906L143.79 69.0029ZM142.357 72.7605L143.561 69.8278L144.765 72.7605H142.357Z" fill="#333333" fill-opacity="0.7"/>
<path d="M155.603 72.8403C155.421 73.2138 155.135 73.5281 154.78 73.7469C154.425 73.9656 154.014 74.0796 153.596 74.0758C152.997 74.051 152.43 73.7973 152.015 73.3677C151.6 72.938 151.368 72.3657 151.368 71.7703C151.368 71.1749 151.6 70.6026 152.015 70.1729C152.43 69.7433 152.997 69.4895 153.596 69.4648C154.008 69.4625 154.411 69.5753 154.761 69.7903C155.111 70.0052 155.393 70.3137 155.575 70.6803L155.643 70.8078L156.121 70.5528L156.057 70.4332C155.828 69.9786 155.475 69.5966 155.039 69.3304C154.603 69.0642 154.1 68.9244 153.588 68.9268C152.847 68.9543 152.145 69.266 151.631 69.7962C151.117 70.3265 150.829 71.034 150.829 71.7703C150.829 72.5065 151.117 73.2141 151.631 73.7443C152.145 74.2746 152.847 74.5862 153.588 74.6138C154.103 74.6145 154.608 74.4718 155.046 74.202C155.484 73.9323 155.837 73.5461 156.065 73.0874L156.129 72.9639L155.639 72.7128L155.603 72.8403Z" fill="#333333" fill-opacity="0.7"/>
<path d="M162.476 69.0029H161.797L159.838 71.4933H158.662V69.0029H158.116V74.5376H158.662V72.0233H159.846L161.865 74.5376H162.556L160.316 71.7563L162.476 69.0029Z" fill="#333333" fill-opacity="0.7"/>
<path d="M166.702 69.0029H166.228L163.984 74.5376H164.57L165.084 73.2864H167.894L168.424 74.5376H169.01L166.73 69.0906L166.702 69.0029ZM165.281 72.7605L166.465 69.8278L167.669 72.7605H165.281Z" fill="#333333" fill-opacity="0.7"/>
<path d="M177.456 69.0029H176.778L174.767 71.5451H174.277V69.0029H173.735V71.5451H173.237L171.234 69.0029H170.552L172.763 71.8041L170.483 74.5376H171.17L173.233 72.0751H173.735V74.5376H174.277V72.0751H174.779L176.842 74.5376H177.528L175.248 71.8041L177.456 69.0029Z" fill="#333333" fill-opacity="0.7"/>
<path d="M179.335 74.5376H182.948V74.0156H179.881V72.0153H182.888V71.5013H179.881V69.5249H182.948V69.0029H179.335V74.5376Z" fill="#333333" fill-opacity="0.7"/>
<path d="M184.75 69.517H186.661V74.5376H187.203V69.517H189.122V69.0029H184.75V69.517Z" fill="#333333" fill-opacity="0.7"/>
<path d="M194.689 69.5249V69.0029H191.08V74.5376H194.689V74.0156H191.622V72.0153H194.629V71.5013H191.622V69.5249H194.689Z" fill="#333333" fill-opacity="0.7"/>
<path d="M3.39774 29.5757H7.44805L6.40035 36.2504H13.2646L14.2922 29.5757H18.3666L15.7454 46.145H11.667L12.6464 40.0401H5.80224L4.82679 46.145H0.772461L3.39774 29.5757Z" fill="#333333" fill-opacity="0.7"/>
<path d="M18.9367 37.8607C19.3029 35.5056 20.5017 33.3569 22.3185 31.7994C24.1353 30.2419 26.4514 29.3775 28.8518 29.3608C33.4319 29.3608 36.8159 33.1704 36.0532 37.8806C35.2905 42.5908 31.4971 46.4004 26.1342 46.4004C21.558 46.4004 18.174 42.5908 18.9367 37.8806V37.8607ZM31.9507 37.8806C32.3521 35.3064 30.7465 33.294 28.2336 33.294C25.7207 33.294 23.4406 35.2864 23.0151 37.8607C22.5896 40.435 24.2194 42.4513 26.7363 42.4513C29.2532 42.4513 31.5011 40.4589 31.9306 37.8607" fill="#333333" fill-opacity="0.7"/>
<path d="M51.235 46.145H47.1807L49.1878 33.5526H43.9132L42.9618 39.5659C42.2674 43.9214 40.6497 46.145 36.0695 46.145C35.8086 46.145 35.2345 46.1211 34.8652 46.0972L35.4152 42.6184C35.6801 42.6661 35.9488 42.6901 36.218 42.6901C37.6471 42.6901 38.5543 41.8134 38.9597 39.2352L40.5092 29.5757H53.9084L51.235 46.145Z" fill="#333333" fill-opacity="0.7"/>
<path d="M56.6581 29.5757H60.7084L59.733 35.7085H62.9764C66.2881 35.7085 68.2912 37.9321 67.8135 40.9128C67.2916 44.2761 65.0718 46.145 61.3908 46.145H54.0449L56.6581 29.5757ZM61.3306 42.8056C62.7837 42.8056 63.7391 42.1681 63.9278 40.9128C64.1164 39.6576 63.3818 39.0439 61.9207 39.0439H59.2031L58.609 42.8056H61.3306Z" fill="#333333" fill-opacity="0.7"/>
<path d="M125.734 38.0239C126.092 35.6941 127.276 33.5676 129.072 32.0264C130.868 30.4852 133.159 29.6305 135.533 29.6157C140.053 29.6157 143.393 33.3775 142.638 38.0239C141.883 42.6703 138.146 46.436 132.851 46.436C128.335 46.436 124.992 42.6743 125.746 38.0239H125.734ZM138.592 38.0239C139.017 35.5014 137.415 33.517 134.923 33.517C132.43 33.517 130.194 35.5094 129.793 38.0239C129.391 40.5384 130.969 42.5587 133.466 42.5587C135.962 42.5587 138.17 40.5663 138.592 38.0239Z" fill="#333333" fill-opacity="0.7"/>
<path d="M141.75 42.742H144.456C145.632 41.0365 146.291 38.6774 146.644 36.4617L147.704 29.8506H160.312L158.265 42.742H160.995L159.867 49.915H155.82L156.406 46.1811H145.207L144.621 49.915H140.606L141.75 42.742ZM154.267 42.742L155.7 33.6802H151.092L150.642 36.4378C150.269 38.8288 149.654 41.0165 148.595 42.742H154.267Z" fill="#333333" fill-opacity="0.7"/>
<path d="M164.435 29.8506H168.433L166.928 39.4983L175.068 29.8506H179.327L176.738 46.2012H172.74L174.27 36.5534L166.105 46.2012H161.846L164.435 29.8506Z" fill="#333333" fill-opacity="0.7"/>
<path d="M182.085 29.8506H186.083L185.048 36.4378H191.824L192.835 29.8506H196.861L194.272 46.2012H190.25L191.213 40.1718H184.462L183.498 46.2012H179.496L182.085 29.8506Z" fill="#333333" fill-opacity="0.7"/>
<path d="M50.982 13.4209H47.6623C47.2844 13.4209 46.9219 13.2719 46.6547 13.0066C46.3874 12.7413 46.2373 12.3815 46.2373 12.0063C46.2373 11.6312 46.3874 11.2714 46.6547 11.0061C46.9219 10.7408 47.2844 10.5918 47.6623 10.5918H50.982C51.36 10.5918 51.7224 10.7408 51.9897 11.0061C52.2569 11.2714 52.407 11.6312 52.407 12.0063C52.407 12.3815 52.2569 12.7413 51.9897 13.0066C51.7224 13.2719 51.36 13.4209 50.982 13.4209Z" fill="#333333" fill-opacity="0.7"/>
<path d="M58.9017 21.562H56.3567C55.9787 21.562 55.6163 21.413 55.349 21.1477C55.0818 20.8824 54.9316 20.5226 54.9316 20.1475C54.9316 19.7723 55.0818 19.4125 55.349 19.1472C55.6163 18.8819 55.9787 18.7329 56.3567 18.7329H58.9017C59.2796 18.7329 59.6421 18.8819 59.9093 19.1472C60.1766 19.4125 60.3267 19.7723 60.3267 20.1475C60.3267 20.5226 60.1766 20.8824 59.9093 21.1477C59.6421 21.413 59.2796 21.562 58.9017 21.562Z" fill="#333333" fill-opacity="0.7"/>
<path d="M44.3736 59.208H39.4602C39.0822 59.208 38.7198 59.059 38.4525 58.7936C38.1853 58.5283 38.0352 58.1684 38.0352 57.7932C38.0352 57.418 38.1853 57.0581 38.4525 56.7928C38.7198 56.5275 39.0822 56.3784 39.4602 56.3784H44.3736C44.7515 56.3784 45.114 56.5275 45.3812 56.7928C45.6484 57.0581 45.7986 57.418 45.7986 57.7932C45.7986 58.1684 45.6484 58.5283 45.3812 58.7936C45.114 59.059 44.7515 59.208 44.3736 59.208Z" fill="#333333" fill-opacity="0.7"/>
<path d="M120.419 30.3213C117.468 40.1721 118.645 49.5169 120.383 58.7978C120.388 58.8534 120.411 58.9057 120.45 58.9462C120.489 58.9868 120.54 59.0131 120.595 59.021H113.053C112.957 59.021 112.868 58.9293 112.84 58.7978C111.114 49.5169 109.926 40.1721 112.884 30.3213C114.791 24.838 114.301 17.0912 112.884 8.46777H113.322C113.322 9.66326 114.089 10.6555 115.024 10.6555C115.363 10.6298 115.688 10.5042 115.955 10.2949C116.222 10.0855 116.421 9.80179 116.525 9.47995C116.525 9.42711 116.546 9.37643 116.584 9.33906C116.622 9.3017 116.673 9.28071 116.726 9.28071C116.779 9.28071 116.83 9.3017 116.868 9.33906C116.905 9.37643 116.927 9.42711 116.927 9.47995C117.009 9.81467 117.202 10.1123 117.475 10.3251C117.748 10.5379 118.085 10.6536 118.432 10.6536C118.779 10.6536 119.116 10.5379 119.389 10.3251C119.662 10.1123 119.855 9.81467 119.937 9.47995C119.937 9.42711 119.958 9.37643 119.996 9.33906C120.034 9.3017 120.085 9.28071 120.138 9.28071C120.191 9.28071 120.242 9.3017 120.28 9.33906C120.317 9.37643 120.339 9.42711 120.339 9.47995C120.422 9.68944 120.54 9.88347 120.688 10.0538C121.892 18.0237 122.237 25.1727 120.439 30.3213" fill="#333333" fill-opacity="0.7"/>
<path d="M114.144 1.28271V6.24806C114.144 6.80596 113.421 7.26025 112.538 7.26025C111.643 7.26025 110.933 6.80596 110.933 6.24806V4.21569C110.933 3.65778 110.21 3.20748 109.327 3.20748H95.0846C94.1894 3.20748 93.4789 3.65778 93.4789 4.21569V6.24806C93.4789 6.80596 92.7523 7.26025 91.8732 7.26025C90.9941 7.26025 90.2676 6.80596 90.2676 6.24806V1.28271C90.2676 0.724801 90.9901 0.270508 91.8732 0.270508H112.53C113.421 0.270508 114.136 0.724801 114.136 1.28271" fill="#333333" fill-opacity="0.7"/>
<path d="M73.9913 13.4209H56.6701C56.2922 13.4209 55.9297 13.2719 55.6625 13.0066C55.3953 12.7413 55.2451 12.3815 55.2451 12.0063C55.2451 11.6312 55.3953 11.2714 55.6625 11.0061C55.9297 10.7408 56.2922 10.5918 56.6701 10.5918H73.9913C74.3692 10.5918 74.7317 10.7408 74.9989 11.0061C75.2662 11.2714 75.4163 11.6312 75.4163 12.0063C75.4163 12.3815 75.2662 12.7413 74.9989 13.0066C74.7317 13.2719 74.3692 13.4209 73.9913 13.4209Z" fill="#333333" fill-opacity="0.7"/>
<path d="M77.8525 21.562H64.6057C64.2278 21.562 63.8653 21.413 63.5981 21.1477C63.3308 20.8824 63.1807 20.5226 63.1807 20.1475C63.1807 19.7723 63.3308 19.4125 63.5981 19.1472C63.8653 18.8819 64.2278 18.7329 64.6057 18.7329H77.8525C78.2304 18.7329 78.5929 18.8819 78.8601 19.1472C79.1274 19.4125 79.2775 19.7723 79.2775 20.1475C79.2775 20.5226 79.1274 20.8824 78.8601 21.1477C78.5929 21.413 78.2304 21.562 77.8525 21.562Z" fill="#333333" fill-opacity="0.7"/>
<path d="M75.681 59.208H50.0666C49.6887 59.208 49.3262 59.059 49.059 58.7936C48.7917 58.5283 48.6416 58.1684 48.6416 57.7932C48.6416 57.418 48.7917 57.0581 49.059 56.7928C49.3262 56.5275 49.6887 56.3784 50.0666 56.3784H75.681C76.059 56.3784 76.4215 56.5275 76.6887 56.7928C76.9559 57.0581 77.1061 57.418 77.1061 57.7932C77.1061 58.1684 76.9559 58.5283 76.6887 58.7936C76.4215 59.059 76.059 59.208 75.681 59.208Z" fill="#333333" fill-opacity="0.7"/>
<path d="M108.735 8.46766H108.418C108.418 9.63923 107.795 10.5916 107.005 10.6474C106.582 10.1923 106.105 9.79072 105.584 9.45194C105.572 9.41662 105.548 9.38632 105.517 9.36603C105.486 9.34575 105.448 9.33669 105.411 9.34036C105.355 9.34036 105.299 9.40412 105.262 9.49179C105.014 10.1892 104.512 10.6634 103.938 10.6634C103.852 10.6626 103.768 10.6519 103.685 10.6315C103.469 10.5611 103.271 10.4453 103.105 10.2919C102.939 10.1385 102.808 9.95118 102.721 9.74284L102.625 9.51968V9.49179C102.557 9.29254 102.356 9.29254 102.288 9.49179C102.229 9.6532 102.154 9.80812 102.063 9.95404L102.035 9.99389C101.953 10.1149 101.858 10.2259 101.75 10.3246C101.703 10.3688 101.652 10.4088 101.597 10.4442C101.473 10.5199 101.338 10.575 101.196 10.6076C101.125 10.6156 101.054 10.6156 100.983 10.6076C100.892 10.6083 100.801 10.5948 100.714 10.5677C100.594 10.54 100.48 10.4914 100.377 10.4243C100.189 10.2883 100.028 10.1179 99.9035 9.92216C99.8754 9.87434 99.8473 9.82652 99.8192 9.77074L99.775 9.69502C99.7429 9.62329 99.7148 9.54758 99.6867 9.47187V9.44397C99.6185 9.24472 99.4178 9.24472 99.3495 9.44397C99.3477 9.44839 99.3467 9.45313 99.3467 9.45792C99.3467 9.46271 99.3477 9.46745 99.3495 9.47187C99.3214 9.54758 99.2893 9.62329 99.2572 9.69502C99.2448 9.71903 99.2301 9.74173 99.2131 9.76277C99.189 9.81793 99.1609 9.87121 99.1288 9.92216C99.1284 9.92925 99.1259 9.93605 99.1216 9.94173C99.1173 9.9474 99.1114 9.95169 99.1047 9.95404C99.057 10.0251 99.0047 10.093 98.9481 10.1573C98.86 10.2575 98.7603 10.3471 98.6511 10.4243C98.5499 10.4921 98.4369 10.5408 98.3179 10.5677C98.1424 10.6195 97.9555 10.6195 97.78 10.5677C97.6785 10.5435 97.5811 10.5046 97.491 10.4522L97.3344 10.3406L97.2662 10.2848C97.2365 10.2599 97.2095 10.2318 97.1859 10.2011C97.1578 10.1692 97.1257 10.1493 97.0976 10.1134C97.0695 10.0776 97.0173 10.0098 96.9812 9.95404L96.9531 9.91419C96.936 9.89037 96.9212 9.86502 96.9089 9.83848C96.8356 9.71079 96.7725 9.57754 96.7203 9.43999C96.648 9.23675 96.4593 9.23675 96.3831 9.43999C96.3391 9.55905 96.2868 9.6749 96.2265 9.78667C96.1708 9.88892 96.1063 9.98625 96.0338 10.0776C95.9819 10.1424 95.9256 10.2036 95.8652 10.2609C95.8653 10.2676 95.8629 10.2742 95.8585 10.2793C95.854 10.2845 95.8479 10.2878 95.8411 10.2888C95.7925 10.333 95.7401 10.373 95.6846 10.4083V10.4282C95.5816 10.4954 95.4674 10.5439 95.3474 10.5717C95.2604 10.5988 95.1696 10.6123 95.0785 10.6116C94.9919 10.611 94.9056 10.6003 94.8215 10.5797C94.6069 10.5075 94.41 10.3909 94.244 10.2378C94.0779 10.0846 93.9464 9.89827 93.8581 9.69104C93.826 9.61931 93.7939 9.54359 93.7658 9.46788V9.43999C93.6936 9.24074 93.4969 9.24074 93.4246 9.43999C93.3647 9.60152 93.288 9.75643 93.1958 9.90224L93.1677 9.94209C93.0864 10.0621 92.9922 10.173 92.8867 10.2728C92.8381 10.317 92.7857 10.357 92.7302 10.3924V10.4123C92.6061 10.488 92.4706 10.5432 92.3287 10.5757C92.2588 10.5904 92.1874 10.5971 92.116 10.5956C92.0248 10.5963 91.934 10.5829 91.847 10.5558C91.7258 10.5281 91.6103 10.4795 91.5058 10.4123C91.2994 10.2955 91.1192 10.1382 90.976 9.95006C90.9479 9.90224 90.9198 9.85442 90.8917 9.79863C90.8636 9.74284 90.8636 9.75081 90.8515 9.72292C90.8166 9.65028 90.7858 9.57578 90.7592 9.49976V9.47187C90.6869 9.27262 90.4902 9.27262 90.418 9.47187V9.49976C90.3899 9.57547 90.3538 9.65119 90.3216 9.72292C90.3105 9.74676 90.2971 9.76945 90.2815 9.79066C90.2575 9.84582 90.2293 9.8991 90.1972 9.95006C90.186 9.95786 90.1775 9.96903 90.1731 9.98194C90.1255 10.053 90.0732 10.1209 90.0166 10.1852C89.9284 10.2854 89.8287 10.375 89.7195 10.4522C89.6165 10.5193 89.5024 10.5679 89.3823 10.5956C89.2068 10.6474 89.0199 10.6474 88.8444 10.5956C88.7431 10.5707 88.6459 10.5318 88.5554 10.4801L88.4029 10.3685L88.3306 10.3127L88.2503 10.229C88.2222 10.1971 88.1941 10.1772 88.166 10.1413C88.1228 10.0916 88.0838 10.0382 88.0496 9.98194L88.0215 9.94209C88.0045 9.91827 87.9897 9.89292 87.9774 9.86637C87.9008 9.74035 87.8376 9.60681 87.7887 9.46788C87.7124 9.26465 87.5238 9.26465 87.4475 9.46788C87.4066 9.58753 87.3556 9.70351 87.295 9.81457C87.2378 9.91691 87.172 10.0142 87.0983 10.1055C87.0463 10.1703 86.99 10.2315 86.9297 10.2888C86.9297 10.2955 86.9273 10.3021 86.9229 10.3072C86.9185 10.3123 86.9123 10.3157 86.9056 10.3167C86.8569 10.3609 86.8046 10.4009 86.749 10.4362C86.6446 10.5034 86.5291 10.552 86.4078 10.5797C86.3208 10.6068 86.2301 10.6202 86.1389 10.6195C86.0062 10.6434 85.8702 10.6434 85.7375 10.6195C85.5218 10.5492 85.3241 10.4333 85.1578 10.2799C84.9915 10.1265 84.8606 9.93923 84.7741 9.73089C84.7419 9.65916 84.7098 9.58344 84.6817 9.50773V9.47984C84.6135 9.28059 84.4128 9.28059 84.3445 9.47984C84.2964 9.64388 84.2318 9.80274 84.1519 9.95404L84.1238 9.99389C84.0421 10.1149 83.9465 10.2259 83.8388 10.3246C83.7915 10.3688 83.7404 10.4088 83.6862 10.4442H83.6661C83.5421 10.5199 83.4066 10.575 83.2647 10.6076C83.194 10.6156 83.1227 10.6156 83.052 10.6076C82.9405 10.6076 82.8296 10.5915 82.7228 10.5598C82.0565 10.3326 81.5587 9.4639 81.5587 8.42383H81.1573C81.3299 9.61931 81.4824 10.8148 81.6229 11.9585C82.482 19.1553 82.6024 25.5511 81.1573 30.2892C80.0665 34.4715 79.5267 38.7766 79.5516 43.0967V47.8507C79.5412 49.3082 79.7385 50.7598 80.1377 52.1624C81.2857 56.1872 84.0073 59.0205 87.1826 59.0205H108.59C108.815 59.0205 108.108 54.0633 108.108 54.0633C108.108 54.0633 107.976 52.8997 107.916 52.3179C107.888 52.0788 107.864 51.8437 107.84 51.6046L107.731 50.5206C107.703 50.2656 107.679 50.0026 107.659 49.7516C107.627 49.4049 107.595 49.0582 107.563 48.7234C107.542 48.4604 107.518 48.1974 107.502 47.9265C107.474 47.5877 107.446 47.249 107.422 46.9183C107.402 46.6513 107.382 46.3883 107.37 46.1213C107.346 45.7945 107.326 45.4638 107.302 45.133C107.302 44.866 107.274 44.5951 107.261 44.336C107.261 44.0093 107.233 43.6865 107.217 43.3637C107.201 43.0409 107.193 42.8257 107.189 42.5667C107.185 42.3077 107.165 41.9291 107.161 41.6103C107.157 41.2915 107.161 41.0724 107.161 40.8134V37.3305C107.161 37.0635 107.185 36.7049 107.201 36.3941C107.217 36.0832 107.225 35.876 107.237 35.5971C107.249 35.3181 107.282 34.9675 107.302 34.6606C107.322 34.3538 107.338 34.1506 107.358 33.8915C107.378 33.6325 107.434 33.2659 107.434 32.9471C107.462 32.696 107.486 32.449 107.51 32.2059C107.546 31.8831 107.591 31.5683 107.631 31.2495C107.667 31.0104 107.695 30.7753 107.727 30.5402C107.779 30.2015 107.832 29.8787 107.888 29.548C107.924 29.3288 107.956 29.1056 107.996 28.8865C108.06 28.5198 108.137 28.1612 108.213 27.8065L108.321 27.2606C108.438 26.7147 108.566 26.1847 108.703 25.6666C108.795 25.4355 108.879 25.1924 108.959 24.9454C108.966 24.8869 108.984 24.8301 109.012 24.778C109.152 24.3237 109.289 23.8535 109.413 23.3673C109.697 22.1777 109.888 20.9679 109.983 19.749C110.015 19.4262 110.035 19.0955 110.051 18.7568C110.169 15.2878 109.714 11.8231 108.707 8.49954L108.735 8.46766ZM102.18 26.5035C102.184 26.662 102.175 26.8207 102.151 26.9777C102.102 27.5643 102.008 28.1464 101.87 28.7191C101.814 28.9542 101.75 29.1813 101.678 29.4045C101.674 29.4309 101.666 29.4565 101.654 29.4802C101.618 29.6037 101.573 29.7193 101.533 29.8309C101.465 30.0859 101.405 30.341 101.349 30.6C101.329 30.6916 101.312 30.7793 101.296 30.863C101.26 31.0343 101.22 31.2137 101.192 31.385C101.183 31.4928 101.165 31.5995 101.136 31.7038C101.116 31.8074 101.084 32.0226 101.06 32.178C101.035 32.3334 101.031 32.4051 101.015 32.5247C100.999 32.6442 100.975 32.8355 100.959 32.9869C100.943 33.1384 100.935 33.226 100.919 33.3456C100.903 33.4651 100.891 33.6484 100.879 33.7999C100.88 33.9213 100.87 34.0426 100.851 34.1625C100.823 34.2781 100.851 34.4693 100.819 34.6208C100.803 34.7438 100.803 34.8683 100.819 34.9914V38.4025C100.815 38.5583 100.823 38.7141 100.843 38.8687C100.855 39.0013 100.855 39.1346 100.843 39.2672C100.838 39.4258 100.847 39.5845 100.871 39.7414C100.899 39.8968 100.871 39.9964 100.899 40.1399C100.927 40.2834 100.899 40.4667 100.935 40.63C100.971 40.7934 100.935 40.8851 100.963 41.0285L101.011 41.5267C101.011 41.6502 101.035 41.7737 101.044 41.8973C101.052 42.0208 101.08 42.2439 101.1 42.4153C101.12 42.5867 101.124 42.6504 101.132 42.766C101.168 43.0409 101.196 43.3239 101.228 43.6028C101.273 43.9271 101.199 44.2567 101.019 44.5313C100.84 44.7857 100.63 45.0173 100.393 45.2207C100.393 45.2207 100.365 45.2566 100.349 45.2605C100.307 45.2894 100.268 45.3228 100.233 45.3602C100.216 45.3803 100.196 45.3966 100.172 45.408L99.8955 45.5913L99.8353 45.6192C99.7593 45.6658 99.6802 45.7071 99.5984 45.7427C99.5765 45.7586 99.5521 45.7707 99.5262 45.7786L99.2211 45.8902H99.1809C99.092 45.9193 99.0007 45.9406 98.908 45.9539C98.88 45.9499 98.8516 45.9499 98.8237 45.9539C98.7168 45.9619 98.6094 45.9619 98.5026 45.9539H91.1526C89.6232 45.9539 88.3065 44.5871 87.7566 42.6464C87.5639 41.9738 87.4679 41.2775 87.4716 40.5782V38.267C87.4553 36.1851 87.7131 34.11 88.2383 32.0943C88.9327 29.8189 88.8725 26.7306 88.4631 23.2637C88.3989 22.7058 88.3226 22.14 88.2383 21.5621H88.427C88.4055 21.7669 88.4456 21.9733 88.542 22.1555C88.6384 22.3377 88.7869 22.4876 88.9689 22.5863C89.0198 22.6013 89.0724 22.6107 89.1254 22.6142H89.2298C89.2971 22.6016 89.3612 22.5758 89.4185 22.5385L89.4947 22.4747C89.5496 22.4303 89.5959 22.3762 89.6312 22.3153C89.6753 22.2464 89.7116 22.1729 89.7396 22.0961C89.7717 22.0005 89.8681 22.0005 89.9002 22.0961C89.9124 22.1317 89.9272 22.1663 89.9443 22.1997C89.994 22.3004 90.0661 22.3886 90.1551 22.4576C90.2441 22.5266 90.3477 22.5747 90.4581 22.5982C90.4976 22.6142 90.5399 22.6224 90.5826 22.6221C90.6265 22.6223 90.6701 22.6142 90.711 22.5982C90.7689 22.5876 90.8237 22.5645 90.8716 22.5305L90.9519 22.4667C90.9837 22.4425 91.0109 22.4128 91.0322 22.3791C91.0679 22.3351 91.1001 22.2885 91.1285 22.2396C91.1566 22.1838 91.1767 22.136 91.2008 22.0762C91.2062 22.0593 91.2169 22.0446 91.2313 22.0341C91.2458 22.0237 91.2632 22.018 91.281 22.018C91.2989 22.018 91.3163 22.0237 91.3307 22.0341C91.3452 22.0446 91.3559 22.0593 91.3613 22.0762C91.3853 22.1437 91.4177 22.2079 91.4577 22.2675C91.4628 22.2802 91.4696 22.2923 91.4777 22.3033V22.3233C91.4942 22.3501 91.513 22.3755 91.5339 22.399L91.5741 22.4428L91.6142 22.4827C91.623 22.494 91.6339 22.5035 91.6463 22.5106L91.7226 22.5664C91.767 22.5894 91.8143 22.6068 91.8631 22.6182C91.9457 22.6502 92.0374 22.6502 92.12 22.6182C92.1788 22.6064 92.2347 22.5834 92.2846 22.5504C92.3369 22.5143 92.3842 22.4714 92.4251 22.4229C92.4492 22.391 92.4773 22.3631 92.5014 22.3273C92.5343 22.2845 92.5613 22.2376 92.5816 22.1878V22.1519C92.6017 22.1194 92.6179 22.0846 92.6298 22.0483C92.6619 21.9527 92.7542 21.9527 92.7944 22.0483C92.8066 22.0838 92.8214 22.1185 92.8385 22.1519V22.1878C92.8509 22.2118 92.8657 22.2345 92.8827 22.2555C92.9409 22.3516 93.0189 22.4345 93.1115 22.4986C93.1614 22.5316 93.2173 22.5546 93.2761 22.5664C93.312 22.572 93.3486 22.572 93.3845 22.5664H93.4888C93.5562 22.5538 93.6203 22.528 93.6775 22.4906L93.7498 22.4269C93.8059 22.3826 93.8535 22.3286 93.8903 22.2675C93.9343 22.1986 93.9707 22.1251 93.9986 22.0483C94.0348 21.9527 94.1311 21.9527 94.1632 22.0483C94.1752 22.0846 94.1913 22.1194 94.2114 22.1519C94.2603 22.2664 94.338 22.3665 94.4372 22.4426C94.5363 22.5186 94.6534 22.5681 94.7774 22.5863C94.8169 22.6023 94.8592 22.6104 94.9018 22.6102C94.9458 22.6103 94.9894 22.6022 95.0303 22.5863C95.0891 22.5745 95.145 22.5515 95.1949 22.5185L95.2711 22.4548C95.3021 22.4297 95.3292 22.4001 95.3514 22.3671C95.3881 22.3247 95.4191 22.2779 95.4437 22.2276C95.4719 22.175 95.496 22.1204 95.516 22.0642C95.5561 21.9686 95.6485 21.9686 95.6846 22.0642C95.7075 22.1308 95.7371 22.1949 95.7729 22.2555C95.7762 22.27 95.7847 22.2828 95.797 22.2914V22.3113C95.8134 22.3382 95.8322 22.3635 95.8532 22.387L95.8933 22.4309L95.9295 22.4707L95.9696 22.4986L96.0419 22.5544C96.0917 22.5692 96.1427 22.5799 96.1944 22.5863C96.2369 22.6016 96.2817 22.6097 96.3269 22.6102C96.3708 22.6103 96.4144 22.6022 96.4553 22.5863C96.5126 22.5738 96.5671 22.5508 96.6159 22.5185C96.6682 22.4824 96.7155 22.4396 96.7564 22.391C96.7861 22.3628 96.8118 22.3306 96.8326 22.2954V22.2755C96.8484 22.2515 96.8618 22.2262 96.8728 22.1997C96.881 22.1887 96.8877 22.1766 96.8929 22.1639C96.9017 22.1271 96.9166 22.0921 96.937 22.0603C96.9732 21.9646 97.0695 21.9646 97.1016 22.0603C97.1135 22.0965 97.1297 22.1313 97.1498 22.1639V22.2077L97.1899 22.2755C97.2503 22.3712 97.3295 22.4539 97.4227 22.5185C97.4716 22.5508 97.526 22.5738 97.5833 22.5863C97.6258 22.6016 97.6706 22.6097 97.7158 22.6102H97.8001C97.8692 22.5951 97.9355 22.5696 97.9968 22.5345L98.073 22.4707C98.1248 22.4232 98.1707 22.3697 98.2095 22.3113V22.2914C98.2549 22.2226 98.2925 22.1491 98.3219 22.0722C98.358 21.9766 98.4504 21.9766 98.4865 22.0722L98.5266 22.1758C98.5802 22.2829 98.6595 22.3752 98.7575 22.4447C98.8555 22.5142 98.9692 22.5587 99.0886 22.5743C99.1267 22.5902 99.1677 22.5983 99.209 22.5982C99.3606 22.5791 99.5028 22.5148 99.6168 22.4138C99.7307 22.3127 99.8111 22.1797 99.8473 22.0324C99.8515 22.0151 99.8599 21.9992 99.8719 21.986C99.8838 21.9728 99.8988 21.9627 99.9155 21.9567C99.9344 21.9547 99.9534 21.9592 99.9695 21.9693C99.9855 21.9794 99.9976 21.9946 100.004 22.0124C100.249 22.1831 100.478 22.3766 100.686 22.5903C101.068 22.5903 101.365 22.1081 101.365 21.5422H101.521C102.004 23.1439 102.222 24.8126 102.167 26.4835" fill="#333333" fill-opacity="0.7"/>
</svg>
