<svg width="88" height="127" viewBox="0 0 88 127" fill="none" xmlns="http://www.w3.org/2000/svg">
<mask id="path-1-inside-1" fill="white">
<path d="M43.6692 21.1192C43.4393 21.1192 43.2094 21.0256 43.0623 20.8469C42.7864 20.532 42.8508 20.081 43.1818 19.8342C44.2578 19.0513 43.3014 15.2812 42.5197 12.2516C41.3611 7.68161 40.1472 2.94142 42.6209 0.907473C44.0738 -0.292467 46.5108 -0.300977 50.0512 0.873432C50.4558 1.01811 50.6673 1.4266 50.5294 1.80105C50.373 2.1755 49.9316 2.36272 49.5362 2.23507C46.6119 1.25639 44.6348 1.1798 43.66 1.98827C41.8852 3.45203 43.0255 7.96244 44.0463 11.9367C45.0946 16.0642 46.005 19.6214 44.1566 20.9746C44.0095 21.0767 43.844 21.1192 43.6692 21.1192Z"/>
</mask>
<path d="M43.6692 21.1192C43.4393 21.1192 43.2094 21.0256 43.0623 20.8469C42.7864 20.532 42.8508 20.081 43.1818 19.8342C44.2578 19.0513 43.3014 15.2812 42.5197 12.2516C41.3611 7.68161 40.1472 2.94142 42.6209 0.907473C44.0738 -0.292467 46.5108 -0.300977 50.0512 0.873432C50.4558 1.01811 50.6673 1.4266 50.5294 1.80105C50.373 2.1755 49.9316 2.36272 49.5362 2.23507C46.6119 1.25639 44.6348 1.1798 43.66 1.98827C41.8852 3.45203 43.0255 7.96244 44.0463 11.9367C45.0946 16.0642 46.005 19.6214 44.1566 20.9746C44.0095 21.0767 43.844 21.1192 43.6692 21.1192Z" fill="#BDAF83" stroke="black" mask="url(#path-1-inside-1)"/>
<mask id="path-2-inside-2" fill="white">
<path d="M62.5442 31.4423C62.25 31.4423 61.9649 31.2892 61.8361 31.0083C61.6614 30.6509 61.8361 30.2254 62.2408 30.0637C62.8845 29.7999 61.8545 26.4383 61.2476 24.4299C61.1372 24.0469 61.3763 23.6554 61.7902 23.5448C62.204 23.4427 62.6362 23.6639 62.7466 24.0384C63.9053 27.851 64.7329 30.6168 62.8661 31.3828C62.7557 31.4253 62.6454 31.4423 62.5442 31.4423Z"/>
</mask>
<path d="M62.5442 31.4423C62.25 31.4423 61.9649 31.2892 61.8361 31.0083C61.6614 30.6509 61.8361 30.2254 62.2408 30.0637C62.8845 29.7999 61.8545 26.4383 61.2476 24.4299C61.1372 24.0469 61.3763 23.6554 61.7902 23.5448C62.204 23.4427 62.6362 23.6639 62.7466 24.0384C63.9053 27.851 64.7329 30.6168 62.8661 31.3828C62.7557 31.4253 62.6454 31.4423 62.5442 31.4423Z" fill="#BDAF83" stroke="black" mask="url(#path-2-inside-2)"/>
<mask id="path-3-inside-3" fill="white">
<path d="M26.4628 81.0992L84.6272 110.042L81.335 37.995L23.1615 6.92419L21.1016 28.9741L26.4628 81.0992Z"/>
</mask>
<path d="M26.4628 81.0992L84.6272 110.042L81.335 37.995L23.1615 6.92419L21.1016 28.9741L26.4628 81.0992Z" fill="#BA6000" stroke="black" mask="url(#path-3-inside-3)"/>
<mask id="path-4-inside-4" fill="white">
<path d="M44.7846 22.2511C44.7846 23.051 44.3524 23.4765 43.8191 23.1872C43.2857 22.9063 42.8535 22.0128 42.8535 21.2129C42.8535 20.413 43.2857 19.996 43.8191 20.2854C44.3524 20.5747 44.7846 21.4512 44.7846 22.2511Z"/>
</mask>
<path d="M44.7846 22.2511C44.7846 23.051 44.3524 23.4765 43.8191 23.1872C43.2857 22.9063 42.8535 22.0128 42.8535 21.2129C42.8535 20.413 43.2857 19.996 43.8191 20.2854C44.3524 20.5747 44.7846 21.4512 44.7846 22.2511Z" fill="#3C2415" stroke="black" mask="url(#path-4-inside-4)"/>
<mask id="path-5-inside-5" fill="white">
<path d="M63.5518 32.3271C63.5426 33.1271 63.1196 33.5526 62.577 33.2633C62.0436 32.9739 61.6113 32.0888 61.6113 31.2974C61.6113 30.4974 62.0436 30.0804 62.577 30.3697C63.1196 30.6421 63.5518 31.5271 63.5518 32.3271Z"/>
</mask>
<path d="M63.5518 32.3271C63.5426 33.1271 63.1196 33.5526 62.577 33.2633C62.0436 32.9739 61.6113 32.0888 61.6113 31.2974C61.6113 30.4974 62.0436 30.0804 62.577 30.3697C63.1196 30.6421 63.5518 31.5271 63.5518 32.3271Z" fill="#3C2415" stroke="black" mask="url(#path-5-inside-5)"/>
<mask id="path-6-inside-6" fill="white">
<path d="M0 95.3624L19.9185 78.3845L23.1647 6.92419L19.9185 13.5111L5.84865 15.8514L14.3917 29.4337L12.2215 72.6486L0 95.3624Z"/>
</mask>
<path d="M0 95.3624L19.9185 78.3845L23.1647 6.92419L19.9185 13.5111L5.84865 15.8514L14.3917 29.4337L12.2215 72.6486L0 95.3624Z" fill="#9C251F" stroke="black" mask="url(#path-6-inside-6)"/>
<mask id="path-7-inside-7" fill="white">
<path d="M17.0207 43.5017L19.9174 13.5117L5.84766 15.852L10.3537 36.4723L17.0207 43.5017Z"/>
</mask>
<path d="M17.0207 43.5017L19.9174 13.5117L5.84766 15.852L10.3537 36.4723L17.0207 43.5017Z" fill="#E31B25" stroke="black" mask="url(#path-7-inside-7)"/>
<mask id="path-8-inside-8" fill="white">
<path d="M58.1094 126.425L68.6295 115.863L87.1869 110.893L72.97 84.1288L64.804 86.6479L58.1094 126.425Z"/>
</mask>
<path d="M58.1094 126.425L68.6295 115.863L87.1869 110.893L72.97 84.1288L64.804 86.6479L58.1094 126.425Z" fill="#FF3F4A" stroke="black" mask="url(#path-8-inside-8)"/>
<mask id="path-9-inside-9" fill="white">
<path d="M58.1088 126.425L66.4036 108.689L69.2175 101.685L70.8544 45.3732L68.7393 39.5947L63.9574 46.871L57.0421 57.1428L51.2578 114.561L58.1088 126.425Z"/>
</mask>
<path d="M58.1088 126.425L66.4036 108.689L69.2175 101.685L70.8544 45.3732L68.7393 39.5947L63.9574 46.871L57.0421 57.1428L51.2578 114.561L58.1088 126.425Z" fill="#9C251F" stroke="black" mask="url(#path-9-inside-9)"/>
<mask id="path-10-inside-10" fill="white">
<path d="M66.4004 108.69L87.1832 110.894L81.3346 37.9954L68.7362 39.5953L66.4004 108.69Z"/>
</mask>
<path d="M66.4004 108.69L87.1832 110.894L81.3346 37.9954L68.7362 39.5953L66.4004 108.69Z" fill="#E31B25" stroke="black" mask="url(#path-10-inside-10)"/>
<mask id="path-11-inside-11" fill="white">
<path d="M0 95.363L58.1092 126.425L63.9579 46.8718L5.84863 15.8521L0 95.363Z"/>
</mask>
<path d="M0 95.363L58.1092 126.425L63.9579 46.8718L5.84863 15.8521L0 95.363Z" fill="#FF9D26" stroke="black" mask="url(#path-11-inside-11)"/>
<mask id="path-12-inside-12" fill="white">
<path d="M26.8611 31.2468C26.8427 32.0808 26.2818 32.7532 25.6013 32.7447C24.9208 32.7276 24.3874 32.0383 24.3966 31.2042C24.415 30.3702 24.9851 29.6979 25.6657 29.7064C26.3462 29.7234 26.8795 30.4128 26.8611 31.2468Z"/>
</mask>
<path d="M26.8611 31.2468C26.8427 32.0808 26.2818 32.7532 25.6013 32.7447C24.9208 32.7276 24.3874 32.0383 24.3966 31.2042C24.415 30.3702 24.9851 29.6979 25.6657 29.7064C26.3462 29.7234 26.8795 30.4128 26.8611 31.2468Z" fill="#3C2415" stroke="black" mask="url(#path-12-inside-12)"/>
<mask id="path-13-inside-13" fill="white">
<path d="M25.555 31.9445C25.417 31.9445 25.2883 31.919 25.1687 31.8509C22.226 30.2765 22.787 19.2812 26.1527 12.5581C29.3069 6.26908 34.3647 3.90323 40.3972 5.91165C40.8018 6.05632 41.0133 6.4563 40.8662 6.83927C40.7099 7.21372 40.2685 7.40094 39.873 7.27329C33.2428 5.06062 29.5184 9.26468 27.5597 13.1709C23.9181 20.4301 24.4515 29.8084 25.9412 30.6084C26.2998 30.8041 26.4286 31.2466 26.2171 31.5871C26.0791 31.8168 25.8125 31.9445 25.555 31.9445Z"/>
</mask>
<path d="M25.555 31.9445C25.417 31.9445 25.2883 31.919 25.1687 31.8509C22.226 30.2765 22.787 19.2812 26.1527 12.5581C29.3069 6.26908 34.3647 3.90323 40.3972 5.91165C40.8018 6.05632 41.0133 6.4563 40.8662 6.83927C40.7099 7.21372 40.2685 7.40094 39.873 7.27329C33.2428 5.06062 29.5184 9.26468 27.5597 13.1709C23.9181 20.4301 24.4515 29.8084 25.9412 30.6084C26.2998 30.8041 26.4286 31.2466 26.2171 31.5871C26.0791 31.8168 25.8125 31.9445 25.555 31.9445Z" fill="#E6DAB0" stroke="black" mask="url(#path-13-inside-13)"/>
<mask id="path-14-inside-14" fill="white">
<path d="M44.9845 40.8036C45.0121 41.646 44.4879 42.3438 43.8074 42.3608C43.1269 42.3778 42.5567 41.7141 42.5291 40.8717C42.4924 40.0378 43.0257 39.34 43.7062 39.323C44.3867 39.2975 44.9569 39.9612 44.9845 40.8036Z"/>
</mask>
<path d="M44.9845 40.8036C45.0121 41.646 44.4879 42.3438 43.8074 42.3608C43.1269 42.3778 42.5567 41.7141 42.5291 40.8717C42.4924 40.0378 43.0257 39.34 43.7062 39.323C44.3867 39.2975 44.9569 39.9612 44.9845 40.8036Z" fill="#3C2415" stroke="black" mask="url(#path-14-inside-14)"/>
<mask id="path-15-inside-15" fill="white">
<path d="M43.5787 41.5695C43.3763 41.5695 43.174 41.5099 43.0177 41.3737C42.0613 40.5823 42.5395 38.6674 43.8361 34.0123C46.2087 25.468 50.1997 11.1622 39.8359 7.256C39.4405 7.11132 39.2474 6.68581 39.4129 6.31987C39.5784 5.95392 40.029 5.7667 40.4336 5.92839C52.0481 10.3027 47.8548 25.3744 45.3443 34.3783C44.6362 36.9313 43.8361 39.8078 44.112 40.3695C44.4339 40.6333 44.4339 41.0588 44.1488 41.3567C43.9925 41.4929 43.7902 41.5695 43.5787 41.5695Z"/>
</mask>
<path d="M43.5787 41.5695C43.3763 41.5695 43.174 41.5099 43.0177 41.3737C42.0613 40.5823 42.5395 38.6674 43.8361 34.0123C46.2087 25.468 50.1997 11.1622 39.8359 7.256C39.4405 7.11132 39.2474 6.68581 39.4129 6.31987C39.5784 5.95392 40.029 5.7667 40.4336 5.92839C52.0481 10.3027 47.8548 25.3744 45.3443 34.3783C44.6362 36.9313 43.8361 39.8078 44.112 40.3695C44.4339 40.6333 44.4339 41.0588 44.1488 41.3567C43.9925 41.4929 43.7902 41.5695 43.5787 41.5695Z" fill="#E6DAB0" stroke="black" mask="url(#path-15-inside-15)"/>
<mask id="path-16-inside-16" fill="white">
<path d="M61.9798 24.9574C61.6396 24.9574 61.3269 24.7531 61.2257 24.4297L61.1614 24.217C60.2234 21.1193 59.0555 17.2641 58.7796 13.3664C58.3382 6.93272 55.2668 3.19673 49.6572 2.26061C49.2342 2.19253 48.9491 1.81808 49.0319 1.42661C49.1055 1.02662 49.5193 0.779829 49.9331 0.8394C56.3335 1.91169 59.8372 6.09021 60.3429 13.2728C60.6096 17.0258 61.7499 20.7874 62.6695 23.834L62.7339 24.0383C62.8534 24.4212 62.6143 24.8212 62.1913 24.9318C62.1269 24.9489 62.0534 24.9574 61.9798 24.9574Z"/>
</mask>
<path d="M61.9798 24.9574C61.6396 24.9574 61.3269 24.7531 61.2257 24.4297L61.1614 24.217C60.2234 21.1193 59.0555 17.2641 58.7796 13.3664C58.3382 6.93272 55.2668 3.19673 49.6572 2.26061C49.2342 2.19253 48.9491 1.81808 49.0319 1.42661C49.1055 1.02662 49.5193 0.779829 49.9331 0.8394C56.3335 1.91169 59.8372 6.09021 60.3429 13.2728C60.6096 17.0258 61.7499 20.7874 62.6695 23.834L62.7339 24.0383C62.8534 24.4212 62.6143 24.8212 62.1913 24.9318C62.1269 24.9489 62.0534 24.9574 61.9798 24.9574Z" fill="#BDAF83" stroke="black" mask="url(#path-16-inside-16)"/>
</svg>
