<svg width="88" height="127" viewBox="0 0 88 127" fill="none" xmlns="http://www.w3.org/2000/svg">
<mask id="path-1-inside-1" fill="white">
<path d="M43.5163 21.1192C43.7462 21.1192 43.9761 21.0256 44.1232 20.8469C44.3991 20.532 44.3347 20.081 44.0037 19.8342C42.9277 19.0513 43.8841 15.2812 44.6658 12.2516C45.8245 7.68161 47.0384 2.94142 44.5646 0.907473C43.1117 -0.292467 40.6747 -0.300977 37.1343 0.873432C36.7297 1.01811 36.5181 1.4266 36.6561 1.80105C36.8124 2.1755 37.2538 2.36272 37.6493 2.23507C40.5736 1.25639 42.5507 1.1798 43.5255 1.98827C45.3003 3.45203 44.16 7.96244 43.1393 11.9367C42.0909 16.0642 41.1805 19.6214 43.0289 20.9746C43.176 21.0767 43.3416 21.1192 43.5163 21.1192Z"/>
</mask>
<path d="M43.5163 21.1192C43.7462 21.1192 43.9761 21.0256 44.1232 20.8469C44.3991 20.532 44.3347 20.081 44.0037 19.8342C42.9277 19.0513 43.8841 15.2812 44.6658 12.2516C45.8245 7.68161 47.0384 2.94142 44.5646 0.907473C43.1117 -0.292467 40.6747 -0.300977 37.1343 0.873432C36.7297 1.01811 36.5181 1.4266 36.6561 1.80105C36.8124 2.1755 37.2538 2.36272 37.6493 2.23507C40.5736 1.25639 42.5507 1.1798 43.5255 1.98827C45.3003 3.45203 44.16 7.96244 43.1393 11.9367C42.0909 16.0642 41.1805 19.6214 43.0289 20.9746C43.176 21.0767 43.3416 21.1192 43.5163 21.1192Z" fill="#BDAF83" stroke="black" mask="url(#path-1-inside-1)"/>
<mask id="path-2-inside-2" fill="white">
<path d="M24.6453 31.4419C24.9395 31.4419 25.2246 31.2887 25.3534 31.0079C25.5281 30.6505 25.3533 30.225 24.9487 30.0633C24.305 29.7995 25.335 26.4381 25.9419 24.4298C26.0522 24.0469 25.8131 23.6554 25.3993 23.5448C24.9855 23.4427 24.5533 23.6639 24.443 24.0384C23.2843 27.8508 22.4567 30.6165 24.3234 31.3824C24.4338 31.4249 24.5441 31.4419 24.6453 31.4419Z"/>
</mask>
<path d="M24.6453 31.4419C24.9395 31.4419 25.2246 31.2887 25.3534 31.0079C25.5281 30.6505 25.3533 30.225 24.9487 30.0633C24.305 29.7995 25.335 26.4381 25.9419 24.4298C26.0522 24.0469 25.8131 23.6554 25.3993 23.5448C24.9855 23.4427 24.5533 23.6639 24.443 24.0384C23.2843 27.8508 22.4567 30.6165 24.3234 31.3824C24.4338 31.4249 24.5441 31.4419 24.6453 31.4419Z" fill="#BDAF83" stroke="black" mask="url(#path-2-inside-2)"/>
<mask id="path-3-inside-3" fill="white">
<path d="M60.7247 81.0992L2.56033 110.042L5.85249 37.995L64.026 6.92419L66.0859 28.9741L60.7247 81.0992Z"/>
</mask>
<path d="M60.7247 81.0992L2.56033 110.042L5.85249 37.995L64.026 6.92419L66.0859 28.9741L60.7247 81.0992Z" fill="#BA6000" stroke="black" mask="url(#path-3-inside-3)"/>
<mask id="path-4-inside-4" fill="white">
<path d="M42.4048 22.2511C42.4048 23.051 42.837 23.4765 43.3704 23.1872C43.9037 22.9063 44.3359 22.0128 44.3359 21.2129C44.3359 20.413 43.9037 19.996 43.3704 20.2854C42.837 20.5747 42.4048 21.4512 42.4048 22.2511Z"/>
</mask>
<path d="M42.4048 22.2511C42.4048 23.051 42.837 23.4765 43.3704 23.1872C43.9037 22.9063 44.3359 22.0128 44.3359 21.2129C44.3359 20.413 43.9037 19.996 43.3704 20.2854C42.837 20.5747 42.4048 21.4512 42.4048 22.2511Z" fill="#3C2415" stroke="black" mask="url(#path-4-inside-4)"/>
<mask id="path-5-inside-5" fill="white">
<path d="M23.6358 32.3271C23.645 33.1271 24.068 33.5526 24.6106 33.2633C25.144 32.9739 25.5762 32.0888 25.5762 31.2974C25.5762 30.4974 25.144 30.0804 24.6106 30.3697C24.068 30.6421 23.6358 31.5271 23.6358 32.3271Z"/>
</mask>
<path d="M23.6358 32.3271C23.645 33.1271 24.068 33.5526 24.6106 33.2633C25.144 32.9739 25.5762 32.0888 25.5762 31.2974C25.5762 30.4974 25.144 30.0804 24.6106 30.3697C24.068 30.6421 23.6358 31.5271 23.6358 32.3271Z" fill="#3C2415" stroke="black" mask="url(#path-5-inside-5)"/>
<mask id="path-6-inside-6" fill="white">
<path d="M87.1895 95.3624L67.271 78.3845L64.0249 6.92419L67.271 13.5111L81.3408 15.8514L72.7978 29.4337L74.968 72.6486L87.1895 95.3624Z"/>
</mask>
<path d="M87.1895 95.3624L67.271 78.3845L64.0249 6.92419L67.271 13.5111L81.3408 15.8514L72.7978 29.4337L74.968 72.6486L87.1895 95.3624Z" fill="#9C251F" stroke="black" mask="url(#path-6-inside-6)"/>
<mask id="path-7-inside-7" fill="white">
<path d="M70.1648 43.5017L67.268 13.5117L81.3379 15.852L76.8319 36.4723L70.1648 43.5017Z"/>
</mask>
<path d="M70.1648 43.5017L67.268 13.5117L81.3379 15.852L76.8319 36.4723L70.1648 43.5017Z" fill="#E31B25" stroke="black" mask="url(#path-7-inside-7)"/>
<mask id="path-8-inside-8" fill="white">
<path d="M29.0781 126.425L18.558 115.863L0.000577927 110.893L14.2175 84.1289L22.3835 86.6479L29.0781 126.425Z"/>
</mask>
<path d="M29.0781 126.425L18.558 115.863L0.000577927 110.893L14.2175 84.1289L22.3835 86.6479L29.0781 126.425Z" fill="#FF3F4A" stroke="black" mask="url(#path-8-inside-8)"/>
<mask id="path-9-inside-9" fill="white">
<path d="M29.0787 126.425L20.7839 108.689L17.9699 101.685L16.333 45.3732L18.4481 39.5947L23.23 46.871L30.1454 57.1428L35.9297 114.561L29.0787 126.425Z"/>
</mask>
<path d="M29.0787 126.425L20.7839 108.689L17.9699 101.685L16.333 45.3732L18.4481 39.5947L23.23 46.871L30.1454 57.1428L35.9297 114.561L29.0787 126.425Z" fill="#9C251F" stroke="black" mask="url(#path-9-inside-9)"/>
<mask id="path-10-inside-10" fill="white">
<path d="M20.7871 108.69L0.00429916 110.894L5.85291 37.9954L18.4513 39.5953L20.7871 108.69Z"/>
</mask>
<path d="M20.7871 108.69L0.00429916 110.894L5.85291 37.9954L18.4513 39.5953L20.7871 108.69Z" fill="#E31B25" stroke="black" mask="url(#path-10-inside-10)"/>
<mask id="path-11-inside-11" fill="white">
<path d="M87.1895 95.3622L29.0802 126.424L23.2316 46.8712L81.3408 15.8516L87.1895 95.3622Z"/>
</mask>
<path d="M87.1895 95.3622L29.0802 126.424L23.2316 46.8712L81.3408 15.8516L87.1895 95.3622Z" fill="#FF9D26" stroke="black" mask="url(#path-11-inside-11)"/>
<mask id="path-12-inside-12" fill="white">
<path d="M60.3284 31.2468C60.3468 32.0808 60.9078 32.7532 61.5882 32.7447C62.2687 32.7276 62.802 32.0383 62.7929 31.2042C62.7745 30.3702 62.2043 29.6979 61.5239 29.7064C60.8434 29.7234 60.31 30.4128 60.3284 31.2468Z"/>
</mask>
<path d="M60.3284 31.2468C60.3468 32.0808 60.9078 32.7532 61.5882 32.7447C62.2687 32.7276 62.802 32.0383 62.7929 31.2042C62.7745 30.3702 62.2043 29.6979 61.5239 29.7064C60.8434 29.7234 60.31 30.4128 60.3284 31.2468Z" fill="#3C2415" stroke="black" mask="url(#path-12-inside-12)"/>
<mask id="path-13-inside-13" fill="white">
<path d="M61.6325 31.9445C61.7704 31.9445 61.8992 31.919 62.0187 31.8509C64.9615 30.2765 64.4005 19.2812 61.0348 12.5581C57.8805 6.26908 52.8227 3.90323 46.7901 5.91165C46.3855 6.05632 46.1739 6.4563 46.3211 6.83927C46.4774 7.21372 46.9188 7.40094 47.3143 7.27329C53.9446 5.06062 57.669 9.26468 59.6278 13.1709C63.2694 20.4301 62.736 29.8084 61.2463 30.6084C60.8876 30.8041 60.7589 31.2466 60.9704 31.5871C61.1083 31.8168 61.375 31.9445 61.6325 31.9445Z"/>
</mask>
<path d="M61.6325 31.9445C61.7704 31.9445 61.8992 31.919 62.0187 31.8509C64.9615 30.2765 64.4005 19.2812 61.0348 12.5581C57.8805 6.26908 52.8227 3.90323 46.7901 5.91165C46.3855 6.05632 46.1739 6.4563 46.3211 6.83927C46.4774 7.21372 46.9188 7.40094 47.3143 7.27329C53.9446 5.06062 57.669 9.26468 59.6278 13.1709C63.2694 20.4301 62.736 29.8084 61.2463 30.6084C60.8876 30.8041 60.7589 31.2466 60.9704 31.5871C61.1083 31.8168 61.375 31.9445 61.6325 31.9445Z" fill="#E6DAB0" stroke="black" mask="url(#path-13-inside-13)"/>
<mask id="path-14-inside-14" fill="white">
<path d="M42.2031 40.8033C42.1755 41.6458 42.6997 42.3437 43.3802 42.3607C44.0606 42.3777 44.6308 41.7139 44.6584 40.8714C44.6951 40.0374 44.1618 39.3395 43.4813 39.3225C42.8008 39.297 42.2307 39.9608 42.2031 40.8033Z"/>
</mask>
<path d="M42.2031 40.8033C42.1755 41.6458 42.6997 42.3437 43.3802 42.3607C44.0606 42.3777 44.6308 41.7139 44.6584 40.8714C44.6951 40.0374 44.1618 39.3395 43.4813 39.3225C42.8008 39.297 42.2307 39.9608 42.2031 40.8033Z" fill="#3C2415" stroke="black" mask="url(#path-14-inside-14)"/>
<mask id="path-15-inside-15" fill="white">
<path d="M43.6089 41.569C43.8112 41.569 44.0135 41.5095 44.1698 41.3733C45.1262 40.5819 44.648 38.6671 43.3514 34.012C40.9789 25.4678 36.9879 11.1622 47.3516 7.25598C47.747 7.11131 47.9401 6.6858 47.7746 6.31986C47.6091 5.95392 47.1585 5.7667 46.7539 5.92839C35.1395 10.3026 39.3328 25.3742 41.8433 34.3779C42.5514 36.931 43.3514 39.8074 43.0755 40.3691C42.7537 40.6329 42.7537 41.0584 43.0388 41.3563C43.1951 41.4925 43.3974 41.569 43.6089 41.569Z"/>
</mask>
<path d="M43.6089 41.569C43.8112 41.569 44.0135 41.5095 44.1698 41.3733C45.1262 40.5819 44.648 38.6671 43.3514 34.012C40.9789 25.4678 36.9879 11.1622 47.3516 7.25598C47.747 7.11131 47.9401 6.6858 47.7746 6.31986C47.6091 5.95392 47.1585 5.7667 46.7539 5.92839C35.1395 10.3026 39.3328 25.3742 41.8433 34.3779C42.5514 36.931 43.3514 39.8074 43.0755 40.3691C42.7537 40.6329 42.7537 41.0584 43.0388 41.3563C43.1951 41.4925 43.3974 41.569 43.6089 41.569Z" fill="#E6DAB0" stroke="black" mask="url(#path-15-inside-15)"/>
<mask id="path-16-inside-16" fill="white">
<path d="M25.2077 24.9574C25.5479 24.9574 25.8606 24.7531 25.9618 24.4297L26.0261 24.217C26.9641 21.1193 28.132 17.2641 28.4079 13.3664C28.8493 6.93272 31.9207 3.19673 37.5303 2.26061C37.9533 2.19253 38.2384 1.81808 38.1556 1.42661C38.082 1.02662 37.6682 0.779829 37.2544 0.8394C30.854 1.91169 27.3503 6.09021 26.8446 13.2728C26.5779 17.0258 25.4376 20.7874 24.518 23.834L24.4536 24.0383C24.3341 24.4212 24.5732 24.8212 24.9962 24.9318C25.0606 24.9489 25.1341 24.9574 25.2077 24.9574Z"/>
</mask>
<path d="M25.2077 24.9574C25.5479 24.9574 25.8606 24.7531 25.9618 24.4297L26.0261 24.217C26.9641 21.1193 28.132 17.2641 28.4079 13.3664C28.8493 6.93272 31.9207 3.19673 37.5303 2.26061C37.9533 2.19253 38.2384 1.81808 38.1556 1.42661C38.082 1.02662 37.6682 0.779829 37.2544 0.8394C30.854 1.91169 27.3503 6.09021 26.8446 13.2728C26.5779 17.0258 25.4376 20.7874 24.518 23.834L24.4536 24.0383C24.3341 24.4212 24.5732 24.8212 24.9962 24.9318C25.0606 24.9489 25.1341 24.9574 25.2077 24.9574Z" fill="#BDAF83" stroke="black" mask="url(#path-16-inside-16)"/>
</svg>
