<svg width="88" height="127" viewBox="0 0 88 127" fill="none" xmlns="http://www.w3.org/2000/svg">
<mask id="path-1-inside-1" fill="white">
<path d="M43.5163 21.1192C43.7462 21.1192 43.9761 21.0256 44.1232 20.8469C44.3991 20.532 44.3347 20.081 44.0037 19.8342C42.9277 19.0513 43.8841 15.2812 44.6658 12.2516C45.8245 7.68161 47.0384 2.94142 44.5646 0.907473C43.1117 -0.292467 40.6747 -0.300977 37.1343 0.873432C36.7297 1.01811 36.5181 1.4266 36.6561 1.80105C36.8124 2.1755 37.2538 2.36272 37.6493 2.23507C40.5736 1.25639 42.5507 1.1798 43.5255 1.98827C45.3003 3.45203 44.16 7.96244 43.1393 11.9367C42.0909 16.0642 41.1805 19.6214 43.0289 20.9746C43.176 21.0767 43.3416 21.1192 43.5163 21.1192Z"/>
</mask>
<path d="M43.5163 21.1192C43.7462 21.1192 43.9761 21.0256 44.1232 20.8469C44.3991 20.532 44.3347 20.081 44.0037 19.8342C42.9277 19.0513 43.8841 15.2812 44.6658 12.2516C45.8245 7.68161 47.0384 2.94142 44.5646 0.907473C43.1117 -0.292467 40.6747 -0.300977 37.1343 0.873432C36.7297 1.01811 36.5181 1.4266 36.6561 1.80105C36.8124 2.1755 37.2538 2.36272 37.6493 2.23507C40.5736 1.25639 42.5507 1.1798 43.5255 1.98827C45.3003 3.45203 44.16 7.96244 43.1393 11.9367C42.0909 16.0642 41.1805 19.6214 43.0289 20.9746C43.176 21.0767 43.3416 21.1192 43.5163 21.1192Z" fill="#BDAF83" stroke="black" mask="url(#path-1-inside-1)"/>
<mask id="path-2-inside-2" fill="white">
<path d="M24.6433 31.4423C24.9375 31.4423 25.2226 31.2892 25.3514 31.0083C25.5261 30.6509 25.3514 30.2254 24.9467 30.0637C24.303 29.7999 25.333 26.4383 25.9399 24.4299C26.0503 24.0469 25.8112 23.6554 25.3973 23.5448C24.9835 23.4427 24.5513 23.6639 24.4409 24.0384C23.2822 27.851 22.4546 30.6168 24.3214 31.3828C24.4318 31.4253 24.5421 31.4423 24.6433 31.4423Z"/>
</mask>
<path d="M24.6433 31.4423C24.9375 31.4423 25.2226 31.2892 25.3514 31.0083C25.5261 30.6509 25.3514 30.2254 24.9467 30.0637C24.303 29.7999 25.333 26.4383 25.9399 24.4299C26.0503 24.0469 25.8112 23.6554 25.3973 23.5448C24.9835 23.4427 24.5513 23.6639 24.4409 24.0384C23.2822 27.851 22.4546 30.6168 24.3214 31.3828C24.4318 31.4253 24.5421 31.4423 24.6433 31.4423Z" fill="#BDAF83" stroke="black" mask="url(#path-2-inside-2)"/>
<mask id="path-3-inside-3" fill="white">
<path d="M60.7247 81.0992L2.56033 110.042L5.85249 37.995L64.026 6.92419L66.0859 28.9741L60.7247 81.0992Z"/>
</mask>
<path d="M60.7247 81.0992L2.56033 110.042L5.85249 37.995L64.026 6.92419L66.0859 28.9741L60.7247 81.0992Z" fill="#BA6000" stroke="black" mask="url(#path-3-inside-3)"/>
<mask id="path-4-inside-4" fill="white">
<path d="M42.4048 22.2511C42.4048 23.051 42.837 23.4765 43.3704 23.1872C43.9037 22.9063 44.3359 22.0128 44.3359 21.2129C44.3359 20.413 43.9037 19.996 43.3704 20.2854C42.837 20.5747 42.4048 21.4512 42.4048 22.2511Z"/>
</mask>
<path d="M42.4048 22.2511C42.4048 23.051 42.837 23.4765 43.3704 23.1872C43.9037 22.9063 44.3359 22.0128 44.3359 21.2129C44.3359 20.413 43.9037 19.996 43.3704 20.2854C42.837 20.5747 42.4048 21.4512 42.4048 22.2511Z" fill="#3C2415" stroke="black" mask="url(#path-4-inside-4)"/>
<mask id="path-5-inside-5" fill="white">
<path d="M23.6359 32.3271C23.6451 33.1271 24.0681 33.5526 24.6106 33.2633C25.144 32.9739 25.5762 32.0888 25.5762 31.2974C25.5762 30.4974 25.144 30.0804 24.6106 30.3697C24.0681 30.6421 23.6359 31.5271 23.6359 32.3271Z"/>
</mask>
<path d="M23.6359 32.3271C23.6451 33.1271 24.0681 33.5526 24.6106 33.2633C25.144 32.9739 25.5762 32.0888 25.5762 31.2974C25.5762 30.4974 25.144 30.0804 24.6106 30.3697C24.0681 30.6421 23.6359 31.5271 23.6359 32.3271Z" fill="#3C2415" stroke="black" mask="url(#path-5-inside-5)"/>
<mask id="path-6-inside-6" fill="white">
<path d="M87.1895 95.3624L67.271 78.3845L64.0249 6.92419L67.271 13.5111L81.3408 15.8514L72.7978 29.4337L74.968 72.6486L87.1895 95.3624Z"/>
</mask>
<path d="M87.1895 95.3624L67.271 78.3845L64.0249 6.92419L67.271 13.5111L81.3408 15.8514L72.7978 29.4337L74.968 72.6486L87.1895 95.3624Z" fill="#9C251F" stroke="black" mask="url(#path-6-inside-6)"/>
<mask id="path-7-inside-7" fill="white">
<path d="M70.1649 43.5017L67.2681 13.5117L81.3379 15.852L76.8319 36.4723L70.1649 43.5017Z"/>
</mask>
<path d="M70.1649 43.5017L67.2681 13.5117L81.3379 15.852L76.8319 36.4723L70.1649 43.5017Z" fill="#E31B25" stroke="black" mask="url(#path-7-inside-7)"/>
<mask id="path-8-inside-8" fill="white">
<path d="M29.0781 126.425L18.5579 115.863L0.000471115 110.893L14.2174 84.1289L22.3835 86.6479L29.0781 126.425Z"/>
</mask>
<path d="M29.0781 126.425L18.5579 115.863L0.000471115 110.893L14.2174 84.1289L22.3835 86.6479L29.0781 126.425Z" fill="#FF3F4A" stroke="black" mask="url(#path-8-inside-8)"/>
<mask id="path-9-inside-9" fill="white">
<path d="M29.0787 126.425L20.7839 108.689L17.97 101.685L16.3331 45.3732L18.4482 39.5947L23.2301 46.871L30.1454 57.1428L35.9297 114.561L29.0787 126.425Z"/>
</mask>
<path d="M29.0787 126.425L20.7839 108.689L17.97 101.685L16.3331 45.3732L18.4482 39.5947L23.2301 46.871L30.1454 57.1428L35.9297 114.561L29.0787 126.425Z" fill="#9C251F" stroke="black" mask="url(#path-9-inside-9)"/>
<mask id="path-10-inside-10" fill="white">
<path d="M20.7871 108.69L0.0044117 110.894L5.85299 37.9954L18.4514 39.5953L20.7871 108.69Z"/>
</mask>
<path d="M20.7871 108.69L0.0044117 110.894L5.85299 37.9954L18.4514 39.5953L20.7871 108.69Z" fill="#E31B25" stroke="black" mask="url(#path-10-inside-10)"/>
<mask id="path-11-inside-11" fill="white">
<path d="M87.1895 95.363L29.0803 126.425L23.2317 46.8718L81.3408 15.8521L87.1895 95.363Z"/>
</mask>
<path d="M87.1895 95.363L29.0803 126.425L23.2317 46.8718L81.3408 15.8521L87.1895 95.363Z" fill="#FF9D26" stroke="black" mask="url(#path-11-inside-11)"/>
<mask id="path-12-inside-12" fill="white">
<path d="M60.3265 31.2468C60.3449 32.0808 60.9058 32.7532 61.5863 32.7447C62.2667 32.7276 62.8001 32.0383 62.7909 31.2042C62.7725 30.3702 62.2024 29.6979 61.5219 29.7064C60.8414 29.7234 60.3081 30.4128 60.3265 31.2468Z"/>
</mask>
<path d="M60.3265 31.2468C60.3449 32.0808 60.9058 32.7532 61.5863 32.7447C62.2667 32.7276 62.8001 32.0383 62.7909 31.2042C62.7725 30.3702 62.2024 29.6979 61.5219 29.7064C60.8414 29.7234 60.3081 30.4128 60.3265 31.2468Z" fill="#3C2415" stroke="black" mask="url(#path-12-inside-12)"/>
<mask id="path-13-inside-13" fill="white">
<path d="M61.6325 31.9445C61.7705 31.9445 61.8992 31.919 62.0188 31.8509C64.9615 30.2765 64.4005 19.2812 61.0348 12.5581C57.8806 6.26908 52.8228 3.90323 46.7903 5.91165C46.3857 6.05632 46.1742 6.4563 46.3213 6.83927C46.4776 7.21372 46.919 7.40094 47.3145 7.27329C53.9447 5.06062 57.6691 9.26468 59.6278 13.1709C63.2694 20.4301 62.736 29.8084 61.2463 30.6084C60.8877 30.8041 60.7589 31.2466 60.9704 31.5871C61.1084 31.8168 61.375 31.9445 61.6325 31.9445Z"/>
</mask>
<path d="M61.6325 31.9445C61.7705 31.9445 61.8992 31.919 62.0188 31.8509C64.9615 30.2765 64.4005 19.2812 61.0348 12.5581C57.8806 6.26908 52.8228 3.90323 46.7903 5.91165C46.3857 6.05632 46.1742 6.4563 46.3213 6.83927C46.4776 7.21372 46.919 7.40094 47.3145 7.27329C53.9447 5.06062 57.6691 9.26468 59.6278 13.1709C63.2694 20.4301 62.736 29.8084 61.2463 30.6084C60.8877 30.8041 60.7589 31.2466 60.9704 31.5871C61.1084 31.8168 61.375 31.9445 61.6325 31.9445Z" fill="#E6DAB0" stroke="black" mask="url(#path-13-inside-13)"/>
<mask id="path-14-inside-14" fill="white">
<path d="M42.205 40.8036C42.1774 41.646 42.7016 42.3438 43.3821 42.3608C44.0626 42.3778 44.6327 41.7141 44.6603 40.8717C44.6971 40.0378 44.1637 39.34 43.4832 39.323C42.8027 39.2975 42.2326 39.9612 42.205 40.8036Z"/>
</mask>
<path d="M42.205 40.8036C42.1774 41.646 42.7016 42.3438 43.3821 42.3608C44.0626 42.3778 44.6327 41.7141 44.6603 40.8717C44.6971 40.0378 44.1637 39.34 43.4832 39.323C42.8027 39.2975 42.2326 39.9612 42.205 40.8036Z" fill="#3C2415" stroke="black" mask="url(#path-14-inside-14)"/>
<mask id="path-15-inside-15" fill="white">
<path d="M43.6088 41.5695C43.8112 41.5695 44.0135 41.5099 44.1698 41.3737C45.1262 40.5823 44.648 38.6674 43.3514 34.0123C40.9788 25.468 36.9878 11.1622 47.3516 7.256C47.747 7.11132 47.9401 6.68581 47.7746 6.31987C47.6091 5.95392 47.1585 5.7667 46.7539 5.92839C35.1394 10.3027 39.3327 25.3744 41.8432 34.3783C42.5513 36.9313 43.3514 39.8078 43.0755 40.3695C42.7536 40.6333 42.7536 41.0588 43.0387 41.3567C43.195 41.4929 43.3973 41.5695 43.6088 41.5695Z"/>
</mask>
<path d="M43.6088 41.5695C43.8112 41.5695 44.0135 41.5099 44.1698 41.3737C45.1262 40.5823 44.648 38.6674 43.3514 34.0123C40.9788 25.468 36.9878 11.1622 47.3516 7.256C47.747 7.11132 47.9401 6.68581 47.7746 6.31987C47.6091 5.95392 47.1585 5.7667 46.7539 5.92839C35.1394 10.3027 39.3327 25.3744 41.8432 34.3783C42.5513 36.9313 43.3514 39.8078 43.0755 40.3695C42.7536 40.6333 42.7536 41.0588 43.0387 41.3567C43.195 41.4929 43.3973 41.5695 43.6088 41.5695Z" fill="#E6DAB0" stroke="black" mask="url(#path-15-inside-15)"/>
<mask id="path-16-inside-16" fill="white">
<path d="M25.2096 24.9574C25.5499 24.9574 25.8626 24.7531 25.9637 24.4297L26.0281 24.217C26.9661 21.1193 28.134 17.2641 28.4098 13.3664C28.8512 6.93272 31.9227 3.19673 37.5322 2.26061C37.9553 2.19253 38.2403 1.81808 38.1576 1.42661C38.084 1.02662 37.6702 0.779829 37.2564 0.8394C30.856 1.91169 27.3523 6.09021 26.8465 13.2728C26.5798 17.0258 25.4395 20.7874 24.5199 23.834L24.4556 24.0383C24.336 24.4212 24.5751 24.8212 24.9981 24.9318C25.0625 24.9489 25.1361 24.9574 25.2096 24.9574Z"/>
</mask>
<path d="M25.2096 24.9574C25.5499 24.9574 25.8626 24.7531 25.9637 24.4297L26.0281 24.217C26.9661 21.1193 28.134 17.2641 28.4098 13.3664C28.8512 6.93272 31.9227 3.19673 37.5322 2.26061C37.9553 2.19253 38.2403 1.81808 38.1576 1.42661C38.084 1.02662 37.6702 0.779829 37.2564 0.8394C30.856 1.91169 27.3523 6.09021 26.8465 13.2728C26.5798 17.0258 25.4395 20.7874 24.5199 23.834L24.4556 24.0383C24.336 24.4212 24.5751 24.8212 24.9981 24.9318C25.0625 24.9489 25.1361 24.9574 25.2096 24.9574Z" fill="#BDAF83" stroke="black" mask="url(#path-16-inside-16)"/>
</svg>
