<svg width="150" height="217" viewBox="0 0 150 217" fill="none" xmlns="http://www.w3.org/2000/svg">
<mask id="path-1-inside-1" fill="white">
<path d="M74.5085 36.1604C74.9021 36.1604 75.2957 36.0001 75.5477 35.6941C76.02 35.1549 75.9098 34.3827 75.343 33.9601C73.5008 32.6196 75.1383 26.1645 76.4766 20.9772C78.4605 13.1524 80.5389 5.03629 76.3034 1.55378C73.8157 -0.500762 69.6432 -0.515334 63.5813 1.49549C62.8885 1.7432 62.5264 2.44262 62.7625 3.08375C63.0302 3.72488 63.786 4.04545 64.463 3.82688C69.47 2.15119 72.8552 2.02005 74.5242 3.40432C77.563 5.91056 75.6106 13.6333 73.8629 20.438C72.068 27.5051 70.5092 33.5958 73.674 35.9126C73.9259 36.0875 74.2093 36.1604 74.5085 36.1604Z"/>
</mask>
<path d="M74.5085 36.1604C74.9021 36.1604 75.2957 36.0001 75.5477 35.6941C76.02 35.1549 75.9098 34.3827 75.343 33.9601C73.5008 32.6196 75.1383 26.1645 76.4766 20.9772C78.4605 13.1524 80.5389 5.03629 76.3034 1.55378C73.8157 -0.500762 69.6432 -0.515334 63.5813 1.49549C62.8885 1.7432 62.5264 2.44262 62.7625 3.08375C63.0302 3.72488 63.786 4.04545 64.463 3.82688C69.47 2.15119 72.8552 2.02005 74.5242 3.40432C77.563 5.91056 75.6106 13.6333 73.8629 20.438C72.068 27.5051 70.5092 33.5958 73.674 35.9126C73.9259 36.0875 74.2093 36.1604 74.5085 36.1604Z" fill="#BDAF83" stroke="black" mask="url(#path-1-inside-1)"/>
<mask id="path-2-inside-2" fill="white">
<path d="M42.1978 53.8344C42.7016 53.8344 43.1897 53.5721 43.4102 53.0913C43.7093 52.4793 43.4102 51.7508 42.7174 51.4739C41.6152 51.0222 43.3787 45.2667 44.4179 41.8279C44.6068 41.1722 44.1974 40.502 43.4889 40.3125C42.7804 40.1377 42.0403 40.5165 41.8514 41.1577C39.8675 47.6855 38.4504 52.421 41.6467 53.7324C41.8356 53.8053 42.0246 53.8344 42.1978 53.8344Z"/>
</mask>
<path d="M42.1978 53.8344C42.7016 53.8344 43.1897 53.5721 43.4102 53.0913C43.7093 52.4793 43.4102 51.7508 42.7174 51.4739C41.6152 51.0222 43.3787 45.2667 44.4179 41.8279C44.6068 41.1722 44.1974 40.502 43.4889 40.3125C42.7804 40.1377 42.0403 40.5165 41.8514 41.1577C39.8675 47.6855 38.4504 52.421 41.6467 53.7324C41.8356 53.8053 42.0246 53.8344 42.1978 53.8344Z" fill="#BDAF83" stroke="black" mask="url(#path-2-inside-2)"/>
<mask id="path-3-inside-3" fill="white">
<path d="M103.969 138.856L4.38058 188.413L10.0174 65.0538L109.622 11.8547L113.148 49.6085L103.969 138.856Z"/>
</mask>
<path d="M103.969 138.856L4.38058 188.413L10.0174 65.0538L109.622 11.8547L113.148 49.6085L103.969 138.856Z" fill="#BA6000" stroke="black" mask="url(#path-3-inside-3)"/>
<mask id="path-4-inside-4" fill="white">
<path d="M72.6037 38.0979C72.6037 39.4676 73.3437 40.1962 74.2569 39.7007C75.1701 39.2199 75.9102 37.6899 75.9102 36.3202C75.9102 34.9505 75.1701 34.2365 74.2569 34.7319C73.3437 35.2273 72.6037 36.7282 72.6037 38.0979Z"/>
</mask>
<path d="M72.6037 38.0979C72.6037 39.4676 73.3437 40.1962 74.2569 39.7007C75.1701 39.2199 75.9102 37.6899 75.9102 36.3202C75.9102 34.9505 75.1701 34.2365 74.2569 34.7319C73.3437 35.2273 72.6037 36.7282 72.6037 38.0979Z" fill="#3C2415" stroke="black" mask="url(#path-4-inside-4)"/>
<mask id="path-5-inside-5" fill="white">
<path d="M40.4678 55.3509C40.4835 56.7205 41.2078 57.449 42.1368 56.9536C43.05 56.4582 43.79 54.9429 43.79 53.5878C43.79 52.2182 43.05 51.5042 42.1368 51.9996C41.2078 52.4659 40.4678 53.9812 40.4678 55.3509Z"/>
</mask>
<path d="M40.4678 55.3509C40.4835 56.7205 41.2078 57.449 42.1368 56.9536C43.05 56.4582 43.79 54.9429 43.79 53.5878C43.79 52.2182 43.05 51.5042 42.1368 51.9996C41.2078 52.4659 40.4678 53.9812 40.4678 55.3509Z" fill="#3C2415" stroke="black" mask="url(#path-5-inside-5)"/>
<mask id="path-6-inside-6" fill="white">
<path d="M149.281 163.278L115.177 134.208L109.619 11.8547L115.177 23.1328L139.267 27.1398L124.64 50.3953L128.356 124.387L149.281 163.278Z"/>
</mask>
<path d="M149.281 163.278L115.177 134.208L109.619 11.8547L115.177 23.1328L139.267 27.1398L124.64 50.3953L128.356 124.387L149.281 163.278Z" fill="#9C251F" stroke="black" mask="url(#path-6-inside-6)"/>
<mask id="path-7-inside-7" fill="white">
<path d="M120.139 74.4824L115.179 23.1339L139.27 27.141L131.554 62.4467L120.139 74.4824Z"/>
</mask>
<path d="M120.139 74.4824L115.179 23.1339L139.27 27.141L131.554 62.4467L120.139 74.4824Z" fill="#E31B25" stroke="black" mask="url(#path-7-inside-7)"/>
<mask id="path-8-inside-8" fill="white">
<path d="M49.79 216.463L31.7775 198.38L0.00372614 189.871L24.3458 144.045L38.3275 148.358L49.79 216.463Z"/>
</mask>
<path d="M49.79 216.463L31.7775 198.38L0.00372614 189.871L24.3458 144.045L38.3275 148.358L49.79 216.463Z" fill="#FF3F4A" stroke="black" mask="url(#path-8-inside-8)"/>
<mask id="path-9-inside-9" fill="white">
<path d="M49.7884 216.463L35.5862 186.097L30.7681 174.105L27.9655 77.6887L31.5869 67.7949L39.7744 80.2532L51.6148 97.8404L61.5186 196.151L49.7884 216.463Z"/>
</mask>
<path d="M49.7884 216.463L35.5862 186.097L30.7681 174.105L27.9655 77.6887L31.5869 67.7949L39.7744 80.2532L51.6148 97.8404L61.5186 196.151L49.7884 216.463Z" fill="#9C251F" stroke="black" mask="url(#path-9-inside-9)"/>
<mask id="path-10-inside-10" fill="white">
<path d="M35.583 186.098L-0.00116046 189.871L10.0128 65.0555L31.5837 67.7949L35.583 186.098Z"/>
</mask>
<path d="M35.583 186.098L-0.00116046 189.871L10.0128 65.0555L31.5837 67.7949L35.583 186.098Z" fill="#E31B25" stroke="black" mask="url(#path-10-inside-10)"/>
<mask id="path-11-inside-11" fill="white">
<path d="M149.281 163.279L49.7873 216.463L39.7734 80.2527L139.267 27.1411L149.281 163.279Z"/>
</mask>
<path d="M149.281 163.279L49.7873 216.463L39.7734 80.2527L139.267 27.1411L149.281 163.279Z" fill="#FF9D26" stroke="black" mask="url(#path-11-inside-11)"/>
<mask id="path-12-inside-12" fill="white">
<path d="M103.29 53.5001C103.321 54.9281 104.282 56.0793 105.447 56.0647C106.612 56.0356 107.525 54.8553 107.51 53.4273C107.478 51.9993 106.502 50.8481 105.337 50.8627C104.172 50.8918 103.258 52.0721 103.29 53.5001Z"/>
</mask>
<path d="M103.29 53.5001C103.321 54.9281 104.282 56.0793 105.447 56.0647C106.612 56.0356 107.525 54.8553 107.51 53.4273C107.478 51.9993 106.502 50.8481 105.337 50.8627C104.172 50.8918 103.258 52.0721 103.29 53.5001Z" fill="#3C2415" stroke="black" mask="url(#path-12-inside-12)"/>
<mask id="path-13-inside-13" fill="white">
<path d="M105.523 54.6944C105.759 54.6944 105.98 54.6507 106.185 54.5341C111.223 51.8384 110.263 33.0127 104.5 21.5015C99.0992 10.7335 90.4394 6.68277 80.1105 10.1215C79.4177 10.3692 79.0556 11.0541 79.3075 11.7098C79.5752 12.3509 80.3309 12.6715 81.008 12.4529C92.3603 8.66443 98.7371 15.8625 102.091 22.5506C108.326 34.9797 107.413 51.037 104.862 52.4067C104.248 52.7419 104.027 53.4995 104.39 54.0824C104.626 54.4758 105.082 54.6944 105.523 54.6944Z"/>
</mask>
<path d="M105.523 54.6944C105.759 54.6944 105.98 54.6507 106.185 54.5341C111.223 51.8384 110.263 33.0127 104.5 21.5015C99.0992 10.7335 90.4394 6.68277 80.1105 10.1215C79.4177 10.3692 79.0556 11.0541 79.3075 11.7098C79.5752 12.3509 80.3309 12.6715 81.008 12.4529C92.3603 8.66443 98.7371 15.8625 102.091 22.5506C108.326 34.9797 107.413 51.037 104.862 52.4067C104.248 52.7419 104.027 53.4995 104.39 54.0824C104.626 54.4758 105.082 54.6944 105.523 54.6944Z" fill="#E6DAB0" stroke="black" mask="url(#path-13-inside-13)"/>
<mask id="path-14-inside-14" fill="white">
<path d="M72.2589 69.8631C72.2116 71.3056 73.1091 72.5004 74.2742 72.5295C75.4393 72.5587 76.4155 71.4221 76.4627 69.9796C76.5257 68.5517 75.6125 67.3569 74.4474 67.3278C73.2823 67.284 72.3061 68.4206 72.2589 69.8631Z"/>
</mask>
<path d="M72.2589 69.8631C72.2116 71.3056 73.1091 72.5004 74.2742 72.5295C75.4393 72.5587 76.4155 71.4221 76.4627 69.9796C76.5257 68.5517 75.6125 67.3569 74.4474 67.3278C73.2823 67.284 72.3061 68.4206 72.2589 69.8631Z" fill="#3C2415" stroke="black" mask="url(#path-14-inside-14)"/>
<mask id="path-15-inside-15" fill="white">
<path d="M74.6642 71.1745C75.0106 71.1745 75.357 71.0725 75.6247 70.8394C77.2622 69.4843 76.4434 66.2058 74.2233 58.2354C70.1611 43.6061 63.3277 19.1121 81.0725 12.4239C81.7495 12.1762 82.0802 11.4477 81.7968 10.8211C81.5134 10.1946 80.7418 9.874 80.0491 10.1509C60.1629 17.6404 67.3427 43.4458 71.6411 58.862C72.8535 63.2333 74.2233 68.1583 73.751 69.12C73.1999 69.5717 73.1999 70.3003 73.688 70.8102C73.9557 71.0434 74.3021 71.1745 74.6642 71.1745Z"/>
</mask>
<path d="M74.6642 71.1745C75.0106 71.1745 75.357 71.0725 75.6247 70.8394C77.2622 69.4843 76.4434 66.2058 74.2233 58.2354C70.1611 43.6061 63.3277 19.1121 81.0725 12.4239C81.7495 12.1762 82.0802 11.4477 81.7968 10.8211C81.5134 10.1946 80.7418 9.874 80.0491 10.1509C60.1629 17.6404 67.3427 43.4458 71.6411 58.862C72.8535 63.2333 74.2233 68.1583 73.751 69.12C73.1999 69.5717 73.1999 70.3003 73.688 70.8102C73.9557 71.0434 74.3021 71.1745 74.6642 71.1745Z" fill="#E6DAB0" stroke="black" mask="url(#path-15-inside-15)"/>
<mask id="path-16-inside-16" fill="white">
<path d="M43.1607 42.7318C43.7432 42.7318 44.2786 42.3821 44.4518 41.8284L44.562 41.4641C46.168 36.1602 48.1677 29.5595 48.64 22.886C49.3958 11.8703 54.6547 5.47355 64.2593 3.87073C64.9836 3.75417 65.4717 3.11304 65.33 2.44277C65.204 1.75793 64.4955 1.33537 63.787 1.43737C52.8283 3.27332 46.8293 10.4277 45.9633 22.7257C45.5067 29.1515 43.5543 35.5919 41.9798 40.8084L41.8695 41.1581C41.6649 41.8138 42.0742 42.4986 42.7985 42.6881C42.9087 42.7172 43.0347 42.7318 43.1607 42.7318Z"/>
</mask>
<path d="M43.1607 42.7318C43.7432 42.7318 44.2786 42.3821 44.4518 41.8284L44.562 41.4641C46.168 36.1602 48.1677 29.5595 48.64 22.886C49.3958 11.8703 54.6547 5.47355 64.2593 3.87073C64.9836 3.75417 65.4717 3.11304 65.33 2.44277C65.204 1.75793 64.4955 1.33537 63.787 1.43737C52.8283 3.27332 46.8293 10.4277 45.9633 22.7257C45.5067 29.1515 43.5543 35.5919 41.9798 40.8084L41.8695 41.1581C41.6649 41.8138 42.0742 42.4986 42.7985 42.6881C42.9087 42.7172 43.0347 42.7318 43.1607 42.7318Z" fill="#BDAF83" stroke="black" mask="url(#path-16-inside-16)"/>
</svg>
