<svg width="331" height="369" viewBox="0 0 331 369" fill="none" xmlns="http://www.w3.org/2000/svg">
<mask id="path-1-inside-1" fill="white">
<path d="M71.4102 313.016C71.4102 321.154 76.5478 330.728 83.2267 334.558C89.9056 337.909 95.0433 334.558 95.0433 325.941C95.0433 317.324 89.9056 308.228 83.2267 304.399C77.0616 301.048 71.4102 304.877 71.4102 313.016Z"/>
</mask>
<path d="M71.4102 313.016C71.4102 321.154 76.5478 330.728 83.2267 334.558C89.9056 337.909 95.0433 334.558 95.0433 325.941C95.0433 317.324 89.9056 308.228 83.2267 304.399C77.0616 301.048 71.4102 304.877 71.4102 313.016Z" fill="#2A3742" stroke="black" mask="url(#path-1-inside-1)"/>
<mask id="path-2-inside-2" fill="white">
<path d="M67.3027 308.707L76.5505 303.441L91.4496 335.037L81.6881 340.303L67.3027 308.707Z"/>
</mask>
<path d="M67.3027 308.707L76.5505 303.441L91.4496 335.037L81.6881 340.303L67.3027 308.707Z" fill="#2A3742" stroke="black" mask="url(#path-2-inside-2)"/>
<mask id="path-3-inside-3" fill="white">
<path d="M62.165 318.282C62.165 326.421 67.3027 335.995 73.9816 339.825C80.6605 343.176 85.7981 339.825 85.7981 331.208C85.7981 322.591 80.6605 313.495 73.9816 309.665C67.3027 306.314 62.165 310.144 62.165 318.282Z"/>
</mask>
<path d="M62.165 318.282C62.165 326.421 67.3027 335.995 73.9816 339.825C80.6605 343.176 85.7981 339.825 85.7981 331.208C85.7981 322.591 80.6605 313.495 73.9816 309.665C67.3027 306.314 62.165 310.144 62.165 318.282Z" fill="#1B2630" stroke="black" mask="url(#path-3-inside-3)"/>
<mask id="path-4-inside-4" fill="white">
<path d="M67.3027 321.633C67.3027 325.941 69.8715 330.728 73.4679 332.165C77.0642 334.079 79.633 332.165 79.633 327.856C79.633 323.548 77.0642 318.76 73.4679 316.845C69.8715 315.409 67.3027 317.324 67.3027 321.633Z"/>
</mask>
<path d="M67.3027 321.633C67.3027 325.941 69.8715 330.728 73.4679 332.165C77.0642 334.079 79.633 332.165 79.633 327.856C79.633 323.548 77.0642 318.76 73.4679 316.845C69.8715 315.409 67.3027 317.324 67.3027 321.633Z" fill="white" stroke="black" mask="url(#path-4-inside-4)"/>
<mask id="path-5-inside-5" fill="white">
<path d="M87.3394 302.484V324.027C87.3394 324.027 82.7155 326.42 77.0641 327.856C71.4127 329.293 69.3576 324.984 71.4127 318.761C73.4677 310.623 78.0916 300.569 78.0916 300.569L87.3394 302.484Z"/>
</mask>
<path d="M87.3394 302.484V324.027C87.3394 324.027 82.7155 326.42 77.0641 327.856C71.4127 329.293 69.3576 324.984 71.4127 318.761C73.4677 310.623 78.0916 300.569 78.0916 300.569L87.3394 302.484Z" fill="#9B8790" stroke="black" mask="url(#path-5-inside-5)"/>
<mask id="path-6-inside-6" fill="white">
<path d="M87.3398 302.484L97.1013 300.091V318.761L87.3398 323.548V302.484Z"/>
</mask>
<path d="M87.3398 302.484L97.1013 300.091V318.761L87.3398 323.548V302.484Z" fill="#A898A0" stroke="black" mask="url(#path-6-inside-6)"/>
<mask id="path-7-inside-7" fill="white">
<path d="M236.847 340.304C236.847 348.442 241.984 358.017 248.663 361.846C255.342 365.197 260.48 361.846 260.48 353.229C260.48 344.612 255.342 335.517 248.663 331.687C241.984 328.336 236.847 332.166 236.847 340.304Z"/>
</mask>
<path d="M236.847 340.304C236.847 348.442 241.984 358.017 248.663 361.846C255.342 365.197 260.48 361.846 260.48 353.229C260.48 344.612 255.342 335.517 248.663 331.687C241.984 328.336 236.847 332.166 236.847 340.304Z" fill="#2A3742" stroke="black" mask="url(#path-7-inside-7)"/>
<mask id="path-8-inside-8" fill="white">
<path d="M232.221 335.995L241.468 331.208L256.368 362.325L247.12 367.591L232.221 335.995Z"/>
</mask>
<path d="M232.221 335.995L241.468 331.208L256.368 362.325L247.12 367.591L232.221 335.995Z" fill="#2A3742" stroke="black" mask="url(#path-8-inside-8)"/>
<mask id="path-9-inside-9" fill="white">
<path d="M227.083 345.57C227.083 353.708 232.221 363.283 238.9 367.113C245.579 370.464 250.716 367.113 250.716 358.496C250.716 349.879 245.579 340.783 238.9 336.953C232.221 333.602 227.083 337.432 227.083 345.57Z"/>
</mask>
<path d="M227.083 345.57C227.083 353.708 232.221 363.283 238.9 367.113C245.579 370.464 250.716 367.113 250.716 358.496C250.716 349.879 245.579 340.783 238.9 336.953C232.221 333.602 227.083 337.432 227.083 345.57Z" fill="#1B2630" stroke="black" mask="url(#path-9-inside-9)"/>
<mask id="path-10-inside-10" fill="white">
<path d="M232.221 348.921C232.221 353.229 234.79 358.016 238.386 359.452C241.982 361.367 244.551 359.452 244.551 355.144C244.551 350.836 241.982 346.048 238.386 344.134C234.79 342.697 232.221 344.612 232.221 348.921Z"/>
</mask>
<path d="M232.221 348.921C232.221 353.229 234.79 358.016 238.386 359.452C241.982 361.367 244.551 359.452 244.551 355.144C244.551 350.836 241.982 346.048 238.386 344.134C234.79 342.697 232.221 344.612 232.221 348.921Z" fill="white" stroke="black" mask="url(#path-10-inside-10)"/>
<mask id="path-11-inside-11" fill="white">
<path d="M252.259 329.293V351.314C252.259 351.314 247.635 353.708 241.984 355.144C236.333 356.58 234.278 352.272 236.333 346.048C238.388 337.91 242.498 329.293 242.498 329.293H252.259V329.293Z"/>
</mask>
<path d="M252.259 329.293V351.314C252.259 351.314 247.635 353.708 241.984 355.144C236.333 356.58 234.278 352.272 236.333 346.048C238.388 337.91 242.498 329.293 242.498 329.293H252.259V329.293Z" fill="#9B8790" stroke="black" mask="url(#path-11-inside-11)"/>
<mask id="path-12-inside-12" fill="white">
<path d="M252.26 330.729L262.021 325.463V346.048L252.26 351.314V330.729Z"/>
</mask>
<path d="M252.26 330.729L262.021 325.463V346.048L252.26 351.314V330.729Z" fill="#A898A0" stroke="black" mask="url(#path-12-inside-12)"/>
<mask id="path-13-inside-13" fill="white">
<path d="M193.666 280.129C198.888 278.059 199.879 269.281 195.88 260.522C191.881 251.764 184.406 246.342 179.184 248.412C173.962 250.482 172.97 259.26 176.97 268.019C180.969 276.777 188.444 282.199 193.666 280.129Z"/>
</mask>
<path d="M193.666 280.129C198.888 278.059 199.879 269.281 195.88 260.522C191.881 251.764 184.406 246.342 179.184 248.412C173.962 250.482 172.97 259.26 176.97 268.019C180.969 276.777 188.444 282.199 193.666 280.129Z" fill="#2A3742" stroke="black" mask="url(#path-13-inside-13)"/>
<mask id="path-14-inside-14" fill="white">
<path d="M170.058 253.655L179.305 248.389L194.718 279.984L184.957 285.25L170.058 253.655Z"/>
</mask>
<path d="M170.058 253.655L179.305 248.389L194.718 279.984L184.957 285.25L170.058 253.655Z" fill="#2A3742" stroke="black" mask="url(#path-14-inside-14)"/>
<mask id="path-15-inside-15" fill="white">
<path d="M164.918 263.23C164.918 271.369 170.056 280.943 176.735 284.773C183.413 288.124 188.551 284.773 188.551 276.156C188.551 267.539 183.413 258.443 176.735 254.613C170.056 251.262 164.918 255.092 164.918 263.23Z"/>
</mask>
<path d="M164.918 263.23C164.918 271.369 170.056 280.943 176.735 284.773C183.413 288.124 188.551 284.773 188.551 276.156C188.551 267.539 183.413 258.443 176.735 254.613C170.056 251.262 164.918 255.092 164.918 263.23Z" fill="#1B2630" stroke="black" mask="url(#path-15-inside-15)"/>
<mask id="path-16-inside-16" fill="white">
<path d="M170.058 266.581C170.058 270.889 172.626 275.676 176.223 277.113C179.819 279.027 182.388 277.113 182.388 272.804C182.388 268.496 179.819 263.709 176.223 261.794C172.626 260.358 170.058 262.273 170.058 266.581Z"/>
</mask>
<path d="M170.058 266.581C170.058 270.889 172.626 275.676 176.223 277.113C179.819 279.027 182.388 277.113 182.388 272.804C182.388 268.496 179.819 263.709 176.223 261.794C172.626 260.358 170.058 262.273 170.058 266.581Z" fill="white" stroke="black" mask="url(#path-16-inside-16)"/>
<mask id="path-17-inside-17" fill="white">
<path d="M190.094 248.868V268.496C190.094 268.496 185.47 270.889 179.819 272.325C174.168 273.761 172.112 269.453 174.168 263.23C176.223 255.092 182.388 243.124 182.388 243.124L190.094 248.868Z"/>
</mask>
<path d="M190.094 248.868V268.496C190.094 268.496 185.47 270.889 179.819 272.325C174.168 273.761 172.112 269.453 174.168 263.23C176.223 255.092 182.388 243.124 182.388 243.124L190.094 248.868Z" fill="#9B8790" stroke="black" mask="url(#path-17-inside-17)"/>
<mask id="path-18-inside-18" fill="white">
<path d="M190.097 248.39L199.858 246.954V263.709L190.097 268.496V248.39Z"/>
</mask>
<path d="M190.097 248.39L199.858 246.954V263.709L190.097 268.496V248.39Z" fill="#EADCE1" stroke="black" mask="url(#path-18-inside-18)"/>
<mask id="path-19-inside-19" fill="white">
<path d="M241.466 336.953L234.273 332.165L256.365 320.197C265.099 315.41 265.099 312.538 255.337 304.4C245.062 296.261 182.897 243.602 182.383 243.123L191.631 239.294C192.144 239.772 257.392 294.825 267.668 302.963C277.943 311.102 276.915 318.283 263.558 324.985L241.466 336.953Z"/>
</mask>
<path d="M241.466 336.953L234.273 332.165L256.365 320.197C265.099 315.41 265.099 312.538 255.337 304.4C245.062 296.261 182.897 243.602 182.383 243.123L191.631 239.294C192.144 239.772 257.392 294.825 267.668 302.963C277.943 311.102 276.915 318.283 263.558 324.985L241.466 336.953Z" fill="white" stroke="black" mask="url(#path-19-inside-19)"/>
<mask id="path-20-inside-20" fill="white">
<path d="M258.933 327.378L249.685 323.548L231.703 333.123C222.969 337.91 214.235 339.825 199.336 334.559C183.923 329.293 86.822 295.304 85.7944 294.825L77.5742 300.091C78.6017 300.57 180.327 335.516 195.74 340.782C211.153 346.048 223.997 345.569 236.841 338.867L258.933 327.378Z"/>
</mask>
<path d="M258.933 327.378L249.685 323.548L231.703 333.123C222.969 337.91 214.235 339.825 199.336 334.559C183.923 329.293 86.822 295.304 85.7944 294.825L77.5742 300.091C78.6017 300.57 180.327 335.516 195.74 340.782C211.153 346.048 223.997 345.569 236.841 338.867L258.933 327.378Z" fill="white" stroke="black" mask="url(#path-20-inside-20)"/>
<mask id="path-21-inside-21" fill="white">
<path d="M132.551 34.8797C132.551 34.8797 116.11 16.2098 116.11 5.19926C116.11 -2.93894 121.762 -0.545351 129.468 5.67798C134.606 9.50772 141.285 16.2098 141.285 16.2098L132.551 34.8797Z"/>
</mask>
<path d="M132.551 34.8797C132.551 34.8797 116.11 16.2098 116.11 5.19926C116.11 -2.93894 121.762 -0.545351 129.468 5.67798C134.606 9.50772 141.285 16.2098 141.285 16.2098L132.551 34.8797Z" fill="#FF9494" stroke="black" mask="url(#path-21-inside-21)"/>
<mask id="path-22-inside-22" fill="white">
<path d="M114.566 2.32702L117.649 0.412109L141.796 15.7314L138.2 17.6463L114.566 2.32702Z"/>
</mask>
<path d="M114.566 2.32702L117.649 0.412109L141.796 15.7314L138.2 17.6463L114.566 2.32702Z" fill="#FF9494" stroke="black" mask="url(#path-22-inside-22)"/>
<mask id="path-23-inside-23" fill="white">
<path d="M129.467 36.7954C129.467 36.7954 113.026 18.1252 113.026 7.1146C113.026 -1.02369 118.678 1.36993 126.384 7.59333C131.522 11.4231 138.201 18.1252 138.201 18.1252L129.467 36.7954Z"/>
</mask>
<path d="M129.467 36.7954C129.467 36.7954 113.026 18.1252 113.026 7.1146C113.026 -1.02369 118.678 1.36993 126.384 7.59333C131.522 11.4231 138.201 18.1252 138.201 18.1252L129.467 36.7954Z" fill="#ED3A3A" stroke="black" mask="url(#path-23-inside-23)"/>
<mask id="path-24-inside-24" fill="white">
<path d="M141.798 15.7308L138.202 17.6457L129.468 36.7945L132.55 34.8796L141.798 15.7308Z"/>
</mask>
<path d="M141.798 15.7308L138.202 17.6457L129.468 36.7945L132.55 34.8796L141.798 15.7308Z" fill="#D62B2B" stroke="black" mask="url(#path-24-inside-24)"/>
<mask id="path-25-inside-25" fill="white">
<path d="M167.484 44.9326C165.429 39.6666 154.64 30.571 144.364 21.954C141.796 20.0391 142.309 20.0391 140.254 18.1243C139.741 19.0817 138.713 20.0391 138.199 20.9966C140.254 22.4327 139.741 22.4327 141.796 24.3476C151.043 32.0071 162.346 41.5815 163.887 45.89C165.942 51.6346 179.814 144.506 187.007 192.857L190.603 192.378C189.576 187.112 169.539 52.5921 167.484 44.9326Z"/>
</mask>
<path d="M167.484 44.9326C165.429 39.6666 154.64 30.571 144.364 21.954C141.796 20.0391 142.309 20.0391 140.254 18.1243C139.741 19.0817 138.713 20.0391 138.199 20.9966C140.254 22.4327 139.741 22.4327 141.796 24.3476C151.043 32.0071 162.346 41.5815 163.887 45.89C165.942 51.6346 179.814 144.506 187.007 192.857L190.603 192.378C189.576 187.112 169.539 52.5921 167.484 44.9326Z" fill="white" stroke="black" mask="url(#path-25-inside-25)"/>
<mask id="path-26-inside-26" fill="white">
<path d="M133.577 32.007C132.549 32.4857 132.549 33.9218 131.521 34.8793L146.421 54.5068L150.017 82.2725L153.613 81.7937L149.503 53.5493L133.577 32.007Z"/>
</mask>
<path d="M133.577 32.007C132.549 32.4857 132.549 33.9218 131.521 34.8793L146.421 54.5068L150.017 82.2725L153.613 81.7937L149.503 53.5493L133.577 32.007Z" fill="white" stroke="black" mask="url(#path-26-inside-26)"/>
<mask id="path-27-inside-27" fill="white">
<path d="M140.255 19.5611C140.255 20.5185 139.741 21.476 138.713 21.476C138.2 21.9547 137.172 21.476 137.686 20.5185C137.686 19.5611 138.2 18.6036 139.227 18.6036C139.741 18.1248 140.255 18.6036 140.255 19.5611Z"/>
</mask>
<path d="M140.255 19.5611C140.255 20.5185 139.741 21.476 138.713 21.476C138.2 21.9547 137.172 21.476 137.686 20.5185C137.686 19.5611 138.2 18.6036 139.227 18.6036C139.741 18.1248 140.255 18.6036 140.255 19.5611Z" fill="white" stroke="black" mask="url(#path-27-inside-27)"/>
<mask id="path-28-inside-28" fill="white">
<path d="M134.09 32.965C134.09 33.9225 133.576 34.8799 132.548 34.8799C132.035 35.3587 131.007 34.8799 131.521 33.9225C131.521 32.965 132.035 32.0075 133.062 32.0075C133.576 31.5288 134.09 32.0075 134.09 32.965Z"/>
</mask>
<path d="M134.09 32.965C134.09 33.9225 133.576 34.8799 132.548 34.8799C132.035 35.3587 131.007 34.8799 131.521 33.9225C131.521 32.965 132.035 32.0075 133.062 32.0075C133.576 31.5288 134.09 32.0075 134.09 32.965Z" fill="white" stroke="black" mask="url(#path-28-inside-28)"/>
<mask id="path-29-inside-29" fill="white">
<path d="M187.655 190.272L74.6973 251.154L76.498 254.055L189.456 193.172L187.655 190.272Z"/>
</mask>
<path d="M187.655 190.272L74.6973 251.154L76.498 254.055L189.456 193.172L187.655 190.272Z" fill="white" stroke="black" mask="url(#path-29-inside-29)"/>
<mask id="path-30-inside-30" fill="white">
<path d="M215.359 206.11L103.735 266.273L105.536 269.174L217.159 209.011L215.359 206.11Z"/>
</mask>
<path d="M215.359 206.11L103.735 266.273L105.536 269.174L217.159 209.011L215.359 206.11Z" fill="white" stroke="black" mask="url(#path-30-inside-30)"/>
<mask id="path-31-inside-31" fill="white">
<path d="M245.298 223.289L133.675 283.452L135.475 286.353L247.099 226.19L245.298 223.289Z"/>
</mask>
<path d="M245.298 223.289L133.675 283.452L135.475 286.353L247.099 226.19L245.298 223.289Z" fill="white" stroke="black" mask="url(#path-31-inside-31)"/>
<mask id="path-32-inside-32" fill="white">
<path d="M274.836 236.905L162.323 297.548L164.124 300.449L276.637 239.806L274.836 236.905Z"/>
</mask>
<path d="M274.836 236.905L162.323 297.548L164.124 300.449L276.637 239.806L274.836 236.905Z" fill="white" stroke="black" mask="url(#path-32-inside-32)"/>
<mask id="path-33-inside-33" fill="white">
<path d="M295.946 250.954L183.434 311.597L185.234 314.498L297.747 253.855L295.946 250.954Z"/>
</mask>
<path d="M295.946 250.954L183.434 311.597L185.234 314.498L297.747 253.855L295.946 250.954Z" fill="white" stroke="black" mask="url(#path-33-inside-33)"/>
<mask id="path-34-inside-34" fill="white">
<path d="M212.699 235.464C207.048 235.464 201.91 234.507 197.8 232.113L43.671 149.773C39.5609 147.379 37.5059 144.507 37.5059 140.677C37.5059 136.369 40.5884 132.539 46.2399 129.667L136.149 82.7521C145.91 77.4862 161.323 77.0075 170.057 81.3159L324.186 163.656C328.296 166.049 330.351 168.922 330.351 172.752C330.351 177.06 327.269 180.89 321.617 183.762L231.709 230.677C226.057 234.028 219.378 235.464 212.699 235.464ZM155.158 82.2734C148.993 82.2734 142.828 83.7095 137.69 86.1031L47.7811 133.018C43.1573 135.411 41.1022 138.284 41.1022 141.156C41.1022 143.55 42.6435 145.464 45.7261 147.379L199.855 229.719C207.562 233.549 221.433 233.07 230.167 228.283L320.076 181.369C324.186 178.975 326.755 176.103 326.755 173.23C326.755 170.837 325.214 168.922 322.131 167.007L168.002 84.667C164.406 83.2308 159.782 82.2734 155.158 82.2734Z"/>
</mask>
<path d="M212.699 235.464C207.048 235.464 201.91 234.507 197.8 232.113L43.671 149.773C39.5609 147.379 37.5059 144.507 37.5059 140.677C37.5059 136.369 40.5884 132.539 46.2399 129.667L136.149 82.7521C145.91 77.4862 161.323 77.0075 170.057 81.3159L324.186 163.656C328.296 166.049 330.351 168.922 330.351 172.752C330.351 177.06 327.269 180.89 321.617 183.762L231.709 230.677C226.057 234.028 219.378 235.464 212.699 235.464ZM155.158 82.2734C148.993 82.2734 142.828 83.7095 137.69 86.1031L47.7811 133.018C43.1573 135.411 41.1022 138.284 41.1022 141.156C41.1022 143.55 42.6435 145.464 45.7261 147.379L199.855 229.719C207.562 233.549 221.433 233.07 230.167 228.283L320.076 181.369C324.186 178.975 326.755 176.103 326.755 173.23C326.755 170.837 325.214 168.922 322.131 167.007L168.002 84.667C164.406 83.2308 159.782 82.2734 155.158 82.2734Z" fill="white" stroke="black" mask="url(#path-34-inside-34)"/>
<mask id="path-35-inside-35" fill="white">
<path d="M208.59 322.111C202.938 322.111 197.801 321.154 193.691 318.76L57.5431 245.038C53.433 242.644 51.3779 239.293 51.3779 235.942C51.3779 231.633 54.4605 227.804 60.1119 224.931L138.204 182.804C147.966 177.538 163.379 177.059 172.112 181.368L308.26 255.569C314.425 258.92 318.022 261.793 318.022 265.144C318.022 267.537 315.966 269.931 311.856 271.846L227.599 317.324C221.948 320.675 215.269 322.111 208.59 322.111ZM195.746 316.367C203.452 320.196 217.324 319.718 226.058 314.93L310.315 269.452C312.884 268.016 314.425 266.58 314.425 265.622C314.425 263.229 308.774 259.878 306.205 258.92L170.057 184.719C162.351 180.889 148.479 181.368 139.745 186.155L61.6532 227.804C57.0293 230.197 54.9743 233.07 54.9743 235.942C54.9743 238.335 56.5156 240.25 59.5982 242.165L195.746 316.367Z"/>
</mask>
<path d="M208.59 322.111C202.938 322.111 197.801 321.154 193.691 318.76L57.5431 245.038C53.433 242.644 51.3779 239.293 51.3779 235.942C51.3779 231.633 54.4605 227.804 60.1119 224.931L138.204 182.804C147.966 177.538 163.379 177.059 172.112 181.368L308.26 255.569C314.425 258.92 318.022 261.793 318.022 265.144C318.022 267.537 315.966 269.931 311.856 271.846L227.599 317.324C221.948 320.675 215.269 322.111 208.59 322.111ZM195.746 316.367C203.452 320.196 217.324 319.718 226.058 314.93L310.315 269.452C312.884 268.016 314.425 266.58 314.425 265.622C314.425 263.229 308.774 259.878 306.205 258.92L170.057 184.719C162.351 180.889 148.479 181.368 139.745 186.155L61.6532 227.804C57.0293 230.197 54.9743 233.07 54.9743 235.942C54.9743 238.335 56.5156 240.25 59.5982 242.165L195.746 316.367Z" fill="white" stroke="black" mask="url(#path-35-inside-35)"/>
<mask id="path-36-inside-36" fill="white">
<path d="M209.101 295.782C203.45 295.782 197.799 294.825 193.688 292.431L53.9446 216.315C49.8344 213.921 47.2656 210.57 47.2656 207.219C47.2656 202.91 50.3482 198.602 55.9996 195.73L136.147 152.645C146.422 147.379 161.835 146.421 171.083 151.208L310.827 227.325C316.992 230.676 321.102 233.548 321.102 237.378C321.102 239.772 319.047 242.165 314.937 244.559L228.111 290.995C222.973 294.346 215.78 295.782 209.101 295.782ZM195.743 289.559C203.45 293.867 217.835 292.91 226.569 288.123L313.395 241.687C315.964 240.251 317.506 238.814 317.506 237.378C317.506 234.985 311.34 231.634 309.285 230.197L169.541 154.081C161.835 149.772 147.45 150.251 138.716 155.517L58.5684 198.602C53.9446 200.995 51.3757 203.868 51.3757 207.219C51.3757 209.612 52.917 211.527 55.9996 213.442L195.743 289.559Z"/>
</mask>
<path d="M209.101 295.782C203.45 295.782 197.799 294.825 193.688 292.431L53.9446 216.315C49.8344 213.921 47.2656 210.57 47.2656 207.219C47.2656 202.91 50.3482 198.602 55.9996 195.73L136.147 152.645C146.422 147.379 161.835 146.421 171.083 151.208L310.827 227.325C316.992 230.676 321.102 233.548 321.102 237.378C321.102 239.772 319.047 242.165 314.937 244.559L228.111 290.995C222.973 294.346 215.78 295.782 209.101 295.782ZM195.743 289.559C203.45 293.867 217.835 292.91 226.569 288.123L313.395 241.687C315.964 240.251 317.506 238.814 317.506 237.378C317.506 234.985 311.34 231.634 309.285 230.197L169.541 154.081C161.835 149.772 147.45 150.251 138.716 155.517L58.5684 198.602C53.9446 200.995 51.3757 203.868 51.3757 207.219C51.3757 209.612 52.917 211.527 55.9996 213.442L195.743 289.559Z" fill="white" stroke="black" mask="url(#path-36-inside-36)"/>
<mask id="path-37-inside-37" fill="white">
<path d="M209.097 269.931C203.446 269.931 197.795 268.974 193.684 266.58L49.3166 187.591C44.6928 185.198 42.6377 181.847 42.6377 178.017C42.6377 173.708 46.234 169.4 51.8855 166.049L134.602 121.528C145.391 115.783 161.317 115.305 170.565 120.092L314.933 198.602C321.098 201.953 325.208 204.825 325.208 208.655C325.208 211.527 323.153 213.921 319.043 215.836L229.648 265.144C223.483 268.016 216.29 269.931 209.097 269.931ZM195.739 263.229C203.96 267.538 218.345 267.059 227.593 261.793L316.988 213.442C320.07 212.006 321.612 210.57 321.612 209.134C321.612 206.74 315.447 203.389 312.878 201.953L168.51 123.922C160.29 119.613 145.904 120.092 136.657 125.358L53.9405 169.879C49.3166 172.272 46.234 175.145 46.234 178.496C46.234 180.889 47.7753 183.283 50.8579 184.719L195.739 263.229Z"/>
</mask>
<path d="M209.097 269.931C203.446 269.931 197.795 268.974 193.684 266.58L49.3166 187.591C44.6928 185.198 42.6377 181.847 42.6377 178.017C42.6377 173.708 46.234 169.4 51.8855 166.049L134.602 121.528C145.391 115.783 161.317 115.305 170.565 120.092L314.933 198.602C321.098 201.953 325.208 204.825 325.208 208.655C325.208 211.527 323.153 213.921 319.043 215.836L229.648 265.144C223.483 268.016 216.29 269.931 209.097 269.931ZM195.739 263.229C203.96 267.538 218.345 267.059 227.593 261.793L316.988 213.442C320.07 212.006 321.612 210.57 321.612 209.134C321.612 206.74 315.447 203.389 312.878 201.953L168.51 123.922C160.29 119.613 145.904 120.092 136.657 125.358L53.9405 169.879C49.3166 172.272 46.234 175.145 46.234 178.496C46.234 180.889 47.7753 183.283 50.8579 184.719L195.739 263.229Z" fill="white" stroke="black" mask="url(#path-37-inside-37)"/>
<mask id="path-38-inside-38" fill="white">
<path d="M78.0937 300.57L51.3779 237.857L54.9743 236.9L79.635 295.782L187.525 238.336L155.158 180.411L149.507 81.3159H153.103L158.755 179.932L192.149 239.293L78.0937 300.57Z"/>
</mask>
<path d="M78.0937 300.57L51.3779 237.857L54.9743 236.9L79.635 295.782L187.525 238.336L155.158 180.411L149.507 81.3159H153.103L158.755 179.932L192.149 239.293L78.0937 300.57Z" fill="white" stroke="black" mask="url(#path-38-inside-38)"/>
<mask id="path-39-inside-39" fill="white">
<path d="M120.22 15.2559L14.3841 72.2235C12.8428 73.181 9.76024 73.181 8.21895 71.7448C6.16389 71.2661 5.13636 67.9151 6.67765 66.9576L116.623 7.59642C118.165 6.63898 121.761 14.2985 120.22 15.2559Z"/>
</mask>
<path d="M120.22 15.2559L14.3841 72.2235C12.8428 73.181 9.76024 73.181 8.21895 71.7448C6.16389 71.2661 5.13636 67.9151 6.67765 66.9576L116.623 7.59642C118.165 6.63898 121.761 14.2985 120.22 15.2559Z" fill="#FF514D" stroke="black" mask="url(#path-39-inside-39)"/>
<mask id="path-40-inside-40" fill="white">
<path d="M115.599 10.4658C115.599 12.3807 117.14 14.7742 118.681 15.7316C120.223 16.2104 121.764 15.2529 121.764 12.8594C121.764 10.9445 120.223 8.55098 118.681 7.59355C116.626 7.11484 115.599 8.07227 115.599 10.4658Z"/>
</mask>
<path d="M115.599 10.4658C115.599 12.3807 117.14 14.7742 118.681 15.7316C120.223 16.2104 121.764 15.2529 121.764 12.8594C121.764 10.9445 120.223 8.55098 118.681 7.59355C116.626 7.11484 115.599 8.07227 115.599 10.4658Z" fill="#FF514D" stroke="black" mask="url(#path-40-inside-40)"/>
<mask id="path-41-inside-41" fill="white">
<path d="M326.989 172.679L314.379 266.248L317.947 266.669L330.556 173.1L326.989 172.679Z"/>
</mask>
<path d="M326.989 172.679L314.379 266.248L317.947 266.669L330.556 173.1L326.989 172.679Z" fill="white" stroke="black" mask="url(#path-41-inside-41)"/>
<mask id="path-42-inside-42" fill="white">
<path d="M165.77 44.0264L51.6338 103.952L53.3992 106.872L167.535 46.9458L165.77 44.0264Z"/>
</mask>
<path d="M165.77 44.0264L51.6338 103.952L53.3992 106.872L167.535 46.9458L165.77 44.0264Z" fill="white" stroke="black" mask="url(#path-42-inside-42)"/>
<mask id="path-43-inside-43" fill="white">
<path d="M40.7397 141.385L37.1768 141.841L51.1608 237.66L54.7238 237.204L40.7397 141.385Z"/>
</mask>
<path d="M40.7397 141.385L37.1768 141.841L51.1608 237.66L54.7238 237.204L40.7397 141.385Z" fill="white" stroke="black" mask="url(#path-43-inside-43)"/>
<mask id="path-44-inside-44" fill="white">
<path d="M20.0381 94.7198C20.0381 94.7198 3.59766 76.0499 3.59766 65.0393C3.59766 56.9011 9.24907 59.2947 16.9555 65.5181C22.0932 69.3478 28.7721 76.0499 28.7721 76.0499L20.0381 94.7198Z"/>
</mask>
<path d="M20.0381 94.7198C20.0381 94.7198 3.59766 76.0499 3.59766 65.0393C3.59766 56.9011 9.24907 59.2947 16.9555 65.5181C22.0932 69.3478 28.7721 76.0499 28.7721 76.0499L20.0381 94.7198Z" fill="#FF9494" stroke="black" mask="url(#path-44-inside-44)"/>
<mask id="path-45-inside-45" fill="white">
<path d="M2.05762 62.1674L5.14021 60.2526L28.7734 75.5715L25.177 77.4863L2.05762 62.1674Z"/>
</mask>
<path d="M2.05762 62.1674L5.14021 60.2526L28.7734 75.5715L25.177 77.4863L2.05762 62.1674Z" fill="#FF9494" stroke="black" mask="url(#path-45-inside-45)"/>
<mask id="path-46-inside-46" fill="white">
<path d="M16.4405 96.6353C16.4405 96.6353 0 77.9651 0 66.9544C0 58.8162 5.65141 61.2098 13.3579 67.4332C18.4955 71.263 25.1745 77.9651 25.1745 77.9651L16.4405 96.6353Z"/>
</mask>
<path d="M16.4405 96.6353C16.4405 96.6353 0 77.9651 0 66.9544C0 58.8162 5.65141 61.2098 13.3579 67.4332C18.4955 71.263 25.1745 77.9651 25.1745 77.9651L16.4405 96.6353Z" fill="#FF514D" stroke="black" mask="url(#path-46-inside-46)"/>
<mask id="path-47-inside-47" fill="white">
<path d="M28.7718 75.5709L25.1754 77.4858L16.4414 96.6346L20.0378 94.7197L28.7718 75.5709Z"/>
</mask>
<path d="M28.7718 75.5709L25.1754 77.4858L16.4414 96.6346L20.0378 94.7197L28.7718 75.5709Z" fill="#ED3A3A" stroke="black" mask="url(#path-47-inside-47)"/>
<mask id="path-48-inside-48" fill="white">
<path d="M54.4623 104.773C52.4073 99.5074 41.6182 90.4118 31.3429 81.7948C28.7741 79.88 29.2879 79.88 27.2328 77.9651C26.719 79.4012 25.6915 79.88 25.1777 81.3161C27.2328 82.7523 26.719 82.7523 28.7741 84.6672C38.0219 92.3267 49.3247 101.901 50.866 106.21C52.921 111.954 66.7927 204.826 73.9854 253.176L77.5818 252.698C76.5542 246.953 57.0312 111.954 54.4623 104.773Z"/>
</mask>
<path d="M54.4623 104.773C52.4073 99.5074 41.6182 90.4118 31.3429 81.7948C28.7741 79.88 29.2879 79.88 27.2328 77.9651C26.719 79.4012 25.6915 79.88 25.1777 81.3161C27.2328 82.7523 26.719 82.7523 28.7741 84.6672C38.0219 92.3267 49.3247 101.901 50.866 106.21C52.921 111.954 66.7927 204.826 73.9854 253.176L77.5818 252.698C76.5542 246.953 57.0312 111.954 54.4623 104.773Z" fill="white" stroke="black" mask="url(#path-48-inside-48)"/>
<mask id="path-49-inside-49" fill="white">
<path d="M21.0648 91.8483C20.0373 92.327 20.0373 93.7631 19.0098 94.7206L33.9089 114.348L37.5053 142.114L41.1016 141.635L36.9915 113.391L21.0648 91.8483Z"/>
</mask>
<path d="M21.0648 91.8483C20.0373 92.327 20.0373 93.7631 19.0098 94.7206L33.9089 114.348L37.5053 142.114L41.1016 141.635L36.9915 113.391L21.0648 91.8483Z" fill="white" stroke="black" mask="url(#path-49-inside-49)"/>
<mask id="path-50-inside-50" fill="white">
<path d="M27.7449 79.4011C27.7449 80.3586 27.2312 81.3161 26.2037 81.3161C25.6899 81.7948 24.6624 81.3161 25.1762 80.3586C25.1762 79.4011 25.6899 78.4437 26.7174 78.4437C26.7174 77.9649 27.7449 78.4437 27.7449 79.4011Z"/>
</mask>
<path d="M27.7449 79.4011C27.7449 80.3586 27.2312 81.3161 26.2037 81.3161C25.6899 81.7948 24.6624 81.3161 25.1762 80.3586C25.1762 79.4011 25.6899 78.4437 26.7174 78.4437C26.7174 77.9649 27.7449 78.4437 27.7449 79.4011Z" fill="white" stroke="black" mask="url(#path-50-inside-50)"/>
<mask id="path-51-inside-51" fill="white">
<path d="M21.0634 92.8046C21.0634 93.7621 20.5496 94.7195 19.5221 94.7195C19.0083 95.1983 17.9807 94.7195 18.4945 93.7621C18.4945 92.8046 19.0083 91.8471 20.0358 91.8471C20.5496 91.3684 21.0634 91.8471 21.0634 92.8046Z"/>
</mask>
<path d="M21.0634 92.8046C21.0634 93.7621 20.5496 94.7195 19.5221 94.7195C19.0083 95.1983 17.9807 94.7195 18.4945 93.7621C18.4945 92.8046 19.0083 91.8471 20.0358 91.8471C20.5496 91.3684 21.0634 91.8471 21.0634 92.8046Z" fill="white" stroke="black" mask="url(#path-51-inside-51)"/>
</svg>
