<svg width="331" height="369" viewBox="0 0 331 369" fill="none" xmlns="http://www.w3.org/2000/svg">
<mask id="path-1-inside-1" fill="white">
<path d="M311.34 227.325L308.772 225.889C307.744 226.847 306.717 227.325 305.689 228.283L309.285 230.198C311.34 231.634 317.506 234.506 317.506 237.378C317.506 238.814 315.964 239.772 313.396 241.687L226.569 288.123C217.322 292.91 203.45 293.389 195.743 289.559L55.9995 213.442C52.9169 212.006 51.3756 209.613 51.3756 207.219C51.3756 204.347 53.9445 200.996 58.5683 198.602L63.706 195.73C63.1922 194.772 62.6785 193.815 62.1647 192.379L56.5133 195.73C50.8619 198.602 47.7793 202.91 47.7793 207.219C47.7793 211.049 50.3481 213.921 54.4582 216.315L194.202 292.431C198.312 294.825 203.45 295.782 209.615 295.782C216.294 295.782 223.487 294.346 229.138 291.474L315.964 245.038C320.074 242.644 322.13 240.729 322.13 237.857C321.616 233.549 317.506 230.676 311.34 227.325Z"/>
</mask>
<path d="M311.34 227.325L308.772 225.889C307.744 226.847 306.717 227.325 305.689 228.283L309.285 230.198C311.34 231.634 317.506 234.506 317.506 237.378C317.506 238.814 315.964 239.772 313.396 241.687L226.569 288.123C217.322 292.91 203.45 293.389 195.743 289.559L55.9995 213.442C52.9169 212.006 51.3756 209.613 51.3756 207.219C51.3756 204.347 53.9445 200.996 58.5683 198.602L63.706 195.73C63.1922 194.772 62.6785 193.815 62.1647 192.379L56.5133 195.73C50.8619 198.602 47.7793 202.91 47.7793 207.219C47.7793 211.049 50.3481 213.921 54.4582 216.315L194.202 292.431C198.312 294.825 203.45 295.782 209.615 295.782C216.294 295.782 223.487 294.346 229.138 291.474L315.964 245.038C320.074 242.644 322.13 240.729 322.13 237.857C321.616 233.549 317.506 230.676 311.34 227.325Z" fill="white" stroke="black" mask="url(#path-1-inside-1)"/>
<mask id="path-2-inside-2" fill="white">
<path d="M210.132 233.549H206.536V321.154H210.132V233.549Z"/>
</mask>
<path d="M210.132 233.549H206.536V321.154H210.132V233.549Z" fill="white" stroke="black" mask="url(#path-2-inside-2)"/>
<mask id="path-3-inside-3" fill="white">
<path d="M314.939 199.56L313.911 199.081C312.884 200.039 311.342 200.517 310.315 201.475L312.884 202.911C315.452 204.347 321.618 207.698 321.618 210.092C321.618 211.528 320.076 212.964 316.994 214.4L227.599 261.793C218.351 266.581 203.452 267.538 195.745 263.23L51.3776 184.719C48.2951 183.283 46.24 180.89 46.24 178.496C46.24 175.624 48.8088 172.273 53.4327 169.879L57.5428 167.486C57.029 166.528 56.5153 165.571 56.0015 164.135L51.3776 166.528C45.7262 169.879 42.1299 174.188 42.1299 178.496C42.1299 182.326 44.6987 185.677 48.8088 188.071L193.177 266.581C197.287 268.974 202.938 269.932 208.589 269.932C215.782 269.932 222.975 268.496 228.626 265.144L318.021 216.794C322.131 214.4 324.186 212.007 324.186 209.613C325.214 205.783 321.104 202.911 314.939 199.56Z"/>
</mask>
<path d="M314.939 199.56L313.911 199.081C312.884 200.039 311.342 200.517 310.315 201.475L312.884 202.911C315.452 204.347 321.618 207.698 321.618 210.092C321.618 211.528 320.076 212.964 316.994 214.4L227.599 261.793C218.351 266.581 203.452 267.538 195.745 263.23L51.3776 184.719C48.2951 183.283 46.24 180.89 46.24 178.496C46.24 175.624 48.8088 172.273 53.4327 169.879L57.5428 167.486C57.029 166.528 56.5153 165.571 56.0015 164.135L51.3776 166.528C45.7262 169.879 42.1299 174.188 42.1299 178.496C42.1299 182.326 44.6987 185.677 48.8088 188.071L193.177 266.581C197.287 268.974 202.938 269.932 208.589 269.932C215.782 269.932 222.975 268.496 228.626 265.144L318.021 216.794C322.131 214.4 324.186 212.007 324.186 209.613C325.214 205.783 321.104 202.911 314.939 199.56Z" fill="white" stroke="black" mask="url(#path-3-inside-3)"/>
<mask id="path-4-inside-4" fill="white">
<path d="M323.159 167.485C325.728 168.922 326.755 170.836 326.755 172.751C326.755 175.624 324.186 178.496 320.076 180.89L230.167 227.804C221.433 232.591 207.562 233.07 199.855 229.24L45.7261 146.9C42.6435 145.943 41.1022 143.549 41.1022 141.156C41.1022 138.283 43.671 135.411 47.7811 133.018L64.2216 124.401C64.2216 123.922 64.2216 123.922 64.2216 123.443C64.2216 122.486 63.7078 121.528 63.7078 121.05L46.2399 130.145C40.5884 133.018 37.5059 137.326 37.5059 141.156C37.5059 144.507 39.5609 147.858 43.671 150.251L197.8 232.591C201.91 234.506 207.048 235.942 212.699 235.942C219.378 235.942 226.057 234.506 231.709 231.634L321.617 184.719C327.269 181.847 330.351 177.538 330.351 173.709C330.351 171.315 329.324 168.922 327.269 167.007C325.728 167.007 324.7 167.007 323.159 167.485Z"/>
</mask>
<path d="M323.159 167.485C325.728 168.922 326.755 170.836 326.755 172.751C326.755 175.624 324.186 178.496 320.076 180.89L230.167 227.804C221.433 232.591 207.562 233.07 199.855 229.24L45.7261 146.9C42.6435 145.943 41.1022 143.549 41.1022 141.156C41.1022 138.283 43.671 135.411 47.7811 133.018L64.2216 124.401C64.2216 123.922 64.2216 123.922 64.2216 123.443C64.2216 122.486 63.7078 121.528 63.7078 121.05L46.2399 130.145C40.5884 133.018 37.5059 137.326 37.5059 141.156C37.5059 144.507 39.5609 147.858 43.671 150.251L197.8 232.591C201.91 234.506 207.048 235.942 212.699 235.942C219.378 235.942 226.057 234.506 231.709 231.634L321.617 184.719C327.269 181.847 330.351 177.538 330.351 173.709C330.351 171.315 329.324 168.922 327.269 167.007C325.728 167.007 324.7 167.007 323.159 167.485Z" fill="white" stroke="black" mask="url(#path-4-inside-4)"/>
<mask id="path-5-inside-5" fill="white">
<path d="M192.663 225.889C192.663 225.889 192.149 238.815 198.314 242.644C204.479 246.474 215.269 248.868 223.489 242.166C230.682 236.9 227.599 229.719 227.599 229.719C227.599 229.719 216.81 233.549 208.59 231.634C199.856 229.719 192.663 225.889 192.663 225.889Z"/>
</mask>
<path d="M192.663 225.889C192.663 225.889 192.149 238.815 198.314 242.644C204.479 246.474 215.269 248.868 223.489 242.166C230.682 236.9 227.599 229.719 227.599 229.719C227.599 229.719 216.81 233.549 208.59 231.634C199.856 229.719 192.663 225.889 192.663 225.889Z" fill="#FF514D" stroke="black" mask="url(#path-5-inside-5)"/>
<mask id="path-6-inside-6" fill="white">
<path d="M324.187 164.135C323.16 164.135 321.104 166.528 321.104 166.528C321.104 166.528 323.16 167.007 325.728 169.879C327.783 172.273 327.783 175.624 325.728 177.539C324.187 179.454 322.132 180.89 322.132 180.89C322.132 180.89 323.16 183.762 323.673 186.634C324.187 189.985 329.325 185.677 329.325 185.677C329.325 185.677 331.38 177.539 330.352 172.751C329.839 167.007 324.187 164.135 324.187 164.135Z"/>
</mask>
<path d="M324.187 164.135C323.16 164.135 321.104 166.528 321.104 166.528C321.104 166.528 323.16 167.007 325.728 169.879C327.783 172.273 327.783 175.624 325.728 177.539C324.187 179.454 322.132 180.89 322.132 180.89C322.132 180.89 323.16 183.762 323.673 186.634C324.187 189.985 329.325 185.677 329.325 185.677C329.325 185.677 331.38 177.539 330.352 172.751C329.839 167.007 324.187 164.135 324.187 164.135Z" fill="#FF514D" stroke="black" mask="url(#path-6-inside-6)"/>
</svg>
