<svg width="338" height="331" viewBox="0 0 338 331" fill="none" xmlns="http://www.w3.org/2000/svg">
<path d="M141.109 102.217L334.343 213.733C338.548 216.11 338.548 219.949 334.343 222.508L215.697 291.063C211.493 293.44 204.729 293.44 200.707 291.063L7.47287 179.547C3.26816 177.171 3.26816 173.332 7.47287 170.772L126.119 102.217C130.323 99.8407 137.088 99.8407 141.109 102.217Z" fill="#F6CA13"/>
<path d="M208.203 293.257C205.46 293.257 202.535 292.709 200.524 291.429L7.29062 179.913C5.09686 178.633 4 176.988 4 175.16C4 173.332 5.09686 171.686 7.29062 170.407L125.936 101.852C130.141 99.475 137.088 99.2922 141.476 101.852L334.709 213.368C336.903 214.647 338 216.293 338 218.121C338 219.949 336.903 221.594 334.709 222.874L215.881 291.429C213.87 292.526 210.945 293.257 208.203 293.257ZM133.615 100.938C131.055 100.938 128.313 101.486 126.302 102.766L7.65627 171.321C5.82813 172.418 4.73124 173.88 4.73124 175.343C4.73124 176.805 5.82813 178.268 7.65627 179.365L200.89 290.881C204.912 293.257 211.493 293.257 215.515 290.881L334.161 222.326C335.989 221.229 337.086 219.766 337.086 218.304C337.086 216.841 335.989 215.379 334.161 214.282L140.927 102.766C138.916 101.486 136.357 100.938 133.615 100.938Z" fill="black"/>
<path d="M78.4053 168.578L94.1272 155.599L112.409 163.094L96.6866 176.074L92.1163 174.246L104.73 163.825L95.4069 159.986L82.7928 170.406L78.4053 168.578Z" fill="#1D1D1B"/>
<path d="M123.743 167.665C124.84 168.03 125.937 168.579 126.669 169.127C127.4 169.676 127.948 170.407 128.131 171.138C128.497 172.418 127.948 173.88 126.486 174.977C125.754 175.526 125.023 176.074 124.109 176.44C123.195 176.805 122.098 176.988 120.818 177.171C119.539 177.171 118.076 177.171 116.797 176.988C115.517 176.805 114.237 176.44 113.14 175.891L109.667 174.429L104.182 178.816L99.7949 176.988L115.517 164.008L123.743 167.665ZM116.248 173.697C116.614 173.88 117.162 174.063 117.711 174.063C118.259 174.063 118.808 174.246 119.356 174.063C119.904 174.063 120.453 173.88 120.818 173.697C121.367 173.515 121.733 173.332 121.915 172.966C122.281 172.783 122.464 172.418 122.647 172.235C122.829 172.052 122.829 171.686 122.647 171.321C122.464 170.955 122.281 170.772 122.098 170.407C121.733 170.224 121.367 169.858 121.001 169.858L117.162 168.213L112.592 171.869L116.248 173.697Z" fill="#1D1D1B"/>
<path d="M161.037 205.872L164.144 203.313L142.39 194.538L158.112 181.558L162.682 183.386L150.068 193.807L155.187 195.818L167.801 185.397L172.371 187.225L159.757 197.646L165.059 199.839L177.673 189.419L182.243 191.247L169.629 201.668L172.005 202.582L165.79 207.7L161.037 205.872Z" fill="#1D1D1B"/>
<path d="M170.544 205.872L186.266 192.892L201.439 199.108L198.514 201.485L187.911 197.097L184.621 199.839L194.492 203.861L191.567 206.238L181.696 202.216L178.222 205.141L188.825 209.528L185.9 211.905L170.544 205.872Z" fill="#1D1D1B"/>
<path d="M80.7827 171.686L81.8795 172.235L76.7608 176.439L75.6639 176.074L77.3092 174.611C76.5779 174.428 76.0295 174.428 75.4811 174.063C75.1154 173.88 74.7498 173.88 74.567 173.514C74.3842 173.331 74.2014 173.149 74.0186 172.783C74.0186 172.6 74.0186 172.235 74.0186 172.052C74.2014 171.869 74.3842 171.686 74.567 171.503L76.3951 170.041L77.492 170.406L75.8467 171.686C75.4811 171.869 75.2983 172.235 75.2983 172.6C75.4811 172.783 75.6639 173.149 76.2123 173.331C76.7608 173.514 77.492 173.697 78.0405 173.697L80.7827 171.686Z" fill="#575756"/>
<path d="M78.2227 176.805L83.1586 172.6L87.7289 174.428L86.9977 174.977L83.5243 173.514L82.2445 174.611L85.5352 175.891L84.8039 176.439L81.6961 175.16L80.2336 176.257L83.7071 177.719L82.9758 178.268L78.2227 176.805Z" fill="#575756"/>
<path d="M83.707 178.999L88.643 174.794L89.1914 174.977V178.633L95.2243 177.353L95.7727 177.536L90.8368 181.741L89.7399 181.375L93.0305 178.816L88.2774 179.913L87.9117 179.73V176.805L84.6211 179.547L83.707 178.999Z" fill="#575756"/>
<path d="M101.075 184.3C100.892 184.483 100.709 184.666 100.343 184.666C99.9778 184.849 99.795 184.849 99.4293 184.849C99.0637 184.849 98.6981 184.849 98.3324 184.849C97.9668 184.849 97.6012 184.666 97.4184 184.666L94.3105 183.386L99.4293 179.181L102.354 180.278C102.72 180.461 102.903 180.461 103.086 180.644C103.268 180.827 103.451 181.01 103.451 181.192C103.451 181.375 103.451 181.558 103.451 181.741C103.451 181.924 103.268 182.106 103.086 182.106C102.903 182.289 102.537 182.472 102.172 182.472C101.806 182.472 101.44 182.655 101.075 182.472C101.44 182.655 101.623 183.02 101.623 183.203C101.623 183.752 101.44 184.117 101.075 184.3ZM99.7949 180.278L98.5153 181.375L100.161 182.106C100.343 182.106 100.343 182.289 100.526 182.289C100.709 182.289 100.892 182.289 101.075 182.289C101.257 182.289 101.44 182.289 101.623 182.289C101.806 182.289 101.806 182.106 101.989 182.106L102.172 181.924V181.741L101.989 181.558C101.806 181.558 101.806 181.375 101.623 181.375L99.7949 180.278ZM97.9668 183.935C98.1496 183.935 98.3324 184.117 98.5153 184.117C98.6981 184.117 98.8809 184.117 99.0637 184.117C99.2465 184.117 99.4293 184.117 99.6121 183.935C99.7949 183.752 99.9778 183.752 99.9778 183.752C100.161 183.569 100.161 183.569 100.161 183.386C100.161 183.203 100.161 183.203 100.161 183.02C100.161 182.838 99.9778 182.838 99.7949 182.655C99.6121 182.655 99.4293 182.472 99.2465 182.472L97.6012 181.741L96.1387 183.02L97.9668 183.935Z" fill="#575756"/>
<path d="M106.376 184.117C106.925 184.3 107.29 184.483 107.473 184.849C107.656 185.214 107.839 185.58 107.656 185.763C107.473 186.128 107.29 186.494 106.925 186.677C106.559 186.86 106.011 187.043 105.462 187.225C105.097 187.225 104.548 187.225 104.183 187.225C103.817 187.225 103.451 187.042 103.086 186.86L100.526 185.763L105.462 181.558L106.559 181.924L104.731 183.386L106.376 184.117ZM103.817 186.311C104 186.494 104.183 186.494 104.365 186.494C104.548 186.494 104.731 186.494 105.097 186.494C105.28 186.494 105.462 186.494 105.828 186.311C106.011 186.311 106.194 186.128 106.376 185.946C106.559 185.763 106.559 185.763 106.559 185.58C106.559 185.397 106.559 185.397 106.559 185.214C106.559 185.032 106.376 185.032 106.194 184.849C106.011 184.666 105.828 184.666 105.645 184.666L104.183 184.117L102.355 185.58L103.817 186.311ZM111.678 184.117L112.775 184.483L107.839 188.688L106.742 188.139L111.678 184.117Z" fill="#575756"/>
<path d="M117.344 191.613L118.076 191.979L116.247 193.441L115.151 192.893L116.065 192.161L111.677 190.333L110.58 191.247L109.483 190.882L111.312 189.419L111.86 189.602C112.408 189.419 112.957 189.236 113.505 189.054C114.419 188.688 115.151 188.139 115.882 187.774L117.527 186.677L121.549 188.322L117.344 191.613ZM116.247 191.247L119.721 188.322L117.71 187.591L117.344 187.774C116.065 188.688 114.785 189.419 113.14 189.968L116.247 191.247Z" fill="#575756"/>
<path d="M117.894 192.71L118.625 192.161C118.808 192.344 118.99 192.344 119.173 192.527C119.356 192.527 119.539 192.71 119.722 192.71C119.905 192.71 120.087 192.71 120.27 192.71C120.636 192.71 121.184 192.527 121.55 192.344L122.647 188.688L123.926 189.236L123.012 191.979L127.034 190.516L128.314 191.065L126.303 191.796C124.658 192.344 123.378 192.893 122.281 193.258C121.733 193.441 121.001 193.624 120.453 193.624C120.087 193.624 119.722 193.624 119.539 193.624C119.173 193.624 118.99 193.441 118.625 193.441C118.259 193.076 118.076 192.893 117.894 192.71Z" fill="#575756"/>
<path d="M123.742 195.269L128.678 191.064L129.227 191.247V194.903L135.259 193.624L135.808 193.806L130.872 198.011L129.775 197.646L133.066 195.086L128.313 196.183L127.947 196V193.075L124.656 195.635L123.742 195.269Z" fill="#575756"/>
<path d="M136.723 200.388L137.272 199.108L134.712 198.011L132.884 198.742L131.604 198.194L139.283 195.269L140.014 195.635L137.82 200.936L136.723 200.388ZM138.551 196.549L135.809 197.646L137.82 198.377L138.551 196.549Z" fill="#575756"/>
<path d="M138.552 201.119L143.488 196.915L148.058 198.743L147.327 199.291L143.853 197.829L142.574 198.926L145.864 200.205L145.133 200.754L142.025 199.474L140.563 200.571L144.036 202.033L143.305 202.582L138.552 201.119Z" fill="#575756"/>
<path d="M149.886 200.571L147.875 199.657L148.606 199.108L153.908 201.302L153.177 201.851L151.166 200.937L146.961 204.41L145.864 203.862L149.886 200.571Z" fill="#575756"/>
<path d="M149.336 205.507L154.272 201.302L158.842 203.13L158.111 203.679L154.638 202.216L153.358 203.313L156.466 204.593L155.734 205.141L152.444 203.861L150.981 204.958L154.455 206.421L153.723 206.969L149.336 205.507Z" fill="#575756"/>
<path fill-rule="evenodd" clip-rule="evenodd" d="M126.12 176.988C127.948 175.708 130.507 174.977 133.249 174.428C135.992 174.063 138.917 174.063 141.659 174.611C144.401 175.16 146.595 176.257 148.423 177.536C150.068 178.816 151.165 180.461 151.165 182.107C151.348 183.752 150.617 185.397 149.154 186.86C147.692 188.322 145.498 189.419 142.939 190.15C140.379 190.882 137.454 191.064 134.712 190.882C131.97 190.699 129.228 189.968 127.217 188.871C124.474 187.408 122.646 185.397 122.463 183.203C122.281 180.644 123.56 178.633 126.12 176.988Z" fill="#1D1D1B"/>
<path fill-rule="evenodd" clip-rule="evenodd" d="M129.41 178.633C130.689 177.719 132.517 177.171 134.345 176.988C136.356 176.805 138.367 176.805 140.196 177.171C142.024 177.536 143.669 178.267 144.949 179.182C146.046 180.096 146.777 181.192 146.96 182.289C146.96 183.386 146.594 184.483 145.497 185.58C144.4 186.494 142.938 187.408 141.11 187.774C139.281 188.322 137.27 188.505 135.26 188.322C133.249 188.139 131.42 187.591 129.958 186.86C127.947 185.763 126.85 184.3 126.85 182.838C126.667 181.192 127.581 179.73 129.41 178.633Z" fill="white"/>
<path fill-rule="evenodd" clip-rule="evenodd" d="M129.958 181.01C130.69 180.644 131.604 180.278 132.518 180.096C133.432 179.913 134.529 179.913 135.626 180.096C136.54 180.278 137.454 180.644 138.002 181.192C138.551 181.741 138.916 182.289 139.099 182.838C139.099 183.386 138.916 184.118 138.368 184.483C137.819 185.032 137.088 185.397 136.174 185.58C135.26 185.763 134.163 185.946 133.249 185.763C132.152 185.763 131.238 185.397 130.507 185.032C129.958 184.849 129.593 184.483 129.227 184.117C128.862 183.752 128.679 183.386 128.679 183.021C128.679 182.655 128.679 182.289 129.044 181.924C129.044 181.741 129.41 181.375 129.958 181.01Z" fill="#FDC300"/>
<path d="M130.507 183.935C130.689 183.935 130.689 183.935 130.507 183.935C130.507 184.118 130.507 184.118 130.324 184.118H130.141C130.141 184.118 129.958 184.118 129.958 183.935C129.593 183.569 129.593 183.021 129.775 182.655C129.958 182.29 130.324 181.741 130.872 181.375C130.872 181.375 130.872 181.375 131.055 181.375C131.238 181.375 131.055 181.375 131.238 181.375C131.238 181.375 131.238 181.375 131.421 181.375C131.603 181.375 131.421 181.375 131.603 181.375C131.603 181.375 131.786 181.375 131.786 181.558V181.741C131.421 182.107 131.055 182.29 130.872 182.655C130.141 183.204 130.324 183.569 130.507 183.935Z" fill="white"/>
<path fill-rule="evenodd" clip-rule="evenodd" d="M183.706 216.11C182.426 221.229 183.888 226.53 187.727 231.283C191.567 236.036 197.965 239.876 205.643 242.435C213.504 244.994 222.279 246.274 231.42 246.091C240.378 245.726 249.153 243.897 256.283 240.79C263.412 237.682 268.897 233.294 271.822 228.358C274.747 223.422 275.112 218.121 272.919 213.002C270.725 207.883 265.789 203.496 259.208 200.022C252.443 196.549 244.034 194.355 235.259 193.624C223.376 192.71 211.128 194.538 201.438 198.743C191.749 202.947 185.351 209.163 183.706 216.11Z" fill="#1D1D1B"/>
<path fill-rule="evenodd" clip-rule="evenodd" d="M189.374 216.476C188.277 221.046 189.556 225.616 192.847 229.638C196.32 233.66 201.622 237.134 208.386 239.51C215.15 241.887 223.011 242.984 230.689 242.618C238.55 242.435 246.046 240.79 252.261 238.048C258.477 235.305 263.23 231.649 265.79 227.262C268.349 223.057 268.715 218.304 266.704 213.916C264.693 209.529 260.488 205.507 254.638 202.582C248.788 199.657 241.475 197.646 233.797 196.915C223.377 196 212.774 197.646 204.364 201.302C195.955 204.958 190.836 210.443 189.374 216.476Z" fill="white"/>
<path fill-rule="evenodd" clip-rule="evenodd" d="M256.1 228.907C259.025 227.81 261.401 226.165 262.864 224.154C264.326 222.326 264.692 220.132 263.96 218.121C263.229 216.11 261.584 214.282 259.025 212.82C256.465 211.357 253.357 210.26 249.701 209.894C246.228 209.529 242.571 209.712 239.281 210.443C235.99 211.174 233.065 212.637 231.054 214.282C229.043 215.927 227.946 217.938 227.946 220.132C227.946 222.143 229.043 224.154 231.054 225.982C233.796 228.359 237.818 229.821 242.571 230.37C247.142 231.101 252.078 230.552 256.1 228.907Z" fill="#FDC300"/>
<path d="M233.979 221.229C233.979 221.411 233.979 221.594 233.796 221.777C233.614 221.96 233.431 221.96 233.065 221.96C232.7 221.96 232.517 221.96 232.151 221.777C231.968 221.594 231.786 221.594 231.786 221.411C231.42 219.766 231.786 218.304 232.882 216.841C233.979 215.379 235.807 214.099 238.001 213.368C238.184 213.368 238.184 213.368 238.367 213.185C238.55 213.185 238.732 213.185 238.732 213.185C238.915 213.185 239.098 213.185 239.098 213.368C239.281 213.368 239.281 213.55 239.464 213.55L239.647 213.733V213.916C239.647 213.916 239.646 214.099 239.464 214.099C239.464 214.099 239.281 214.282 239.098 214.282C237.27 215.013 235.625 216.11 234.711 217.207C233.979 218.669 233.796 219.949 233.979 221.229Z" fill="white"/>
<path d="M238.185 225.616C238.368 225.616 238.368 225.799 238.368 225.799L238.551 225.982V226.165L238.368 226.348C238.185 226.348 238.185 226.53 238.002 226.53C237.82 226.53 237.82 226.53 237.637 226.53C237.454 226.53 237.271 226.53 237.271 226.53C237.088 226.53 237.088 226.53 236.905 226.348C236.357 226.165 235.809 225.799 235.443 225.434C234.895 225.068 234.529 224.885 234.163 224.52C233.798 224.154 233.432 223.788 233.249 223.423C233.066 223.423 233.066 223.24 233.066 223.24C233.066 223.057 233.066 223.057 233.066 222.874C233.066 222.691 233.249 222.691 233.249 222.691C233.432 222.691 233.432 222.509 233.615 222.509C233.798 222.509 233.98 222.509 234.163 222.509C234.346 222.509 234.529 222.509 234.712 222.509C234.895 222.509 235.077 222.691 235.077 222.691C235.26 222.691 235.26 222.874 235.26 222.874C235.443 223.24 235.809 223.423 236.174 223.788C236.54 223.971 236.906 224.337 237.271 224.52C237.271 225.068 237.637 225.251 238.185 225.616Z" fill="white"/>
<path d="M78.4053 168.578L94.1272 155.599L112.409 163.094L96.6866 176.074L92.2991 174.246L104.913 163.825L95.5897 159.986L82.9756 170.406L78.4053 168.578Z" fill="#1D1D1B"/>
<path d="M123.743 167.665C124.84 168.03 125.937 168.579 126.669 169.127C127.4 169.676 127.948 170.407 128.131 171.138C128.497 172.418 127.948 173.88 126.486 174.977C125.754 175.526 125.023 176.074 124.109 176.44C123.195 176.805 122.098 176.988 120.818 177.171C118.076 177.354 115.334 176.805 113.14 175.891L109.667 174.429L104.365 178.816L99.7949 176.988L115.517 164.008L123.743 167.665ZM116.065 173.697C116.431 173.88 116.979 174.063 117.528 174.063C118.076 174.246 118.625 174.246 119.173 174.063C119.722 174.063 120.27 173.88 120.636 173.697C121.184 173.515 121.55 173.332 121.733 172.966C122.098 172.783 122.281 172.418 122.464 172.235C122.647 172.052 122.647 171.686 122.464 171.321C122.281 170.955 122.098 170.772 121.915 170.407C121.55 170.224 121.184 169.858 120.818 169.858L116.979 168.213L112.409 171.869L116.065 173.697Z" fill="#1D1D1B"/>
<path d="M161.037 205.872L164.144 203.313L142.39 194.538L158.112 181.558L162.682 183.386L150.068 193.807L155.187 195.818L167.801 185.397L172.371 187.225L159.757 197.646L165.059 199.839L177.673 189.419L182.243 191.247L169.629 201.668L172.005 202.582L165.79 207.7L161.037 205.872Z" fill="#1D1D1B"/>
<path d="M170.544 205.872L186.266 192.892L201.439 198.925L198.514 201.302L187.911 196.914L184.621 199.656L194.492 203.678L191.567 206.055L181.696 202.033L178.222 204.958L188.825 209.346L185.9 211.722L170.544 205.872Z" fill="#1D1D1B"/>
<path d="M80.7819 171.686L81.8788 172.052L76.76 176.256L75.6631 175.891L77.3084 174.428C76.5772 174.428 76.0287 174.245 75.4803 173.88C75.1147 173.697 74.749 173.697 74.5662 173.514C74.3834 173.331 74.2006 173.149 74.0178 172.783C73.835 172.417 74.0178 172.235 74.0178 172.052C74.2006 171.869 74.3834 171.686 74.5662 171.503L76.3944 170.041L77.4912 170.406L75.8459 171.686C75.4803 171.869 75.2975 172.235 75.2975 172.6C75.2975 172.783 75.4803 172.783 75.6631 172.966C75.8459 173.149 76.0287 173.149 76.2116 173.331C76.76 173.514 77.4913 173.697 78.0397 173.697L80.7819 171.686Z" fill="#575756"/>
<path d="M78.2227 176.805L83.1586 172.6L87.7289 174.428L86.9977 174.977L83.5243 173.514L82.2445 174.611L85.5352 175.891L84.8039 176.439L81.5133 175.16L80.0508 176.257L83.5243 177.719L82.793 178.268L78.2227 176.805Z" fill="#575756"/>
<path d="M83.707 178.999L88.643 174.794L89.1914 174.977V178.633L95.2243 177.353L95.7727 177.536L90.8368 181.741L89.7399 181.375L93.0305 178.816L88.2774 179.913L87.9117 179.73V176.805L84.6211 179.364L83.707 178.999Z" fill="#575756"/>
<path d="M101.256 184.3C101.073 184.483 100.891 184.666 100.525 184.666C100.159 184.849 99.9766 184.849 99.6109 184.849C99.2453 184.849 98.8797 184.849 98.5141 184.849C98.1484 184.849 97.7828 184.666 97.6 184.483L94.4922 183.203L99.6109 178.999L102.536 180.278C102.902 180.461 103.084 180.461 103.267 180.644C103.45 180.827 103.633 181.01 103.633 181.193C103.633 181.375 103.633 181.558 103.633 181.741C103.633 181.924 103.45 182.107 103.267 182.107C103.084 182.289 102.719 182.472 102.353 182.472C101.988 182.472 101.622 182.655 101.256 182.472C101.622 182.655 101.805 183.021 101.805 183.203C101.805 183.752 101.622 184.118 101.256 184.3ZM99.9766 180.278L98.6969 181.375L100.342 182.107C100.525 182.107 100.525 182.289 100.708 182.289C100.891 182.289 101.073 182.289 101.256 182.289C101.439 182.289 101.622 182.289 101.805 182.107C101.988 182.107 101.988 181.924 102.17 181.924L102.353 181.741V181.558L102.17 181.375C101.988 181.375 101.988 181.193 101.805 181.193L99.9766 180.278ZM97.9656 183.935C98.1484 183.935 98.3313 184.118 98.5141 184.118C98.6969 184.118 98.8797 184.118 99.0625 184.118C99.2453 184.118 99.4281 184.118 99.6109 183.935C99.7938 183.935 99.9766 183.752 99.9766 183.752C99.9766 183.752 100.159 183.569 100.159 183.386C100.159 183.203 100.159 183.203 100.159 183.021C100.159 182.838 99.9766 182.838 99.7938 182.655C99.611 182.655 99.4281 182.472 99.2453 182.472L97.6 181.741L96.1375 183.021L97.9656 183.935Z" fill="#575756"/>
<path d="M106.376 184.117C106.925 184.3 107.29 184.483 107.473 184.849C107.656 185.214 107.839 185.58 107.656 185.763C107.473 186.128 107.29 186.494 106.925 186.677C106.559 186.86 106.011 187.043 105.462 187.225C105.097 187.225 104.731 187.225 104.183 187.225C103.817 187.225 103.451 187.042 103.086 186.86L100.526 185.763L105.462 181.558L106.559 181.924L104.731 183.386L106.376 184.117ZM103.817 186.311C104.731 186.677 105.645 186.677 106.194 186.128C106.376 185.946 106.376 185.946 106.376 185.763C106.376 185.58 106.376 185.58 106.376 185.397C106.376 185.214 106.194 185.214 106.011 185.032C105.828 184.849 105.645 184.849 105.462 184.849L104 184.3L102.172 185.763L103.817 186.311ZM111.678 184.117L112.775 184.666L107.839 188.871L106.742 188.505L111.678 184.117Z" fill="#575756"/>
<path d="M117.344 191.613L118.076 191.979L116.247 193.441L115.151 193.076L116.065 192.344L111.677 190.516L110.58 191.43L109.483 191.065L111.312 189.602L111.86 189.785C112.408 189.602 112.957 189.419 113.322 189.236C114.237 188.871 114.968 188.322 115.699 187.957L117.344 186.86L121.366 188.505L117.344 191.613ZM116.247 191.247L119.904 188.322L117.893 187.591L117.527 187.774C116.248 188.688 114.968 189.419 113.322 189.968L116.247 191.247Z" fill="#575756"/>
<path d="M117.894 192.71L118.808 192.161C118.99 192.344 119.173 192.344 119.356 192.527C119.539 192.527 119.722 192.71 119.905 192.71C120.087 192.71 120.27 192.71 120.453 192.71C120.819 192.71 121.367 192.527 121.733 192.344L122.83 188.688L124.109 189.236L123.195 191.979L127.217 190.516L128.497 191.065L126.486 191.796C124.84 192.344 123.561 192.893 122.464 193.258C121.915 193.441 121.184 193.624 120.636 193.624C120.27 193.624 119.905 193.624 119.722 193.624C119.356 193.624 119.173 193.441 118.808 193.441C118.259 193.076 118.076 192.893 117.894 192.71Z" fill="#575756"/>
<path d="M123.742 195.269L128.678 191.064L129.227 191.247V194.903L135.259 193.624L135.808 193.806L130.872 198.011L129.775 197.463L133.066 194.903L128.313 196L127.947 195.817V192.892L124.656 195.452L123.742 195.269Z" fill="#575756"/>
<path d="M136.723 200.388L137.272 199.108L134.712 198.011L132.884 198.742L131.604 198.194L139.283 195.269L140.014 195.635L137.82 200.936L136.723 200.388ZM138.551 196.549L135.809 197.646L137.82 198.377L138.551 196.549Z" fill="#575756"/>
<path d="M138.552 201.119L143.488 196.915L148.058 198.743L147.327 199.291L143.853 197.829L142.574 198.926L145.864 200.205L145.133 200.754L141.842 199.474L140.38 200.571L143.853 202.033L143.122 202.582L138.552 201.119Z" fill="#575756"/>
<path d="M149.886 200.571L147.875 199.657L148.606 199.108L153.908 201.302L153.177 201.851L151.166 200.937L146.961 204.41L145.864 203.862L149.886 200.571Z" fill="#575756"/>
<path d="M149.521 205.507L154.456 201.302L159.027 203.13L158.296 203.679L154.822 202.216L153.542 203.313L156.833 204.593L156.102 205.141L152.811 203.861L151.349 204.958L154.822 206.421L154.091 206.969L149.521 205.507Z" fill="#575756"/>
<path fill-rule="evenodd" clip-rule="evenodd" d="M126.12 176.988C127.948 175.708 130.507 174.977 133.25 174.428C135.992 174.063 138.917 174.063 141.659 174.611C144.401 175.16 146.595 176.257 148.423 177.536C150.069 178.816 151.165 180.461 151.165 182.107C151.348 183.752 150.617 185.397 149.154 186.86C147.692 188.322 145.498 189.419 142.939 190.15C140.379 190.882 137.454 191.064 134.712 190.882C131.97 190.699 129.228 189.968 127.217 188.871C125.754 188.139 124.657 187.225 123.926 186.311C123.195 185.397 122.646 184.3 122.646 183.203C122.646 182.107 122.829 181.01 123.561 179.913C123.926 178.633 124.84 177.719 126.12 176.988Z" fill="#1D1D1B"/>
<path fill-rule="evenodd" clip-rule="evenodd" d="M129.41 178.633C130.689 177.719 132.517 177.171 134.345 176.988C136.356 176.622 138.367 176.805 140.196 177.171C142.024 177.536 143.669 178.268 144.949 179.182C146.046 180.096 146.777 181.193 146.96 182.289C146.96 183.386 146.594 184.483 145.497 185.58C144.4 186.677 142.938 187.408 141.11 187.774C139.281 188.322 137.27 188.505 135.26 188.322C133.249 188.139 131.42 187.591 129.958 186.86C127.947 185.763 126.85 184.3 126.85 182.838C126.667 181.193 127.581 179.73 129.41 178.633Z" fill="white"/>
<path fill-rule="evenodd" clip-rule="evenodd" d="M137.819 177.353C138.733 177.536 139.465 177.719 140.196 178.267C140.744 178.633 141.11 179.181 141.293 179.73C141.476 180.278 141.293 180.827 140.927 181.375C140.562 181.924 139.83 182.289 139.099 182.472C138.368 182.655 137.271 182.838 136.357 182.838C135.443 182.838 134.529 182.655 133.797 182.289C133.066 181.924 132.518 181.558 132.152 181.01C131.787 180.461 131.787 179.913 132.152 179.364C132.335 178.999 132.518 178.633 132.883 178.45C133.249 178.085 133.797 177.902 134.346 177.719C134.894 177.536 135.443 177.353 136.174 177.353C136.54 177.353 137.271 177.353 137.819 177.353Z" fill="#FDC300"/>
<path d="M134.164 178.816C133.981 178.816 133.981 178.816 133.981 178.816C133.981 178.816 133.981 178.816 133.798 178.816C133.798 178.816 133.798 178.816 133.615 178.816C133.615 178.816 133.615 178.816 133.433 178.816C133.981 178.45 134.529 178.268 135.261 178.085C135.992 177.902 136.723 177.902 137.272 178.085H137.455C137.455 178.085 137.455 178.085 137.455 178.268C137.455 178.268 137.455 178.268 137.272 178.45H137.089C136.54 178.268 135.992 178.45 135.261 178.45C135.078 178.268 134.712 178.45 134.164 178.816Z" fill="white"/>
<path fill-rule="evenodd" clip-rule="evenodd" d="M183.706 216.11C182.426 221.229 183.888 226.53 187.727 231.283C191.567 236.036 197.965 239.876 205.643 242.435C213.504 244.994 222.279 246.274 231.42 246.091C240.561 245.908 249.153 243.897 256.283 240.79C263.412 237.682 268.897 233.294 271.822 228.358C274.747 223.422 275.112 218.121 272.919 213.002C270.725 207.883 265.789 203.496 259.208 200.022C252.443 196.549 244.034 194.355 235.259 193.624C223.376 192.71 211.128 194.538 201.438 198.743C191.749 202.947 185.351 209.163 183.706 216.11Z" fill="#1D1D1B"/>
<path fill-rule="evenodd" clip-rule="evenodd" d="M189.374 216.476C188.277 221.046 189.556 225.616 192.847 229.638C196.32 233.66 201.622 237.134 208.386 239.51C215.15 241.887 223.011 242.984 230.689 242.618C238.55 242.435 246.046 240.79 252.261 238.048C258.477 235.305 263.23 231.649 265.79 227.262C268.349 223.057 268.715 218.304 266.704 213.916C264.693 209.529 260.488 205.507 254.638 202.582C248.788 199.657 241.475 197.646 233.797 196.915C223.377 196 212.774 197.646 204.364 201.302C196.503 204.958 191.019 210.443 189.374 216.476Z" fill="white"/>
<path fill-rule="evenodd" clip-rule="evenodd" d="M214.6 217.938C217.159 219.4 220.45 220.314 223.923 220.863C227.397 221.229 231.053 221.046 234.344 220.314C237.634 219.583 240.56 218.121 242.57 216.475C244.581 214.83 245.678 212.819 245.678 210.625C245.678 208.614 244.581 206.603 242.57 204.775C240.56 203.13 237.817 201.668 234.527 200.936C231.236 200.205 227.58 199.839 224.106 200.388C220.633 200.753 217.342 201.85 214.783 203.313C211.309 205.324 209.481 207.883 209.481 210.625C209.298 213.368 211.309 215.927 214.6 217.938Z" fill="#FDC300"/>
<path d="M223.56 204.044C223.195 204.044 223.012 204.044 222.646 204.044C222.463 204.044 222.098 203.861 222.098 203.678V203.496C222.098 203.496 222.098 203.313 222.28 203.313L222.463 203.13C222.646 203.13 222.646 202.947 222.829 202.947C225.388 202.399 228.131 202.216 230.873 202.582C233.615 202.947 235.991 203.678 238.002 204.775C238.185 204.958 238.368 205.141 238.368 205.141C238.368 205.324 238.185 205.507 238.002 205.689C237.82 205.872 237.454 205.872 237.271 205.872C236.906 205.872 236.723 205.872 236.54 205.689C234.895 204.775 232.884 204.044 230.69 203.861C228.131 203.496 225.754 203.496 223.56 204.044Z" fill="white"/>
<path d="M216.979 207.152C216.796 207.335 216.613 207.335 216.43 207.335C216.248 207.335 215.882 207.335 215.699 207.335C215.516 207.335 215.334 207.152 215.151 206.969C214.968 206.787 214.968 206.604 215.151 206.604C215.516 206.238 215.882 205.872 216.248 205.507C216.613 205.141 217.162 204.958 217.527 204.593C218.076 204.227 218.624 204.044 219.173 203.862C219.355 203.679 219.721 203.679 220.087 203.679C220.452 203.679 220.635 203.862 220.818 203.862C221.001 204.044 221.001 204.227 221.001 204.41C221.001 204.593 220.818 204.776 220.635 204.776C220.27 204.958 219.721 205.141 219.355 205.324C218.99 205.507 218.441 205.69 218.076 206.055C217.71 206.604 217.345 206.787 216.979 207.152Z" fill="white"/>
<g opacity="0.3">
<mask id="path-53-inside-1" fill="white">
<path d="M160.346 242.055C142.662 231.874 116.508 229.596 94.96 235.164C87.0942 232.4 78.0378 230.881 68.5715 230.881C55.0259 230.881 42.2806 233.918 32.7168 239.427L16.2435 248.927C6.25021 254.651 0.765625 262.476 0.765625 270.906C0.765625 279.335 6.25021 287.141 16.2435 292.904L67.6737 322.455C77.2375 327.964 89.9829 331.001 103.528 331.001C117.074 331.001 129.8 327.964 139.403 322.455L155.876 312.955C165.85 307.212 171.354 299.406 171.354 290.976C171.354 288.193 170.749 285.487 169.597 282.897C182.635 269.971 179.571 253.132 160.346 242.055Z"/>
</mask>
<path d="M160.346 242.055C142.662 231.874 116.508 229.596 94.96 235.164C87.0942 232.4 78.0378 230.881 68.5715 230.881C55.0259 230.881 42.2806 233.918 32.7168 239.427L16.2435 248.927C6.25021 254.651 0.765625 262.476 0.765625 270.906C0.765625 279.335 6.25021 287.141 16.2435 292.904L67.6737 322.455C77.2375 327.964 89.9829 331.001 103.528 331.001C117.074 331.001 129.8 327.964 139.403 322.455L155.876 312.955C165.85 307.212 171.354 299.406 171.354 290.976C171.354 288.193 170.749 285.487 169.597 282.897C182.635 269.971 179.571 253.132 160.346 242.055Z" fill="black" stroke="black" mask="url(#path-53-inside-1)"/>
</g>
<mask id="path-54-inside-2" fill="white">
<path d="M3.40116 267.752C4.57224 261.6 9.23707 255.624 17.3956 250.913L33.8884 241.413C52.9576 230.433 84.1866 230.433 103.275 241.413L154.705 270.964C162.864 275.675 167.509 281.652 168.7 287.823H169.012V290.898C169.032 298.16 164.269 305.421 154.705 310.93L138.213 320.43C119.124 331.429 87.9145 331.429 68.8258 320.43L17.3956 290.879C7.85128 285.37 3.08887 278.147 3.08887 270.906V267.752H3.40116V267.752Z"/>
</mask>
<path d="M3.40116 267.752C4.57224 261.6 9.23707 255.624 17.3956 250.913L33.8884 241.413C52.9576 230.433 84.1866 230.433 103.275 241.413L154.705 270.964C162.864 275.675 167.509 281.652 168.7 287.823H169.012V290.898C169.032 298.16 164.269 305.421 154.705 310.93L138.213 320.43C119.124 331.429 87.9145 331.429 68.8258 320.43L17.3956 290.879C7.85128 285.37 3.08887 278.147 3.08887 270.906V267.752H3.40116V267.752Z" fill="#9C251F" stroke="black" mask="url(#path-54-inside-2)"/>
<mask id="path-55-inside-3" fill="white">
<path d="M68.8249 317.471C87.9136 328.451 119.123 328.451 138.212 317.471L154.705 307.991C173.774 296.992 173.774 279.023 154.705 268.044L103.274 238.473C84.1856 227.494 52.9566 227.494 33.8875 238.473L17.3947 247.954C-1.67452 258.933 -1.67452 276.921 17.3947 287.9L68.8249 317.471Z"/>
</mask>
<path d="M68.8249 317.471C87.9136 328.451 119.123 328.451 138.212 317.471L154.705 307.991C173.774 296.992 173.774 279.023 154.705 268.044L103.274 238.473C84.1856 227.494 52.9566 227.494 33.8875 238.473L17.3947 247.954C-1.67452 258.933 -1.67452 276.921 17.3947 287.9L68.8249 317.471Z" fill="#FF3F4A" stroke="black" mask="url(#path-55-inside-3)"/>
<mask id="path-56-inside-4" fill="white">
<path d="M39.1572 281.827C39.1572 281.827 49.2676 316.303 108.095 316.303C108.095 316.303 109.305 317.744 111.589 318.153C119.982 321.17 154.822 312.04 155.153 295.59C85.0638 329.366 39.1572 281.827 39.1572 281.827Z"/>
</mask>
<path d="M39.1572 281.827C39.1572 281.827 49.2676 316.303 108.095 316.303C108.095 316.303 109.305 317.744 111.589 318.153C119.982 321.17 154.822 312.04 155.153 295.59C85.0638 329.366 39.1572 281.827 39.1572 281.827Z" fill="#9C251F" stroke="black" mask="url(#path-56-inside-4)"/>
<mask id="path-57-inside-5" fill="white">
<path d="M108.408 313.967C121.154 313.403 129.781 311.553 135.343 308.361C148.577 300.749 147.269 253.249 147.269 253.249C147.269 253.249 136.593 220.155 98.1029 217.974C31.917 214.782 39.1582 281.827 39.1582 281.827C39.1582 281.827 51.8059 312.098 108.408 313.967Z"/>
</mask>
<path d="M108.408 313.967C121.154 313.403 129.781 311.553 135.343 308.361C148.577 300.749 147.269 253.249 147.269 253.249C147.269 253.249 136.593 220.155 98.1029 217.974C31.917 214.782 39.1582 281.827 39.1582 281.827C39.1582 281.827 51.8059 312.098 108.408 313.967Z" fill="#E31B25" stroke="black" mask="url(#path-57-inside-5)"/>
<mask id="path-58-inside-6" fill="white">
<path d="M129.838 253.697C129.428 253.697 129.038 253.502 128.765 253.152C117.913 238.24 97.5944 230.258 97.3992 230.18C96.7356 229.927 96.4038 229.168 96.6575 228.506C96.9308 227.844 97.6724 227.513 98.3556 227.766C99.2144 228.097 119.591 236.079 130.892 251.633C131.322 252.217 131.185 253.035 130.619 253.463C130.365 253.619 130.111 253.697 129.838 253.697Z"/>
</mask>
<path d="M129.838 253.697C129.428 253.697 129.038 253.502 128.765 253.152C117.913 238.24 97.5944 230.258 97.3992 230.18C96.7356 229.927 96.4038 229.168 96.6575 228.506C96.9308 227.844 97.6724 227.513 98.3556 227.766C99.2144 228.097 119.591 236.079 130.892 251.633C131.322 252.217 131.185 253.035 130.619 253.463C130.365 253.619 130.111 253.697 129.838 253.697Z" fill="#9C251F" stroke="black" mask="url(#path-58-inside-6)"/>
<mask id="path-59-inside-7" fill="white">
<path d="M43.9202 248.557C43.237 248.324 50.2831 223.834 91.759 225.742C92.4811 225.781 93.0276 226.404 92.9886 227.104C92.9496 227.844 92.3445 228.37 91.6223 228.35C53.8744 226.248 44.0763 248.616 43.9202 248.557Z"/>
</mask>
<path d="M43.9202 248.557C43.237 248.324 50.2831 223.834 91.759 225.742C92.4811 225.781 93.0276 226.404 92.9886 227.104C92.9496 227.844 92.3445 228.37 91.6223 228.35C53.8744 226.248 44.0763 248.616 43.9202 248.557Z" fill="#9C251F" stroke="black" mask="url(#path-59-inside-7)"/>
<mask id="path-60-inside-8" fill="white">
<path d="M94.218 226.676C93.9448 226.676 93.6911 226.598 93.4568 226.443C93.3592 226.365 80.1064 220.096 68.4346 222.53C79.8332 217.098 94.4913 223.99 94.9792 224.321C95.5648 224.73 95.7014 225.547 95.272 226.131C95.0183 226.482 94.6279 226.676 94.218 226.676Z"/>
</mask>
<path d="M94.218 226.676C93.9448 226.676 93.6911 226.598 93.4568 226.443C93.3592 226.365 80.1064 220.096 68.4346 222.53C79.8332 217.098 94.4913 223.99 94.9792 224.321C95.5648 224.73 95.7014 225.547 95.272 226.131C95.0183 226.482 94.6279 226.676 94.218 226.676Z" fill="#9C251F" stroke="black" mask="url(#path-60-inside-8)"/>
<mask id="path-61-inside-9" fill="white">
<path d="M95.7992 227.046C95.7016 227.046 95.5845 227.027 95.4869 227.007C94.7843 226.832 94.3549 226.131 94.5305 225.43L96.3848 217.857C96.3848 217.857 96.8727 216.845 97.9072 217.02C98.8831 217.176 99.0197 218.033 99.0197 218.033L97.0679 226.053C96.9313 226.637 96.3848 227.046 95.7992 227.046Z"/>
</mask>
<path d="M95.7992 227.046C95.7016 227.046 95.5845 227.027 95.4869 227.007C94.7843 226.832 94.3549 226.131 94.5305 225.43L96.3848 217.857C96.3848 217.857 96.8727 216.845 97.9072 217.02C98.8831 217.176 99.0197 218.033 99.0197 218.033L97.0679 226.053C96.9313 226.637 96.3848 227.046 95.7992 227.046Z" fill="#9C251F" stroke="black" mask="url(#path-61-inside-9)"/>
<mask id="path-62-inside-10" fill="white">
<path d="M95.7991 227.046C95.2526 227.046 94.7451 226.696 94.55 226.151C94.3353 225.469 94.7061 224.729 95.4088 224.515C96.0138 224.321 112.077 218.227 121.739 224.262C111.218 221.576 96.3651 226.949 96.209 226.988C96.0724 227.027 95.9357 227.046 95.7991 227.046Z"/>
</mask>
<path d="M95.7991 227.046C95.2526 227.046 94.7451 226.696 94.55 226.151C94.3353 225.469 94.7061 224.729 95.4088 224.515C96.0138 224.321 112.077 218.227 121.739 224.262C111.218 221.576 96.3651 226.949 96.209 226.988C96.0724 227.027 95.9357 227.046 95.7991 227.046Z" fill="#9C251F" stroke="black" mask="url(#path-62-inside-10)"/>
<mask id="path-63-inside-11" fill="white">
<path d="M100.366 228.681C99.6441 228.662 99.0781 228.039 99.1171 227.319C99.1367 226.598 99.7417 226.034 100.483 226.073C136.163 227.552 145.336 247.117 144.692 247.428C144.672 247.428 134.328 230.083 100.366 228.681Z"/>
</mask>
<path d="M100.366 228.681C99.6441 228.662 99.0781 228.039 99.1171 227.319C99.1367 226.598 99.7417 226.034 100.483 226.073C136.163 227.552 145.336 247.117 144.692 247.428C144.672 247.428 134.328 230.083 100.366 228.681Z" fill="#9C251F" stroke="black" mask="url(#path-63-inside-11)"/>
<mask id="path-64-inside-12" fill="white">
<path d="M87.4454 313.033C87.4259 313.033 87.3869 313.033 87.3674 313.033C86.6452 312.994 86.0987 312.371 86.1377 311.651C86.3134 308.906 90.2756 244.177 94.5305 229.849C94.7452 229.148 95.4674 228.779 96.1701 228.973C96.8532 229.168 97.2436 229.908 97.0484 230.589C92.852 244.644 88.7922 311.144 88.7532 311.806C88.7141 312.507 88.1481 313.033 87.4454 313.033Z"/>
</mask>
<path d="M87.4454 313.033C87.4259 313.033 87.3869 313.033 87.3674 313.033C86.6452 312.994 86.0987 312.371 86.1377 311.651C86.3134 308.906 90.2756 244.177 94.5305 229.849C94.7452 229.148 95.4674 228.779 96.1701 228.973C96.8532 229.168 97.2436 229.908 97.0484 230.589C92.852 244.644 88.7922 311.144 88.7532 311.806C88.7141 312.507 88.1481 313.033 87.4454 313.033Z" fill="#9C251F" stroke="black" mask="url(#path-64-inside-12)"/>
<mask id="path-65-inside-13" fill="white">
<path d="M51.5135 297.693C50.7914 297.693 50.2253 297.128 50.2058 296.408C50.2058 295.843 50.0302 282.372 55.0658 267.168C61.7605 246.922 74.6425 232.847 92.2673 227.688C92.9699 227.494 93.6726 227.883 93.8873 228.584C94.0825 229.265 93.6921 230.005 92.9894 230.2C52.4114 242.055 52.8017 295.824 52.8017 296.369C52.8017 297.089 52.2357 297.673 51.5135 297.693Z"/>
</mask>
<path d="M51.5135 297.693C50.7914 297.693 50.2253 297.128 50.2058 296.408C50.2058 295.843 50.0302 282.372 55.0658 267.168C61.7605 246.922 74.6425 232.847 92.2673 227.688C92.9699 227.494 93.6726 227.883 93.8873 228.584C94.0825 229.265 93.6921 230.005 92.9894 230.2C52.4114 242.055 52.8017 295.824 52.8017 296.369C52.8017 297.089 52.2357 297.673 51.5135 297.693Z" fill="#9C251F" stroke="black" mask="url(#path-65-inside-13)"/>
<mask id="path-66-inside-14" fill="white">
<path d="M95.7996 225.742H100.425V228.409C100.425 229.09 99.9764 229.771 99.0591 230.297C97.2439 231.348 94.3357 231.348 92.5206 230.297C91.6227 229.771 91.1738 229.09 91.1738 228.409V225.742H95.7996Z"/>
</mask>
<path d="M95.7996 225.742H100.425V228.409C100.425 229.09 99.9764 229.771 99.0591 230.297C97.2439 231.348 94.3357 231.348 92.5206 230.297C91.6227 229.771 91.1738 229.09 91.1738 228.409V225.742H95.7996Z" fill="#E31B25" stroke="black" mask="url(#path-66-inside-14)"/>
<mask id="path-67-inside-15" fill="white">
<path d="M92.5206 227.63C94.3358 228.662 97.244 228.662 99.0591 227.63C100.874 226.598 100.874 224.905 99.0591 223.853C97.244 222.802 94.3358 222.802 92.5206 223.853C90.7249 224.885 90.7249 226.579 92.5206 227.63Z"/>
</mask>
<path d="M92.5206 227.63C94.3358 228.662 97.244 228.662 99.0591 227.63C100.874 226.598 100.874 224.905 99.0591 223.853C97.244 222.802 94.3358 222.802 92.5206 223.853C90.7249 224.885 90.7249 226.579 92.5206 227.63Z" fill="#FF3F4A" stroke="black" mask="url(#path-67-inside-15)"/>
<mask id="path-68-inside-16" fill="white">
<path d="M131.264 229.226L100.113 226.676C99.4496 227.864 97.1074 228.292 97.1074 228.292L112.371 236.76L117.601 237.111L131.264 229.226Z"/>
</mask>
<path d="M131.264 229.226L100.113 226.676C99.4496 227.864 97.1074 228.292 97.1074 228.292L112.371 236.76L117.601 237.111L131.264 229.226Z" fill="#FF9D26" stroke="black" mask="url(#path-68-inside-16)"/>
<mask id="path-69-inside-17" fill="white">
<path d="M117.602 237.091L121.915 258.057L135.402 255.468L135.91 246.455L131.264 229.227L117.602 237.091Z"/>
</mask>
<path d="M117.602 237.091L121.915 258.057L135.402 255.468L135.91 246.455L131.264 229.227L117.602 237.091Z" fill="#BA6000" stroke="black" mask="url(#path-69-inside-17)"/>
<mask id="path-70-inside-18" fill="white">
<path d="M122.247 254.32L117.601 237.091L97.1074 228.292V230.959C97.1074 230.959 114.479 247.487 115.045 265.922C115.084 267.947 121.739 263.333 121.739 263.333L122.247 254.32Z"/>
</mask>
<path d="M122.247 254.32L117.601 237.091L97.1074 228.292V230.959C97.1074 230.959 114.479 247.487 115.045 265.922C115.084 267.947 121.739 263.333 121.739 263.333L122.247 254.32Z" fill="#FF8400" stroke="black" mask="url(#path-70-inside-18)"/>
<mask id="path-71-inside-19" fill="white">
<path d="M131.42 247.37C131.42 247.37 139.871 243.574 145.18 250.835C146.371 252.451 144.751 251.458 144.751 251.458C149.006 257.356 152.617 269.582 152.617 294.033C148.166 308.614 120.705 316.342 111.57 315.583C109.54 315.155 108.369 313.987 108.369 313.987C105.656 255.624 131.42 247.37 131.42 247.37Z"/>
</mask>
<path d="M131.42 247.37C131.42 247.37 139.871 243.574 145.18 250.835C146.371 252.451 144.751 251.458 144.751 251.458C149.006 257.356 152.617 269.582 152.617 294.033C148.166 308.614 120.705 316.342 111.57 315.583C109.54 315.155 108.369 313.987 108.369 313.987C105.656 255.624 131.42 247.37 131.42 247.37Z" fill="#FF8400" stroke="black" mask="url(#path-71-inside-19)"/>
<mask id="path-72-inside-20" fill="white">
<path d="M155.154 295.59C150.353 311.3 117.836 317.607 111.59 315.583C108.838 257.22 133.294 248.81 133.294 248.81C133.294 248.81 155.154 236.371 155.154 295.59Z"/>
</mask>
<path d="M155.154 295.59C150.353 311.3 117.836 317.607 111.59 315.583C108.838 257.22 133.294 248.81 133.294 248.81C133.294 248.81 155.154 236.371 155.154 295.59Z" fill="#BA6000" stroke="black" mask="url(#path-72-inside-20)"/>
<mask id="path-73-inside-21" fill="white">
<path d="M138.622 286.771L140.359 289.808L144.243 288.232L141.433 293.001L142.096 297.07L138.622 296.972L135.148 301.08L135.812 296.233L133.001 294.714L136.885 291.813L138.622 286.771Z"/>
</mask>
<path d="M138.622 286.771L140.359 289.808L144.243 288.232L141.433 293.001L142.096 297.07L138.622 296.972L135.148 301.08L135.812 296.233L133.001 294.714L136.885 291.813L138.622 286.771Z" fill="#FF8400" stroke="black" mask="url(#path-73-inside-21)"/>
<mask id="path-74-inside-22" fill="white">
<path d="M133.547 308.458C130.795 308.458 128.023 306.433 128.023 301.917V293.001C128.023 288.193 131.283 282.528 135.46 280.133L139.832 277.622C141.14 276.882 142.428 276.493 143.677 276.493C146.429 276.493 149.201 278.517 149.201 283.014V291.93C149.201 296.739 145.922 302.384 141.764 304.798L137.392 307.329C136.084 308.088 134.796 308.458 133.547 308.458ZM143.697 280.367C143.15 280.367 142.486 280.581 141.784 280.99L137.392 283.501C134.406 285.214 131.888 289.575 131.888 293.02V301.936C131.888 302.929 132.103 304.623 133.567 304.623C134.113 304.623 134.777 304.409 135.479 304L139.851 301.489C142.838 299.776 145.356 295.415 145.356 291.969V283.053C145.356 282.041 145.141 280.367 143.697 280.367Z"/>
</mask>
<path d="M133.547 308.458C130.795 308.458 128.023 306.433 128.023 301.917V293.001C128.023 288.193 131.283 282.528 135.46 280.133L139.832 277.622C141.14 276.882 142.428 276.493 143.677 276.493C146.429 276.493 149.201 278.517 149.201 283.014V291.93C149.201 296.739 145.922 302.384 141.764 304.798L137.392 307.329C136.084 308.088 134.796 308.458 133.547 308.458ZM143.697 280.367C143.15 280.367 142.486 280.581 141.784 280.99L137.392 283.501C134.406 285.214 131.888 289.575 131.888 293.02V301.936C131.888 302.929 132.103 304.623 133.567 304.623C134.113 304.623 134.777 304.409 135.479 304L139.851 301.489C142.838 299.776 145.356 295.415 145.356 291.969V283.053C145.356 282.041 145.141 280.367 143.697 280.367Z" fill="#FF8400" stroke="black" mask="url(#path-74-inside-22)"/>
<g opacity="0.3">
<mask id="path-75-inside-23" fill="white">
<path d="M266.939 61.7472L166.372 119.362C165.612 119.44 164.983 119.623 164.498 119.884L162.245 121.189C161.498 121.606 161.131 122.245 161.249 123.041L150.886 128.991L150.637 129.134C149.654 129.16 148.855 129.343 148.292 129.669L140.3 134.196C139.422 134.705 139.121 135.54 139.605 136.597C139.605 136.597 139.619 136.61 139.619 136.623L132.36 140.785C131.286 140.733 130.434 140.902 129.858 141.229L128.063 142.259C127.657 142.481 127.395 142.794 127.303 143.186L110.455 155.202C110.075 155.424 109.944 155.789 110.153 156.259C110.586 157.185 112.236 158.137 113.835 158.372C114.634 158.503 115.289 158.424 115.669 158.203L136.579 148.522C137.221 148.47 137.758 148.326 138.151 148.104L139.972 147.061C140.549 146.734 140.824 146.239 140.732 145.612L147.977 141.45C147.99 141.45 148.017 141.464 148.03 141.464C149.864 141.737 151.331 141.568 152.209 141.072L160.201 136.545C160.751 136.232 161.039 135.762 161.079 135.214L161.354 135.058C161.354 135.058 161.367 135.057 161.367 135.044C161.367 135.044 161.367 135.044 161.38 135.044L165.153 132.879L169.804 135.462C169.686 135.853 169.83 136.18 170.184 136.388L187.845 146.213C188.238 146.434 188.893 146.5 189.705 146.369C191.33 146.108 192.981 145.117 193.4 144.177C193.61 143.695 193.452 143.316 193.033 143.107L175.386 133.283C175.006 133.074 174.377 133.009 173.617 133.114L169.097 130.595L171.717 129.082C173.08 129.147 174.18 128.939 174.914 128.521L177.194 127.216C178.137 126.668 178.451 125.768 177.927 124.646C177.835 124.437 177.691 124.229 177.547 124.02L276.476 67.253C276.476 67.253 280.918 64.2391 276.476 61.7472C271.537 58.9421 266.939 61.7472 266.939 61.7472Z"/>
</mask>
<path d="M266.939 61.7472L166.372 119.362C165.612 119.44 164.983 119.623 164.498 119.884L162.245 121.189C161.498 121.606 161.131 122.245 161.249 123.041L150.886 128.991L150.637 129.134C149.654 129.16 148.855 129.343 148.292 129.669L140.3 134.196C139.422 134.705 139.121 135.54 139.605 136.597C139.605 136.597 139.619 136.61 139.619 136.623L132.36 140.785C131.286 140.733 130.434 140.902 129.858 141.229L128.063 142.259C127.657 142.481 127.395 142.794 127.303 143.186L110.455 155.202C110.075 155.424 109.944 155.789 110.153 156.259C110.586 157.185 112.236 158.137 113.835 158.372C114.634 158.503 115.289 158.424 115.669 158.203L136.579 148.522C137.221 148.47 137.758 148.326 138.151 148.104L139.972 147.061C140.549 146.734 140.824 146.239 140.732 145.612L147.977 141.45C147.99 141.45 148.017 141.464 148.03 141.464C149.864 141.737 151.331 141.568 152.209 141.072L160.201 136.545C160.751 136.232 161.039 135.762 161.079 135.214L161.354 135.058C161.354 135.058 161.367 135.057 161.367 135.044C161.367 135.044 161.367 135.044 161.38 135.044L165.153 132.879L169.804 135.462C169.686 135.853 169.83 136.18 170.184 136.388L187.845 146.213C188.238 146.434 188.893 146.5 189.705 146.369C191.33 146.108 192.981 145.117 193.4 144.177C193.61 143.695 193.452 143.316 193.033 143.107L175.386 133.283C175.006 133.074 174.377 133.009 173.617 133.114L169.097 130.595L171.717 129.082C173.08 129.147 174.18 128.939 174.914 128.521L177.194 127.216C178.137 126.668 178.451 125.768 177.927 124.646C177.835 124.437 177.691 124.229 177.547 124.02L276.476 67.253C276.476 67.253 280.918 64.2391 276.476 61.7472C271.537 58.9421 266.939 61.7472 266.939 61.7472Z" fill="#121214" stroke="black" mask="url(#path-75-inside-23)"/>
</g>
<mask id="path-76-inside-24" fill="white">
<path d="M249.475 28.856C249.475 21.3932 241.889 14.7784 239.269 10.1076L241.221 7.77221L232.731 2.87963C226.364 -1.26928 217.664 -1.08662 208.087 4.41917C188.618 15.6134 172.792 44.5775 172.792 69.0012C172.792 79.1648 176.368 86.3145 182.146 89.6936L190.308 94.3774L191.514 91.8594C193.243 91.7942 195.942 92.1464 198.837 92.3943L168.704 109.721C167.276 110.543 166.123 112.526 166.123 114.17C166.123 115.8 176.499 120.145 177.927 119.336L214.14 96.7781C235.338 84.5923 250.352 57.7548 249.475 28.856ZM217.428 41.3288C217.389 41.3027 217.35 41.2766 217.31 41.2636L217.258 41.2375V41.2505C216.8 41.0418 216.21 41.094 215.555 41.4723C214.127 42.2943 212.974 44.2774 212.974 45.9213C212.974 50.3703 209.554 55.9544 205.349 58.368C204.93 58.6159 203.541 57.1938 203.541 53.2015C204.34 46.952 216.852 33.6442 217.389 34.0878C218.555 36.0709 219.223 38.876 219.223 42.3204C219.223 42.3465 219.223 42.3726 219.223 42.3856L217.428 41.3288Z"/>
</mask>
<path d="M249.475 28.856C249.475 21.3932 241.889 14.7784 239.269 10.1076L241.221 7.77221L232.731 2.87963C226.364 -1.26928 217.664 -1.08662 208.087 4.41917C188.618 15.6134 172.792 44.5775 172.792 69.0012C172.792 79.1648 176.368 86.3145 182.146 89.6936L190.308 94.3774L191.514 91.8594C193.243 91.7942 195.942 92.1464 198.837 92.3943L168.704 109.721C167.276 110.543 166.123 112.526 166.123 114.17C166.123 115.8 176.499 120.145 177.927 119.336L214.14 96.7781C235.338 84.5923 250.352 57.7548 249.475 28.856ZM217.428 41.3288C217.389 41.3027 217.35 41.2766 217.31 41.2636L217.258 41.2375V41.2505C216.8 41.0418 216.21 41.094 215.555 41.4723C214.127 42.2943 212.974 44.2774 212.974 45.9213C212.974 50.3703 209.554 55.9544 205.349 58.368C204.93 58.6159 203.541 57.1938 203.541 53.2015C204.34 46.952 216.852 33.6442 217.389 34.0878C218.555 36.0709 219.223 38.876 219.223 42.3204C219.223 42.3465 219.223 42.3726 219.223 42.3856L217.428 41.3288Z" fill="#FF3F4A" stroke="black" mask="url(#path-76-inside-24)"/>
<mask id="path-77-inside-25" fill="white">
<path d="M213.42 99.7006L177.194 120.523C175.766 121.345 174.613 120.68 174.613 119.049C174.613 117.405 175.766 115.422 177.194 114.6L213.42 93.7773C231.775 83.2224 246.711 57.4287 246.711 36.2797C246.711 15.1308 233.19 5.68482 216.564 15.2482C199.952 24.7985 186.431 49.7833 186.431 70.9322C186.431 88.0889 198.576 95.069 213.498 86.4972C228.421 77.9123 240.553 56.9851 240.553 39.8154C240.553 22.6458 229.823 14.8568 216.63 22.4501C203.437 30.0303 192.706 50.1616 192.706 67.3183C192.706 79.9346 201.982 84.8663 213.394 78.3168C224.805 71.7542 234.081 56.1632 234.081 43.5338C234.081 30.3304 226.43 23.9765 217.023 29.391C207.616 34.7924 199.965 49.9398 199.965 63.1433C199.965 71.4933 206.188 74.7028 213.839 70.2929C221.49 65.8961 227.714 55.5239 227.714 47.1739C227.714 38.0019 222.892 33.3181 216.957 36.7233C211.035 40.1286 206.201 50.3704 206.214 59.5293C206.214 63.9783 209.634 65.6352 213.839 63.2215C218.045 60.8079 221.464 55.2238 221.464 50.7748C221.464 49.1309 222.617 47.1478 224.045 46.3258C225.473 45.5039 226.626 46.1693 226.626 47.8132C226.626 55.5239 220.888 65.1003 213.852 69.1579C206.804 73.2024 201.078 70.2277 201.078 62.504C201.078 50.0703 208.219 35.8492 216.983 30.8001C225.748 25.7509 232.889 31.7786 232.889 44.2122C232.889 55.824 224.346 70.1755 213.852 76.2162C203.358 82.2439 194.816 77.7036 194.816 66.0919C194.816 49.6136 204.786 30.4739 217.023 23.4416C229.273 16.3963 239.243 24.0809 239.243 40.5591C239.243 56.4502 227.648 76.0336 213.407 84.227C199.152 92.4204 187.571 86.1579 187.571 70.2668C187.571 49.8354 200.62 25.7248 216.643 16.5007C232.679 7.28959 245.715 16.4094 245.715 36.8277C245.715 57.2591 231.264 82.1786 213.498 92.3943C195.733 102.61 181.282 94.2992 181.282 73.8678C181.282 49.444 197.122 20.4669 216.577 9.28576C236.033 -1.90846 251.873 8.85521 251.873 33.279C251.86 57.7288 234.618 87.5148 213.42 99.7006Z"/>
</mask>
<path d="M213.42 99.7006L177.194 120.523C175.766 121.345 174.613 120.68 174.613 119.049C174.613 117.405 175.766 115.422 177.194 114.6L213.42 93.7773C231.775 83.2224 246.711 57.4287 246.711 36.2797C246.711 15.1308 233.19 5.68482 216.564 15.2482C199.952 24.7985 186.431 49.7833 186.431 70.9322C186.431 88.0889 198.576 95.069 213.498 86.4972C228.421 77.9123 240.553 56.9851 240.553 39.8154C240.553 22.6458 229.823 14.8568 216.63 22.4501C203.437 30.0303 192.706 50.1616 192.706 67.3183C192.706 79.9346 201.982 84.8663 213.394 78.3168C224.805 71.7542 234.081 56.1632 234.081 43.5338C234.081 30.3304 226.43 23.9765 217.023 29.391C207.616 34.7924 199.965 49.9398 199.965 63.1433C199.965 71.4933 206.188 74.7028 213.839 70.2929C221.49 65.8961 227.714 55.5239 227.714 47.1739C227.714 38.0019 222.892 33.3181 216.957 36.7233C211.035 40.1286 206.201 50.3704 206.214 59.5293C206.214 63.9783 209.634 65.6352 213.839 63.2215C218.045 60.8079 221.464 55.2238 221.464 50.7748C221.464 49.1309 222.617 47.1478 224.045 46.3258C225.473 45.5039 226.626 46.1693 226.626 47.8132C226.626 55.5239 220.888 65.1003 213.852 69.1579C206.804 73.2024 201.078 70.2277 201.078 62.504C201.078 50.0703 208.219 35.8492 216.983 30.8001C225.748 25.7509 232.889 31.7786 232.889 44.2122C232.889 55.824 224.346 70.1755 213.852 76.2162C203.358 82.2439 194.816 77.7036 194.816 66.0919C194.816 49.6136 204.786 30.4739 217.023 23.4416C229.273 16.3963 239.243 24.0809 239.243 40.5591C239.243 56.4502 227.648 76.0336 213.407 84.227C199.152 92.4204 187.571 86.1579 187.571 70.2668C187.571 49.8354 200.62 25.7248 216.643 16.5007C232.679 7.28959 245.715 16.4094 245.715 36.8277C245.715 57.2591 231.264 82.1786 213.498 92.3943C195.733 102.61 181.282 94.2992 181.282 73.8678C181.282 49.444 197.122 20.4669 216.577 9.28576C236.033 -1.90846 251.873 8.85521 251.873 33.279C251.86 57.7288 234.618 87.5148 213.42 99.7006Z" fill="#9C251F" stroke="black" mask="url(#path-77-inside-25)"/>
<mask id="path-78-inside-26" fill="white">
<path d="M165.35 111.965L166.175 113.387C166.149 113.595 166.136 113.83 166.136 114.065C166.136 117.47 168.546 121.619 171.507 123.328C171.717 123.446 171.913 123.55 172.11 123.628L172.935 125.051L175.294 123.694C176.263 123.133 176.866 121.932 176.866 120.236C176.866 116.818 174.455 112.682 171.494 110.973C170.014 110.125 168.677 110.047 167.695 110.595L165.35 111.965Z"/>
</mask>
<path d="M165.35 111.965L166.175 113.387C166.149 113.595 166.136 113.83 166.136 114.065C166.136 117.47 168.546 121.619 171.507 123.328C171.717 123.446 171.913 123.55 172.11 123.628L172.935 125.051L175.294 123.694C176.263 123.133 176.866 121.932 176.866 120.236C176.866 116.818 174.455 112.682 171.494 110.973C170.014 110.125 168.677 110.047 167.695 110.595L165.35 111.965Z" fill="#A7A9AC" stroke="black" mask="url(#path-78-inside-26)"/>
<mask id="path-79-inside-27" fill="white">
<path d="M169.149 112.343C172.11 114.039 174.521 118.188 174.521 121.593C174.521 125.012 172.11 126.395 169.149 124.685C166.188 122.989 163.777 118.84 163.777 115.422C163.777 112.017 166.175 110.634 169.149 112.343Z"/>
</mask>
<path d="M169.149 112.343C172.11 114.039 174.521 118.188 174.521 121.593C174.521 125.012 172.11 126.395 169.149 124.685C166.188 122.989 163.777 118.84 163.777 115.422C163.777 112.017 166.175 110.634 169.149 112.343Z" fill="#939598" stroke="black" mask="url(#path-79-inside-27)"/>
<mask id="path-80-inside-28" fill="white">
<path d="M150.559 121.998L151.24 123.172C151.214 123.342 151.214 123.537 151.214 123.72C151.214 126.538 153.192 129.956 155.642 131.365C155.799 131.47 155.969 131.548 156.14 131.626L156.821 132.801L171.927 124.124C172.726 123.655 173.224 122.676 173.224 121.267C173.224 118.449 171.246 115.031 168.796 113.622C167.577 112.917 166.464 112.852 165.665 113.322L150.559 121.998Z"/>
</mask>
<path d="M150.559 121.998L151.24 123.172C151.214 123.342 151.214 123.537 151.214 123.72C151.214 126.538 153.192 129.956 155.642 131.365C155.799 131.47 155.969 131.548 156.14 131.626L156.821 132.801L171.927 124.124C172.726 123.655 173.224 122.676 173.224 121.267C173.224 118.449 171.246 115.031 168.796 113.622C167.577 112.917 166.464 112.852 165.665 113.322L150.559 121.998Z" fill="#A7A9AC" stroke="black" mask="url(#path-80-inside-28)"/>
<mask id="path-81-inside-29" fill="white">
<path d="M153.153 120.497C154.581 119.675 157.162 121.424 158.891 124.398C160.621 127.386 160.856 130.465 159.428 131.3C157.987 132.122 155.433 130.374 153.69 127.386C151.961 124.411 151.725 121.319 153.153 120.497Z"/>
</mask>
<path d="M153.153 120.497C154.581 119.675 157.162 121.424 158.891 124.398C160.621 127.386 160.856 130.465 159.428 131.3C157.987 132.122 155.433 130.374 153.69 127.386C151.961 124.411 151.725 121.319 153.153 120.497Z" fill="#939598" stroke="black" mask="url(#path-81-inside-29)"/>
<mask id="path-82-inside-30" fill="white">
<path d="M153.69 122.311C156.127 123.72 158.118 127.138 158.118 129.956C158.118 132.774 156.14 133.91 153.69 132.513C151.24 131.104 149.262 127.686 149.262 124.868C149.249 122.037 151.24 120.902 153.69 122.311Z"/>
</mask>
<path d="M153.69 122.311C156.127 123.72 158.118 127.138 158.118 129.956C158.118 132.774 156.14 133.91 153.69 132.513C151.24 131.104 149.262 127.686 149.262 124.868C149.249 122.037 151.24 120.902 153.69 122.311Z" fill="#939598" stroke="black" mask="url(#path-82-inside-30)"/>
<mask id="path-83-inside-31" fill="white">
<path d="M150.427 120.419L157.619 124.555L171.664 109.799L164.472 105.65L150.427 113.7V120.419Z"/>
</mask>
<path d="M150.427 120.419L157.619 124.555L171.664 109.799L164.472 105.65L150.427 113.7V120.419Z" fill="#939598" stroke="black" mask="url(#path-83-inside-31)"/>
<mask id="path-84-inside-32" fill="white">
<path d="M157.619 124.555L171.664 116.518V109.799L157.619 117.836V124.555Z"/>
</mask>
<path d="M157.619 124.555L171.664 116.518V109.799L157.619 117.836V124.555Z" fill="#BCBEC0" stroke="black" mask="url(#path-84-inside-32)"/>
<mask id="path-85-inside-33" fill="white">
<path d="M142.226 125.742L142.999 127.086C142.972 127.295 142.959 127.49 142.959 127.712C142.959 130.909 145.213 134.796 147.99 136.388C148.174 136.506 148.37 136.584 148.554 136.675L149.327 138.019L157.869 133.166C158.773 132.644 159.336 131.509 159.336 129.917C159.336 126.721 157.083 122.833 154.305 121.241C152.916 120.445 151.659 120.367 150.741 120.889L142.226 125.742Z"/>
</mask>
<path d="M142.226 125.742L142.999 127.086C142.972 127.295 142.959 127.49 142.959 127.712C142.959 130.909 145.213 134.796 147.99 136.388C148.174 136.506 148.37 136.584 148.554 136.675L149.327 138.019L157.869 133.166C158.773 132.644 159.336 131.509 159.336 129.917C159.336 126.721 157.083 122.833 154.305 121.241C152.916 120.445 151.659 120.367 150.741 120.889L142.226 125.742Z" fill="#A7A9AC" stroke="black" mask="url(#path-85-inside-33)"/>
<mask id="path-86-inside-34" fill="white">
<path d="M145.789 126.094C148.566 127.686 150.82 131.574 150.82 134.771C150.82 137.967 148.566 139.259 145.789 137.667C143.011 136.062 140.758 132.187 140.758 128.991C140.758 125.794 143.011 124.503 145.789 126.094Z"/>
</mask>
<path d="M145.789 126.094C148.566 127.686 150.82 131.574 150.82 134.771C150.82 137.967 148.566 139.259 145.789 137.667C143.011 136.062 140.758 132.187 140.758 128.991C140.758 125.794 143.011 124.503 145.789 126.094Z" fill="#939598" stroke="black" mask="url(#path-86-inside-34)"/>
<mask id="path-87-inside-35" fill="white">
<path d="M131.076 134.601L131.613 135.54C131.6 135.684 131.587 135.827 131.587 135.984C131.587 138.228 133.172 140.955 135.125 142.077C135.269 142.155 135.4 142.22 135.518 142.273L136.068 143.212L148.108 136.284C148.737 135.919 149.143 135.136 149.143 134.014C149.143 131.77 147.558 129.043 145.606 127.921C144.636 127.373 143.745 127.308 143.103 127.673L131.076 134.601Z"/>
</mask>
<path d="M131.076 134.601L131.613 135.54C131.6 135.684 131.587 135.827 131.587 135.984C131.587 138.228 133.172 140.955 135.125 142.077C135.269 142.155 135.4 142.22 135.518 142.273L136.068 143.212L148.108 136.284C148.737 135.919 149.143 135.136 149.143 134.014C149.143 131.77 147.558 129.043 145.606 127.921C144.636 127.373 143.745 127.308 143.103 127.673L131.076 134.601Z" fill="#A7A9AC" stroke="black" mask="url(#path-87-inside-35)"/>
<mask id="path-88-inside-36" fill="white">
<path d="M133.147 133.414C134.3 132.748 136.33 134.144 137.719 136.519C139.095 138.893 139.291 141.359 138.138 142.025C136.998 142.677 134.942 141.294 133.566 138.906C132.19 136.532 132.007 134.066 133.147 133.414Z"/>
</mask>
<path d="M133.147 133.414C134.3 132.748 136.33 134.144 137.719 136.519C139.095 138.893 139.291 141.359 138.138 142.025C136.998 142.677 134.942 141.294 133.566 138.906C132.19 136.532 132.007 134.066 133.147 133.414Z" fill="#939598" stroke="black" mask="url(#path-88-inside-36)"/>
<mask id="path-89-inside-37" fill="white">
<path d="M133.565 134.849C135.517 135.971 137.103 138.697 137.103 140.942C137.103 143.186 135.517 144.086 133.578 142.977C131.626 141.855 130.041 139.128 130.041 136.884C130.041 134.64 131.626 133.727 133.565 134.849Z"/>
</mask>
<path d="M133.565 134.849C135.517 135.971 137.103 138.697 137.103 140.942C137.103 143.186 135.517 144.086 133.578 142.977C131.626 141.855 130.041 139.128 130.041 136.884C130.041 134.64 131.626 133.727 133.565 134.849Z" fill="#939598" stroke="black" mask="url(#path-89-inside-37)"/>
<mask id="path-90-inside-38" fill="white">
<path d="M129.189 134.496L129.845 135.632C129.831 135.801 129.818 135.984 129.818 136.166C129.818 138.88 131.731 142.168 134.089 143.538C134.247 143.629 134.404 143.708 134.574 143.773L135.229 144.908L137.103 143.825C137.876 143.381 138.36 142.429 138.36 141.072C138.36 138.371 136.448 135.071 134.089 133.714C132.91 133.035 131.849 132.97 131.076 133.414L129.189 134.496Z"/>
</mask>
<path d="M129.189 134.496L129.845 135.632C129.831 135.801 129.818 135.984 129.818 136.166C129.818 138.88 131.731 142.168 134.089 143.538C134.247 143.629 134.404 143.708 134.574 143.773L135.229 144.908L137.103 143.825C137.876 143.381 138.36 142.429 138.36 141.072C138.36 138.371 136.448 135.071 134.089 133.714C132.91 133.035 131.849 132.97 131.076 133.414L129.189 134.496Z" fill="#A7A9AC" stroke="black" mask="url(#path-90-inside-38)"/>
<mask id="path-91-inside-39" fill="white">
<path d="M132.203 134.783C134.561 136.14 136.474 139.441 136.474 142.142C136.474 144.856 134.561 145.952 132.203 144.595C129.844 143.238 127.932 139.95 127.932 137.236C127.932 134.536 129.844 133.44 132.203 134.783Z"/>
</mask>
<path d="M132.203 134.783C134.561 136.14 136.474 139.441 136.474 142.142C136.474 144.856 134.561 145.952 132.203 144.595C129.844 143.238 127.932 139.95 127.932 137.236C127.932 134.536 129.844 133.44 132.203 134.783Z" fill="#939598" stroke="black" mask="url(#path-91-inside-39)"/>
<mask id="path-92-inside-40" fill="white">
<path d="M129.033 135.045C128.928 135.11 128.85 135.175 128.758 135.24L109.944 148.913L113.049 154.276L134.352 144.895C134.457 144.856 134.562 144.817 134.654 144.751C135.374 144.334 135.82 143.447 135.82 142.194C135.82 139.663 134.038 136.597 131.837 135.319C130.749 134.692 129.754 134.627 129.033 135.045Z"/>
</mask>
<path d="M129.033 135.045C128.928 135.11 128.85 135.175 128.758 135.24L109.944 148.913L113.049 154.276L134.352 144.895C134.457 144.856 134.562 144.817 134.654 144.751C135.374 144.334 135.82 143.447 135.82 142.194C135.82 139.663 134.038 136.597 131.837 135.319C130.749 134.692 129.754 134.627 129.033 135.045Z" fill="#A7A9AC" stroke="black" mask="url(#path-92-inside-40)"/>
<mask id="path-93-inside-41" fill="white">
<path d="M111.503 149.07C112.721 149.775 113.704 151.471 113.704 152.867C113.704 154.263 112.721 154.837 111.503 154.132C110.284 153.428 109.302 151.732 109.302 150.336C109.302 148.94 110.284 148.366 111.503 149.07Z"/>
</mask>
<path d="M111.503 149.07C112.721 149.775 113.704 151.471 113.704 152.867C113.704 154.263 112.721 154.837 111.503 154.132C110.284 153.428 109.302 151.732 109.302 150.336C109.302 148.94 110.284 148.366 111.503 149.07Z" fill="#939598" stroke="black" mask="url(#path-93-inside-41)"/>
<mask id="path-94-inside-42" fill="white">
<path d="M111.503 149.735C112.394 150.257 113.128 151.51 113.128 152.541C113.128 153.571 112.407 153.989 111.503 153.467C110.613 152.945 109.879 151.692 109.879 150.662C109.879 149.631 110.599 149.213 111.503 149.735Z"/>
</mask>
<path d="M111.503 149.735C112.394 150.257 113.128 151.51 113.128 152.541C113.128 153.571 112.407 153.989 111.503 153.467C110.613 152.945 109.879 151.692 109.879 150.662C109.879 149.631 110.599 149.213 111.503 149.735Z" fill="#121214" stroke="black" mask="url(#path-94-inside-42)"/>
<mask id="path-95-inside-43" fill="white">
<path d="M175.818 120.132L175.556 120.576C175.556 120.641 175.556 120.706 175.556 120.784C175.556 121.854 174.822 123.133 173.892 123.668C173.826 123.707 173.761 123.733 173.708 123.759L173.446 124.203L164.262 118.919C163.961 118.749 163.777 118.371 163.777 117.836C163.777 116.779 164.524 115.487 165.454 114.965C165.913 114.704 166.332 114.678 166.633 114.848L175.818 120.132Z"/>
</mask>
<path d="M175.818 120.132L175.556 120.576C175.556 120.641 175.556 120.706 175.556 120.784C175.556 121.854 174.822 123.133 173.892 123.668C173.826 123.707 173.761 123.733 173.708 123.759L173.446 124.203L164.262 118.919C163.961 118.749 163.777 118.371 163.777 117.836C163.777 116.779 164.524 115.487 165.454 114.965C165.913 114.704 166.332 114.678 166.633 114.848L175.818 120.132Z" fill="#A7A9AC" stroke="black" mask="url(#path-95-inside-43)"/>
<mask id="path-96-inside-44" fill="white">
<path d="M174.638 120.249C173.72 120.784 172.974 122.063 172.974 123.133C172.974 124.203 173.72 124.62 174.638 124.098C175.568 123.576 176.315 122.285 176.315 121.215C176.301 120.145 175.555 119.728 174.638 120.249Z"/>
</mask>
<path d="M174.638 120.249C173.72 120.784 172.974 122.063 172.974 123.133C172.974 124.203 173.72 124.62 174.638 124.098C175.568 123.576 176.315 122.285 176.315 121.215C176.301 120.145 175.555 119.728 174.638 120.249Z" fill="#939598" stroke="black" mask="url(#path-96-inside-44)"/>
<mask id="path-97-inside-45" fill="white">
<path d="M194.5 129.904L194.16 130.491C194.173 130.582 194.173 130.674 194.173 130.778C194.173 132.2 193.177 133.922 191.932 134.64C191.854 134.692 191.762 134.731 191.683 134.77L191.343 135.371L173.381 125.038C172.975 124.803 172.726 124.294 172.726 123.589C172.726 122.154 173.721 120.432 174.966 119.727C175.582 119.375 176.145 119.336 176.551 119.571L194.5 129.904Z"/>
</mask>
<path d="M194.5 129.904L194.16 130.491C194.173 130.582 194.173 130.674 194.173 130.778C194.173 132.2 193.177 133.922 191.932 134.64C191.854 134.692 191.762 134.731 191.683 134.77L191.343 135.371L173.381 125.038C172.975 124.803 172.726 124.294 172.726 123.589C172.726 122.154 173.721 120.432 174.966 119.727C175.582 119.375 176.145 119.336 176.551 119.571L194.5 129.904Z" fill="#9C251F" stroke="black" mask="url(#path-97-inside-45)"/>
<mask id="path-98-inside-46" fill="white">
<path d="M192.927 130.048C191.696 130.765 190.7 132.487 190.7 133.909C190.7 135.332 191.696 135.906 192.927 135.201C194.159 134.497 195.168 132.761 195.168 131.339C195.168 129.917 194.159 129.356 192.927 130.048Z"/>
</mask>
<path d="M192.927 130.048C191.696 130.765 190.7 132.487 190.7 133.909C190.7 135.332 191.696 135.906 192.927 135.201C194.159 134.497 195.168 132.761 195.168 131.339C195.168 129.917 194.159 129.356 192.927 130.048Z" fill="#E31B25" stroke="black" mask="url(#path-98-inside-46)"/>
</svg>
