<svg width="184" height="107" viewBox="0 0 184 107" fill="none" xmlns="http://www.w3.org/2000/svg">
<path d="M75.5994 1.56265L181.299 62.5626C183.599 63.8626 183.599 65.9626 181.299 67.3626L116.399 104.863C114.099 106.163 110.399 106.163 108.199 104.863L2.49941 43.8626C0.199414 42.5626 0.199414 40.4626 2.49941 39.0626L67.3994 1.56265C69.6994 0.262646 73.3994 0.262646 75.5994 1.56265Z" fill="#F6CA13"/>
<path d="M112.3 106.063C110.8 106.063 109.2 105.763 108.1 105.063L2.3996 44.0627C1.1996 43.3627 0.599609 42.4627 0.599609 41.4627C0.599609 40.4627 1.1996 39.5627 2.3996 38.8627L67.2996 1.3627C69.5996 0.0627005 73.3996 -0.0372995 75.7996 1.3627L181.5 62.3627C182.7 63.0627 183.3 63.9627 183.3 64.9627C183.3 65.9627 182.7 66.8627 181.5 67.5627L116.5 105.063C115.4 105.663 113.8 106.063 112.3 106.063ZM71.4996 0.8627C70.0996 0.8627 68.5996 1.1627 67.4996 1.8627L2.59961 39.3627C1.59961 39.9627 0.999603 40.7627 0.999603 41.5627C0.999603 42.3627 1.59961 43.1627 2.59961 43.7627L108.3 104.763C110.5 106.063 114.1 106.063 116.3 104.763L181.2 67.2627C182.2 66.6627 182.8 65.8627 182.8 65.0627C182.8 64.2627 182.2 63.4627 181.2 62.8627L75.4996 1.8627C74.3996 1.1627 72.9996 0.8627 71.4996 0.8627Z" fill="black"/>
<path d="M41.2998 37.8627L49.8998 30.7627L59.8998 34.8627L51.2998 41.9627L48.7998 40.9627L55.6998 35.2627L50.5998 33.1627L43.6998 38.8627L41.2998 37.8627Z" fill="#1D1D1B"/>
<path d="M66.1 37.3627C66.7 37.5627 67.3 37.8627 67.7 38.1627C68.1 38.4627 68.4 38.8627 68.5 39.2627C68.7 39.9627 68.4 40.7627 67.6 41.3627C67.2 41.6627 66.8 41.9627 66.3 42.1627C65.8 42.3627 65.2 42.4627 64.5 42.5627C63.8 42.5627 63 42.5627 62.3 42.4627C61.6 42.3627 60.9 42.1627 60.3 41.8627L58.4 41.0627L55.4 43.4627L53 42.4627L61.6 35.3627L66.1 37.3627ZM62 40.6627C62.2 40.7627 62.5 40.8627 62.8 40.8627C63.1 40.8627 63.4 40.9627 63.7 40.8627C64 40.8627 64.3 40.7627 64.5 40.6627C64.8 40.5627 65 40.4627 65.1 40.2627C65.3 40.1627 65.4 39.9627 65.5 39.8627C65.6 39.7627 65.6 39.5627 65.5 39.3627C65.4 39.1627 65.3 39.0627 65.2 38.8627C65 38.7627 64.8 38.5627 64.6 38.5627L62.5 37.6627L60 39.6627L62 40.6627Z" fill="#1D1D1B"/>
<path d="M86.4998 58.2626L88.1998 56.8626L76.2998 52.0627L84.8998 44.9626L87.3998 45.9626L80.4998 51.6626L83.2998 52.7626L90.1998 47.0627L92.6998 48.0627L85.7998 53.7626L88.6998 54.9626L95.5998 49.2626L98.0998 50.2626L91.1998 55.9626L92.4998 56.4626L89.0998 59.2626L86.4998 58.2626Z" fill="#1D1D1B"/>
<path d="M91.7002 58.2627L100.3 51.1627L108.6 54.5627L107 55.8627L101.2 53.4627L99.4002 54.9627L104.8 57.1627L103.2 58.4627L97.8002 56.2627L95.9002 57.8627L101.7 60.2627L100.1 61.5627L91.7002 58.2627Z" fill="#1D1D1B"/>
<path d="M42.6004 39.5627L43.2004 39.8627L40.4004 42.1627L39.8004 41.9627L40.7004 41.1627C40.3004 41.0627 40.0004 41.0627 39.7004 40.8627C39.5004 40.7627 39.3004 40.7627 39.2004 40.5627C39.1004 40.4627 39.0004 40.3627 38.9004 40.1627C38.9004 40.0627 38.9004 39.8627 38.9004 39.7627C39.0004 39.6627 39.1004 39.5627 39.2004 39.4627L40.2004 38.6627L40.8004 38.8627L39.9004 39.5627C39.7004 39.6627 39.6004 39.8627 39.6004 40.0627C39.7004 40.1627 39.8004 40.3627 40.1004 40.4627C40.4004 40.5627 40.8004 40.6627 41.1004 40.6627L42.6004 39.5627Z" fill="#575756"/>
<path d="M41.2002 42.3627L43.9002 40.0627L46.4002 41.0627L46.0002 41.3627L44.1002 40.5627L43.4002 41.1627L45.2002 41.8627L44.8002 42.1627L43.1002 41.4627L42.3002 42.0627L44.2002 42.8627L43.8002 43.1627L41.2002 42.3627Z" fill="#575756"/>
<path d="M44.2002 43.5627L46.9002 41.2627L47.2002 41.3627V43.3627L50.5002 42.6627L50.8002 42.7627L48.1002 45.0627L47.5002 44.8627L49.3002 43.4627L46.7002 44.0627L46.5002 43.9627V42.3627L44.7002 43.8627L44.2002 43.5627Z" fill="#575756"/>
<path d="M53.7 46.4627C53.6 46.5627 53.5 46.6627 53.3 46.6627C53.1 46.7627 53 46.7627 52.8 46.7627C52.6 46.7627 52.4 46.7627 52.2 46.7627C52 46.7627 51.8 46.6627 51.7 46.6627L50 45.9627L52.8 43.6627L54.4 44.2627C54.6 44.3627 54.7 44.3627 54.8 44.4627C54.9 44.5627 55 44.6627 55 44.7627C55 44.8627 55 44.9627 55 45.0627C55 45.1627 54.9 45.2627 54.8 45.2627C54.7 45.3627 54.5 45.4627 54.3 45.4627C54.1 45.4627 53.9 45.5627 53.7 45.4627C53.9 45.5627 54 45.7627 54 45.8627C54 46.1627 53.9 46.3627 53.7 46.4627ZM53 44.2627L52.3 44.8627L53.2 45.2627C53.3 45.2627 53.3 45.3627 53.4 45.3627C53.5 45.3627 53.6 45.3627 53.7 45.3627C53.8 45.3627 53.9 45.3627 54 45.3627C54.1 45.3627 54.1 45.2627 54.2 45.2627L54.3 45.1627V45.0627L54.2 44.9627C54.1 44.9627 54.1 44.8627 54 44.8627L53 44.2627ZM52 46.2627C52.1 46.2627 52.2 46.3627 52.3 46.3627C52.4 46.3627 52.5 46.3627 52.6 46.3627C52.7 46.3627 52.8 46.3627 52.9 46.2627C53 46.1627 53.1 46.1627 53.1 46.1627C53.2 46.0627 53.2 46.0627 53.2 45.9627C53.2 45.8627 53.2 45.8627 53.2 45.7627C53.2 45.6627 53.1 45.6627 53 45.5627C52.9 45.5627 52.8 45.4627 52.7 45.4627L51.8 45.0627L51 45.7627L52 46.2627Z" fill="#575756"/>
<path d="M56.6004 46.3626C56.9004 46.4626 57.1004 46.5626 57.2004 46.7626C57.3004 46.9626 57.4004 47.1626 57.3004 47.2626C57.2004 47.4626 57.1004 47.6626 56.9004 47.7626C56.7004 47.8626 56.4004 47.9627 56.1004 48.0627C55.9004 48.0627 55.6004 48.0627 55.4004 48.0627C55.2004 48.0627 55.0004 47.9626 54.8004 47.8626L53.4004 47.2626L56.1004 44.9626L56.7004 45.1626L55.7004 45.9626L56.6004 46.3626ZM55.2004 47.5627C55.3004 47.6627 55.4004 47.6626 55.5004 47.6626C55.6004 47.6626 55.7004 47.6626 55.9004 47.6626C56.0004 47.6626 56.1004 47.6627 56.3004 47.5627C56.4004 47.5627 56.5004 47.4626 56.6004 47.3626C56.7004 47.2626 56.7004 47.2626 56.7004 47.1626C56.7004 47.0626 56.7004 47.0626 56.7004 46.9626C56.7004 46.8626 56.6004 46.8626 56.5004 46.7626C56.4004 46.6626 56.3004 46.6626 56.2004 46.6626L55.4004 46.3626L54.4004 47.1626L55.2004 47.5627ZM59.5004 46.3626L60.1004 46.5627L57.4004 48.8626L56.8004 48.5627L59.5004 46.3626Z" fill="#575756"/>
<path d="M62.5998 50.4627L62.9998 50.6627L61.9998 51.4627L61.3998 51.1627L61.8998 50.7627L59.4998 49.7627L58.8998 50.2627L58.2998 50.0627L59.2998 49.2627L59.5998 49.3627C59.8998 49.2627 60.1998 49.1627 60.4998 49.0627C60.9998 48.8627 61.3998 48.5627 61.7998 48.3627L62.6998 47.7627L64.8998 48.6627L62.5998 50.4627ZM61.9998 50.2627L63.8998 48.6627L62.7998 48.2627L62.5998 48.3627C61.8998 48.8627 61.1998 49.2627 60.2998 49.5627L61.9998 50.2627Z" fill="#575756"/>
<path d="M62.9004 51.0627L63.3004 50.7627C63.4004 50.8627 63.5004 50.8627 63.6004 50.9627C63.7004 50.9627 63.8004 51.0627 63.9004 51.0627C64.0004 51.0627 64.1004 51.0627 64.2004 51.0627C64.4004 51.0627 64.7004 50.9627 64.9004 50.8627L65.5004 48.8627L66.2004 49.1627L65.7004 50.6627L67.9004 49.8627L68.6004 50.1627L67.5004 50.5627C66.6004 50.8627 65.9004 51.1627 65.3004 51.3627C65.0004 51.4627 64.6004 51.5627 64.3004 51.5627C64.1004 51.5627 63.9004 51.5627 63.8004 51.5627C63.6004 51.5627 63.5004 51.4627 63.3004 51.4627C63.1004 51.2627 63.0004 51.1627 62.9004 51.0627Z" fill="#575756"/>
<path d="M66.0996 52.4627L68.7996 50.1627L69.0996 50.2627V52.2627L72.3996 51.5627L72.6996 51.6627L69.9996 53.9627L69.3996 53.7627L71.1996 52.3627L68.5996 52.9627L68.3996 52.8627V51.2627L66.5996 52.6627L66.0996 52.4627Z" fill="#575756"/>
<path d="M73.2004 55.2626L73.5004 54.5627L72.1004 53.9626L71.1004 54.3626L70.4004 54.0627L74.6004 52.4626L75.0004 52.6626L73.8004 55.5627L73.2004 55.2626ZM74.2004 53.1626L72.7004 53.7626L73.8004 54.1626L74.2004 53.1626Z" fill="#575756"/>
<path d="M74.2002 55.6627L76.9002 53.3627L79.4002 54.3627L79.0002 54.6627L77.1002 53.8627L76.4002 54.4627L78.2002 55.1627L77.8002 55.4627L76.1002 54.7627L75.3002 55.3627L77.2002 56.1627L76.8002 56.4627L74.2002 55.6627Z" fill="#575756"/>
<path d="M80.4002 55.3627L79.3002 54.8627L79.7002 54.5627L82.6002 55.7627L82.2002 56.0627L81.1002 55.5627L78.8002 57.4627L78.2002 57.1627L80.4002 55.3627Z" fill="#575756"/>
<path d="M80.0996 58.0627L82.7996 55.7627L85.2996 56.7627L84.8996 57.0627L82.9996 56.2627L82.2996 56.8627L83.9996 57.5627L83.5996 57.8627L81.7996 57.1627L80.9996 57.7627L82.8996 58.5627L82.4996 58.8627L80.0996 58.0627Z" fill="#575756"/>
<path fill-rule="evenodd" clip-rule="evenodd" d="M67.4 42.4627C68.4 41.7627 69.8 41.3627 71.3 41.0627C72.8 40.8627 74.4 40.8627 75.9 41.1627C77.4 41.4627 78.6 42.0627 79.6 42.7627C80.5 43.4627 81.1 44.3627 81.1 45.2627C81.2 46.1627 80.8 47.0627 80 47.8627C79.2 48.6627 78 49.2627 76.6 49.6627C75.2 50.0627 73.6 50.1627 72.1 50.0627C70.6 49.9627 69.1 49.5627 68 48.9627C66.5 48.1627 65.5 47.0627 65.4 45.8627C65.3 44.4627 66 43.3627 67.4 42.4627Z" fill="#1D1D1B"/>
<path fill-rule="evenodd" clip-rule="evenodd" d="M69.1997 43.3626C69.8997 42.8626 70.8997 42.5627 71.8997 42.4627C72.9997 42.3627 74.0997 42.3627 75.0997 42.5627C76.0997 42.7627 76.9997 43.1627 77.6997 43.6627C78.2997 44.1627 78.6997 44.7626 78.7997 45.3626C78.7997 45.9626 78.5997 46.5627 77.9997 47.1627C77.3997 47.6627 76.5997 48.1627 75.5997 48.3626C74.5997 48.6627 73.4997 48.7627 72.3997 48.6627C71.2997 48.5627 70.2997 48.2627 69.4997 47.8626C68.3997 47.2627 67.7997 46.4627 67.7997 45.6627C67.6997 44.7627 68.1997 43.9626 69.1997 43.3626Z" fill="white"/>
<path fill-rule="evenodd" clip-rule="evenodd" d="M69.4998 44.6626C69.8998 44.4626 70.3998 44.2626 70.8998 44.1626C71.3998 44.0626 71.9998 44.0626 72.5998 44.1626C73.0998 44.2626 73.5998 44.4627 73.8998 44.7627C74.1998 45.0627 74.3998 45.3626 74.4998 45.6626C74.4998 45.9626 74.3998 46.3627 74.0998 46.5627C73.7998 46.8627 73.3998 47.0626 72.8998 47.1626C72.3998 47.2626 71.7998 47.3627 71.2998 47.2627C70.6998 47.2627 70.1998 47.0626 69.7998 46.8626C69.4998 46.7626 69.2998 46.5626 69.0998 46.3626C68.8998 46.1626 68.7998 45.9627 68.7998 45.7627C68.7998 45.5627 68.7998 45.3626 68.9998 45.1626C68.9998 45.0626 69.1998 44.8626 69.4998 44.6626Z" fill="#FDC300"/>
<path d="M69.7997 46.2627C69.8997 46.2627 69.8997 46.2627 69.7997 46.2627C69.7997 46.3627 69.7997 46.3627 69.6997 46.3627H69.5997C69.5997 46.3627 69.4997 46.3627 69.4997 46.2627C69.2997 46.0627 69.2997 45.7627 69.3997 45.5627C69.4997 45.3627 69.6997 45.0627 69.9997 44.8627C69.9997 44.8627 69.9997 44.8627 70.0997 44.8627C70.1997 44.8627 70.0997 44.8627 70.1997 44.8627C70.1997 44.8627 70.1997 44.8627 70.2997 44.8627C70.3997 44.8627 70.2997 44.8627 70.3997 44.8627C70.3997 44.8627 70.4997 44.8627 70.4997 44.9627V45.0627C70.2997 45.2627 70.0997 45.3627 69.9997 45.5627C69.5997 45.8627 69.6997 46.0627 69.7997 46.2627Z" fill="white"/>
<path fill-rule="evenodd" clip-rule="evenodd" d="M98.8999 63.8627C98.1999 66.6627 99 69.5627 101.1 72.1627C103.2 74.7627 106.7 76.8627 110.9 78.2627C115.2 79.6627 120 80.3627 125 80.2627C129.9 80.0627 134.7 79.0627 138.6 77.3627C142.5 75.6627 145.5 73.2627 147.1 70.5627C148.7 67.8627 148.9 64.9627 147.7 62.1627C146.5 59.3627 143.8 56.9627 140.2 55.0627C136.5 53.1627 131.9 51.9627 127.1 51.5627C120.6 51.0627 113.9 52.0627 108.6 54.3627C103.3 56.6627 99.7999 60.0627 98.8999 63.8627Z" fill="#1D1D1B"/>
<path fill-rule="evenodd" clip-rule="evenodd" d="M102 64.0627C101.4 66.5627 102.1 69.0627 103.9 71.2627C105.8 73.4627 108.7 75.3627 112.4 76.6627C116.1 77.9627 120.4 78.5627 124.6 78.3627C128.9 78.2627 133 77.3627 136.4 75.8627C139.8 74.3627 142.4 72.3627 143.8 69.9627C145.2 67.6627 145.4 65.0627 144.3 62.6627C143.2 60.2627 140.9 58.0627 137.7 56.4627C134.5 54.8627 130.5 53.7627 126.3 53.3627C120.6 52.8627 114.8 53.7627 110.2 55.7627C105.6 57.7627 102.8 60.7627 102 64.0627Z" fill="white"/>
<path fill-rule="evenodd" clip-rule="evenodd" d="M138.5 70.8627C140.1 70.2627 141.4 69.3627 142.2 68.2627C143 67.2627 143.2 66.0627 142.8 64.9627C142.4 63.8627 141.5 62.8627 140.1 62.0627C138.7 61.2627 137 60.6627 135 60.4627C133.1 60.2627 131.1 60.3627 129.3 60.7627C127.5 61.1627 125.9 61.9627 124.8 62.8627C123.7 63.7627 123.1 64.8627 123.1 66.0627C123.1 67.1627 123.7 68.2627 124.8 69.2627C126.3 70.5627 128.5 71.3627 131.1 71.6627C133.6 72.0627 136.3 71.7627 138.5 70.8627Z" fill="#FDC300"/>
<path d="M126.4 66.6627C126.4 66.7627 126.4 66.8627 126.3 66.9627C126.2 67.0627 126.1 67.0627 125.9 67.0627C125.7 67.0627 125.6 67.0627 125.4 66.9627C125.3 66.8627 125.2 66.8627 125.2 66.7627C125 65.8627 125.2 65.0627 125.8 64.2627C126.4 63.4627 127.4 62.7627 128.6 62.3627C128.7 62.3627 128.7 62.3627 128.8 62.2627C128.9 62.2627 129 62.2627 129 62.2627C129.1 62.2627 129.2 62.2627 129.2 62.3627C129.3 62.3627 129.3 62.4627 129.4 62.4627L129.5 62.5627V62.6627C129.5 62.6627 129.5 62.7627 129.4 62.7627C129.4 62.7627 129.3 62.8627 129.2 62.8627C128.2 63.2627 127.3 63.8627 126.8 64.4627C126.4 65.2627 126.3 65.9627 126.4 66.6627Z" fill="white"/>
<path d="M128.7 69.0627C128.8 69.0627 128.8 69.1627 128.8 69.1627L128.9 69.2627V69.3627L128.8 69.4627C128.7 69.4627 128.7 69.5627 128.6 69.5627C128.5 69.5627 128.5 69.5627 128.4 69.5627C128.3 69.5627 128.2 69.5627 128.2 69.5627C128.1 69.5627 128.1 69.5627 128 69.4627C127.7 69.3627 127.4 69.1627 127.2 68.9627C126.9 68.7627 126.7 68.6627 126.5 68.4627C126.3 68.2627 126.1 68.0627 126 67.8627C125.9 67.8627 125.9 67.7627 125.9 67.7627C125.9 67.6627 125.9 67.6627 125.9 67.5627C125.9 67.4627 126 67.4627 126 67.4627C126.1 67.4627 126.1 67.3627 126.2 67.3627C126.3 67.3627 126.4 67.3627 126.5 67.3627C126.6 67.3627 126.7 67.3627 126.8 67.3627C126.9 67.3627 127 67.4627 127 67.4627C127.1 67.4627 127.1 67.5627 127.1 67.5627C127.2 67.7627 127.4 67.8627 127.6 68.0627C127.8 68.1627 128 68.3627 128.2 68.4627C128.2 68.7627 128.4 68.8627 128.7 69.0627Z" fill="white"/>
<path d="M41.2998 37.8627L49.8998 30.7627L59.8998 34.8627L51.2998 41.9627L48.8998 40.9627L55.7998 35.2627L50.6998 33.1627L43.7998 38.8627L41.2998 37.8627Z" fill="#1D1D1B"/>
<path d="M66.1 37.3627C66.7 37.5627 67.3 37.8627 67.7 38.1627C68.1 38.4627 68.4 38.8627 68.5 39.2627C68.7 39.9627 68.4 40.7627 67.6 41.3627C67.2 41.6627 66.8 41.9627 66.3 42.1627C65.8 42.3627 65.2 42.4627 64.5 42.5627C63 42.6627 61.5 42.3627 60.3 41.8627L58.4 41.0627L55.5 43.4627L53 42.4627L61.6 35.3627L66.1 37.3627ZM61.9 40.6627C62.1 40.7627 62.4 40.8627 62.7 40.8627C63 40.9627 63.3 40.9627 63.6 40.8627C63.9 40.8627 64.2 40.7627 64.4 40.6627C64.7 40.5627 64.9 40.4627 65 40.2627C65.2 40.1627 65.3 39.9627 65.4 39.8627C65.5 39.7627 65.5 39.5627 65.4 39.3627C65.3 39.1627 65.2 39.0627 65.1 38.8627C64.9 38.7627 64.7 38.5627 64.5 38.5627L62.4 37.6627L59.9 39.6627L61.9 40.6627Z" fill="#1D1D1B"/>
<path d="M86.4998 58.2626L88.1998 56.8626L76.2998 52.0627L84.8998 44.9626L87.3998 45.9626L80.4998 51.6626L83.2998 52.7626L90.1998 47.0627L92.6998 48.0627L85.7998 53.7626L88.6998 54.9626L95.5998 49.2626L98.0998 50.2626L91.1998 55.9626L92.4998 56.4626L89.0998 59.2626L86.4998 58.2626Z" fill="#1D1D1B"/>
<path d="M91.7002 58.2627L100.3 51.1627L108.6 54.4627L107 55.7627L101.2 53.3627L99.4002 54.8627L104.8 57.0627L103.2 58.3627L97.8002 56.1627L95.9002 57.7627L101.7 60.1627L100.1 61.4627L91.7002 58.2627Z" fill="#1D1D1B"/>
<path d="M42.5999 39.5627L43.1999 39.7627L40.3999 42.0627L39.7999 41.8627L40.6999 41.0627C40.2999 41.0627 39.9999 40.9627 39.6999 40.7627C39.4999 40.6627 39.2999 40.6627 39.1999 40.5627C39.0999 40.4627 38.9999 40.3627 38.8999 40.1627C38.7999 39.9627 38.8999 39.8627 38.8999 39.7627C38.9999 39.6627 39.0999 39.5627 39.1999 39.4627L40.1999 38.6627L40.7999 38.8627L39.8999 39.5627C39.6999 39.6627 39.5999 39.8627 39.5999 40.0627C39.5999 40.1627 39.6999 40.1627 39.7999 40.2627C39.8999 40.3627 39.9999 40.3627 40.0999 40.4627C40.3999 40.5627 40.7999 40.6627 41.0999 40.6627L42.5999 39.5627Z" fill="#575756"/>
<path d="M41.2002 42.3627L43.9002 40.0627L46.4002 41.0627L46.0002 41.3627L44.1002 40.5627L43.4002 41.1627L45.2002 41.8627L44.8002 42.1627L43.0002 41.4627L42.2002 42.0627L44.1002 42.8627L43.7002 43.1627L41.2002 42.3627Z" fill="#575756"/>
<path d="M44.2002 43.5627L46.9002 41.2627L47.2002 41.3627V43.3627L50.5002 42.6627L50.8002 42.7627L48.1002 45.0627L47.5002 44.8627L49.3002 43.4627L46.7002 44.0627L46.5002 43.9627V42.3627L44.7002 43.7627L44.2002 43.5627Z" fill="#575756"/>
<path d="M53.7996 46.4627C53.6996 46.5627 53.5996 46.6627 53.3996 46.6627C53.1996 46.7627 53.0996 46.7627 52.8996 46.7627C52.6996 46.7627 52.4996 46.7627 52.2996 46.7627C52.0996 46.7627 51.8996 46.6627 51.7996 46.5627L50.0996 45.8627L52.8996 43.5627L54.4996 44.2627C54.6996 44.3627 54.7996 44.3627 54.8996 44.4627C54.9996 44.5627 55.0996 44.6627 55.0996 44.7627C55.0996 44.8627 55.0996 44.9627 55.0996 45.0627C55.0996 45.1627 54.9996 45.2627 54.8996 45.2627C54.7996 45.3627 54.5996 45.4627 54.3996 45.4627C54.1996 45.4627 53.9996 45.5627 53.7996 45.4627C53.9996 45.5627 54.0996 45.7627 54.0996 45.8627C54.0996 46.1627 53.9996 46.3627 53.7996 46.4627ZM53.0996 44.2627L52.3996 44.8627L53.2996 45.2627C53.3996 45.2627 53.3996 45.3627 53.4996 45.3627C53.5996 45.3627 53.6996 45.3627 53.7996 45.3627C53.8996 45.3627 53.9996 45.3627 54.0996 45.2627C54.1996 45.2627 54.1996 45.1627 54.2996 45.1627L54.3996 45.0627V44.9627L54.2996 44.8627C54.1996 44.8627 54.1996 44.7627 54.0996 44.7627L53.0996 44.2627ZM51.9996 46.2627C52.0996 46.2627 52.1996 46.3627 52.2996 46.3627C52.3996 46.3627 52.4996 46.3627 52.5996 46.3627C52.6996 46.3627 52.7996 46.3627 52.8996 46.2627C52.9996 46.2627 53.0996 46.1627 53.0996 46.1627C53.0996 46.1627 53.1996 46.0627 53.1996 45.9627C53.1996 45.8627 53.1996 45.8627 53.1996 45.7627C53.1996 45.6627 53.0996 45.6627 52.9996 45.5627C52.8996 45.5627 52.7996 45.4627 52.6996 45.4627L51.7996 45.0627L50.9996 45.7627L51.9996 46.2627Z" fill="#575756"/>
<path d="M56.6004 46.3626C56.9004 46.4626 57.1004 46.5626 57.2004 46.7626C57.3004 46.9626 57.4004 47.1626 57.3004 47.2626C57.2004 47.4626 57.1004 47.6626 56.9004 47.7626C56.7004 47.8626 56.4004 47.9627 56.1004 48.0627C55.9004 48.0627 55.7004 48.0627 55.4004 48.0627C55.2004 48.0627 55.0004 47.9626 54.8004 47.8626L53.4004 47.2626L56.1004 44.9626L56.7004 45.1626L55.7004 45.9626L56.6004 46.3626ZM55.2004 47.5627C55.7004 47.7627 56.2004 47.7626 56.5004 47.4626C56.6004 47.3626 56.6004 47.3626 56.6004 47.2626C56.6004 47.1626 56.6004 47.1627 56.6004 47.0627C56.6004 46.9627 56.5004 46.9626 56.4004 46.8626C56.3004 46.7626 56.2004 46.7626 56.1004 46.7626L55.3004 46.4626L54.3004 47.2626L55.2004 47.5627ZM59.5004 46.3626L60.1004 46.6626L57.4004 48.9626L56.8004 48.7626L59.5004 46.3626Z" fill="#575756"/>
<path d="M62.5998 50.4627L62.9998 50.6627L61.9998 51.4627L61.3998 51.2627L61.8998 50.8627L59.4998 49.8627L58.8998 50.3627L58.2998 50.1627L59.2998 49.3627L59.5998 49.4627C59.8998 49.3627 60.1998 49.2627 60.3998 49.1627C60.8998 48.9627 61.2998 48.6627 61.6998 48.4627L62.5998 47.8627L64.7998 48.7627L62.5998 50.4627ZM61.9998 50.2627L63.9998 48.6627L62.8998 48.2627L62.6998 48.3627C61.9998 48.8627 61.2998 49.2627 60.3998 49.5627L61.9998 50.2627Z" fill="#575756"/>
<path d="M62.9004 51.0627L63.4004 50.7627C63.5004 50.8627 63.6004 50.8627 63.7004 50.9627C63.8004 50.9627 63.9004 51.0627 64.0004 51.0627C64.1004 51.0627 64.2004 51.0627 64.3004 51.0627C64.5004 51.0627 64.8004 50.9627 65.0004 50.8627L65.6004 48.8627L66.3004 49.1627L65.8004 50.6627L68.0004 49.8627L68.7004 50.1627L67.6004 50.5627C66.7004 50.8627 66.0004 51.1627 65.4004 51.3627C65.1004 51.4627 64.7004 51.5627 64.4004 51.5627C64.2004 51.5627 64.0004 51.5627 63.9004 51.5627C63.7004 51.5627 63.6004 51.4627 63.4004 51.4627C63.1004 51.2627 63.0004 51.1627 62.9004 51.0627Z" fill="#575756"/>
<path d="M66.0996 52.4627L68.7996 50.1627L69.0996 50.2627V52.2627L72.3996 51.5627L72.6996 51.6627L69.9996 53.9627L69.3996 53.6627L71.1996 52.2627L68.5996 52.8627L68.3996 52.7627V51.1627L66.5996 52.5627L66.0996 52.4627Z" fill="#575756"/>
<path d="M73.2004 55.2626L73.5004 54.5627L72.1004 53.9626L71.1004 54.3626L70.4004 54.0627L74.6004 52.4626L75.0004 52.6626L73.8004 55.5627L73.2004 55.2626ZM74.2004 53.1626L72.7004 53.7626L73.8004 54.1626L74.2004 53.1626Z" fill="#575756"/>
<path d="M74.2002 55.6627L76.9002 53.3627L79.4002 54.3627L79.0002 54.6627L77.1002 53.8627L76.4002 54.4627L78.2002 55.1627L77.8002 55.4627L76.0002 54.7627L75.2002 55.3627L77.1002 56.1627L76.7002 56.4627L74.2002 55.6627Z" fill="#575756"/>
<path d="M80.4002 55.3627L79.3002 54.8627L79.7002 54.5627L82.6002 55.7627L82.2002 56.0627L81.1002 55.5627L78.8002 57.4627L78.2002 57.1627L80.4002 55.3627Z" fill="#575756"/>
<path d="M80.2002 58.0627L82.9002 55.7627L85.4002 56.7627L85.0002 57.0627L83.1002 56.2627L82.4002 56.8627L84.2002 57.5627L83.8002 57.8627L82.0002 57.1627L81.2002 57.7627L83.1002 58.5627L82.7002 58.8627L80.2002 58.0627Z" fill="#575756"/>
<path fill-rule="evenodd" clip-rule="evenodd" d="M67.4 42.4627C68.4 41.7627 69.8 41.3627 71.3 41.0627C72.8 40.8627 74.4 40.8627 75.9 41.1627C77.4 41.4627 78.6 42.0627 79.6 42.7627C80.5 43.4627 81.1 44.3627 81.1 45.2627C81.2 46.1627 80.8 47.0627 80 47.8627C79.2 48.6627 78 49.2627 76.6 49.6627C75.2 50.0627 73.6 50.1627 72.1 50.0627C70.6 49.9627 69.1 49.5627 68 48.9627C67.2 48.5627 66.6 48.0627 66.2 47.5627C65.8 47.0627 65.5 46.4627 65.5 45.8627C65.5 45.2627 65.6 44.6627 66 44.0627C66.2 43.3627 66.7 42.8627 67.4 42.4627Z" fill="#1D1D1B"/>
<path fill-rule="evenodd" clip-rule="evenodd" d="M69.1997 43.3626C69.8997 42.8626 70.8997 42.5627 71.8997 42.4627C72.9997 42.2627 74.0997 42.3627 75.0997 42.5627C76.0997 42.7627 76.9997 43.1626 77.6997 43.6626C78.2997 44.1626 78.6997 44.7626 78.7997 45.3626C78.7997 45.9626 78.5997 46.5626 77.9997 47.1626C77.3997 47.7626 76.5997 48.1626 75.5997 48.3626C74.5997 48.6626 73.4997 48.7626 72.3997 48.6626C71.2997 48.5626 70.2997 48.2626 69.4997 47.8626C68.3997 47.2626 67.7997 46.4626 67.7997 45.6626C67.6997 44.7626 68.1997 43.9626 69.1997 43.3626Z" fill="white"/>
<path fill-rule="evenodd" clip-rule="evenodd" d="M73.7998 42.6627C74.2998 42.7627 74.6998 42.8627 75.0998 43.1627C75.3998 43.3627 75.5998 43.6627 75.6998 43.9627C75.7998 44.2627 75.6998 44.5627 75.4998 44.8627C75.2998 45.1627 74.8998 45.3627 74.4998 45.4627C74.0998 45.5627 73.4998 45.6627 72.9998 45.6627C72.4998 45.6627 71.9998 45.5627 71.5998 45.3627C71.1998 45.1627 70.8998 44.9627 70.6998 44.6627C70.4998 44.3627 70.4998 44.0627 70.6998 43.7627C70.7998 43.5627 70.8998 43.3627 71.0998 43.2627C71.2998 43.0627 71.5998 42.9627 71.8998 42.8627C72.1998 42.7627 72.4998 42.6627 72.8998 42.6627C73.0998 42.6627 73.4998 42.6627 73.7998 42.6627Z" fill="#FDC300"/>
<path d="M71.8004 43.4627C71.7004 43.4627 71.7004 43.4627 71.7004 43.4627C71.7004 43.4627 71.7004 43.4627 71.6004 43.4627C71.6004 43.4627 71.6004 43.4627 71.5004 43.4627C71.5004 43.4627 71.5004 43.4627 71.4004 43.4627C71.7004 43.2627 72.0004 43.1627 72.4004 43.0627C72.8004 42.9627 73.2004 42.9627 73.5004 43.0627H73.6004C73.6004 43.0627 73.6004 43.0627 73.6004 43.1627C73.6004 43.1627 73.6004 43.1627 73.5004 43.2627H73.4004C73.1004 43.1627 72.8004 43.2627 72.4004 43.2627C72.3004 43.1627 72.1004 43.2627 71.8004 43.4627Z" fill="white"/>
<path fill-rule="evenodd" clip-rule="evenodd" d="M98.8999 63.8627C98.1999 66.6627 99 69.5627 101.1 72.1627C103.2 74.7627 106.7 76.8627 110.9 78.2627C115.2 79.6627 120 80.3627 125 80.2627C130 80.1627 134.7 79.0627 138.6 77.3627C142.5 75.6627 145.5 73.2627 147.1 70.5627C148.7 67.8627 148.9 64.9627 147.7 62.1627C146.5 59.3627 143.8 56.9627 140.2 55.0627C136.5 53.1627 131.9 51.9627 127.1 51.5627C120.6 51.0627 113.9 52.0627 108.6 54.3627C103.3 56.6627 99.7999 60.0627 98.8999 63.8627Z" fill="#1D1D1B"/>
<path fill-rule="evenodd" clip-rule="evenodd" d="M102 64.0627C101.4 66.5627 102.1 69.0627 103.9 71.2627C105.8 73.4627 108.7 75.3627 112.4 76.6627C116.1 77.9627 120.4 78.5627 124.6 78.3627C128.9 78.2627 133 77.3627 136.4 75.8627C139.8 74.3627 142.4 72.3627 143.8 69.9627C145.2 67.6627 145.4 65.0627 144.3 62.6627C143.2 60.2627 140.9 58.0627 137.7 56.4627C134.5 54.8627 130.5 53.7627 126.3 53.3627C120.6 52.8627 114.8 53.7627 110.2 55.7627C105.9 57.7627 102.9 60.7627 102 64.0627Z" fill="white"/>
<path fill-rule="evenodd" clip-rule="evenodd" d="M115.799 64.8627C117.199 65.6627 118.999 66.1627 120.899 66.4627C122.799 66.6627 124.799 66.5627 126.599 66.1627C128.399 65.7627 129.999 64.9627 131.099 64.0627C132.199 63.1627 132.799 62.0627 132.799 60.8627C132.799 59.7627 132.199 58.6627 131.099 57.6627C129.999 56.7627 128.499 55.9627 126.699 55.5627C124.899 55.1627 122.899 54.9627 120.999 55.2627C119.099 55.4627 117.299 56.0627 115.899 56.8627C113.999 57.9627 112.999 59.3627 112.999 60.8627C112.899 62.3627 113.999 63.7627 115.799 64.8627Z" fill="#FDC300"/>
<path d="M120.7 57.2627C120.5 57.2627 120.4 57.2627 120.2 57.2627C120.1 57.2627 119.9 57.1627 119.9 57.0627V56.9627C119.9 56.9627 119.9 56.8627 120 56.8627L120.1 56.7627C120.2 56.7627 120.2 56.6627 120.3 56.6627C121.7 56.3627 123.2 56.2627 124.7 56.4627C126.2 56.6627 127.5 57.0627 128.6 57.6627C128.7 57.7627 128.8 57.8627 128.8 57.8627C128.8 57.9627 128.7 58.0627 128.6 58.1627C128.5 58.2627 128.3 58.2627 128.2 58.2627C128 58.2627 127.9 58.2627 127.8 58.1627C126.9 57.6627 125.8 57.2627 124.6 57.1627C123.2 56.9627 121.9 56.9627 120.7 57.2627Z" fill="white"/>
<path d="M117.1 58.9627C117 59.0627 116.9 59.0627 116.8 59.0627C116.7 59.0627 116.5 59.0627 116.4 59.0627C116.3 59.0627 116.2 58.9627 116.1 58.8627C116 58.7627 116 58.6627 116.1 58.6627C116.3 58.4627 116.5 58.2627 116.7 58.0627C116.9 57.8627 117.2 57.7627 117.4 57.5627C117.7 57.3627 118 57.2627 118.3 57.1627C118.4 57.0627 118.6 57.0627 118.8 57.0627C119 57.0627 119.1 57.1627 119.2 57.1627C119.3 57.2627 119.3 57.3627 119.3 57.4627C119.3 57.5627 119.2 57.6627 119.1 57.6627C118.9 57.7627 118.6 57.8627 118.4 57.9627C118.2 58.0627 117.9 58.1627 117.7 58.3627C117.5 58.6627 117.3 58.7627 117.1 58.9627Z" fill="white"/>
</svg>
