<svg width="355" height="351" fill="none" xmlns="http://www.w3.org/2000/svg">
  <defs/>
  <circle cx="7" cy="344" r="7" fill="#C4C4C4"/>
  <ellipse cx="31.5" cy="344" rx="6.5" ry="7" fill="#C4C4C4"/>
  <ellipse cx="56.5" cy="344" rx="6.5" ry="7" fill="#C4C4C4"/>
  <rect width="255" height="101" rx="20" transform="matrix(-1 0 0 1 271 190)" fill="#56CCF2"/>
  <path d="M8.4 284c9.7-9.5 9.3-19 7.6-21 5.9 2.7 15 13.2 6.6 21-10.7 9.6-26.3 11.7-14.2 0z" fill="#56CCF2"/>
  <path d="M54.3 227v-13.4H43.8V227h1.7v-11.9h7.1V227h1.7zm8.3-10.2c-1.4 0-2.6.7-3.2 1.9h-.2V217h-1.5v13.3h1.6v-4.8h.1c.6 1 1.7 1.7 3.2 1.7 2.5 0 4.2-2 4.2-5.2 0-3.1-1.7-5.2-4.2-5.2zm-.4 9c-1.8 0-3-1.5-3-3.8s1.2-3.7 3-3.7 3 1.4 3 3.7c0 2.3-1.2 3.7-3 3.7zM71 227l5-7.5h.2v7.5h1.6v-10h-1.6l-5 7.5H71V217h-1.5v10H71zm14-8.7c1.1 0 1.6.6 1.6 1.4 0 1-.6 1.5-1.9 1.5h-2.1v-2.9H85zm-.1 4.2c1.4 0 2.2.5 2.2 1.6 0 1-.7 1.6-2 1.6h-2.5v-3.2h2.3zm-4 4.5h4.3c2.2 0 3.4-1.1 3.4-2.9 0-1.2-.8-2.1-2-2.3v-.1c.9-.2 1.6-1.2 1.6-2.1 0-1.6-1.1-2.6-3-2.6H81v10zm14.4-8.8c1.6 0 2.6 1.2 2.7 3h-5.6c.2-1.8 1.3-3 2.9-3zm2.6 6.2c-.4.9-1.3 1.4-2.6 1.4-1.7 0-2.8-1.3-2.9-3.3h7.2v-.6c0-3.2-1.6-5-4.3-5-2.8 0-4.5 2-4.5 5.1 0 3.2 1.7 5.2 4.5 5.2 2.2 0 3.7-1 4.2-2.8h-1.6zm11-7.4h-8.2v1.3h3.3v8.7h1.6v-8.7h3.2V217zm2.7-3.4l.1 9h1.6l.1-9h-1.8zm1 13.6c.7 0 1.2-.6 1.2-1.3 0-.8-.5-1.3-1.3-1.3-.7 0-1.3.5-1.3 1.3 0 .7.6 1.3 1.3 1.3zM45 247c2.3 0 3.2-1.4 4.3-4l4-9.5h-1.6l-3.5 8.7H48l-3.6-8.7h-1.8l4.6 10.5c-.5 1-1.2 1.4-2.2 1.4a3 3 0 01-.7 0v1.5h.7zm20.1-8.8c1.1 0 1.6.6 1.6 1.4 0 1-.5 1.5-1.8 1.5h-2.2v-2.9h2.4zm-.1 4.2c1.4 0 2.2.5 2.2 1.6 0 1-.7 1.6-1.9 1.6h-2.6v-3.2H65zm-4 4.5h4.3c2.2 0 3.5-1.1 3.5-2.9 0-1.2-.8-2.1-2.1-2.3v-.1c1-.2 1.6-1.2 1.6-2.1 0-1.6-1-2.6-3-2.6h-4.2v10zm13.6-1.2c-1.2 0-2-.6-2-1.6s.6-1.6 2.1-1.7l2.7-.1v.9c0 1.4-1.2 2.5-2.8 2.5zm-.3 1.4c1.3 0 2.4-.6 3-1.7h.2v1.5h1.5v-6.8c0-2.1-1.3-3.4-3.8-3.4-2.1 0-3.7 1-3.9 2.7H73c.2-.8 1-1.3 2.3-1.3 1.5 0 2.2.7 2.2 2v.9l-2.9.1c-2.3.2-3.6 1.2-3.6 3s1.4 3 3.4 3zm16.1-7.1c-.2-1.8-1.7-3.3-4.2-3.3-2.8 0-4.5 2-4.5 5.2 0 3.1 1.8 5.2 4.6 5.2 2.4 0 3.9-1.4 4.1-3.2H89c-.3 1.1-1.2 1.7-2.6 1.7-1.7 0-2.9-1.4-2.9-3.7 0-2.3 1.1-3.7 3-3.7 1.4 0 2.3.8 2.5 1.8h1.6zm12 7c2.9 0 4.7-1.9 4.7-5.1 0-3.2-1.8-5.2-4.6-5.2-2.9 0-4.7 2-4.7 5.2s1.8 5.2 4.7 5.2zm0-1.4c-1.8 0-3-1.3-3-3.7 0-2.4 1.2-3.7 3-3.7 2 0 3 1.3 3 3.7 0 2.4-1 3.7-3 3.7zm15.6-5.6c-.2-1.8-1.7-3.3-4.2-3.3-2.8 0-4.5 2-4.5 5.2 0 3.1 1.7 5.2 4.5 5.2 2.4 0 4-1.4 4.2-3.2h-1.6c-.3 1.1-1.2 1.7-2.6 1.7-1.7 0-2.9-1.4-2.9-3.7 0-2.3 1.1-3.7 3-3.7 1.4 0 2.3.8 2.5 1.8h1.6zm9.3-3.1h-8v1.3h3.2v8.7h1.6v-8.7h3.2V237zm5.3 8.8c-1.1 0-2-.6-2-1.6s.7-1.6 2.2-1.7l2.7-.1v.9c0 1.4-1.2 2.5-2.9 2.5zm-.3 1.4c1.4 0 2.4-.6 3.1-1.7h.1v1.5h1.6v-6.8c0-2.1-1.4-3.4-3.8-3.4-2.2 0-3.7 1-4 2.7h1.7c.2-.8 1-1.3 2.2-1.3 1.5 0 2.3.7 2.3 2v.9l-3 .1c-2.2.2-3.6 1.2-3.6 3s1.5 3 3.4 3zm10.3-4.6l.3-4.3h3.5v8.7h1.6v-10h-6.5l-.4 5.6c-.2 1.8-.5 3-1.5 3h-.5v1.4h.6c2 0 2.7-1.6 2.9-4.4zm12.7 4.6c2.8 0 4.6-2 4.6-5.2s-1.8-5.2-4.6-5.2c-2.9 0-4.6 2-4.6 5.2s1.7 5.2 4.6 5.2zm0-1.5c-1.9 0-3-1.3-3-3.7 0-2.4 1.1-3.7 3-3.7s3 1.3 3 3.7c0 2.4-1.1 3.7-3 3.7zm15.6-5.6c-.3-1.8-1.8-3.3-4.2-3.3-2.8 0-4.6 2-4.6 5.2 0 3.1 1.8 5.2 4.6 5.2 2.4 0 3.9-1.4 4.2-3.2h-1.6c-.3 1.1-1.3 1.7-2.6 1.7-1.8 0-3-1.4-3-3.7 0-2.3 1.2-3.7 3-3.7 1.4 0 2.3.8 2.6 1.8h1.6zm6 1.4c1.4 0 2.2.9 2.2 2.1 0 1.2-.8 2-2.1 2h-2v-4h2zm-3.5 5.5h3.6c2.3 0 3.7-1.3 3.7-3.4 0-2-1.4-3.4-3.7-3.4h-2V237h-1.6v10zm11 0c.7 0 1.3-.5 1.3-1.1a1.2 1.2 0 10-1.2 1.2zm0-7c.7 0 1.3-.6 1.3-1.2a1.2 1.2 0 10-1.2 1.2zM46.3 260.8H48c2 0 3.1 1 3.1 2.5s-1.2 2.6-3 2.6c-1.7 0-3-1-3-2.4h-1.7c.1 2.3 2 3.8 4.7 3.8s4.7-1.7 4.7-4c0-1.7-1-3-2.9-3.2v-.2c1.5-.3 2.3-1.5 2.3-3.1 0-2-1.8-3.5-4.2-3.5-2.5 0-4.2 1.4-4.3 3.7h1.6c.1-1.4 1.1-2.2 2.7-2.2 1.5 0 2.6.9 2.6 2.2 0 1.4-1.1 2.4-2.6 2.4h-1.7v1.4zm13.6 6.5c2.8 0 4.7-1.8 4.7-4.6 0-2.6-1.8-4.4-4.3-4.4-1.3 0-2.2.3-2.9 1.1h-.1l.4-4.3h6.1v-1.5h-7.4l-.8 7.6h1.6a3 3 0 012.8-1.5c1.7 0 3 1.3 3 3 0 2-1.3 3.2-3 3.2-1.6 0-2.8-1-3-2.5h-1.6c.2 2.3 2 4 4.5 4zm11.9 0c3 0 4.7-2.5 4.7-7 0-4.4-1.8-7-4.7-7-3 0-4.8 2.6-4.8 7 0 4.5 1.8 7 4.8 7zm0-1.4c-2 0-3.1-2-3.1-5.6 0-3.5 1.1-5.5 3-5.5 2 0 3.1 2 3.1 5.5 0 3.6-1 5.6-3 5.6zm17-.2c-1.9 0-3-1.3-3-3.6 0-2.2 1.1-3.5 3-3.5 2 0 3 1.3 3 3.5 0 2.3-1 3.6-3 3.6zm-3.2-6.7c.3-2.4 1-3.8 3.7-4h1c2 0 2.6-.6 2.6-.6V253s-1 .4-2.7.5h-1c-4 .2-5 3-5 7.6 0 4.1 1.7 6 4.7 6 2.8 0 4.6-1.9 4.6-5 0-3-1.8-4.9-4.4-4.9-1.7 0-2.8.8-3.4 1.8h-.1zm14.7 8.2c2.9 0 4.6-2 4.6-5.2s-1.7-5.2-4.6-5.2c-2.8 0-4.6 2-4.6 5.2s1.8 5.2 4.6 5.2zm0-1.5c-1.9 0-3-1.3-3-3.7 0-2.4 1.1-3.7 3-3.7 2 0 3 1.3 3 3.7 0 2.4-1 3.7-3 3.7zm13.9 1.3h1.6v-10H114v4.1h-5V257h-1.6v10h1.6v-4.5h5v4.5zm5.6 3.6c1.8 0 2.6-.7 3.4-3l4-10.6h-1.7l-2.8 8.2h-.1l-2.8-8.2H118l3.7 10-.2.6c-.4 1.2-.9 1.6-1.8 1.6h-.7v1.4h.7zm17.6-10.5c-.3-1.8-1.8-3.3-4.2-3.3-2.8 0-4.6 2-4.6 5.2 0 3.1 1.8 5.2 4.6 5.2 2.4 0 3.9-1.4 4.2-3.2h-1.6c-.3 1.1-1.3 1.7-2.6 1.7-1.8 0-3-1.4-3-3.7 0-2.3 1.2-3.7 3-3.7 1.4 0 2.3.8 2.6 1.8h1.6zm9.1 6.9h1.6v-10h-1.6v4.1h-5V257h-1.6v10h1.6v-4.5h5v4.5zm13.5 0h1.6v-10H160v10zm-5.2-5.5c1.3 0 2.2.9 2.2 2.1 0 1.2-.8 2-2.2 2h-2v-4h2zm-3.5 5.5h3.5c2.3 0 3.8-1.3 3.8-3.4 0-2-1.5-3.4-3.8-3.4h-2V257h-1.5v10zm17-3.8l2.4 3.8h1.9l-3.4-5 3.4-5h-1.9l-2.3 3.7h-.1l-2.4-3.7h-2l3.5 5-3.4 5h1.8l2.4-3.8h.1zm16.9-6.4c-1.4 0-2.6.7-3.2 1.9h-.2V257h-1.5v13.3h1.6v-4.8h.2c.5 1 1.7 1.7 3 1.7 2.6 0 4.3-2 4.3-5.2 0-3.1-1.7-5.2-4.2-5.2zm-.4 9c-1.8 0-3-1.5-3-3.8s1.2-3.7 3-3.7c1.9 0 3 1.4 3 3.7 0 2.3-1.1 3.7-3 3.7zm7.8 4.8c1.8 0 2.5-.7 3.4-3l4-10.6H198l-2.7 8.2h-.2l-2.7-8.2h-1.7l3.7 10-.2.6c-.4 1.2-1 1.6-1.9 1.6h-.6v1.4h.7zm13.7-4.9c-2 0-3-1.3-3-3.6 0-2.2 1-3.5 3-3.5s3 1.3 3 3.5c0 2.3-1 3.6-3 3.6zm-3.3-6.7c.3-2.4 1-3.8 3.7-4h1c2 0 2.6-.6 2.6-.6V253s-1 .4-2.6.5h-1c-4 .2-5 3-5 7.6 0 4.1 1.6 6 4.6 6 2.9 0 4.6-1.9 4.6-5 0-3-1.7-4.9-4.4-4.9-1.6 0-2.8.8-3.4 1.8h-.1zm13 3.6l.3-4.3h3.5v8.7h1.5v-10h-6.5l-.4 5.6c-.1 1.8-.5 3-1.5 3h-.5v1.4h.6c2 0 2.7-1.6 3-4.4zm12.5-4.4c1.6 0 2.7 1.2 2.7 3h-5.5c.1-1.8 1.2-3 2.8-3zm2.7 6.2c-.5.9-1.3 1.4-2.6 1.4-1.7 0-2.8-1.3-3-3.3h7.3v-.6c0-3.2-1.7-5-4.4-5s-4.5 2-4.5 5.1c0 3.2 1.8 5.2 4.5 5.2 2.2 0 3.8-1 4.2-2.8h-1.5zm6 2.6l5-7.5v7.5h1.7v-10h-1.6l-5 7.5h-.1V257h-1.6v10h1.6zm-.7-14.4c0 1.7 1.3 3 3.2 3 1.9 0 3.2-1.3 3.2-3h-1.5c0 1-.6 2-1.7 2s-1.8-1-1.8-2h-1.4z" fill="#000"/>
  <rect x="108" y="57" width="234" height="101" rx="20" fill="#56CCF2"/>
  <path d="M350.6 152c-9.7-9.5-9.3-19-7.6-21-5.9 2.7-15 13.2-6.6 21 10.7 9.6 26.3 11.7 14.2 0z" fill="#56CCF2"/>
  <path d="M140.3 94V80.6h-10.5V94h1.7V82.1h7.1V94h1.7zm8.3-10.2c-1.4 0-2.6.7-3.2 1.9h-.2V84h-1.5v13.3h1.6v-4.8h.1c.6 1 1.7 1.7 3.2 1.7 2.5 0 4.2-2 4.2-5.2 0-3.1-1.7-5.2-4.2-5.2zm-.4 9c-1.8 0-3-1.5-3-3.8s1.2-3.7 3-3.7 3 1.4 3 3.7c0 2.3-1.2 3.7-3 3.7zM157 94l5-7.5h.2V94h1.6V84h-1.6l-5 7.5h-.2V84h-1.5v10h1.5zm14-8.7c1.1 0 1.6.6 1.6 1.4 0 1-.6 1.5-1.9 1.5h-2.1v-2.9h2.4zm-.1 4.2c1.4 0 2.2.5 2.2 1.6 0 1-.7 1.6-2 1.6h-2.5v-3.2h2.3zm-4 4.5h4.3c2.2 0 3.4-1.1 3.4-2.9 0-1.2-.8-2.1-2-2.3v-.1c.9-.2 1.6-1.2 1.6-2.1 0-1.6-1.1-2.6-3-2.6H167v10zm14.4-8.8c1.6 0 2.6 1.2 2.7 3h-5.6c.2-1.8 1.3-3 2.9-3zm2.6 6.2c-.4.9-1.3 1.4-2.6 1.4-1.7 0-2.8-1.3-2.9-3.3h7.2v-.6c0-3.2-1.6-5-4.3-5-2.8 0-4.5 2-4.5 5.1 0 3.2 1.7 5.2 4.5 5.2 2.2 0 3.7-1 4.2-2.8h-1.6zm11-7.4h-8.2v1.3h3.3V94h1.6v-8.7h3.2V84zm2.7-3.4l.1 9h1.6l.1-9h-1.8zm1 13.6c.7 0 1.2-.6 1.2-1.3 0-.8-.5-1.3-1.3-1.3-.7 0-1.3.5-1.3 1.3 0 .7.6 1.3 1.3 1.3zm-63.4 20.1c2.8 0 5-1.6 5.4-4h-1.7c-.4 1.5-1.8 2.5-3.7 2.5-2.6 0-4.2-2.1-4.2-5.5 0-3.3 1.6-5.5 4.2-5.5 1.8 0 3.3 1.1 3.7 2.8h1.7c-.4-2.5-2.6-4.3-5.4-4.3-3.7 0-6 2.7-6 7s2.4 7 6 7zm10.2-4.9l4 4.6h2l-4.7-5.3 4.6-4.7h-2l-3.9 4.2h-.4V104h-1.6v10h1.6v-4.6h.4zm12 4.8c2.8 0 4.6-2 4.6-5.2s-1.8-5.2-4.6-5.2c-2.9 0-4.6 2-4.6 5.2s1.7 5.2 4.6 5.2zm0-1.5c-2 0-3-1.3-3-3.7 0-2.4 1-3.7 3-3.7 1.9 0 3 1.3 3 3.7 0 2.4-1.1 3.7-3 3.7zm9.6-3l.3-4.4h3.5v8.7h1.6v-10h-6.6l-.4 5.6c0 1.8-.5 3-1.5 3h-.5v1.4h.6c2.1 0 2.8-1.6 3-4.4zm12.1-1.2c1.3 0 2.2.9 2.2 2.1 0 1.2-.9 2-2.2 2h-2v-4h2zm-3.6 5.5h3.6c2.3 0 3.8-1.3 3.8-3.4 0-2-1.5-3.4-3.8-3.4h-2V104h-1.6v10zm11.9-4.6l4 4.6h2l-4.7-5.3 4.6-4.7h-2l-4 4.2h-.3V104h-1.6v10h1.6v-4.6h.4zm12 4.8c2.8 0 4.6-2 4.6-5.2s-1.8-5.2-4.6-5.2c-2.9 0-4.7 2-4.7 5.2s1.8 5.2 4.7 5.2zm0-1.5c-2 0-3-1.3-3-3.7 0-2.4 1-3.7 3-3.7 1.8 0 3 1.3 3 3.7 0 2.4-1.2 3.7-3 3.7zm16.8 0c-2 0-3-1.3-3-3.6 0-2.2 1-3.5 3-3.5 1.9 0 3 1.3 3 3.5 0 2.3-1.1 3.6-3 3.6zm-3.3-6.7c.3-2.4 1-3.8 3.7-4h1c2 0 2.6-.6 2.6-.6V100s-1 .4-2.6.5h-1c-4 .2-5 3-5 7.6 0 4.1 1.6 6 4.6 6 2.8 0 4.6-1.9 4.6-5 0-3-1.8-4.9-4.4-4.9-1.7 0-2.8.8-3.4 1.8h-.1zm14.7 8.2c2.9 0 4.6-2 4.6-5.2s-1.7-5.2-4.6-5.2c-2.8 0-4.6 2-4.6 5.2s1.8 5.2 4.6 5.2zm0-1.5c-1.9 0-3-1.3-3-3.7 0-2.4 1.1-3.7 3-3.7 2 0 3 1.3 3 3.7 0 2.4-1 3.7-3 3.7zm14 1.3h1.5v-10h-1.6v4.1h-5V104H235v10h1.6v-4.5h5v4.5zm5.5 3.6c1.8 0 2.6-.7 3.5-3l3.9-10.6h-1.7l-2.8 8.2h-.1L247 104h-1.7l3.7 10-.2.6c-.4 1.2-.9 1.6-1.8 1.6h-.7v1.4h.7zm17.6-10.5c-.3-1.8-1.8-3.3-4.2-3.3-2.8 0-4.6 2-4.6 5.2 0 3.1 1.8 5.2 4.6 5.2 2.4 0 3.9-1.4 4.2-3.2H263c-.3 1.1-1.3 1.7-2.6 1.7-1.8 0-3-1.4-3-3.7 0-2.3 1.2-3.7 3-3.7 1.4 0 2.3.8 2.6 1.8h1.6zm6.6 7c2.9 0 4.7-1.9 4.7-5.1 0-3.2-1.8-5.2-4.7-5.2-2.8 0-4.6 2-4.6 5.2s1.8 5.2 4.6 5.2zm0-1.4c-1.8 0-3-1.3-3-3.7 0-2.4 1.2-3.7 3-3.7 2 0 3 1.3 3 3.7 0 2.4-1 3.7-3 3.7zm11.4-7.4c1 0 1.6.6 1.6 1.4 0 1-.6 1.5-1.9 1.5h-2.2v-2.9h2.5zm-.1 4.2c1.4 0 2.1.5 2.1 1.6 0 1-.6 1.6-1.8 1.6h-2.7v-3.2h2.4zm-4 4.5h4.3c2.1 0 3.4-1.1 3.4-2.9 0-1.2-.8-2.1-2-2.3v-.1c.9-.2 1.6-1.2 1.6-2.1 0-1.6-1.1-2.6-3-2.6h-4.3v10zm-148.2 23.6c1.8 0 2.6-.7 3.5-3l3.9-10.6H136l-2.8 8.2h-.1l-2.8-8.2h-1.7l3.7 10-.2.6c-.4 1.2-.9 1.6-1.8 1.6h-.7v1.4h.7zM147 134v-7.1h.2l3.2 6.8h1.2l3.2-6.8h.2v7.1h1.6v-10h-1.9l-3.6 7.8h-.1l-3.6-7.8h-2v10h1.6zm16.8-8.8c1.5 0 2.6 1.2 2.6 3H161c.1-1.8 1.3-3 2.9-3zm2.6 6.2c-.4.9-1.3 1.4-2.6 1.4-1.7 0-2.8-1.3-2.9-3.3h7.2v-.6c0-3.2-1.6-5-4.3-5-2.8 0-4.5 2-4.5 5.1 0 3.2 1.7 5.2 4.5 5.2 2.2 0 3.7-1 4.2-2.8h-1.6zm11 2.6h1.6v-10h-1.6v4.1h-5V124h-1.6v10h1.6v-4.5h5v4.5zm8.2-5c-1.3 0-2.2-.7-2.2-1.7 0-1.2.9-2 2.2-2h1.9v3.8h-2zm1.9 5h1.6v-10h-3.5c-2.3 0-3.8 1.3-3.8 3.3 0 1.4.9 2.4 2.3 2.8l-2.8 3.9h2l2.5-3.6h1.7v3.6zm14.2.2c2.9 0 4.6-2 4.6-5.2s-1.7-5.2-4.6-5.2c-2.8 0-4.6 2-4.6 5.2s1.8 5.2 4.6 5.2zm0-1.5c-1.9 0-3-1.3-3-3.7 0-2.4 1.1-3.7 3-3.7 2 0 3 1.3 3 3.7 0 2.4-1 3.7-3 3.7zm15.6-5.6c-.3-1.8-1.8-3.3-4.2-3.3-2.8 0-4.6 2-4.6 5.2 0 3.1 1.8 5.2 4.6 5.2 2.4 0 4-1.4 4.2-3.2h-1.6c-.3 1.1-1.2 1.7-2.6 1.7-1.8 0-3-1.4-3-3.7 0-2.3 1.2-3.7 3-3.7 1.4 0 2.3.8 2.6 1.8h1.6zm9.3-3.1h-8v1.3h3.2v8.7h1.6v-8.7h3.2V124zm5.3 8.8c-1.2 0-2-.6-2-1.6s.6-1.6 2.2-1.7l2.6-.1v.9c0 1.4-1.2 2.5-2.8 2.5zm-.3 1.4c1.3 0 2.4-.6 3-1.7h.2v1.5h1.5v-6.8c0-2.1-1.3-3.4-3.8-3.4-2.1 0-3.7 1-3.9 2.7h1.6c.3-.8 1-1.3 2.3-1.3 1.5 0 2.2.7 2.2 2v.9l-2.8.1c-2.4.2-3.7 1.2-3.7 3s1.5 3 3.4 3zm10.3-4.6l.3-4.3h3.5v8.7h1.6v-10h-6.6l-.4 5.6c0 1.8-.5 3-1.5 3h-.5v1.4h.6c2.1 0 2.8-1.6 3-4.4zm12.7 4.6c2.8 0 4.6-2 4.6-5.2s-1.8-5.2-4.6-5.2c-2.9 0-4.6 2-4.6 5.2s1.7 5.2 4.6 5.2zm0-1.5c-2 0-3-1.3-3-3.7 0-2.4 1-3.7 3-3.7 1.9 0 3 1.3 3 3.7 0 2.4-1.1 3.7-3 3.7zm15.5-5.6c-.2-1.8-1.7-3.3-4.1-3.3-2.8 0-4.6 2-4.6 5.2 0 3.1 1.8 5.2 4.6 5.2 2.4 0 3.9-1.4 4.1-3.2h-1.6c-.3 1.1-1.2 1.7-2.5 1.7-1.8 0-3-1.4-3-3.7 0-2.3 1.2-3.7 3-3.7 1.4 0 2.3.8 2.5 1.8h1.6zm6.2 1.4c1.3 0 2.1.9 2.1 2.1 0 1.2-.8 2-2.1 2h-2v-4h2zm-3.6 5.5h3.6c2.2 0 3.7-1.3 3.7-3.4 0-2-1.5-3.4-3.7-3.4h-2V124h-1.6v10zm9-9.9h1.5c.1-1.3 1-2.1 2.4-2.1s2.3.8 2.3 2c0 1-.4 1.5-1.5 2.2-1.3.7-1.9 1.6-1.8 2.8v.9h1.6v-.6c0-1 .3-1.5 1.5-2.2 1.2-.7 2-1.8 2-3.2 0-2-1.7-3.4-4-3.4-2.6 0-4 1.6-4 3.6zm3.8 10c.7 0 1.3-.5 1.3-1.2 0-.8-.6-1.3-1.3-1.3-.8 0-1.3.5-1.3 1.3 0 .7.5 1.3 1.3 1.3z" fill="#000"/>
  <path d="M125.2 17.3c2.8 0 5-1.6 5.4-4h-1.7c-.4 1.5-1.8 2.5-3.7 2.5-2.6 0-4.2-2.1-4.2-5.5 0-3.3 1.6-5.5 4.2-5.5 1.8 0 3.3 1.1 3.7 2.8h1.7c-.4-2.5-2.6-4.3-5.4-4.3-3.7 0-6 2.7-6 7s2.4 7 6 7zm13-10.5c-1.3 0-2.5.7-3.2 1.9h-.1V7h-1.5v13.3h1.6v-4.8h.1c.6 1 1.7 1.7 3.1 1.7 2.6 0 4.2-2 4.2-5.2 0-3.1-1.6-5.2-4.2-5.2zm-.3 9c-1.8 0-3-1.5-3-3.8s1.2-3.7 3-3.7 2.9 1.4 2.9 3.7c0 2.3-1.1 3.7-3 3.7zM149 8.1c1.6 0 2.7 1.2 2.7 3h-5.5c.1-1.8 1.2-3 2.8-3zm2.7 6.2c-.4.9-1.3 1.4-2.6 1.4-1.7 0-2.8-1.3-2.9-3.3h7.2v-.6c0-3.2-1.6-5-4.3-5-2.8 0-4.6 2-4.6 5.1 0 3.2 1.8 5.2 4.6 5.2 2.1 0 3.7-1 4.2-2.8h-1.6zm10.6 1.3h-4.9v-.2c.5-.6.7-1.7.8-2.9l.4-4.3h3.7v7.4zm-6 4V17h7.7v2.6h1.5v-4H164V7h-6.8l-.4 5.6c0 1.3-.4 2.6-1.2 3h-.8v4h1.5zm14.4-4c-1.1 0-2-.5-2-1.5s.7-1.6 2.2-1.7l2.7-.1v.9c0 1.4-1.2 2.5-2.9 2.5zm-.3 1.5c1.4 0 2.5-.6 3.1-1.7h.2V17h1.5v-6.8c0-2.1-1.4-3.4-3.8-3.4-2.2 0-3.7 1-4 2.7h1.7c.2-.8 1-1.3 2.2-1.3 1.5 0 2.3.7 2.3 2v.9l-2.9.1c-2.3.2-3.6 1.2-3.6 3s1.4 3 3.3 3zM187 17h1.6V3.6H187l-3.6 2.6v1.7l3.4-2.4h.2V17zm5.6-9.6h1.6c0-1.6 1-2.6 2.6-2.6 1.5 0 2.6 1 2.6 2.3 0 1.1-.4 1.8-2.1 3.7l-4.7 5V17h8.7v-1.5H195v-.2l3.3-3.4c2.2-2.4 2.8-3.5 2.8-4.8 0-2.2-1.9-3.8-4.3-3.8s-4.2 1.7-4.2 4zm12.9 8c.6 0 1.2-.5 1.2-1.1a1.2 1.2 0 10-1.2 1.2zm0-7c.6 0 1.2-.6 1.2-1.3a1.2 1.2 0 10-1.2 1.2zm8.8 9c3 0 4.7-2.6 4.7-7 0-4.5-1.8-7.1-4.7-7.1-3 0-4.8 2.6-4.8 7 0 4.5 1.8 7 4.8 7zm0-1.5c-2 0-3.1-2-3.1-5.6 0-3.5 1.1-5.5 3-5.5 2 0 3.1 2 3.1 5.5 0 3.6-1 5.6-3 5.6zm12 1.4c3 0 4.7-2.5 4.7-7 0-4.4-1.8-7-4.8-7s-4.7 2.6-4.7 7c0 4.5 1.7 7 4.7 7zm0-1.4c-2 0-3.1-2-3.1-5.6 0-3.5 1-5.5 3-5.5s3 2 3 5.5c0 3.6-1 5.6-3 5.6z" fill="#000" fill-opacity=".6"/>
</svg>
