<svg width="355" height="351" viewBox="0 0 355 351" fill="none" xmlns="http://www.w3.org/2000/svg">
<circle cx="7" cy="344" r="7" fill="#C4C4C4"/>
<ellipse cx="31.5" cy="344" rx="6.5" ry="7" fill="#C4C4C4"/>
<ellipse cx="56.5" cy="344" rx="6.5" ry="7" fill="#C4C4C4"/>
<rect width="255" height="101" rx="20" transform="matrix(-1 0 0 1 271 190)" fill="#56CCF2"/>
<path d="M8.40246 283.938C18.1079 274.542 17.6704 265.043 15.9854 263C21.8829 265.724 31.0488 276.176 22.5565 283.938C11.9411 293.642 -3.7294 295.684 8.40246 283.938Z" fill="#56CCF2"/>
<path d="M54.2925 227V213.613H43.7998V227H45.479V215.134H52.6411V227H54.2925ZM62.5586 216.823C61.1948 216.823 59.998 217.519 59.3579 218.669H59.2095V216.999H57.688V230.34H59.2837V225.497H59.4321C59.9795 226.555 61.1299 227.176 62.5586 227.176C65.1006 227.176 66.7612 225.126 66.7612 222C66.7612 218.854 65.1099 216.823 62.5586 216.823ZM62.1782 225.738C60.3784 225.738 59.2373 224.291 59.2373 222C59.2373 219.699 60.3784 218.261 62.1875 218.261C64.0151 218.261 65.1099 219.662 65.1099 222C65.1099 224.337 64.0151 225.738 62.1782 225.738ZM71.0474 227L76.0293 219.541H76.1777V227H77.7734V216.999H76.1777L71.1958 224.458H71.0474V216.999H69.4517V227H71.0474ZM84.9912 218.335C86.1138 218.335 86.6147 218.892 86.6147 219.727C86.6147 220.664 86.0303 221.155 84.7314 221.155H82.5513V218.335H84.9912ZM84.8706 222.491C86.3086 222.491 87.0508 222.983 87.0508 224.096C87.0508 225.107 86.4014 225.664 85.1768 225.664H82.5513V222.491H84.8706ZM80.9556 227H85.2139C87.3662 227 88.6372 225.868 88.6372 224.124C88.6372 222.918 87.8301 221.99 86.5591 221.814V221.666C87.4961 221.471 88.1919 220.543 88.1919 219.56C88.1919 218.01 87.0879 216.999 85.1953 216.999H80.9556V227ZM95.2705 218.233C96.8569 218.233 97.9146 219.402 97.9517 221.174H92.4409C92.5615 219.402 93.6748 218.233 95.2705 218.233ZM97.9053 224.412C97.4878 225.293 96.6157 225.766 95.3262 225.766C93.6284 225.766 92.5244 224.514 92.4409 222.538V222.463H99.6309V221.851C99.6309 218.743 97.9888 216.823 95.2891 216.823C92.543 216.823 90.7803 218.864 90.7803 222.009C90.7803 225.172 92.5151 227.176 95.2891 227.176C97.4785 227.176 99.0186 226.128 99.501 224.412H97.9053ZM108.815 216.999H100.726V218.335H103.973V227H105.568V218.335H108.815V216.999ZM111.58 213.604L111.738 222.547H113.278L113.436 213.604H111.58ZM112.517 227.167C113.269 227.167 113.797 226.629 113.797 225.877C113.797 225.117 113.269 224.579 112.517 224.579C111.766 224.579 111.228 225.117 111.228 225.877C111.228 226.629 111.766 227.167 112.517 227.167ZM45.1172 247.093C47.3716 247.093 48.3086 245.701 49.394 243.168L53.4946 233.613H51.7598L48.2529 242.287H48.1045L44.5142 233.613H42.7329L47.3066 244.143C46.7778 245.126 46.1191 245.543 45.1172 245.543C44.7183 245.543 44.4863 245.497 44.375 245.469V246.972C44.4863 247.028 44.7461 247.093 45.1172 247.093ZM65.2119 238.335C66.3345 238.335 66.8354 238.892 66.8354 239.727C66.8354 240.664 66.251 241.155 64.9521 241.155H62.772V238.335H65.2119ZM65.0913 242.491C66.5293 242.491 67.2715 242.983 67.2715 244.096C67.2715 245.107 66.6221 245.664 65.3975 245.664H62.772V242.491H65.0913ZM61.1763 247H65.4346C67.5869 247 68.8579 245.868 68.8579 244.124C68.8579 242.918 68.0508 241.99 66.7798 241.814V241.666C67.7168 241.471 68.4126 240.543 68.4126 239.56C68.4126 238.01 67.3086 236.999 65.416 236.999H61.1763V247ZM74.6748 245.775C73.5151 245.775 72.6523 245.182 72.6523 244.161C72.6523 243.159 73.3203 242.63 74.8418 242.528L77.5322 242.352V243.271C77.5322 244.699 76.3169 245.775 74.6748 245.775ZM74.3779 247.176C75.7139 247.176 76.8086 246.592 77.458 245.525H77.6064V247H79.1279V240.153C79.1279 238.075 77.7642 236.823 75.3242 236.823C73.1904 236.823 71.6133 237.88 71.3999 239.485H73.0142C73.2368 238.697 74.0718 238.242 75.2686 238.242C76.7622 238.242 77.5322 238.919 77.5322 240.153V241.062L74.647 241.239C72.3184 241.378 71.001 242.408 71.001 244.198C71.001 246.026 72.439 247.176 74.3779 247.176ZM90.5391 240.061C90.2607 238.279 88.7764 236.823 86.3457 236.823C83.5439 236.823 81.7627 238.845 81.7627 241.962C81.7627 245.145 83.5532 247.176 86.355 247.176C88.7578 247.176 90.2515 245.822 90.5391 243.985H88.9248C88.6279 245.117 87.6909 245.738 86.3457 245.738C84.5645 245.738 83.4141 244.272 83.4141 241.962C83.4141 239.699 84.5459 238.261 86.3457 238.261C87.7837 238.261 88.665 239.068 88.9248 240.061H90.5391ZM102.553 247.176C105.401 247.176 107.164 245.209 107.164 242C107.164 238.78 105.401 236.823 102.553 236.823C99.7051 236.823 97.9424 238.78 97.9424 242C97.9424 245.209 99.7051 247.176 102.553 247.176ZM102.553 245.738C100.661 245.738 99.5938 244.365 99.5938 242C99.5938 239.625 100.661 238.261 102.553 238.261C104.446 238.261 105.513 239.625 105.513 242C105.513 244.365 104.446 245.738 102.553 245.738ZM118.13 240.061C117.852 238.279 116.367 236.823 113.937 236.823C111.135 236.823 109.354 238.845 109.354 241.962C109.354 245.145 111.144 247.176 113.946 247.176C116.349 247.176 117.842 245.822 118.13 243.985H116.516C116.219 245.117 115.282 245.738 113.937 245.738C112.155 245.738 111.005 244.272 111.005 241.962C111.005 239.699 112.137 238.261 113.937 238.261C115.375 238.261 116.256 239.068 116.516 240.061H118.13ZM127.444 236.999H119.354V238.335H122.602V247H124.197V238.335H127.444V236.999ZM132.714 245.775C131.554 245.775 130.691 245.182 130.691 244.161C130.691 243.159 131.359 242.63 132.881 242.528L135.571 242.352V243.271C135.571 244.699 134.356 245.775 132.714 245.775ZM132.417 247.176C133.753 247.176 134.848 246.592 135.497 245.525H135.646V247H137.167V240.153C137.167 238.075 135.803 236.823 133.363 236.823C131.229 236.823 129.652 237.88 129.439 239.485H131.053C131.276 238.697 132.111 238.242 133.308 238.242C134.801 238.242 135.571 238.919 135.571 240.153V241.062L132.686 241.239C130.357 241.378 129.04 242.408 129.04 244.198C129.04 246.026 130.478 247.176 132.417 247.176ZM142.696 242.612L143.012 238.335H146.509V247H148.105V236.999H141.564L141.175 242.575C141.045 244.43 140.665 245.59 139.672 245.59C139.44 245.59 139.254 245.543 139.171 245.516V246.981C139.282 247.028 139.468 247.083 139.755 247.083C141.833 247.083 142.492 245.358 142.696 242.612ZM155.397 247.176C158.245 247.176 160.008 245.209 160.008 242C160.008 238.78 158.245 236.823 155.397 236.823C152.549 236.823 150.786 238.78 150.786 242C150.786 245.209 152.549 247.176 155.397 247.176ZM155.397 245.738C153.504 245.738 152.438 244.365 152.438 242C152.438 239.625 153.504 238.261 155.397 238.261C157.29 238.261 158.356 239.625 158.356 242C158.356 244.365 157.29 245.738 155.397 245.738ZM170.974 240.061C170.695 238.279 169.211 236.823 166.78 236.823C163.979 236.823 162.197 238.845 162.197 241.962C162.197 245.145 163.988 247.176 166.79 247.176C169.192 247.176 170.686 245.822 170.974 243.985H169.359C169.062 245.117 168.125 245.738 166.78 245.738C164.999 245.738 163.849 244.272 163.849 241.962C163.849 239.699 164.98 238.261 166.78 238.261C168.218 238.261 169.1 239.068 169.359 240.061H170.974ZM177.078 241.545C178.386 241.545 179.24 242.352 179.24 243.604C179.24 244.848 178.396 245.664 177.078 245.664H175.102V241.545H177.078ZM173.506 247H177.078C179.37 247 180.835 245.683 180.835 243.604C180.835 241.526 179.37 240.209 177.078 240.209H175.102V236.999H173.506V247ZM184.556 247.093C185.224 247.093 185.762 246.545 185.762 245.887C185.762 245.219 185.224 244.681 184.556 244.681C183.897 244.681 183.35 245.219 183.35 245.887C183.35 246.545 183.897 247.093 184.556 247.093ZM184.556 239.958C185.224 239.958 185.762 239.411 185.762 238.752C185.762 238.084 185.224 237.546 184.556 237.546C183.897 237.546 183.35 238.084 183.35 238.752C183.35 239.411 183.897 239.958 184.556 239.958ZM46.2305 260.831H47.9282C49.8301 260.831 51.0083 261.795 51.0083 263.345C51.0083 264.811 49.7559 265.859 47.9932 265.859C46.2676 265.859 45.0615 264.94 44.9131 263.512H43.2988C43.4194 265.803 45.2935 267.315 48.0117 267.315C50.6558 267.315 52.7246 265.599 52.7246 263.391C52.7246 261.563 51.6206 260.302 49.8022 260.07V259.921C51.2681 259.569 52.1494 258.4 52.1494 256.804C52.1494 254.856 50.2847 253.297 47.9468 253.297C45.3955 253.297 43.7349 254.726 43.5679 257.045H45.1914C45.3306 255.607 46.3418 254.754 47.8818 254.754C49.4219 254.754 50.4517 255.663 50.4517 257.027C50.4517 258.418 49.3755 259.402 47.854 259.402H46.2305V260.831ZM59.8218 267.315C62.5957 267.315 64.4976 265.46 64.4976 262.742C64.4976 260.107 62.7163 258.261 60.1743 258.261C58.9404 258.261 57.9941 258.641 57.3447 259.402H57.1963L57.5767 255.106H63.7368V253.613H56.2686L55.5356 261.202H57.1035C57.6509 260.246 58.6528 259.699 59.8682 259.699C61.6216 259.699 62.8276 260.951 62.8276 262.788C62.8276 264.625 61.6309 265.85 59.8403 265.85C58.2632 265.85 57.1128 264.885 56.9644 263.438H55.3223C55.4707 265.748 57.2891 267.315 59.8218 267.315ZM71.6689 267.315C74.6748 267.315 76.4004 264.773 76.4004 260.33C76.4004 255.895 74.647 253.297 71.6689 253.297C68.6724 253.297 66.9189 255.886 66.9189 260.302C66.9189 264.755 68.6538 267.315 71.6689 267.315ZM71.6689 265.859C69.6929 265.859 68.5981 263.883 68.5981 260.302C68.5981 256.767 69.7114 254.763 71.6689 254.763C73.6265 254.763 74.7212 256.749 74.7212 260.302C74.7212 263.892 73.645 265.859 71.6689 265.859ZM88.7578 265.738C86.8374 265.738 85.752 264.402 85.752 262.092C85.752 259.894 86.8374 258.632 88.7578 258.632C90.6782 258.632 91.7637 259.894 91.7637 262.092C91.7637 264.402 90.6782 265.738 88.7578 265.738ZM85.4644 259.049C85.7705 256.582 86.5405 255.162 89.2031 255.042L90.2236 254.995C92.1904 254.912 92.7563 254.401 92.7563 254.401V252.973C92.7471 252.982 91.7173 253.437 90.1494 253.511L89.1475 253.557C85.1675 253.733 84.1006 256.535 84.1006 261.137C84.1006 265.237 85.7983 267.176 88.7578 267.176C91.6338 267.176 93.415 265.247 93.415 262.092C93.415 259.04 91.6338 257.203 88.999 257.203C87.3198 257.203 86.2158 257.992 85.6128 259.049H85.4644ZM100.215 267.176C103.063 267.176 104.826 265.209 104.826 262C104.826 258.78 103.063 256.823 100.215 256.823C97.3672 256.823 95.6045 258.78 95.6045 262C95.6045 265.209 97.3672 267.176 100.215 267.176ZM100.215 265.738C98.3228 265.738 97.2559 264.365 97.2559 262C97.2559 259.625 98.3228 258.261 100.215 258.261C102.108 258.261 103.175 259.625 103.175 262C103.175 264.365 102.108 265.738 100.215 265.738ZM114.094 267H115.69V256.999H114.094V261.137H109.103V256.999H107.507V267H109.103V262.473H114.094V267ZM119.726 270.618C121.498 270.618 122.295 269.932 123.149 267.612L127.055 256.999H125.357L122.62 265.228H122.472L119.726 256.999H118L121.702 267.009L121.516 267.603C121.099 268.809 120.598 269.245 119.679 269.245C119.457 269.245 119.206 269.236 119.011 269.199V270.562C119.234 270.6 119.512 270.618 119.726 270.618ZM137.278 260.061C137 258.279 135.516 256.823 133.085 256.823C130.283 256.823 128.502 258.845 128.502 261.962C128.502 265.145 130.292 267.176 133.094 267.176C135.497 267.176 136.991 265.822 137.278 263.985H135.664C135.367 265.117 134.43 265.738 133.085 265.738C131.304 265.738 130.153 264.272 130.153 261.962C130.153 259.699 131.285 258.261 133.085 258.261C134.523 258.261 135.404 259.068 135.664 260.061H137.278ZM146.398 267H147.994V256.999H146.398V261.137H141.407V256.999H139.811V267H141.407V262.473H146.398V267ZM159.915 267H161.511V256.999H159.915V267ZM154.738 261.545C156.046 261.545 156.9 262.352 156.9 263.604C156.9 264.848 156.056 265.664 154.738 265.664H152.762V261.545H154.738ZM151.167 267H154.738C157.03 267 158.496 265.683 158.496 263.604C158.496 261.526 157.03 260.209 154.738 260.209H152.762V256.999H151.167V267ZM168.246 263.224L170.612 267H172.504L169.062 261.935L172.458 256.999H170.649L168.302 260.719H168.153L165.778 256.999H163.876L167.337 262L163.914 267H165.723L168.098 263.224H168.246ZM185.094 256.823C183.73 256.823 182.533 257.519 181.893 258.669H181.745V256.999H180.223V270.34H181.819V265.497H181.967C182.515 266.555 183.665 267.176 185.094 267.176C187.636 267.176 189.296 265.126 189.296 262C189.296 258.854 187.645 256.823 185.094 256.823ZM184.713 265.738C182.914 265.738 181.772 264.291 181.772 262C181.772 259.699 182.914 258.261 184.723 258.261C186.55 258.261 187.645 259.662 187.645 262C187.645 264.337 186.55 265.738 184.713 265.738ZM192.479 270.618C194.25 270.618 195.048 269.932 195.902 267.612L199.808 256.999H198.11L195.373 265.228H195.225L192.479 256.999H190.753L194.455 267.009L194.269 267.603C193.852 268.809 193.351 269.245 192.432 269.245C192.209 269.245 191.959 269.236 191.764 269.199V270.562C191.987 270.6 192.265 270.618 192.479 270.618ZM206.19 265.738C204.27 265.738 203.185 264.402 203.185 262.092C203.185 259.894 204.27 258.632 206.19 258.632C208.111 258.632 209.196 259.894 209.196 262.092C209.196 264.402 208.111 265.738 206.19 265.738ZM202.897 259.049C203.203 256.582 203.973 255.162 206.636 255.042L207.656 254.995C209.623 254.912 210.189 254.401 210.189 254.401V252.973C210.18 252.982 209.15 253.437 207.582 253.511L206.58 253.557C202.6 253.733 201.533 256.535 201.533 261.137C201.533 265.237 203.231 267.176 206.19 267.176C209.066 267.176 210.848 265.247 210.848 262.092C210.848 259.04 209.066 257.203 206.432 257.203C204.752 257.203 203.648 257.992 203.045 259.049H202.897ZM215.839 262.612L216.154 258.335H219.652V267H221.248V256.999H214.707L214.317 262.575C214.188 264.43 213.807 265.59 212.814 265.59C212.583 265.59 212.397 265.543 212.313 265.516V266.981C212.425 267.028 212.61 267.083 212.898 267.083C214.976 267.083 215.635 265.358 215.839 262.612ZM228.419 258.233C230.005 258.233 231.063 259.402 231.1 261.174H225.589C225.71 259.402 226.823 258.233 228.419 258.233ZM231.054 264.412C230.636 265.293 229.764 265.766 228.475 265.766C226.777 265.766 225.673 264.514 225.589 262.538V262.463H232.779V261.851C232.779 258.743 231.137 256.823 228.438 256.823C225.691 256.823 223.929 258.864 223.929 262.009C223.929 265.172 225.664 267.176 228.438 267.176C230.627 267.176 232.167 266.128 232.649 264.412H231.054ZM237.056 267L242.038 259.541H242.187V267H243.782V256.999H242.187L237.205 264.458H237.056V256.999H235.46V267H237.056ZM236.397 252.564C236.397 254.29 237.659 255.607 239.57 255.607C241.481 255.607 242.762 254.29 242.762 252.564H241.314C241.314 253.576 240.665 254.513 239.57 254.513C238.494 254.513 237.845 253.576 237.845 252.564H236.397Z" fill="black"/>
<rect x="108" y="57" width="234" height="101" rx="20" fill="#56CCF2"/>
<path d="M350.598 151.938C340.892 142.542 341.33 133.043 343.015 131C337.117 133.724 327.951 144.176 336.444 151.938C347.059 161.642 362.729 163.684 350.598 151.938Z" fill="#56CCF2"/>
<path d="M140.292 94V80.6128H129.8V94H131.479V82.1343H138.641V94H140.292ZM148.559 83.8228C147.195 83.8228 145.998 84.5186 145.358 85.6689H145.209V83.999H143.688V97.3398H145.284V92.4971H145.432C145.979 93.5547 147.13 94.1763 148.559 94.1763C151.101 94.1763 152.761 92.126 152.761 88.9995C152.761 85.8545 151.11 83.8228 148.559 83.8228ZM148.178 92.7383C146.378 92.7383 145.237 91.291 145.237 88.9995C145.237 86.6987 146.378 85.2607 148.188 85.2607C150.015 85.2607 151.11 86.6616 151.11 88.9995C151.11 91.3374 150.015 92.7383 148.178 92.7383ZM157.047 94L162.029 86.541H162.178V94H163.773V83.999H162.178L157.196 91.458H157.047V83.999H155.452V94H157.047ZM170.991 85.335C172.114 85.335 172.615 85.8916 172.615 86.7266C172.615 87.6636 172.03 88.1553 170.731 88.1553H168.551V85.335H170.991ZM170.871 89.4912C172.309 89.4912 173.051 89.9829 173.051 91.0962C173.051 92.1074 172.401 92.6641 171.177 92.6641H168.551V89.4912H170.871ZM166.956 94H171.214C173.366 94 174.637 92.8682 174.637 91.124C174.637 89.918 173.83 88.9902 172.559 88.814V88.6655C173.496 88.4707 174.192 87.543 174.192 86.5596C174.192 85.0103 173.088 83.999 171.195 83.999H166.956V94ZM181.271 85.2329C182.857 85.2329 183.915 86.4019 183.952 88.1738H178.441C178.562 86.4019 179.675 85.2329 181.271 85.2329ZM183.905 91.4116C183.488 92.293 182.616 92.7661 181.326 92.7661C179.628 92.7661 178.524 91.5137 178.441 89.5376V89.4634H185.631V88.8511C185.631 85.7432 183.989 83.8228 181.289 83.8228C178.543 83.8228 176.78 85.8638 176.78 89.0088C176.78 92.1724 178.515 94.1763 181.289 94.1763C183.479 94.1763 185.019 93.1279 185.501 91.4116H183.905ZM194.815 83.999H186.726V85.335H189.973V94H191.568V85.335H194.815V83.999ZM197.58 80.6035L197.738 89.5469H199.278L199.436 80.6035H197.58ZM198.517 94.167C199.269 94.167 199.797 93.6289 199.797 92.8774C199.797 92.1167 199.269 91.5786 198.517 91.5786C197.766 91.5786 197.228 92.1167 197.228 92.8774C197.228 93.6289 197.766 94.167 198.517 94.167ZM135.19 114.315C138.038 114.315 140.153 112.729 140.599 110.271H138.901C138.474 111.82 137.055 112.775 135.19 112.775C132.611 112.775 130.997 110.669 130.997 107.311C130.997 103.953 132.611 101.837 135.181 101.837C137.027 101.837 138.456 102.923 138.901 104.648H140.599C140.2 102.069 138.001 100.297 135.181 100.297C131.544 100.297 129.28 102.988 129.28 107.311C129.28 111.625 131.553 114.315 135.19 114.315ZM145.404 109.445L149.412 114H151.481L146.722 108.712L151.305 103.999H149.366L145.404 108.183H144.968V103.999H143.373V114H144.968V109.445H145.404ZM157.363 114.176C160.211 114.176 161.974 112.209 161.974 109C161.974 105.78 160.211 103.823 157.363 103.823C154.515 103.823 152.752 105.78 152.752 109C152.752 112.209 154.515 114.176 157.363 114.176ZM157.363 112.738C155.47 112.738 154.403 111.365 154.403 109C154.403 106.625 155.47 105.261 157.363 105.261C159.255 105.261 160.322 106.625 160.322 109C160.322 111.365 159.255 112.738 157.363 112.738ZM166.965 109.612L167.28 105.335H170.778V114H172.374V103.999H165.833L165.443 109.575C165.313 111.43 164.933 112.59 163.94 112.59C163.708 112.59 163.523 112.543 163.439 112.516V113.981C163.551 114.028 163.736 114.083 164.024 114.083C166.102 114.083 166.761 112.358 166.965 109.612ZM179.118 108.545C180.426 108.545 181.28 109.352 181.28 110.604C181.28 111.848 180.436 112.664 179.118 112.664H177.142V108.545H179.118ZM175.546 114H179.118C181.41 114 182.875 112.683 182.875 110.604C182.875 108.526 181.41 107.209 179.118 107.209H177.142V103.999H175.546V114ZM187.394 109.445L191.401 114H193.47L188.711 108.712L193.294 103.999H191.355L187.394 108.183H186.958V103.999H185.362V114H186.958V109.445H187.394ZM199.352 114.176C202.2 114.176 203.963 112.209 203.963 109C203.963 105.78 202.2 103.823 199.352 103.823C196.504 103.823 194.741 105.78 194.741 109C194.741 112.209 196.504 114.176 199.352 114.176ZM199.352 112.738C197.459 112.738 196.393 111.365 196.393 109C196.393 106.625 197.459 105.261 199.352 105.261C201.245 105.261 202.312 106.625 202.312 109C202.312 111.365 201.245 112.738 199.352 112.738ZM216.172 112.738C214.251 112.738 213.166 111.402 213.166 109.092C213.166 106.894 214.251 105.632 216.172 105.632C218.092 105.632 219.178 106.894 219.178 109.092C219.178 111.402 218.092 112.738 216.172 112.738ZM212.878 106.049C213.185 103.582 213.955 102.162 216.617 102.042L217.638 101.995C219.604 101.912 220.17 101.401 220.17 101.401V99.9727C220.161 99.9819 219.131 100.437 217.563 100.511L216.562 100.557C212.582 100.733 211.515 103.535 211.515 108.137C211.515 112.237 213.212 114.176 216.172 114.176C219.048 114.176 220.829 112.247 220.829 109.092C220.829 106.04 219.048 104.203 216.413 104.203C214.734 104.203 213.63 104.992 213.027 106.049H212.878ZM227.629 114.176C230.478 114.176 232.24 112.209 232.24 109C232.24 105.78 230.478 103.823 227.629 103.823C224.781 103.823 223.019 105.78 223.019 109C223.019 112.209 224.781 114.176 227.629 114.176ZM227.629 112.738C225.737 112.738 224.67 111.365 224.67 109C224.67 106.625 225.737 105.261 227.629 105.261C229.522 105.261 230.589 106.625 230.589 109C230.589 111.365 229.522 112.738 227.629 112.738ZM241.508 114H243.104V103.999H241.508V108.137H236.517V103.999H234.921V114H236.517V109.473H241.508V114ZM247.14 117.618C248.912 117.618 249.709 116.932 250.563 114.612L254.469 103.999H252.771L250.034 112.228H249.886L247.14 103.999H245.414L249.116 114.009L248.93 114.603C248.513 115.809 248.012 116.245 247.093 116.245C246.871 116.245 246.62 116.236 246.425 116.199V117.562C246.648 117.6 246.926 117.618 247.14 117.618ZM264.692 107.061C264.414 105.279 262.93 103.823 260.499 103.823C257.697 103.823 255.916 105.845 255.916 108.962C255.916 112.145 257.707 114.176 260.508 114.176C262.911 114.176 264.405 112.822 264.692 110.985H263.078C262.781 112.117 261.844 112.738 260.499 112.738C258.718 112.738 257.567 111.272 257.567 108.962C257.567 106.699 258.699 105.261 260.499 105.261C261.937 105.261 262.818 106.068 263.078 107.061H264.692ZM271.344 114.176C274.192 114.176 275.955 112.209 275.955 109C275.955 105.78 274.192 103.823 271.344 103.823C268.496 103.823 266.733 105.78 266.733 109C266.733 112.209 268.496 114.176 271.344 114.176ZM271.344 112.738C269.452 112.738 268.385 111.365 268.385 109C268.385 106.625 269.452 105.261 271.344 105.261C273.237 105.261 274.304 106.625 274.304 109C274.304 111.365 273.237 112.738 271.344 112.738ZM282.672 105.335C283.794 105.335 284.295 105.892 284.295 106.727C284.295 107.664 283.711 108.155 282.412 108.155H280.232V105.335H282.672ZM282.551 109.491C283.989 109.491 284.731 109.983 284.731 111.096C284.731 112.107 284.082 112.664 282.857 112.664H280.232V109.491H282.551ZM278.636 114H282.895C285.047 114 286.318 112.868 286.318 111.124C286.318 109.918 285.511 108.99 284.24 108.814V108.666C285.177 108.471 285.873 107.543 285.873 106.56C285.873 105.01 284.769 103.999 282.876 103.999H278.636V114ZM130.449 137.618C132.221 137.618 133.019 136.932 133.873 134.612L137.778 123.999H136.081L133.344 132.228H133.195L130.449 123.999H128.724L132.425 134.009L132.24 134.603C131.822 135.809 131.321 136.245 130.403 136.245C130.18 136.245 129.93 136.236 129.735 136.199V137.562C129.958 137.6 130.236 137.618 130.449 137.618ZM147.046 134V126.884H147.223L150.386 133.722H151.629L154.793 126.884H154.969V134H156.574V123.999H154.709L151.119 131.755H150.971L147.39 123.999H145.451V134H147.046ZM163.755 125.233C165.341 125.233 166.399 126.402 166.436 128.174H160.925C161.046 126.402 162.159 125.233 163.755 125.233ZM166.39 131.412C165.972 132.293 165.1 132.766 163.811 132.766C162.113 132.766 161.009 131.514 160.925 129.538V129.463H168.115V128.851C168.115 125.743 166.473 123.823 163.773 123.823C161.027 123.823 159.265 125.864 159.265 129.009C159.265 132.172 161 134.176 163.773 134.176C165.963 134.176 167.503 133.128 167.985 131.412H166.39ZM177.383 134H178.979V123.999H177.383V128.137H172.392V123.999H170.796V134H172.392V129.473H177.383V134ZM185.594 129.083C184.286 129.083 183.432 128.332 183.432 127.274C183.432 126.059 184.276 125.335 185.594 125.335H187.477V129.083H185.594ZM187.477 134H189.073V123.999H185.594C183.302 123.999 181.836 125.251 181.836 127.311C181.836 128.684 182.69 129.723 184.1 130.122L181.308 134H183.209L185.761 130.419H187.477V134ZM201.727 134.176C204.575 134.176 206.338 132.209 206.338 129C206.338 125.78 204.575 123.823 201.727 123.823C198.879 123.823 197.116 125.78 197.116 129C197.116 132.209 198.879 134.176 201.727 134.176ZM201.727 132.738C199.834 132.738 198.768 131.365 198.768 129C198.768 126.625 199.834 125.261 201.727 125.261C203.62 125.261 204.687 126.625 204.687 129C204.687 131.365 203.62 132.738 201.727 132.738ZM217.304 127.061C217.025 125.279 215.541 123.823 213.11 123.823C210.309 123.823 208.527 125.845 208.527 128.962C208.527 132.145 210.318 134.176 213.12 134.176C215.522 134.176 217.016 132.822 217.304 130.985H215.689C215.393 132.117 214.456 132.738 213.11 132.738C211.329 132.738 210.179 131.272 210.179 128.962C210.179 126.699 211.311 125.261 213.11 125.261C214.548 125.261 215.43 126.068 215.689 127.061H217.304ZM226.618 123.999H218.528V125.335H221.775V134H223.371V125.335H226.618V123.999ZM231.888 132.775C230.728 132.775 229.865 132.182 229.865 131.161C229.865 130.159 230.533 129.63 232.055 129.528L234.745 129.352V130.271C234.745 131.699 233.53 132.775 231.888 132.775ZM231.591 134.176C232.927 134.176 234.021 133.592 234.671 132.525H234.819V134H236.341V127.153C236.341 125.075 234.977 123.823 232.537 123.823C230.403 123.823 228.826 124.88 228.613 126.485H230.227C230.45 125.697 231.285 125.242 232.481 125.242C233.975 125.242 234.745 125.919 234.745 127.153V128.062L231.86 128.239C229.531 128.378 228.214 129.408 228.214 131.198C228.214 133.026 229.652 134.176 231.591 134.176ZM241.87 129.612L242.186 125.335H245.683V134H247.279V123.999H240.738L240.349 129.575C240.219 131.43 239.838 132.59 238.846 132.59C238.614 132.59 238.428 132.543 238.345 132.516V133.981C238.456 134.028 238.642 134.083 238.929 134.083C241.007 134.083 241.666 132.358 241.87 129.612ZM254.571 134.176C257.419 134.176 259.182 132.209 259.182 129C259.182 125.78 257.419 123.823 254.571 123.823C251.723 123.823 249.96 125.78 249.96 129C249.96 132.209 251.723 134.176 254.571 134.176ZM254.571 132.738C252.678 132.738 251.611 131.365 251.611 129C251.611 126.625 252.678 125.261 254.571 125.261C256.463 125.261 257.53 126.625 257.53 129C257.53 131.365 256.463 132.738 254.571 132.738ZM270.147 127.061C269.869 125.279 268.385 123.823 265.954 123.823C263.152 123.823 261.371 125.845 261.371 128.962C261.371 132.145 263.162 134.176 265.963 134.176C268.366 134.176 269.86 132.822 270.147 130.985H268.533C268.236 132.117 267.299 132.738 265.954 132.738C264.173 132.738 263.022 131.272 263.022 128.962C263.022 126.699 264.154 125.261 265.954 125.261C267.392 125.261 268.273 126.068 268.533 127.061H270.147ZM276.252 128.545C277.56 128.545 278.414 129.352 278.414 130.604C278.414 131.848 277.569 132.664 276.252 132.664H274.276V128.545H276.252ZM272.68 134H276.252C278.543 134 280.009 132.683 280.009 130.604C280.009 128.526 278.543 127.209 276.252 127.209H274.276V123.999H272.68V134ZM281.651 124.11H283.238C283.34 122.784 284.23 121.958 285.631 121.958C287.014 121.958 287.904 122.802 287.904 123.953C287.904 124.945 287.487 125.53 286.411 126.188C285.14 126.949 284.546 127.784 284.555 129.009V129.862H286.179V129.259C286.179 128.285 286.513 127.766 287.691 127.07C288.878 126.355 289.63 125.326 289.63 123.869C289.63 121.958 288.034 120.511 285.696 120.511C283.089 120.511 281.753 122.106 281.651 124.11ZM285.492 134.167C286.244 134.167 286.772 133.629 286.772 132.877C286.772 132.117 286.244 131.579 285.492 131.579C284.741 131.579 284.203 132.117 284.203 132.877C284.203 133.629 284.741 134.167 285.492 134.167Z" fill="black"/>
<path d="M125.19 17.3154C128.038 17.3154 130.153 15.729 130.599 13.2705H128.901C128.474 14.8198 127.055 15.7754 125.19 15.7754C122.611 15.7754 120.997 13.6694 120.997 10.311C120.997 6.95264 122.611 4.8374 125.181 4.8374C127.027 4.8374 128.456 5.92285 128.901 7.64844H130.599C130.2 5.06934 128.001 3.29736 125.181 3.29736C121.544 3.29736 119.28 5.98779 119.28 10.311C119.28 14.625 121.553 17.3154 125.19 17.3154ZM138.243 6.82275C136.879 6.82275 135.683 7.51855 135.042 8.66895H134.894V6.99902H133.373V20.3398H134.968V15.4971H135.117C135.664 16.5547 136.814 17.1763 138.243 17.1763C140.785 17.1763 142.446 15.126 142.446 11.9995C142.446 8.85449 140.794 6.82275 138.243 6.82275ZM137.863 15.7383C136.063 15.7383 134.922 14.291 134.922 11.9995C134.922 9.69873 136.063 8.26074 137.872 8.26074C139.7 8.26074 140.794 9.66162 140.794 11.9995C140.794 14.3374 139.7 15.7383 137.863 15.7383ZM149.135 8.23291C150.721 8.23291 151.779 9.40186 151.816 11.1738H146.305C146.426 9.40186 147.539 8.23291 149.135 8.23291ZM151.77 14.4116C151.352 15.293 150.48 15.7661 149.19 15.7661C147.493 15.7661 146.389 14.5137 146.305 12.5376V12.4634H153.495V11.8511C153.495 8.74316 151.853 6.82275 149.153 6.82275C146.407 6.82275 144.645 8.86377 144.645 12.0088C144.645 15.1724 146.379 17.1763 149.153 17.1763C151.343 17.1763 152.883 16.1279 153.365 14.4116H151.77ZM162.448 15.6641H157.512V15.5156C157.985 14.894 158.245 13.8271 158.338 12.6118L158.653 8.33496H162.448V15.6641ZM156.315 19.644V17H164.136V19.644H165.639V15.6641H164.043V6.99902H157.225L156.835 12.5747C156.742 13.9199 156.38 15.1816 155.647 15.6641H154.812V19.644H156.315ZM170.825 15.7754C169.666 15.7754 168.803 15.1816 168.803 14.1611C168.803 13.1592 169.471 12.6304 170.992 12.5283L173.683 12.3521V13.2705C173.683 14.6992 172.467 15.7754 170.825 15.7754ZM170.528 17.1763C171.864 17.1763 172.959 16.5918 173.608 15.5249H173.757V17H175.278V10.1533C175.278 8.0752 173.915 6.82275 171.475 6.82275C169.341 6.82275 167.764 7.88037 167.55 9.48535H169.165C169.387 8.69678 170.222 8.24219 171.419 8.24219C172.913 8.24219 173.683 8.91943 173.683 10.1533V11.0625L170.797 11.2388C168.469 11.3779 167.151 12.4077 167.151 14.1982C167.151 16.0259 168.589 17.1763 170.528 17.1763ZM186.875 17H188.545V3.61279H186.884L183.322 6.17334V7.93604L186.727 5.46826H186.875V17ZM192.46 7.37939V7.38867H194.074V7.37939C194.074 5.80225 195.132 4.75391 196.7 4.75391C198.175 4.75391 199.316 5.78369 199.316 7.11963C199.316 8.1958 198.898 8.91943 197.173 10.7935L192.543 15.8496V17H201.208V15.4971H194.937V15.3486L198.156 11.8882C200.355 9.53174 200.986 8.44629 200.986 7.05469C200.986 4.93018 199.149 3.29736 196.746 3.29736C194.26 3.29736 192.46 5.00439 192.46 7.37939ZM205.355 15.4692C206.023 15.4692 206.562 14.9219 206.562 14.2632C206.562 13.5952 206.023 13.0571 205.355 13.0571C204.697 13.0571 204.149 13.5952 204.149 14.2632C204.149 14.9219 204.697 15.4692 205.355 15.4692ZM205.355 8.33496C206.023 8.33496 206.562 7.7876 206.562 7.12891C206.562 6.46094 206.023 5.92285 205.355 5.92285C204.697 5.92285 204.149 6.46094 204.149 7.12891C204.149 7.7876 204.697 8.33496 205.355 8.33496ZM214.169 17.3154C217.175 17.3154 218.9 14.7734 218.9 10.3296C218.9 5.89502 217.147 3.29736 214.169 3.29736C211.172 3.29736 209.419 5.88574 209.419 10.3018C209.419 14.7549 211.154 17.3154 214.169 17.3154ZM214.169 15.8589C212.193 15.8589 211.098 13.8828 211.098 10.3018C211.098 6.76709 212.211 4.76318 214.169 4.76318C216.126 4.76318 217.221 6.74854 217.221 10.3018C217.221 13.8921 216.145 15.8589 214.169 15.8589ZM226.137 17.3154C229.143 17.3154 230.868 14.7734 230.868 10.3296C230.868 5.89502 229.115 3.29736 226.137 3.29736C223.14 3.29736 221.387 5.88574 221.387 10.3018C221.387 14.7549 223.122 17.3154 226.137 17.3154ZM226.137 15.8589C224.161 15.8589 223.066 13.8828 223.066 10.3018C223.066 6.76709 224.179 4.76318 226.137 4.76318C228.094 4.76318 229.189 6.74854 229.189 10.3018C229.189 13.8921 228.113 15.8589 226.137 15.8589Z" fill="black" fill-opacity="0.6"/>
</svg>
