<svg width="339" height="315" viewBox="0 0 339 315" fill="none" xmlns="http://www.w3.org/2000/svg">
<mask id="path-1-inside-1" fill="white">
<path d="M243.821 40.2183C245.734 38.4472 254.791 30.477 268.057 28.4528C282.981 26.1756 289.231 43.5076 289.231 43.5076C289.231 43.5076 290.89 52.6163 290.89 57.9298C290.89 63.2432 290.379 82.5994 290.379 82.5994L243.056 55.5261C242.928 55.3996 242.673 55.2731 242.673 55.0201V41.2304C243.056 40.8509 243.438 40.7243 243.821 40.2183Z"/>
</mask>
<path d="M243.821 40.2183C245.734 38.4472 254.791 30.477 268.057 28.4528C282.981 26.1756 289.231 43.5076 289.231 43.5076C289.231 43.5076 290.89 52.6163 290.89 57.9298C290.89 63.2432 290.379 82.5994 290.379 82.5994L243.056 55.5261C242.928 55.3996 242.673 55.2731 242.673 55.0201V41.2304C243.056 40.8509 243.438 40.7243 243.821 40.2183Z" fill="#9C251F" stroke="black" mask="url(#path-1-inside-1)"/>
<mask id="path-2-inside-2" fill="white">
<path d="M291.145 67.1651C293.058 65.3939 302.115 57.4238 315.381 55.3996C330.305 53.1224 336.555 70.4544 336.555 70.4544C336.555 70.4544 338.341 79.4366 338.214 84.7501C338.214 90.0635 337.704 109.42 337.704 109.42L290.38 82.3464C290.252 82.2199 289.997 82.0934 289.997 81.8403V68.1772C290.252 67.7976 290.635 67.5446 291.145 67.1651Z"/>
</mask>
<path d="M291.145 67.1651C293.058 65.3939 302.115 57.4238 315.381 55.3996C330.305 53.1224 336.555 70.4544 336.555 70.4544C336.555 70.4544 338.341 79.4366 338.214 84.7501C338.214 90.0635 337.704 109.42 337.704 109.42L290.38 82.3464C290.252 82.2199 289.997 82.0934 289.997 81.8403V68.1772C290.252 67.7976 290.635 67.5446 291.145 67.1651Z" fill="#9C251F" stroke="black" mask="url(#path-2-inside-2)"/>
<mask id="path-3-inside-3" fill="white">
<path d="M0.313492 227.96L53.8876 197.092C64.4749 191.019 74.5519 190.007 82.0778 194.435C89.6037 198.736 93.8131 207.845 93.8131 219.99V223.912C93.4304 224.165 93.0478 224.418 92.6651 224.671V219.864C92.6651 208.098 88.7108 199.495 81.5676 195.321C74.4244 191.272 64.8576 192.158 54.5254 197.977L0.951279 228.846C0.696164 228.972 0.313492 228.972 0.185934 228.593C-0.0691806 228.466 0.0583768 228.087 0.313492 227.96Z"/>
</mask>
<path d="M0.313492 227.96L53.8876 197.092C64.4749 191.019 74.5519 190.007 82.0778 194.435C89.6037 198.736 93.8131 207.845 93.8131 219.99V223.912C93.4304 224.165 93.0478 224.418 92.6651 224.671V219.864C92.6651 208.098 88.7108 199.495 81.5676 195.321C74.4244 191.272 64.8576 192.158 54.5254 197.977L0.951279 228.846C0.696164 228.972 0.313492 228.972 0.185934 228.593C-0.0691806 228.466 0.0583768 228.087 0.313492 227.96Z" fill="#D4ECFF" stroke="black" mask="url(#path-3-inside-3)"/>
<mask id="path-4-inside-4" fill="white">
<path d="M167.413 191.146V71.34C167.413 47.4294 184.379 18.0789 205.298 6.18684C215.503 0.367336 225.197 -0.644751 232.468 3.53011C239.738 7.70497 243.82 16.4342 243.82 28.1997V36.5495C243.438 36.929 243.055 37.3085 242.672 37.6881V28.1997C242.672 16.9403 238.846 8.46404 231.957 4.5422C225.069 0.620358 215.758 1.50593 205.936 7.19893C185.399 18.9644 168.561 47.8089 168.561 71.34V191.019C168.561 210.882 156.826 234.413 140.754 248.582C140.754 248.076 140.754 247.57 140.754 247.064C156.188 233.021 167.413 210.376 167.413 191.146Z"/>
</mask>
<path d="M167.413 191.146V71.34C167.413 47.4294 184.379 18.0789 205.298 6.18684C215.503 0.367336 225.197 -0.644751 232.468 3.53011C239.738 7.70497 243.82 16.4342 243.82 28.1997V36.5495C243.438 36.929 243.055 37.3085 242.672 37.6881V28.1997C242.672 16.9403 238.846 8.46404 231.957 4.5422C225.069 0.620358 215.758 1.50593 205.936 7.19893C185.399 18.9644 168.561 47.8089 168.561 71.34V191.019C168.561 210.882 156.826 234.413 140.754 248.582C140.754 248.076 140.754 247.57 140.754 247.064C156.188 233.021 167.413 210.376 167.413 191.146Z" fill="#D4ECFF" stroke="black" mask="url(#path-4-inside-4)"/>
<mask id="path-5-inside-5" fill="white">
<path d="M277.496 29.2119L232.596 3.53017L232.724 4.16273C225.835 -0.265152 215.376 -0.644685 201.344 9.47619C173.537 29.7179 170.22 57.8034 168.817 63.1168C167.414 68.4303 167.924 101.829 167.924 101.829C167.924 101.829 167.797 182.417 167.797 191.778C167.669 201.14 164.99 211.641 159.633 223.027C154.276 234.413 140.627 248.202 140.627 248.202V264.649C142.795 282.36 150.449 286.535 161.674 287.547C170.858 288.306 180.552 281.854 188.333 274.77C188.078 275.023 187.823 275.276 187.823 275.276V291.722C189.992 309.434 197.645 313.608 208.87 314.62C220.223 315.633 232.341 305.385 240.632 296.656C248.923 287.927 255.939 274.643 259.766 262.751C263.592 250.732 262.317 235.298 262.317 235.298C262.317 235.298 262.444 147.247 262.444 129.788C262.572 112.456 263.082 115.492 268.822 98.0338C274.562 80.5753 289.742 68.3038 289.742 68.3038L298.804 61.5L309.85 56.5L317.381 55L326.223 57.5503L277.496 29.2119Z"/>
</mask>
<path d="M277.496 29.2119L232.596 3.53017L232.724 4.16273C225.835 -0.265152 215.376 -0.644685 201.344 9.47619C173.537 29.7179 170.22 57.8034 168.817 63.1168C167.414 68.4303 167.924 101.829 167.924 101.829C167.924 101.829 167.797 182.417 167.797 191.778C167.669 201.14 164.99 211.641 159.633 223.027C154.276 234.413 140.627 248.202 140.627 248.202V264.649C142.795 282.36 150.449 286.535 161.674 287.547C170.858 288.306 180.552 281.854 188.333 274.77C188.078 275.023 187.823 275.276 187.823 275.276V291.722C189.992 309.434 197.645 313.608 208.87 314.62C220.223 315.633 232.341 305.385 240.632 296.656C248.923 287.927 255.939 274.643 259.766 262.751C263.592 250.732 262.317 235.298 262.317 235.298C262.317 235.298 262.444 147.247 262.444 129.788C262.572 112.456 263.082 115.492 268.822 98.0338C274.562 80.5753 289.742 68.3038 289.742 68.3038L298.804 61.5L309.85 56.5L317.381 55L326.223 57.5503L277.496 29.2119Z" fill="#FAFDFF" stroke="black" mask="url(#path-5-inside-5)"/>
<mask id="path-6-inside-6" fill="white">
<path d="M199.303 312.849C198.666 311.964 190.629 306.65 188.589 297.288C187.441 292.101 187.568 284.131 187.568 284.131C187.568 284.131 187.568 279.703 187.696 275.655C187.823 275.528 187.823 275.528 187.951 275.402C187.951 274.896 187.951 274.39 187.951 273.884C187.823 274.01 187.823 274.01 187.696 274.137C187.696 273.251 187.823 272.366 187.823 271.607C188.078 267.432 184.889 258.576 184.889 258.576C184.889 258.576 180.552 246.684 167.414 246.178C155.806 245.798 143.561 254.022 140.882 255.919V250.606C140.754 250.732 140.499 250.859 140.372 250.985C140.372 250.226 140.372 249.467 140.372 248.835C140.499 248.708 140.499 248.708 140.627 248.582C140.627 248.076 140.627 247.57 140.627 247.064C140.499 247.19 140.499 247.19 140.372 247.317C140.372 246.431 140.499 245.545 140.499 244.786C140.754 240.611 137.566 231.756 137.566 231.756C137.566 231.756 133.229 219.864 120.09 219.358C108.482 218.978 96.2369 227.201 93.5582 229.099V223.786C93.1755 224.039 92.7928 224.292 92.4102 224.545V233.906C92.4102 245.292 96.2369 253.895 103.253 258.07L103.508 258.196C103.635 258.196 103.635 258.323 103.763 258.323H103.89L151.98 285.776C151.98 285.776 151.98 285.776 151.98 285.649L199.303 312.849Z"/>
</mask>
<path d="M199.303 312.849C198.666 311.964 190.629 306.65 188.589 297.288C187.441 292.101 187.568 284.131 187.568 284.131C187.568 284.131 187.568 279.703 187.696 275.655C187.823 275.528 187.823 275.528 187.951 275.402C187.951 274.896 187.951 274.39 187.951 273.884C187.823 274.01 187.823 274.01 187.696 274.137C187.696 273.251 187.823 272.366 187.823 271.607C188.078 267.432 184.889 258.576 184.889 258.576C184.889 258.576 180.552 246.684 167.414 246.178C155.806 245.798 143.561 254.022 140.882 255.919V250.606C140.754 250.732 140.499 250.859 140.372 250.985C140.372 250.226 140.372 249.467 140.372 248.835C140.499 248.708 140.499 248.708 140.627 248.582C140.627 248.076 140.627 247.57 140.627 247.064C140.499 247.19 140.499 247.19 140.372 247.317C140.372 246.431 140.499 245.545 140.499 244.786C140.754 240.611 137.566 231.756 137.566 231.756C137.566 231.756 133.229 219.864 120.09 219.358C108.482 218.978 96.2369 227.201 93.5582 229.099V223.786C93.1755 224.039 92.7928 224.292 92.4102 224.545V233.906C92.4102 245.292 96.2369 253.895 103.253 258.07L103.508 258.196C103.635 258.196 103.635 258.323 103.763 258.323H103.89L151.98 285.776C151.98 285.776 151.98 285.776 151.98 285.649L199.303 312.849Z" fill="#9C251F" stroke="black" mask="url(#path-6-inside-6)"/>
<mask id="path-7-inside-7" fill="white">
<path d="M129.274 221.255C129.274 221.255 128.891 221.129 128.253 220.876C127.998 220.749 127.871 220.623 127.616 220.623L81.9499 194.435C81.9499 194.435 73.5311 190.007 63.4541 193.802C53.2495 197.471 0.185547 229.099 0.185547 229.099L47.6369 256.172H47.7645L94.8332 283.119C94.8332 283.119 121.493 266.799 139.861 256.172L141.009 255.54C148.535 251.238 154.53 248.076 156.443 247.57C167.796 244.533 175.705 248.202 177.746 249.341L129.274 221.255Z"/>
</mask>
<path d="M129.274 221.255C129.274 221.255 128.891 221.129 128.253 220.876C127.998 220.749 127.871 220.623 127.616 220.623L81.9499 194.435C81.9499 194.435 73.5311 190.007 63.4541 193.802C53.2495 197.471 0.185547 229.099 0.185547 229.099L47.6369 256.172H47.7645L94.8332 283.119C94.8332 283.119 121.493 266.799 139.861 256.172L141.009 255.54C148.535 251.238 154.53 248.076 156.443 247.57C167.796 244.533 175.705 248.202 177.746 249.341L129.274 221.255Z" fill="#FAFDFF" stroke="black" mask="url(#path-7-inside-7)"/>
<mask id="path-8-inside-8" fill="white">
<path d="M177.874 249.088L178.384 249.341C178.512 249.467 178.257 249.341 177.874 249.088Z"/>
</mask>
<path d="M177.874 249.088L178.384 249.341C178.512 249.467 178.257 249.341 177.874 249.088Z" fill="#FAFDFF" stroke="black" mask="url(#path-8-inside-8)"/>
<mask id="path-9-inside-9" fill="white">
<path d="M208.488 315C213.718 315 219.458 313.229 225.453 309.813C246.245 297.921 263.082 268.824 263.082 245.039V125.36C263.082 101.829 279.792 72.9846 300.457 61.2191C310.279 55.5261 319.59 54.6405 326.478 58.5623C333.366 62.4842 337.193 70.9604 337.193 82.2199V101.195C337.193 101.574 337.448 101.827 337.831 101.827C338.214 101.827 338.469 101.574 338.469 101.195V82.2199C338.469 70.4543 334.387 61.7251 327.116 57.5502C319.845 53.3754 310.151 54.261 299.946 60.207C279.027 72.2255 261.934 101.45 261.934 125.36V245.039C261.934 268.444 245.352 297.035 224.815 308.801C214.993 314.367 205.809 315.38 198.921 311.458C192.033 307.536 188.206 299.186 188.206 287.927V273.884C188.206 261.739 183.997 252.63 176.471 248.329C168.945 244.027 158.868 244.913 148.281 250.985L94.7065 281.854C94.4514 281.981 94.3239 282.36 94.4514 282.613C94.579 282.866 94.9616 282.993 95.2168 282.866L148.791 251.998C158.995 246.178 168.562 245.166 175.833 249.341C182.976 253.389 186.931 262.118 186.931 273.884V287.927C186.931 299.566 190.885 308.295 198.156 312.47C201.472 314.114 204.916 315 208.488 315Z"/>
</mask>
<path d="M208.488 315C213.718 315 219.458 313.229 225.453 309.813C246.245 297.921 263.082 268.824 263.082 245.039V125.36C263.082 101.829 279.792 72.9846 300.457 61.2191C310.279 55.5261 319.59 54.6405 326.478 58.5623C333.366 62.4842 337.193 70.9604 337.193 82.2199V101.195C337.193 101.574 337.448 101.827 337.831 101.827C338.214 101.827 338.469 101.574 338.469 101.195V82.2199C338.469 70.4543 334.387 61.7251 327.116 57.5502C319.845 53.3754 310.151 54.261 299.946 60.207C279.027 72.2255 261.934 101.45 261.934 125.36V245.039C261.934 268.444 245.352 297.035 224.815 308.801C214.993 314.367 205.809 315.38 198.921 311.458C192.033 307.536 188.206 299.186 188.206 287.927V273.884C188.206 261.739 183.997 252.63 176.471 248.329C168.945 244.027 158.868 244.913 148.281 250.985L94.7065 281.854C94.4514 281.981 94.3239 282.36 94.4514 282.613C94.579 282.866 94.9616 282.993 95.2168 282.866L148.791 251.998C158.995 246.178 168.562 245.166 175.833 249.341C182.976 253.389 186.931 262.118 186.931 273.884V287.927C186.931 299.566 190.885 308.295 198.156 312.47C201.472 314.114 204.916 315 208.488 315Z" fill="#E14139" stroke="black" mask="url(#path-9-inside-9)"/>
<mask id="path-10-inside-10" fill="white">
<path d="M212.187 154.711L204.278 150.156C203.513 149.777 202.875 148.638 202.875 147.626C202.875 146.614 203.385 146.234 204.151 146.614L212.059 151.168C212.825 151.548 213.462 152.686 213.462 153.699C213.59 154.711 212.952 155.09 212.187 154.711Z"/>
</mask>
<path d="M212.187 154.711L204.278 150.156C203.513 149.777 202.875 148.638 202.875 147.626C202.875 146.614 203.385 146.234 204.151 146.614L212.059 151.168C212.825 151.548 213.462 152.686 213.462 153.699C213.59 154.711 212.952 155.09 212.187 154.711Z" fill="#5793CE" stroke="black" mask="url(#path-10-inside-10)"/>
<mask id="path-11-inside-11" fill="white">
<path d="M229.024 164.325L217.289 157.62C216.524 157.241 215.886 156.102 215.886 155.09C215.886 154.078 216.396 153.698 217.161 154.078L228.897 160.783C229.662 161.163 230.3 162.301 230.3 163.313C230.3 164.325 229.79 164.831 229.024 164.325Z"/>
</mask>
<path d="M229.024 164.325L217.289 157.62C216.524 157.241 215.886 156.102 215.886 155.09C215.886 154.078 216.396 153.698 217.161 154.078L228.897 160.783C229.662 161.163 230.3 162.301 230.3 163.313C230.3 164.325 229.79 164.831 229.024 164.325Z" fill="#5793CE" stroke="black" mask="url(#path-11-inside-11)"/>
<mask id="path-12-inside-12" fill="white">
<path d="M211.294 124.854L196.242 116.125C195.477 115.745 194.839 114.607 194.839 113.594C194.839 112.582 195.349 112.203 196.114 112.582L211.166 121.185C211.932 121.565 212.569 122.703 212.569 123.715C212.569 124.727 212.059 125.234 211.294 124.854Z"/>
</mask>
<path d="M211.294 124.854L196.242 116.125C195.477 115.745 194.839 114.607 194.839 113.594C194.839 112.582 195.349 112.203 196.114 112.582L211.166 121.185C211.932 121.565 212.569 122.703 212.569 123.715C212.569 124.727 212.059 125.234 211.294 124.854Z" fill="#5793CE" stroke="black" mask="url(#path-12-inside-12)"/>
<mask id="path-13-inside-13" fill="white">
<path d="M201.344 133.836L196.369 131.053C195.604 130.674 194.966 129.535 194.966 128.523C194.966 127.511 195.476 127.131 196.241 127.511L201.216 130.294C201.981 130.674 202.619 131.812 202.619 132.824C202.747 133.836 202.109 134.216 201.344 133.836Z"/>
</mask>
<path d="M201.344 133.836L196.369 131.053C195.604 130.674 194.966 129.535 194.966 128.523C194.966 127.511 195.476 127.131 196.241 127.511L201.216 130.294C201.981 130.674 202.619 131.812 202.619 132.824C202.747 133.836 202.109 134.216 201.344 133.836Z" fill="#5793CE" stroke="black" mask="url(#path-13-inside-13)"/>
<mask id="path-14-inside-14" fill="white">
<path d="M199.814 147.626L196.625 145.855C195.859 145.475 195.222 144.337 195.222 143.325C195.222 142.313 195.732 141.933 196.497 142.313L199.686 144.084C200.452 144.463 201.089 145.602 201.089 146.614C201.217 147.626 200.579 148.132 199.814 147.626Z"/>
</mask>
<path d="M199.814 147.626L196.625 145.855C195.859 145.475 195.222 144.337 195.222 143.325C195.222 142.313 195.732 141.933 196.497 142.313L199.686 144.084C200.452 144.463 201.089 145.602 201.089 146.614C201.217 147.626 200.579 148.132 199.814 147.626Z" fill="#5793CE" stroke="black" mask="url(#path-14-inside-14)"/>
<mask id="path-15-inside-15" fill="white">
<path d="M219.84 144.337L206.574 136.746C205.809 136.366 205.171 135.228 205.171 134.216C205.171 133.204 205.681 132.824 206.446 133.204L219.712 140.794C220.478 141.174 221.116 142.312 221.116 143.325C221.116 144.337 220.478 144.843 219.84 144.337Z"/>
</mask>
<path d="M219.84 144.337L206.574 136.746C205.809 136.366 205.171 135.228 205.171 134.216C205.171 133.204 205.681 132.824 206.446 133.204L219.712 140.794C220.478 141.174 221.116 142.312 221.116 143.325C221.116 144.337 220.478 144.843 219.84 144.337Z" fill="#5793CE" stroke="black" mask="url(#path-15-inside-15)"/>
<mask id="path-16-inside-16" fill="white">
<path d="M219.33 136.746L196.242 123.589C195.477 123.209 194.839 122.071 194.839 121.059C194.839 120.047 195.349 119.667 196.114 120.047L219.202 133.204C219.968 133.583 220.605 134.722 220.605 135.734C220.605 136.746 220.095 137.126 219.33 136.746Z"/>
</mask>
<path d="M219.33 136.746L196.242 123.589C195.477 123.209 194.839 122.071 194.839 121.059C194.839 120.047 195.349 119.667 196.114 120.047L219.202 133.204C219.968 133.583 220.605 134.722 220.605 135.734C220.605 136.746 220.095 137.126 219.33 136.746Z" fill="#5793CE" stroke="black" mask="url(#path-16-inside-16)"/>
<mask id="path-17-inside-17" fill="white">
<path d="M209.763 145.981L196.497 138.391C195.732 138.011 195.094 136.873 195.094 135.861C195.094 134.848 195.604 134.469 196.369 134.848L209.635 142.439C210.401 142.819 211.039 143.957 211.039 144.969C211.039 145.981 210.528 146.361 209.763 145.981Z"/>
</mask>
<path d="M209.763 145.981L196.497 138.391C195.732 138.011 195.094 136.873 195.094 135.861C195.094 134.848 195.604 134.469 196.369 134.848L209.635 142.439C210.401 142.819 211.039 143.957 211.039 144.969C211.039 145.981 210.528 146.361 209.763 145.981Z" fill="#5793CE" stroke="black" mask="url(#path-17-inside-17)"/>
<mask id="path-18-inside-18" fill="white">
<path d="M229.789 150.156L224.942 147.373C224.177 146.993 223.539 145.855 223.539 144.843C223.539 143.831 224.049 143.451 224.815 143.831L229.662 146.614C230.427 146.993 231.065 148.132 231.065 149.144C231.065 150.03 230.555 150.536 229.789 150.156Z"/>
</mask>
<path d="M229.789 150.156L224.942 147.373C224.177 146.993 223.539 145.855 223.539 144.843C223.539 143.831 224.049 143.451 224.815 143.831L229.662 146.614C230.427 146.993 231.065 148.132 231.065 149.144C231.065 150.03 230.555 150.536 229.789 150.156Z" fill="#5793CE" stroke="black" mask="url(#path-18-inside-18)"/>
<path d="M216.141 112.836L208.232 108.281C207.467 107.902 206.829 106.763 206.829 105.751C206.829 104.739 207.339 104.359 208.105 104.739L216.013 109.293C216.778 109.673 217.416 110.811 217.416 111.824C217.416 112.836 216.906 113.215 216.141 112.836Z" fill="#9C251F"/>
<path d="M235.019 123.589L223.284 116.884C222.519 116.504 221.881 115.366 221.881 114.354C221.881 113.342 222.391 112.962 223.156 113.342L234.892 120.047C235.657 120.426 236.295 121.565 236.295 122.577C236.295 123.589 235.785 124.095 235.019 123.589Z" fill="#9C251F"/>
<path d="M212.187 154.711L204.278 150.156C203.513 149.777 202.875 148.638 202.875 147.626C202.875 146.614 203.385 146.234 204.151 146.614L212.059 151.168C212.824 151.548 213.462 152.686 213.462 153.699C213.59 154.711 212.952 155.09 212.187 154.711Z" fill="#9C251F"/>
<path d="M229.023 164.325L217.288 157.62C216.523 157.241 215.885 156.102 215.885 155.09C215.885 154.078 216.395 153.698 217.16 154.078L228.896 160.783C229.661 161.163 230.299 162.301 230.299 163.313C230.299 164.325 229.789 164.831 229.023 164.325Z" fill="#9C251F"/>
<path d="M194.455 107.775L189.48 104.992C188.715 104.612 188.077 103.474 188.077 102.462C188.077 101.45 188.587 101.07 189.353 101.45L194.328 104.233C195.093 104.612 195.731 105.751 195.731 106.763C195.731 107.775 195.22 108.155 194.455 107.775Z" fill="#9C251F"/>
<path d="M211.293 124.854L196.241 116.125C195.476 115.745 194.838 114.607 194.838 113.594C194.838 112.582 195.348 112.203 196.113 112.582L211.165 121.185C211.931 121.565 212.568 122.703 212.568 123.715C212.568 124.727 212.058 125.234 211.293 124.854Z" fill="#9C251F"/>
<path d="M201.344 133.836L196.369 131.053C195.604 130.674 194.966 129.535 194.966 128.523C194.966 127.511 195.476 127.131 196.241 127.511L201.216 130.294C201.981 130.674 202.619 131.812 202.619 132.824C202.747 133.836 202.109 134.216 201.344 133.836Z" fill="#9C251F"/>
<path d="M234.892 182.416L221.626 174.826C220.86 174.446 220.223 173.308 220.223 172.296C220.223 171.284 220.733 170.904 221.498 171.284L234.764 178.874C235.53 179.254 236.167 180.392 236.167 181.404C236.167 182.416 235.657 182.796 234.892 182.416Z" fill="#9C251F"/>
<path d="M199.813 147.626L196.624 145.855C195.858 145.475 195.221 144.337 195.221 143.325C195.221 142.313 195.731 141.933 196.496 142.313L199.685 144.084C200.451 144.463 201.088 145.602 201.088 146.614C201.216 147.626 200.578 148.132 199.813 147.626Z" fill="#9C251F"/>
<path d="M200.834 162.934L196.88 160.657C196.114 160.277 195.477 159.138 195.477 158.126C195.477 157.114 195.987 156.735 196.752 157.114L200.706 159.391C201.472 159.771 202.11 160.91 202.11 161.922C202.237 162.934 201.599 163.313 200.834 162.934Z" fill="#9C251F"/>
<path d="M216.268 171.789L205.936 165.844C205.171 165.464 204.533 164.325 204.533 163.313C204.533 162.301 205.043 161.922 205.809 162.301L216.141 168.247C216.906 168.627 217.544 169.765 217.544 170.777C217.544 171.663 216.906 172.169 216.268 171.789Z" fill="#9C251F"/>
<path d="M204.533 172.422L197.007 168.121C196.241 167.741 195.604 166.603 195.604 165.591C195.604 164.578 196.114 164.199 196.879 164.578L204.405 168.88C205.17 169.259 205.808 170.398 205.808 171.41C205.808 172.296 205.298 172.802 204.533 172.422Z" fill="#9C251F"/>
<path d="M219.84 144.337L206.574 136.746C205.809 136.366 205.171 135.228 205.171 134.216C205.171 133.204 205.681 132.824 206.446 133.204L219.712 140.794C220.478 141.174 221.116 142.312 221.116 143.325C221.116 144.337 220.478 144.843 219.84 144.337Z" fill="#9C251F"/>
<path d="M219.329 136.746L196.241 123.589C195.476 123.209 194.838 122.071 194.838 121.059C194.838 120.047 195.348 119.667 196.113 120.047L219.201 133.204C219.967 133.583 220.604 134.722 220.604 135.734C220.604 136.746 220.094 137.126 219.329 136.746Z" fill="#9C251F"/>
<path d="M209.763 145.981L196.497 138.391C195.732 138.011 195.094 136.873 195.094 135.861C195.094 134.848 195.604 134.469 196.369 134.848L209.635 142.439C210.401 142.819 211.038 143.957 211.038 144.969C211.038 145.981 210.528 146.361 209.763 145.981Z" fill="#9C251F"/>
<path d="M229.789 150.156L224.942 147.373C224.177 146.993 223.539 145.855 223.539 144.843C223.539 143.831 224.049 143.451 224.815 143.831L229.662 146.614C230.427 146.993 231.065 148.132 231.065 149.144C231.065 150.03 230.555 150.536 229.789 150.156Z" fill="#9C251F"/>
<path d="M212.697 162.301L196.88 153.193C196.114 152.813 195.477 151.674 195.477 150.662C195.477 149.65 195.987 149.271 196.752 149.65L212.569 158.759C213.335 159.138 213.972 160.277 213.972 161.289C213.972 162.301 213.462 162.807 212.697 162.301Z" fill="#9C251F"/>
<path d="M201.089 104.233L189.353 97.5277C188.588 97.1482 187.95 96.0096 187.95 94.9975C187.95 93.9854 188.46 93.6059 189.226 93.9854L200.961 100.691C201.726 101.07 202.364 102.209 202.364 103.221C202.364 104.233 201.726 104.612 201.089 104.233Z" fill="#9C251F"/>
<path d="M204.15 179.507L190.629 171.79C189.863 171.41 189.226 170.272 189.226 169.259C189.226 168.247 189.736 167.868 190.501 168.247L204.022 175.964C204.788 176.344 205.425 177.483 205.425 178.495C205.425 179.507 204.788 179.886 204.15 179.507Z" fill="#9C251F"/>
<path d="M210.4 225.177L202.492 220.623C201.727 220.243 201.089 219.105 201.089 218.093C201.089 217.08 201.599 216.701 202.364 217.08L210.273 221.635C211.038 222.014 211.676 223.153 211.676 224.165C211.676 225.177 211.038 225.557 210.4 225.177Z" fill="#9C251F"/>
<path d="M227.111 234.792L215.376 228.087C214.61 227.707 213.973 226.569 213.973 225.557C213.973 224.545 214.483 224.165 215.248 224.545L226.984 231.25C227.749 231.629 228.387 232.768 228.387 233.78C228.514 234.792 227.876 235.171 227.111 234.792Z" fill="#9C251F"/>
<path d="M209.508 195.194L194.456 186.591C193.691 186.212 193.053 185.073 193.053 184.061C193.053 183.049 193.563 182.669 194.328 183.049L209.38 191.652C210.145 192.031 210.783 193.17 210.783 194.182C210.783 195.194 210.145 195.7 209.508 195.194Z" fill="#9C251F"/>
<path d="M199.559 204.303L194.584 201.52C193.818 201.14 193.181 200.002 193.181 198.989C193.181 197.977 193.691 197.598 194.456 197.977L199.431 200.761C200.196 201.14 200.834 202.279 200.834 203.291C200.834 204.176 200.324 204.682 199.559 204.303Z" fill="#9C251F"/>
<path d="M198.028 218.092L194.839 216.321C194.073 215.942 193.436 214.803 193.436 213.791C193.436 212.779 193.946 212.4 194.711 212.779L197.9 214.55C198.665 214.93 199.303 216.068 199.303 217.08C199.303 218.092 198.793 218.472 198.028 218.092Z" fill="#9C251F"/>
<path d="M217.927 214.803L204.661 207.213C203.896 206.833 203.258 205.694 203.258 204.682C203.258 203.67 203.768 203.291 204.533 203.67L217.799 211.261C218.565 211.641 219.203 212.779 219.203 213.791C219.203 214.803 218.692 215.183 217.927 214.803Z" fill="#9C251F"/>
<path d="M217.544 207.213L194.456 194.056C193.691 193.676 193.053 192.537 193.053 191.525C193.053 190.513 193.563 190.134 194.328 190.513L217.416 203.67C218.182 204.05 218.819 205.188 218.819 206.2C218.819 207.213 218.182 207.592 217.544 207.213Z" fill="#9C251F"/>
<path d="M207.977 216.448L194.711 208.857C193.945 208.478 193.308 207.339 193.308 206.327C193.308 205.315 193.818 204.935 194.583 205.315L207.849 212.906C208.614 213.285 209.252 214.424 209.252 215.436C209.252 216.448 208.614 216.827 207.977 216.448Z" fill="#9C251F"/>
<path d="M228.003 220.496L223.156 217.713C222.391 217.334 221.753 216.195 221.753 215.183C221.753 214.171 222.263 213.791 223.029 214.171L227.876 216.954C228.641 217.334 229.279 218.472 229.279 219.484C229.279 220.496 228.641 221.002 228.003 220.496Z" fill="#9C251F"/>
</svg>
