<svg width="71" height="157" viewBox="0 0 71 157" fill="none" xmlns="http://www.w3.org/2000/svg">
<path d="M13.1279 58.0754C13.1279 44.3738 24.2772 33.2565 38.0402 33.2565C51.8032 33.2565 62.9524 44.3738 62.9524 58.0754V131.746C62.9524 145.456 51.8032 156.565 38.0402 156.565C24.2853 156.565 13.1279 145.455 13.1279 131.746V58.0754Z" fill="#E31B25" stroke="black" stroke-width="0.5"/>
<path d="M56.1875 89.8497C59.7376 87.8085 62.0091 85.2811 62.9523 82.6026V107.507C62.9523 110.966 60.65 114.478 55.9379 117.188C52.3274 119.261 47.8427 120.542 43.1378 121.022V93.7451C47.9131 93.2648 52.4889 91.9903 56.1875 89.8497Z" fill="#E6DAB0" stroke="black" stroke-width="0.5"/>
<path d="M51.5833 106.078V116.805C51.576 116.808 51.5686 116.81 51.5609 116.813C51.4365 116.854 51.256 116.913 51.0322 116.984C50.5845 117.127 49.9639 117.32 49.2721 117.519C47.9912 117.889 46.4853 118.275 45.3805 118.415V107.665C46.5372 107.522 48.1089 107.118 49.4104 106.744C50.1078 106.543 50.7331 106.35 51.184 106.207C51.339 106.157 51.4735 106.114 51.5833 106.078Z" fill="#BDAF83" stroke="black" stroke-width="0.5"/>
<path d="M55.9317 69.0605C59.6173 66.9412 61.9649 64.3125 62.9277 61.5317V67.6856C62.9277 71.2688 60.5509 74.9039 55.6826 77.7034C50.8157 80.498 44.4264 81.9024 38.0237 81.9024C31.621 81.9024 25.2318 80.498 20.3649 77.7034C15.5047 74.8956 13.1279 71.2605 13.1279 67.6856V61.5321C14.0904 64.3127 16.4363 66.9412 20.1155 69.0604L20.1157 69.0605C25.0762 71.913 31.5567 73.3322 38.0237 73.3322C44.4907 73.3322 50.9712 71.913 55.9317 69.0605Z" fill="#303033" stroke="black" stroke-width="0.5"/>
<path d="M55.9812 128.086C59.6606 125.97 61.9876 123.342 62.9442 120.566V126.711C62.9442 130.295 60.5992 133.93 55.7319 136.737C50.8609 139.54 44.4635 140.948 38.0526 140.948C31.6416 140.948 25.2442 139.54 20.3732 136.737C15.5047 133.929 13.1279 130.294 13.1279 126.711V120.545C14.0907 123.325 16.4382 125.96 20.1236 128.086L20.124 128.086C25.0887 130.938 31.5774 132.357 38.0526 132.357C44.5277 132.357 51.0164 130.938 55.9811 128.086L55.9812 128.086Z" fill="#303033" stroke="black" stroke-width="0.5"/>
<path opacity="0.3" d="M31.5278 42.7696L31.5276 42.7695C29.7303 41.74 28.8893 40.4233 28.8893 39.1577C28.8893 37.8919 29.7305 36.5731 31.5279 35.5395L31.528 35.5395C33.3155 34.511 35.6731 33.9896 38.0432 33.9896C40.4133 33.9896 42.7687 34.511 44.5521 35.5394L44.5527 35.5397C46.3497 36.5691 47.1909 37.8878 47.1909 39.1546C47.1909 40.4214 46.3497 41.7401 44.5527 42.7695L44.5524 42.7696C42.7691 43.794 40.4115 44.3135 38.0401 44.3135C35.6688 44.3135 33.3112 43.794 31.5278 42.7696Z" fill="#121214" stroke="black" stroke-width="0.5"/>
<path d="M38.0319 34.0042H38.0401H46.2655V38.6332C46.2655 39.7679 45.522 40.9309 43.9009 41.8664C42.2863 42.7923 40.1637 43.2623 38.0267 43.2623C35.8901 43.2623 33.7655 42.7924 32.1467 41.8666C30.5422 40.9312 29.7983 39.7683 29.7983 38.6332V34.0042H38.0319Z" fill="#303033" stroke="black" stroke-width="0.5"/>
<path d="M43.9013 36.9788L43.9017 36.9786C45.5174 36.0559 46.2676 34.8768 46.2676 33.7489C46.2676 32.6209 45.5172 31.4397 43.9013 30.5128C42.2867 29.5868 40.1639 29.1168 38.0268 29.1168C35.8899 29.1168 33.765 29.5867 32.1461 30.5128C30.5346 31.4395 29.786 32.6206 29.786 33.7489C29.786 34.8771 30.5345 36.0561 32.1459 36.9787L43.9013 36.9788ZM43.9013 36.9788C42.2867 37.9049 40.1639 38.3749 38.0268 38.3749M43.9013 36.9788L38.0268 38.3749M38.0268 38.3749C35.8898 38.3749 33.7648 37.9049 32.1459 36.9787L38.0268 38.3749Z" fill="#535359" stroke="black" stroke-width="0.5"/>
<path d="M63.8479 13.3647L66.5028 14.888L42.198 28.9832V24.6487L63.8479 13.3647Z" fill="#BCBEC0" stroke="black" stroke-width="0.5"/>
<path d="M66.7531 15.2991V15.9234L45.3475 29.4238V26.4638L66.7531 15.2991Z" fill="#858585" stroke="black" stroke-width="0.5"/>
<path d="M37.7688 17.4609L37.7689 17.4609L65.9311 1.27719L70.0156 3.62966C57.5634 10.5531 52.5405 14.2821 48.7567 17.3644C48.2045 17.8143 47.6793 18.2498 47.1615 18.6792C44.1537 21.1735 41.3981 23.4586 35.0806 27.1101L34.374 23.2834C34.3793 22.2265 34.7545 21.0426 35.3707 19.9817C35.9913 18.9132 36.8428 17.9926 37.7688 17.4609Z" fill="#BCBEC0" stroke="black" stroke-width="0.5"/>
<path d="M70.1536 4.13461L69.4964 7.0342C56.8409 14.0562 52.9157 17.2081 50.2483 19.7087C49.8761 20.0576 49.5305 20.3917 49.1905 20.7204C48.3084 21.573 47.464 22.3893 46.2899 23.3343C44.7208 24.5973 42.5646 26.0876 38.9662 28.1712V25.9509C38.9662 24.8886 39.3442 23.6976 39.9659 22.6299C40.5874 21.5626 41.439 20.6416 42.3616 20.1055C42.3618 20.1054 42.362 20.1053 42.3622 20.1052L70.1536 4.13461Z" fill="#858585" stroke="black" stroke-width="0.5"/>
<path d="M40.0606 26.9502L38.3175 25.901L37.9446 25.6766L37.9386 26.1118L37.7878 37.0296L31.505 33.4125V20.9979C31.505 19.9393 31.8791 18.7502 32.4957 17.6846C33.1108 16.6217 33.9538 15.7049 34.8692 15.1727L34.9281 15.1434L34.9345 15.1402L34.9407 15.1367C35.844 14.6202 36.596 14.5878 37.1189 14.8671L43.9558 18.8152L40.0606 26.9502Z" fill="#303033" stroke="black" stroke-width="0.5"/>
<path d="M41.703 19.0497L41.7152 19.0443L41.7267 19.0377C42.6503 18.5052 43.4245 18.4861 43.9515 18.7893C44.4784 19.0924 44.8475 19.769 44.8475 20.8253V33.2481L38.2817 37.0264L38.2737 24.8994C38.2737 23.8408 38.6479 22.6496 39.2655 21.5831C39.8806 20.5208 40.7236 19.6056 41.6408 19.0773L41.703 19.0497Z" fill="#1A1A1A" stroke="black" stroke-width="0.5"/>
<path d="M39.9803 24.4231C39.9803 23.9111 40.1646 23.3217 40.4744 22.7865C40.784 22.2516 41.205 21.7951 41.6529 21.5347C42.1058 21.2737 42.4572 21.281 42.6794 21.4095C42.9017 21.538 43.0832 21.8392 43.0832 22.3614C43.0832 22.8776 42.8989 23.4671 42.5893 24.0009C42.2799 24.5345 41.8589 24.9892 41.4107 25.2498C40.9578 25.5107 40.6063 25.5035 40.3842 25.375C40.1619 25.2465 39.9803 24.9453 39.9803 24.4231Z" fill="black" stroke="black" stroke-width="0.5"/>
<path d="M42.5894 24.0018L42.5891 24.0024L41.5755 25.7585L40.6373 25.2244L40.6373 25.2244L40.6347 25.2229C40.4466 25.1188 40.2854 24.864 40.2854 24.3984C40.2854 23.9351 40.4495 23.4051 40.727 22.9249C41.0045 22.4447 41.382 22.0376 41.7844 21.8059L41.7844 21.8059L41.785 21.8055C42.1872 21.5724 42.4939 21.584 42.6907 21.6918L43.6181 22.2302L42.5894 24.0018Z" fill="#BCBEC0" stroke="black" stroke-width="0.5"/>
<path d="M42.9362 22.4808L42.9362 22.4809L42.9394 22.479C43.3382 22.2472 43.645 22.256 43.8357 22.3649C44.026 22.4737 44.1879 22.732 44.1879 23.191C44.1879 23.6543 44.0239 24.1843 43.7455 24.6643C43.4672 25.1442 43.0879 25.5513 42.6816 25.7831L42.6816 25.7831L42.6808 25.7835C42.2767 26.0162 41.9704 26.0067 41.7813 25.8976C41.5924 25.7886 41.4313 25.5288 41.4313 25.0638C41.4313 24.6005 41.5954 24.0706 41.8736 23.5918C42.1519 23.113 42.5308 22.7085 42.9362 22.4808Z" fill="#939598" stroke="black" stroke-width="0.5"/>
<path d="M22.1517 119.994L22.1529 120.004L22.1548 120.014C22.1925 120.21 22.208 120.407 22.208 120.608V120.632C22.208 122.154 21.1915 123.744 19.0436 124.983C16.8974 126.217 14.07 126.841 11.229 126.841C8.38821 126.841 5.56093 126.217 3.41482 124.983C1.27411 123.744 0.25 122.162 0.25 120.632C0.25 120.428 0.272769 120.22 0.30518 119.994L0.305332 119.994L0.30627 119.986L5.24539 74.1946H17.2126L22.1517 119.994Z" fill="#121214" stroke="black" stroke-width="0.5"/>
<path d="M15.4903 71.6396L15.4909 71.6399C16.657 72.3078 17.1832 73.1521 17.1841 73.946C17.185 74.74 16.6604 75.5863 15.4982 76.2581C14.3333 76.9291 12.79 77.2718 11.2331 77.2718C9.67615 77.2718 8.13275 76.929 6.96773 76.2579C5.80107 75.5858 5.27488 74.7413 5.27399 73.9485C5.27309 73.1558 5.79724 72.3116 6.9595 71.6396C8.12883 70.9684 9.67229 70.6257 11.228 70.6257C12.7839 70.6257 14.3252 70.9684 15.4903 71.6396Z" fill="#535359" stroke="black" stroke-width="0.5"/>
<path opacity="0.3" d="M13.6438 72.4776L13.6443 72.4779C14.3036 72.8543 14.5756 73.3146 14.5756 73.7239C14.5756 74.1334 14.3032 74.5959 13.6435 74.9765C12.9897 75.3519 12.1161 75.5468 11.229 75.5468C10.3417 75.5468 9.46807 75.3519 8.81417 74.9763C8.15936 74.6003 7.88849 74.14 7.88849 73.73C7.88849 73.3198 8.15965 72.8575 8.81464 72.4773C9.46849 72.1019 10.3419 71.907 11.229 71.907C12.1162 71.907 12.9899 72.102 13.6438 72.4776Z" fill="#121214" stroke="black" stroke-width="0.5"/>
<path d="M11.229 71.9111H14.219V73.5257C14.219 73.8813 13.9853 74.2883 13.3956 74.6318C12.8077 74.9702 12.023 75.1465 11.2248 75.1465C10.427 75.1465 9.64253 74.9703 9.05464 74.6322C8.47085 74.2874 8.23064 73.8798 8.23064 73.5257V71.9111H11.229Z" fill="#121214" stroke="black" stroke-width="0.5"/>
<path d="M13.3973 72.7664C12.8091 73.1013 12.0237 73.2758 11.2249 73.2758C10.4265 73.2758 9.64147 73.1015 9.05333 72.7669C8.46881 72.4279 8.23276 72.019 8.23276 71.6612C8.23276 71.3033 8.46895 70.8943 9.05386 70.5552C9.64184 70.2168 10.4267 70.0405 11.2249 70.0405C12.0233 70.0405 12.8083 70.2168 13.3963 70.5554C13.9854 70.8946 14.2233 71.3057 14.2233 71.6643C14.2233 72.0225 13.9858 72.4314 13.3973 72.7664Z" fill="#535359" stroke="black" stroke-width="0.5"/>
<path d="M12.547 72.077C12.194 72.28 11.7161 72.3887 11.2248 72.3887C10.7334 72.3887 10.2555 72.28 9.9025 72.077C9.54818 71.8732 9.42807 71.6407 9.42807 71.46C9.42807 71.2792 9.54818 71.0467 9.9025 70.8429C10.2555 70.6399 10.7334 70.5312 11.2248 70.5312C11.7161 70.5312 12.194 70.6399 12.547 70.8429C12.9013 71.0467 13.0215 71.2792 13.0215 71.46C13.0215 71.6407 12.9013 71.8732 12.547 72.077Z" fill="#121214" stroke="black" stroke-width="0.5"/>
<path d="M31.8348 25.7784L31.8348 25.7773C31.8309 24.8823 32.1441 24.3209 32.5791 24.0711C33.0149 23.8208 33.6617 23.8324 34.4363 24.2784C35.21 24.7238 35.9256 25.4967 36.4483 26.3958C36.9711 27.2951 37.2873 28.2972 37.2873 29.1871C37.2873 30.0784 36.9743 30.6405 36.5386 30.8915C36.1026 31.1427 35.4558 31.133 34.6771 30.6869L34.6767 30.6867C33.904 30.2457 33.1907 29.4734 32.67 28.5732C32.1493 27.6731 31.8348 26.6688 31.8348 25.7784Z" fill="black" stroke="black" stroke-width="0.5"/>
<path d="M36.1335 30.655L34.4466 31.6227L32.6751 28.5609L30.9043 25.5003L32.5832 24.5331C32.5832 24.5331 32.5832 24.533 32.5833 24.533C32.9652 24.3138 33.5335 24.3208 34.2302 24.7219L34.2307 24.7222C34.93 25.1225 35.5754 25.8173 36.0464 26.6269C36.5173 27.4362 36.8006 28.3372 36.8009 29.1366C36.7929 29.9369 36.5177 30.4272 36.1335 30.655Z" fill="#1A1A1A" stroke="black" stroke-width="0.5"/>
<path d="M32.334 25.8226C33.0293 26.2228 33.6727 26.9177 34.1428 27.7274C34.613 28.5372 34.8964 29.4388 34.8964 30.2385C34.8964 31.0397 34.6162 31.536 34.2342 31.7561C33.8518 31.9764 33.2793 31.9708 32.5831 31.5741C31.8838 31.1697 31.2405 30.4729 30.7716 29.6626C30.3025 28.8519 30.021 27.9502 30.021 27.1501C30.021 26.3489 30.3012 25.8529 30.6828 25.6338C31.0648 25.4145 31.6373 25.4216 32.334 25.8226Z" fill="#303033" stroke="black" stroke-width="0.5"/>
<path d="M32.3339 27.0382C32.7363 27.2699 33.1138 27.677 33.3913 28.1572C33.6688 28.6373 33.8328 29.1674 33.8328 29.6307C33.8328 30.0955 33.6719 30.3558 33.4823 30.4658C33.2926 30.5759 32.9865 30.5865 32.5834 30.3586C32.1807 30.1226 31.8034 29.7134 31.5262 29.2327C31.2486 28.7513 31.0845 28.2212 31.0845 27.7579C31.0845 27.2929 31.2456 27.0331 31.4345 26.9241C31.6236 26.8151 31.9299 26.8055 32.3339 27.0382Z" fill="black" stroke="black" stroke-width="0.5"/>
<path d="M10.965 72.1538L10.965 72.1538L10.96 72.153C10.4398 72.0774 10.0247 71.8668 9.75998 71.5682C9.49964 71.2746 9.36773 70.8777 9.43991 70.3839C9.52565 69.8186 10.6296 62.801 13.835 54.0876C17.0428 45.3679 22.346 34.9754 30.8165 27.6432C31.1911 27.3197 31.5879 27.2386 31.9709 27.3197C32.3641 27.4029 32.7645 27.6628 33.1108 28.0614L33.1119 28.0626C33.4663 28.4656 33.6644 28.8934 33.6879 29.2862C33.7109 29.6686 33.5709 30.0441 33.1939 30.3696L33.1937 30.3698C25.1987 37.2898 20.1698 47.3699 17.1352 55.7323C14.0988 64.0994 13.0486 70.7761 13.0267 70.9161L13.0262 70.919C12.9626 71.3595 12.7446 71.6646 12.4363 71.8656C12.1211 72.0711 11.6985 72.1751 11.229 72.1751C11.1429 72.1751 11.0495 72.1679 10.965 72.1538Z" fill="#BCBEC0" stroke="black" stroke-width="0.5"/>
</svg>
