<svg width="405" height="513" fill="none" xmlns="http://www.w3.org/2000/svg">
  <defs/>
  <path d="M208.1 284.2l193.2 111.5c4.2 2.4 4.2 6.2 0 8.8l-118.6 68.6c-4.2 2.3-11 2.3-15 0L74.5 361.5c-4.2-2.3-4.2-6.2 0-8.7L193 284.2c4.2-2.4 11-2.4 15 0z" fill="#F6CA13"/>
  <path d="M275.2 475.3a15 15 0 01-7.7-1.9L74.3 362c-2.2-1.3-3.3-3-3.3-4.7 0-1.9 1.1-3.5 3.3-4.8L192.9 284a17.2 17.2 0 0115.6 0l193.2 111.5c2.2 1.2 3.3 2.9 3.3 4.7 0 1.8-1.1 3.5-3.3 4.8L283 473.4a17 17 0 01-7.7 1.9zm-74.6-192.4a14 14 0 00-7.3 1.9L74.7 353.3c-1.9 1.1-3 2.6-3 4 0 1.5 1.1 3 3 4L267.9 473c4 2.4 10.6 2.4 14.6 0l118.7-68.6c1.8-1 2.9-2.5 2.9-4s-1.1-3-3-4L208 284.8c-2-1.3-4.5-1.9-7.3-1.9z" fill="#000"/>
  <path d="M145.4 350.6l15.7-13 18.3 7.5-15.7 13-4.6-1.9 12.6-10.4-9.3-3.8-12.6 10.4-4.4-1.8zM190.7 349.7c1.1.3 2.2.9 3 1.4.7.6 1.2 1.3 1.4 2 .4 1.3-.2 2.8-1.6 3.9-.7.5-1.5 1-2.4 1.4-1 .4-2 .6-3.3.8-1.3 0-2.7 0-4-.2-1.3-.2-2.6-.6-3.7-1.1l-3.4-1.5-5.5 4.4-4.4-1.8 15.7-13 8.2 3.7zm-7.5 6c.4.2 1 .4 1.5.4h1.7c.5 0 1-.2 1.4-.4.6-.2 1-.4 1.1-.7.4-.2.6-.6.7-.8.2-.1.2-.5 0-.9l-.5-.9c-.4-.2-.7-.5-1.1-.5l-3.8-1.7-4.6 3.7 3.6 1.8zM228 387.9l3.1-2.6-21.7-8.8 15.7-13 4.6 1.9-12.6 10.4 5 2 12.7-10.4 4.6 1.8-12.6 10.4 5.3 2.2 12.6-10.4 4.5 1.8-12.6 10.5 2.4.9-6.2 5.1-4.8-1.8zM237.5 387.9l15.8-13 15.1 6.2-2.9 2.4L255 379l-3.3 2.7 9.9 4-3 2.4-9.8-4-3.5 3 10.6 4.3-2.9 2.4-15.4-6z" fill="#1D1D1B"/>
  <path d="M147.8 353.7l1 .5-5 4.2-1.1-.3 1.6-1.5c-.7-.2-1.3-.2-1.8-.5-.4-.2-.8-.2-1-.6l-.5-.7v-.7l.6-.6 1.8-1.5 1 .4-1.6 1.3a1 1 0 00-.5.9c.2.2.4.5 1 .7.5.2 1.2.4 1.7.4l2.8-2zM145.2 358.8l5-4.2 4.5 1.8-.7.6-3.5-1.5-1.3 1.1 3.3 1.3-.7.5-3.1-1.2-1.5 1 3.5 1.5-.7.6-4.8-1.5zM150.7 361l5-4.2.5.2v3.6l6-1.2.6.1-5 4.2-1-.3 3.2-2.6-4.7 1.1-.4-.2v-2.9l-3.3 2.7-.9-.5zM168 366.3c-.1.2-.3.4-.7.4l-.9.1h-1l-1-.1-3-1.3 5-4.2 3 1c.3.3.5.3.7.4.2.2.4.4.4.6v.5c0 .2-.2.4-.4.4-.2.2-.6.4-1 .4-.3 0-.7.2-1 0 .3.2.5.5.5.7 0 .6-.2 1-.5 1.1zm-1.2-4l-1.3 1 1.7.8c.1 0 .1.2.3.2h1.1l.4-.2.2-.2v-.2l-.2-.1-.4-.2-1.8-1.1zm-1.8 3.6l.5.2h.6c.1 0 .3 0 .5-.2l.4-.1.2-.4v-.4c0-.2-.2-.2-.4-.3l-.6-.2-1.6-.8-1.5 1.3 1.9 1zM173.4 366.1c.5.2.9.4 1 .7.3.4.4.8.3 1-.2.3-.4.7-.8.9l-1.4.5h-1.3c-.4 0-.7-.2-1.1-.3l-2.6-1.1 5-4.2 1 .3-1.8 1.5 1.7.7zm-2.6 2.2c.2.2.4.2.6.2h.7c.2 0 .4 0 .7-.2.2 0 .4-.2.6-.4.2-.1.2-.1.2-.3v-.4c0-.2-.2-.2-.4-.4l-.6-.1-1.4-.6-1.8 1.5 1.4.7zm7.9-2.2l1 .4-4.9 4.2-1-.6 4.9-4zM184.3 373.6l.8.4-1.9 1.4-1-.5.9-.7-4.4-1.9-1.1 1-1.1-.4 1.8-1.5.6.2 1.6-.5c1-.4 1.7-1 2.4-1.3l1.6-1.1 4 1.6-4.2 3.3zm-1-.4l3.4-2.9-2-.7-.4.2c-1.2.9-2.5 1.6-4.2 2.2l3.1 1.2zM184.9 374.7l.7-.5.6.3.5.2h.6l1.3-.4 1-3.6 1.3.5-.9 2.8 4-1.5 1.3.6-2 .7c-1.6.5-3 1-4 1.5l-1.8.3h-1l-.9-.2-.7-.7zM190.7 377.3l5-4.2.5.1v3.7l6-1.3.6.2-5 4.2-1-.4 3.3-2.5-4.8 1-.4-.1v-3l-3.2 2.6-1-.3zM203.7 382.4l.6-1.3-2.6-1-1.8.6-1.3-.5 7.7-3 .7.4-2.2 5.3-1-.5zm1.9-3.9l-2.8 1.1 2 .8.8-1.9zM205.6 383.1l4.9-4.2 4.6 1.8-.8.6-3.4-1.5-1.3 1.1 3.3 1.3-.8.6-3-1.3-1.5 1 3.4 1.5-.7.6-4.7-1.5zM216.9 382.6l-2-1 .7-.5 5.3 2.2-.7.6-2-1-4.2 3.5-1.1-.5 4-3.3zM216.3 387.5l5-4.2 4.5 1.8-.7.6-3.5-1.5-1.2 1.1 3 1.3-.7.5-3.3-1.2-1.4 1 3.5 1.5-.8.6-4.4-1.5z" fill="#575756"/>
  <path fill-rule="evenodd" clip-rule="evenodd" d="M193.1 359c1.8-1.3 4.4-2 7.1-2.6a26 26 0 018.5.2c2.7.6 4.9 1.7 6.7 3 1.7 1.2 2.8 2.9 2.8 4.5.1 1.7-.6 3.3-2 4.8a14.4 14.4 0 01-6.3 3.3c-2.5.7-5.4.9-8.2.7-2.7-.2-5.5-1-7.5-2-2.7-1.5-4.6-3.5-4.7-5.7-.2-2.6 1-4.6 3.6-6.2z" fill="#1D1D1B"/>
  <path fill-rule="evenodd" clip-rule="evenodd" d="M196.4 360.6c1.3-.9 3.1-1.4 5-1.6 2-.2 4-.2 5.8.2 1.8.3 3.5 1 4.7 2 1.1.9 1.9 2 2 3 0 1.2-.3 2.3-1.4 3.4a10 10 0 01-4.4 2.2c-1.8.5-3.8.7-5.8.5a15 15 0 01-5.3-1.4c-2-1.1-3.2-2.6-3.2-4-.1-1.7.8-3.2 2.6-4.3z" fill="#fff"/>
  <path fill-rule="evenodd" clip-rule="evenodd" d="M197 363c.7-.4 1.6-.7 2.5-.9 1-.2 2-.2 3.1 0 1 .2 1.9.5 2.4 1 .6.6 1 1.2 1.1 1.7 0 .6-.2 1.3-.7 1.7-.6.5-1.3.9-2.2 1-1 .3-2 .4-3 .3a6 6 0 01-2.7-.8c-.5-.2-1-.5-1.3-.9-.3-.3-.5-.7-.5-1 0-.4 0-.8.3-1.2 0-.2.4-.5 1-.9z" fill="#FDC300"/>
  <path d="M197.5 366c.2 0 .2 0 0 0l-.2.1h-.2l-.1-.2c-.4-.3-.4-.9-.2-1.2.2-.4.5-1 1-1.3h.8s.2 0 .2.2v.1l-1 1c-.7.5-.5.9-.3 1.2z" fill="#fff"/>
  <path fill-rule="evenodd" clip-rule="evenodd" d="M250.7 398.1c-1.3 5.1.2 10.4 4 15.2a38.7 38.7 0 0018 11.1 78.5 78.5 0 0025.7 3.7c9-.4 17.8-2.2 24.9-5.3a33.1 33.1 0 0015.5-12.4c3-5 3.3-10.3 1.1-15.4a28.8 28.8 0 00-13.7-13 73.3 73.3 0 00-57.8-1.3c-9.7 4.2-16 10.5-17.7 17.4z" fill="#1D1D1B"/>
  <path fill-rule="evenodd" clip-rule="evenodd" d="M256.4 398.5c-1.1 4.5.2 9.1 3.4 13.1 3.5 4 8.8 7.5 15.6 10a60 60 0 0022.3 3c7.9-.2 15.3-1.8 21.6-4.6 6.2-2.7 11-6.4 13.5-10.7 2.5-4.2 3-9 .9-13.4-2-4.4-6.2-8.4-12-11.3a62.1 62.1 0 00-50.3-1.3c-8.4 3.7-13.6 9.1-15 15.2z" fill="#fff"/>
  <path fill-rule="evenodd" clip-rule="evenodd" d="M323.1 411c3-1.2 5.3-2.8 6.8-4.8 1.4-1.9 1.8-4 1-6-.7-2-2.3-4-4.9-5.4a23.3 23.3 0 00-9.3-3 33 33 0 00-10.4.6c-3.3.8-6.2 2.2-8.2 3.9a7.6 7.6 0 00-3.2 5.8c0 2 1.1 4 3.2 5.9 2.7 2.4 6.7 3.8 11.5 4.4 4.5.7 9.5.2 13.5-1.5z" fill="#FDC300"/>
  <path d="M301 403.2c0 .2 0 .4-.2.6-.2.2-.4.2-.7.2-.4 0-.6 0-1-.2-.1-.2-.3-.2-.3-.4-.4-1.6 0-3.1 1-4.6 1.2-1.4 3-2.7 5.2-3.4l.4-.2h.3c.2 0 .4 0 .4.2l.4.2.1.1v.2l-.1.2-.4.2c-1.8.7-3.5 1.8-4.4 3-.7 1.4-.9 2.6-.7 4zM305.2 407.6c.2 0 .2.2.2.2l.2.2v.2l-.2.1-.4.2h-.7l-.4-.2a4 4 0 01-1.5-.9c-.5-.3-.9-.5-1.2-.9l-1-1-.1-.3v-.3l.1-.2.4-.2h1.1l.4.2c.2 0 .2.2.2.2.1.3.5.5.9.9l1 .7c0 .6.4.8 1 1.1z" fill="#fff"/>
  <path d="M145.4 350.6l15.7-13 18.3 7.5-15.7 13-4.4-1.9 12.6-10.4-9.3-3.8-12.6 10.4-4.6-1.8zM190.7 349.7c1.1.3 2.2.9 3 1.4.7.6 1.2 1.3 1.4 2 .4 1.3-.2 2.8-1.6 3.9-.7.5-1.5 1-2.4 1.4-1 .4-2 .6-3.3.8-2.7.2-5.5-.4-7.7-1.3l-3.4-1.5-5.3 4.4-4.6-1.8 15.7-13 8.2 3.7zm-7.6 6c.3.2.9.4 1.4.4h1.7c.5 0 1-.2 1.4-.4.6-.2 1-.4 1.1-.7.4-.2.6-.6.8-.8v-.9l-.6-.9c-.3-.2-.7-.5-1-.5l-4-1.7-4.5 3.7 3.7 1.8zM228 387.9l3.1-2.6-21.7-8.8 15.7-13 4.6 1.9-12.6 10.4 5 2 12.7-10.4 4.6 1.8-12.6 10.4 5.3 2.2 12.6-10.4 4.5 1.8-12.6 10.5 2.4.9-6.2 5.1-4.8-1.8zM237.5 387.9l15.8-13 15.1 6-2.9 2.4-10.6-4.4-3.3 2.8 9.9 4-3 2.4-9.8-4-3.5 2.9 10.6 4.3-2.9 2.4-15.4-5.8z" fill="#1D1D1B"/>
  <path d="M147.8 353.7l1 .4-5 4.2-1.1-.4 1.6-1.5a3 3 0 01-1.8-.5c-.4-.2-.8-.2-1-.4l-.5-.7c-.2-.4 0-.6 0-.7l.6-.6 1.8-1.5 1 .4-1.6 1.3a1 1 0 00-.5.9c0 .2.2.2.4.4l.5.3c.6.2 1.3.4 1.8.4l2.8-2zM145.2 358.8l5-4.2 4.5 1.8-.7.6-3.5-1.5-1.3 1.1 3.3 1.3-.7.5-3.3-1.2-1.4 1 3.4 1.5-.7.6-4.6-1.5zM150.7 361l5-4.2.5.2v3.6l6-1.2.6.1-5 4.2-1-.3 3.2-2.6-4.7 1.1-.4-.2v-2.9l-3.3 2.6-.9-.4zM168.3 366.3c-.2.2-.4.4-.8.4l-.9.1h-1c-.5 0-.8-.1-1-.3l-3.1-1.3 5.1-4.2 3 1.3.7.3.3.6v.5c0 .2-.2.4-.3.4-.2.2-.6.4-1 .4-.3 0-.7.2-1 0 .3.2.5.5.5.7 0 .6-.2 1-.5 1.1zm-1.3-4l-1.3 1 1.6.8.4.2h.6c.1 0 .3 0 .5-.2l.4-.2.2-.2v-.1l-.2-.2-.4-.2-1.8-1zm-2 3.6l.5.2h.6c.1 0 .3 0 .5-.2l.4-.1.2-.4v-.4c0-.2-.2-.2-.4-.3l-.6-.2-1.6-.8-1.5 1.3 1.9 1zM173.4 366.1c.5.2.9.4 1 .7.3.4.4.8.3 1-.2.3-.4.7-.8.9l-1.4.5h-1.3c-.4 0-.7-.2-1.1-.3l-2.6-1.1 5-4.2 1 .3-1.8 1.5 1.7.7zm-2.6 2.2c1 .4 1.8.4 2.4-.2l.2-.3v-.4c0-.2-.2-.2-.4-.4s-.4-.2-.5-.2l-1.5-.5-1.8 1.5 1.6.5zm7.9-2.2l1 .6-4.9 4.2-1-.4 4.9-4.4zM184.3 373.6l.8.4-1.9 1.4-1-.3.9-.8-4.4-1.8-1.1 1-1.1-.4 1.8-1.5.6.2 1.4-.6c1-.3 1.7-.9 2.4-1.2l1.6-1.1 4 1.6-4 3.1zm-1-.4l3.6-2.9-2-.7-.4.2c-1.3.9-2.5 1.6-4.2 2.2l3 1.2zM184.9 374.7l1-.5.5.3.5.2h.6l1.2-.4 1.1-3.6 1.3.5-1 2.8 4.1-1.5 1.3.6-2 .7c-1.7.5-3 1-4 1.5l-1.9.3h-.9l-.9-.2a5 5 0 01-1-.7zM190.7 377.3l5-4.2.5.1v3.7l6-1.3.6.2-5 4.2-1-.5 3.3-2.6-4.8 1.1-.4-.2v-3l-3.2 2.7-1-.2zM203.7 382.4l.6-1.3-2.6-1-1.8.6-1.3-.5 7.7-3 .7.4-2.2 5.3-1-.5zm1.9-3.9l-2.8 1.1 2 .8.8-1.9zM205.6 383.1l4.9-4.2 4.6 1.8-.8.6-3.4-1.5-1.3 1.1 3.3 1.3-.8.6-3.3-1.3-1.4 1 3.5 1.5-.8.6-4.5-1.5zM216.9 382.6l-2-1 .7-.5 5.3 2.2-.7.6-2-1-4.2 3.5-1.1-.5 4-3.3zM216.5 387.5l5-4.2 4.5 1.8-.7.6-3.5-1.5-1.3 1.1 3.3 1.3-.7.5-3.3-1.2-1.5 1 3.5 1.5-.7.6-4.6-1.5z" fill="#575756"/>
  <path fill-rule="evenodd" clip-rule="evenodd" d="M193.1 359c1.8-1.3 4.4-2 7.2-2.6a26 26 0 018.4.2c2.7.6 4.9 1.7 6.7 3 1.7 1.2 2.8 2.9 2.8 4.5.1 1.7-.6 3.3-2 4.8a14.4 14.4 0 01-6.3 3.3c-2.5.7-5.4.9-8.2.7-2.7-.2-5.5-1-7.5-2a9.8 9.8 0 01-3.3-2.6 5.2 5.2 0 01-.3-6.4c.3-1.3 1.2-2.2 2.5-3z" fill="#1D1D1B"/>
  <path fill-rule="evenodd" clip-rule="evenodd" d="M196.4 360.6c1.3-.9 3.1-1.4 5-1.6a15.6 15.6 0 0110.5 2.2c1.1.9 1.9 2 2 3 0 1.2-.3 2.3-1.4 3.4a8.3 8.3 0 01-4.4 2.2c-1.8.5-3.8.7-5.8.5a15 15 0 01-5.3-1.4c-2-1.1-3.2-2.6-3.2-4-.1-1.7.8-3.2 2.6-4.3z" fill="#fff"/>
  <path fill-rule="evenodd" clip-rule="evenodd" d="M204.8 359.4c1 .1 1.7.3 2.4.9.5.3 1 .9 1 1.4.3.6 0 1.1-.3 1.7-.3.5-1 .9-1.8 1-.7.3-1.8.4-2.7.4-1 0-1.9-.1-2.6-.5a4 4 0 01-1.6-1.3c-.4-.5-.4-1 0-1.6.1-.4.3-.8.7-1 .3-.3.9-.5 1.4-.7.6-.2 1.1-.3 1.9-.3h1.6z" fill="#FDC300"/>
  <path d="M201.2 360.8h-.2-.2-.2-.2c.6-.4 1.1-.5 1.9-.7.7-.2 1.4-.2 2 0h.2v.2l-.2.1h-2c-.2-.1-.6 0-1.1.4z" fill="#fff"/>
  <path fill-rule="evenodd" clip-rule="evenodd" d="M250.7 398.1c-1.3 5.1.2 10.4 4 15.2a38.7 38.7 0 0018 11.1 78.5 78.5 0 0025.7 3.7c9.2-.2 17.8-2.2 24.9-5.3a33.1 33.1 0 0015.5-12.4c3-5 3.3-10.3 1.1-15.4a28.8 28.8 0 00-13.7-13 73.3 73.3 0 00-57.8-1.3c-9.7 4.2-16 10.5-17.7 17.4z" fill="#1D1D1B"/>
  <path fill-rule="evenodd" clip-rule="evenodd" d="M256.4 398.5c-1.1 4.5.2 9.1 3.4 13.1 3.5 4 8.8 7.5 15.6 10a60 60 0 0022.3 3c7.9-.2 15.3-1.8 21.6-4.6 6.2-2.7 11-6.4 13.5-10.7 2.5-4.2 3-9 .9-13.4-2-4.4-6.2-8.4-12-11.3a62.1 62.1 0 00-50.3-1.3c-7.9 3.7-13.4 9.1-15 15.2z" fill="#fff"/>
  <path fill-rule="evenodd" clip-rule="evenodd" d="M281.6 400a28 28 0 0019.7 2.3c3.3-.7 6.3-2.2 8.3-3.8 2-1.7 3-3.7 3-5.9 0-2-1-4-3-5.8-2-1.7-4.8-3.1-8-3.9a28.4 28.4 0 00-19.8 2.4c-3.5 2-5.3 4.6-5.3 7.3-.2 2.8 1.8 5.3 5.1 7.3z" fill="#FDC300"/>
  <path d="M290.6 386h-1c-.1 0-.5-.1-.5-.3v-.2s0-.2.2-.2l.2-.2c.1 0 .1-.2.3-.2a23.6 23.6 0 0115.2 1.9l.4.3c0 .2-.2.4-.4.6-.2.2-.5.2-.7.2-.4 0-.6 0-.8-.2-1.6-1-3.6-1.7-5.8-1.8-2.6-.4-5-.4-7.1.1zM284 389.2l-.6.1h-.7c-.2 0-.4-.1-.5-.3-.2-.2-.2-.4 0-.4l1-1c.4-.5 1-.6 1.3-1 .6-.4 1.1-.6 1.7-.7.2-.2.5-.2.9-.2s.5.2.7.2c.2.1.2.3.2.5s-.2.4-.4.4l-1.2.5c-.4.2-1 .4-1.3.8-.4.5-.8.7-1.1 1z" fill="#fff"/>
  <g>
    <g opacity=".3">
      <mask id="a" fill="#fff">
        <path d="M227.3 424c-17.6-10.1-43.8-12.4-65.3-6.8-8-2.8-17-4.3-26.4-4.3a73 73 0 00-35.9 8.5L83.2 431c-10 5.8-15.4 13.6-15.4 22s5.5 16.2 15.4 22l51.5 29.6a73 73 0 0035.8 8.5c13.6 0 26.3-3 35.9-8.5l16.5-9.5c10-5.8 15.5-13.6 15.5-22 0-2.8-.7-5.5-1.8-8.1 13-13 10-29.8-9.3-40.8z"/>
      </mask>
      <path d="M227.3 424c-17.6-10.1-43.8-12.4-65.3-6.8-8-2.8-17-4.3-26.4-4.3a73 73 0 00-35.9 8.5L83.2 431c-10 5.8-15.4 13.6-15.4 22s5.5 16.2 15.4 22l51.5 29.6a73 73 0 0035.8 8.5c13.6 0 26.3-3 35.9-8.5l16.5-9.5c10-5.8 15.5-13.6 15.5-22 0-2.8-.7-5.5-1.8-8.1 13-13 10-29.8-9.3-40.8z" fill="#000" stroke="#000" mask="url(#a)"/>
    </g>
    <mask id="b" fill="#fff">
      <path d="M70.4 449.8c1.2-6.2 5.8-12.2 14-16.9l16.5-9.5c19-11 50.3-11 69.4 0l51.4 29.6c8.2 4.7 12.8 10.7 14 16.8h.3v3.1c0 7.3-4.7 14.5-14.3 20l-16.5 9.5a77 77 0 01-69.4 0L84.4 473c-9.5-5.5-14.3-12.8-14.3-20v-3.1h.3z"/>
    </mask>
    <path d="M70.4 449.8c1.2-6.2 5.8-12.2 14-16.9l16.5-9.5c19-11 50.3-11 69.4 0l51.4 29.6c8.2 4.7 12.8 10.7 14 16.8h.3v3.1c0 7.3-4.7 14.5-14.3 20l-16.5 9.5a77 77 0 01-69.4 0L84.4 473c-9.5-5.5-14.3-12.8-14.3-20v-3.1h.3z" fill="#9C251F" stroke="#000" mask="url(#b)"/>
    <mask id="c" fill="#fff">
      <path d="M135.8 499.5c19.1 11 50.3 11 69.4 0l16.5-9.5c19-11 19-29 0-40l-51.4-29.5c-19.1-11-50.3-11-69.4 0L84.4 430c-19 11-19 29 0 39.9l51.4 29.6z"/>
    </mask>
    <path d="M135.8 499.5c19.1 11 50.3 11 69.4 0l16.5-9.5c19-11 19-29 0-40l-51.4-29.5c-19.1-11-50.3-11-69.4 0L84.4 430c-19 11-19 29 0 39.9l51.4 29.6z" fill="#FF3F4A" stroke="#000" mask="url(#c)"/>
    <mask id="d" fill="#fff">
      <path d="M106.2 463.8s10 34.5 68.9 34.5c0 0 1.2 1.4 3.5 1.9 8.4 3 43.2-6.2 43.6-22.6-70.1 33.8-116-13.8-116-13.8z"/>
    </mask>
    <path d="M106.2 463.8s10 34.5 68.9 34.5c0 0 1.2 1.4 3.5 1.9 8.4 3 43.2-6.2 43.6-22.6-70.1 33.8-116-13.8-116-13.8z" fill="#9C251F" stroke="#000" mask="url(#d)"/>
    <mask id="e" fill="#fff">
      <path d="M175.4 496a61.3 61.3 0 0027-5.6c13.2-7.7 11.9-55.2 11.9-55.2s-10.7-33-49.2-35.2c-66.2-3.2-59 63.8-59 63.8s12.7 30.3 69.3 32.2z"/>
    </mask>
    <path d="M175.4 496a61.3 61.3 0 0027-5.6c13.2-7.7 11.9-55.2 11.9-55.2s-10.7-33-49.2-35.2c-66.2-3.2-59 63.8-59 63.8s12.7 30.3 69.3 32.2z" fill="#E31B25" stroke="#000" mask="url(#e)"/>
    <mask id="f" fill="#fff">
      <path d="M196.8 435.7c-.4 0-.8-.2-1-.5-10.9-15-31.2-23-31.4-23-.7-.3-1-1-.7-1.7.2-.7 1-1 1.7-.7a81 81 0 0132.5 23.8c.4.6.3 1.4-.3 1.9l-.8.2z"/>
    </mask>
    <path d="M196.8 435.7c-.4 0-.8-.2-1-.5-10.9-15-31.2-23-31.4-23-.7-.3-1-1-.7-1.7.2-.7 1-1 1.7-.7a81 81 0 0132.5 23.8c.4.6.3 1.4-.3 1.9l-.8.2z" fill="#9C251F" stroke="#000" mask="url(#f)"/>
    <mask id="g" fill="#fff">
      <path d="M111 430.6c-.8-.3 6.3-24.8 47.8-22.9a1.3 1.3 0 01-.2 2.7c-37.7-2.2-47.5 20.2-47.7 20.2z"/>
    </mask>
    <path d="M111 430.6c-.8-.3 6.3-24.8 47.8-22.9a1.3 1.3 0 01-.2 2.7c-37.7-2.2-47.5 20.2-47.7 20.2z" fill="#9C251F" stroke="#000" mask="url(#g)"/>
    <mask id="h" fill="#fff">
      <path d="M161.2 408.7a45.7 45.7 0 00-25.8-4.1c11.4-5.5 26 1.4 26.6 1.7.6.4.7 1.2.3 1.8-.3.4-.7.6-1 .6z"/>
    </mask>
    <path d="M161.2 408.7a45.7 45.7 0 00-25.8-4.1c11.4-5.5 26 1.4 26.6 1.7.6.4.7 1.2.3 1.8-.3.4-.7.6-1 .6z" fill="#9C251F" stroke="#000" mask="url(#h)"/>
    <g>
      <mask id="i" fill="#fff">
        <path d="M162.8 409h-.3c-.7-.2-1.1-.9-1-1.6l1.9-7.5s.5-1 1.5-.9c1 .2 1.1 1 1.1 1l-2 8c0 .6-.6 1-1.2 1z"/>
      </mask>
      <path d="M162.8 409h-.3c-.7-.2-1.1-.9-1-1.6l1.9-7.5s.5-1 1.5-.9c1 .2 1.1 1 1.1 1l-2 8c0 .6-.6 1-1.2 1z" fill="#9C251F" stroke="#000" mask="url(#i)"/>
    </g>
    <g>
      <mask id="j" fill="#fff">
        <path d="M162.8 409c-.5 0-1-.3-1.3-.8-.2-.7.2-1.5 1-1.7.5-.2 16.6-6.3 26.2-.2-10.5-2.7-25.3 2.6-25.5 2.7h-.4z"/>
      </mask>
      <path d="M162.8 409c-.5 0-1-.3-1.3-.8-.2-.7.2-1.5 1-1.7.5-.2 16.6-6.3 26.2-.2-10.5-2.7-25.3 2.6-25.5 2.7h-.4z" fill="#9C251F" stroke="#000" mask="url(#j)"/>
    </g>
    <g>
      <mask id="k" fill="#fff">
        <path d="M167.4 410.7c-.8 0-1.3-.7-1.3-1.4s.6-1.3 1.4-1.2c35.7 1.5 44.8 21 44.2 21.3 0 0-10.4-17.3-44.3-18.7z"/>
      </mask>
      <path d="M167.4 410.7c-.8 0-1.3-.7-1.3-1.4s.6-1.3 1.4-1.2c35.7 1.5 44.8 21 44.2 21.3 0 0-10.4-17.3-44.3-18.7z" fill="#9C251F" stroke="#000" mask="url(#k)"/>
    </g>
    <g>
      <mask id="l" fill="#fff">
        <path d="M154.4 495c-.8 0-1.3-.6-1.3-1.3.2-2.8 4.2-67.5 8.4-81.9.2-.7 1-1 1.7-.8.7.2 1 1 .8 1.6-4.1 14-8.2 80.5-8.2 81.2 0 .7-.7 1.2-1.4 1.2z"/>
      </mask>
      <path d="M154.4 495s0 0 0 0c-.8 0-1.3-.6-1.3-1.3.2-2.8 4.2-67.5 8.4-81.9.2-.7 1-1 1.7-.8.7.2 1 1 .8 1.6-4.1 14-8.2 80.5-8.2 81.2 0 .7-.7 1.2-1.4 1.2z" fill="#9C251F" stroke="#000" mask="url(#l)"/>
    </g>
    <g>
      <mask id="m" fill="#fff">
        <path d="M118.5 479.7c-.7 0-1.3-.6-1.3-1.3 0-.6-.2-14 4.9-29.2 6.7-20.3 19.5-34.4 37.2-39.5.7-.2 1.4.2 1.6.9.2.7-.2 1.4-1 1.6-40.5 11.9-40.1 65.6-40.1 66.2 0 .7-.6 1.3-1.3 1.3z"/>
      </mask>
      <path d="M118.5 479.7c-.7 0-1.3-.6-1.3-1.3 0-.6-.2-14 4.9-29.2 6.7-20.3 19.5-34.4 37.2-39.5.7-.2 1.4.2 1.6.9.2.7-.2 1.4-1 1.6-40.5 11.9-40.1 65.6-40.1 66.2 0 .7-.6 1.3-1.3 1.3z" fill="#9C251F" stroke="#000" mask="url(#m)"/>
    </g>
    <g>
      <mask id="n" fill="#fff">
        <path d="M162.8 407.7h4.6v2.7c0 .7-.4 1.4-1.3 1.9-1.9 1-4.8 1-6.6 0-.9-.5-1.3-1.2-1.3-1.9v-2.7h4.6z"/>
      </mask>
      <path d="M162.8 407.7h4.6v2.7c0 .7-.4 1.4-1.3 1.9-1.9 1-4.8 1-6.6 0-.9-.5-1.3-1.2-1.3-1.9v-2.7h4.6z" fill="#E31B25" stroke="#000" mask="url(#n)"/>
      <g>
        <mask id="o" fill="#fff">
          <path d="M159.5 409.6c1.8 1 4.7 1 6.6 0 1.8-1 1.8-2.7 0-3.7-1.9-1.1-4.8-1.1-6.6 0-1.8 1-1.8 2.7 0 3.7z"/>
        </mask>
        <path d="M159.5 409.6c1.8 1 4.7 1 6.6 0 1.8-1 1.8-2.7 0-3.7-1.9-1.1-4.8-1.1-6.6 0-1.8 1-1.8 2.7 0 3.7z" fill="#FF3F4A" stroke="#000" mask="url(#o)"/>
      </g>
    </g>
    <g>
      <mask id="p" fill="#fff">
        <path d="M198.3 411.2l-31.2-2.5c-.7 1.2-3 1.6-3 1.6l15.3 8.5 5.2.3 13.7-7.9z"/>
      </mask>
      <path d="M198.3 411.2l-31.2-2.5c-.7 1.2-3 1.6-3 1.6l15.3 8.5 5.2.3 13.7-7.9z" fill="#FF9D26" stroke="#000" mask="url(#p)"/>
      <mask id="q" fill="#fff">
        <path d="M184.6 419l4.3 21 13.5-2.5.5-9-4.6-17.3-13.7 7.9z"/>
      </mask>
      <path d="M184.6 419l4.3 21 13.5-2.5.5-9-4.6-17.3-13.7 7.9z" fill="#BA6000" stroke="#000" mask="url(#q)"/>
      <mask id="r" fill="#fff">
        <path d="M189.2 436.3l-4.6-17.2-20.5-8.8v2.7s17.4 16.5 18 35c0 2 6.6-2.7 6.6-2.7l.5-9z"/>
      </mask>
      <path d="M189.2 436.3l-4.6-17.2-20.5-8.8v2.7s17.4 16.5 18 35c0 2 6.6-2.7 6.6-2.7l.5-9z" fill="#FF8400" stroke="#000" mask="url(#r)"/>
      <mask id="s" fill="#fff">
        <path d="M198.4 429.4s8.5-3.8 13.8 3.4c1.2 1.7-.4.7-.4.7 4.2 5.9 7.8 18 7.8 42.5-4.4 14.6-31.9 22.3-41 21.6-2-.4-3.2-1.6-3.2-1.6-2.7-58.4 23-66.6 23-66.6z"/>
      </mask>
      <path d="M198.4 429.4s8.5-3.8 13.8 3.4c1.2 1.7-.4.7-.4.7 4.2 5.9 7.8 18 7.8 42.5-4.4 14.6-31.9 22.3-41 21.6-2-.4-3.2-1.6-3.2-1.6-2.7-58.4 23-66.6 23-66.6z" fill="#FF8400" stroke="#000" mask="url(#s)"/>
      <g>
        <mask id="t" fill="#fff">
          <path d="M222.2 477.6c-4.8 15.7-37.4 22-43.6 20-2.8-58.4 21.7-66.8 21.7-66.8s21.9-12.4 21.9 46.8z"/>
        </mask>
        <path d="M222.2 477.6c-4.8 15.7-37.4 22-43.6 20-2.8-58.4 21.7-66.8 21.7-66.8s21.9-12.4 21.9 46.8z" fill="#BA6000" stroke="#000" mask="url(#t)"/>
      </g>
      <g>
        <mask id="u" fill="#fff">
          <path d="M205.6 468.8l1.8 3 3.8-1.6-2.8 4.8.7 4h-3.5l-3.5 4 .7-4.8-2.8-1.5 3.9-2.9 1.7-5z"/>
        </mask>
        <path d="M205.6 468.8l1.8 3 3.8-1.6-2.8 4.8.7 4h-3.5l-3.5 4 .7-4.8-2.8-1.5 3.9-2.9 1.7-5z" fill="#FF8400" stroke="#000" mask="url(#u)"/>
      </g>
      <g>
        <mask id="v" fill="#fff">
          <path d="M200.5 490.5c-2.7 0-5.5-2-5.5-6.6V475c0-4.8 3.3-10.5 7.5-12.9l4.3-2.5a7.8 7.8 0 013.9-1.1c2.7 0 5.5 2 5.5 6.5v9c0 4.7-3.3 10.4-7.4 12.8l-4.4 2.5a7.6 7.6 0 01-3.9 1.2zm10.2-28.1a4 4 0 00-2 .6l-4.3 2.5c-3 1.7-5.5 6-5.5 9.5v9c0 1 .2 2.6 1.7 2.6a4 4 0 001.9-.6l4.4-2.5c3-1.7 5.5-6 5.5-9.5v-9c0-1-.3-2.6-1.7-2.6z"/>
        </mask>
        <path d="M200.5 490.5c-2.7 0-5.5-2-5.5-6.6V475c0-4.8 3.3-10.5 7.5-12.9l4.3-2.5a7.8 7.8 0 013.9-1.1c2.7 0 5.5 2 5.5 6.5v9c0 4.7-3.3 10.4-7.4 12.8l-4.4 2.5a7.6 7.6 0 01-3.9 1.2zm10.2-28.1a4 4 0 00-2 .6l-4.3 2.5c-3 1.7-5.5 6-5.5 9.5v9c0 1 .2 2.6 1.7 2.6a4 4 0 001.9-.6l4.4-2.5c3-1.7 5.5-6 5.5-9.5v-9c0-1-.3-2.6-1.7-2.6z" fill="#FF8400" stroke="#000" mask="url(#v)"/>
      </g>
    </g>
  </g>
  <g>
    <g opacity=".3">
      <mask id="w" fill="#fff">
        <path d="M334 243.7l-100.6 57.7a5 5 0 00-1.9.5l-2.3 1.3c-.7.4-1 1-1 1.8l-10.3 6-.3.1a5 5 0 00-2.3.6l-8 4.5c-.9.5-1.2 1.3-.7 2.4l-7.2 4.2c-1.1 0-2 .1-2.5.4l-1.8 1c-.4.3-.7.6-.8 1l-16.8 12c-.4.2-.6.6-.3 1 .4 1 2 2 3.6 2.2.8.1 1.5 0 1.9-.2l20.9-9.7c.6 0 1.2-.2 1.6-.4l1.8-1c.5-.4.8-.9.7-1.5l7.3-4.2c1.9.3 3.3.2 4.2-.3l8-4.6c.6-.3.8-.7.9-1.3l.3-.1 3.8-2.2 4.6 2.6c-.1.4 0 .7.4.9l17.6 9.8c.4.2 1 .3 1.9.2 1.6-.3 3.3-1.3 3.7-2.2.2-.5 0-.9-.4-1l-17.6-10a3 3 0 00-1.8 0l-4.5-2.6 2.6-1.5a6 6 0 003.2-.6l2.3-1.3c1-.5 1.3-1.4.7-2.6 0-.2-.2-.4-.4-.6l99-56.7s4.4-3 0-5.6c-5-2.8-9.6 0-9.6 0z"/>
      </mask>
      <path d="M334 243.7l-100.6 57.7a5 5 0 00-1.9.5l-2.3 1.3c-.7.4-1 1-1 1.8l-10.3 6-.3.1a5 5 0 00-2.3.6l-8 4.5c-.9.5-1.2 1.3-.7 2.4 0 0 0 0 0 0l-7.2 4.2c-1.1 0-2 .1-2.5.4l-1.8 1c-.4.3-.7.6-.8 1l-16.8 12c-.4.2-.6.6-.3 1 .4 1 2 2 3.6 2.2.8.1 1.5 0 1.9-.2l20.9-9.7c.6 0 1.2-.2 1.6-.4l1.8-1c.5-.4.8-.9.7-1.5l7.3-4.2s0 0 0 0c1.9.3 3.3.2 4.2-.3l8-4.6c.6-.3.8-.7.9-1.3l.3-.1s0 0 0 0 0 0 0 0l3.8-2.2 4.6 2.6c-.1.4 0 .7.4.9l17.6 9.8c.4.2 1 .3 1.9.2 1.6-.3 3.3-1.3 3.7-2.2.2-.5 0-.9-.4-1l-17.6-10a3 3 0 00-1.8 0l-4.5-2.6 2.6-1.5a6 6 0 003.2-.6l2.3-1.3c1-.5 1.3-1.4.7-2.6 0-.2-.2-.4-.4-.6l99-56.7s4.4-3 0-5.6c-5-2.8-9.6 0-9.6 0z" fill="#121214" stroke="#000" mask="url(#w)"/>
    </g>
    <mask id="x" fill="#fff">
      <path d="M316.5 210.9c0-7.5-7.6-14.1-10.2-18.8l2-2.3-8.6-5c-6.3-4-15-3.9-24.6 1.6-19.5 11.2-35.3 40.2-35.3 64.6 0 10.2 3.6 17.3 9.3 20.7l8.2 4.7 1.2-2.5c1.7-.1 4.4.2 7.3.5l-30.1 17.3a5.7 5.7 0 00-2.6 4.5c0 1.6 10.4 6 11.8 5.1l36.2-22.5c21.2-12.2 36.3-39 35.4-68zm-32 12.4h-.2c-.5-.3-1-.2-1.7.2a5.7 5.7 0 00-2.6 4.4c0 4.5-3.4 10-7.7 12.5-.4.2-1.8-1.2-1.8-5.2.8-6.2 13.4-19.6 13.9-19.1 1.2 2 1.8 4.8 1.8 8.2l-1.8-1z"/>
    </mask>
    <path d="M316.5 210.9c0-7.5-7.6-14.1-10.2-18.8l2-2.3-8.6-5c-6.3-4-15-3.9-24.6 1.6-19.5 11.2-35.3 40.2-35.3 64.6 0 10.2 3.6 17.3 9.3 20.7l8.2 4.7 1.2-2.5c1.7-.1 4.4.2 7.3.5l-30.1 17.3a5.7 5.7 0 00-2.6 4.5c0 1.6 10.4 6 11.8 5.1l36.2-22.5c21.2-12.2 36.3-39 35.4-68zm-32 12.4h-.2 0v0c-.5-.3-1-.2-1.7.2a5.7 5.7 0 00-2.6 4.4c0 4.5-3.4 10-7.7 12.5-.4.2-1.8-1.2-1.8-5.2.8-6.2 13.4-19.6 13.9-19.1 1.2 2 1.8 4.8 1.8 8.2 0 0 0 0 0 0l-1.8-1z" fill="#FF3F4A" stroke="#000" mask="url(#x)"/>
    <mask id="y" fill="#fff">
      <path d="M280.4 281.7l-36.2 20.8c-1.4.8-2.6.2-2.6-1.5 0-1.6 1.2-3.6 2.6-4.4l36.2-20.8a73.4 73.4 0 0033.3-57.5c0-21.2-13.5-30.6-30.1-21-16.6 9.5-30.2 34.5-30.2 55.6 0 17.2 12.2 24.2 27.1 15.6 15-8.6 27-29.5 27-46.7 0-17.2-10.7-25-23.9-17.4-13.2 7.6-23.9 27.8-23.9 45 0 12.5 9.3 17.5 20.7 11a44.7 44.7 0 0020.7-34.9c0-13.2-7.7-19.5-17-14.1-9.5 5.4-17.1 20.5-17.1 33.7 0 8.4 6.2 11.6 13.8 7.2a29.8 29.8 0 0014-23.1c0-9.2-5-13.9-10.8-10.5-6 3.4-10.8 13.7-10.8 22.8 0 4.5 3.4 6.1 7.6 3.7 4.2-2.4 7.7-8 7.7-12.4 0-1.7 1.1-3.7 2.5-4.5 1.5-.8 2.6-.1 2.6 1.5 0 7.7-5.7 17.3-12.7 21.4-7.1 4-12.8 1-12.8-6.7 0-12.4 7.1-26.7 15.9-31.7 8.7-5 15.9 1 15.9 13.4 0 11.6-8.6 26-19 32-10.5 6-19 1.5-19-10.1 0-16.5 9.9-35.6 22.1-42.7 12.3-7 22.2.7 22.2 17.2a56 56 0 01-25.8 43.6c-14.2 8.2-25.8 2-25.8-14 0-20.4 13-44.5 29-53.7 16-9.2 29.1 0 29.1 20.3a71 71 0 01-32.2 55.6c-17.8 10.2-32.2 1.9-32.2-18.5 0-24.5 15.8-53.4 35.3-64.6 19.4-11.2 35.3-.4 35.3 24a84.8 84.8 0 01-38.5 66.4z"/>
    </mask>
    <path d="M280.4 281.7l-36.2 20.8c-1.4.8-2.6.2-2.6-1.5 0-1.6 1.2-3.6 2.6-4.4l36.2-20.8a73.4 73.4 0 0033.3-57.5c0-21.2-13.5-30.6-30.1-21-16.6 9.5-30.2 34.5-30.2 55.6 0 17.2 12.2 24.2 27.1 15.6 15-8.6 27-29.5 27-46.7 0-17.2-10.7-25-23.9-17.4-13.2 7.6-23.9 27.8-23.9 45 0 12.5 9.3 17.5 20.7 11a44.7 44.7 0 0020.7-34.9c0-13.2-7.7-19.5-17-14.1-9.5 5.4-17.1 20.5-17.1 33.7 0 8.4 6.2 11.6 13.8 7.2a29.8 29.8 0 0014-23.1c0-9.2-5-13.9-10.8-10.5-6 3.4-10.8 13.7-10.8 22.8 0 4.5 3.4 6.1 7.6 3.7 4.2-2.4 7.7-8 7.7-12.4 0-1.7 1.1-3.7 2.5-4.5 1.5-.8 2.6-.1 2.6 1.5 0 7.7-5.7 17.3-12.7 21.4-7.1 4-12.8 1-12.8-6.7 0-12.4 7.1-26.7 15.9-31.7 8.7-5 15.9 1 15.9 13.4 0 11.6-8.6 26-19 32-10.5 6-19 1.5-19-10.1 0-16.5 9.9-35.6 22.1-42.7 12.3-7 22.2.7 22.2 17.2a56 56 0 01-25.8 43.6c-14.2 8.2-25.8 2-25.8-14 0-20.4 13-44.5 29-53.7 16-9.2 29.1 0 29.1 20.3a71 71 0 01-32.2 55.6c-17.8 10.2-32.2 1.9-32.2-18.5 0-24.5 15.8-53.4 35.3-64.6 19.4-11.2 35.3-.4 35.3 24a84.8 84.8 0 01-38.5 66.4z" fill="#9C251F" stroke="#000" mask="url(#y)"/>
    <mask id="z" fill="#fff">
      <path d="M232.3 294l.9 1.4v.7a11.8 11.8 0 006 9.5l.7 1.5 2.4-1.4c1-.6 1.6-1.8 1.6-3.5 0-3.4-2.4-7.5-5.4-9.2-1.5-.9-2.8-1-3.8-.4l-2.3 1.4z"/>
    </mask>
    <path d="M232.3 294l.9 1.4v.7a11.8 11.8 0 006 9.5l.7 1.5 2.4-1.4c1-.6 1.6-1.8 1.6-3.5 0-3.4-2.4-7.5-5.4-9.2-1.5-.9-2.8-1-3.8-.4l-2.3 1.4z" fill="#A7A9AC" stroke="#000" mask="url(#z)"/>
    <mask id="A" fill="#fff">
      <path d="M236.1 294.3c3 1.7 5.4 5.9 5.4 9.3 0 3.4-2.4 4.8-5.4 3-3-1.6-5.3-5.8-5.3-9.2 0-3.4 2.4-4.8 5.3-3z"/>
    </mask>
    <path d="M236.1 294.3c3 1.7 5.4 5.9 5.4 9.3 0 3.4-2.4 4.8-5.4 3-3-1.6-5.3-5.8-5.3-9.2 0-3.4 2.4-4.8 5.3-3z" fill="#939598" stroke="#000" mask="url(#A)"/>
    <mask id="B" fill="#fff">
      <path d="M217.6 304l.6 1.2v.5a9.7 9.7 0 005 8l.6 1.1 15.1-8.7c.8-.4 1.3-1.4 1.3-2.8 0-2.9-2-6.3-4.4-7.7-1.2-.7-2.3-.7-3.1-.3l-15.1 8.7z"/>
    </mask>
    <path d="M217.6 304l.6 1.2v.5a9.7 9.7 0 005 8l.6 1.1 15.1-8.7c.8-.4 1.3-1.4 1.3-2.8 0-2.9-2-6.3-4.4-7.7-1.2-.7-2.3-.7-3.1-.3l-15.1 8.7z" fill="#A7A9AC" stroke="#000" mask="url(#B)"/>
    <mask id="C" fill="#fff">
      <path d="M220.2 302.5c1.4-.8 4 1 5.7 3.9 1.7 3 2 6 .5 6.9-1.4.8-4-1-5.7-4-1.7-2.9-2-6-.5-6.8z"/>
    </mask>
    <path d="M220.2 302.5c1.4-.8 4 1 5.7 3.9 1.7 3 2 6 .5 6.9-1.4.8-4-1-5.7-4-1.7-2.9-2-6-.5-6.8z" fill="#939598" stroke="#000" mask="url(#C)"/>
    <g>
      <mask id="D" fill="#fff">
        <path d="M220.7 304.3a9.8 9.8 0 014.4 7.7c0 2.8-2 4-4.4 2.5a9.7 9.7 0 01-4.4-7.6c0-2.9 2-4 4.4-2.6z"/>
      </mask>
      <path d="M220.7 304.3a9.8 9.8 0 014.4 7.7c0 2.8-2 4-4.4 2.5a9.7 9.7 0 01-4.4-7.6c0-2.9 2-4 4.4-2.6z" fill="#939598" stroke="#000" mask="url(#D)"/>
    </g>
    <g>
      <mask id="E" fill="#fff">
        <path d="M217.4 302.4l7.2 4.2 14-14.8-7.1-4.2-14 8.1v6.7z"/>
      </mask>
      <path d="M217.4 302.4l7.2 4.2 14-14.8-7.1-4.2-14 8.1v6.7z" fill="#939598" stroke="#000" mask="url(#E)"/>
      <g>
        <mask id="F" fill="#fff">
          <path d="M224.6 306.6l14-8v-6.8l-14 8v6.8z"/>
        </mask>
        <path d="M224.6 306.6l14-8v-6.8l-14 8v6.8z" fill="#BCBEC0" stroke="#000" mask="url(#F)"/>
      </g>
    </g>
    <g>
      <mask id="G" fill="#fff">
        <path d="M209.2 307.7l.8 1.4v.6c0 3.2 2.2 7.1 5 8.7l.6.3.7 1.3 8.6-4.8c.9-.6 1.4-1.7 1.4-3.3 0-3.2-2.2-7-5-8.7-1.4-.8-2.6-.8-3.6-.3l-8.5 4.8z"/>
      </mask>
      <path d="M209.2 307.7l.8 1.4v.6c0 3.2 2.2 7.1 5 8.7l.6.3.7 1.3 8.6-4.8c.9-.6 1.4-1.7 1.4-3.3 0-3.2-2.2-7-5-8.7-1.4-.8-2.6-.8-3.6-.3l-8.5 4.8z" fill="#A7A9AC" stroke="#000" mask="url(#G)"/>
      <g>
        <mask id="H" fill="#fff">
          <path d="M212.8 308a11 11 0 015 8.8c0 3.2-2.2 4.5-5 2.9a11 11 0 01-5-8.7c0-3.2 2.2-4.5 5-3z"/>
        </mask>
        <path d="M212.8 308a11 11 0 015 8.8c0 3.2-2.2 4.5-5 2.9a11 11 0 01-5-8.7c0-3.2 2.2-4.5 5-3z" fill="#939598" stroke="#000" mask="url(#H)"/>
      </g>
    </g>
    <g>
      <mask id="I" fill="#fff">
        <path d="M198 316.6l.6 1v.4a7.8 7.8 0 004 6.3l.5 1 12-7c.6-.4 1-1.2 1-2.3 0-2.2-1.5-5-3.5-6-1-.6-1.9-.7-2.5-.3l-12 6.9z"/>
      </mask>
      <path d="M198 316.6l.6 1v.4a7.8 7.8 0 004 6.3l.5 1 12-7c.6-.4 1-1.2 1-2.3 0-2.2-1.5-5-3.5-6-1-.6-1.9-.7-2.5-.3l-12 6.9z" fill="#A7A9AC" stroke="#000" mask="url(#I)"/>
      <mask id="J" fill="#fff">
        <path d="M200.1 315.4c1.2-.7 3.2.7 4.6 3.1 1.4 2.4 1.6 4.9.4 5.5-1.1.7-3.2-.7-4.5-3-1.4-2.5-1.6-5-.5-5.6z"/>
      </mask>
      <path d="M200.1 315.4c1.2-.7 3.2.7 4.6 3.1 1.4 2.4 1.6 4.9.4 5.5-1.1.7-3.2-.7-4.5-3-1.4-2.5-1.6-5-.5-5.6z" fill="#939598" stroke="#000" mask="url(#J)"/>
      <g>
        <mask id="K" fill="#fff">
          <path d="M200.6 316.8c2 1.2 3.5 3.9 3.5 6.1 0 2.3-1.6 3.2-3.5 2a7.8 7.8 0 01-3.6-6c0-2.3 1.6-3.2 3.6-2z"/>
        </mask>
        <path d="M200.6 316.8c2 1.2 3.5 3.9 3.5 6.1 0 2.3-1.6 3.2-3.5 2a7.8 7.8 0 01-3.6-6c0-2.3 1.6-3.2 3.6-2z" fill="#939598" stroke="#000" mask="url(#K)"/>
      </g>
    </g>
    <g>
      <mask id="L" fill="#fff">
        <path d="M196.2 316.5l.6 1.1v.6c0 2.7 2 6 4.3 7.3l.5.3.6 1.1 1.9-1c.8-.5 1.3-1.5 1.3-2.8 0-2.7-2-6-4.3-7.4-1.2-.7-2.3-.7-3-.3l-2 1.1z"/>
      </mask>
      <path d="M196.2 316.5l.6 1.1v.6c0 2.7 2 6 4.3 7.3l.5.3.6 1.1 1.9-1c.8-.5 1.3-1.5 1.3-2.8 0-2.7-2-6-4.3-7.4-1.2-.7-2.3-.7-3-.3l-2 1.1z" fill="#A7A9AC" stroke="#000" mask="url(#L)"/>
      <g>
        <mask id="M" fill="#fff">
          <path d="M199.2 316.8a9.4 9.4 0 014.3 7.3c0 2.8-2 3.9-4.3 2.5a9.4 9.4 0 01-4.3-7.4c0-2.7 2-3.8 4.3-2.4z"/>
        </mask>
        <path d="M199.2 316.8a9.4 9.4 0 014.3 7.3c0 2.8-2 3.9-4.3 2.5a9.4 9.4 0 01-4.3-7.4c0-2.7 2-3.8 4.3-2.4z" fill="#939598" stroke="#000" mask="url(#M)"/>
      </g>
    </g>
    <g>
      <mask id="N" fill="#fff">
        <path d="M196 317l-.2.2-18.9 13.7 3.1 5.4 21.4-9.4.3-.1c.7-.5 1.1-1.4 1.1-2.6 0-2.5-1.8-5.6-4-6.9-1-.6-2-.7-2.8-.3z"/>
      </mask>
      <path d="M196 317l-.2.2-18.9 13.7 3.1 5.4 21.4-9.4.3-.1c.7-.5 1.1-1.4 1.1-2.6 0-2.5-1.8-5.6-4-6.9-1-.6-2-.7-2.8-.3z" fill="#A7A9AC" stroke="#000" mask="url(#N)"/>
    </g>
    <g>
      <mask id="O" fill="#fff">
        <path d="M178.5 331c1.2.8 2.2 2.5 2.2 3.9s-1 2-2.2 1.2a4.8 4.8 0 01-2.2-3.8c0-1.4 1-2 2.2-1.2z"/>
      </mask>
      <path d="M178.5 331c1.2.8 2.2 2.5 2.2 3.9s-1 2-2.2 1.2a4.8 4.8 0 01-2.2-3.8c0-1.4 1-2 2.2-1.2z" fill="#939598" stroke="#000" mask="url(#O)"/>
    </g>
    <g>
      <mask id="P" fill="#fff">
        <path d="M178.5 331.7c.9.6 1.6 1.8 1.6 2.8 0 1-.7 1.5-1.6 1a3.6 3.6 0 01-1.6-2.8c0-1 .7-1.5 1.6-1z"/>
      </mask>
      <path d="M178.5 331.7c.9.6 1.6 1.8 1.6 2.8 0 1-.7 1.5-1.6 1a3.6 3.6 0 01-1.6-2.8c0-1 .7-1.5 1.6-1z" fill="#121214" stroke="#000" mask="url(#P)"/>
    </g>
    <g>
      <mask id="Q" fill="#fff">
        <path d="M242.8 302.1l-.2.5v.2c0 1-.8 2.3-1.7 2.9h-.2l-.3.5-9.1-5.3c-.3-.2-.5-.5-.5-1 0-1.1.7-2.4 1.7-3 .4-.2.8-.2 1.1 0l9.2 5.2z"/>
      </mask>
      <path d="M242.8 302.1l-.2.5v.2c0 1-.8 2.3-1.7 2.9h-.2l-.3.5-9.1-5.3c-.3-.2-.5-.5-.5-1 0-1.1.7-2.4 1.7-3 .4-.2.8-.2 1.1 0l9.2 5.2z" fill="#A7A9AC" stroke="#000" mask="url(#Q)"/>
      <g>
        <mask id="R" fill="#fff">
          <path d="M241.6 302.2c-.9.6-1.6 1.9-1.6 3 0 1 .7 1.4 1.6.9 1-.5 1.7-1.8 1.7-2.9 0-1-.7-1.5-1.7-1z"/>
        </mask>
        <path d="M241.6 302.2c-.9.6-1.6 1.9-1.6 3 0 1 .7 1.4 1.6.9 1-.5 1.7-1.8 1.7-2.9 0-1-.7-1.5-1.7-1z" fill="#939598" stroke="#000" mask="url(#R)"/>
      </g>
      <g>
        <mask id="S" fill="#fff">
          <path d="M261.5 311.9l-.3.6v.3a5 5 0 01-2.3 3.8l-.2.2-.4.6-18-10.4c-.3-.2-.6-.7-.6-1.4 0-1.4 1-3.2 2.3-3.9.6-.3 1.1-.4 1.6-.1l17.9 10.3z"/>
        </mask>
        <path d="M261.5 311.9l-.3.6v.3a5 5 0 01-2.3 3.8l-.2.2-.4.6-18-10.4c-.3-.2-.6-.7-.6-1.4 0-1.4 1-3.2 2.3-3.9.6-.3 1.1-.4 1.6-.1l17.9 10.3z" fill="#9C251F" stroke="#000" mask="url(#S)"/>
        <g>
          <mask id="T" fill="#fff">
            <path d="M260 312a5 5 0 00-2.3 4c0 1.3 1 2 2.2 1.2a5 5 0 002.3-3.9c0-1.4-1-2-2.3-1.3z"/>
          </mask>
          <path d="M260 312a5 5 0 00-2.3 4c0 1.3 1 2 2.2 1.2a5 5 0 002.3-3.9c0-1.4-1-2-2.3-1.3z" fill="#E31B25" stroke="#000" mask="url(#T)"/>
        </g>
      </g>
    </g>
  </g>
  <g opacity=".3">
    <mask id="U" fill="#fff">
      <path d="M39.5 403c12 12.2 43.8 10.2 70.8-4.4 27.2-14.7 39.3-36.5 27.1-48.7-12-12.2-43.8-10.1-70.8 4.5-27.1 14.7-39.3 36.5-27.1 48.7z"/>
    </mask>
    <path d="M39.5 403c12 12.2 43.8 10.2 70.8-4.4 27.2-14.7 39.3-36.5 27.1-48.7-12-12.2-43.8-10.1-70.8 4.5-27.1 14.7-39.3 36.5-27.1 48.7z" fill="#121214" stroke="#000" mask="url(#U)"/>
  </g>
  <g>
    <mask id="V" fill="#fff">
      <path d="M60.2 215.2a39.4 39.4 0 00-39.4 39.3V370a39.4 39.4 0 0078.8 0V254.5a39.4 39.4 0 00-39.4-39.3z"/>
    </mask>
    <path d="M60.2 215.2a39.4 39.4 0 00-39.4 39.3V370a39.4 39.4 0 0078.8 0V254.5a39.4 39.4 0 00-39.4-39.3z" fill="#E31B25" stroke="#000" mask="url(#V)"/>
    <mask id="W" fill="#fff">
      <path d="M88.4 304c-5.8 3.3-13 5.3-20.6 6v43.6c7.6-.7 14.8-2.8 20.6-6.1 7.5-4.3 11.2-10 11.2-15.5v-43.6c0 5.7-3.7 11.3-11.2 15.6z"/>
    </mask>
    <path d="M88.4 304c-5.8 3.3-13 5.3-20.6 6v43.6c7.6-.7 14.8-2.8 20.6-6.1 7.5-4.3 11.2-10 11.2-15.5v-43.6c0 5.7-3.7 11.3-11.2 15.6z" fill="#E6DAB0" stroke="#000" mask="url(#W)"/>
    <mask id="X" fill="#fff">
      <path d="M81.8 329.2s-6.9 2.3-10.5 2.7v17.6c3.6-.3 10.5-2.7 10.5-2.7v-17.6z"/>
    </mask>
    <path d="M81.8 329.2s-6.9 2.3-10.5 2.7v17.6c3.6-.3 10.5-2.7 10.5-2.7v-17.6z" fill="#BDAF83" stroke="#000" mask="url(#X)"/>
    <mask id="Y" fill="#fff">
      <path d="M20.8 269.5c0 5.8 3.8 11.6 11.5 16a61.9 61.9 0 0055.7 0c7.8-4.3 11.6-10.1 11.6-16v-14.2c0 5.8-3.8 11.6-11.6 16a61.8 61.8 0 01-55.7 0c-7.7-4.4-11.5-10.2-11.5-16v14.2z"/>
    </mask>
    <path d="M20.8 269.5c0 5.8 3.8 11.6 11.5 16a61.9 61.9 0 0055.7 0c7.8-4.3 11.6-10.1 11.6-16v-14.2c0 5.8-3.8 11.6-11.6 16a61.8 61.8 0 01-55.7 0c-7.7-4.4-11.5-10.2-11.5-16v14.2z" fill="#303033" stroke="#000" mask="url(#Y)"/>
    <mask id="Z" fill="#fff">
      <path d="M20.8 362c0 5.9 3.8 11.7 11.5 16.1a61.9 61.9 0 0055.8 0c7.7-4.4 11.5-10.2 11.5-16v-14.3c0 5.8-3.8 11.7-11.5 16a62 62 0 01-55.8 0c-7.7-4.4-11.5-10.2-11.5-16v14.3z"/>
    </mask>
    <path d="M20.8 362c0 5.9 3.8 11.7 11.5 16.1a61.9 61.9 0 0055.8 0c7.7-4.4 11.5-10.2 11.5-16v-14.3c0 5.8-3.8 11.7-11.5 16a62 62 0 01-55.8 0c-7.7-4.4-11.5-10.2-11.5-16v14.3z" fill="#303033" stroke="#000" mask="url(#Z)"/>
    <g opacity=".3">
      <mask id="aa" fill="#fff">
        <path d="M49.8 230.8c5.7 3.3 15 3.3 20.8 0 5.8-3.3 5.8-8.7 0-12a23 23 0 00-20.8 0c-5.8 3.3-5.8 8.7 0 12z"/>
      </mask>
      <path d="M49.8 230.8c5.7 3.3 15 3.3 20.8 0 5.8-3.3 5.8-8.7 0-12a23 23 0 00-20.8 0c-5.8 3.3-5.8 8.7 0 12z" fill="#121214" stroke="#000" mask="url(#aa)"/>
    </g>
    <mask id="ab" fill="#fff">
      <path d="M60.2 216.4h13.3v7.6c0 2-1.3 4-4 5.4-5.1 3-13.5 3-18.7 0-2.6-1.5-4-3.4-4-5.4v-7.6h13.4z"/>
    </mask>
    <path d="M60.2 216.4h13.3v7.6c0 2-1.3 4-4 5.4-5.1 3-13.5 3-18.7 0-2.6-1.5-4-3.4-4-5.4v-7.6h13.4z" fill="#303033" stroke="#000" mask="url(#ab)"/>
    <g>
      <mask id="ac" fill="#fff">
        <path d="M50.8 221.8c5.2 3 13.6 3 18.8 0 5.2-3 5.2-7.9 0-10.9s-13.6-3-18.8 0c-5.2 3-5.2 7.9 0 10.9z"/>
      </mask>
      <path d="M50.8 221.8c5.2 3 13.6 3 18.8 0 5.2-3 5.2-7.9 0-10.9s-13.6-3-18.8 0c-5.2 3-5.2 7.9 0 10.9z" fill="#535359" stroke="#000" mask="url(#ac)"/>
    </g>
    <g>
      <mask id="ad" fill="#fff">
        <path d="M105.6 186.8l-39.3 22.8v-7.8l34.4-17.8 4.9 2.8z"/>
      </mask>
      <path d="M105.6 186.8l-39.3 22.8v-7.8l34.4-17.8 4.9 2.8z" fill="#BCBEC0" stroke="#000" mask="url(#ad)"/>
      <g>
        <mask id="ae" fill="#fff">
          <path d="M105.6 188.6l-34.3 21.7v-5.6l34.3-18v2z"/>
        </mask>
        <path d="M105.6 188.6l-34.3 21.7v-5.6l34.3-18v2z" fill="#858585" stroke="#000" mask="url(#ae)"/>
      </g>
    </g>
    <g>
      <mask id="af" fill="#fff">
        <path d="M111.1 169.1c-39.9 22.2-31.8 23.7-55.8 37.5L54 200c0-3.5 2.4-7.8 5.5-9.5l44.3-25.5 7.2 4.1z"/>
      </mask>
      <path d="M111.1 169.1c-39.9 22.2-31.8 23.7-55.8 37.5L54 200c0-3.5 2.4-7.8 5.5-9.5l44.3-25.5 7.2 4.1z" fill="#BCBEC0" stroke="#000" mask="url(#af)"/>
      <g>
        <mask id="ag" fill="#fff">
          <path d="M109.8 174.7C70 197 85.3 194.5 61.3 208.3V204c0-3.5 2.4-7.7 5.5-9.5l44.3-25.5-1.3 5.6z"/>
        </mask>
        <path d="M109.8 174.7C70 197 85.3 194.5 61.3 208.3V204c0-3.5 2.4-7.7 5.5-9.5l44.3-25.5-1.3 5.6z" fill="#858585" stroke="#000" mask="url(#ag)"/>
      </g>
    </g>
    <g>
      <mask id="ah" fill="#fff">
        <path d="M70 192.8l-11-6.4c-1-.5-2.4-.4-3.9.4-3 1.8-5.5 6-5.5 9.6V216l10.6 6 .2-17.7 3.1 1.9 6.5-13.5z"/>
      </mask>
      <path d="M70 192.8l-11-6.4c-1-.5-2.4-.4-3.9.4h0c-3 1.8-5.5 6-5.5 9.6V216l10.6 6 .2-17.7 3.1 1.9 6.5-13.5z" fill="#303033" stroke="#000" mask="url(#ah)"/>
      <mask id="ai" fill="#fff">
        <path d="M65.8 193h-.1a12 12 0 00-5.5 9.5v19.7l11-6.4V196c0-3.5-2.4-4.9-5.4-3.1z"/>
      </mask>
      <path d="M65.8 193h-.1a12 12 0 00-5.5 9.5v19.7l11-6.4V196c0-3.5-2.4-4.9-5.4-3.1z" fill="#1A1A1A" stroke="#000" mask="url(#ai)"/>
      <g>
        <mask id="aj" fill="#fff">
          <path d="M62.8 201.7c0-1.7 1.3-4 2.9-4.8 1.5-1 2.8-.2 2.8 1.6s-1.3 4-2.8 4.9c-1.6.9-2.9.1-2.9-1.7z"/>
        </mask>
        <path d="M62.8 201.7c0-1.7 1.3-4 2.9-4.8 1.5-1 2.8-.2 2.8 1.6s-1.3 4-2.8 4.9c-1.6.9-2.9.1-2.9-1.7z" fill="#000" stroke="#000" mask="url(#aj)"/>
        <mask id="ak" fill="#fff">
          <path d="M67.7 201.3l1.8-3.1-1.8-1c-.5-.3-1.1-.3-1.8 0a5.6 5.6 0 00-2.6 4.5c0 .8.3 1.4.8 1.6l1.8 1 1.8-3z"/>
        </mask>
        <path d="M67.7 201.3l1.8-3.1-1.8-1c-.5-.3-1.1-.3-1.8 0a5.6 5.6 0 00-2.6 4.5c0 .8.3 1.4.8 1.6l1.8 1 1.8-3z" fill="#BCBEC0" stroke="#000" mask="url(#ak)"/>
        <g>
          <mask id="al" fill="#fff">
            <path d="M65.1 202.7c0-1.6 1.2-3.6 2.6-4.4 1.4-.8 2.5-.1 2.5 1.5s-1.1 3.6-2.5 4.4c-1.4.8-2.6.2-2.6-1.5z"/>
          </mask>
          <path d="M65.1 202.7c0-1.6 1.2-3.6 2.6-4.4 1.4-.8 2.5-.1 2.5 1.5s-1.1 3.6-2.5 4.4c-1.4.8-2.6.2-2.6-1.5z" fill="#939598" stroke="#000" mask="url(#al)"/>
        </g>
      </g>
    </g>
    <g>
      <mask id="am" fill="#fff">
        <path d="M35.8 352.5l-.1-1-7.8-72.1H8.4l-7.7 72-.1 1.1c0 2.6 1.7 5.2 5.1 7.2 6.9 4 18 4 25 0 3.4-2 5-4.6 5-7.2z"/>
      </mask>
      <path d="M35.8 352.5v0l-.1-1-7.8-72.1H8.4l-7.7 72-.1 1.1c0 2.6 1.7 5.2 5.1 7.2 6.9 4 18 4 25 0 3.4-2 5-4.6 5-7.2z" fill="#121214" stroke="#000" mask="url(#am)"/>
      <g>
        <mask id="an" fill="#fff">
          <path d="M25 283.3c-3.7 2.2-9.9 2.2-13.7 0-3.8-2.2-3.8-5.7 0-7.9s10-2.2 13.7 0c3.8 2.2 3.8 5.7 0 8z"/>
        </mask>
        <path d="M25 283.3c-3.7 2.2-9.9 2.2-13.7 0-3.8-2.2-3.8-5.7 0-7.9s10-2.2 13.7 0c3.8 2.2 3.8 5.7 0 8z" fill="#535359" stroke="#000" mask="url(#an)"/>
      </g>
    </g>
    <g>
      <g opacity=".3">
        <mask id="ao" fill="#fff">
          <path d="M14.2 281.3a8.8 8.8 0 008 0c2.2-1.3 2.2-3.3 0-4.6a8.8 8.8 0 00-8 0c-2.2 1.3-2.2 3.4 0 4.6z"/>
        </mask>
        <path d="M14.2 281.3a8.8 8.8 0 008 0c2.2-1.3 2.2-3.3 0-4.6a8.8 8.8 0 00-8 0c-2.2 1.3-2.2 3.4 0 4.6z" fill="#121214" stroke="#000" mask="url(#ao)"/>
      </g>
      <mask id="ap" fill="#fff">
        <path d="M18.2 275.8h5v2.9c0 .8-.4 1.5-1.4 2a8 8 0 01-7.2 0c-1-.5-1.5-1.2-1.5-2v-3h5z"/>
      </mask>
      <path d="M18.2 275.8h5v2.9c0 .8-.4 1.5-1.4 2a8 8 0 01-7.2 0c-1-.5-1.5-1.2-1.5-2v-3h5z" fill="#121214" stroke="#000" mask="url(#ap)"/>
      <mask id="aq" fill="#fff">
        <path d="M14.6 277.9a8 8 0 007.2 0c2-1.2 2-3 0-4.2a8 8 0 00-7.2 0c-2 1.2-2 3 0 4.2z"/>
      </mask>
      <path d="M14.6 277.9a8 8 0 007.2 0c2-1.2 2-3 0-4.2a8 8 0 00-7.2 0c-2 1.2-2 3 0 4.2z" fill="#535359" stroke="#000" mask="url(#aq)"/>
      <g>
        <mask id="ar" fill="#fff">
          <path d="M15.9 276.8a5 5 0 004.5 0c1.3-.7 1.3-2 0-2.6a5 5 0 00-4.5 0c-1.3.7-1.3 1.9 0 2.6z"/>
        </mask>
        <path d="M15.9 276.8a5 5 0 004.5 0c1.3-.7 1.3-2 0-2.6a5 5 0 00-4.5 0c-1.3.7-1.3 1.9 0 2.6z" fill="#121214" stroke="#000" mask="url(#ar)"/>
      </g>
    </g>
    <g>
      <mask id="as" fill="#fff">
        <path d="M59.4 209.2c0-3-2-6.6-4.7-8-2.5-1.5-4.6-.3-4.6 2.7s2 6.5 4.6 8c2.6 1.5 4.7.3 4.7-2.7z"/>
      </mask>
      <path d="M59.4 209.2c0-3-2-6.6-4.7-8-2.5-1.5-4.6-.3-4.6 2.7s2 6.5 4.6 8c2.6 1.5 4.7.3 4.7-2.7z" fill="#000" stroke="#000" mask="url(#as)"/>
      <mask id="at" fill="#fff">
        <path d="M51.4 208.4l-3-5.1 3-1.7c.8-.5 1.9-.4 3 .3a9.2 9.2 0 014.2 7.2c0 1.4-.4 2.3-1.2 2.7l-3 1.8-3-5.2z"/>
      </mask>
      <path d="M51.4 208.4l-3-5.1 3-1.7c.8-.5 1.9-.4 3 .3a9.2 9.2 0 014.2 7.2c0 1.4-.4 2.3-1.2 2.7l-3 1.8-3-5.2z" fill="#1A1A1A" stroke="#000" mask="url(#at)"/>
      <g>
        <mask id="au" fill="#fff">
          <path d="M55.7 210.8c0-2.6-2-5.9-4.3-7.2-2.3-1.4-4.2-.3-4.2 2.4 0 2.7 2 6 4.2 7.3 2.4 1.3 4.3.2 4.3-2.5z"/>
        </mask>
        <path d="M55.7 210.8c0-2.6-2-5.9-4.3-7.2-2.3-1.4-4.2-.3-4.2 2.4 0 2.7 2 6 4.2 7.3 2.4 1.3 4.3.2 4.3-2.5z" fill="#303033" stroke="#000" mask="url(#au)"/>
      </g>
      <g>
        <mask id="av" fill="#fff">
          <path d="M54 209.9c0-1.6-1.1-3.6-2.6-4.4-1.4-.8-2.5-.2-2.5 1.5 0 1.6 1.1 3.6 2.5 4.4 1.5.8 2.6.1 2.6-1.5z"/>
        </mask>
        <path d="M54 209.9c0-1.6-1.1-3.6-2.6-4.4-1.4-.8-2.5-.2-2.5 1.5 0 1.6 1.1 3.6 2.5 4.4 1.5.8 2.6.1 2.6-1.5z" fill="#000" stroke="#000" mask="url(#av)"/>
      </g>
    </g>
    <g>
      <mask id="aw" fill="#fff">
        <path d="M18.2 277a3 3 0 01-.5 0c-1.8-.3-3-1.5-2.7-3.3.3-1.8 7-44.1 33.6-67.2 1.4-1.2 3-.7 4.2.7 1.2 1.3 1.4 3 0 4.2-24.9 21.5-31.4 62.9-31.4 63.3-.3 1.6-1.7 2.3-3.2 2.3z"/>
      </mask>
      <path d="M18.2 277a3 3 0 01-.5 0c-1.8-.3-3-1.5-2.7-3.3.3-1.8 7-44.1 33.6-67.2 1.4-1.2 3-.7 4.2.7 1.2 1.3 1.4 3 0 4.2-24.9 21.5-31.4 62.9-31.4 63.3-.3 1.6-1.7 2.3-3.2 2.3z" fill="#BCBEC0" stroke="#000" mask="url(#aw)"/>
    </g>
  </g>
</svg>
