<svg xmlns="http://www.w3.org/2000/svg" width="163" height="96" fill="none">
    <style><![CDATA[.B{fill:#fff}.C{fill:#1d1d1b}.D{fill-rule:evenodd}.E{fill:#fdc300}]]></style>
    <path d="M5.543 61.14l.1-18.788 15.412.1-.1 18.788-3.77-.018.1-15.164-7.874-.04-.1 15.164-3.767-.032zM30.62 42.528c.9-.064 1.82.067 2.675.384a6.4 6.4 0 0 1 2.278 1.453 6.2 6.2 0 0 1 1.642 4.408 5.94 5.94 0 0 1-.425 2.358c-.3.748-.748 1.43-1.318 2a7.05 7.05 0 0 1-5.206 1.701l-2.9-.02-.035 6.5-3.767-.032.13-18.814 6.936.072zm-.168 8.9a2.66 2.66 0 0 0 1.124-.116 2.67 2.67 0 0 0 .975-.572c.28-.258.502-.573.65-.924a2.68 2.68 0 0 0 .21-1.11 2.58 2.58 0 0 0-2.73-2.684L27.452 46l-.027 5.414 3.028.014zm47.175 13.948l.026-3.812-18.324-.098.126-18.8 3.784.02-.1 15.164 4.366.025.1-15.164 3.784.02-.1 15.164 4.397.016.086-15.15 3.784.02-.086 15.15 1.963.023-.05 7.45-3.767-.032zm5.425-3.774l.112-18.802 12.747.084-.028 3.506-8.95-.047-.022 4.03 8.293.058-.028 3.506-8.282-.04-.028 4.22 8.95.047-.014 3.508-12.75-.07z" class="C"/>
    <path d="M9.03 63.264l.945.012-.045 6.067-.947.002.01-2.052c-.434.167-.894.256-1.36.262a1.88 1.88 0 0 1-2.037-1.254c-.093-.274-.122-.566-.084-.853l.008-2.198.947-.002-.014 1.993a1.43 1.43 0 0 0 .307 1.032 1.29 1.29 0 0 0 .921.299 3.64 3.64 0 0 0 1.338-.309l.01-3zm1.957 6.04l.037-6.025 3.843.017-.002.888-2.912-.007-.006 1.63 2.693.01-.005.902-2.7-.025-.008 1.718 2.9.022-.002.888-3.857-.02zm4.613.027l.037-6.025.5.006 2.5 3.705 2.536-3.674.526-.006-.037 6.025-.947.002.034-3.855-1.98 2.858-.3-.01-1.937-2.874-.02 3.857-.93-.01zm13.517-1.655c.001.227-.044.452-.132.66s-.218.398-.382.556a1.87 1.87 0 0 1-.635.394 1.86 1.86 0 0 1-.739.112l-2.575-.02.047-6.08 2.46.012c.225-.01.45.025.66.104s.404.2.567.353a1.42 1.42 0 0 1 .326.483 1.46 1.46 0 0 1 .107.573 1.29 1.29 0 0 1-.835 1.304 1.52 1.52 0 0 1 1.17 1.569l-.04-.022zm-3.453-3.428l-.022 1.555h1.355a.82.82 0 0 0 .334-.034c.108-.034.207-.1.292-.166a.82.82 0 0 0 .201-.269c.048-.103.073-.214.075-.328a.76.76 0 0 0-.853-.753l-1.383-.005zm1.43 4.297a.97.97 0 0 0 .432-.013.98.98 0 0 0 .384-.198.97.97 0 0 0 .346-.769.99.99 0 0 0-.106-.42c-.066-.13-.16-.243-.277-.332a.98.98 0 0 0-.393-.18.97.97 0 0 0-.432.008l-1.456-.004.046 1.902 1.456.004zm4.92-3.02a1.98 1.98 0 0 1 1.589 3.349 1.99 1.99 0 0 1-1.557.546l-2.198-.008.034-6 .933-.004-.01 2.125 1.2.002zm-.087 3.03a1.06 1.06 0 0 0 1.247-1.083c.006-.153-.022-.305-.08-.445a1.06 1.06 0 0 0-.262-.37c-.112-.103-.247-.18-.393-.224s-.3-.058-.45-.037l-1.223-.005-.003 2.17 1.166-.005zm3.034-5.128l.947-.002-.037 6.025-.945-.012.034-6zm8.334 5.178l.596.007-.007 2.1-.945-.012-.005-1.166-3.638-.023-.005 1.223-.933.004.007-2.1h.48a5.03 5.03 0 0 0 .469-1.211c.178-.74.315-1.487.4-2.242l.22-1.68 3.4.022-.04 5.077zm-.93-.01l.06-4.23-1.617-.004-.075.4c-.112 1.305-.386 2.6-.816 3.828l2.448-.005zm1.93.848l.144-.8a1.31 1.31 0 0 0 .508.093.96.96 0 0 0 .725-.377 5.05 5.05 0 0 0 .517-.838l-1.923-4.066 1.1.01 1.338 3.042 1.282-3.03 1.063.005-.642 1.442-1.384 2.952c-.2.427-.444.823-.753 1.174a1.61 1.61 0 0 1-.552.392c-.2.1-.436.134-.665.13-.237.016-.474-.027-.7-.126m5.01.078l.037-6.025.523.008 2.5 3.705 2.536-3.674.523.008-.034 6-.947.002.034-3.855-1.993 2.856-.276-.007-1.937-2.874-.034 3.855-.93-.01zm10.914.07l-.546-1.557-2.212-.01-.574 1.47-1.02.003 2.415-5.882.613-.005 2.336 6.036-1-.053zm-1.646-4.467l-.835 2.178 1.63.006-.796-2.185zm3.13 4.476l.037-6.025 3.843.017-.002.888-2.9-.022-.01 1.645 2.693.01-.005.902-2.7-.025-.008 1.718 2.9.022v.888l-3.857-.02zm5.982-5.07l-1.76-.015.007-.917 4.48.032-.007.917-1.76-.015-.03 5.108h-.96l.03-5.108zm3.172 5.125l.023-6.027 3.857.02-.002.888-2.912-.007-.006 1.63 2.7.025-.002.888-2.705-.028-.008 1.718 2.924.024-.016.886-3.843-.017z" fill="#575756"/>
    <g class="D">
        <path d="M38.254 50.667c.26-1.945 1.1-3.77 2.387-5.242s3-2.528 4.898-3.032 3.9-.434 5.757.202a9.92 9.92 0 0 1 4.674 3.367c1.2 1.56 1.89 3.438 2.014 5.397a9.92 9.92 0 0 1-5.543 9.529c-1.763.862-3.742 1.18-5.687.918-2.603-.353-4.96-1.723-6.553-3.812a9.92 9.92 0 0 1-1.946-7.327z" class="C"/>
        <path d="M41.227 51.064a6.91 6.91 0 0 1 5.091-5.761 6.91 6.91 0 0 1 4.015.153c1.294.448 2.425 1.27 3.25 2.36s1.308 2.404 1.387 3.77-.25 2.726-.946 3.904a6.91 6.91 0 0 1-6.929 3.33 6.92 6.92 0 0 1-5.867-7.758z" class="B"/>
        <path d="M43.258 53.257a3.61 3.61 0 0 1 2.654-3.008 3.61 3.61 0 0 1 3.795 1.299 3.61 3.61 0 0 1 .255 4.003 3.61 3.61 0 0 1-3.6 1.769c-.472-.06-.927-.214-1.338-.452s-.773-.554-1.06-.932-.5-.81-.62-1.27-.15-.94-.084-1.4z" class="E"/>
    </g>
    <path d="M45.525 55.768a.23.23 0 0 1 .075.305c-.035.05-.087.084-.146.098s-.12.005-.174-.025c-.457-.296-.82-.716-1.046-1.21-.238-.493-.32-1.047-.235-1.587.003-.028.012-.055.026-.08s.032-.046.054-.064.048-.03.075-.038.056-.01.084-.007c.06.01.112.042.15.09s.056.106.052.166c-.068.448-.007.906.175 1.32s.478.77.854 1.023" class="B"/>
    <g class="D">
        <path d="M97.392 66.523c2.79 5.55 7.165 10.15 12.57 13.215s11.597 4.458 17.794 4.004 12.12-2.736 17.02-6.557a31.41 31.41 0 0 0 10.508-14.907c1.952-5.9 2.1-12.244.456-18.233a31.42 31.42 0 0 0-9.752-15.413c-4.703-4.06-10.505-6.635-16.67-7.398s-12.42.32-17.972 3.11c-7.437 3.75-13.083 10.295-15.7 18.203s-1.988 16.53 1.747 23.975z" class="C"/>
        <path d="M101.004 64.69c2.425 4.83 6.23 8.833 10.93 11.502s10.087 3.884 15.478 3.492a27.33 27.33 0 0 0 14.809-5.695c4.264-3.32 7.448-7.832 9.15-12.963a27.33 27.33 0 0 0-8.067-29.275A27.33 27.33 0 0 0 113.168 28a27.37 27.37 0 0 0-12.178 36.689" class="B"/>
        <path d="M147.27 50.837a12.5 12.5 0 0 0 .62-7.23 12.49 12.49 0 0 0-3.502-6.356c-1.77-1.726-4.012-2.888-6.442-3.34a12.5 12.5 0 0 0-12.761 5.479c-1.347 2.073-2.048 4.5-2.016 6.97a12.49 12.49 0 0 0 2.197 6.916c1.4 2.037 3.373 3.613 5.67 4.53 3.078 1.22 6.513 1.17 9.556-.135a12.53 12.53 0 0 0 6.679-6.835z" class="E"/>
    </g>
    <path d="M129.558 51.93c.142.15.22.35.215.557a.78.78 0 0 1-1.344.519 9.91 9.91 0 0 1-2.52-4.94c-.353-1.853-.17-3.768.526-5.52a.78.78 0 0 1 .163-.258.77.77 0 0 1 .251-.175c.094-.04.196-.063.298-.064a.78.78 0 0 1 .301.056.76.76 0 0 1 .257.163c.074.07.132.157.172.25a.76.76 0 0 1 .06.298.73.73 0 0 1-.062.298c-.583 1.48-.736 3.092-.442 4.654a8.32 8.32 0 0 0 2.156 4.152m5.237 2.588a.7.7 0 0 1 .3.1.78.78 0 0 1 .373.463.79.79 0 0 1 .026.302.75.75 0 0 1-.084.289.76.76 0 0 1-.456.376.76.76 0 0 1-.3.027c-.475-.056-.946-.142-1.4-.257a8.98 8.98 0 0 1-1.376-.441 9.28 9.28 0 0 1-1.244-.606.78.78 0 0 1-.464-.463.77.77 0 0 1 .058-.653.78.78 0 0 1 .228-.247c.093-.065.2-.108.3-.127a.77.77 0 0 1 .335.016.78.78 0 0 1 .297.157 7.29 7.29 0 0 0 1.057.514 8.26 8.26 0 0 0 1.116.35 6.6 6.6 0 0 0 1.17.214" class="B"/>
    <path d="M5.543 61.14l.112-18.802 15.412.1-.112 18.802-3.767-.032.086-15.15-7.874-.04-.086 15.15-3.77-.018zM30.62 42.528c.9-.064 1.82.067 2.675.384a6.4 6.4 0 0 1 2.278 1.453 6.23 6.23 0 0 1 1.642 4.408 5.99 5.99 0 0 1-.426 2.364c-.3.75-.75 1.434-1.32 2.008a7.17 7.17 0 0 1-5.203 1.687l-2.912-.007-.032 6.477-3.77-.018.13-18.828 6.936.072zm-.17 8.914a2.68 2.68 0 0 0 2.962-2.737 2.58 2.58 0 0 0-2.73-2.684l-3.23-.02-.027 5.414 3.025.028zm47.178 13.934l.026-3.812-18.32-.112.124-18.785 3.784.02-.086 15.15 4.366.025.086-15.15 3.784.02-.086 15.15 4.394.03.1-15.164 3.784.02-.1 15.164 1.965.01-.05 7.45-3.77-.018zm5.426-3.788l.1-18.788 12.75.07-.028 3.506-8.95-.047-.025 4.045 8.296.044-.028 3.506-8.282-.04-.028 4.22 8.95.047-.014 3.508-12.75-.07z" class="C"/>
    <path d="M9.03 63.264l.947-.002-.047 6.08-.945-.012.01-2.052a3.64 3.64 0 0 1-1.359.262 1.88 1.88 0 0 1-1.578-.522 1.9 1.9 0 0 1-.456-.722 1.87 1.87 0 0 1-.09-.85l.01-2.212.945.012-.012 1.98a1.43 1.43 0 0 0 .307 1.032 1.22 1.22 0 0 0 .919.313 3.94 3.94 0 0 0 1.339-.309l.01-3zM11 69.3l.037-6.025 3.84.03-.002.888-2.9-.02-.01 1.645 2.693.01-.002.888-2.693-.01-.008 1.718 2.9.022v.874h-3.857zm4.612.026l.037-6.025.5.006 2.5 3.705 2.536-3.674.523.008-.037 6.025-.945-.012.034-3.855-1.98 2.858-.3-.01-1.937-2.874-.02 3.857-.93-.01zM29.12 67.66a1.65 1.65 0 0 1-.514 1.217c-.18.176-.397.312-.634.4a1.8 1.8 0 0 1-.74.108l-2.575-.02.044-6.067 2.457.026a1.56 1.56 0 0 1 .664.094 1.58 1.58 0 0 1 .564.364 1.43 1.43 0 0 1 .436 1.041 1.29 1.29 0 0 1-.823 1.234 1.52 1.52 0 0 1 1.17 1.569l-.05.034zm-3.443-3.484l-.022 1.555 1.352.014a.83.83 0 0 0 .906-.811c-.004-.106-.03-.2-.076-.306a.79.79 0 0 0-.778-.446l-1.383-.005zm1.42 4.353a.96.96 0 0 0 1.109-.973.96.96 0 0 0-1.157-.915l-1.454-.018.046 1.902 1.456.004zm4.918-3.005a1.98 1.98 0 0 1 1.589 3.349 2.02 2.02 0 0 1-1.554.532l-2.2.006.037-6.025.93.01-.01 2.125 1.2.002zm-.087 3.03c.815.003 1.246-.443 1.247-1.084a1.06 1.06 0 0 0-1.185-1.091l-1.223-.005-.003 2.17 1.164.01zm3.037-5.142l.945.012-.034 6-.947.002.037-6.025zM43.3 68.6l.596.007-.007 2.1-.945-.012-.008-1.152-3.64-.01-.005 1.223-.93-.01.007-2.1h.48a5.03 5.03 0 0 0 .466-1.197c.18-.744.317-1.497.412-2.256l.217-1.665 3.393.008L43.3 68.6zm-.933.004l.06-4.243-1.616-.004-.077.423a15.94 15.94 0 0 1-.818 3.842l2.45-.02zm1.93.824l.144-.8a1.31 1.31 0 0 0 .508.093.92.92 0 0 0 .407-.104c.127-.066.235-.16.318-.274a5.01 5.01 0 0 0 .515-.824l-1.92-4.08 1.1.01 1.336 3.056 1.284-3.043 1.063.005-.642 1.442-1.387 2.966a4.54 4.54 0 0 1-.75 1.16 1.57 1.57 0 0 1-.55.396 1.56 1.56 0 0 1-.666.125 1.29 1.29 0 0 1-.691-.126m5.01.08l.034-6 .526-.006 2.5 3.705 2.536-3.674.523.008-.037 6.025-.945-.012.034-3.855-1.993 2.856-.278.007-1.935-2.888-.034 3.855-.93-.01zm10.913.07l-.546-1.557-2.212-.01-.577 1.483-1.018-.01 2.412-5.868.6.01 2.336 6.035-1.005-.082zm-1.633-4.538l-.835 2.178 1.63.006-.796-2.185zm3.118 4.546l.037-6.025 3.84.03-.002.888-2.9-.022-.01 1.645 2.693.01-.002.888-2.693-.01-.008 1.718 2.912.007-.002.888-3.857-.02zm5.98-5.07l-1.76-.015.007-.917 4.48.032-.007.917-1.76-.015-.03 5.108-.96-.001.03-5.108zm3.172 5.125l.023-6.027 3.854.034-.002.888-2.9-.02-.01 1.645 2.693.01-.002.888-2.707-.014-.008 1.718 2.927.01-.016.886-3.843-.017z" fill="#575756"/>
    <g class="D">
        <path d="M38.254 50.667c.26-1.945 1.1-3.77 2.387-5.242s3-2.528 4.898-3.032 3.9-.434 5.757.202a9.92 9.92 0 0 1 4.674 3.367c1.2 1.56 1.89 3.438 2.014 5.397a9.92 9.92 0 0 1-5.543 9.529c-1.763.862-3.742 1.18-5.687.918-1.3-.173-2.533-.598-3.658-1.25s-2.1-1.522-2.9-2.556-1.367-2.214-1.7-3.472-.415-2.57-.24-3.858z" class="C"/>
        <path d="M41.226 51.064c.18-1.358.76-2.63 1.664-3.66s2.095-1.763 3.42-2.113 2.722-.3 4.017.147 2.427 1.267 3.255 2.358a6.91 6.91 0 0 1 .447 7.678 6.91 6.91 0 0 1-6.931 3.333 6.92 6.92 0 0 1-5.87-7.744z" class="B"/>
        <path d="M45.227 46.55c.606-.214 1.263-.244 1.886-.085s1.186.5 1.616.977.71 1.073.8 1.7-.007 1.286-.284 1.867-.72 1.066-1.273 1.395-1.19.486-1.833.453-1.26-.257-1.776-.642-.905-.914-1.12-1.52c-.143-.403-.205-.83-.182-1.257s.13-.845.313-1.23a3.25 3.25 0 0 1 .76-1.017c.318-.286.69-.506 1.092-.65z" class="E"/>
    </g>
    <path d="M44.144 49.368c-.001.026-.007.05-.018.075s-.027.044-.046.06-.042.03-.067.037-.05.01-.076.007a.2.2 0 0 1-.098-.013c-.03-.012-.058-.032-.08-.058s-.036-.056-.043-.09a.2.2 0 0 1 .005-.098c.048-.495.235-.965.54-1.358a2.58 2.58 0 0 1 1.172-.835c.052-.018.11-.015.16.008s.09.064.1.114.01.11-.014.16-.07.088-.122.106a2.12 2.12 0 0 0-.986.694 2.25 2.25 0 0 0-.453 1.126" class="B"/>
    <g class="D">
        <path d="M97.39 66.523c2.793 5.55 7.168 10.146 12.573 13.21s11.597 4.455 17.793 4 12.117-2.738 17.016-6.56 8.555-9.008 10.506-14.906 2.11-12.242.454-18.23-5.047-11.352-9.75-15.412-10.502-6.635-16.667-7.4-12.42.317-17.97 3.107c-7.426 3.765-13.06 10.315-15.675 18.22a31.53 31.53 0 0 0 1.719 23.972z" class="C"/>
        <path d="M101.007 64.677c2.424 4.832 6.226 8.837 10.927 11.508s10.086 3.888 15.478 3.497a27.33 27.33 0 0 0 14.813-5.693 27.34 27.34 0 0 0 9.152-12.964 27.33 27.33 0 0 0 .406-15.864c-1.436-5.212-4.386-9.88-8.476-13.415A27.33 27.33 0 0 0 113.168 28 27.39 27.39 0 0 0 99.51 43.824c-2.282 6.873-1.75 14.37 1.483 20.85" class="B"/>
        <path d="M116.323 56.272a12.5 12.5 0 0 0 12.745-5.491c1.344-2.072 2.043-4.496 2.01-6.966s-.797-4.874-2.196-6.9a12.49 12.49 0 0 0-5.662-4.528c-2.293-.917-4.807-1.133-7.223-.623s-4.628 1.726-6.354 3.493a12.5 12.5 0 0 0-3.345 6.432 12.53 12.53 0 0 0 1.98 9.353c1.87 2.733 4.748 4.615 8.002 5.232" class="E"/>
    </g>
    <path d="M111.84 39.107a.79.79 0 0 1-1.096.179.79.79 0 0 1-.208-.22.78.78 0 0 1-.108-.283.77.77 0 0 1 .01-.303.76.76 0 0 1 .125-.276c1.087-1.548 2.598-2.75 4.35-3.464a9.86 9.86 0 0 1 5.533-.559.78.78 0 0 1 .498.32.77.77 0 0 1 .124.579.79.79 0 0 1-.914.62c-1.56-.288-3.17-.127-4.644.463a8.3 8.3 0 0 0-3.66 2.886m-1.54 5.72a.77.77 0 0 1-.228.443.78.78 0 0 1-.939.104.77.77 0 0 1-.32-.382 9.49 9.49 0 0 1-.025-1.46 9.25 9.25 0 0 1 .159-1.428 9.14 9.14 0 0 1 .371-1.389.77.77 0 0 1 .392-.445.78.78 0 0 1 .592-.038.77.77 0 0 1 .445.392.78.78 0 0 1 .038.592c-.126.367-.224.744-.293 1.127a10.08 10.08 0 0 0-.211 1.156 9.58 9.58 0 0 0 .031 1.186" class="B"/>
</svg>