<svg width="333" height="306" viewBox="0 0 333 306" fill="none" xmlns="http://www.w3.org/2000/svg">
<mask id="path-1-inside-1" fill="white">
<path d="M61.1455 31.7386C61.4686 31.7386 61.7916 31.598 61.9984 31.3294C62.386 30.8562 62.2956 30.1783 61.8304 29.8074C60.3185 28.6308 61.6624 22.9651 62.7607 18.4121C64.3889 11.5442 66.0945 4.42045 62.6186 1.36378C60.577 -0.439529 57.1527 -0.452318 52.1778 1.31262C51.6093 1.53004 51.3121 2.14393 51.5059 2.70667C51.7256 3.2694 52.3458 3.55077 52.9015 3.35893C57.0106 1.88815 59.7887 1.77304 61.1584 2.98804C63.6523 5.18782 62.05 11.9662 60.6157 17.9389C59.1427 24.1417 57.8634 29.4877 60.4607 31.5212C60.6674 31.6747 60.9 31.7386 61.1455 31.7386Z"/>
</mask>
<path d="M61.1455 31.7386C61.4686 31.7386 61.7916 31.598 61.9984 31.3294C62.386 30.8562 62.2956 30.1783 61.8304 29.8074C60.3185 28.6308 61.6624 22.9651 62.7607 18.4121C64.3889 11.5442 66.0945 4.42045 62.6186 1.36378C60.577 -0.439529 57.1527 -0.452318 52.1778 1.31262C51.6093 1.53004 51.3121 2.14393 51.5059 2.70667C51.7256 3.2694 52.3458 3.55077 52.9015 3.35893C57.0106 1.88815 59.7887 1.77304 61.1584 2.98804C63.6523 5.18782 62.05 11.9662 60.6157 17.9389C59.1427 24.1417 57.8634 29.4877 60.4607 31.5212C60.6674 31.6747 60.9 31.7386 61.1455 31.7386Z" fill="#BDAF83" stroke="black" mask="url(#path-1-inside-1)"/>
<mask id="path-2-inside-2" fill="white">
<path d="M34.6305 47.2523C35.044 47.2523 35.4446 47.0221 35.6255 46.6001C35.871 46.0629 35.6255 45.4234 35.0569 45.1804C34.1524 44.784 35.5996 39.7321 36.4525 36.7138C36.6075 36.1383 36.2716 35.55 35.6901 35.3837C35.1086 35.2303 34.5013 35.5628 34.3462 36.1255C32.718 41.8552 31.5551 46.0117 34.1782 47.1628C34.3333 47.2267 34.4883 47.2523 34.6305 47.2523Z"/>
</mask>
<path d="M34.6305 47.2523C35.044 47.2523 35.4446 47.0221 35.6255 46.6001C35.871 46.0629 35.6255 45.4234 35.0569 45.1804C34.1524 44.784 35.5996 39.7321 36.4525 36.7138C36.6075 36.1383 36.2716 35.55 35.6901 35.3837C35.1086 35.2303 34.5013 35.5628 34.3462 36.1255C32.718 41.8552 31.5551 46.0117 34.1782 47.1628C34.3333 47.2267 34.4883 47.2523 34.6305 47.2523Z" fill="#BDAF83" stroke="black" mask="url(#path-2-inside-2)"/>
<mask id="path-3-inside-3" fill="white">
<path d="M85.3221 121.879L3.59253 165.376L8.21849 57.1002L89.961 10.4059L92.8555 43.5433L85.3221 121.879Z"/>
</mask>
<path d="M85.3221 121.879L3.59253 165.376L8.21849 57.1002L89.961 10.4059L92.8555 43.5433L85.3221 121.879Z" fill="#BA6000" stroke="black" mask="url(#path-3-inside-3)"/>
<mask id="path-4-inside-4" fill="white">
<path d="M59.5823 33.4397C59.5823 34.6419 60.1897 35.2814 60.9391 34.8466C61.6886 34.4245 62.2959 33.0816 62.2959 31.8794C62.2959 30.6772 61.6886 30.0505 60.9391 30.4854C60.1897 30.9202 59.5823 32.2375 59.5823 33.4397Z"/>
</mask>
<path d="M59.5823 33.4397C59.5823 34.6419 60.1897 35.2814 60.9391 34.8466C61.6886 34.4245 62.2959 33.0816 62.2959 31.8794C62.2959 30.6772 61.6886 30.0505 60.9391 30.4854C60.1897 30.9202 59.5823 32.2375 59.5823 33.4397Z" fill="#3C2415" stroke="black" mask="url(#path-4-inside-4)"/>
<mask id="path-5-inside-5" fill="white">
<path d="M33.209 48.5824C33.222 49.7846 33.8164 50.4241 34.5788 49.9893C35.3282 49.5544 35.9355 48.2243 35.9355 47.0349C35.9355 45.8327 35.3282 45.2061 34.5788 45.6409C33.8164 46.0502 33.209 47.3803 33.209 48.5824Z"/>
</mask>
<path d="M33.209 48.5824C33.222 49.7846 33.8164 50.4241 34.5788 49.9893C35.3282 49.5544 35.9355 48.2243 35.9355 47.0349C35.9355 45.8327 35.3282 45.2061 34.5788 45.6409C33.8164 46.0502 33.209 47.3803 33.209 48.5824Z" fill="#3C2415" stroke="black" mask="url(#path-5-inside-5)"/>
<mask id="path-6-inside-6" fill="white">
<path d="M122.511 143.314L94.5224 117.799L89.961 10.4059L94.5224 20.305L114.293 23.8221L102.288 44.234L105.338 109.179L122.511 143.314Z"/>
</mask>
<path d="M122.511 143.314L94.5224 117.799L89.961 10.4059L94.5224 20.305L114.293 23.8221L102.288 44.234L105.338 109.179L122.511 143.314Z" fill="#9C251F" stroke="black" mask="url(#path-6-inside-6)"/>
<mask id="path-7-inside-7" fill="white">
<path d="M98.5931 65.375L94.5228 20.3049L114.293 23.822L107.961 54.8109L98.5931 65.375Z"/>
</mask>
<path d="M98.5931 65.375L94.5228 20.3049L114.293 23.822L107.961 54.8109L98.5931 65.375Z" fill="#E31B25" stroke="black" mask="url(#path-7-inside-7)"/>
<mask id="path-8-inside-8" fill="white">
<path d="M40.8584 189.995L26.076 174.124L1.7545e-06 166.655L19.9769 126.432L31.4514 130.217L40.8584 189.995Z"/>
</mask>
<path d="M40.8584 189.995L26.076 174.124L1.7545e-06 166.655L19.9769 126.432L31.4514 130.217L40.8584 189.995Z" fill="#FF3F4A" stroke="black" mask="url(#path-8-inside-8)"/>
<mask id="path-9-inside-9" fill="white">
<path d="M40.8587 189.995L29.2033 163.342L25.2493 152.816L22.9492 68.1887L25.9212 59.5046L32.6405 70.4396L42.3576 85.8765L50.4854 172.167L40.8587 189.995Z"/>
</mask>
<path d="M40.8587 189.995L29.2033 163.342L25.2493 152.816L22.9492 68.1887L25.9212 59.5046L32.6405 70.4396L42.3576 85.8765L50.4854 172.167L40.8587 189.995Z" fill="#9C251F" stroke="black" mask="url(#path-9-inside-9)"/>
<mask id="path-10-inside-10" fill="white">
<path d="M29.2031 163.342L0.00012161 166.655L8.21831 57.1002L25.921 59.5046L29.2031 163.342Z"/>
</mask>
<path d="M29.2031 163.342L0.00012161 166.655L8.21831 57.1002L25.921 59.5046L29.2031 163.342Z" fill="#E31B25" stroke="black" mask="url(#path-10-inside-10)"/>
<mask id="path-11-inside-11" fill="white">
<path d="M122.511 143.314L40.8586 189.995L32.6404 70.4396L114.293 23.8221L122.511 143.314Z"/>
</mask>
<path d="M122.511 143.314L40.8586 189.995L32.6404 70.4396L114.293 23.8221L122.511 143.314Z" fill="#FF9D26" stroke="black" mask="url(#path-11-inside-11)"/>
<mask id="path-12-inside-12" fill="white">
<path d="M84.7663 46.9582C84.7921 48.2115 85.5803 49.2219 86.5366 49.2091C87.4928 49.1835 88.2422 48.1476 88.2293 46.8942C88.2035 45.6409 87.4023 44.6305 86.4461 44.6433C85.4899 44.6689 84.7404 45.7048 84.7663 46.9582Z"/>
</mask>
<path d="M84.7663 46.9582C84.7921 48.2115 85.5803 49.2219 86.5366 49.2091C87.4928 49.1835 88.2422 48.1476 88.2293 46.8942C88.2035 45.6409 87.4023 44.6305 86.4461 44.6433C85.4899 44.6689 84.7404 45.7048 84.7663 46.9582Z" fill="#3C2415" stroke="black" mask="url(#path-12-inside-12)"/>
<mask id="path-13-inside-13" fill="white">
<path d="M86.6011 48.0068C86.7949 48.0068 86.9758 47.9685 87.1438 47.8662C91.2787 45.5001 90.4905 28.9761 85.7611 18.8725C81.329 9.42107 74.2221 5.8656 65.7455 8.88391C65.1769 9.10133 64.8797 9.70244 65.0865 10.278C65.3061 10.8407 65.9264 11.1221 66.482 10.9302C75.7985 7.60497 81.0318 13.923 83.7841 19.7933C88.9011 30.7027 88.1517 44.7967 86.0583 45.9989C85.5544 46.2931 85.3735 46.9581 85.6707 47.4697C85.8645 47.815 86.2392 48.0068 86.6011 48.0068Z"/>
</mask>
<path d="M86.6011 48.0068C86.7949 48.0068 86.9758 47.9685 87.1438 47.8662C91.2787 45.5001 90.4905 28.9761 85.7611 18.8725C81.329 9.42107 74.2221 5.8656 65.7455 8.88391C65.1769 9.10133 64.8797 9.70244 65.0865 10.278C65.3061 10.8407 65.9264 11.1221 66.482 10.9302C75.7985 7.60497 81.0318 13.923 83.7841 19.7933C88.9011 30.7027 88.1517 44.7967 86.0583 45.9989C85.5544 46.2931 85.3735 46.9581 85.6707 47.4697C85.8645 47.815 86.2392 48.0068 86.6011 48.0068Z" fill="#E6DAB0" stroke="black" mask="url(#path-13-inside-13)"/>
<mask id="path-14-inside-14" fill="white">
<path d="M59.2973 61.3207C59.2585 62.5868 59.9951 63.6356 60.9513 63.6611C61.9075 63.6867 62.7087 62.6891 62.7475 61.423C62.7992 60.1696 62.0497 59.1209 61.0935 59.0953C60.1372 59.0569 59.3361 60.0545 59.2973 61.3207Z"/>
</mask>
<path d="M59.2973 61.3207C59.2585 62.5868 59.9951 63.6356 60.9513 63.6611C61.9075 63.6867 62.7087 62.6891 62.7475 61.423C62.7992 60.1696 62.0497 59.1209 61.0935 59.0953C60.1372 59.0569 59.3361 60.0545 59.2973 61.3207Z" fill="#3C2415" stroke="black" mask="url(#path-14-inside-14)"/>
<mask id="path-15-inside-15" fill="white">
<path d="M61.2749 62.4718C61.5592 62.4718 61.8435 62.3823 62.0631 62.1776C63.407 60.9882 62.7351 58.1106 60.9131 51.1148C57.5793 38.2742 51.9713 16.7751 66.5341 10.9048C67.0897 10.6873 67.3611 10.0479 67.1285 9.49791C66.8959 8.94797 66.2627 8.6666 65.6942 8.9096C49.374 15.4834 55.2663 38.1335 58.7939 51.6647C59.7889 55.5016 60.9131 59.8244 60.5255 60.6685C60.0732 61.065 60.0732 61.7044 60.4738 62.1521C60.6934 62.3567 60.9777 62.4718 61.2749 62.4718Z"/>
</mask>
<path d="M61.2749 62.4718C61.5592 62.4718 61.8435 62.3823 62.0631 62.1776C63.407 60.9882 62.7351 58.1106 60.9131 51.1148C57.5793 38.2742 51.9713 16.7751 66.5341 10.9048C67.0897 10.6873 67.3611 10.0479 67.1285 9.49791C66.8959 8.94797 66.2627 8.6666 65.6942 8.9096C49.374 15.4834 55.2663 38.1335 58.7939 51.6647C59.7889 55.5016 60.9131 59.8244 60.5255 60.6685C60.0732 61.065 60.0732 61.7044 60.4738 62.1521C60.6934 62.3567 60.9777 62.4718 61.2749 62.4718Z" fill="#E6DAB0" stroke="black" mask="url(#path-15-inside-15)"/>
<mask id="path-16-inside-16" fill="white">
<path d="M35.419 37.5067C35.8971 37.5067 36.3364 37.1998 36.4786 36.7138L36.569 36.394C37.887 31.7387 39.5281 25.9451 39.9157 20.0875C40.536 10.4187 44.8518 4.80412 52.734 3.39728C53.3284 3.29497 53.729 2.73223 53.6127 2.14392C53.5093 1.54281 52.9279 1.17192 52.3464 1.26144C43.3529 2.87291 38.4297 9.15253 37.7191 19.9468C37.3443 25.587 35.742 31.2399 34.4499 35.8185L34.3594 36.1255C34.1914 36.701 34.5274 37.3021 35.1218 37.4683C35.2123 37.4939 35.3156 37.5067 35.419 37.5067Z"/>
</mask>
<path d="M35.419 37.5067C35.8971 37.5067 36.3364 37.1998 36.4786 36.7138L36.569 36.394C37.887 31.7387 39.5281 25.9451 39.9157 20.0875C40.536 10.4187 44.8518 4.80412 52.734 3.39728C53.3284 3.29497 53.729 2.73223 53.6127 2.14392C53.5093 1.54281 52.9279 1.17192 52.3464 1.26144C43.3529 2.87291 38.4297 9.15253 37.7191 19.9468C37.3443 25.587 35.742 31.2399 34.4499 35.8185L34.3594 36.1255C34.1914 36.701 34.5274 37.3021 35.1218 37.4683C35.2123 37.4939 35.3156 37.5067 35.419 37.5067Z" fill="#BDAF83" stroke="black" mask="url(#path-16-inside-16)"/>
<path d="M156.119 156.732L307.101 243.865C310.386 245.721 310.386 248.721 307.101 250.721L214.398 304.286C211.112 306.143 205.827 306.143 202.685 304.286L51.7032 217.153C48.4179 215.297 48.4179 212.297 51.7032 210.297L144.406 156.732C147.692 154.875 152.977 154.875 156.119 156.732Z" fill="#F6CA13"/>
<path d="M208.542 306C206.4 306 204.114 305.571 202.543 304.572L51.5613 217.439C49.8473 216.439 48.9902 215.154 48.9902 213.726C48.9902 212.297 49.8473 211.012 51.5613 210.012L144.264 156.447C147.55 154.59 152.978 154.447 156.406 156.447L307.387 243.579C309.101 244.579 309.958 245.864 309.958 247.293C309.958 248.721 309.101 250.007 307.387 251.007L214.542 304.572C212.97 305.429 210.685 306 208.542 306ZM150.264 155.733C148.264 155.733 146.121 156.161 144.55 157.161L51.847 210.726C50.4186 211.583 49.5616 212.726 49.5616 213.868C49.5616 215.011 50.4186 216.154 51.847 217.011L202.829 304.143C205.971 306 211.113 306 214.256 304.143L306.959 250.578C308.387 249.721 309.244 248.578 309.244 247.436C309.244 246.293 308.387 245.15 306.959 244.293L155.977 157.161C154.406 156.161 152.406 155.733 150.264 155.733Z" fill="black"/>
<path d="M107.126 208.583L119.41 198.442L133.694 204.298L121.41 214.44L117.839 213.011L127.695 204.87L120.41 201.87L110.554 210.012L107.126 208.583Z" fill="#1D1D1B"/>
<path d="M142.551 207.869C143.408 208.155 144.265 208.583 144.836 209.012C145.408 209.44 145.836 210.012 145.979 210.583C146.265 211.583 145.836 212.726 144.693 213.583C144.122 214.011 143.551 214.44 142.837 214.725C142.122 215.011 141.265 215.154 140.265 215.297C139.266 215.297 138.123 215.297 137.123 215.154C136.123 215.011 135.123 214.725 134.266 214.297L131.552 213.154L127.267 216.582L123.839 215.154L136.123 205.012L142.551 207.869ZM136.694 212.583C136.98 212.726 137.409 212.869 137.837 212.869C138.266 212.869 138.694 213.011 139.123 212.869C139.551 212.869 139.98 212.726 140.265 212.583C140.694 212.44 140.98 212.297 141.122 212.012C141.408 211.869 141.551 211.583 141.694 211.44C141.837 211.297 141.837 211.012 141.694 210.726C141.551 210.44 141.408 210.297 141.265 210.012C140.98 209.869 140.694 209.583 140.408 209.583L137.409 208.298L133.838 211.154L136.694 212.583Z" fill="#1D1D1B"/>
<path d="M171.69 237.722L174.118 235.723L157.12 228.866L169.404 218.725L172.975 220.153L163.119 228.295L167.119 229.866L176.975 221.724L180.546 223.153L170.69 231.295L174.832 233.009L184.688 224.867L188.259 226.295L178.403 234.437L180.26 235.151L175.404 239.151L171.69 237.722Z" fill="#1D1D1B"/>
<path d="M179.118 237.722L191.402 227.581L203.258 232.437L200.973 234.294L192.688 230.866L190.117 233.009L197.83 236.151L195.545 238.008L187.831 234.866L185.117 237.151L193.402 240.579L191.117 242.436L179.118 237.722Z" fill="#1D1D1B"/>
<path d="M108.984 211.011L109.841 211.44L105.842 214.725L104.985 214.439L106.27 213.297C105.699 213.154 105.27 213.154 104.842 212.868C104.556 212.725 104.271 212.725 104.128 212.44C103.985 212.297 103.842 212.154 103.699 211.868C103.699 211.725 103.699 211.44 103.699 211.297C103.842 211.154 103.985 211.011 104.128 210.868L105.556 209.726L106.413 210.011L105.128 211.011C104.842 211.154 104.699 211.44 104.699 211.726C104.842 211.868 104.985 212.154 105.413 212.297C105.842 212.44 106.413 212.583 106.842 212.583L108.984 211.011Z" fill="#575756"/>
<path d="M106.984 215.011L110.841 211.726L114.412 213.154L113.841 213.583L111.127 212.44L110.127 213.297L112.698 214.297L112.127 214.725L109.698 213.726L108.556 214.583L111.27 215.725L110.698 216.154L106.984 215.011Z" fill="#575756"/>
<path d="M111.27 216.725L115.126 213.44L115.555 213.583V216.439L120.268 215.44L120.697 215.582L116.84 218.868L115.983 218.582L118.554 216.582L114.841 217.439L114.555 217.296V215.011L111.984 217.154L111.27 216.725Z" fill="#575756"/>
<path d="M124.839 220.867C124.696 221.01 124.553 221.153 124.267 221.153C123.982 221.296 123.839 221.296 123.553 221.296C123.268 221.296 122.982 221.296 122.696 221.296C122.411 221.296 122.125 221.153 121.982 221.153L119.554 220.153L123.553 216.868L125.839 217.725C126.124 217.868 126.267 217.868 126.41 218.011C126.553 218.153 126.696 218.296 126.696 218.439C126.696 218.582 126.696 218.725 126.696 218.868C126.696 219.01 126.553 219.153 126.41 219.153C126.267 219.296 125.982 219.439 125.696 219.439C125.41 219.439 125.124 219.582 124.839 219.439C125.124 219.582 125.267 219.868 125.267 220.01C125.267 220.439 125.124 220.725 124.839 220.867ZM123.839 217.725L122.839 218.582L124.125 219.153C124.267 219.153 124.267 219.296 124.41 219.296C124.553 219.296 124.696 219.296 124.839 219.296C124.982 219.296 125.124 219.296 125.267 219.296C125.41 219.296 125.41 219.153 125.553 219.153L125.696 219.01V218.868L125.553 218.725C125.41 218.725 125.41 218.582 125.267 218.582L123.839 217.725ZM122.411 220.582C122.553 220.582 122.696 220.725 122.839 220.725C122.982 220.725 123.125 220.725 123.268 220.725C123.41 220.725 123.553 220.725 123.696 220.582C123.839 220.439 123.982 220.439 123.982 220.439C124.125 220.296 124.125 220.296 124.125 220.153C124.125 220.01 124.125 220.01 124.125 219.868C124.125 219.725 123.982 219.725 123.839 219.582C123.696 219.582 123.553 219.439 123.41 219.439L122.125 218.868L120.982 219.868L122.411 220.582Z" fill="#575756"/>
<path d="M128.981 220.724C129.41 220.867 129.695 221.01 129.838 221.296C129.981 221.582 130.124 221.867 129.981 222.01C129.838 222.296 129.695 222.581 129.41 222.724C129.124 222.867 128.695 223.01 128.267 223.153C127.981 223.153 127.553 223.153 127.267 223.153C126.981 223.153 126.696 223.01 126.41 222.867L124.41 222.01L128.267 218.725L129.124 219.01L127.695 220.153L128.981 220.724ZM126.981 222.439C127.124 222.581 127.267 222.581 127.41 222.581C127.553 222.581 127.695 222.581 127.981 222.581C128.124 222.581 128.267 222.581 128.553 222.439C128.695 222.439 128.838 222.296 128.981 222.153C129.124 222.01 129.124 222.01 129.124 221.867C129.124 221.724 129.124 221.724 129.124 221.581C129.124 221.439 128.981 221.439 128.838 221.296C128.695 221.153 128.553 221.153 128.41 221.153L127.267 220.724L125.839 221.867L126.981 222.439ZM133.123 220.724L133.98 221.01L130.124 224.295L129.267 223.867L133.123 220.724Z" fill="#575756"/>
<path d="M137.551 226.581L138.123 226.867L136.694 228.009L135.837 227.581L136.551 227.01L133.123 225.581L132.266 226.295L131.409 226.01L132.838 224.867L133.266 225.01C133.695 224.867 134.123 224.724 134.552 224.581C135.266 224.296 135.837 223.867 136.409 223.581L137.694 222.724L140.837 224.01L137.551 226.581ZM136.694 226.295L139.408 224.01L137.837 223.439L137.551 223.581C136.551 224.296 135.552 224.867 134.266 225.296L136.694 226.295Z" fill="#575756"/>
<path d="M137.98 227.438L138.552 227.01C138.695 227.153 138.838 227.153 138.98 227.295C139.123 227.295 139.266 227.438 139.409 227.438C139.552 227.438 139.695 227.438 139.837 227.438C140.123 227.438 140.552 227.295 140.837 227.153L141.694 224.296L142.694 224.724L141.98 226.867L145.122 225.724L146.122 226.153L144.551 226.724C143.266 227.153 142.266 227.581 141.409 227.867C140.98 228.01 140.409 228.152 139.98 228.152C139.695 228.152 139.409 228.152 139.266 228.152C138.98 228.152 138.837 228.01 138.552 228.01C138.266 227.724 138.123 227.581 137.98 227.438Z" fill="#575756"/>
<path d="M142.551 229.438L146.407 226.152L146.836 226.295V229.152L151.55 228.152L151.978 228.295L148.122 231.58L147.264 231.295L149.836 229.295L146.122 230.152L145.836 230.009V227.724L143.265 229.723L142.551 229.438Z" fill="#575756"/>
<path d="M152.693 233.437L153.121 232.437L151.122 231.58L149.693 232.152L148.693 231.723L154.693 229.438L155.264 229.723L153.55 233.866L152.693 233.437ZM154.121 230.438L151.979 231.295L153.55 231.866L154.121 230.438Z" fill="#575756"/>
<path d="M154.122 234.009L157.979 230.724L161.55 232.152L160.978 232.581L158.264 231.438L157.265 232.295L159.836 233.295L159.264 233.723L156.836 232.723L155.693 233.58L158.407 234.723L157.836 235.152L154.122 234.009Z" fill="#575756"/>
<path d="M162.977 233.58L161.406 232.866L161.978 232.438L166.12 234.152L165.549 234.58L163.977 233.866L160.692 236.58L159.835 236.151L162.977 233.58Z" fill="#575756"/>
<path d="M162.547 237.437L166.404 234.152L169.975 235.58L169.403 236.009L166.689 234.866L165.689 235.723L168.118 236.723L167.546 237.151L164.975 236.151L163.832 237.008L166.546 238.151L165.975 238.58L162.547 237.437Z" fill="#575756"/>
<path fill-rule="evenodd" clip-rule="evenodd" d="M144.408 215.154C145.837 214.154 147.836 213.583 149.979 213.154C152.122 212.869 154.407 212.869 156.55 213.297C158.692 213.726 160.406 214.583 161.835 215.583C163.12 216.582 163.977 217.868 163.977 219.154C164.12 220.439 163.549 221.725 162.406 222.867C161.263 224.01 159.549 224.867 157.55 225.438C155.55 226.01 153.264 226.153 151.122 226.01C148.979 225.867 146.837 225.296 145.265 224.439C143.123 223.296 141.694 221.725 141.552 220.011C141.409 218.011 142.409 216.44 144.408 215.154Z" fill="#1D1D1B"/>
<path fill-rule="evenodd" clip-rule="evenodd" d="M146.978 216.439C147.978 215.725 149.406 215.297 150.834 215.154C152.406 215.011 153.977 215.011 155.405 215.297C156.834 215.582 158.119 216.154 159.119 216.868C159.976 217.582 160.547 218.439 160.69 219.296C160.69 220.153 160.405 221.01 159.548 221.867C158.691 222.581 157.548 223.296 156.119 223.581C154.691 224.01 153.12 224.153 151.549 224.01C149.977 223.867 148.549 223.439 147.406 222.867C145.835 222.01 144.978 220.867 144.978 219.725C144.835 218.439 145.549 217.296 146.978 216.439Z" fill="white"/>
<path fill-rule="evenodd" clip-rule="evenodd" d="M147.407 218.296C147.978 218.011 148.693 217.725 149.407 217.582C150.121 217.439 150.978 217.439 151.835 217.582C152.549 217.725 153.264 218.011 153.692 218.439C154.121 218.868 154.406 219.296 154.549 219.725C154.549 220.153 154.406 220.725 153.978 221.01C153.549 221.439 152.978 221.724 152.264 221.867C151.549 222.01 150.692 222.153 149.978 222.01C149.121 222.01 148.407 221.724 147.836 221.439C147.407 221.296 147.121 221.01 146.836 220.725C146.55 220.439 146.407 220.153 146.407 219.867C146.407 219.582 146.407 219.296 146.693 219.01C146.693 218.868 146.979 218.582 147.407 218.296Z" fill="#FDC300"/>
<path d="M147.836 220.582C147.979 220.582 147.979 220.582 147.836 220.582C147.836 220.725 147.836 220.725 147.693 220.725H147.55C147.55 220.725 147.408 220.725 147.408 220.582C147.122 220.296 147.122 219.868 147.265 219.582C147.408 219.296 147.693 218.868 148.122 218.582C148.122 218.582 148.122 218.582 148.265 218.582C148.407 218.582 148.265 218.582 148.407 218.582C148.407 218.582 148.407 218.582 148.55 218.582C148.693 218.582 148.55 218.582 148.693 218.582C148.693 218.582 148.836 218.582 148.836 218.725V218.868C148.55 219.154 148.265 219.296 148.122 219.582C147.55 220.011 147.693 220.296 147.836 220.582Z" fill="white"/>
<path fill-rule="evenodd" clip-rule="evenodd" d="M189.402 245.722C188.403 249.721 189.545 253.863 192.545 257.577C195.545 261.291 200.544 264.291 206.543 266.29C212.685 268.29 219.542 269.29 226.684 269.147C233.683 268.862 240.539 267.433 246.11 265.005C251.681 262.577 255.966 259.149 258.251 255.292C260.537 251.435 260.822 247.293 259.108 243.293C257.394 239.294 253.538 235.866 248.395 233.152C243.11 230.438 236.54 228.724 229.683 228.152C220.399 227.438 210.828 228.866 203.258 232.152C195.687 235.437 190.688 240.294 189.402 245.722Z" fill="#1D1D1B"/>
<path fill-rule="evenodd" clip-rule="evenodd" d="M193.831 246.007C192.974 249.578 193.973 253.149 196.544 256.292C199.258 259.434 203.401 262.148 208.686 264.005C213.971 265.862 220.113 266.719 226.112 266.433C232.254 266.291 238.111 265.005 242.967 262.862C247.824 260.72 251.538 257.863 253.538 254.435C255.537 251.15 255.823 247.436 254.252 244.008C252.681 240.579 249.395 237.437 244.824 235.152C240.253 232.866 234.54 231.295 228.541 230.723C220.399 230.009 212.114 231.295 205.543 234.152C198.973 237.008 194.973 241.294 193.831 246.007Z" fill="white"/>
<path fill-rule="evenodd" clip-rule="evenodd" d="M245.966 255.721C248.252 254.863 250.108 253.578 251.251 252.007C252.394 250.578 252.68 248.864 252.108 247.293C251.537 245.722 250.251 244.293 248.252 243.151C246.252 242.008 243.823 241.151 240.967 240.865C238.253 240.58 235.396 240.722 232.825 241.294C230.254 241.865 227.968 243.008 226.397 244.293C224.826 245.579 223.969 247.15 223.969 248.864C223.969 250.435 224.826 252.007 226.397 253.435C228.54 255.292 231.682 256.435 235.396 256.863C238.967 257.435 242.824 257.006 245.966 255.721Z" fill="#FDC300"/>
<path d="M228.683 249.721C228.683 249.864 228.683 250.007 228.54 250.15C228.397 250.292 228.254 250.292 227.968 250.292C227.683 250.292 227.54 250.292 227.254 250.15C227.111 250.007 226.968 250.007 226.968 249.864C226.683 248.578 226.968 247.436 227.825 246.293C228.683 245.15 230.111 244.15 231.825 243.579C231.968 243.579 231.968 243.579 232.111 243.436C232.253 243.436 232.396 243.436 232.396 243.436C232.539 243.436 232.682 243.436 232.682 243.579C232.825 243.579 232.825 243.722 232.968 243.722L233.111 243.865V244.008C233.111 244.008 233.111 244.15 232.968 244.15C232.968 244.15 232.825 244.293 232.682 244.293C231.254 244.865 229.968 245.722 229.254 246.579C228.683 247.721 228.54 248.721 228.683 249.721Z" fill="white"/>
<path d="M231.969 253.149C232.112 253.149 232.112 253.292 232.112 253.292L232.255 253.435V253.578L232.112 253.721C231.969 253.721 231.969 253.864 231.826 253.864C231.684 253.864 231.684 253.864 231.541 253.864C231.398 253.864 231.255 253.864 231.255 253.864C231.112 253.864 231.112 253.864 230.969 253.721C230.541 253.578 230.112 253.292 229.827 253.007C229.398 252.721 229.112 252.578 228.827 252.292C228.541 252.007 228.255 251.721 228.113 251.435C227.97 251.435 227.97 251.293 227.97 251.293C227.97 251.15 227.97 251.15 227.97 251.007C227.97 250.864 228.113 250.864 228.113 250.864C228.255 250.864 228.255 250.721 228.398 250.721C228.541 250.721 228.684 250.721 228.827 250.721C228.97 250.721 229.112 250.721 229.255 250.721C229.398 250.721 229.541 250.864 229.541 250.864C229.684 250.864 229.684 251.007 229.684 251.007C229.827 251.293 230.112 251.435 230.398 251.721C230.684 251.864 230.969 252.15 231.255 252.292C231.255 252.721 231.541 252.864 231.969 253.149Z" fill="white"/>
<path d="M107.126 208.583L119.41 198.442L133.694 204.298L121.41 214.44L117.982 213.011L127.838 204.87L120.553 201.87L110.697 210.012L107.126 208.583Z" fill="#1D1D1B"/>
<path d="M142.551 207.869C143.408 208.155 144.265 208.583 144.836 209.012C145.408 209.44 145.836 210.012 145.979 210.583C146.265 211.583 145.836 212.726 144.693 213.583C144.122 214.011 143.551 214.44 142.837 214.725C142.122 215.011 141.265 215.154 140.265 215.297C138.123 215.44 135.98 215.011 134.266 214.297L131.552 213.154L127.41 216.582L123.839 215.154L136.123 205.012L142.551 207.869ZM136.552 212.583C136.837 212.726 137.266 212.869 137.694 212.869C138.123 213.011 138.551 213.011 138.98 212.869C139.408 212.869 139.837 212.726 140.123 212.583C140.551 212.44 140.837 212.297 140.98 212.012C141.265 211.869 141.408 211.583 141.551 211.44C141.694 211.297 141.694 211.012 141.551 210.726C141.408 210.44 141.265 210.297 141.122 210.012C140.837 209.869 140.551 209.583 140.265 209.583L137.266 208.298L133.695 211.154L136.552 212.583Z" fill="#1D1D1B"/>
<path d="M171.69 237.722L174.118 235.723L157.12 228.866L169.404 218.725L172.975 220.153L163.119 228.295L167.119 229.866L176.975 221.724L180.546 223.153L170.69 231.295L174.832 233.009L184.688 224.867L188.259 226.295L178.403 234.437L180.26 235.151L175.404 239.151L171.69 237.722Z" fill="#1D1D1B"/>
<path d="M179.118 237.722L191.402 227.581L203.258 232.295L200.973 234.151L192.688 230.723L190.117 232.866L197.83 236.008L195.545 237.865L187.831 234.723L185.117 237.008L193.402 240.436L191.117 242.293L179.118 237.722Z" fill="#1D1D1B"/>
<path d="M108.983 211.011L109.84 211.297L105.841 214.582L104.984 214.297L106.269 213.154C105.698 213.154 105.269 213.011 104.841 212.725C104.555 212.583 104.27 212.583 104.127 212.44C103.984 212.297 103.841 212.154 103.698 211.868C103.555 211.583 103.698 211.44 103.698 211.297C103.841 211.154 103.984 211.011 104.127 210.868L105.555 209.726L106.412 210.011L105.127 211.011C104.841 211.154 104.698 211.44 104.698 211.726C104.698 211.868 104.841 211.868 104.984 212.011C105.127 212.154 105.27 212.154 105.412 212.297C105.841 212.44 106.412 212.583 106.841 212.583L108.983 211.011Z" fill="#575756"/>
<path d="M106.984 215.011L110.841 211.726L114.412 213.154L113.841 213.583L111.127 212.44L110.127 213.297L112.698 214.297L112.127 214.725L109.555 213.726L108.413 214.583L111.127 215.725L110.555 216.154L106.984 215.011Z" fill="#575756"/>
<path d="M111.27 216.725L115.126 213.44L115.555 213.583V216.439L120.268 215.44L120.697 215.582L116.84 218.868L115.983 218.582L118.554 216.582L114.841 217.439L114.555 217.296V215.011L111.984 217.011L111.27 216.725Z" fill="#575756"/>
<path d="M124.981 220.867C124.839 221.01 124.696 221.153 124.41 221.153C124.124 221.296 123.981 221.296 123.696 221.296C123.41 221.296 123.124 221.296 122.839 221.296C122.553 221.296 122.267 221.153 122.125 221.01L119.696 220.01L123.696 216.725L125.981 217.725C126.267 217.868 126.41 217.868 126.553 218.011C126.695 218.154 126.838 218.296 126.838 218.439C126.838 218.582 126.838 218.725 126.838 218.868C126.838 219.011 126.695 219.153 126.553 219.153C126.41 219.296 126.124 219.439 125.838 219.439C125.553 219.439 125.267 219.582 124.981 219.439C125.267 219.582 125.41 219.868 125.41 220.01C125.41 220.439 125.267 220.725 124.981 220.867ZM123.981 217.725L122.982 218.582L124.267 219.153C124.41 219.153 124.41 219.296 124.553 219.296C124.696 219.296 124.839 219.296 124.981 219.296C125.124 219.296 125.267 219.296 125.41 219.153C125.553 219.153 125.553 219.011 125.696 219.011L125.838 218.868V218.725L125.696 218.582C125.553 218.582 125.553 218.439 125.41 218.439L123.981 217.725ZM122.41 220.582C122.553 220.582 122.696 220.725 122.839 220.725C122.982 220.725 123.124 220.725 123.267 220.725C123.41 220.725 123.553 220.725 123.696 220.582C123.839 220.582 123.981 220.439 123.981 220.439C123.981 220.439 124.124 220.296 124.124 220.153C124.124 220.01 124.124 220.01 124.124 219.868C124.124 219.725 123.981 219.725 123.839 219.582C123.696 219.582 123.553 219.439 123.41 219.439L122.125 218.868L120.982 219.868L122.41 220.582Z" fill="#575756"/>
<path d="M128.981 220.724C129.41 220.867 129.695 221.01 129.838 221.296C129.981 221.582 130.124 221.867 129.981 222.01C129.838 222.296 129.695 222.581 129.41 222.724C129.124 222.867 128.695 223.01 128.267 223.153C127.981 223.153 127.695 223.153 127.267 223.153C126.981 223.153 126.696 223.01 126.41 222.867L124.41 222.01L128.267 218.725L129.124 219.01L127.695 220.153L128.981 220.724ZM126.981 222.439C127.695 222.724 128.41 222.724 128.838 222.296C128.981 222.153 128.981 222.153 128.981 222.01C128.981 221.867 128.981 221.867 128.981 221.724C128.981 221.582 128.838 221.581 128.695 221.439C128.553 221.296 128.41 221.296 128.267 221.296L127.124 220.867L125.696 222.01L126.981 222.439ZM133.123 220.724L133.98 221.153L130.124 224.438L129.267 224.153L133.123 220.724Z" fill="#575756"/>
<path d="M137.551 226.581L138.123 226.867L136.694 228.01L135.837 227.724L136.551 227.153L133.123 225.724L132.266 226.438L131.409 226.153L132.838 225.01L133.266 225.153C133.695 225.01 134.123 224.867 134.409 224.724C135.123 224.439 135.694 224.01 136.266 223.724L137.551 222.867L140.694 224.153L137.551 226.581ZM136.694 226.296L139.551 224.01L137.98 223.439L137.694 223.582C136.694 224.296 135.694 224.867 134.409 225.296L136.694 226.296Z" fill="#575756"/>
<path d="M137.98 227.438L138.695 227.01C138.838 227.153 138.98 227.153 139.123 227.295C139.266 227.295 139.409 227.438 139.552 227.438C139.695 227.438 139.837 227.438 139.98 227.438C140.266 227.438 140.694 227.295 140.98 227.153L141.837 224.296L142.837 224.724L142.123 226.867L145.265 225.724L146.265 226.153L144.694 226.724C143.408 227.153 142.409 227.581 141.551 227.867C141.123 228.01 140.552 228.152 140.123 228.152C139.837 228.152 139.552 228.152 139.409 228.152C139.123 228.152 138.98 228.01 138.695 228.01C138.266 227.724 138.123 227.581 137.98 227.438Z" fill="#575756"/>
<path d="M142.551 229.438L146.407 226.152L146.836 226.295V229.152L151.55 228.152L151.978 228.295L148.122 231.58L147.264 231.152L149.836 229.152L146.122 230.009L145.836 229.866V227.581L143.265 229.581L142.551 229.438Z" fill="#575756"/>
<path d="M152.693 233.437L153.121 232.437L151.122 231.58L149.693 232.152L148.693 231.723L154.693 229.438L155.264 229.723L153.55 233.866L152.693 233.437ZM154.121 230.438L151.979 231.295L153.55 231.866L154.121 230.438Z" fill="#575756"/>
<path d="M154.122 234.009L157.979 230.724L161.55 232.152L160.978 232.581L158.264 231.438L157.265 232.295L159.836 233.295L159.264 233.723L156.693 232.723L155.55 233.58L158.264 234.723L157.693 235.152L154.122 234.009Z" fill="#575756"/>
<path d="M162.977 233.58L161.406 232.866L161.978 232.438L166.12 234.152L165.549 234.58L163.977 233.866L160.692 236.58L159.835 236.151L162.977 233.58Z" fill="#575756"/>
<path d="M162.691 237.437L166.548 234.152L170.119 235.58L169.548 236.009L166.834 234.866L165.834 235.723L168.405 236.723L167.834 237.151L165.263 236.151L164.12 237.008L166.834 238.151L166.262 238.58L162.691 237.437Z" fill="#575756"/>
<path fill-rule="evenodd" clip-rule="evenodd" d="M144.408 215.154C145.837 214.154 147.836 213.583 149.979 213.154C152.122 212.869 154.407 212.869 156.55 213.297C158.692 213.726 160.406 214.583 161.835 215.583C163.12 216.582 163.977 217.868 163.977 219.154C164.12 220.439 163.549 221.725 162.406 222.867C161.263 224.01 159.549 224.867 157.55 225.438C155.55 226.01 153.264 226.153 151.122 226.01C148.979 225.867 146.837 225.296 145.265 224.439C144.123 223.867 143.266 223.153 142.694 222.439C142.123 221.725 141.694 220.868 141.694 220.011C141.694 219.153 141.837 218.296 142.409 217.439C142.694 216.44 143.408 215.725 144.408 215.154Z" fill="#1D1D1B"/>
<path fill-rule="evenodd" clip-rule="evenodd" d="M146.978 216.44C147.978 215.725 149.406 215.297 150.834 215.154C152.406 214.868 153.977 215.011 155.405 215.297C156.834 215.583 158.119 216.154 159.119 216.868C159.976 217.582 160.547 218.439 160.69 219.296C160.69 220.153 160.405 221.01 159.548 221.868C158.691 222.725 157.548 223.296 156.119 223.582C154.691 224.01 153.12 224.153 151.549 224.01C149.977 223.867 148.549 223.439 147.406 222.867C145.835 222.01 144.978 220.868 144.978 219.725C144.835 218.439 145.549 217.297 146.978 216.44Z" fill="white"/>
<path fill-rule="evenodd" clip-rule="evenodd" d="M153.549 215.44C154.263 215.582 154.834 215.725 155.405 216.154C155.834 216.439 156.12 216.868 156.262 217.296C156.405 217.725 156.262 218.153 155.977 218.582C155.691 219.011 155.12 219.296 154.548 219.439C153.977 219.582 153.12 219.725 152.406 219.725C151.692 219.725 150.977 219.582 150.406 219.296C149.835 219.011 149.406 218.725 149.121 218.296C148.835 217.868 148.835 217.439 149.121 217.011C149.263 216.725 149.406 216.439 149.692 216.297C149.978 216.011 150.406 215.868 150.835 215.725C151.263 215.582 151.692 215.44 152.263 215.44C152.549 215.44 153.12 215.44 153.549 215.44Z" fill="#FDC300"/>
<path d="M150.693 216.582C150.551 216.582 150.551 216.582 150.551 216.582C150.551 216.582 150.551 216.582 150.408 216.582C150.408 216.582 150.408 216.582 150.265 216.582C150.265 216.582 150.265 216.582 150.122 216.582C150.551 216.297 150.979 216.154 151.55 216.011C152.122 215.868 152.693 215.868 153.122 216.011H153.265C153.265 216.011 153.265 216.011 153.265 216.154C153.265 216.154 153.265 216.154 153.122 216.297H152.979C152.55 216.154 152.122 216.297 151.55 216.297C151.408 216.154 151.122 216.297 150.693 216.582Z" fill="white"/>
<path fill-rule="evenodd" clip-rule="evenodd" d="M189.402 245.722C188.403 249.721 189.545 253.863 192.545 257.577C195.545 261.291 200.544 264.291 206.543 266.29C212.685 268.29 219.542 269.29 226.684 269.147C233.826 269.004 240.539 267.433 246.11 265.005C251.681 262.577 255.966 259.149 258.251 255.292C260.537 251.435 260.822 247.293 259.108 243.293C257.394 239.294 253.538 235.866 248.395 233.152C243.11 230.438 236.54 228.724 229.683 228.152C220.399 227.438 210.828 228.866 203.258 232.152C195.687 235.437 190.688 240.294 189.402 245.722Z" fill="#1D1D1B"/>
<path fill-rule="evenodd" clip-rule="evenodd" d="M193.831 246.007C192.974 249.578 193.973 253.149 196.544 256.292C199.258 259.434 203.401 262.148 208.686 264.005C213.971 265.862 220.113 266.719 226.112 266.433C232.254 266.291 238.111 265.005 242.967 262.862C247.824 260.72 251.538 257.863 253.538 254.435C255.537 251.15 255.823 247.436 254.252 244.008C252.681 240.579 249.395 237.437 244.824 235.152C240.253 232.866 234.54 231.295 228.541 230.723C220.399 230.009 212.114 231.295 205.543 234.152C199.401 237.008 195.116 241.294 193.831 246.007Z" fill="white"/>
<path fill-rule="evenodd" clip-rule="evenodd" d="M213.542 247.15C215.541 248.293 218.113 249.007 220.827 249.435C223.54 249.721 226.397 249.578 228.968 249.007C231.54 248.435 233.825 247.293 235.396 246.007C236.967 244.722 237.824 243.15 237.824 241.436C237.824 239.865 236.967 238.294 235.396 236.865C233.825 235.58 231.682 234.437 229.111 233.866C226.54 233.294 223.683 233.009 220.969 233.437C218.255 233.723 215.684 234.58 213.685 235.723C210.971 237.294 209.542 239.294 209.542 241.436C209.399 243.579 210.971 245.579 213.542 247.15Z" fill="#FDC300"/>
<path d="M220.541 236.294C220.256 236.294 220.113 236.294 219.827 236.294C219.684 236.294 219.398 236.151 219.398 236.008V235.866C219.398 235.866 219.398 235.723 219.541 235.723L219.684 235.58C219.827 235.58 219.827 235.437 219.97 235.437C221.97 235.009 224.112 234.866 226.255 235.151C228.397 235.437 230.254 236.008 231.826 236.866C231.968 237.008 232.111 237.151 232.111 237.151C232.111 237.294 231.968 237.437 231.826 237.58C231.683 237.723 231.397 237.723 231.254 237.723C230.968 237.723 230.826 237.723 230.683 237.58C229.397 236.866 227.826 236.294 226.112 236.151C224.112 235.866 222.255 235.866 220.541 236.294Z" fill="white"/>
<path d="M215.4 238.722C215.257 238.865 215.114 238.865 214.971 238.865C214.828 238.865 214.543 238.865 214.4 238.865C214.257 238.865 214.114 238.722 213.971 238.58C213.829 238.437 213.829 238.294 213.971 238.294C214.257 238.008 214.543 237.723 214.828 237.437C215.114 237.151 215.543 237.008 215.828 236.723C216.257 236.437 216.685 236.294 217.114 236.151C217.257 236.009 217.542 236.009 217.828 236.009C218.114 236.009 218.257 236.151 218.399 236.151C218.542 236.294 218.542 236.437 218.542 236.58C218.542 236.723 218.399 236.866 218.257 236.866C217.971 237.008 217.542 237.151 217.257 237.294C216.971 237.437 216.543 237.58 216.257 237.865C215.971 238.294 215.685 238.437 215.4 238.722Z" fill="white"/>
<mask id="path-69-inside-17" fill="white">
<path d="M306.045 187.173V216.869L331.887 201.736V172.04L306.045 187.173Z"/>
</mask>
<path d="M306.045 187.173V216.869L331.887 201.736V172.04L306.045 187.173Z" fill="url(#paint0_linear)" stroke="black" mask="url(#path-69-inside-17)"/>
<mask id="path-70-inside-18" fill="white">
<path d="M252.062 126.068C246.606 122.928 241.151 118.359 236.556 113.219C231.101 106.938 226.22 99.5136 222.774 91.8041C218.754 82.9525 216.744 73.8154 216.744 65.2493L190.902 80.0971C190.902 88.6632 193.199 97.8004 196.932 106.652C200.378 114.361 205.259 121.785 210.715 128.067C215.309 133.492 220.764 137.775 226.22 140.916L285.369 174.895L309.201 158.905L252.062 126.068Z"/>
</mask>
<path d="M252.062 126.068C246.606 122.928 241.151 118.359 236.556 113.219C231.101 106.938 226.22 99.5136 222.774 91.8041C218.754 82.9525 216.744 73.8154 216.744 65.2493L190.902 80.0971C190.902 88.6632 193.199 97.8004 196.932 106.652C200.378 114.361 205.259 121.785 210.715 128.067C215.309 133.492 220.764 137.775 226.22 140.916L285.369 174.895L309.201 158.905L252.062 126.068Z" fill="#ED3E46" stroke="black" mask="url(#path-70-inside-18)"/>
<mask id="path-71-inside-19" fill="white">
<path d="M190.903 49.5449C184.586 53.2568 186.596 70.6746 190.903 80.3828L216.745 65.5349C216.745 54.399 220.765 46.6895 227.081 42.9775L190.903 49.5449Z"/>
</mask>
<path d="M190.903 49.5449C184.586 53.2568 186.596 70.6746 190.903 80.3828L216.745 65.5349C216.745 54.399 220.765 46.6895 227.081 42.9775L190.903 49.5449Z" fill="#3E59C6" stroke="black" mask="url(#path-71-inside-19)"/>
<mask id="path-72-inside-20" fill="white">
<path d="M308.054 158.334L282.212 173.467L306.044 187.173L331.886 172.04L308.054 158.334Z"/>
</mask>
<path d="M308.054 158.334L282.212 173.467L306.044 187.173L331.886 172.04L308.054 158.334Z" fill="url(#paint1_linear)" stroke="black" mask="url(#path-72-inside-20)"/>
<mask id="path-73-inside-21" fill="white">
<path d="M222.776 91.8042L196.934 106.652C200.379 114.362 205.26 121.785 210.716 128.067L236.558 113.219C231.102 106.938 226.221 99.5137 222.776 91.8042Z"/>
</mask>
<path d="M222.776 91.8042L196.934 106.652C200.379 114.362 205.26 121.785 210.716 128.067L236.558 113.219C231.102 106.938 226.221 99.5137 222.776 91.8042Z" fill="#FF8388" stroke="black" mask="url(#path-73-inside-21)"/>
<mask id="path-74-inside-22" fill="white">
<path d="M306.33 76.0996V106.081L332.172 90.9475V61.2517L306.33 76.0996Z"/>
</mask>
<path d="M306.33 76.0996V106.081L332.172 90.9475V61.2517L306.33 76.0996Z" fill="url(#paint2_linear)" stroke="black" mask="url(#path-74-inside-22)"/>
<mask id="path-75-inside-23" fill="white">
<path d="M252.349 15.2805C235.409 5.57227 219.903 4.71566 208.705 10.9975L182.863 25.8453C194.061 19.278 209.567 20.1346 226.507 30.1284L285.083 63.8217L309.202 47.8316L252.349 15.2805Z"/>
</mask>
<path d="M252.349 15.2805C235.409 5.57227 219.903 4.71566 208.705 10.9975L182.863 25.8453C194.061 19.278 209.567 20.1346 226.507 30.1284L285.083 63.8217L309.202 47.8316L252.349 15.2805Z" fill="#788EFF" stroke="black" mask="url(#path-75-inside-23)"/>
<mask id="path-76-inside-24" fill="white">
<path d="M308.054 47.5461L282.212 62.394L306.331 76.0997L332.173 61.2519L308.054 47.5461Z"/>
</mask>
<path d="M308.054 47.5461L282.212 62.394L306.331 76.0997L332.173 61.2519L308.054 47.5461Z" fill="url(#paint3_linear)" stroke="black" mask="url(#path-76-inside-24)"/>
<mask id="path-77-inside-25" fill="white">
<path d="M226.221 141.202C206.696 130.066 190.616 102.654 190.903 80.3826L164.774 65.5347C164.774 104.368 192.052 151.767 226.221 171.183L289.39 207.446V177.465L226.221 141.202Z"/>
</mask>
<path d="M226.221 141.202C206.696 130.066 190.616 102.654 190.903 80.3826L164.774 65.5347C164.774 104.368 192.052 151.767 226.221 171.183L289.39 207.446V177.465L226.221 141.202Z" fill="url(#paint4_linear)" stroke="black" mask="url(#path-77-inside-25)"/>
<mask id="path-78-inside-26" fill="white">
<path d="M226.508 30.4138C192.626 10.7118 164.774 26.4163 164.774 65.2492L190.903 80.0971C190.903 57.8253 206.983 48.6881 226.508 59.824L292.548 97.8003V68.3901L226.508 30.4138Z"/>
</mask>
<path d="M226.508 30.4138C192.626 10.7118 164.774 26.4163 164.774 65.2492L190.903 80.0971C190.903 57.8253 206.983 48.6881 226.508 59.824L292.548 97.8003V68.3901L226.508 30.4138Z" fill="#556BDF" stroke="black" mask="url(#path-78-inside-26)"/>
<mask id="path-79-inside-27" fill="white">
<path d="M282.212 173.468V203.163L306.044 216.869V187.173L282.212 173.468Z"/>
</mask>
<path d="M282.212 173.468V203.163L306.044 216.869V187.173L282.212 173.468Z" fill="#C0B9C8" stroke="black" mask="url(#path-79-inside-27)"/>
<mask id="path-80-inside-28" fill="white">
<path d="M282.212 62.3939V92.0897L306.331 106.081V76.0997L282.212 62.3939Z"/>
</mask>
<path d="M282.212 62.3939V92.0897L306.331 106.081V76.0997L282.212 62.3939Z" fill="#C0B9C8" stroke="black" mask="url(#path-80-inside-28)"/>
<defs>
<linearGradient id="paint0_linear" x1="312.49" y1="183.272" x2="325.369" y2="205.704" gradientUnits="userSpaceOnUse">
<stop stop-color="#E0DBE1"/>
<stop offset="1" stop-color="#D9D4DC"/>
</linearGradient>
<linearGradient id="paint1_linear" x1="282.28" y1="172.735" x2="331.971" y2="172.735" gradientUnits="userSpaceOnUse">
<stop stop-color="#FAF8FC"/>
<stop offset="1" stop-color="#F8F6FA"/>
</linearGradient>
<linearGradient id="paint2_linear" x1="312.804" y1="72.4362" x2="325.684" y2="94.8687" gradientUnits="userSpaceOnUse">
<stop stop-color="#E0DBE1"/>
<stop offset="1" stop-color="#D9D4DC"/>
</linearGradient>
<linearGradient id="paint3_linear" x1="282.279" y1="61.8087" x2="332.287" y2="61.8087" gradientUnits="userSpaceOnUse">
<stop stop-color="#FAF8FC"/>
<stop offset="1" stop-color="#F8F6FA"/>
</linearGradient>
<linearGradient id="paint4_linear" x1="255.348" y1="71.3068" x2="214.318" y2="166.558" gradientUnits="userSpaceOnUse">
<stop stop-color="#D1272E"/>
<stop offset="1" stop-color="#C61E25"/>
</linearGradient>
</defs>
</svg>
