<svg width="21" height="14" viewBox="0 0 21 14" fill="none" xmlns="http://www.w3.org/2000/svg">
<path d="M19.7299 6.15582L19.8181 6.28941L19.9763 6.26517L20.3441 6.20883V7.92723H20.3427L20.3342 8.16846C20.2878 9.48792 19.3865 10.848 17.5244 11.9173L17.5243 11.9173C15.6145 13.0151 13.0958 13.5687 10.5633 13.5662C8.03095 13.5637 5.51198 13.0052 3.60192 11.9073C1.69064 10.8086 0.79216 9.40178 0.79216 8.04668V6.43795L0.894226 6.50146L1.11731 6.64028L1.24487 6.41058C1.69159 5.6062 2.47056 4.84275 3.61064 4.1969L3.61064 4.19691L3.612 4.19612C5.52192 3.09828 8.04074 2.54222 10.5731 2.54346C13.1054 2.5447 15.6241 3.10322 17.5339 4.20593L17.5351 4.20659C18.5461 4.78321 19.271 5.46095 19.7299 6.15582Z" fill="#BA6000" stroke="black" stroke-width="0.5"/>
<path d="M17.535 2.14722C19.4466 3.25092 20.3425 4.65773 20.3402 6.0114C20.3379 7.36523 19.437 8.76984 17.5254 9.86867C15.6156 10.9664 13.0968 11.5201 10.5644 11.5176C8.03203 11.5151 5.51306 10.9566 3.60299 9.85863C1.6917 8.75496 0.795954 7.34826 0.798268 5.99468C0.800582 4.64086 1.70145 3.23624 3.61308 2.13741C5.523 1.03956 8.04183 0.483504 10.5741 0.484743C13.1065 0.485983 15.6252 1.04451 17.535 2.14722Z" fill="#FF9D26" stroke="black" stroke-width="0.5"/>
<path d="M5.91483 3.16934L5.9152 3.16913C7.24291 2.40927 8.96529 2.0364 10.6743 2.03768C12.3833 2.03896 14.1059 2.4144 15.4337 3.17954C16.7599 3.94372 17.4803 4.97965 17.4803 6.06501C17.4803 7.1507 16.7595 8.18167 15.433 8.93583C14.1101 9.69578 12.3877 10.0685 10.6777 10.0672C8.96765 10.0659 7.24268 9.69059 5.91483 8.92552V3.16934ZM5.91483 3.16934C4.59313 3.92875 3.87547 4.96233 3.87547 6.04743M5.91483 3.16934L3.87547 6.04743M3.87547 6.04743C3.87547 7.13246 4.59303 8.16597 5.91456 8.92537L3.87547 6.04743ZM16.1826 3.00015L16.1831 3.00045C17.706 3.87314 18.4074 4.98363 18.4063 6.04214C18.4052 7.10096 17.701 8.21167 16.183 9.08442C14.6615 9.95634 12.6546 10.397 10.6353 10.3945C8.61607 10.392 6.6115 9.94647 5.09482 9.0745L5.09451 9.07433C3.57143 8.2015 2.86754 7.09085 2.86754 6.03237C2.86754 4.97388 3.57143 3.86323 5.09452 2.99041L5.09482 2.99023C6.61132 2.11837 8.6157 1.67528 10.6349 1.67652C12.654 1.67775 14.661 2.12329 16.1826 3.00015Z" fill="#BA6000" stroke="black" stroke-width="0.5"/>
<path d="M16.1826 2.63931L16.1831 2.63961C17.706 3.5123 18.4074 4.62279 18.4063 5.6813C18.4052 6.74012 17.701 7.85083 16.183 8.72358C14.6615 9.5955 12.6546 10.0361 10.6353 10.0337C8.61616 10.0312 6.6117 9.58567 5.09504 8.71379C3.57141 7.83577 2.86754 6.72498 2.86754 5.66776C2.86754 4.61075 3.57118 3.50254 5.09452 2.62957L5.09482 2.62939C6.61132 1.75753 8.6157 1.31444 10.6349 1.31568C12.654 1.31691 14.661 1.76245 16.1826 2.63931ZM15.4334 8.58477L15.4337 8.58461C16.7595 7.82062 17.4803 6.78728 17.4803 5.70291C17.4803 4.61839 16.7594 3.58754 15.4334 2.82856C14.1056 2.06355 12.3832 1.68816 10.6743 1.68688C8.96529 1.6856 7.24291 2.05847 5.9152 2.81833L5.91483 2.81854C4.59344 3.57777 3.87547 4.60876 3.87547 5.69287C3.87547 6.77674 4.59315 7.81013 5.91419 8.57436L5.91456 8.57457C7.24245 9.33974 8.96753 9.71515 10.6777 9.71643C12.3879 9.71771 14.1105 9.34489 15.4334 8.58477Z" fill="#FF8400" stroke="black" stroke-width="0.5"/>
<path d="M13.9422 7.27927L13.3382 7.7633L14.1112 7.72403L14.837 7.68716V7.91182L14.1397 8.31064L13.3464 7.85061L13.2275 7.78168L13.1056 7.84508C12.4989 8.16067 11.7825 8.40028 11.2462 8.50177L10.5762 7.85074V7.53987C10.639 7.53953 10.7085 7.54292 10.7848 7.54943C10.8959 7.55891 11.0075 7.57338 11.1263 7.58878C11.1891 7.59693 11.2539 7.60533 11.3217 7.61339C11.5092 7.63569 11.7104 7.65394 11.9037 7.64383C12.0966 7.63374 12.2977 7.59482 12.4775 7.49059C12.7644 7.32935 13.0081 7.13111 13.1033 6.89694C13.1557 6.76817 13.1644 6.62371 13.1027 6.48447C13.0444 6.35298 12.9366 6.25593 12.8138 6.18469C12.5741 6.03968 12.2912 5.99532 11.961 6.01595C11.6324 6.03649 11.2359 6.1228 10.7523 6.25966L10.7522 6.25969C9.37525 6.64997 8.28699 6.75018 7.4455 6.26369L7.44503 6.26343C7.03387 6.0269 6.89458 5.77422 6.89458 5.54616V5.36099L6.90032 5.36512L7.04026 5.13288C7.11414 5.01028 7.2363 4.86877 7.39459 4.7297L7.65821 4.49811L7.35322 4.32459L6.56172 3.87427V3.65481L7.18161 3.72047L7.9835 4.1767L8.10176 4.24399L8.22248 4.1812C8.85387 3.8528 9.38093 3.68955 9.82286 3.60131L10.3788 3.70509V3.94351C10.0039 4.03273 9.40662 4.18023 8.79103 4.53513C8.62122 4.62922 8.48623 4.72448 8.38647 4.82282C8.28705 4.92081 8.21013 5.03432 8.18273 5.16452C8.12069 5.45931 8.33022 5.65451 8.49449 5.75143L8.49449 5.75144L8.49641 5.75255C8.72237 5.88318 9.0022 5.90196 9.3353 5.86629C9.67175 5.83025 10.1061 5.73302 10.671 5.58739L10.671 5.58741L10.6741 5.58656C12.1992 5.17243 13.1188 5.22844 13.9027 5.68218L13.9026 5.68224L13.9078 5.68509C14.0816 5.78024 14.2098 5.89119 14.3125 6.01054L14.4095 6.12324L14.484 6.10712V6.47161C14.4673 6.69485 14.3218 6.97503 13.9422 7.27927Z" fill="#BA6000" stroke="black" stroke-width="0.5"/>
<path d="M7.33493 3.67282L6.79257 3.35831L7.23882 3.10307L7.96148 3.52279L8.08039 3.59186L8.2024 3.5284C8.79555 3.21989 9.2977 3.05657 9.73295 2.95701L10.1187 3.33626C9.74767 3.43139 9.26627 3.58659 8.77022 3.87271C8.60214 3.96728 8.46833 4.06351 8.3692 4.16281C8.27058 4.2616 8.19483 4.37505 8.1668 4.50369C8.10283 4.7972 8.30462 4.99411 8.47836 5.09088C8.70396 5.22045 8.98311 5.23902 9.31521 5.20345C9.65166 5.16741 10.086 5.07018 10.6509 4.92454L10.6509 4.92456L10.654 4.92372C12.178 4.5099 13.0986 4.56517 13.8829 5.00952C14.2731 5.23845 14.4396 5.49543 14.4556 5.72896C14.4717 5.96344 14.343 6.2718 13.92 6.61807L13.6419 6.84577L13.9522 7.02729L14.5649 7.3858L14.1272 7.64635L13.3364 7.18777L13.2175 7.11884L13.0956 7.18224C12.4847 7.50001 11.7766 7.74698 11.2381 7.84079L10.8301 7.44439C11.3665 7.32094 11.9609 7.1307 12.4687 6.83714L12.4688 6.83703C12.7536 6.67205 12.9989 6.47293 13.0927 6.23746C13.1447 6.10691 13.1509 5.96189 13.087 5.82287C13.0267 5.69175 12.9171 5.5943 12.7929 5.52136L12.7919 5.52076C12.5538 5.38251 12.273 5.33751 11.9419 5.35681C11.6133 5.37598 11.217 5.45964 10.7322 5.59682L10.7321 5.59685C9.35526 5.9871 8.26706 6.08733 7.42559 5.60095C7.04042 5.37718 6.88967 5.13331 6.87656 4.91714C6.86318 4.69645 6.98656 4.40669 7.37142 4.07957L7.6411 3.85036L7.33493 3.67282Z" fill="#FF8400" stroke="black" stroke-width="0.5"/>
</svg>
