<svg width="34" height="24" viewBox="0 0 34 24" fill="none" xmlns="http://www.w3.org/2000/svg">
<mask id="mask0" mask-type="alpha" maskUnits="userSpaceOnUse" x="0" y="4" width="34" height="20">
<path d="M32.1004 10.4628C31.3004 9.26282 30.1004 8.16282 28.4004 7.16282C22.0004 3.46282 11.6004 3.46282 5.20039 7.16282C3.30039 8.26282 1.90039 9.56282 1.20039 10.9628L0.400391 10.4628V13.8628C0.400391 16.2628 2.00039 18.6628 5.20039 20.5628C11.6004 24.2628 22.0004 24.2628 28.4004 20.5628C31.5004 18.7628 33.1004 16.4628 33.2004 14.0628V10.3628L32.1004 10.4628Z" fill="white"/>
</mask>
<g mask="url(#mask0)">
<path d="M32.1004 10.4628C31.3004 9.26282 30.1004 8.16282 28.4004 7.16282C22.0004 3.46282 11.6004 3.46282 5.20039 7.16282C3.30039 8.26282 1.90039 9.56282 1.20039 10.9628L0.400391 10.4628V13.8628C0.400391 16.2628 2.00039 18.6628 5.20039 20.5628C11.6004 24.2628 22.0004 24.2628 28.4004 20.5628C31.5004 18.7628 33.1004 16.4628 33.2004 14.0628V10.3628L32.1004 10.4628Z" fill="#BA6000"/>
<path d="M16.8008 23.6628C12.5008 23.6628 8.20078 22.7628 4.90078 20.8628C1.60078 18.9628 -0.199219 16.4629 -0.199219 13.7629V10.3628L0.60078 9.96285L1.00078 10.1628C1.90078 8.86284 3.20078 7.66284 4.90078 6.66284C11.4008 2.86284 22.1008 2.96284 28.6008 6.66284C30.2008 7.56284 31.4008 8.66284 32.3008 9.86284L33.1008 9.76285L33.7008 10.2629V13.9628C33.6008 16.5628 31.8008 19.0628 28.6008 20.8628C25.4008 22.7628 21.1008 23.6628 16.8008 23.6628ZM0.900784 11.2629V13.7629C0.900784 16.0629 2.50078 18.2628 5.50078 19.9628C11.8008 23.5628 21.9008 23.5628 28.2008 19.9628C31.1008 18.3628 32.7008 16.1628 32.8008 13.8628V10.7629L32.3008 10.8628L31.8008 10.6628C31.0008 9.46284 29.8008 8.36285 28.2008 7.46285C22.0008 3.86285 11.8008 3.86285 5.50078 7.46285C3.70078 8.46285 2.40078 9.66285 1.70078 11.0629L0.900784 11.2629Z" fill="black"/>
</g>
<mask id="mask1" mask-type="alpha" maskUnits="userSpaceOnUse" x="0" y="0" width="34" height="20">
<path d="M28.4004 3.76279C34.8004 7.46279 34.8004 13.4628 28.4004 17.0628C22.0004 20.7628 11.6004 20.7628 5.20039 17.0628C-1.19961 13.3628 -1.19961 7.36279 5.20039 3.76279C11.6004 0.062793 22.0004 0.062793 28.4004 3.76279Z" fill="white"/>
</mask>
<g mask="url(#mask1)">
<path d="M28.4004 3.76279C34.8004 7.46279 34.8004 13.4628 28.4004 17.0628C22.0004 20.7628 11.6004 20.7628 5.20039 17.0628C-1.19961 13.3628 -1.19961 7.36279 5.20039 3.76279C11.6004 0.062793 22.0004 0.062793 28.4004 3.76279Z" fill="#FF9D26"/>
<path d="M16.8004 20.2628C12.5004 20.2628 8.20039 19.3628 4.90039 17.4628C1.60039 15.5628 -0.0996094 13.0628 -0.0996094 10.3628C-0.0996094 7.66281 1.70039 5.16282 5.00039 3.26282C11.5004 -0.53718 22.2004 -0.43718 28.7004 3.26282C32.0004 5.16282 33.7004 7.66281 33.7004 10.3628C33.7004 13.0628 31.9004 15.5628 28.6004 17.4628C25.4004 19.3628 21.1004 20.2628 16.8004 20.2628ZM16.8004 1.46282C12.7004 1.46282 8.60039 2.36281 5.50039 4.16281C2.60039 5.86281 0.900391 8.06281 0.900391 10.3628C0.900391 12.6628 2.50039 14.8628 5.40039 16.5628C11.7004 20.1628 21.8004 20.1628 28.1004 16.5628C31.0004 14.8628 32.7004 12.6628 32.7004 10.3628C32.7004 8.06281 31.1004 5.86281 28.2004 4.16281C25.0004 2.36281 20.9004 1.46282 16.8004 1.46282Z" fill="black"/>
</g>
<mask id="mask2" mask-type="alpha" maskUnits="userSpaceOnUse" x="3" y="2" width="28" height="17">
<path d="M26.2 5.16272C21.1 2.16272 12.8 2.16272 7.7 5.16272C2.6 8.06272 2.6 12.8627 7.7 15.8627C12.8 18.7627 21.1 18.8627 26.2 15.8627C31.3 12.8627 31.3 8.06272 26.2 5.16272ZM24.6 14.8627C20.4 17.2627 13.6 17.2627 9.4 14.8627C5.2 12.4627 5.2 8.56272 9.4 6.16272C13.6 3.76272 20.4 3.76272 24.6 6.16272C28.8 8.56272 28.8 12.4627 24.6 14.8627Z" fill="white"/>
</mask>
<g mask="url(#mask2)">
<path d="M26.2 5.16272C21.1 2.16272 12.8 2.16272 7.7 5.16272C2.6 8.06272 2.6 12.8627 7.7 15.8627C12.8 18.7627 21.1 18.8627 26.2 15.8627C31.3 12.8627 31.3 8.06272 26.2 5.16272ZM24.6 14.8627C20.4 17.2627 13.6 17.2627 9.4 14.8627C5.2 12.4627 5.2 8.56272 9.4 6.16272C13.6 3.76272 20.4 3.76272 24.6 6.16272C28.8 8.56272 28.8 12.4627 24.6 14.8627Z" fill="#BA6000"/>
<path d="M16.8998 18.4627C13.3998 18.4627 9.9998 17.6627 7.3998 16.1627C4.7998 14.6627 3.2998 12.5627 3.2998 10.3627C3.2998 8.16273 4.7998 6.16274 7.3998 4.56274C12.5998 1.56274 21.1998 1.56274 26.3998 4.56274C28.9998 6.06274 30.4998 8.16273 30.4998 10.3627C30.4998 12.5627 28.9998 14.6627 26.3998 16.1627C23.7998 17.7627 20.3998 18.4627 16.8998 18.4627ZM16.8998 3.36273C13.5998 3.36273 10.3998 4.06274 7.8998 5.46274C5.5998 6.76274 4.2998 8.56273 4.2998 10.3627C4.2998 12.1627 5.5998 13.9627 7.8998 15.2627C12.8998 18.1627 20.9998 18.1627 25.8998 15.2627C28.1998 13.9627 29.4998 12.1627 29.4998 10.3627C29.4998 8.56273 28.1998 6.76274 25.8998 5.46274C23.4998 4.16274 20.1998 3.36273 16.8998 3.36273ZM16.9998 17.1627C14.1998 17.1627 11.2998 16.5627 9.0998 15.2627C6.8998 13.9627 5.6998 12.2627 5.6998 10.4627C5.6998 8.66274 6.8998 6.96274 9.0998 5.66273C13.3998 3.16273 20.4998 3.16273 24.7998 5.66273C26.9998 6.96274 28.1998 8.66274 28.1998 10.4627C28.1998 12.2627 26.9998 13.9627 24.7998 15.2627C22.6998 16.4627 19.7998 17.1627 16.9998 17.1627ZM16.9998 4.86273C14.3998 4.86273 11.6998 5.46274 9.6998 6.56274C7.7998 7.66274 6.7998 9.06274 6.7998 10.4627C6.7998 11.8627 7.7998 13.3627 9.6998 14.3627C13.6998 16.6627 20.2998 16.6627 24.3998 14.3627C26.2998 13.2627 27.2998 11.9627 27.2998 10.4627C27.2998 8.96274 26.2998 7.56274 24.3998 6.56274C22.2998 5.36274 19.5998 4.86273 16.9998 4.86273Z" fill="black"/>
</g>
<mask id="mask3" mask-type="alpha" maskUnits="userSpaceOnUse" x="3" y="2" width="28" height="16">
<path d="M26.2 4.56274C21.1 1.56274 12.8 1.56274 7.7 4.56274C2.6 7.46274 2.6 12.2627 7.7 15.2627C12.8 18.1627 21.1 18.2627 26.2 15.2627C31.3 12.2627 31.3 7.46274 26.2 4.56274ZM24.6 14.2627C20.4 16.6627 13.6 16.6627 9.4 14.2627C5.2 11.8627 5.2 7.96274 9.4 5.56274C13.6 3.16274 20.4 3.16274 24.6 5.56274C28.8 7.96274 28.8 11.8627 24.6 14.2627Z" fill="white"/>
</mask>
<g mask="url(#mask3)">
<path d="M26.2 4.56274C21.1 1.56274 12.8 1.56274 7.7 4.56274C2.6 7.46274 2.6 12.2627 7.7 15.2627C12.8 18.1627 21.1 18.2627 26.2 15.2627C31.3 12.2627 31.3 7.46274 26.2 4.56274ZM24.6 14.2627C20.4 16.6627 13.6 16.6627 9.4 14.2627C5.2 11.8627 5.2 7.96274 9.4 5.56274C13.6 3.16274 20.4 3.16274 24.6 5.56274C28.8 7.96274 28.8 11.8627 24.6 14.2627Z" fill="#FF8400"/>
<path d="M16.8998 17.8628C13.3998 17.8628 9.9998 17.0628 7.3998 15.5628C4.7998 14.0628 3.2998 11.9628 3.2998 9.76277C3.2998 7.56277 4.7998 5.56277 7.3998 3.96277C12.5998 0.962769 21.1998 0.962769 26.3998 3.96277C28.9998 5.46277 30.4998 7.56277 30.4998 9.76277C30.4998 11.9628 28.9998 14.0628 26.3998 15.5628C23.7998 17.1628 20.3998 17.8628 16.8998 17.8628ZM16.8998 2.86276C13.5998 2.86276 10.3998 3.56277 7.8998 4.96277C5.5998 6.26277 4.2998 8.06276 4.2998 9.86276C4.2998 11.6628 5.5998 13.4628 7.8998 14.7628C12.8998 17.6628 20.9998 17.6628 25.8998 14.7628C28.1998 13.4628 29.4998 11.6628 29.4998 9.86276C29.4998 8.06276 28.1998 6.26277 25.8998 4.96277C23.4998 3.56277 20.1998 2.86276 16.8998 2.86276ZM16.9998 16.5628C14.1998 16.5628 11.2998 15.9628 9.0998 14.6628C6.8998 13.3628 5.6998 11.6628 5.6998 9.86276C5.6998 8.06276 6.8998 6.36277 9.0998 5.06277C13.3998 2.56277 20.4998 2.56277 24.7998 5.06277C26.9998 6.26277 28.1998 7.96276 28.1998 9.86276C28.1998 11.6628 26.9998 13.3628 24.7998 14.6628C22.6998 15.9628 19.7998 16.5628 16.9998 16.5628ZM16.9998 4.26277C14.3998 4.26277 11.6998 4.86277 9.6998 5.96277C7.7998 7.06277 6.7998 8.46276 6.7998 9.86276C6.7998 11.3628 7.7998 12.7628 9.6998 13.7628C13.6998 16.0628 20.2998 16.0628 24.3998 13.7628C26.2998 12.6628 27.2998 11.2628 27.2998 9.86276C27.2998 8.36276 26.2998 7.06277 24.3998 5.96277C22.2998 4.86277 19.5998 4.26277 16.9998 4.26277Z" fill="black"/>
</g>
<mask id="mask4" mask-type="alpha" maskUnits="userSpaceOnUse" x="9" y="6" width="16" height="9">
<path d="M22.6002 12.7627C23.3002 12.2627 23.6002 11.6627 23.6002 11.1627V10.0627L23.2002 10.1627C23.0002 9.96273 22.8002 9.76274 22.4002 9.56274C21.0002 8.76274 19.3002 8.66273 16.8002 9.36273C15.0002 9.86273 14.1002 9.96273 13.5002 9.66273C13.1002 9.36274 12.9002 8.96273 14.0002 8.36273C15.1002 7.66273 16.2002 7.46273 16.8002 7.36273V6.26274L15.5002 6.06274C14.7002 6.16274 13.8002 6.46274 12.7002 7.06274L11.3002 6.26274L9.7002 6.06274V7.16273L11.2002 8.06274C10.9002 8.26274 10.7002 8.56273 10.5002 8.86273L10.2002 8.66273V9.76274C10.2002 10.3627 10.6002 10.8627 11.3002 11.2627C12.8002 12.1627 14.8002 11.9627 17.0002 11.2627C18.6002 10.8627 19.5002 10.7627 20.1002 11.0627C20.7002 11.4627 20.5002 11.9627 19.6002 12.4627C18.7002 12.9627 17.2002 12.3627 16.3002 12.5627V13.6627L17.7002 14.9627C18.6002 14.8627 20.0002 14.3627 21.1002 13.8627L22.6002 14.7627L24.2002 13.8627V12.8627L22.6002 12.7627Z" fill="white"/>
</mask>
<g mask="url(#mask4)">
<path d="M22.6002 12.7627C23.3002 12.2627 23.6002 11.6627 23.6002 11.1627V10.0627L23.2002 10.1627C23.0002 9.96273 22.8002 9.76274 22.4002 9.56274C21.0002 8.76274 19.3002 8.66273 16.8002 9.36273C15.0002 9.86273 14.1002 9.96273 13.5002 9.66273C13.1002 9.36274 12.9002 8.96273 14.0002 8.36273C15.1002 7.66273 16.2002 7.46273 16.8002 7.36273V6.26274L15.5002 6.06274C14.7002 6.16274 13.8002 6.46274 12.7002 7.06274L11.3002 6.26274L9.7002 6.06274V7.16273L11.2002 8.06274C10.9002 8.26274 10.7002 8.56273 10.5002 8.86273L10.2002 8.66273V9.76274C10.2002 10.3627 10.6002 10.8627 11.3002 11.2627C12.8002 12.1627 14.8002 11.9627 17.0002 11.2627C18.6002 10.8627 19.5002 10.7627 20.1002 11.0627C20.7002 11.4627 20.5002 11.9627 19.6002 12.4627C18.7002 12.9627 17.2002 12.3627 16.3002 12.5627V13.6627L17.7002 14.9627C18.6002 14.8627 20.0002 14.3627 21.1002 13.8627L22.6002 14.7627L24.2002 13.8627V12.8627L22.6002 12.7627Z" fill="#BA6000"/>
<path d="M17.9006 15.4628L17.5006 15.3628L16.1006 14.0628L15.9006 13.6628V12.5628L16.3006 12.0628C16.8006 11.9628 17.3006 12.0628 17.8006 12.0628C18.4006 12.1628 19.1006 12.2628 19.4006 12.0628C19.8006 11.8628 20.0006 11.6628 20.0006 11.5628C20.0006 11.5628 20.0006 11.5628 19.9006 11.4628C19.5006 11.1628 18.7006 11.2628 17.2006 11.6628C15.2006 12.2628 12.9006 12.6628 11.1006 11.5628C10.0006 10.9628 9.70058 10.1628 9.70058 9.56277V8.46277L10.2006 8.16277C10.2006 8.06277 10.3006 8.06277 10.3006 7.96277L9.40059 7.46277L9.10059 7.06277V5.96277L9.70058 5.46277L11.4006 5.66277L12.6006 6.36276C13.5006 5.86276 14.4006 5.56277 15.3006 5.46277H15.5006L16.8006 5.66277L17.2006 6.16277V7.26277L16.8006 7.76277L16.5006 7.86276C15.9006 7.96276 15.0006 8.26277 14.1006 8.76277C13.8006 8.96277 13.6006 9.06277 13.6006 9.16277C13.6006 9.16277 13.6006 9.16277 13.7006 9.16277C14.1006 9.36277 15.1006 9.16277 16.6006 8.76277C19.2006 8.06277 21.0006 8.16277 22.6006 8.96277C22.9006 9.06277 23.1006 9.26277 23.3006 9.46277H23.4006L24.0006 9.96277V11.0628C24.0006 11.3628 23.9006 11.7628 23.6006 12.1628H24.0006L24.5006 12.6628V13.6628L24.2006 14.0628L22.6006 14.9628H22.1006L20.8006 14.2628C20.1006 14.8628 18.8006 15.2628 17.9006 15.4628ZM16.9006 13.3628L17.9006 14.3628C18.8006 14.1628 20.0006 13.7628 20.9006 13.2628H21.4006L22.7006 13.9628L23.7006 13.3628V13.1628L22.6006 13.2628L22.3006 12.3628C22.8006 11.9628 23.1006 11.4628 23.2006 11.0628V10.4628L22.9006 10.3628C22.7006 10.1628 22.5006 9.96276 22.3006 9.86276C21.0006 9.06276 19.5006 9.06277 17.1006 9.66277C15.1006 10.1628 14.2006 10.3628 13.5006 9.96277C13.0006 9.66277 12.9006 9.26277 12.9006 9.06277C12.9006 8.56277 13.3006 8.16277 14.0006 7.76277C15.0006 7.16277 15.9006 6.96277 16.5006 6.76277V6.56277L15.7006 6.36276C14.8006 6.56276 14.0006 6.86277 13.1006 7.26277H12.6006L11.3006 6.56277L10.4006 6.46277V6.66277L11.6006 7.36276L11.7006 8.16277C11.5006 8.36277 11.3006 8.56277 11.1006 8.76277H10.9006V9.36276C10.9006 9.76276 11.2006 10.1628 11.8006 10.4628C13.0006 11.1628 14.6006 11.1628 17.1006 10.4628C18.6006 10.0628 19.7006 9.86276 20.5006 10.3628C21.0006 10.6628 21.1006 11.0628 21.1006 11.2628C21.1006 11.7628 20.7006 12.2628 20.0006 12.6628C19.3006 13.0628 18.5006 12.9628 17.7006 12.8628C17.4006 12.8628 17.1006 12.7628 16.9006 12.7628V13.3628Z" fill="black"/>
</g>
<mask id="mask5" mask-type="alpha" maskUnits="userSpaceOnUse" x="9" y="4" width="16" height="10">
<path d="M22.6002 13.5628L21.1002 12.6628C20.0002 13.2628 18.7002 13.6628 17.7002 13.7628L16.3002 12.4628C17.3002 12.2628 18.6002 11.9628 19.6002 11.3628C20.5002 10.8628 20.8002 10.2628 20.1002 9.96277C19.5002 9.66277 18.6002 9.66277 17.0002 10.1628C14.7002 10.7628 12.8002 11.0628 11.3002 10.1628C9.9002 9.36277 9.8002 8.16277 11.2002 6.96277L9.7002 6.06277L11.3002 5.16277L12.7002 5.96277C13.8002 5.36277 14.7002 5.06277 15.5002 4.96277L16.8002 6.26277C16.2002 6.36277 15.1002 6.56277 14.0002 7.26277C13.0002 7.86277 13.1002 8.26277 13.5002 8.56277C14.0002 8.86277 14.9002 8.76277 16.8002 8.26277C19.3002 7.56277 21.0002 7.66277 22.4002 8.46277C23.8002 9.26277 24.0002 10.5628 22.5002 11.7628L24.1002 12.6628L22.6002 13.5628Z" fill="white"/>
</mask>
<g mask="url(#mask5)">
<path d="M22.6002 13.5628L21.1002 12.6628C20.0002 13.2628 18.7002 13.6628 17.7002 13.7628L16.3002 12.4628C17.3002 12.2628 18.6002 11.9628 19.6002 11.3628C20.5002 10.8628 20.8002 10.2628 20.1002 9.96277C19.5002 9.66277 18.6002 9.66277 17.0002 10.1628C14.7002 10.7628 12.8002 11.0628 11.3002 10.1628C9.9002 9.36277 9.8002 8.16277 11.2002 6.96277L9.7002 6.06277L11.3002 5.16277L12.7002 5.96277C13.8002 5.36277 14.7002 5.06277 15.5002 4.96277L16.8002 6.26277C16.2002 6.36277 15.1002 6.56277 14.0002 7.26277C13.0002 7.86277 13.1002 8.26277 13.5002 8.56277C14.0002 8.86277 14.9002 8.76277 16.8002 8.26277C19.3002 7.56277 21.0002 7.66277 22.4002 8.46277C23.8002 9.26277 24.0002 10.5628 22.5002 11.7628L24.1002 12.6628L22.6002 13.5628Z" fill="#FF8400"/>
<path d="M17.8006 14.3627L17.4006 14.2627L16.0006 12.9627L16.3006 12.0627C17.2006 11.8627 18.5006 11.5627 19.5006 11.0627C20.0006 10.7627 20.1006 10.5627 20.1006 10.5627C20.1006 10.5627 20.1006 10.5627 20.0006 10.4627C19.6006 10.1627 18.8006 10.2627 17.3006 10.6627C15.3006 11.2627 13.0006 11.6627 11.2006 10.5627C10.2006 9.96274 9.90059 9.26274 9.90059 8.76274C9.90059 8.36274 10.0006 7.76274 10.5006 7.06274L9.60059 6.56274V5.66273L11.2006 4.76274H11.7006L12.9006 5.46274C13.8006 5.06274 14.7006 4.76274 15.6006 4.56274L16.1006 4.66273L17.4006 5.96274L17.2006 6.76274H17.1006C16.5006 6.86274 15.5006 7.06274 14.5006 7.66273C14.0006 7.96273 13.9006 8.06274 13.9006 8.06274C14.4006 8.26274 15.4006 8.06274 16.8006 7.66273C19.4006 6.96273 21.2006 7.06273 22.8006 7.86273C23.9006 8.46273 24.2006 9.26274 24.2006 9.76274C24.2006 10.1627 24.1006 10.8627 23.5006 11.5627L24.5006 12.1627V13.0627L23.0006 13.9627H22.5006L21.2006 13.2627C20.0006 13.7627 18.8006 14.1627 17.8006 14.3627ZM17.4006 12.7627L17.9006 13.2627C18.8006 13.0627 19.9006 12.6627 20.9006 12.1627H21.4006L22.6006 12.8627L23.1006 12.5627L22.2006 12.0627L22.1006 11.2627C22.7006 10.7627 23.0006 10.2627 22.9006 9.86273C22.9006 9.36273 22.4006 8.96274 22.0006 8.76274C20.7006 8.06274 19.2006 7.96273 16.8006 8.66273C14.8006 9.16273 13.9006 9.36274 13.2006 8.96274C12.7006 8.66274 12.6006 8.26274 12.6006 8.06274C12.6006 7.56274 12.9006 7.16274 13.7006 6.76274C14.5006 6.36274 15.2006 6.06274 15.8006 5.96274L15.3006 5.46274C14.5006 5.66274 13.7006 5.96273 12.9006 6.36273H12.4006L11.3006 5.66273L10.8006 5.96274L11.6006 6.36273L11.7006 7.16273C11.3006 7.46273 10.9006 7.96274 10.9006 8.46274C10.9006 8.96274 11.4006 9.26274 11.8006 9.46274C13.0006 10.1627 14.6006 10.1627 17.1006 9.46274C18.6006 9.06274 19.7006 8.86273 20.5006 9.36273C21.0006 9.66273 21.1006 10.0627 21.1006 10.2627C21.1006 10.7627 20.7006 11.2627 20.0006 11.6627C19.3006 12.2627 18.4006 12.5627 17.4006 12.7627Z" fill="black"/>
</g>
</svg>
