<svg width="190" height="188" viewBox="0 0 190 188" fill="none" xmlns="http://www.w3.org/2000/svg">
<circle cx="94" cy="94" r="67" stroke="#FEFEFE" stroke-width="2"/>
<path d="M94.2929 107.707C94.6834 108.098 95.3166 108.098 95.7071 107.707L102.071 101.343C102.462 100.953 102.462 100.319 102.071 99.9289C101.681 99.5384 101.047 99.5384 100.657 99.9289L95 105.586L89.3431 99.9289C88.9526 99.5384 88.3195 99.5384 87.9289 99.9289C87.5384 100.319 87.5384 100.953 87.9289 101.343L94.2929 107.707ZM94 73V107H96V73H94Z" fill="#FEFEFE"/>
<path d="M71 103V114C71 116.209 72.7909 118 75 118H115C117.209 118 119 116.209 119 114V103" stroke="#FEFEFE" stroke-width="2"/>
</svg>
