<svg width="189" height="188" viewBox="0 0 189 188" fill="none" xmlns="http://www.w3.org/2000/svg">
<path d="M37.727 28.0891L35.5579 29.0504L35.063 27.8155L37.3539 27.0351L35.6193 25.1319L36.6448 24.2711L38.2363 26.3531L39.3867 24.2646L40.5204 24.9926L39.1662 26.9886L41.5869 27.5543L41.2642 28.8603L38.8527 28.072L39.1701 30.5301L37.8448 30.6464L37.727 28.0891Z" fill="#333333"/>
<path d="M61.1872 17.7318C61.6095 18.8148 61.6334 19.8134 61.2588 20.7274C60.8821 21.637 60.1401 22.3679 59.033 22.92C58.2594 23.3058 57.4853 23.4641 56.711 23.3951C55.9388 23.3193 55.223 23.0239 54.5636 22.5088C53.9042 21.9938 53.3435 21.2935 52.8815 20.4079L52.4261 19.5024C51.9663 18.588 51.7235 17.7015 51.6976 16.8427C51.6717 15.984 51.8663 15.2152 52.2813 14.5363C52.7007 13.8553 53.3083 13.3163 54.1042 12.9194C55.1757 12.385 56.1845 12.2456 57.1305 12.5012C58.0765 12.7568 58.8696 13.3884 59.5098 14.396L57.8291 15.2341C57.3986 14.5772 56.9419 14.1776 56.4589 14.0354C55.978 13.8865 55.4219 13.9695 54.7906 14.2843C54.0569 14.6502 53.6273 15.2003 53.5017 15.9347C53.3782 16.6625 53.5721 17.5457 54.0833 18.5844L54.5152 19.4433C55.042 20.4909 55.6305 21.1967 56.2808 21.5609C56.9355 21.9229 57.6252 21.9231 58.35 21.5617C59.0125 21.2314 59.4357 20.8343 59.6196 20.3706C59.8035 19.9069 59.7658 19.3067 59.5065 18.5699L61.1872 17.7318Z" fill="#333333"/>
<path d="M63.5099 13.3902L65.6285 12.687C66.3868 12.4353 67.092 12.3459 67.744 12.4188C68.396 12.4918 68.9497 12.7184 69.4052 13.0986C69.8606 13.4789 70.1948 13.9836 70.4076 14.6127C70.734 15.5777 70.667 16.4629 70.2066 17.2681C69.751 18.0718 68.9584 18.6664 67.8289 19.0519L63.869 20.3663L60.3744 10.0349L62.1731 9.43789L63.5099 13.3902ZM74.3125 16.8997L72.521 17.4944L69.0263 7.16299L70.8179 6.56831L74.3125 16.8997ZM63.9972 14.8306L65.1828 18.3359L67.2943 17.635C67.9009 17.4337 68.3173 17.1139 68.5434 16.6758C68.7726 16.2314 68.7953 15.7372 68.6112 15.1932C68.4352 14.6729 68.1301 14.3164 67.696 14.1237C67.2618 13.9311 66.7493 13.9276 66.1584 14.1132L63.9972 14.8306Z" fill="#333333"/>
<path d="M80.8524 6.17308L75.939 7.1428L77.7602 16.294L75.9177 16.6577L73.7997 6.01534L80.5556 4.68199L80.8524 6.17308Z" fill="#333333"/>
<path d="M85.3374 11.01L85.6889 15.0265L83.8104 15.1895L82.8646 4.37974L87.0001 4.02087C88.2079 3.91607 89.1932 4.14726 89.956 4.71442C90.7238 5.28116 91.153 6.08176 91.2435 7.11621C91.3361 8.1754 91.0593 9.02978 90.4129 9.67934C89.7715 10.3285 88.8246 10.7074 87.5723 10.816L85.3374 11.01ZM85.2056 9.50282L87.4627 9.30696C88.1309 9.24898 88.6271 9.04883 88.9513 8.70651C89.275 8.35925 89.4109 7.88864 89.3589 7.2947C89.3078 6.71066 89.0889 6.26087 88.7022 5.94532C88.315 5.62483 87.8092 5.4867 87.1846 5.53092L84.8755 5.73129L85.2056 9.50282Z" fill="#333333"/>
<path d="M98.4469 12.1105L94.2445 12.0243L93.313 14.5321L91.3534 14.4919L95.6759 3.72727L97.3673 3.76196L101.248 14.6949L99.2813 14.6546L98.4469 12.1105ZM94.805 10.5151L97.9493 10.5796L96.4702 6.04691L94.805 10.5151Z" fill="#333333"/>
<path d="M110.28 5.05762L112.146 5.33097L110.56 16.0655L108.694 15.7921L109.824 8.14675L103.982 15.1018L102.116 14.8284L103.702 4.09388L105.568 4.36723L104.437 12.02L110.28 5.05762ZM110.743 2.33102C110.652 2.95032 110.361 3.41997 109.872 3.73996C109.383 4.05995 108.777 4.167 108.054 4.06112C107.331 3.95524 106.782 3.67892 106.406 3.23216C106.03 2.7854 105.888 2.25236 105.979 1.63306L107.322 1.8297C107.274 2.1541 107.327 2.42055 107.482 2.62906C107.643 2.83337 107.885 2.9593 108.21 3.00684C108.534 3.05438 108.801 3.003 109.009 2.85271C109.217 2.6975 109.346 2.4577 109.394 2.1333L110.743 2.33102Z" fill="#333333"/>
<path d="M115.752 17.3558L119.137 7.02552L122.685 8.16261C123.856 8.53784 124.67 9.05758 125.128 9.72182C125.586 10.3861 125.664 11.1817 125.36 12.1088C125.205 12.5818 124.937 12.9665 124.557 13.2628C124.177 13.5592 123.707 13.7325 123.146 13.7826C123.655 14.1132 123.993 14.5376 124.158 15.0558C124.33 15.5708 124.32 16.1215 124.128 16.7081C123.81 17.6777 123.253 18.3224 122.457 18.6422C121.665 18.9635 120.689 18.938 119.528 18.5658L115.752 17.3558ZM119.079 13.2709L118.021 16.4991L120.019 17.1395C120.583 17.3203 121.069 17.322 121.478 17.1447C121.887 16.9674 122.173 16.6305 122.336 16.1338C122.688 15.0601 122.318 14.3352 121.226 13.9591L119.079 13.2709ZM119.511 11.9513L121.274 12.5164C121.834 12.6957 122.311 12.7101 122.706 12.5596C123.107 12.406 123.384 12.0974 123.536 11.6339C123.703 11.123 123.677 10.707 123.457 10.3858C123.243 10.0661 122.827 9.80747 122.211 9.60998L120.462 9.04941L119.511 11.9513Z" fill="#333333"/>
<path d="M138.702 15.1319L140.375 16.002L135.335 25.6114L133.662 24.7413L137.252 17.8973L129.437 22.5437L127.764 21.6736L132.805 12.0642L134.478 12.9343L130.884 19.7849L138.702 15.1319Z" fill="#333333"/>
<path d="M147.841 22.6637L143.663 19.8713L138.411 27.6231L136.844 26.576L142.951 17.561L148.697 21.4006L147.841 22.6637Z" fill="#333333"/>
<path d="M147.465 29.2815L144.85 32.3503L143.41 31.1332L150.448 22.8743L153.619 25.5538C154.545 26.3363 155.074 27.197 155.208 28.1359C155.345 29.078 155.077 29.9442 154.403 30.7345C153.714 31.5438 152.91 31.9473 151.991 31.9451C151.076 31.9461 150.139 31.5409 149.179 30.7295L147.465 29.2815ZM148.447 28.1301L150.177 29.5925C150.689 30.0254 151.182 30.2367 151.654 30.2261C152.13 30.2118 152.561 29.9778 152.948 29.524C153.328 29.0777 153.494 28.6068 153.447 28.1112C153.402 27.6118 153.144 27.1563 152.673 26.7446L150.902 25.2485L148.447 28.1301Z" fill="#333333"/>
<path d="M156.789 36.2738L162.455 33.9514L163.904 35.4856L154.685 38.9347L153.95 39.1519C152.958 39.3987 152.077 39.1144 151.307 38.2991L150.803 37.7004L151.907 36.682C151.975 36.783 152.114 36.9446 152.324 37.1666C152.695 37.5597 153.124 37.6785 153.61 37.523L154.551 37.1739L157.779 28.9995L159.202 30.5064L156.789 36.2738Z" fill="#333333"/>
<path d="M171.463 46.0175L172.52 47.5867L163.482 53.6594L162.424 52.0903L168.862 47.7651L159.753 48.1272L158.696 46.5581L167.735 40.4853L168.792 42.0544L162.348 46.3838L171.463 46.0175Z" fill="#333333"/>
<path d="M169.469 66.167L168.708 64.4498L177.251 60.6977L175.317 56.3297L166.773 60.0819L166.013 58.3647L175.948 54.0012L179.404 61.8035L169.469 66.167Z" fill="#333333"/>
<path d="M177.451 74.6547C176.426 74.9525 175.473 75.0371 174.592 74.9086C173.715 74.7787 172.971 74.4443 172.358 73.9053C171.752 73.3697 171.321 72.6738 171.067 71.8176C170.816 70.971 170.798 70.1554 171.013 69.3709C171.234 68.5898 171.674 67.9061 172.332 67.32C172.993 66.7386 173.823 66.3001 174.823 66.0044L175.412 65.8333C176.432 65.5368 177.386 65.4546 178.274 65.5865C179.162 65.7232 179.91 66.0593 180.517 66.5949C181.129 67.1339 181.562 67.8291 181.814 68.6805C182.067 69.5319 182.085 70.3451 181.867 71.12C181.656 71.8984 181.217 72.5789 180.552 73.1617C179.892 73.7431 179.053 74.1844 178.034 74.4856L177.451 74.6547ZM177.459 72.6808C178.619 72.3441 179.442 71.8659 179.929 71.2464C180.418 70.6316 180.544 69.9224 180.305 69.1189C180.073 68.3344 179.581 67.8096 178.831 67.5442C178.087 67.2823 177.151 67.3101 176.022 67.6276L175.419 67.8029C174.269 68.1369 173.446 68.6175 172.95 69.2446C172.456 69.8765 172.327 70.5894 172.562 71.3834C172.801 72.187 173.29 72.7149 174.031 72.9673C174.774 73.2244 175.734 73.1818 176.913 72.8395L177.459 72.6808Z" fill="#333333"/>
<path d="M184.79 83.7826L174.083 85.5403L173.776 83.6874L182.983 82.176L182.441 78.8968L178.269 79.3852C176.962 79.5242 175.931 79.5299 175.174 79.4023C174.424 79.2788 173.846 79.0136 173.441 78.6068C173.036 78.1999 172.77 77.6093 172.642 76.8348L172.564 76.3642L174.049 76.1204L174.12 76.4109C174.23 76.8309 174.434 77.1347 174.732 77.3225C175.031 77.5151 175.452 77.6272 175.996 77.6587C176.546 77.6943 177.337 77.6525 178.37 77.5334L183.648 76.8785L184.79 83.7826Z" fill="#333333"/>
<path d="M179.55 90.9083L185.31 92.8411L185.4 94.9333L176.243 91.5416L175.551 91.2279C174.646 90.7692 174.169 89.9839 174.122 88.872L174.133 88.0957L175.623 88.0472C175.608 88.1671 175.607 88.3785 175.62 88.6813C175.643 89.2174 175.888 89.5849 176.354 89.7839L177.286 90.132L185.02 86.0878L185.108 88.1428L179.55 90.9083Z" fill="#333333"/>
<path d="M184.678 105.508L173.858 104.685L174.002 102.812L178.26 103.136C178.118 102.318 178.081 101.473 178.148 100.601C178.247 99.3085 178.607 98.3517 179.227 97.7313C179.848 97.1108 180.733 96.8418 181.883 96.9244L185.316 97.1856L185.173 99.0582L181.725 98.7958C181.036 98.7483 180.533 98.8695 180.217 99.1594C179.9 99.4492 179.714 99.9682 179.656 100.716C179.59 101.578 179.63 102.423 179.776 103.252L184.821 103.636L184.678 105.508Z" fill="#333333"/>
<path d="M182.885 115.073L182.503 116.919L171.873 114.737L172.256 112.891L179.826 114.445L173.221 108.227L173.603 106.381L184.233 108.563L183.85 110.41L176.273 108.854L182.885 115.073Z" fill="#333333"/>
<path d="M164.11 128.132L164.779 126.467L167.268 127.453L169.941 120.798L167.452 119.812L168.132 118.118L172.048 119.605L171.722 120.417C171.95 120.974 172.386 121.52 173.031 122.054C173.681 122.59 174.462 123.079 175.375 123.522L179.76 125.565L177.202 131.935L168.483 128.481L167.967 129.765L164.11 128.132ZM170.925 122.402L169.185 126.732L176.486 129.625L177.67 126.675L174.887 125.379C173.032 124.5 171.711 123.507 170.925 122.402Z" fill="#333333"/>
<path d="M166.405 139.726C165.477 139.207 164.752 138.591 164.23 137.879C163.712 137.168 163.432 136.409 163.391 135.601C163.352 134.799 163.551 134.011 163.988 133.236C164.419 132.47 164.991 131.89 165.703 131.497C166.417 131.11 167.213 130.946 168.093 131.005C168.97 131.068 169.863 131.351 170.772 131.853L171.305 132.151C172.229 132.667 172.953 133.285 173.477 134.004C173.999 134.728 174.279 135.491 174.318 136.292C174.359 137.1 174.162 137.89 173.728 138.66C173.294 139.431 172.724 140.009 172.017 140.393C171.312 140.785 170.518 140.948 169.637 140.882C168.76 140.819 167.859 140.532 166.932 140.02L166.405 139.726ZM167.825 138.359C168.875 138.945 169.792 139.196 170.575 139.11C171.357 139.029 171.952 138.624 172.362 137.897C172.762 137.187 172.796 136.475 172.463 135.759C172.132 135.051 171.459 134.408 170.445 133.83L169.898 133.524C168.857 132.943 167.939 132.695 167.144 132.78C166.347 132.869 165.746 133.274 165.341 133.992C164.931 134.719 164.894 135.433 165.23 136.133C165.563 136.837 166.264 137.487 167.331 138.083L167.825 138.359Z" fill="#333333"/>
<path d="M156.06 145.16L157.179 143.654L164.646 149.232L167.492 145.401L160.024 139.823L161.143 138.317L169.827 144.804L164.745 151.646L156.06 145.16Z" fill="#333333"/>
<path d="M152.644 156.169C151.875 155.435 151.326 154.658 150.999 153.837C150.674 153.019 150.593 152.213 150.755 151.42C150.917 150.634 151.305 149.92 151.921 149.278C152.529 148.643 153.227 148.224 154.014 148.02C154.801 147.823 155.613 147.863 156.449 148.14C157.282 148.419 158.076 148.916 158.83 149.629L159.272 150.051C160.038 150.782 160.585 151.561 160.913 152.389C161.237 153.221 161.319 154.03 161.157 154.816C160.995 155.609 160.608 156.325 159.996 156.964C159.384 157.602 158.688 158.02 157.908 158.216C157.128 158.419 156.32 158.379 155.484 158.096C154.651 157.816 153.85 157.313 153.081 156.586L152.644 156.169ZM154.358 155.199C155.228 156.029 156.053 156.5 156.833 156.613C157.61 156.729 158.287 156.486 158.864 155.883C159.428 155.295 159.638 154.613 159.494 153.837C159.35 153.068 158.859 152.277 158.022 151.464L157.569 151.031C156.706 150.208 155.88 149.739 155.089 149.623C154.295 149.511 153.613 149.752 153.042 150.348C152.465 150.95 152.251 151.632 152.402 152.394C152.549 153.16 153.065 153.964 153.949 154.808L154.358 155.199Z" fill="#333333"/>
<path d="M148.364 167.125L141.487 158.731L142.945 157.547L148.858 164.764L151.438 162.668L148.929 159.301C148.156 158.239 147.636 157.349 147.369 156.632C147.101 155.921 147.043 155.289 147.195 154.737C147.346 154.185 147.727 153.662 148.336 153.167L148.706 152.866L149.66 154.031L149.443 154.236C149.133 154.539 148.97 154.866 148.956 155.217C148.938 155.571 149.051 155.992 149.295 156.478C149.539 156.971 149.97 157.635 150.59 158.47L153.796 162.712L148.364 167.125Z" fill="#333333"/>
<path d="M132.676 164.26L134.284 163.275L136.853 167.378L141.007 164.833L138.438 160.729L140.052 159.74L145.834 168.974L144.22 169.964L141.813 166.12L137.66 168.666L140.066 172.509L138.458 173.494L132.676 164.26Z" fill="#333333"/>
<path d="M129.662 177.627L127.944 178.405L123.436 168.535L125.153 167.757L128.364 174.787L129.491 165.792L131.209 165.014L135.717 174.884L134 175.662L130.785 168.626L129.662 177.627Z" fill="#333333"/>
<path d="M117.119 180.347L120.346 179.33L117.519 170.438L119.303 169.875L122.13 178.767L125.329 177.759L125.789 179.207L117.58 181.796L117.119 180.347Z" fill="#333333"/>
<path d="M108.027 177.642L112.417 176.768L111.743 173.482L106.612 174.505L106.308 173.023L113.297 171.631L115.485 182.308L108.548 183.69L108.241 182.194L113.321 181.182L112.717 178.234L108.327 179.109L108.027 177.642Z" fill="#333333"/>
<path d="M97.2076 184.79L96.336 173.94L98.2143 173.797L98.9638 183.126L102.288 182.871L102.145 178.661C102.114 177.344 102.194 176.313 102.384 175.569C102.57 174.83 102.883 174.276 103.323 173.908C103.763 173.539 104.376 173.325 105.161 173.264L105.638 173.228L105.759 174.733L105.463 174.778C105.034 174.851 104.713 175.028 104.501 175.309C104.283 175.591 104.136 176.002 104.06 176.543C103.978 177.089 103.955 177.883 103.989 178.925L104.207 184.254L97.2076 184.79Z" fill="#333333"/>
<path d="M92.4804 180.499L90.2614 180.409C89.4671 180.377 88.7801 180.213 88.2005 179.916C87.6209 179.619 87.1874 179.213 86.9001 178.699C86.6128 178.186 86.4827 177.598 86.5097 176.938C86.551 175.926 86.9293 175.125 87.6445 174.538C88.3547 173.95 89.3033 173.675 90.4902 173.713L94.6379 173.881L94.1949 184.723L92.311 184.647L92.4804 180.499ZM92.5422 178.988L92.6925 175.309L90.4809 175.22C89.8454 175.194 89.3445 175.345 88.978 175.673C88.6064 176.006 88.4089 176.458 88.3856 177.029C88.3633 177.575 88.5194 178.014 88.8539 178.346C89.1884 178.678 89.6633 178.861 90.2784 178.896L92.5422 178.988Z" fill="#333333"/>
<path d="M77.0529 172.05L78.9068 172.35L78.1303 177.109L82.9196 177.884L83.6962 173.126L85.5575 173.427L83.8099 184.136L81.9486 183.835L82.676 179.378L77.8866 178.603L77.1592 183.06L75.3053 182.76L77.0529 172.05Z" fill="#333333"/>
<path d="M71.5232 177.529L69.4043 176.863C68.6458 176.625 68.0258 176.287 67.5442 175.85C67.0626 175.412 66.7506 174.908 66.6082 174.337C66.4657 173.767 66.4942 173.166 66.6937 172.536C66.9996 171.57 67.575 170.897 68.4199 170.516C69.26 170.134 70.248 170.116 71.384 170.463L75.3444 171.706L72.0691 182.051L70.2702 181.486L71.5232 177.529ZM64.8993 168.426L66.6911 168.989L63.4158 179.334L61.6239 178.771L64.8993 168.426ZM71.9798 176.086L73.0911 172.577L70.9793 171.913C70.3726 171.723 69.8492 171.738 69.4091 171.959C68.9629 172.184 68.6535 172.568 68.481 173.113C68.3161 173.634 68.3515 174.098 68.5873 174.506C68.8232 174.913 69.2335 175.214 69.8183 175.408L71.9798 176.086Z" fill="#333333"/>
<path d="M55.6096 169.387L59.6514 171.265L61.0678 168.241L56.3433 166.046L56.982 164.683L63.4164 167.672L58.8131 177.499L52.426 174.531L53.0709 173.155L57.7481 175.327L59.019 172.614L54.9772 170.737L55.6096 169.387Z" fill="#333333"/>
<path d="M41.9652 166.262L46.1246 169.038L47.5934 166.855L45.7462 165.623C45.085 165.181 44.5848 164.683 44.2456 164.128C43.9064 163.573 43.7487 163.002 43.7727 162.415C43.7966 161.828 43.9931 161.26 44.362 160.712C44.9279 159.871 45.6701 159.386 46.5885 159.259C47.5028 159.128 48.4565 159.388 49.4498 160.039L52.9025 162.344L46.844 171.346L41.1163 167.523L41.9652 166.262ZM48.4381 165.6L50.4937 162.546L48.6526 161.317C48.1237 160.964 47.6168 160.832 47.1319 160.921C46.6402 161.011 46.2348 161.293 45.9158 161.767C45.6107 162.22 45.514 162.675 45.6257 163.132C45.7375 163.589 46.0468 163.992 46.5537 164.343L48.4381 165.6Z" fill="#333333"/>
<path d="M35.3734 155.384C36.0678 154.575 36.8171 153.986 37.6214 153.615C38.4225 153.248 39.224 153.125 40.0259 153.246C40.8207 153.368 41.5552 153.721 42.2291 154.304C42.8955 154.881 43.3509 155.559 43.5951 156.337C43.8324 157.116 43.8345 157.931 43.6015 158.783C43.3646 159.633 42.909 160.454 42.2346 161.246L41.8355 161.711C41.1443 162.516 40.393 163.104 39.5817 163.475C38.7667 163.843 37.9617 163.967 37.1668 163.845C36.3649 163.724 35.6289 163.373 34.9587 162.793C34.2885 162.212 33.835 161.536 33.5983 160.765C33.3545 159.994 33.3527 159.182 33.5927 158.329C33.8296 157.48 34.2917 156.651 34.9791 155.843L35.3734 155.384ZM36.4323 157.052C35.647 157.966 35.2182 158.817 35.146 159.605C35.07 160.389 35.3483 161.055 35.9808 161.602C36.5983 162.137 37.2914 162.312 38.0602 162.128C38.8219 161.944 39.5878 161.412 40.3579 160.531L40.7668 160.054C41.5456 159.148 41.9725 158.295 42.0474 157.497C42.1186 156.696 41.8417 156.024 41.2167 155.483C40.5841 154.935 39.8908 154.757 39.1366 154.947C38.3786 155.134 37.6005 155.692 36.8022 156.621L36.4323 157.052Z" fill="#333333"/>
<path d="M31.9997 144.193L33.2612 145.584L29.6757 148.808L32.9346 152.402L36.5201 149.178L37.7866 150.575L29.7178 157.83L28.4513 156.434L31.8096 153.414L28.5508 149.82L25.1924 152.839L23.9309 151.448L31.9997 144.193Z" fill="#333333"/>
<path d="M24.3943 142.68L18.4581 144.182L17.2379 142.462L26.8497 140.345L27.6077 140.233C28.6251 140.128 29.458 140.533 30.1065 141.447L30.5212 142.109L29.2857 142.961C29.2326 142.852 29.1177 142.672 28.9411 142.424C28.6285 141.983 28.2204 141.805 27.7168 141.891L26.7364 142.104L22.3966 149.732L21.1981 148.043L24.3943 142.68Z" fill="#333333"/>
<path d="M18.9499 130.157C20.0183 129.697 21.0179 129.637 21.949 129.977C22.8756 130.32 23.6378 131.033 24.2355 132.116C24.6532 132.873 24.843 133.638 24.8049 134.412C24.76 135.184 24.4927 135.908 24.003 136.584C23.5134 137.26 22.8341 137.844 21.9653 138.337L21.0761 138.823C20.1783 139.314 19.2996 139.589 18.4401 139.645C17.5806 139.702 16.8024 139.536 16.1054 139.148C15.4061 138.754 14.8416 138.168 14.4119 137.39C13.8334 136.341 13.6532 135.341 13.8713 134.389C14.0894 133.437 14.6905 132.624 15.6745 131.95L16.5819 133.594C15.9408 134.047 15.5587 134.516 15.4356 135.003C15.3058 135.487 15.4113 136.039 15.7521 136.656C16.1482 137.374 16.7168 137.782 17.4578 137.881C18.192 137.977 19.0693 137.752 20.0897 137.205L20.933 136.744C21.9616 136.181 22.6453 135.569 22.9841 134.907C23.3206 134.242 23.2931 133.555 22.9018 132.846C22.5442 132.197 22.1293 131.79 21.6573 131.624C21.1852 131.457 20.5852 131.517 19.8573 131.802L18.9499 130.157Z" fill="#333333"/>
<path d="M14.5538 128.008L13.7609 125.934C13.477 125.191 13.3573 124.496 13.4017 123.846C13.4461 123.197 13.648 122.64 14.0072 122.174C14.3664 121.709 14.855 121.359 15.4729 121.125C16.4206 120.765 17.3059 120.799 18.1285 121.226C18.9494 121.648 19.5765 122.412 20.0098 123.517L21.492 127.395L11.3455 131.241L10.6723 129.48L14.5538 128.008ZM17.5829 117.168L18.2535 118.923L8.10703 122.769L7.43645 121.015L17.5829 117.168ZM15.9685 127.472L19.4111 126.167L18.6207 124.1C18.3937 123.506 18.0569 123.105 17.6104 122.897C17.1574 122.686 16.6638 122.682 16.1295 122.884C15.6185 123.078 15.2764 123.393 15.1032 123.831C14.9301 124.269 14.9489 124.777 15.1596 125.356L15.9685 127.472Z" fill="#333333"/>
<path d="M14.8971 103.57L15.227 105.418L10.4776 106.239L11.3299 111.013L16.0793 110.192L16.4105 112.048L5.72247 113.894L5.39125 112.039L9.83971 111.27L8.98743 106.496L4.53898 107.264L4.20907 105.416L14.8971 103.57Z" fill="#333333"/>
<path d="M11.8697 95.8393L12.07 100.038L14.6355 100.797L14.7289 102.755L3.69468 99.1732L3.61406 97.4834L14.2573 92.8688L14.3511 94.8341L11.8697 95.8393ZM10.5261 99.5812L10.3763 96.4397L5.95484 98.2232L10.5261 99.5812Z" fill="#333333"/>
<path d="M10.3136 84.8643L10.1728 86.1397L14.7999 86.6517L14.5937 88.5204L3.79718 87.3258L4.00339 85.4571L8.54148 85.9592L8.65522 84.9285L4.46737 81.2526L4.72104 78.9538L9.48027 83.2334L15.5535 79.8221L15.3048 82.0764L10.3136 84.8643Z" fill="#333333"/>
<path d="M14.868 72.111L13.8535 76.19L16.0942 77.6484L15.6212 79.5505L6.07508 72.9744L6.48338 71.3327L18.0098 69.9459L17.535 71.8553L14.868 72.111ZM12.5051 75.3125L13.2642 72.2604L8.5142 72.7086L12.5051 75.3125Z" fill="#333333"/>
<path d="M15.26 65.9979L19.0301 67.4271L18.3569 69.1883L8.21038 65.342L9.69257 61.4645C10.1254 60.3321 10.7637 59.5459 11.6074 59.106C12.4529 58.6613 13.3611 58.623 14.3321 58.9911C15.3263 59.368 15.9748 59.9884 16.2775 60.8524C16.582 61.7117 16.5098 62.7284 16.061 63.9026L15.26 65.9979ZM13.8454 65.4617L14.6543 63.3454C14.8938 62.7189 14.9302 62.1854 14.7635 61.7449C14.5921 61.3027 14.2276 60.9759 13.6701 60.7646C13.1219 60.5568 12.6214 60.5583 12.1684 60.7692C11.7108 60.9783 11.3656 61.3735 11.1328 61.9547L10.3052 64.1197L13.8454 65.4617Z" fill="#333333"/>
<path d="M17.1192 49.2384L15.5531 52.2462L23.8681 56.5258L23.0022 58.1888L14.6872 53.9091L13.1349 56.8904L11.78 56.193L15.7644 48.541L17.1192 49.2384Z" fill="#333333"/>
<path d="M24.0454 46.2844L20.5417 41.2993L21.7161 39.5565L27.0961 47.7394L27.4688 48.4043C27.9268 49.3127 27.8438 50.23 27.2196 51.1562L26.7477 51.7762L25.5146 50.9296C25.598 50.8415 25.7247 50.6713 25.8946 50.4191C26.1955 49.9726 26.2169 49.5304 25.9588 49.0927L25.4125 48.2571L16.751 46.9246L17.9045 45.2128L24.0454 46.2844Z" fill="#333333"/>
</svg>
