<svg width="231" height="127" viewBox="0 0 231 127" fill="none"  xmlns="http://www.w3.org/2000/svg">
<path d="M50.563 67.8276H48.563V69.8276H50.563V67.8276ZM58.1509 67.8276H60.1509V65.8276H58.1509V67.8276ZM58.1509 81.1577V83.1577H60.1509V81.1577H58.1509ZM50.563 81.1577V79.1577H48.563V81.1577H50.563ZM50.563 97V99H52.563V97H50.563ZM33.2852 97H31.2852V99H33.2852V97ZM33.2852 81.1577H35.2852V79.1577H33.2852V81.1577ZM4.42041 81.1577L2.42977 81.351L2.60518 83.1577H4.42041V81.1577ZM3.39502 70.5962L1.69638 69.5404L1.33895 70.1155L1.40438 70.7895L3.39502 70.5962ZM33.2852 22.5054L34.9838 23.5611L35.2852 23.0763V22.5054H33.2852ZM33.2852 22.3516V20.3516L31.2852 20.3516V22.3516L33.2852 22.3516ZM50.563 22.3516H52.563V20.3516H50.563V22.3516ZM19.8525 67.8276L18.1241 66.8214L16.3741 69.8276H19.8525V67.8276ZM33.2852 67.8276V69.8276H35.2852V67.8276H33.2852ZM33.2852 44.8589H35.2852V37.8148L31.5836 43.8079L33.2852 44.8589ZM32.2085 46.6021L30.5069 45.5511L30.4932 45.5733L30.48 45.5959L32.2085 46.6021ZM50.563 69.8276H58.1509V65.8276H50.563V69.8276ZM56.1509 67.8276V81.1577H60.1509V67.8276H56.1509ZM58.1509 79.1577H50.563V83.1577H58.1509V79.1577ZM48.563 81.1577V97H52.563V81.1577H48.563ZM50.563 95H33.2852V99H50.563V95ZM35.2852 97V81.1577H31.2852L31.2852 97H35.2852ZM33.2852 79.1577H4.42041V83.1577H33.2852V79.1577ZM6.41105 80.9644L5.38566 70.4029L1.40438 70.7895L2.42977 81.351L6.41105 80.9644ZM5.09366 71.652L34.9838 23.5611L31.5865 21.4496L1.69638 69.5404L5.09366 71.652ZM35.2852 22.5054V22.3516L31.2852 22.3516V22.5054L35.2852 22.5054ZM33.2852 24.3516H50.563V20.3516H33.2852V24.3516ZM48.563 22.3516L48.563 67.8276H52.563L52.563 22.3516H48.563ZM19.8525 69.8276H33.2852V65.8276H19.8525V69.8276ZM35.2852 67.8276L35.2852 44.8589H31.2852V67.8276H35.2852ZM31.5836 43.8079L30.5069 45.5511L33.9101 47.653L34.9868 45.9099L31.5836 43.8079ZM30.48 45.5959L18.1241 66.8214L21.581 68.8338L33.937 47.6082L30.48 45.5959ZM99.7817 68.1353L101.764 68.3974L102.475 63.0245L98.4446 66.648L99.7817 68.1353ZM77.8896 24.8638L76.8692 23.1436L76.8628 23.1475L77.8896 24.8638ZM104.55 25.0176L103.485 26.7103L103.493 26.7156L103.502 26.7209L104.55 25.0176ZM113.881 35.5278L112.084 36.406L112.087 36.4114L113.881 35.5278ZM117.316 51.165H119.316V51.1535L119.316 51.1419L117.316 51.165ZM112.445 79.2095L110.683 78.2636L110.679 78.2714L112.445 79.2095ZM76.6592 98.0254H74.6592V100.025H76.6592V98.0254ZM76.6592 84.1826L76.6279 82.1829L74.6592 82.2136V84.1826H76.6592ZM79.9404 84.1313L79.9717 86.1311L80.0049 86.1306L80.038 86.129L79.9404 84.1313ZM100.038 55.8306L101.823 56.7325L102.038 56.3071V55.8306H100.038ZM85.0674 57.2661L83.4447 58.4354L83.453 58.4468L85.0674 57.2661ZM98.4446 66.648C95.052 69.6982 91.3484 71.1597 87.272 71.1597V75.1597C92.4241 75.1597 97.0603 73.2715 101.119 69.6225L98.4446 66.648ZM87.272 71.1597C81.0087 71.1597 76.2232 69.0673 72.6855 64.9806L69.6612 67.5985C74.0531 72.672 80.0001 75.1597 87.272 75.1597V71.1597ZM72.6855 64.9806C69.1114 60.8519 67.2261 55.2412 67.2261 47.9351L63.2261 47.9351C63.2261 55.9414 65.3056 62.567 69.6612 67.5985L72.6855 64.9806ZM67.2261 47.9351C67.2261 43.4736 68.2581 39.3588 70.3172 35.5575L66.8 33.6524C64.4157 38.0542 63.2261 42.8262 63.2261 47.9351L67.2261 47.9351ZM70.3172 35.5575C72.3681 31.7713 75.2258 28.7881 78.9165 26.58L76.8628 23.1475C72.5554 25.7246 69.1925 29.2355 66.8 33.6524L70.3172 35.5575ZM78.91 26.5839C82.6233 24.3811 86.7122 23.2749 91.2197 23.2749V19.2749C86.0203 19.2749 81.2224 20.5613 76.8692 23.1437L78.91 26.5839ZM91.2197 23.2749C95.7847 23.2749 99.8553 24.4263 103.485 26.7103L105.615 23.3249C101.315 20.6186 96.4985 19.2749 91.2197 19.2749V23.2749ZM103.502 26.7209C107.153 28.9678 110.015 32.173 112.084 36.406L115.678 34.6497C113.303 29.7909 109.945 25.9892 105.598 23.3143L103.502 26.7209ZM112.087 36.4114C114.155 40.6121 115.251 45.5215 115.316 51.1882L119.316 51.1419C119.245 44.9824 118.05 39.467 115.675 34.6443L112.087 36.4114ZM115.316 51.165V57.7788H119.316V51.165H115.316ZM115.316 57.7788C115.316 65.7516 113.746 72.5574 110.683 78.2636L114.208 80.1553C117.639 73.7619 119.316 66.2806 119.316 57.7788H115.316ZM110.679 78.2714C107.649 83.9765 103.333 88.3388 97.6996 91.3971L99.608 94.9125C105.937 91.4766 110.816 86.542 114.212 80.1475L110.679 78.2714ZM97.6996 91.3971C92.0573 94.46 85.4233 96.0254 77.7358 96.0254V100.025C85.9761 100.025 93.2874 98.3437 99.608 94.9125L97.6996 91.3971ZM77.7358 96.0254H76.6592V100.025H77.7358V96.0254ZM78.6592 98.0254V84.1826H74.6592V98.0254H78.6592ZM76.6904 86.1824L79.9717 86.1311L79.9092 82.1316L76.6279 82.1829L76.6904 86.1824ZM80.038 86.129C86.243 85.8259 91.3316 84.273 95.0769 81.2535C98.8601 78.2035 101.045 73.8412 101.764 68.3974L97.799 67.8731C97.1857 72.5123 95.397 75.8575 92.5664 78.1395C89.6979 80.4521 85.5324 81.8558 79.8428 82.1337L80.038 86.129ZM91.9375 62.7012C94.1099 62.7012 96.0963 62.2298 97.8131 61.1975C99.5336 60.163 100.86 58.6393 101.823 56.7325L98.253 54.9286C97.5758 56.2689 96.7315 57.1805 95.7519 57.7695C94.7684 58.3608 93.5249 58.7012 91.9375 58.7012V62.7012ZM102.038 55.8306V48.6528H98.0381V55.8306H102.038ZM102.038 48.6528C102.038 43.7176 101.223 39.6822 99.2657 36.8915L95.9911 39.1886C97.2463 40.978 98.0381 44.0178 98.0381 48.6528H102.038ZM99.2657 36.8915C97.2952 34.0824 94.5212 32.605 91.1172 32.605V36.605C93.182 36.605 94.7488 37.4176 95.9911 39.1886L99.2657 36.8915ZM91.1172 32.605C87.8191 32.605 85.221 34.4316 83.3251 37.4335L86.7071 39.5695C88.0924 37.376 89.5617 36.605 91.1172 36.605V32.605ZM83.3251 37.4335C81.4452 40.4101 80.5552 43.9425 80.5552 47.9351H84.5552C84.5552 44.5448 85.3058 41.7882 86.7071 39.5695L83.3251 37.4335ZM80.5552 47.9351C80.5552 52.1029 81.4502 55.6673 83.4448 58.4354L86.69 56.0969C85.335 54.2165 84.5552 51.5602 84.5552 47.9351H80.5552ZM83.453 58.4468C85.515 61.2662 88.4123 62.7012 91.9375 62.7012V58.7012C89.6521 58.7012 87.9693 57.8461 86.6817 56.0855L83.453 58.4468ZM169.457 88.3354V90.3354H171.457V88.3354H169.457ZM153.41 88.3354V86.3354H151.41V88.3354H153.41ZM153.41 97V99H155.41V97H153.41ZM135.414 97H133.414V99H135.414V97ZM135.414 88.3354H137.414V86.3354H135.414V88.3354ZM125.211 88.3354H123.211V90.3354H125.211V88.3354ZM125.211 74.4927V72.4927H123.211V74.4927H125.211ZM135.414 74.4927V76.4927H137.414V74.4927H135.414ZM135.414 71.6729H137.414V69.6729H135.414V71.6729ZM125.211 71.6729H123.211V73.6729H125.211V71.6729ZM125.211 57.7788V55.7788H123.211V57.7788H125.211ZM135.414 57.7788V59.7788H137.414V57.7788H135.414ZM135.414 22.3516V20.3516H133.414V22.3516H135.414ZM180.224 25.479L179.369 27.2871L179.374 27.2896L180.224 25.479ZM190.529 34.3999L188.835 35.4639L188.84 35.4707L190.529 34.3999ZM186.171 65.1616L184.908 63.6106L184.903 63.6146L186.171 65.1616ZM153.41 71.6729V69.6729H151.41V71.6729H153.41ZM153.41 74.4927H151.41V76.4927H153.41V74.4927ZM169.457 74.4927H171.457V72.4927H169.457V74.4927ZM153.41 57.7788H151.41V59.7788H153.41V57.7788ZM173.046 39.4243L174.508 38.0597L173.046 39.4243ZM165.202 36.2969L165.222 34.297L165.212 34.2969H165.202V36.2969ZM153.41 36.2969V34.2969H151.41V36.2969H153.41ZM169.457 86.3354H153.41V90.3354H169.457V86.3354ZM151.41 88.3354V97H155.41V88.3354H151.41ZM153.41 95H135.414V99H153.41V95ZM137.414 97V88.3354H133.414V97H137.414ZM135.414 86.3354L125.211 86.3354V90.3354L135.414 90.3354V86.3354ZM127.211 88.3354V74.4927H123.211V88.3354H127.211ZM125.211 76.4927L135.414 76.4927V72.4927L125.211 72.4927V76.4927ZM137.414 74.4927V71.6729H133.414V74.4927H137.414ZM135.414 69.6729L125.211 69.6729V73.6729L135.414 73.6729V69.6729ZM127.211 71.6729V57.7788H123.211V71.6729H127.211ZM125.211 59.7788H135.414V55.7788H125.211V59.7788ZM137.414 57.7788V22.3516H133.414V57.7788H137.414ZM135.414 24.3516L165.048 24.3516V20.3516L135.414 20.3516V24.3516ZM165.048 24.3516C170.51 24.3516 175.269 25.3483 179.369 27.2871L181.079 23.671C176.36 21.4398 171.001 20.3516 165.048 20.3516V24.3516ZM179.374 27.2896C183.498 29.2246 186.628 31.951 188.835 35.4639L192.222 33.3359C189.576 29.1241 185.836 25.9033 181.073 23.6684L179.374 27.2896ZM188.84 35.4707C191.049 38.9557 192.169 42.92 192.169 47.4224L196.169 47.4224C196.169 42.2177 194.862 37.5003 192.218 33.3291L188.84 35.4707ZM192.169 47.4224C192.169 54.367 189.728 59.6864 184.908 63.6106L187.434 66.7126C193.277 61.9552 196.169 55.4484 196.169 47.4224L192.169 47.4224ZM184.903 63.6146C180.063 67.5808 173.398 69.6729 164.689 69.6729V73.6729C174.027 73.6729 181.683 71.4241 187.438 66.7086L184.903 63.6146ZM164.689 69.6729H153.41V73.6729H164.689V69.6729ZM151.41 71.6729V74.4927H155.41V71.6729H151.41ZM153.41 76.4927H169.457V72.4927H153.41V76.4927ZM167.457 74.4927V88.3354H171.457V74.4927H167.457ZM153.41 59.7788H164.433V55.7788H153.41V59.7788ZM164.433 59.7788C168.517 59.7788 171.953 58.8721 174.378 56.7072C176.846 54.5038 177.917 51.3135 177.917 47.5249H173.917C173.917 50.5722 173.074 52.5089 171.714 53.7235C170.31 54.9765 168.005 55.7788 164.433 55.7788V59.7788ZM177.917 47.5249C177.917 43.773 176.833 40.5506 174.508 38.0597L171.584 40.789C173.087 42.3996 173.917 44.5776 173.917 47.5249H177.917ZM174.508 38.0597C172.153 35.5363 168.977 34.3357 165.222 34.297L165.181 38.2968C168.057 38.3264 170.111 39.2108 171.584 40.789L174.508 38.0597ZM165.202 34.2969H153.41V38.2969H165.202V34.2969ZM151.41 36.2969V57.7788H155.41V36.2969H151.41ZM220.521 82.6958L219.179 84.1782L219.187 84.1852L219.195 84.1922L220.521 82.6958ZM220.521 95.1543L221.848 96.6507L221.856 96.6437L221.864 96.6367L220.521 95.1543ZM206.833 95.103L205.476 96.5726L205.483 96.5791L205.49 96.5854L206.833 95.103ZM206.833 82.6958L205.49 81.2134L205.483 81.2198L205.476 81.2262L206.833 82.6958ZM213.703 82.2349C216.004 82.2349 217.78 82.911 219.179 84.1782L221.864 81.2134C219.64 79.1994 216.87 78.2349 213.703 78.2349V82.2349ZM219.195 84.1922C220.557 85.4002 221.239 86.9132 221.239 88.8994H225.239C225.239 85.827 224.109 83.2043 221.848 81.1994L219.195 84.1922ZM221.239 88.8994C221.239 90.8863 220.556 92.4252 219.179 93.6719L221.864 96.6367C224.111 94.6022 225.239 91.9711 225.239 88.8994H221.239ZM219.195 93.6579C217.797 94.8976 216.016 95.564 213.703 95.564V99.564C216.858 99.564 219.623 98.6239 221.848 96.6507L219.195 93.6579ZM213.703 95.564C211.36 95.564 209.57 94.8835 208.175 93.6206L205.49 96.5854C207.719 98.6038 210.509 99.564 213.703 99.564V95.564ZM208.189 93.6334C206.836 92.3847 206.167 90.8563 206.167 88.8994H202.167C202.167 91.9328 203.274 94.5401 205.476 96.5726L208.189 93.6334ZM206.167 88.8994C206.167 86.9425 206.836 85.4141 208.189 84.1654L205.476 81.2262C203.274 83.2588 202.167 85.8661 202.167 88.8994H206.167ZM208.175 84.1782C209.57 82.9153 211.36 82.2349 213.703 82.2349V78.2349C210.509 78.2349 207.719 79.1951 205.49 81.2134L208.175 84.1782Z" fill="#333333"/>
<path d="M50.1929 71.8276H57.7808V85.1577H50.1929V101H32.915V85.1577H4.05029L3.0249 74.5962L32.915 26.5054V26.3516H50.1929L50.1929 71.8276ZM19.4824 71.8276H32.915L32.915 48.8589L31.8384 50.6021L19.4824 71.8276ZM99.4116 72.1353C95.686 75.4849 91.5161 77.1597 86.9019 77.1597C80.1343 77.1597 74.7681 74.8696 70.8032 70.2896C66.8384 65.7095 64.856 59.5913 64.856 51.9351C64.856 47.1499 65.9668 42.7065 68.1885 38.605C70.4102 34.5034 73.5205 31.2563 77.5195 28.8638C81.5527 26.4712 85.9961 25.2749 90.8496 25.2749C95.7715 25.2749 100.215 26.5225 104.18 29.0176C108.179 31.4785 111.289 34.9819 113.511 39.5278C115.732 44.0396 116.877 49.252 116.946 55.165V61.7788C116.946 70.0161 115.322 77.1597 112.075 83.2095C108.862 89.2593 104.265 93.9077 98.2837 97.1548C92.3022 100.402 85.3296 102.025 77.3657 102.025H76.2891V88.1826L79.5703 88.1313C91.4648 87.5503 98.0786 82.2183 99.4116 72.1353ZM91.5674 64.7012C95.3271 64.7012 98.0273 63.0776 99.668 59.8306V52.6528C99.668 47.8677 98.8647 44.3301 97.2583 42.04C95.6519 39.75 93.4814 38.605 90.7471 38.605C88.3203 38.605 86.2866 39.9038 84.646 42.5015C83.0054 45.0991 82.1851 48.2437 82.1851 51.9351C82.1851 55.8315 83.0225 58.9419 84.6973 61.2661C86.3721 63.5562 88.6621 64.7012 91.5674 64.7012ZM169.087 92.3354H153.04V101H135.044V92.3354L124.841 92.3354V78.4927L135.044 78.4927V75.6729L124.841 75.6729V61.7788H135.044V26.3516L164.678 26.3516C170.386 26.3516 175.444 27.394 179.854 29.479C184.297 31.564 187.732 34.5376 190.159 38.3999C192.585 42.228 193.799 46.5688 193.799 51.4224C193.799 58.9077 191.133 64.8208 185.801 69.1616C180.503 73.5024 173.342 75.6729 164.319 75.6729H153.04V78.4927H169.087V92.3354ZM153.04 61.7788H164.062C171.719 61.7788 175.547 58.3608 175.547 51.5249C175.547 48.1753 174.59 45.4751 172.676 43.4243C170.762 41.3735 168.147 40.3311 164.832 40.2969H153.04V61.7788ZM213.333 84.2349C216.067 84.2349 218.34 85.0552 220.151 86.6958C221.963 88.3022 222.869 90.3701 222.869 92.8994C222.869 95.4287 221.963 97.5137 220.151 99.1543C218.34 100.761 216.067 101.564 213.333 101.564C210.564 101.564 208.274 100.744 206.462 99.103C204.685 97.4624 203.796 95.3945 203.796 92.8994C203.796 90.4043 204.685 88.3364 206.462 86.6958C208.274 85.0552 210.564 84.2349 213.333 84.2349Z" fill="#333333"/>
</svg>
