<svg width="1457" height="123" viewBox="0 0 1457 123" fill="none" xmlns="http://www.w3.org/2000/svg">
<path d="M1048.04 67.4688L1049.37 66.7597L1048.94 65.9688H1048.04V67.4688ZM1039.53 67.4688V65.9688H1038.03V67.4688H1039.53ZM1039.53 97V98.5H1041.03V97H1039.53ZM1021.54 97H1020.04V98.5H1021.54V97ZM1021.54 22.3516V20.8516H1020.04V22.3516H1021.54ZM1039.53 22.3516H1041.03V20.8516H1039.53V22.3516ZM1039.53 51.2163H1038.03V52.7163H1039.53V51.2163ZM1046.45 51.2163V52.7163H1047.38L1047.8 51.8843L1046.45 51.2163ZM1060.81 22.3516V20.8516H1059.88L1059.47 21.6836L1060.81 22.3516ZM1082.6 22.3516L1083.89 23.1188L1085.24 20.8516H1082.6V22.3516ZM1062.09 56.8047L1060.8 56.0375L1060.35 56.7909L1060.79 57.5514L1062.09 56.8047ZM1085.16 97V98.5H1087.75L1086.46 96.2533L1085.16 97ZM1063.89 97L1062.56 97.7091L1062.99 98.5H1063.89V97ZM1048.04 65.9688H1039.53V68.9688H1048.04V65.9688ZM1038.03 67.4688V97H1041.03V67.4688H1038.03ZM1039.53 95.5H1021.54V98.5H1039.53V95.5ZM1023.04 97V22.3516H1020.04V97H1023.04ZM1021.54 23.8516H1039.53V20.8516H1021.54V23.8516ZM1038.03 22.3516V51.2163H1041.03V22.3516H1038.03ZM1039.53 52.7163H1046.45V49.7163H1039.53V52.7163ZM1047.8 51.8843L1062.15 23.0195L1059.47 21.6836L1045.11 50.5484L1047.8 51.8843ZM1060.81 23.8516H1082.6V20.8516H1060.81V23.8516ZM1081.31 21.5843L1060.8 56.0375L1063.38 57.5719L1083.89 23.1188L1081.31 21.5843ZM1060.79 57.5514L1083.86 97.7467L1086.46 96.2533L1063.39 56.058L1060.79 57.5514ZM1085.16 95.5H1063.89V98.5H1085.16V95.5ZM1065.21 96.2909L1049.37 66.7597L1046.72 68.1778L1062.56 97.7091L1065.21 96.2909ZM1102.8 71.7754L1104.3 71.7262L1104.25 70.2754H1102.8V71.7754ZM1125.36 80.2349L1124.19 79.2906L1124.19 79.2996L1125.36 80.2349ZM1129.25 66.5972L1130.75 66.6932L1130.85 65.0972H1129.25V66.5972ZM1108.64 66.5972H1107.14V68.0972H1108.64V66.5972ZM1108.64 52.7031V51.2031H1107.14V52.7031H1108.64ZM1129.25 52.7031V54.2031H1130.88L1130.75 52.5868L1129.25 52.7031ZM1125.2 39.373L1124.03 40.3119L1124.04 40.3189L1125.2 39.373ZM1106.08 38.2964L1107.11 39.3912L1107.11 39.3907L1106.08 38.2964ZM1102.65 48.1914V49.6914H1104.1L1104.14 48.2362L1102.65 48.1914ZM1084.75 48.1914L1083.26 48.0573L1083.11 49.6914H1084.75V48.1914ZM1094.13 28.5039L1095.12 29.6393L1095.12 29.6358L1094.13 28.5039ZM1132.43 25.7354L1131.64 27.011L1131.65 27.0135L1132.43 25.7354ZM1143.46 38.4502L1142.09 39.0804L1142.1 39.0905L1143.46 38.4502ZM1099.93 94.8467L1099.28 96.2003L1099.29 96.206L1099.93 94.8467ZM1089.16 85.6182L1087.9 86.4353L1087.91 86.4402L1089.16 85.6182ZM1084.85 71.7754V70.2754H1083.27L1083.36 71.8537L1084.85 71.7754ZM1101.3 71.8245C1101.44 76.2292 1102.66 79.7885 1105.19 82.2353C1107.72 84.6823 1111.31 85.7852 1115.72 85.7852V82.7852C1111.78 82.7852 1109.06 81.8031 1107.28 80.0801C1105.5 78.357 1104.43 75.6615 1104.3 71.7262L1101.3 71.8245ZM1115.72 85.7852C1120.33 85.7852 1124.03 84.311 1126.53 81.1701L1124.19 79.2996C1122.38 81.5592 1119.65 82.7852 1115.72 82.7852V85.7852ZM1126.52 81.1791C1129.01 78.1066 1130.34 73.1689 1130.75 66.6932L1127.76 66.5011C1127.35 72.8086 1126.08 76.9627 1124.19 79.2906L1126.52 81.1791ZM1129.25 65.0972H1108.64V68.0972H1129.25V65.0972ZM1110.14 66.5972V52.7031H1107.14V66.5972H1110.14ZM1108.64 54.2031H1129.25V51.2031H1108.64V54.2031ZM1130.75 52.5868C1130.26 46.3322 1128.88 41.5172 1126.37 38.4272L1124.04 40.3189C1125.97 42.6976 1127.29 46.7694 1127.76 52.8194L1130.75 52.5868ZM1126.37 38.4342C1123.83 35.2697 1120.31 33.7202 1115.98 33.7202V36.7202C1119.51 36.7202 1122.13 37.9392 1124.03 40.3118L1126.37 38.4342ZM1115.98 33.7202C1111.36 33.7202 1107.63 34.7907 1105.05 37.2021L1107.11 39.3907C1108.91 37.7005 1111.77 36.7202 1115.98 36.7202V33.7202ZM1105.06 37.2015C1102.48 39.6096 1101.29 43.3827 1101.15 48.1467L1104.14 48.2362C1104.28 43.8399 1105.37 41.0163 1107.11 39.3912L1105.06 37.2015ZM1102.65 46.6914H1084.75V49.6914H1102.65V46.6914ZM1086.25 48.3256C1086.97 40.2739 1089.95 34.096 1095.12 29.6393L1093.15 27.3685C1087.31 32.4138 1084.04 39.3608 1083.26 48.0573L1086.25 48.3256ZM1095.12 29.6358C1100.29 25.1415 1107.19 22.8262 1115.98 22.8262V19.8262C1106.65 19.8262 1098.99 22.296 1093.15 27.372L1095.12 29.6358ZM1115.98 22.8262C1121.95 22.8262 1127.16 24.2344 1131.64 27.0109L1133.22 24.4598C1128.21 21.3574 1122.44 19.8262 1115.98 19.8262V22.8262ZM1131.65 27.0135C1136.16 29.785 1139.64 33.787 1142.09 39.0804L1144.82 37.82C1142.14 32.0391 1138.28 27.5647 1133.22 24.4572L1131.65 27.0135ZM1142.1 39.0905C1144.59 44.356 1145.85 50.5551 1145.85 57.7275H1148.85C1148.85 50.2027 1147.52 43.5503 1144.81 37.8099L1142.1 39.0905ZM1145.85 57.7275V61.7778H1148.85V57.7275H1145.85ZM1145.85 61.7778C1145.85 72.9539 1143.09 81.4607 1137.77 87.4968L1140.02 89.4817C1145.97 82.7346 1148.85 73.4338 1148.85 61.7778H1145.85ZM1137.77 87.4968C1132.46 93.5155 1125.17 96.5767 1115.72 96.5767V99.5767C1125.89 99.5767 1134.05 96.2462 1140.02 89.4817L1137.77 87.4968ZM1115.72 96.5767C1109.99 96.5767 1104.95 95.5342 1100.56 93.4874L1099.29 96.206C1104.14 98.4658 1109.62 99.5767 1115.72 99.5767V96.5767ZM1100.57 93.4931C1096.22 91.4152 1092.85 88.5152 1090.42 84.7961L1087.91 86.4402C1090.67 90.6508 1094.47 93.9032 1099.28 96.2002L1100.57 93.4931ZM1090.42 84.8011C1087.98 81.0442 1086.61 76.69 1086.35 71.6971L1083.36 71.8537C1083.64 77.3197 1085.15 82.1941 1087.9 86.4353L1090.42 84.8011ZM1084.85 73.2754H1102.8V70.2754H1084.85V73.2754ZM1174.01 22.3516H1175.51V20.8516H1174.01V22.3516ZM1174.01 83.1572H1172.51V84.6572H1174.01V83.1572ZM1192.57 83.1572V84.6572H1194.07V83.1572H1192.57ZM1192.57 22.3516V20.8516H1191.07V22.3516H1192.57ZM1210.57 22.3516H1212.07V20.8516H1210.57V22.3516ZM1210.57 83.1572H1209.07V84.6572H1210.57V83.1572ZM1228.92 83.1572V84.6572H1230.42V83.1572H1228.92ZM1228.92 22.3516V20.8516H1227.42V22.3516H1228.92ZM1246.82 22.3516H1248.32V20.8516H1246.82V22.3516ZM1246.82 97V98.5H1248.32V97H1246.82ZM1156.02 97H1154.52V98.5H1156.02V97ZM1156.02 22.3516V20.8516H1154.52V22.3516H1156.02ZM1172.51 22.3516V83.1572H1175.51V22.3516H1172.51ZM1174.01 84.6572H1192.57V81.6572H1174.01V84.6572ZM1194.07 83.1572V22.3516H1191.07V83.1572H1194.07ZM1192.57 23.8516H1210.57V20.8516H1192.57V23.8516ZM1209.07 22.3516V83.1572H1212.07V22.3516H1209.07ZM1210.57 84.6572H1228.92V81.6572H1210.57V84.6572ZM1230.42 83.1572V22.3516H1227.42V83.1572H1230.42ZM1228.92 23.8516L1246.82 23.8516V20.8516L1228.92 20.8516V23.8516ZM1245.32 22.3516V97H1248.32V22.3516H1245.32ZM1246.82 95.5H1156.02V98.5H1246.82V95.5ZM1157.52 97V22.3516H1154.52V97H1157.52ZM1156.02 23.8516H1174.01V20.8516H1156.02V23.8516ZM1308.34 36.2456V37.7456H1309.84V36.2456H1308.34ZM1275.99 36.2456V34.7456H1274.49V36.2456H1275.99ZM1275.99 48.0376H1274.49V49.5376H1275.99V48.0376ZM1311.42 59.6245L1310.16 60.4485L1310.17 60.4552L1310.17 60.4619L1311.42 59.6245ZM1306.9 90.1299L1305.94 88.9799L1305.94 88.9829L1306.9 90.1299ZM1257.89 97H1256.39V98.5H1257.89V97ZM1257.89 22.3516V20.8516H1256.39V22.3516H1257.89ZM1308.34 22.3516H1309.84V20.8516H1308.34V22.3516ZM1275.99 61.8804V60.3804H1274.49V61.8804H1275.99ZM1275.99 83.1572H1274.49V84.6572H1275.99V83.1572ZM1293.88 80.0811L1292.85 78.9948L1292.84 79.0032L1293.88 80.0811ZM1293.93 64.7002L1292.94 65.8223L1293.93 64.7002ZM1308.34 34.7456H1275.99V37.7456H1308.34V34.7456ZM1274.49 36.2456V48.0376H1277.49V36.2456H1274.49ZM1275.99 49.5376H1285.27V46.5376H1275.99V49.5376ZM1285.27 49.5376C1291.01 49.5376 1296.03 50.5165 1300.35 52.4336L1301.56 49.6914C1296.79 47.5753 1291.35 46.5376 1285.27 46.5376V49.5376ZM1300.35 52.4336C1304.66 54.3487 1307.91 57.027 1310.16 60.4485L1312.67 58.8005C1310.06 54.8392 1306.34 51.8095 1301.56 49.6914L1300.35 52.4336ZM1310.17 60.4619C1312.45 63.8522 1313.61 67.7598 1313.61 72.2368H1316.61C1316.61 67.2118 1315.3 62.7113 1312.66 58.7871L1310.17 60.4619ZM1313.61 72.2368C1313.61 79.157 1311.06 84.6946 1305.94 88.9799L1307.87 91.2799C1313.69 86.405 1316.61 80.0139 1316.61 72.2368H1313.61ZM1305.94 88.9829C1300.84 93.275 1293.91 95.5 1284.96 95.5V98.5C1294.4 98.5 1302.09 96.1449 1307.87 91.2769L1305.94 88.9829ZM1284.96 95.5H1257.89V98.5H1284.96V95.5ZM1259.39 97V22.3516H1256.39V97H1259.39ZM1257.89 23.8516L1308.34 23.8516V20.8516L1257.89 20.8516V23.8516ZM1306.84 22.3516V36.2456H1309.84V22.3516H1306.84ZM1274.49 61.8804V83.1572H1277.49V61.8804H1274.49ZM1275.99 84.6572H1285.22V81.6572H1275.99V84.6572ZM1285.22 84.6572C1289.16 84.6572 1292.46 83.542 1294.92 81.159L1292.84 79.0032C1291.06 80.7217 1288.58 81.6572 1285.22 81.6572V84.6572ZM1294.92 81.1673C1297.39 78.8057 1298.61 75.75 1298.61 72.1343H1295.61C1295.61 75.0127 1294.67 77.2548 1292.85 78.9948L1294.92 81.1673ZM1298.61 72.1343C1298.61 68.6706 1297.4 65.769 1294.93 63.5781L1292.94 65.8223C1294.71 67.3911 1295.61 69.4456 1295.61 72.1343H1298.61ZM1294.93 63.5781C1292.45 61.3844 1289.12 60.3804 1285.11 60.3804V63.3804C1288.63 63.3804 1291.17 64.2562 1292.94 65.8223L1294.93 63.5781ZM1285.11 60.3804H1275.99V63.3804H1285.11V60.3804ZM1336.69 71.7754L1338.19 71.7262L1338.14 70.2754H1336.69V71.7754ZM1359.25 80.2349L1358.08 79.2906L1358.08 79.2996L1359.25 80.2349ZM1363.15 66.5972L1364.64 66.6932L1364.75 65.0972H1363.15V66.5972ZM1342.54 66.5972H1341.04V68.0972H1342.54V66.5972ZM1342.54 52.7031V51.2031H1341.04V52.7031H1342.54ZM1363.15 52.7031V54.2031H1364.77L1364.64 52.5868L1363.15 52.7031ZM1359.1 39.373L1357.93 40.3119L1357.93 40.3189L1359.1 39.373ZM1339.97 38.2964L1341 39.3912L1341 39.3907L1339.97 38.2964ZM1336.54 48.1914V49.6914H1337.99L1338.04 48.2362L1336.54 48.1914ZM1318.64 48.1914L1317.15 48.0573L1317 49.6914H1318.64V48.1914ZM1328.03 28.5039L1329.01 29.6393L1329.01 29.6358L1328.03 28.5039ZM1366.32 25.7354L1365.54 27.011L1365.54 27.0135L1366.32 25.7354ZM1377.35 38.4502L1375.99 39.0804L1375.99 39.0905L1377.35 38.4502ZM1333.82 94.8467L1333.17 96.2003L1333.19 96.206L1333.82 94.8467ZM1323.05 85.6182L1321.8 86.4353L1321.8 86.4402L1323.05 85.6182ZM1318.75 71.7754V70.2754H1317.17L1317.25 71.8537L1318.75 71.7754ZM1335.19 71.8245C1335.34 76.2292 1336.56 79.7885 1339.08 82.2353C1341.61 84.6823 1345.21 85.7852 1349.61 85.7852V82.7852C1345.68 82.7852 1342.95 81.8031 1341.17 80.0801C1339.39 78.357 1338.32 75.6615 1338.19 71.7262L1335.19 71.8245ZM1349.61 85.7852C1354.22 85.7852 1357.92 84.311 1360.42 81.1701L1358.08 79.2996C1356.27 81.5592 1353.55 82.7852 1349.61 82.7852V85.7852ZM1360.42 81.1791C1362.9 78.1066 1364.23 73.1689 1364.64 66.6932L1361.65 66.5011C1361.24 72.8086 1359.97 76.9627 1358.08 79.2906L1360.42 81.1791ZM1363.15 65.0972H1342.54V68.0972H1363.15V65.0972ZM1344.04 66.5972V52.7031H1341.04V66.5972H1344.04ZM1342.54 54.2031H1363.15V51.2031H1342.54V54.2031ZM1364.64 52.5868C1364.16 46.3322 1362.77 41.5172 1360.26 38.4272L1357.93 40.3189C1359.86 42.6976 1361.18 46.7694 1361.65 52.8194L1364.64 52.5868ZM1360.27 38.4342C1357.73 35.2697 1354.2 33.7202 1349.87 33.7202V36.7202C1353.4 36.7202 1356.02 37.9392 1357.93 40.3118L1360.27 38.4342ZM1349.87 33.7202C1345.25 33.7202 1341.52 34.7907 1338.95 37.2021L1341 39.3907C1342.8 37.7005 1345.66 36.7202 1349.87 36.7202V33.7202ZM1338.95 37.2015C1336.38 39.6096 1335.18 43.3827 1335.04 48.1467L1338.04 48.2362C1338.17 43.8399 1339.26 41.0163 1341 39.3912L1338.95 37.2015ZM1336.54 46.6914L1318.64 46.6914V49.6914L1336.54 49.6914V46.6914ZM1320.14 48.3256C1320.86 40.2739 1323.84 34.096 1329.01 29.6393L1327.05 27.3685C1321.2 32.4138 1317.93 39.3608 1317.15 48.0573L1320.14 48.3256ZM1329.01 29.6358C1334.18 25.1415 1341.08 22.8262 1349.87 22.8262V19.8262C1340.54 19.8262 1332.88 22.296 1327.04 27.372L1329.01 29.6358ZM1349.87 22.8262C1355.84 22.8262 1361.05 24.2344 1365.54 27.0109L1367.11 24.4598C1362.1 21.3574 1356.33 19.8262 1349.87 19.8262V22.8262ZM1365.54 27.0135C1370.05 29.785 1373.54 33.787 1375.99 39.0804L1378.71 37.82C1376.03 32.0391 1372.17 27.5647 1367.11 24.4572L1365.54 27.0135ZM1375.99 39.0905C1378.48 44.356 1379.74 50.5551 1379.74 57.7275H1382.74C1382.74 50.2027 1381.41 43.5503 1378.7 37.8099L1375.99 39.0905ZM1379.74 57.7275V61.7778H1382.74V57.7275H1379.74ZM1379.74 61.7778C1379.74 72.9539 1376.99 81.4607 1371.66 87.4968L1373.91 89.4817C1379.86 82.7346 1382.74 73.4338 1382.74 61.7778H1379.74ZM1371.66 87.4968C1366.35 93.5155 1359.06 96.5767 1349.61 96.5767V99.5767C1359.78 99.5767 1367.94 96.2462 1373.91 89.4817L1371.66 87.4968ZM1349.61 96.5767C1343.88 96.5767 1338.84 95.5342 1334.45 93.4874L1333.19 96.206C1338.03 98.4658 1343.51 99.5767 1349.61 99.5767V96.5767ZM1334.47 93.4931C1330.12 91.4152 1326.74 88.5152 1324.31 84.7961L1321.8 86.4402C1324.56 90.6508 1328.36 93.9032 1333.17 96.2002L1334.47 93.4931ZM1324.31 84.8011C1321.87 81.0442 1320.51 76.69 1320.24 71.6971L1317.25 71.8537C1317.53 77.3197 1319.04 82.1941 1321.8 86.4353L1324.31 84.8011ZM1318.75 73.2754H1336.69V70.2754H1318.75V73.2754ZM1416.67 67.4688L1417.99 66.7597L1417.57 65.9688H1416.67V67.4688ZM1408.16 67.4688V65.9688H1406.66V67.4688H1408.16ZM1408.16 97V98.5H1409.66V97H1408.16ZM1390.17 97H1388.67V98.5H1390.17V97ZM1390.17 22.3516V20.8516H1388.67V22.3516H1390.17ZM1408.16 22.3516H1409.66V20.8516H1408.16V22.3516ZM1408.16 51.2163H1406.66V52.7163H1408.16V51.2163ZM1415.08 51.2163V52.7163H1416.01L1416.43 51.8843L1415.08 51.2163ZM1429.44 22.3516V20.8516H1428.51L1428.09 21.6836L1429.44 22.3516ZM1451.23 22.3516L1452.52 23.1188L1453.87 20.8516H1451.23V22.3516ZM1430.72 56.8047L1429.43 56.0375L1428.98 56.7909L1429.42 57.5514L1430.72 56.8047ZM1453.79 97V98.5H1456.38L1455.09 96.2533L1453.79 97ZM1432.51 97L1431.19 97.7091L1431.62 98.5H1432.51V97ZM1416.67 65.9688H1408.16V68.9688H1416.67V65.9688ZM1406.66 67.4688V97H1409.66V67.4688H1406.66ZM1408.16 95.5L1390.17 95.5V98.5L1408.16 98.5V95.5ZM1391.67 97V22.3516H1388.67V97H1391.67ZM1390.17 23.8516H1408.16V20.8516H1390.17V23.8516ZM1406.66 22.3516V51.2163H1409.66V22.3516H1406.66ZM1408.16 52.7163H1415.08V49.7163H1408.16V52.7163ZM1416.43 51.8843L1430.78 23.0195L1428.09 21.6836L1413.74 50.5484L1416.43 51.8843ZM1429.44 23.8516L1451.23 23.8516V20.8516L1429.44 20.8516V23.8516ZM1449.94 21.5843L1429.43 56.0375L1432.01 57.5719L1452.52 23.1188L1449.94 21.5843ZM1429.42 57.5514L1452.49 97.7467L1455.09 96.2533L1432.02 56.058L1429.42 57.5514ZM1453.79 95.5H1432.51V98.5H1453.79V95.5ZM1433.84 96.2909L1417.99 66.7597L1415.35 68.1778L1431.19 97.7091L1433.84 96.2909Z" fill="white"/>
<path d="M68.0347 97H50.1416V65.8281H23.6353L23.6353 97H5.63965L5.63965 22.3516H23.6353L23.6353 51.9854H50.1416V22.3516H68.0347V97ZM125.764 65.3667H97.4634V83.1572L130.891 83.1572V97L79.4678 97V22.3516L130.994 22.3516V36.2456H97.4634V51.9854H125.764V65.3667ZM201.438 61.2139C201.438 68.4941 200.088 74.937 197.388 80.5425C194.688 86.1479 190.842 90.4717 185.852 93.5137C180.896 96.5215 175.239 98.0254 168.882 98.0254C162.524 98.0254 156.885 96.5728 151.963 93.6675C147.041 90.728 143.196 86.541 140.427 81.1064C137.693 75.6719 136.257 69.4341 136.121 62.3931V58.189C136.121 50.8745 137.454 44.4316 140.12 38.8604C142.82 33.2549 146.665 28.9312 151.655 25.8892C156.68 22.8472 162.388 21.3262 168.779 21.3262C175.103 21.3262 180.742 22.8301 185.698 25.8379C190.654 28.8457 194.5 33.1353 197.234 38.7065C200.002 44.2437 201.404 50.6011 201.438 57.7788V61.2139ZM183.135 58.0864C183.135 50.6694 181.887 45.0469 179.392 41.2188C176.931 37.3564 173.394 35.4253 168.779 35.4253C159.756 35.4253 154.988 42.1929 154.475 55.728L154.424 61.2139C154.424 68.5283 155.637 74.1509 158.064 78.0815C160.491 82.0122 164.097 83.9775 168.882 83.9775C173.428 83.9775 176.931 82.0464 179.392 78.1841C181.853 74.3218 183.101 68.7676 183.135 61.5215V58.0864ZM261.064 36.2456H228.611V97H210.615V22.3516L261.064 22.3516V36.2456ZM287.263 71.6729V97H269.268V22.3516L299.055 22.3516C304.763 22.3516 309.805 23.4111 314.18 25.5303C318.589 27.6152 321.99 30.606 324.382 34.5024C326.809 38.3647 328.022 42.7568 328.022 47.6787C328.022 54.959 325.408 60.7866 320.178 65.1616C314.983 69.5024 307.839 71.6729 298.748 71.6729H287.263ZM287.263 57.7788H299.055C302.542 57.7788 305.19 56.9072 307.002 55.1641C308.848 53.4209 309.771 50.96 309.771 47.7813C309.771 44.2949 308.831 41.5093 306.951 39.4243C305.071 37.3394 302.507 36.2798 299.26 36.2456H287.263V57.7788ZM370.935 83.0547H346.274L341.968 97H322.742L350.12 22.3516L367.039 22.3516L394.622 97L375.293 97L370.935 83.0547ZM350.581 69.1606H366.628L358.579 43.2695L350.581 69.1606ZM462.502 97H444.609V65.8281H418.103V97H400.107V22.3516L418.103 22.3516V51.9854H444.609V22.3516H462.502V97ZM517.72 22.3516H535.715V97H517.72V49.9346L490.906 97H472.91V22.3516L490.906 22.3516V69.4683L517.72 22.3516ZM607.493 22.3516V97H589.548V69.417L584.268 70.0835L577.654 70.4937C567.605 70.4937 559.915 68.3232 554.583 63.9824C549.25 59.6074 546.55 53.4209 546.482 45.4229V22.3516H564.478V45.1665C564.478 49.2339 565.452 52.1733 567.4 53.9849C569.382 55.7622 572.8 56.6509 577.654 56.6509L579.192 56.5996C583.396 56.3945 586.848 56.0698 589.548 55.6255V22.3516H607.493ZM665.017 65.3667L636.716 65.3667V83.1572L670.144 83.1572V97L618.721 97V22.3516H670.247V36.2456H636.716V51.9854H665.017V65.3667ZM739.871 97H721.978V65.8281H695.471V97H677.476V22.3516H695.471V51.9854L721.978 51.9854V22.3516L739.871 22.3516V97ZM813.699 97H795.806V65.8281H769.299V97H751.304V22.3516H769.299V51.9854H795.806V22.3516L813.699 22.3516V97ZM843.127 48.0376H852.407C858.32 48.0376 863.55 49.0459 868.096 51.0625C872.642 53.0791 876.128 55.9331 878.555 59.6245C881.016 63.2817 882.246 67.4858 882.246 72.2368C882.246 79.5854 879.512 85.5498 874.043 90.1299C868.608 94.71 861.294 97 852.1 97H825.081V22.3516H843.127V48.0376ZM905.625 97L887.681 97V22.3516H905.625V97ZM843.127 61.8804V83.1572H852.356C856.013 83.1572 858.901 82.1318 861.021 80.0811C863.174 78.0303 864.25 75.3813 864.25 72.1343C864.25 69.0581 863.191 66.5801 861.072 64.7002C858.953 62.8203 856.013 61.8804 852.253 61.8804H843.127ZM960.483 22.3516H978.479V97H960.483V49.9346L933.669 97H915.674V22.3516L933.669 22.3516V69.4683L960.483 22.3516ZM966.174 2.25391C966.174 6.93652 964.448 10.7305 960.996 13.6357C957.544 16.541 952.947 17.9937 947.205 17.9937C941.462 17.9937 936.865 16.541 933.413 13.6357C929.961 10.7305 928.235 6.93652 928.235 2.25391L939.976 2.25391C939.976 4.30469 940.608 5.91113 941.873 7.07324C943.171 8.20117 944.949 8.76514 947.205 8.76514C949.46 8.76514 951.204 8.21826 952.434 7.12451C953.699 5.99658 954.331 4.37305 954.331 2.25391L966.174 2.25391Z" fill="white"/>
</svg>
