<svg width="1456" height="100" fill="none"
  xmlns="http://www.w3.org/2000/svg">
  <g fill="#333">
    <path d="M1047 67h1v-1h-1v1zm-8 0v-1h-2v1h2zm0 30v2h1v-2h-1zm-18 0h-2v2h2v-2zm0-75v-1h-2v1h2zm18 0h1v-1h-1v1zm0 29h-2v2h2v-2zm6 0v2h1l1-1-2-1zm15-29v-1h-1l-1 1h2zm22 0l1 1 1-2h-2v1zm-21 35l-1-1-1 1 1 1 1-1zm23 40v2h3l-2-3-1 1zm-21 0l-1 1v1h1v-2zm-16-31h-8v3h8v-3zm-10 1v30h3V67h-3zm2 29h-18v3h18v-3zm-17 1V22h-3v75h3zm-1-73h18v-3h-18v3zm16-2v29h3V22h-3zm2 31h6v-3h-6v3zm8-1l14-29-3-1-14 29 3 1zm13-28h22v-3h-22v3zm20-2l-20 34 2 2 21-35-3-1zm-20 36l23 40 2-2-23-40-2 2zm24 38h-21v3h21v-3zm-20 0l-16-29-2 1 16 30 2-2zm38-24h1v-2h-1v2zm22 8l-1-1 1 1zm4-13h2v-2h-2v2zm-20 0h-2v1h2v-1zm0-14v-2h-2v2h2zm20 0v1h2v-1h-2zm-4-14l-1 1 1-1zm-19-1l1 1-1-1zm-3 10v2h1v-2h-1zm-18 0h-2v2h2v-2zm9-19l1 1-1-1zm38-3v1-1zm11 12l-1 1 1-1zm-43 57l-1 1 1-1zm-11-9h-1 1zm-4-14v-2h-2v2h2zm16 0c0 4 2 8 4 10 3 3 6 4 11 4v-3c-4 0-7-1-9-3-1-2-3-4-3-8h-3zm15 14c4 0 8-2 11-5l-3-2c-2 3-4 4-8 4v3zm11-5c2-3 3-8 4-14h-3c-1 6-2 10-4 12l3 2zm2-16h-20v3h20v-3zm-19 2V53h-3v14h3zm-1-13h20v-3h-20v3zm22-1c-1-7-2-11-5-15l-2 2c2 3 3 7 4 13h3zm-5-15c-2-3-6-4-10-4v3c4 0 6 1 8 3l2-2zm-10-4c-5 0-8 1-11 3l2 2 9-2v-3zm-11 3c-3 3-4 6-4 11h3c0-4 1-7 3-9l-2-2zm-2 10h-18v3h18v-3zm-17 1c1-8 4-14 9-18l-2-3c-6 5-9 12-10 21h3zm9-18c5-5 12-7 21-7v-3c-9 0-17 2-23 7l2 3zm21-7c6 0 11 1 16 4l1-3c-5-3-11-4-17-4v3zm16 4c4 3 8 7 10 12l3-1c-3-6-7-10-12-14l-1 3zm10 12c3 5 4 12 4 19h3c0-8-1-14-4-20l-3 1zm4 19v4h3v-4h-3zm0 4c0 11-3 19-8 25l2 2c6-6 9-16 9-27h-3zm-8 25c-6 7-13 10-22 10v3c10 0 18-4 24-11l-2-2zm-22 10c-6 0-11-1-15-4l-2 3c5 2 11 4 17 4v-3zm-15-4c-5-2-8-4-11-8l-2 1c3 5 6 8 11 10l2-3zm-11-8l-4-13h-3c1 5 2 10 5 14l2-1zm-5-12h18v-3h-18v3zm89-51h2v-1h-2v1zm0 61h-1v2h1v-2zm19 0v2h1v-2h-1zm0-61v-1h-2v1h2zm18 0h1v-1h-1v1zm0 61h-2v2h2v-2zm18 0v2h1v-2h-1zm0-61v-1h-2v1h2zm18 0h1v-1h-1v1zm0 75v2h1v-2h-1zm-91 0h-1v2h1v-2zm0-75v-1h-1v1h1zm17 0v61h3V22h-3zm1 63h19v-3h-19v3zm20-2V22h-3v61h3zm-1-59h18v-3h-18v3zm16-2v61h3V22h-3zm2 63h18v-3h-18v3zm19-2V22h-3v61h3zm-1-59h18v-3h-18v3zm16-2v75h3V22h-3zm2 74h-91v3h91v-3zm-89 1V22h-3v75h3zm-2-73h18v-3h-18v3zm152 12v2h2v-2h-2zm-32 0v-1h-2v1h2zm0 12h-2v2h2v-2zm35 12h-1 1zm-4 30l-1-1 1 1zm-49 7h-2v2h2v-2zm0-75v-1h-2v1h2zm50 0h2v-1h-2v1zm-32 40v-2h-2v2h2zm0 21h-2v2h2v-2zm18-3l-1-1 1 1zm0-15l-1 1 1-1zm14-30h-32v3h32v-3zm-34 1v12h3V36h-3zm2 14h9v-3h-9v3zm9 0l15 2 2-2c-5-2-11-3-17-3v3zm15 2c5 2 8 5 10 8l3-1c-3-4-7-7-11-9l-2 2zm10 8c2 4 4 8 4 12h3c0-5-2-9-4-13l-3 1zm4 12c0 7-3 13-8 17l2 2c6-5 9-11 9-19h-3zm-8 17c-5 4-12 7-21 7v3c9 0 17-3 23-8l-2-2zm-21 7h-27v3h27v-3zm-26 1V22h-3v75h3zm-1-73h50v-3h-50v3zm49-2v14h3V22h-3zm-33 40v21h3V62h-3zm2 23h9v-3h-9v3zm9 0c4 0 7-1 10-4l-2-2c-2 2-4 3-8 3v3zm10-4c2-2 4-5 4-9h-3c0 3-1 5-3 7l2 2zm4-9c0-3-2-6-4-8l-2 2c2 1 3 3 3 6h3zm-4-8c-3-3-6-4-10-4v3c4 0 6 1 8 3l2-2zm-10-4h-9v3h9v-3zm52 12h1v-2h-1v2zm22 8l-1-1 1 1zm4-13h2v-2h-2v2zm-20 0h-2v1h2v-1zm0-14v-2h-2v2h2zm20 0v1h2v-1h-2zm-4-14l-1 1 1-1zm-19-1l1 1-1-1zm-3 10v2h1v-2h-1zm-18 0h-2v2h2v-2zm9-19l1 1-1-1zm38-3v1-1zm11 12l-1 1 1-1zm-43 57l-1 1 1-1zm-11-9h-1 1zm-4-14v-2h-2v2h2zm16 0c0 4 2 8 4 10 3 3 6 4 11 4v-3c-4 0-7-1-9-3s-3-4-3-8h-3zm15 14c4 0 8-2 10-5l-2-2c-2 3-4 4-8 4v3zm10-5c3-3 4-8 5-14h-3c-1 6-2 10-4 12l2 2zm3-16h-20v3h20v-3zm-19 2V53h-3v14h3zm-1-13h20v-3h-20v3zm22-1c-1-7-2-11-5-15l-2 2c2 3 3 7 4 13h3zm-5-15c-2-3-6-4-10-4v3c3 0 6 1 8 3l2-2zm-10-4c-5 0-8 1-11 3l2 2 9-2v-3zm-11 3c-3 3-4 6-4 11h3c0-4 1-7 3-9l-2-2zm-2 10h-18v3h18v-3zm-17 1c1-8 4-14 9-18l-2-3c-6 5-9 12-10 21h3zm9-18c5-5 12-7 21-7v-3c-9 0-17 2-23 7l2 3zm21-7c6 0 11 1 16 4l1-3c-5-3-11-4-17-4v3zm16 4c4 3 8 7 10 12l3-1c-3-6-7-10-12-14l-1 3zm10 12c2 5 4 12 4 19h3c0-8-2-14-4-20l-3 1zm4 19v4h3v-4h-3zm0 4c0 11-3 19-8 25l2 2c6-6 9-16 9-27h-3zm-8 25c-6 7-13 10-22 10v3c10 0 18-4 24-11l-2-2zm-22 10c-6 0-11-1-16-4l-1 3c5 2 11 4 17 4v-3zm-16-4c-4-2-7-4-10-8l-2 1c3 5 6 8 11 10l1-3zm-10-8l-4-13h-3c1 5 2 10 5 14l2-1zm-5-12h18v-3h-18v3zm98-6h1v-1h-1v1zm-9 0v-1h-1v1h1zm0 30v2h2v-2h-2zm-18 0h-1v2h1v-2zm0-75v-1h-1v1h1zm18 0h2v-1h-2v1zm0 29h-1v2h1v-2zm7 0v2h1v-1l-1-1zm14-29v-1l-1 1h1zm22 0l2 1 1-2h-3v1zm-20 35l-2-1v2l2-1zm23 40v2h2l-1-3-1 1zm-21 0l-2 1 1 1h1v-2zm-16-31h-9v3h9v-3zm-10 1v30h3V67h-3zm1 29h-18v3h18v-3zm-16 1V22h-3v75h3zm-2-73h18v-3h-18v3zm17-2v29h3V22h-3zm1 31h7v-3h-7v3zm8-1l15-29-3-1-14 29 2 1zm13-28h22v-3h-22v3zm21-2l-21 34 3 2 21-35-3-1zm-21 36l23 40 3-2-23-40-3 2zm25 38h-21v3h21v-3zm-20 0l-16-29-3 1 16 30 3-2zM68 97H50V66H24v31H6V22h18v30h26V22h18v75zm58-32H97v18h34v14H79V22h52v14H97v16h29v13zm75-4c0 7-1 14-4 20a30 30 0 01-28 17c-6 0-12-1-17-4s-9-7-12-13c-2-5-4-12-4-19v-4c0-7 1-14 4-19 3-6 7-10 12-13s10-5 17-5c6 0 12 2 17 5s9 7 11 13c3 5 4 12 4 19v3zm-18-3c0-7-1-13-4-17-2-4-6-6-10-6-9 0-14 7-15 21v5c0 8 2 13 4 17s6 6 11 6c4 0 8-2 10-6 3-4 4-9 4-16v-4zm78-22h-32v61h-18V22h50v14zm26 36v25h-18V22h30c6 0 11 1 15 4 5 2 8 5 10 9 3 3 4 8 4 13 0 7-3 13-8 17-5 5-12 7-21 7h-12zm0-14h12c4 0 6-1 8-3s3-4 3-7c0-4-1-6-3-9-2-2-4-3-8-3h-12v22zm84 25h-25l-4 14h-19l27-75h17l28 75h-20l-4-14zm-20-14h16l-8-26-8 26zm112 28h-18V66h-27v31h-18V22h18v30h27V22h18v75zm55-75h18v75h-18V50l-27 47h-18V22h18v47l27-47zm89 0v75h-17V69l-6 1h-6c-10 0-18-2-23-6-6-4-8-11-9-19V22h18v23c0 4 1 7 3 9s6 3 11 3h1l11-1V22h17zm58 43h-28v18h33v14h-51V22h51v14h-33v16h28v13zm75 32h-18V66h-27v31h-18V22h18v30h27V22h18v75zm74 0h-18V66h-27v31h-18V22h18v30h27V22h18v75zm29-49h9c6 0 12 1 16 3 5 2 8 5 11 9 2 3 3 7 3 12 0 8-2 14-8 18-5 5-13 7-22 7h-27V22h18v26zm63 49h-18V22h18v75zm-63-35v21h9c4 0 7-1 9-3s3-5 3-8-1-5-3-7-5-3-9-3h-9zm117-40h18v75h-18V50l-26 47h-18V22h18v47l26-47zm6-20c0 5-2 9-5 12s-8 4-14 4-10-1-14-4c-3-3-5-7-5-12h12l2 5 5 2 5-2c2-1 2-3 2-5h12z"/>
  </g>
</svg>
