<svg width="230" height="237" viewBox="0 0 230 237" fill="none" xmlns="http://www.w3.org/2000/svg">
<path d="M145.045 191.343L145.045 191.343L145.054 191.348L147.685 192.656L128.42 225.338L126.049 224.028C123.577 222.662 122.158 219.632 122.158 215.395C122.158 211.166 123.648 206.426 126.073 202.206C128.498 197.987 131.843 194.312 135.528 192.198L135.528 192.198L135.534 192.194C139.204 189.948 142.553 189.967 145.045 191.343Z" fill="url(#paint0_linear)" stroke="black" stroke-width="0.5"/>
<path d="M137.863 224.601L137.863 224.601L137.857 224.604C134.171 226.86 130.9 227.037 128.566 225.672C126.23 224.306 124.742 221.339 124.742 217.108C124.742 212.879 126.232 208.139 128.657 203.919C131.082 199.7 134.427 196.025 138.112 193.911L138.112 193.911L138.118 193.907C141.804 191.652 145.075 191.474 147.408 192.839C149.745 194.206 151.233 197.172 151.233 201.404C151.233 205.633 149.743 210.373 147.318 214.592C144.893 218.812 141.548 222.487 137.863 224.601Z" fill="#ED3E46" stroke="black" stroke-width="0.5"/>
<path d="M142.873 200.797L142.932 200.797L142.988 200.767C144.509 199.942 145.666 200.117 146.349 200.827C147.053 201.559 147.352 202.949 146.936 204.759C145.796 207.87 143.512 212.414 138.362 219.242L138.312 219.309V219.392C138.312 219.406 138.31 219.413 138.309 219.417C138.309 219.418 138.308 219.418 138.307 219.418C138.3 219.422 138.292 219.424 138.282 219.426C135.596 219.001 133.774 218.299 132.488 217.469C131.203 216.64 130.439 215.676 129.881 214.706C129.361 213.665 129.542 212.044 130.283 210.393C131.021 208.752 132.283 207.152 133.814 206.183L133.93 206.11V205.972C133.93 205.959 133.932 205.951 133.933 205.948C133.933 205.947 133.934 205.947 133.935 205.946C133.943 205.943 133.953 205.94 133.964 205.938C133.967 205.937 133.97 205.937 133.972 205.937L134.043 205.937L134.106 205.895C135.748 204.806 137.336 205.106 138.098 205.864L138.359 206.123L138.504 205.786C139.34 203.845 141.023 202.166 142.72 201.041L142.832 200.967V200.833C142.832 200.819 142.833 200.812 142.834 200.808C142.835 200.807 142.835 200.807 142.836 200.807C142.844 200.803 142.854 200.8 142.865 200.798C142.869 200.797 142.872 200.797 142.873 200.797Z" fill="white" stroke="black" stroke-width="0.5"/>
<path d="M26.4591 196.768L26.459 196.768L26.4687 196.773L29.0997 198.081L9.83441 230.763L7.46301 229.453C4.99112 228.087 3.57227 225.057 3.57227 220.82C3.57227 216.591 5.06241 211.851 7.4871 207.631C9.91182 203.412 13.2571 199.737 16.9419 197.623L16.942 197.623L16.948 197.619C20.6185 195.373 23.9675 195.392 26.4591 196.768Z" fill="url(#paint1_linear)" stroke="black" stroke-width="0.5"/>
<path d="M28.81 198.291C31.3788 199.766 32.7108 202.905 32.7249 206.866C32.739 210.82 31.4353 215.542 28.7974 220.086C26.1594 224.629 22.6989 228.113 19.2482 230.078C15.7914 232.046 12.392 232.469 9.82314 230.994C7.25427 229.519 5.92229 226.38 5.90821 222.419C5.89415 218.465 7.19779 213.743 9.83574 209.199C12.4737 204.655 15.9342 201.172 19.3849 199.207C22.8417 197.239 26.2411 196.816 28.81 198.291Z" fill="#ED3E46" stroke="black" stroke-width="0.5"/>
<path d="M24.2872 206.222L24.3461 206.222L24.4019 206.192C25.9229 205.367 27.0798 205.542 27.7634 206.252C28.4674 206.984 28.766 208.374 28.3496 210.184C27.2099 213.295 24.9259 217.839 19.7761 224.667L19.7257 224.734V224.817C19.7257 224.83 19.7243 224.838 19.7232 224.842C19.7226 224.842 19.7218 224.843 19.7208 224.843C19.7144 224.847 19.7057 224.849 19.6965 224.851C17.0096 224.426 15.1879 223.724 13.9019 222.894C12.6171 222.065 11.8535 221.101 11.2949 220.13C10.7754 219.09 10.9557 217.469 11.6974 215.818C12.4347 214.177 13.6973 212.577 15.2281 211.608L15.3444 211.535V211.397C15.3444 211.384 15.3458 211.376 15.3469 211.372C15.3475 211.372 15.3483 211.372 15.3493 211.371C15.3566 211.368 15.3669 211.364 15.3776 211.363C15.3814 211.362 15.3844 211.362 15.386 211.362L15.4569 211.362L15.5197 211.32C17.1625 210.231 18.7501 210.531 19.5123 211.289L19.7727 211.548L19.9181 211.211C20.7544 209.27 22.4368 207.591 24.1337 206.466L24.2455 206.392V206.257C24.2455 206.244 24.2469 206.237 24.248 206.233C24.2486 206.232 24.2494 206.232 24.2504 206.231C24.2577 206.228 24.268 206.225 24.2787 206.223C24.2825 206.222 24.2855 206.222 24.2872 206.222Z" fill="white" stroke="black" stroke-width="0.5"/>
<path d="M177.734 69.9896L177.734 69.9898L177.744 69.9837C179.979 68.5943 182.172 68.6176 183.509 69.412L185.028 70.4193L173.209 90.2885L171.702 89.5395C170.381 88.7453 169.535 86.8585 169.535 84.3338C169.535 81.6743 170.452 78.7186 171.943 76.1057C173.434 73.4924 175.487 71.2466 177.734 69.9896Z" fill="url(#paint2_linear)" stroke="black" stroke-width="0.5"/>
<path d="M179.213 89.8263C176.958 91.0873 174.975 91.1956 173.572 90.3982C172.171 89.6024 171.258 87.8518 171.258 85.1904C171.258 82.5319 172.174 79.648 173.665 77.0708C175.155 74.4957 177.208 72.2458 179.462 70.8435C181.714 69.5852 183.695 69.4776 185.097 70.2744C186.498 71.0703 187.411 72.8208 187.411 75.4822C187.411 78.1417 186.495 81.0974 185.004 83.7102C183.512 86.3235 181.46 88.5693 179.213 89.8263Z" fill="#ED3E46" stroke="black" stroke-width="0.5"/>
<path d="M179.06 86.0825H179.06C175.996 85.8025 174.643 84.4294 174.108 83.3744C173.864 82.7541 173.978 81.8378 174.43 80.8704C174.869 79.9293 175.608 78.9861 176.545 78.302H176.546H176.547H176.549H176.55H176.551H176.553H176.554H176.555H176.557H176.558H176.559H176.56H176.562H176.563H176.564H176.566H176.567H176.568H176.569H176.571H176.572H176.573H176.574H176.575H176.577H176.578H176.579H176.58H176.581H176.583H176.584H176.585H176.586H176.587H176.588H176.59H176.591H176.592H176.593H176.594H176.595H176.596H176.598H176.599H176.6H176.601H176.602H176.603H176.604H176.605H176.606H176.607H176.608H176.609H176.61H176.612H176.613H176.614H176.615H176.616H176.617H176.618H176.619H176.62H176.621H176.622H176.623H176.624H176.625H176.626H176.627H176.628H176.629H176.629H176.63H176.631H176.632H176.633H176.634H176.635H176.636H176.637H176.638H176.639H176.64H176.641H176.641H176.642H176.643H176.644H176.645H176.646H176.647H176.648H176.648H176.649H176.65H176.651H176.652H176.653H176.653H176.654H176.655H176.656H176.657H176.657H176.658H176.659H176.66H176.661H176.661H176.662H176.663H176.664H176.664H176.665H176.666H176.667H176.667H176.668H176.669H176.67H176.67H176.671H176.672H176.673H176.673H176.674H176.675H176.675H176.676H176.677H176.677H176.678H176.679H176.679H176.68H176.681H176.681H176.682H176.683H176.683H176.684H176.685H176.685H176.686H176.687H176.687H176.688H176.688H176.689H176.69H176.69H176.691H176.691H176.692H176.693H176.693H176.694H176.694H176.695H176.696H176.696H176.697H176.697H176.698H176.698H176.699H176.699H176.7H176.7H176.701H176.702H176.702H176.703H176.703H176.704H176.704H176.705H176.705H176.706H176.706H176.707H176.707H176.708H176.708H176.709H176.709H176.709H176.71H176.71H176.711H176.711H176.712H176.712H176.713H176.713H176.714H176.714H176.714H176.715H176.715H176.716H176.716H176.716H176.717H176.717H176.718H176.718H176.719H176.719H176.719H176.72H176.72H176.72H176.721H176.721H176.722H176.722H176.722H176.723H176.723H176.723H176.724H176.724H176.724H176.725H176.725H176.726H176.726H176.726H176.727H176.727H176.727H176.728H176.728H176.728H176.728H176.729H176.729H176.729H176.73H176.73H176.73H176.731H176.731H176.731H176.731H176.732H176.732H176.732H176.733H176.733H176.733H176.733H176.734H176.734H176.734H176.734H176.735H176.735H176.735H176.735H176.736H176.736H176.736H176.736H176.737H176.737H176.737H176.737H176.738H176.738H176.738H176.738H176.738H176.739H176.739H176.739H176.739H176.739H176.74H176.74H176.74H176.74H176.74H176.741H176.741H176.741H176.741H176.741H176.742H176.742H176.742H176.742H176.742H176.742H176.743H176.743H176.743H176.743H176.743H176.743H176.744H176.744H176.744H176.744H176.744H176.744H176.744H176.745H176.745H176.745H176.745H176.745H176.745H176.745H176.746H176.746H176.746H176.746H176.746H176.746H176.746H176.746H176.747H176.747H176.747H176.747H176.747H176.747H176.747H176.747H176.747H176.747H176.748H176.748H176.748H176.748H176.748H176.748H176.748H176.748H176.748H176.748H176.748H176.749H176.749H176.749H176.749H176.749H176.749H176.749H176.749H176.749H176.749H176.749H176.749H176.749H176.749H176.75H176.75H176.75H176.75H176.75H176.75H176.75H176.75H176.75H176.75H176.75H176.75H176.75H176.75H176.75H176.75H176.75H176.75H176.75H176.751H176.751H176.751H176.751H176.751H176.751H176.751H176.751H176.751H176.751H176.751H176.751H176.751H176.751H176.751H176.751H176.751H176.751H176.751H176.751H176.751H176.751H176.751H176.751H176.751H176.751H176.751H176.751H176.751H176.751H176.751H176.751H176.751H176.751H176.751H176.751H176.751H176.751H176.751H176.751H176.751H176.751H176.751H176.751H176.751H176.751H176.751H176.751H176.751H176.752H176.752H176.752H176.752H176.752H176.752H176.752H176.752H176.752H176.752H176.752H176.752H176.752H176.752H176.752H176.752H176.752H176.752H176.81L176.863 78.2759C177.981 77.72 178.702 77.7748 179.159 78.2293L179.404 78.4726L179.559 78.1643C180.117 77.0546 180.949 75.9538 182.333 75.1272C183.293 74.5824 183.928 74.7092 184.243 75.0744C184.584 75.4698 184.689 76.2821 184.27 77.3927L184.267 77.4022L184.264 77.4119C183.707 79.3489 182.314 81.8632 179.209 86.0825H179.208H179.207H179.206H179.205H179.204H179.203H179.201H179.2H179.199H179.198H179.197H179.196H179.195H179.194H179.193H179.192H179.191H179.19H179.189H179.188H179.187H179.186H179.184H179.183H179.182H179.181H179.18H179.179H179.178H179.177H179.176H179.175H179.175H179.174H179.173H179.172H179.171H179.17H179.169H179.168H179.167H179.166H179.165H179.164H179.163H179.162H179.161H179.161H179.16H179.159H179.158H179.157H179.156H179.155H179.154H179.153H179.153H179.152H179.151H179.15H179.149H179.148H179.148H179.147H179.146H179.145H179.144H179.143H179.143H179.142H179.141H179.14H179.14H179.139H179.138H179.137H179.136H179.136H179.135H179.134H179.133H179.133H179.132H179.131H179.13H179.13H179.129H179.128H179.128H179.127H179.126H179.125H179.125H179.124H179.123H179.123H179.122H179.121H179.121H179.12H179.119H179.119H179.118H179.117H179.117H179.116H179.115H179.115H179.114H179.114H179.113H179.112H179.112H179.111H179.11H179.11H179.109H179.109H179.108H179.108H179.107H179.106H179.106H179.105H179.105H179.104H179.104H179.103H179.102H179.102H179.101H179.101H179.1H179.1H179.099H179.099H179.098H179.098H179.097H179.097H179.096H179.096H179.095H179.095H179.094H179.094H179.093H179.093H179.092H179.092H179.091H179.091H179.09H179.09H179.089H179.089H179.088H179.088H179.088H179.087H179.087H179.086H179.086H179.085H179.085H179.084H179.084H179.084H179.083H179.083H179.082H179.082H179.082H179.081H179.081H179.08H179.08H179.08H179.079H179.079H179.079H179.078H179.078H179.077H179.077H179.077H179.076H179.076H179.076H179.075H179.075H179.075H179.074H179.074H179.074H179.073H179.073H179.073H179.072H179.072H179.072H179.071H179.071H179.071H179.07H179.07H179.07H179.07H179.069H179.069H179.069H179.068H179.068H179.068H179.068H179.067H179.067H179.067H179.066H179.066H179.066H179.066H179.065H179.065H179.065H179.065H179.064H179.064H179.064H179.064H179.064H179.063H179.063H179.063H179.063H179.062H179.062H179.062H179.062H179.061H179.061H179.061H179.061H179.061H179.06H179.06H179.06Z" fill="white" stroke="black" stroke-width="0.5"/>
<path d="M165.717 4.31693L165.717 4.31714L165.726 4.32196L168.357 5.63011L149.092 38.3116L146.721 37.0014C144.249 35.6358 142.83 32.6054 142.83 28.3687C142.83 24.1397 144.32 19.3997 146.745 15.1801C149.17 10.9604 152.515 7.28561 156.2 5.17156L156.2 5.17165L156.206 5.16795C159.876 2.92173 163.225 2.94038 165.717 4.31693Z" fill="url(#paint3_linear)" stroke="black" stroke-width="0.5"/>
<path d="M168.017 5.78413C170.586 7.25906 171.918 10.3978 171.932 14.359C171.946 18.3132 170.642 23.0352 168.004 27.5788C165.366 32.1223 161.906 35.6059 158.455 37.5708C154.998 39.5393 151.599 39.9614 149.03 38.4865C146.461 37.0115 145.129 33.8728 145.115 29.9116C145.101 25.9574 146.405 21.2354 149.043 16.6918C151.681 12.1483 155.141 8.66466 158.592 6.69975C162.049 4.73134 165.448 4.30919 168.017 5.78413Z" fill="#ED3E46" stroke="black" stroke-width="0.5"/>
<path d="M163.249 13.7719C163.253 13.7712 163.256 13.7709 163.258 13.7708L163.312 13.7708L163.365 13.7446C165.039 12.9119 166.268 13.0927 166.95 13.8012C167.647 14.5258 167.883 15.9092 167.323 17.7239C166.185 20.8356 163.901 25.3811 158.747 32.2157L158.696 32.2825V32.3662C158.696 32.3793 158.695 32.387 158.694 32.3909C158.693 32.3913 158.693 32.3917 158.692 32.3922C158.685 32.3954 158.676 32.3981 158.667 32.3999C155.98 31.9749 154.159 31.2724 152.873 30.4429C151.588 29.6141 150.824 28.6499 150.266 27.6793C149.746 26.6384 149.926 25.0179 150.668 23.3672C151.405 21.7262 152.668 20.126 154.199 19.1572L154.315 19.0836V18.946C154.315 18.9329 154.317 18.9252 154.318 18.9213C154.318 18.9209 154.319 18.9205 154.32 18.92C154.327 18.9164 154.338 18.9133 154.348 18.9115C154.352 18.9109 154.355 18.9106 154.357 18.9104H154.428L154.49 18.8688C156.133 17.7797 157.721 18.0798 158.483 18.8377L158.743 19.0967L158.889 18.7594C159.725 16.8189 161.408 15.1397 163.104 14.0147L163.216 13.9405V13.8063C163.216 13.7932 163.218 13.7855 163.219 13.7816C163.219 13.7812 163.22 13.7808 163.221 13.7803C163.228 13.7767 163.239 13.7736 163.249 13.7719Z" fill="white" stroke="black" stroke-width="0.5"/>
<path d="M29.0411 107.966L29.041 107.967L29.0507 107.971L31.6816 109.28L12.4164 141.961L10.045 140.651C7.57316 139.285 6.1543 136.255 6.1543 132.018C6.1543 127.789 7.64444 123.049 10.0691 118.83C12.4938 114.61 15.8391 110.935 19.5239 108.821L19.524 108.821L19.53 108.817C23.2005 106.571 26.5495 106.59 29.0411 107.966Z" fill="url(#paint4_linear)" stroke="black" stroke-width="0.5"/>
<path d="M21.8591 140.938L21.8591 140.938L21.853 140.942C18.1672 143.198 14.8961 143.375 12.5626 142.01C10.2259 140.643 8.73828 137.677 8.73828 133.446C8.73828 129.217 10.2284 124.477 12.6531 120.257C15.0778 116.038 18.4231 112.363 22.1079 110.249L22.108 110.249L22.114 110.245C25.7999 107.989 29.071 107.812 31.4045 109.177C33.7412 110.544 35.2288 113.51 35.2288 117.741C35.2288 121.97 33.7386 126.71 31.3139 130.93C28.8892 135.15 25.544 138.824 21.8591 140.938Z" fill="#FFB92C" stroke="black" stroke-width="0.5"/>
<path d="M16.3536 124.533L16.3675 124.526L16.3805 124.517C16.7313 124.285 17.12 124.292 17.4238 124.511C17.7335 124.735 18.0022 125.217 18.0022 126.022C18.0022 126.839 17.7964 127.657 17.4546 128.337C17.1111 129.02 16.6417 129.542 16.131 129.796C15.6034 130.058 15.2155 130.025 14.9623 129.824C14.6926 129.609 14.4824 129.135 14.4824 128.306C14.4824 127.49 14.6882 126.671 15.03 125.992C15.3735 125.308 15.8429 124.787 16.3536 124.533Z" fill="#3D3838" stroke="black" stroke-width="0.5"/>
<path d="M30.0628 118.884C30.0628 119.7 29.8571 120.518 29.5152 121.198C29.1717 121.881 28.7023 122.403 28.1916 122.657C27.664 122.92 27.276 122.887 27.0229 122.685C26.7532 122.471 26.543 121.997 26.543 121.168C26.543 120.351 26.7487 119.533 27.0906 118.853C27.434 118.17 27.9034 117.648 28.4142 117.394C28.9126 117.146 29.3015 117.222 29.5718 117.464C29.8596 117.721 30.0628 118.212 30.0628 118.884Z" fill="#3D3838" stroke="black" stroke-width="0.5"/>
<path d="M17.4703 136.264C17.6027 136.262 17.7449 136.258 17.8946 136.249C17.7479 136.264 17.6059 136.268 17.4703 136.264ZM20.2015 135.767C20.1458 135.768 20.0924 135.773 20.0412 135.779C20.2069 135.721 20.3736 135.661 20.541 135.596C20.4306 135.653 20.3168 135.709 20.2015 135.767Z" fill="#3D3838" stroke="black" stroke-width="0.5"/>
<path d="M217.403 101.685L217.402 101.685L217.412 101.69L220.043 102.998L200.778 135.679L198.406 134.369C195.934 133.004 194.516 129.973 194.516 125.736C194.516 121.508 196.006 116.768 198.43 112.548C200.855 108.328 204.2 104.653 207.885 102.539L207.885 102.539L207.891 102.536C211.562 100.29 214.911 100.308 217.403 101.685Z" fill="url(#paint5_linear)" stroke="black" stroke-width="0.5"/>
<path d="M219.794 103.093C222.363 104.568 223.695 107.707 223.709 111.668C223.723 115.622 222.42 120.344 219.782 124.888C217.144 129.432 213.683 132.915 210.233 134.88C206.776 136.848 203.376 137.271 200.808 135.796C198.239 134.321 196.907 131.182 196.893 127.221C196.879 123.267 198.182 118.545 200.82 114.001C203.458 109.457 206.919 105.974 210.369 104.009C213.826 102.041 217.226 101.618 219.794 103.093Z" fill="#FFB92C" stroke="black" stroke-width="0.5"/>
<path d="M202.992 119.777C202.911 119.899 202.836 120.027 202.766 120.158C202.6 120.47 202.462 120.806 202.348 121.154C202.535 119.813 203.316 118.238 204.315 117.741C205.41 117.197 206.244 117.95 206.319 119.259L205.997 118.785C205.931 118.716 205.859 118.655 205.781 118.604C205.353 118.32 204.819 118.353 204.203 118.66C203.699 118.91 203.303 119.306 202.992 119.777ZM202.992 119.777C203.028 119.692 203.065 119.609 203.104 119.527C203.453 118.798 203.924 118.215 204.426 117.965L202.992 119.777ZM214.939 113.295C214.887 113.382 214.837 113.471 214.789 113.562C214.881 113.212 215.008 112.878 215.162 112.571C215.505 111.888 215.975 111.366 216.486 111.112C217.013 110.85 217.401 110.883 217.654 111.084C217.845 111.236 218.006 111.517 218.084 111.961C218.01 111.88 217.929 111.81 217.84 111.751C217.413 111.468 216.879 111.501 216.263 111.807L216.249 111.814L216.236 111.822C215.763 112.136 215.309 112.67 214.939 113.295Z" fill="#3D3838" stroke="black" stroke-width="0.5"/>
<path d="M205.603 129.481C205.153 129.315 204.84 129.07 204.668 128.783C205.224 128.688 205.766 128.608 206.306 128.528C208.385 128.221 210.425 127.919 213.058 126.773C211.302 128.535 209.419 129.392 207.866 129.629C206.964 129.767 206.183 129.696 205.603 129.481Z" fill="white" stroke="black" stroke-width="0.5"/>
<path d="M144.756 108.823L144.756 108.823L144.766 108.828L147.397 110.136L128.131 142.818L125.76 141.508C123.288 140.142 121.869 137.112 121.869 132.875C121.869 128.646 123.359 123.906 125.784 119.686C128.209 115.467 131.554 111.792 135.239 109.678L135.239 109.678L135.245 109.674C138.915 107.428 142.264 107.446 144.756 108.823Z" fill="url(#paint6_linear)" stroke="black" stroke-width="0.5"/>
<path d="M137.287 142.081L137.287 142.081L137.281 142.084C133.595 144.34 130.324 144.517 127.99 143.152C125.654 141.786 124.166 138.819 124.166 134.588C124.166 130.218 125.727 125.479 128.187 121.295C130.648 117.11 133.994 113.504 137.539 111.389L137.539 111.389L137.542 111.387C141.228 109.132 144.499 108.954 146.832 110.319C149.169 111.686 150.656 114.652 150.656 118.884C150.656 123.112 149.166 127.852 146.742 132.072C144.317 136.292 140.972 139.967 137.287 142.081Z" fill="#FFB92C" stroke="black" stroke-width="0.5"/>
<path d="M133.143 126.879C133.143 127.695 132.937 128.513 132.595 129.193C132.252 129.877 131.782 130.398 131.272 130.652C130.744 130.915 130.356 130.882 130.103 130.681C129.833 130.466 129.623 129.992 129.623 129.163C129.623 128.346 129.829 127.528 130.171 126.848C130.514 126.165 130.984 125.643 131.494 125.389C132.022 125.127 132.41 125.16 132.663 125.361C132.933 125.576 133.143 126.05 133.143 126.879Z" fill="#3D3838" stroke="black" stroke-width="0.5"/>
<path d="M143.555 118.536L143.575 118.526L143.593 118.513C143.854 118.318 144.077 118.237 144.256 118.227C144.429 118.218 144.58 118.273 144.713 118.392C144.992 118.642 145.204 119.195 145.204 120.026C145.204 120.842 144.998 121.66 144.656 122.34C144.312 123.024 143.843 123.545 143.332 123.799C142.805 124.062 142.417 124.029 142.164 123.828C141.894 123.613 141.684 123.139 141.684 122.31C141.684 121.493 141.889 120.675 142.231 119.995C142.575 119.312 143.044 118.79 143.555 118.536Z" fill="#3D3838" stroke="black" stroke-width="0.5"/>
<path d="M137.282 137.516C135.439 138.643 133.852 139.038 132.718 138.839C132.157 138.74 131.708 138.497 131.382 138.126C131.082 137.783 130.873 137.317 130.789 136.72L143.988 129.064C143.747 130.437 143.024 131.918 141.951 133.33C140.75 134.911 139.123 136.389 137.282 137.516Z" fill="white" stroke="black" stroke-width="0.5"/>
<defs>
<linearGradient id="paint0_linear" x1="141.725" y1="189.185" x2="122.618" y2="222.464" gradientUnits="userSpaceOnUse">
<stop stop-color="#EAE5EB"/>
<stop offset="1" stop-color="#E5E0E8"/>
</linearGradient>
<linearGradient id="paint1_linear" x1="23.0164" y1="194.579" x2="3.90968" y2="227.858" gradientUnits="userSpaceOnUse">
<stop stop-color="#EAE5EB"/>
<stop offset="1" stop-color="#E5E0E8"/>
</linearGradient>
<linearGradient id="paint2_linear" x1="181.577" y1="67.9582" x2="169.812" y2="88.4498" gradientUnits="userSpaceOnUse">
<stop stop-color="#EAE5EB"/>
<stop offset="1" stop-color="#E5E0E8"/>
</linearGradient>
<linearGradient id="paint3_linear" x1="162.196" y1="2.14618" x2="143.089" y2="35.4251" gradientUnits="userSpaceOnUse">
<stop stop-color="#EAE5EB"/>
<stop offset="1" stop-color="#E5E0E8"/>
</linearGradient>
<linearGradient id="paint4_linear" x1="5.94249" y1="124.542" x2="31.8788" y2="124.542" gradientUnits="userSpaceOnUse">
<stop stop-color="#EAE5EB"/>
<stop offset="1" stop-color="#E5E0E8"/>
</linearGradient>
<linearGradient id="paint5_linear" x1="213.878" y1="99.4015" x2="194.772" y2="132.68" gradientUnits="userSpaceOnUse">
<stop stop-color="#EAE5EB"/>
<stop offset="1" stop-color="#E5E0E8"/>
</linearGradient>
<linearGradient id="paint6_linear" x1="141.205" y1="106.569" x2="122.099" y2="139.847" gradientUnits="userSpaceOnUse">
<stop stop-color="#EAE5EB"/>
<stop offset="1" stop-color="#E5E0E8"/>
</linearGradient>
</defs>
</svg>
