<svg width="153" height="168" viewBox="0 0 153 168" fill="none" xmlns="http://www.w3.org/2000/svg">
<path d="M142.584 2.15914L142.584 2.15937L142.594 2.15328C144.829 0.76387 147.021 0.787108 148.358 1.58159L149.878 2.58884L138.058 22.4581L136.552 21.709C135.23 20.9148 134.385 19.0281 134.385 16.5033C134.385 13.8438 135.301 10.8881 136.793 8.2753C138.284 5.66195 140.336 3.41613 142.584 2.15914Z" fill="url(#paint0_linear)" stroke="black" stroke-width="0.5"/>
<path d="M144.062 21.9959C141.808 23.2568 139.825 23.3651 138.422 22.5678C137.021 21.7719 136.107 20.0214 136.107 17.36C136.107 14.8454 137.023 11.9613 138.515 9.34612C140.006 6.73349 142.06 4.41399 144.311 3.01301C146.564 1.75475 148.545 1.6472 149.947 2.44393C151.348 3.23981 152.261 4.99036 152.261 7.65175C152.261 10.3112 151.345 13.2669 149.853 15.8797C148.362 18.4931 146.309 20.7389 144.062 21.9959Z" fill="#FFB92C" stroke="black" stroke-width="0.5"/>
<path d="M148.547 7.59436C148.575 7.6175 148.603 7.64775 148.63 7.68628C148.352 7.63529 148.06 7.75681 147.809 7.9812C147.779 7.98586 147.749 7.99236 147.721 8.00051C147.832 7.83712 147.949 7.69188 148.064 7.57321C148.276 7.4784 148.437 7.50351 148.547 7.59436ZM140.563 11.8731L140.599 11.8551L140.628 11.8265C140.743 11.7113 140.833 11.6793 140.89 11.6756C140.94 11.6723 140.998 11.6891 141.065 11.7551C141.15 11.8403 141.233 11.9947 141.288 12.2172C141.003 12.1015 140.661 12.1223 140.34 12.282C140.221 12.3414 140.104 12.4198 139.993 12.5132C140.177 12.1828 140.385 11.9614 140.563 11.8731Z" fill="#3D3838" stroke="black" stroke-width="0.5"/>
<path d="M141.258 18.526C141.045 18.4253 140.892 18.2913 140.796 18.1361C141.036 18.1044 141.268 18.0757 141.497 18.0475C142.767 17.8913 143.933 17.7479 145.52 17.1634C144.488 18.1229 143.433 18.5755 142.574 18.6823C142.035 18.7493 141.582 18.6796 141.258 18.526Z" fill="white" stroke="black" stroke-width="0.5"/>
<path d="M11.3649 93.8162L11.3651 93.8165L11.3748 93.8104C13.6103 92.421 15.8027 92.4442 17.1396 93.2387L18.6589 94.2459L6.83957 114.115L5.33315 113.366C4.01142 112.572 3.16602 110.685 3.16602 108.16C3.16602 105.501 4.08252 102.545 5.57377 99.9324C7.06532 97.3191 9.11778 95.0732 11.3649 93.8162Z" fill="url(#paint1_linear)" stroke="black" stroke-width="0.5"/>
<path d="M12.8435 113.653C10.5893 114.914 8.60591 115.022 7.20281 114.225C5.80223 113.429 4.88867 111.678 4.88867 109.017C4.88867 106.358 5.80517 103.402 7.29642 100.789C8.78796 98.1757 10.8404 95.9299 13.0876 94.6729C15.3417 93.412 17.3251 93.3037 18.7282 94.101C20.1288 94.8969 21.0424 96.6475 21.0424 99.3089C21.0424 101.968 20.1259 104.924 18.6346 107.537C17.1431 110.15 15.0906 112.396 12.8435 113.653Z" fill="#ED3E46" stroke="black" stroke-width="0.5"/>
<path d="M13.19 101.991C13.7479 100.881 14.5795 99.7805 15.9638 98.9538C16.9238 98.4091 17.5592 98.5358 17.8739 98.901C18.2148 99.2965 18.32 100.109 17.9012 101.219L17.8976 101.229L17.8948 101.239C17.3383 103.176 15.9445 105.69 12.8403 109.909H12.8403H12.8391H12.838H12.8369H12.8358H12.8346H12.8335H12.8324H12.8313H12.8302H12.8291H12.828H12.827H12.8259H12.8248H12.8237H12.8227H12.8216H12.8206H12.8195H12.8185H12.8175H12.8164H12.8154H12.8144H12.8134H12.8124H12.8114H12.8104H12.8094H12.8084H12.8074H12.8064H12.8054H12.8045H12.8035H12.8025H12.8016H12.8006H12.7997H12.7988H12.7978H12.7969H12.796H12.7951H12.7941H12.7932H12.7923H12.7914H12.7905H12.7896H12.7888H12.7879H12.787H12.7861H12.7853H12.7844H12.7835H12.7827H12.7818H12.781H12.7802H12.7793H12.7785H12.7777H12.7768H12.776H12.7752H12.7744H12.7736H12.7728H12.772H12.7712H12.7705H12.7697H12.7689H12.7681H12.7674H12.7666H12.7658H12.7651H12.7643H12.7636H12.7629H12.7621H12.7614H12.7607H12.7599H12.7592H12.7585H12.7578H12.7571H12.7564H12.7557H12.755H12.7543H12.7536H12.753H12.7523H12.7516H12.7509H12.7503H12.7496H12.749H12.7483H12.7477H12.747H12.7464H12.7457H12.7451H12.7445H12.7439H12.7432H12.7426H12.742H12.7414H12.7408H12.7402H12.7396H12.739H12.7384H12.7379H12.7373H12.7367H12.7361H12.7356H12.735H12.7344H12.7339H12.7333H12.7328H12.7322H12.7317H12.7312H12.7306H12.7301H12.7296H12.729H12.7285H12.728H12.7275H12.727H12.7265H12.726H12.7255H12.725H12.7245H12.724H12.7235H12.723H12.7226H12.7221H12.7216H12.7212H12.7207H12.7202H12.7198H12.7193H12.7189H12.7184H12.718H12.7175H12.7171H12.7167H12.7163H12.7158H12.7154H12.715H12.7146H12.7142H12.7137H12.7133H12.7129H12.7125H12.7121H12.7118H12.7114H12.711H12.7106H12.7102H12.7098H12.7095H12.7091H12.7087H12.7084H12.708H12.7076H12.7073H12.7069H12.7066H12.7062H12.7059H12.7055H12.7052H12.7049H12.7045H12.7042H12.7039H12.7036H12.7032H12.7029H12.7026H12.7023H12.702H12.7017H12.7014H12.7011H12.7008H12.7005H12.7002H12.6999H12.6996H12.6993H12.699H12.6988H12.6985H12.6982H12.6979H12.6977H12.6974H12.6971H12.6969H12.6966H12.6964H12.6961H12.6959H12.6956H12.6954H12.6951H12.6949H12.6947H12.6944H12.6942H12.694H12.6937H12.6935H12.6933H12.6931H12.6928H12.6926H12.6924H12.6922H12.692H12.6918H12.6916H12.6914H12.6912H12.691H12.6909C9.62698 109.629 8.27368 108.256 7.73927 107.201C7.49467 106.581 7.60895 105.665 8.06065 104.697C8.50001 103.756 9.23865 102.813 10.1759 102.129H10.1769H10.1783H10.1796H10.1809H10.1822H10.1836H10.1849H10.1862H10.1875H10.1888H10.1901H10.1914H10.1926H10.1939H10.1952H10.1964H10.1977H10.199H10.2002H10.2014H10.2027H10.2039H10.2051H10.2063H10.2076H10.2088H10.21H10.2112H10.2123H10.2135H10.2147H10.2159H10.217H10.2182H10.2194H10.2205H10.2217H10.2228H10.2239H10.2251H10.2262H10.2273H10.2284H10.2295H10.2306H10.2317H10.2328H10.2339H10.235H10.2361H10.2371H10.2382H10.2393H10.2403H10.2414H10.2424H10.2435H10.2445H10.2455H10.2465H10.2476H10.2486H10.2496H10.2506H10.2516H10.2526H10.2536H10.2546H10.2555H10.2565H10.2575H10.2584H10.2594H10.2604H10.2613H10.2622H10.2632H10.2641H10.2651H10.266H10.2669H10.2678H10.2687H10.2696H10.2705H10.2714H10.2723H10.2732H10.2741H10.275H10.2758H10.2767H10.2776H10.2784H10.2793H10.2801H10.281H10.2818H10.2826H10.2835H10.2843H10.2851H10.2859H10.2867H10.2875H10.2883H10.2891H10.2899H10.2907H10.2915H10.2923H10.2931H10.2938H10.2946H10.2954H10.2961H10.2969H10.2976H10.2984H10.2991H10.2998H10.3006H10.3013H10.302H10.3027H10.3034H10.3042H10.3049H10.3056H10.3063H10.307H10.3076H10.3083H10.309H10.3097H10.3104H10.311H10.3117H10.3123H10.313H10.3136H10.3143H10.3149H10.3156H10.3162H10.3168H10.3175H10.3181H10.3187H10.3193H10.3199H10.3205H10.3211H10.3217H10.3223H10.3229H10.3235H10.3241H10.3247H10.3253H10.3258H10.3264H10.327H10.3275H10.3281H10.3286H10.3292H10.3297H10.3303H10.3308H10.3313H10.3319H10.3324H10.3329H10.3334H10.334H10.3345H10.335H10.3355H10.336H10.3365H10.337H10.3375H10.338H10.3384H10.3389H10.3394H10.3399H10.3403H10.3408H10.3413H10.3417H10.3422H10.3426H10.3431H10.3435H10.344H10.3444H10.3448H10.3453H10.3457H10.3461H10.3466H10.347H10.3474H10.3478H10.3482H10.3486H10.349H10.3494H10.3498H10.3502H10.3506H10.351H10.3514H10.3517H10.3521H10.3525H10.3529H10.3532H10.3536H10.354H10.3543H10.3547H10.355H10.3554H10.3557H10.3561H10.3564H10.3568H10.3571H10.3574H10.3578H10.3581H10.3584H10.3587H10.359H10.3594H10.3597H10.36H10.3603H10.3606H10.3609H10.3612H10.3615H10.3618H10.3621H10.3624H10.3626H10.3629H10.3632H10.3635H10.3637H10.364H10.3643H10.3646H10.3648H10.3651H10.3653H10.3656H10.3658H10.3661H10.3663H10.3666H10.3668H10.3671H10.3673H10.3675H10.3678H10.368H10.3682H10.3685H10.3687H10.3689H10.3691H10.3693H10.3696H10.3698H10.37H10.3702H10.3704H10.3706H10.3708H10.371H10.3712H10.3714H10.3716H10.3718H10.3719H10.3721H10.3723H10.3725H10.3727H10.3728H10.373H10.3732H10.3734H10.3735H10.3737H10.3739H10.374H10.3742H10.3743H10.3745H10.3746H10.3748H10.3749H10.3751H10.3752H10.3754H10.3755H10.3757H10.3758H10.3759H10.3761H10.3762H10.3763H10.3765H10.3766H10.3767H10.3768H10.3769H10.3771H10.3772H10.3773H10.3774H10.3775H10.3776H10.3778H10.3779H10.378H10.3781H10.3782H10.3783H10.3784H10.3785H10.3786H10.3787H10.3788H10.3788H10.3789H10.379H10.3791H10.3792H10.3793H10.3794H10.3794H10.3795H10.3796H10.3797H10.3798H10.3798H10.3799H10.38H10.38H10.3801H10.3802H10.3802H10.3803H10.3804H10.3804H10.3805H10.3806H10.3806H10.3807H10.3807H10.3808H10.3808H10.3809H10.3809H10.381H10.381H10.3811H10.3811H10.3812H10.3812H10.3813H10.3813H10.3814H10.3814H10.3814H10.3815H10.3815H10.3816H10.3816H10.3816H10.3817H10.3817H10.3817H10.3818H10.3818H10.3818H10.3818H10.3819H10.3819H10.3819H10.3819H10.382H10.382H10.382H10.382H10.3821H10.3821H10.3821H10.3821H10.3821H10.3822H10.3822H10.3822H10.3822H10.3822H10.3822H10.3822H10.3823H10.3823H10.3823H10.3823H10.3823H10.3823H10.3823H10.3823H10.3823H10.3824H10.3824H10.3824H10.3824H10.3824H10.3824H10.3824H10.3824H10.3824H10.3824H10.3824H10.3824H10.3824H10.3824H10.3824H10.3824H10.3824H10.3824H10.3824H10.3824H10.3824H10.3824H10.3825H10.3825H10.4412L10.4938 102.103C11.6117 101.547 12.3334 101.601 12.7904 102.056L13.035 102.299L13.19 101.991Z" fill="white" stroke="black" stroke-width="0.5"/>
<path d="M125.355 146.355L125.355 146.355L125.365 146.349C127.6 144.96 129.793 144.983 131.13 145.777L132.649 146.785L120.83 166.654L119.323 165.905C118.002 165.111 117.156 163.224 117.156 160.699C117.156 158.04 118.073 155.084 119.564 152.471C121.056 149.858 123.108 147.612 125.355 146.355Z" fill="url(#paint2_linear)" stroke="black" stroke-width="0.5"/>
<path d="M126.547 166.192C124.292 167.453 122.309 167.561 120.906 166.764C119.505 165.968 118.592 164.217 118.592 161.556C118.592 158.896 119.508 155.941 121 153.328C122.491 150.714 124.544 148.469 126.791 147.212C129.045 145.951 131.028 145.842 132.431 146.64C133.832 147.436 134.745 149.186 134.745 151.848C134.745 154.507 133.829 157.463 132.338 160.076C130.846 162.689 128.794 164.935 126.547 166.192Z" fill="#FFB92C" stroke="black" stroke-width="0.5"/>
<path d="M124.121 156.702C124.121 157.08 123.992 157.543 123.786 157.988C123.587 158.416 123.328 158.804 123.076 159.064C122.864 159.159 122.702 159.134 122.593 159.043C122.462 158.935 122.324 158.67 122.324 158.129C122.324 157.097 122.832 156.311 123.368 155.768C123.534 155.7 123.696 155.74 123.836 155.879C123.995 156.037 124.121 156.325 124.121 156.702Z" fill="#3D3838" stroke="black" stroke-width="0.5"/>
<path d="M131.586 152.419C131.586 152.797 131.457 153.26 131.25 153.705C131.052 154.133 130.793 154.521 130.541 154.781C130.329 154.876 130.167 154.851 130.057 154.76C129.927 154.652 129.789 154.387 129.789 153.846C129.789 152.814 130.297 152.028 130.833 151.485C130.999 151.417 131.16 151.457 131.301 151.596C131.459 151.754 131.586 152.042 131.586 152.419Z" fill="#3D3838" stroke="black" stroke-width="0.5"/>
<path d="M127.642 161.797C127.72 161.784 127.794 161.759 127.864 161.727L127.856 161.735L127.849 161.742L127.842 161.749L127.829 161.762L127.815 161.776L127.812 161.779L127.809 161.782L127.805 161.786L127.802 161.789L127.775 161.816L127.768 161.822L127.765 161.826L127.762 161.829L127.748 161.842L127.703 161.887C127.527 161.92 127.422 162.024 127.359 162.087C127.357 162.089 127.355 162.091 127.353 162.092C127.286 162.159 127.277 162.162 127.245 162.162C127.29 162.13 127.327 162.1 127.355 162.076C127.374 162.06 127.389 162.047 127.4 162.037L127.413 162.025L127.417 162.021L127.418 162.019L127.418 162.019L127.419 162.019L127.419 162.019C127.419 162.019 127.419 162.019 127.243 161.841L127.245 161.843L127.419 162.019L127.419 162.019L127.642 161.797ZM126.733 162.374C126.753 162.372 126.772 162.369 126.791 162.366C126.789 162.368 126.786 162.371 126.784 162.373C126.783 162.374 126.781 162.376 126.779 162.378C126.71 162.446 126.702 162.448 126.668 162.448H126.584L126.733 162.374ZM125.918 162.779L126.546 162.467L126.492 162.521C126.345 162.667 126.215 162.796 126.088 162.89C125.959 162.986 125.869 163.019 125.807 163.019H125.704L125.631 163.092C125.421 163.3 125.229 163.304 124.945 163.304H124.887L124.834 163.331C124.73 163.383 124.624 163.411 124.518 163.424C124.683 163.376 124.856 163.307 125.057 163.207L125.918 162.779Z" fill="#3D3838" stroke="black" stroke-width="0.5"/>
<path d="M9.06611 12.724L9.06624 12.7242L9.07603 12.7181C11.3115 11.3287 13.5039 11.3519 14.8408 12.1464L16.3601 13.1536L4.54074 33.0228L3.03429 32.2737C1.71257 31.4795 0.867188 29.5928 0.867188 27.0681C0.867188 24.4086 1.7837 21.4529 3.27495 18.8401C4.7665 16.2267 6.81895 13.9809 9.06611 12.724Z" fill="url(#paint3_linear)" stroke="black" stroke-width="0.5"/>
<path d="M10.5446 32.2752C8.29048 33.5361 6.30709 33.6444 4.90399 32.8471C3.50341 32.0512 2.58984 30.3007 2.58984 27.6393C2.58984 25.1247 3.505 22.2406 4.9976 19.6254C6.48873 17.0128 8.54208 14.6933 10.7938 13.2923C13.0458 12.034 15.0273 11.9265 16.4294 12.7232C17.83 13.5191 18.7435 15.2697 18.7435 17.931C18.7435 20.5905 17.827 23.5462 16.3358 26.159C14.8442 28.7724 12.7918 31.0182 10.5446 32.2752Z" fill="#FFB92C" stroke="black" stroke-width="0.5"/>
<path d="M7.83221 23.0706C7.83221 23.4495 7.70325 23.9119 7.49653 24.3573C7.2982 24.7846 7.03911 25.1729 6.78679 25.4333C6.57472 25.5281 6.41322 25.503 6.30359 25.4122C6.17275 25.3038 6.03516 25.0394 6.03516 24.4982C6.03516 23.4655 6.54388 22.6789 7.08007 22.1358C7.29239 22.0407 7.45406 22.0658 7.56378 22.1567C7.69462 22.2651 7.83221 22.5294 7.83221 23.0706Z" fill="#3D3838" stroke="black" stroke-width="0.5"/>
<path d="M15.2971 18.7876C15.2971 19.1665 15.1681 19.629 14.9614 20.0744C14.763 20.5017 14.5039 20.89 14.2516 21.1504C14.0396 21.2452 13.8781 21.2201 13.7684 21.1293C13.6376 21.0208 13.5 20.7565 13.5 20.2153C13.5 19.8364 13.629 19.374 13.8357 18.9286C14.034 18.5012 14.2931 18.1129 14.5454 17.8525C14.7575 17.7577 14.919 17.7828 15.0286 17.8737C15.1595 17.9821 15.2971 18.2464 15.2971 18.7876Z" fill="#3D3838" stroke="black" stroke-width="0.5"/>
<path d="M10.5551 29.6993C9.27825 30.2624 8.33709 30.4474 7.70023 30.3207C7.38968 30.259 7.15437 30.1238 6.97944 29.9209C6.82837 29.7456 6.71207 29.5077 6.63976 29.1958L14.6259 24.6955C14.1958 26.4783 12.8462 28.4301 10.5551 29.6993Z" fill="white" stroke="black" stroke-width="0.5"/>
<defs>
<linearGradient id="paint0_linear" x1="146.318" y1="0.222877" x2="134.553" y2="20.7141" gradientUnits="userSpaceOnUse">
<stop stop-color="#EAE5EB"/>
<stop offset="1" stop-color="#E5E0E8"/>
</linearGradient>
<linearGradient id="paint1_linear" x1="15.1054" y1="91.7506" x2="3.34056" y2="112.242" gradientUnits="userSpaceOnUse">
<stop stop-color="#EAE5EB"/>
<stop offset="1" stop-color="#E5E0E8"/>
</linearGradient>
<linearGradient id="paint2_linear" x1="128.962" y1="144.34" x2="117.197" y2="164.83" gradientUnits="userSpaceOnUse">
<stop stop-color="#EAE5EB"/>
<stop offset="1" stop-color="#E5E0E8"/>
</linearGradient>
<linearGradient id="paint3_linear" x1="12.9214" y1="10.5376" x2="1.15668" y2="31.0288" gradientUnits="userSpaceOnUse">
<stop stop-color="#EAE5EB"/>
<stop offset="1" stop-color="#E5E0E8"/>
</linearGradient>
</defs>
</svg>
