<svg width="34" height="24" viewBox="0 0 34 24" fill="none" xmlns="http://www.w3.org/2000/svg">
<mask id="mask0" mask-type="alpha" maskUnits="userSpaceOnUse" x="0" y="4" width="34" height="20">
<path d="M32.2996 10.2627C31.4996 9.06273 30.2996 7.96274 28.5996 6.96274C22.1996 3.26274 11.7996 3.26274 5.39961 6.96274C3.49961 8.06274 2.09961 9.36273 1.39961 10.7627L0.599609 10.2627V13.6628C0.599609 16.0628 2.19961 18.4627 5.39961 20.3627C11.7996 24.0627 22.1996 24.0627 28.5996 20.3627C31.6996 18.5627 33.2996 16.2627 33.3996 13.8627V10.1628L32.2996 10.2627Z" fill="white"/>
</mask>
<g mask="url(#mask0)">
<path d="M32.2996 10.2627C31.4996 9.06273 30.2996 7.96274 28.5996 6.96274C22.1996 3.26274 11.7996 3.26274 5.39961 6.96274C3.49961 8.06274 2.09961 9.36273 1.39961 10.7627L0.599609 10.2627V13.6628C0.599609 16.0628 2.19961 18.4627 5.39961 20.3627C11.7996 24.0627 22.1996 24.0627 28.5996 20.3627C31.6996 18.5627 33.2996 16.2627 33.3996 13.8627V10.1628L32.2996 10.2627Z" fill="#BA6000"/>
<path d="M17 23.5627C12.7 23.5627 8.4 22.6627 5.1 20.7627C1.8 18.8627 0 16.3627 0 13.6627V9.36271L1.1 10.0627C2 8.76272 3.3 7.56272 5 6.56272C11.5 2.86272 22.1 2.86272 28.7 6.56272C30.3 7.46272 31.6 8.5627 32.4 9.7627L33.7 9.56272V13.8627C33.6 16.4627 31.8 18.9627 28.6 20.7627C25.6 22.6627 21.3 23.5627 17 23.5627ZM1.1 11.1627V13.6627C1.1 15.9627 2.7 18.2627 5.6 19.8627C11.8 23.4627 22 23.4627 28.3 19.8627C31.2 18.2627 32.8 16.0627 32.9 13.7627V10.6627L32.1 10.7627L31.9 10.4627C31.1 9.26271 29.9 8.2627 28.3 7.2627C22 3.6627 11.9 3.6627 5.6 7.2627C3.8 8.2627 2.5 9.56271 1.8 10.8627L1.5 11.3627L1.1 11.1627Z" fill="black"/>
</g>
<mask id="mask1" mask-type="alpha" maskUnits="userSpaceOnUse" x="0" y="0" width="34" height="20">
<path d="M28.5996 3.66282C34.9996 7.36282 34.9996 13.3628 28.5996 16.9628C22.1996 20.6628 11.7996 20.6628 5.39961 16.9628C-1.00039 13.2628 -1.00039 7.26282 5.39961 3.66282C11.7996 -0.0371826 22.1996 -0.0371826 28.5996 3.66282Z" fill="white"/>
</mask>
<g mask="url(#mask1)">
<path d="M28.5996 3.6627C34.9996 7.3627 34.9996 13.3627 28.5996 16.9627C22.1996 20.6627 11.7996 20.6627 5.39961 16.9627C-1.00039 13.2627 -1.00039 7.2627 5.39961 3.6627C11.7996 -0.0373046 22.1996 -0.0373046 28.5996 3.6627Z" fill="#FF9D26"/>
<path d="M16.9996 20.1627C12.6996 20.1627 8.39961 19.2627 5.09961 17.3627C1.79961 15.4627 0.0996094 12.9627 0.0996094 10.2627C0.0996094 7.56272 1.89961 5.06274 5.19961 3.16274C11.6996 -0.637256 22.2996 -0.637256 28.8996 3.16274C32.1996 5.06274 33.8996 7.56272 33.8996 10.2627C33.8996 12.9627 32.0996 15.4627 28.7996 17.3627C25.5996 19.2627 21.2996 20.1627 16.9996 20.1627ZM16.9996 1.36273C12.8996 1.36273 8.79961 2.26274 5.69961 4.06274C2.79961 5.76274 1.09961 7.96272 1.09961 10.2627C1.09961 12.5627 2.69961 14.7627 5.59961 16.4627C11.8996 20.0627 21.9996 20.0627 28.2996 16.4627C31.1996 14.7627 32.8996 12.5627 32.8996 10.2627C32.8996 7.96272 31.2996 5.76274 28.3996 4.06274C25.1996 2.26274 21.0996 1.36273 16.9996 1.36273Z" fill="black"/>
</g>
<mask id="mask2" mask-type="alpha" maskUnits="userSpaceOnUse" x="4" y="2" width="27" height="16">
<path d="M26.3992 5.06282C21.2992 2.16282 12.9992 2.16282 7.89922 5.06282C2.79922 7.96282 2.79922 12.7628 7.89922 15.7628C12.9992 18.6628 21.2992 18.7628 26.3992 15.7628C31.4992 12.7628 31.4992 7.96282 26.3992 5.06282ZM24.7992 14.7628C20.5992 17.1628 13.7992 17.1628 9.59922 14.7628C5.39922 12.3628 5.39922 8.46282 9.59922 6.06282C13.7992 3.66282 20.5992 3.66282 24.7992 6.06282C28.8992 8.46282 28.8992 12.3628 24.7992 14.7628Z" fill="white"/>
</mask>
<g mask="url(#mask2)">
<path d="M26.3992 5.06282C21.2992 2.16282 12.9992 2.16282 7.89922 5.06282C2.79922 7.96282 2.79922 12.7628 7.89922 15.7628C12.9992 18.6628 21.2992 18.7628 26.3992 15.7628C31.4992 12.7628 31.4992 7.96282 26.3992 5.06282ZM24.7992 14.7628C20.5992 17.1628 13.7992 17.1628 9.59922 14.7628C5.39922 12.3628 5.39922 8.46282 9.59922 6.06282C13.7992 3.66282 20.5992 3.66282 24.7992 6.06282C28.8992 8.46282 28.8992 12.3628 24.7992 14.7628Z" fill="#BA6000"/>
<path d="M17.099 18.3628C13.599 18.3628 10.199 17.5628 7.59902 16.0628C4.99902 14.5628 3.49902 12.4628 3.49902 10.2628C3.49902 8.06276 4.99902 5.96277 7.59902 4.46277C12.899 1.46277 21.399 1.46277 26.599 4.46277C29.199 5.96277 30.699 8.06276 30.699 10.2628C30.699 12.4628 29.199 14.4628 26.599 16.0628C23.999 17.6628 20.599 18.3628 17.099 18.3628ZM17.099 3.26276C13.799 3.26276 10.599 3.96276 8.09902 5.36276C5.79902 6.66276 4.49902 8.46276 4.49902 10.2628C4.49902 12.0628 5.79902 13.8628 8.09902 15.1628C13.099 18.0628 21.199 18.0628 26.099 15.1628C28.399 13.8628 29.699 12.0628 29.699 10.2628C29.699 8.46276 28.399 6.66276 26.099 5.36276C23.699 4.06276 20.399 3.26276 17.099 3.26276ZM17.199 17.0628C14.399 17.0628 11.499 16.4628 9.39902 15.1628C7.19902 13.8628 5.99902 12.1628 5.99902 10.3628C5.99902 8.56276 7.19902 6.86277 9.39902 5.56277C13.699 3.06277 20.799 3.06277 25.099 5.56277C27.299 6.76277 28.499 8.46276 28.499 10.3628C28.499 12.1628 27.299 13.8628 25.099 15.1628C22.799 16.3628 19.999 17.0628 17.199 17.0628ZM17.199 4.76276C14.599 4.76276 11.899 5.36277 9.89902 6.46277C7.99902 7.56277 6.99902 8.96276 6.99902 10.3628C6.99902 11.8628 7.99902 13.2628 9.89902 14.2628C13.899 16.5628 20.499 16.5628 24.599 14.2628C26.499 13.1628 27.499 11.7628 27.499 10.3628C27.499 8.86276 26.499 7.56277 24.599 6.46277C22.499 5.26277 19.799 4.76276 17.199 4.76276Z" fill="black"/>
</g>
<mask id="mask3" mask-type="alpha" maskUnits="userSpaceOnUse" x="4" y="2" width="27" height="16">
<path d="M26.3992 4.46277C21.2992 1.46277 12.9992 1.46277 7.89922 4.46277C2.79922 7.36277 2.79922 12.1628 7.89922 15.1628C12.9992 18.1628 21.2992 18.1628 26.3992 15.1628C31.4992 12.1628 31.4992 7.36277 26.3992 4.46277ZM24.7992 14.1628C20.5992 16.5628 13.7992 16.5628 9.59922 14.1628C5.39922 11.7628 5.39922 7.86277 9.59922 5.46277C13.7992 3.06277 20.5992 3.06277 24.7992 5.46277C28.8992 7.86277 28.8992 11.7628 24.7992 14.1628Z" fill="white"/>
</mask>
<g mask="url(#mask3)">
<path d="M26.3992 4.46277C21.2992 1.46277 12.9992 1.46277 7.89922 4.46277C2.79922 7.36277 2.79922 12.1628 7.89922 15.1628C12.9992 18.1628 21.2992 18.1628 26.3992 15.1628C31.4992 12.1628 31.4992 7.36277 26.3992 4.46277ZM24.7992 14.1628C20.5992 16.5628 13.7992 16.5628 9.59922 14.1628C5.39922 11.7628 5.39922 7.86277 9.59922 5.46277C13.7992 3.06277 20.5992 3.06277 24.7992 5.46277C28.8992 7.86277 28.8992 11.7628 24.7992 14.1628Z" fill="#FF8400"/>
<path d="M17.099 17.7628C13.599 17.7628 10.199 16.9628 7.59902 15.4628C4.99902 13.9628 3.49902 11.8628 3.49902 9.66281C3.49902 7.46281 4.99902 5.46279 7.59902 3.86279C12.899 0.862793 21.399 0.862793 26.599 3.86279C29.199 5.36279 30.699 7.46281 30.699 9.66281C30.699 11.8628 29.199 13.8628 26.599 15.4628C23.999 17.0628 20.599 17.7628 17.099 17.7628ZM17.099 2.66281C13.799 2.66281 10.599 3.36279 8.09902 4.76279C5.79902 6.06279 4.49902 7.86281 4.49902 9.66281C4.49902 11.4628 5.79902 13.2628 8.09902 14.5628C13.099 17.4628 21.199 17.4628 26.099 14.5628C28.399 13.2628 29.699 11.4628 29.699 9.66281C29.699 7.86281 28.399 6.06279 26.099 4.76279C23.699 3.46279 20.399 2.66281 17.099 2.66281ZM17.199 16.4628C14.399 16.4628 11.499 15.8628 9.39902 14.5628C7.19902 13.2628 5.99902 11.5628 5.99902 9.76279C5.99902 7.96279 7.19902 6.2628 9.39902 4.9628C13.699 2.4628 20.699 2.4628 25.099 4.9628C27.299 6.2628 28.499 7.96279 28.499 9.76279C28.499 11.5628 27.299 13.2628 25.099 14.5628C22.799 15.8628 19.999 16.4628 17.199 16.4628ZM17.199 4.16281C14.599 4.16281 11.899 4.76279 9.89902 5.86279C7.99902 6.96279 6.99902 8.26279 6.99902 9.76279C6.99902 11.2628 7.99902 12.6628 9.89902 13.6628C13.899 15.9628 20.499 15.9628 24.599 13.6628C26.499 12.5628 27.499 11.1628 27.499 9.76279C27.499 8.26279 26.499 6.86279 24.599 5.86279C22.499 4.76279 19.799 4.16281 17.199 4.16281Z" fill="black"/>
</g>
<mask id="mask4" mask-type="alpha" maskUnits="userSpaceOnUse" x="9" y="5" width="16" height="10">
<path d="M22.7994 12.6628C23.4994 12.1628 23.7994 11.5628 23.7994 11.0628V9.96277L23.3994 10.0628C23.1994 9.86277 22.9994 9.66277 22.5994 9.46277C21.1994 8.66277 19.5994 8.56276 16.9994 9.26276C15.1994 9.76276 14.2994 9.86277 13.6994 9.56277C13.2994 9.36277 13.1994 8.86276 14.1994 8.26276C15.2994 7.56276 16.3994 7.36276 16.9994 7.26276V6.16278L15.6994 5.96277C14.8994 6.06277 13.9994 6.36277 12.8994 6.96277L11.4994 6.16278L9.89941 6.06277V7.16278L11.3994 8.06277C11.0994 8.26277 10.8994 8.56276 10.6994 8.76276L10.4994 8.46277V9.56277C10.4994 10.1628 10.8994 10.6628 11.5994 11.0628C13.0994 11.9628 15.0994 11.7628 17.2994 11.0628C18.8994 10.6628 19.7994 10.5628 20.3994 10.8628C20.9994 11.2628 20.7994 11.7628 19.8994 12.2628C18.9994 12.7628 17.4994 12.1628 16.5994 12.2628V13.3628L17.9994 14.6628C18.8994 14.5628 20.2994 14.0628 21.3994 13.5628L22.8994 14.4628L24.4994 13.5628V12.4628L22.7994 12.6628Z" fill="white"/>
</mask>
<g mask="url(#mask4)">
<path d="M22.7994 12.6628C23.4994 12.1628 23.7994 11.5628 23.7994 11.0628V9.96277L23.3994 10.0628C23.1994 9.86277 22.9994 9.66277 22.5994 9.46277C21.1994 8.66277 19.5994 8.56276 16.9994 9.26276C15.1994 9.76276 14.2994 9.86277 13.6994 9.56277C13.2994 9.36277 13.1994 8.86276 14.1994 8.26276C15.2994 7.56276 16.3994 7.36276 16.9994 7.26276V6.16278L15.6994 5.96277C14.8994 6.06277 13.9994 6.36277 12.8994 6.96277L11.4994 6.16278L9.89941 6.06277V7.16278L11.3994 8.06277C11.0994 8.26277 10.8994 8.56276 10.6994 8.76276L10.4994 8.46277V9.56277C10.4994 10.1628 10.8994 10.6628 11.5994 11.0628C13.0994 11.9628 15.0994 11.7628 17.2994 11.0628C18.8994 10.6628 19.7994 10.5628 20.3994 10.8628C20.9994 11.2628 20.7994 11.7628 19.8994 12.2628C18.9994 12.7628 17.4994 12.1628 16.5994 12.2628V13.3628L17.9994 14.6628C18.8994 14.5628 20.2994 14.0628 21.3994 13.5628L22.8994 14.4628L24.4994 13.5628V12.4628L22.7994 12.6628Z" fill="#BA6000"/>
<path d="M17.7994 15.3628L16.0994 13.6628V11.9628L16.4994 11.8628C16.9994 11.7628 17.4994 11.8628 17.9994 11.9628C18.5994 12.0628 19.2994 12.1628 19.5994 11.9628C19.9994 11.7628 20.1994 11.5628 20.1994 11.4628C20.1994 11.4628 20.1994 11.4628 20.0994 11.3628C19.6994 11.0628 18.8994 11.1628 17.3994 11.5628C15.4994 12.0628 13.1994 12.5628 11.2994 11.4628C10.1994 10.8628 9.89941 10.0628 9.89941 9.46277V7.56277L9.39941 7.26276V5.46277L11.6994 5.76276L12.7994 6.46277C13.6994 5.96277 14.5994 5.66277 15.4994 5.56277H15.5994L17.3994 5.86276V7.76276L16.7994 7.96277C16.1994 8.06277 15.2994 8.36276 14.3994 8.86276C14.0994 9.06276 13.8994 9.16276 13.8994 9.26276C14.2994 9.46276 15.2994 9.26276 16.7994 8.86276C19.4994 8.16276 21.1994 8.16277 22.7994 9.06277C23.0994 9.16277 23.2994 9.36277 23.4994 9.56277L24.1994 9.36276V11.1628C24.1994 11.4628 24.0994 11.7628 23.8994 12.1628L24.7994 12.0628V13.9628L22.6994 15.1628L21.1994 14.2628C19.9994 14.8628 18.6994 15.1628 17.8994 15.3628H17.7994ZM17.0994 13.2628L18.0994 14.2628C19.0994 14.0628 20.1994 13.6628 21.0994 13.1628L21.2994 13.0628H21.3994L22.3994 12.2628C22.8994 11.8628 23.1994 11.3628 23.2994 10.9628V10.4628H23.1994L22.9994 10.2628C22.8994 10.0628 22.5994 9.96276 22.3994 9.76276C21.0994 8.96276 19.5994 8.96277 17.1994 9.56277C15.2994 10.0628 14.2994 10.2628 13.5994 9.86276C13.0994 9.56276 12.9994 9.16277 12.9994 8.96277C12.9994 8.46277 13.2994 8.06278 13.9994 7.66278C14.9994 7.06278 15.8994 6.86278 16.5994 6.66278V6.46277L15.7994 6.26276C14.8994 6.46276 14.0994 6.76276 13.1994 7.26276L12.9994 7.36276L11.4994 6.46277L10.5994 6.36276V6.56277L12.4994 7.66278L11.9994 8.16278C11.7994 8.36278 11.5994 8.56276 11.3994 8.76276L11.1994 9.06277V9.36276C11.1994 9.76276 11.4994 10.1628 12.0994 10.4628C13.2994 11.1628 14.8994 11.1628 17.3994 10.4628C18.8994 10.0628 19.9994 9.86276 20.7994 10.3628C21.2994 10.6628 21.3994 11.0628 21.3994 11.2628C21.3994 11.7628 20.9994 12.2628 20.2994 12.6628C19.5994 13.0628 18.7994 12.9628 17.9994 12.8628C17.6994 12.8628 17.4994 12.7628 17.1994 12.7628V13.2628H17.0994ZM21.5994 13.2628L22.7994 13.9628L23.8994 13.3628V13.1628L21.5994 13.2628Z" fill="black"/>
</g>
<mask id="mask5" mask-type="alpha" maskUnits="userSpaceOnUse" x="9" y="4" width="16" height="10">
<path d="M22.7994 13.4628L21.2994 12.5628C20.1994 13.1628 18.8994 13.5628 17.8994 13.6628L16.4994 12.3628C17.4994 12.1628 18.7994 11.8628 19.7994 11.2628C20.6994 10.7628 20.9994 10.1628 20.2994 9.86276C19.6994 9.56276 18.7994 9.56277 17.1994 10.0628C14.8994 10.6628 12.9994 10.9628 11.4994 10.0628C10.0994 9.26277 9.99942 8.06277 11.3994 6.96277L9.89941 6.06277L11.4994 5.16278L12.8994 5.96277C13.9994 5.36277 14.8994 5.06277 15.6994 4.96277L16.9994 6.26276C16.3994 6.36276 15.2994 6.56276 14.1994 7.26276C13.1994 7.86276 13.2994 8.26277 13.6994 8.56277C14.1994 8.86277 15.0994 8.76276 16.9994 8.26276C19.4994 7.56276 21.1994 7.66277 22.5994 8.46277C23.9994 9.26277 24.1994 10.5628 22.6994 11.7628L24.2994 12.6628L22.7994 13.4628Z" fill="white"/>
</mask>
<g mask="url(#mask5)">
<path d="M22.7994 13.4629L21.2994 12.5629C20.1994 13.1629 18.8994 13.5629 17.8994 13.6629L16.4994 12.3629C17.4994 12.1629 18.7994 11.8629 19.7994 11.2629C20.6994 10.7629 20.9994 10.1629 20.2994 9.86288C19.6994 9.56288 18.7994 9.5629 17.1994 10.0629C14.8994 10.6629 12.9994 10.9629 11.4994 10.0629C10.0994 9.2629 9.99942 8.06289 11.3994 6.96289L9.89941 6.0629L11.4994 5.1629L12.8994 5.96289C13.9994 5.36289 14.8994 5.06289 15.6994 4.96289L16.9994 6.26288C16.3994 6.36288 15.2994 6.56288 14.1994 7.26288C13.1994 7.86288 13.2994 8.2629 13.6994 8.5629C14.1994 8.8629 15.0994 8.76288 16.9994 8.26288C19.4994 7.56288 21.1994 7.66289 22.5994 8.46289C23.9994 9.26289 24.1994 10.5629 22.6994 11.7629L24.2994 12.6629L22.7994 13.4629Z" fill="#FF8400"/>
<path d="M17.799 14.2628L15.599 12.0628L16.599 11.8628C17.299 11.7628 18.599 11.4628 19.699 10.8628C20.199 10.5628 20.299 10.3628 20.299 10.3628C20.299 10.3628 20.299 10.3628 20.199 10.2628C19.799 10.0628 18.999 10.0628 17.499 10.4628C15.499 11.0628 13.199 11.4628 11.399 10.3628C10.399 9.76282 10.099 9.06284 10.099 8.56284C10.099 8.16284 10.199 7.56282 10.699 6.86282L8.99902 5.86282L11.599 4.36282L12.999 5.16284C13.899 4.76284 14.799 4.46282 15.699 4.26282L15.999 4.16284L18.199 6.26282L17.199 6.46283C16.599 6.56283 15.599 6.76282 14.599 7.36282C14.099 7.66282 14.099 7.76282 14.099 7.76282C14.599 7.96282 15.599 7.76282 16.999 7.36282C19.599 6.66282 21.399 6.76284 22.999 7.56284C24.099 8.16284 24.399 8.96283 24.399 9.46283C24.399 9.86283 24.299 10.5628 23.699 11.2628L25.499 12.2628L22.999 13.7628L21.499 12.8628C20.399 13.3628 19.199 13.7628 18.199 13.9628L17.799 14.2628ZM17.599 12.6628L18.099 13.1628C18.999 12.9628 20.099 12.5628 21.099 12.0628L21.299 11.9628L22.799 12.8628L23.399 12.5628L21.899 11.6628L22.499 11.1628C22.899 10.8628 23.399 10.2628 23.299 9.76282C23.299 9.26282 22.799 8.86284 22.399 8.66284C21.099 7.96284 19.599 7.86284 17.199 8.56284C15.299 9.06284 14.299 9.26282 13.599 8.86282C13.199 8.66282 12.999 8.36283 12.999 7.96283C12.999 7.46283 13.299 7.06284 13.999 6.66284C14.699 6.26284 15.499 5.96282 16.099 5.86282L15.599 5.36282C14.799 5.56282 13.999 5.86282 13.199 6.26282L12.999 6.36282L11.599 5.56284L11.099 5.86282L12.499 6.66284L11.999 7.16284C11.499 7.66284 11.199 8.06283 11.199 8.46283C11.199 8.96283 11.699 9.26283 11.999 9.46283C13.199 10.1628 14.799 10.1628 17.299 9.46283C18.799 9.06283 19.899 8.86282 20.699 9.36282C21.199 9.66282 21.299 10.0628 21.299 10.2628C21.299 10.7628 20.899 11.2628 20.199 11.6628C19.299 12.2628 18.399 12.5628 17.599 12.6628Z" fill="black"/>
</g>
</svg>
