<svg width="163" height="91" viewBox="0 0 163 91" fill="none" xmlns="http://www.w3.org/2000/svg">
<path d="M5.54264 56.1411L5.6523 37.3531L21.0639 37.4434L20.9543 56.2314L17.1844 56.2131L17.2732 41.0489L9.39883 41.0093L9.30997 56.1736L5.54264 56.1411Z" fill="white"/>
<path d="M30.6206 37.5279C31.5293 37.4643 32.4412 37.5953 33.2952 37.9121C34.1493 38.2288 34.926 38.7241 35.5735 39.3648C36.6828 40.561 37.2777 42.1451 37.2301 43.7757C37.2433 44.5823 37.0946 45.3834 36.7928 46.1315C36.491 46.8796 36.0422 47.5596 35.4731 48.1313C34.7626 48.7477 33.9361 49.2157 33.0421 49.5078C32.1481 49.7998 31.2047 49.9101 30.2674 49.8321L27.3576 49.8106L27.323 56.3018L23.5557 56.2694L23.6846 37.4558L30.6206 37.5279ZM30.4521 46.4276C30.8309 46.4698 31.2143 46.4302 31.5765 46.3116C31.9387 46.193 32.2713 45.998 32.5517 45.74C32.8322 45.4819 33.0541 45.1667 33.2024 44.8156C33.3507 44.4646 33.422 44.0857 33.4115 43.7048C33.4267 43.3444 33.3661 42.9848 33.2337 42.6492C33.1013 42.3137 32.8999 42.0096 32.6427 41.7567C32.3855 41.5038 32.0781 41.3077 31.7404 41.1809C31.4026 41.0542 31.0421 40.9997 30.682 41.021L27.4517 40.9992L27.4244 46.4137L30.4521 46.4276Z" fill="white"/>
<path d="M77.6414 60.378L77.6534 56.5633L59.3294 56.4655L59.4557 37.666L63.2397 37.6869L63.1509 52.8511L67.5168 52.8764L67.6057 37.7121L71.3897 37.7331L71.3008 52.8973L75.6976 52.9136L75.7839 37.7634L79.5679 37.7844L79.4816 52.9345L81.4441 52.9578L81.3946 60.4079L77.6414 60.378Z" fill="white"/>
<path d="M83.0518 56.6021L83.164 37.8L95.9107 37.8844L95.8823 41.3903L86.9312 41.3435L86.9088 45.3749L95.2023 45.4327L95.1739 48.9385L86.8919 48.8974L86.8642 53.1172L95.8153 53.164L95.801 56.6724L83.0518 56.6021Z" fill="white"/>
<path d="M9.03008 58.264L9.9748 58.2763L9.93028 64.3433L8.98299 64.3451L8.99358 62.2929C8.55966 62.4599 8.09952 62.5485 7.63461 62.5546C7.34797 62.5947 7.05595 62.5679 6.78136 62.4765C6.50676 62.385 6.25703 62.2313 6.05167 62.0274C5.84631 61.8234 5.69088 61.5748 5.59753 61.3008C5.50418 61.0269 5.47543 60.735 5.51352 60.4481L5.53577 58.2523L6.46896 58.2479L6.46867 60.2438C6.42962 60.6119 6.53452 60.9808 6.7614 61.2733C7.01796 61.4891 7.34844 61.5965 7.68281 61.5727C8.14456 61.5556 8.59881 61.4506 9.02131 61.2636L9.03008 58.264Z" fill="white"/>
<path d="M10.9867 64.3031L11.0235 58.2784L14.8665 58.2956L14.8645 59.1839L11.9521 59.1765L11.9457 60.807L14.653 60.8206L14.6343 61.7205L11.9438 61.6953L11.936 63.413L14.8458 63.4345L14.8438 64.3228L10.9867 64.3031Z" fill="white"/>
<path d="M15.5998 64.3298L15.6366 58.3051L16.1455 58.3107L18.6448 62.0159L21.1806 58.3416L21.7062 58.3356L21.6694 64.3602L20.7221 64.3621L20.7559 60.5075L18.777 63.3658L18.4873 63.3566L16.5501 60.4824L16.5304 64.3395L15.5998 64.3298Z" fill="white"/>
<path d="M29.1167 62.6753C29.118 62.9025 29.0731 63.1275 28.9848 63.3367C28.8965 63.546 28.7666 63.7351 28.603 63.8927C28.4214 64.0677 28.2055 64.2032 27.9689 64.2904C27.7323 64.3775 27.4801 64.4146 27.2284 64.3992L24.6673 64.3831L24.7003 58.2995L27.1602 58.3117C27.385 58.3016 27.6096 58.3369 27.8205 58.4155C28.0314 58.494 28.2243 58.6142 28.3878 58.769C28.5314 58.9049 28.6453 59.069 28.7223 59.2511C28.7994 59.4331 28.838 59.6292 28.8356 59.8268C28.848 60.1054 28.7726 60.3809 28.6202 60.6144C28.4678 60.8479 28.246 61.0277 27.986 61.1285C28.3347 61.2101 28.6433 61.4123 28.8575 61.6993C29.0716 61.9863 29.1775 62.3397 29.1564 62.6972L29.1167 62.6753ZM25.6635 59.2475L25.6559 60.805L27.0108 60.8047C27.1229 60.8169 27.2363 60.8053 27.3437 60.7706C27.451 60.736 27.5498 60.6791 27.6337 60.6037C27.7176 60.5283 27.7846 60.436 27.8305 60.333C27.8763 60.2299 27.8999 60.1184 27.8997 60.0056C27.8996 59.898 27.8767 59.7916 27.8324 59.6936C27.7881 59.5955 27.7235 59.508 27.6428 59.4368C27.5622 59.3656 27.4673 59.3123 27.3645 59.2806C27.2617 59.2488 27.1534 59.2392 27.0466 59.2524L25.6635 59.2475ZM27.0932 63.5441C27.2364 63.5723 27.384 63.5679 27.5253 63.5314C27.6665 63.4948 27.7978 63.427 27.9093 63.333C28.0209 63.2389 28.1099 63.1211 28.1698 62.988C28.2297 62.855 28.259 62.7102 28.2555 62.5644C28.2519 62.4185 28.2157 62.2753 28.1494 62.1453C28.0832 62.0153 27.9886 61.9019 27.8726 61.8133C27.7567 61.7248 27.6223 61.6634 27.4795 61.6337C27.3366 61.604 27.1889 61.6068 27.0473 61.6418L25.5911 61.6381L25.637 63.5404L27.0932 63.5441Z" fill="white"/>
<path d="M32.0153 60.5241C32.2917 60.4918 32.5719 60.5199 32.8364 60.6065C33.1008 60.6932 33.3433 60.8362 33.547 61.0259C33.7507 61.2155 33.9108 61.4471 34.0161 61.7047C34.1214 61.9624 34.1695 62.2398 34.157 62.5178C34.1619 62.7696 34.1154 63.0197 34.0202 63.2528C33.925 63.486 33.7832 63.6972 33.6035 63.8736C33.398 64.0705 33.1528 64.2211 32.8843 64.3153C32.6158 64.4095 32.3303 64.4451 32.0469 64.4197L29.8485 64.4115L29.8827 58.401L30.8159 58.3966L30.8065 60.5219L32.0153 60.5241ZM31.9283 63.5531C32.0843 63.581 32.2445 63.5736 32.3973 63.5315C32.55 63.4894 32.6914 63.4136 32.811 63.3097C32.9306 63.2057 33.0254 63.0763 33.0884 62.9309C33.1514 62.7856 33.181 62.6279 33.1751 62.4696C33.181 62.317 33.1533 62.1649 33.0941 62.0241C33.0349 61.8833 32.9455 61.7572 32.8323 61.6546C32.7192 61.552 32.5849 61.4754 32.439 61.4303C32.2931 61.3851 32.139 61.3725 31.9877 61.3932L30.7648 61.3884L30.7618 63.5585L31.9283 63.5531ZM34.9627 58.4255L35.91 58.4237L35.8732 64.4483L34.9284 64.4361L34.9627 58.4255Z" fill="white"/>
<path d="M43.2967 63.6043L43.8928 63.6112L43.886 65.7224L42.9413 65.7101L42.9358 64.5436L39.2838 64.5177L39.279 65.7406L38.3458 65.745L38.3526 63.6337L38.8333 63.6341C39.0413 63.2524 39.1988 62.8454 39.3021 62.4231C39.4803 61.6842 39.617 60.9358 39.7115 60.1815L39.9308 58.5025L43.3213 58.5244L43.2967 63.6043ZM42.3661 63.5946L42.4246 59.3658L40.8082 59.362L40.7361 59.7567C40.6138 61.0606 40.3352 62.3451 39.9063 63.5824L42.3661 63.5946Z" fill="white"/>
<path d="M44.2946 64.4422L44.4388 63.6527C44.6001 63.717 44.7727 63.7486 44.9464 63.7453C45.0875 63.7396 45.2255 63.7027 45.3508 63.6375C45.476 63.5722 45.5853 63.4801 45.6709 63.3678C45.8748 63.1092 46.0484 62.828 46.1881 62.5298L44.2647 58.4636L45.3556 58.4734L46.694 61.515L47.9898 58.4883L49.0383 58.4904L48.3963 59.932C47.8403 61.1416 47.4063 62.0822 47.0121 62.8843C46.8223 63.3116 46.5682 63.7074 46.2587 64.0579C46.1046 64.2262 45.9163 64.3597 45.7065 64.4495C45.4966 64.5393 45.27 64.5833 45.0418 64.5786C44.8047 64.5945 44.5673 64.5511 44.351 64.4525" fill="white"/>
<path d="M49.3641 64.5231L49.4009 58.4984L49.9239 58.5065L52.4232 62.2117L54.959 58.5374L55.482 58.5455L55.4478 64.5561L54.5005 64.5579L54.5343 60.7034L52.5413 63.559L52.2657 63.5524L50.3285 60.6783L50.2947 64.5328L49.3641 64.5231Z" fill="white"/>
<path d="M60.2775 64.5932L59.7314 63.0366L57.5189 63.0259L56.9448 64.4944L55.9244 64.4975L58.339 58.6157L58.9517 58.611L61.2876 64.6465L60.2775 64.5932ZM58.6313 60.1259L57.7964 62.3044L59.4269 62.3108L58.6313 60.1259Z" fill="white"/>
<path d="M61.7621 64.6021L61.7989 58.5774L65.6419 58.5945L65.6399 59.4828L62.7301 59.4613L62.7211 61.1059L65.4284 61.1196L65.4097 62.0194L62.7191 61.9942L62.7114 63.7119L65.6212 63.7334L65.6192 64.6218L61.7621 64.6021Z" fill="white"/>
<path d="M67.7437 59.5319L65.9837 59.5164L65.9908 58.5999L70.4722 58.6316L70.465 59.5482L68.7051 59.5327L68.6754 64.6408L67.714 64.6401L67.7437 59.5319Z" fill="white"/>
<path d="M70.9159 64.6567L70.9386 58.6294L74.7956 58.6491L74.7937 59.5375L71.8813 59.53L71.8749 61.1606L74.5655 61.1858L74.5635 62.0741L71.8588 62.0463L71.851 63.764L74.7749 63.7881L74.7588 64.6738L70.9159 64.6567Z" fill="white"/>
<path fill-rule="evenodd" clip-rule="evenodd" d="M38.2543 45.6672C38.5137 43.7227 39.3439 41.8988 40.64 40.4262C41.9361 38.9536 43.6399 37.8985 45.5357 37.3943C47.4316 36.8901 49.4343 36.9595 51.2907 37.5937C53.1471 38.2279 54.7738 39.3984 55.9648 40.9572C57.1559 42.5159 57.858 44.3929 57.9822 46.3507C58.1064 48.3085 57.6471 50.2592 56.6626 51.956C55.678 53.6527 54.2123 55.0194 52.451 55.8831C50.6896 56.7468 48.7116 57.0687 46.7673 56.8081C44.1614 56.4589 41.8008 55.0891 40.2044 53C38.6081 50.9109 37.9066 48.2734 38.2543 45.6672Z" fill="#C6C6C6"/>
<path fill-rule="evenodd" clip-rule="evenodd" d="M41.2267 46.0644C41.4091 44.7079 41.9903 43.4361 42.8967 42.4105C43.8031 41.3848 44.9938 40.6516 46.3176 40.3038C47.6414 39.956 49.0387 40.0093 50.3322 40.457C51.6257 40.9046 52.757 41.7265 53.5826 42.8182C54.4082 43.9099 54.8909 45.2223 54.9693 46.5888C55.0478 47.9553 54.7186 49.3143 54.0234 50.4933C53.3282 51.6724 52.2984 52.6183 51.0647 53.2112C49.831 53.804 48.449 54.0169 47.094 53.8229C45.2922 53.5612 43.6661 52.6002 42.5679 51.148C41.4696 49.6958 40.9878 47.8694 41.2267 46.0644Z" fill="white"/>
<path fill-rule="evenodd" clip-rule="evenodd" d="M43.2584 48.2567C43.354 47.5491 43.657 46.8858 44.1294 46.3504C44.6017 45.8151 45.2222 45.4317 45.9123 45.2488C46.6024 45.0659 47.3313 45.0917 48.0068 45.3228C48.6823 45.554 49.2741 45.9801 49.7075 46.5475C50.1409 47.1148 50.3964 47.7979 50.4418 48.5104C50.4871 49.2229 50.3203 49.9329 49.9623 50.5506C49.6044 51.1683 49.0714 51.6661 48.4306 51.981C47.7899 52.296 47.0702 52.4139 46.3625 52.32C45.8908 52.2594 45.4359 52.1058 45.024 51.8682C44.6121 51.6306 44.2514 51.3137 43.9628 50.9359C43.6741 50.558 43.4633 50.1267 43.3424 49.6668C43.2215 49.2069 43.1929 48.7276 43.2584 48.2567Z" fill="#FDC300"/>
<path d="M45.5251 50.7683C45.5742 50.8 45.6093 50.8492 45.6233 50.906C45.6373 50.9627 45.6291 51.0226 45.6005 51.0735C45.5845 51.0994 45.5635 51.122 45.5387 51.1397C45.5139 51.1575 45.4859 51.1701 45.4561 51.1769C45.4264 51.1837 45.3956 51.1845 45.3656 51.1792C45.3356 51.174 45.3069 51.1628 45.2812 51.1463C44.8246 50.8502 44.4617 50.4302 44.2349 49.9354C43.9974 49.4425 43.9155 48.8889 44.0003 48.3483C44.0035 48.3201 44.0122 48.2929 44.0259 48.2681C44.0396 48.2434 44.0581 48.2216 44.0802 48.204C44.1024 48.1863 44.1278 48.1733 44.155 48.1655C44.1823 48.1578 44.2108 48.1555 44.2389 48.1588C44.2979 48.1691 44.3511 48.2009 44.3882 48.248C44.4253 48.2951 44.4437 48.3542 44.4399 48.414C44.3844 48.8695 44.4564 49.3315 44.6478 49.7486C44.8339 50.1672 45.139 50.5218 45.5251 50.7683Z" fill="white"/>
<path fill-rule="evenodd" clip-rule="evenodd" d="M97.3916 61.5229C100.183 67.0741 104.557 71.673 109.962 74.7379C115.367 77.8029 121.559 79.1963 127.756 78.7419C133.952 78.2875 139.875 76.0057 144.775 72.1851C149.675 68.3646 153.332 63.1768 155.283 57.2778C157.235 51.3789 157.393 45.0337 155.739 39.0448C154.084 33.0558 150.69 27.6921 145.987 23.6319C141.284 19.5716 135.482 16.9972 129.316 16.2343C123.149 15.4713 116.895 16.5541 111.344 19.3456C103.907 23.0944 98.2605 29.641 95.6445 37.5484C93.0286 45.4559 93.6569 54.0782 97.3916 61.5229Z" fill="#C6C6C6"/>
<path fill-rule="evenodd" clip-rule="evenodd" d="M101.004 59.6914C103.429 64.5218 107.233 68.5244 111.933 71.1932C116.634 73.8619 122.02 75.0771 127.411 74.6849C132.802 74.2926 137.955 72.3107 142.22 68.9897C146.484 65.6687 149.668 61.1577 151.369 56.0271C153.07 50.8966 153.212 45.3769 151.776 40.166C150.34 34.955 147.391 30.2869 143.302 26.7519C139.213 23.2168 134.168 20.9736 128.804 20.3058C123.44 19.638 117.999 20.5757 113.168 23.0003C106.695 26.2583 101.778 31.95 99.4956 38.8274C97.2127 45.7049 97.75 53.2069 100.99 59.6889" fill="white"/>
<path fill-rule="evenodd" clip-rule="evenodd" d="M147.269 45.8365C148.186 43.5409 148.402 41.0249 147.889 38.6067C147.376 36.1885 146.158 33.9767 144.387 32.2511C142.617 30.5254 140.375 29.3635 137.945 28.9123C135.514 28.4611 133.005 28.7408 130.733 29.7161C128.462 30.6914 126.531 32.3184 125.184 34.3914C123.837 36.4644 123.136 38.8903 123.168 41.3621C123.2 43.8339 123.964 46.2406 125.365 48.2779C126.765 50.3151 128.738 51.8914 131.034 52.8072C134.112 54.0268 137.547 53.9782 140.59 52.6719C143.632 51.3657 146.033 48.9081 147.269 45.8365Z" fill="#FDC300"/>
<path d="M129.558 46.9288C129.7 47.0785 129.778 47.2787 129.773 47.4854C129.768 47.6922 129.681 47.8885 129.531 48.0311C129.382 48.1738 129.181 48.2512 128.975 48.2462C128.768 48.2412 128.572 48.1543 128.429 48.0046C127.136 46.6311 126.262 44.9176 125.909 43.0648C125.556 41.2121 125.738 39.2971 126.435 37.5444C126.472 37.4483 126.527 37.3605 126.598 37.286C126.669 37.2116 126.754 37.1521 126.849 37.111C126.943 37.0699 127.045 37.048 127.147 37.0467C127.25 37.0453 127.352 37.0644 127.448 37.103C127.544 37.1395 127.631 37.1949 127.705 37.2661C127.779 37.3372 127.837 37.4226 127.877 37.517C127.917 37.6114 127.938 37.7129 127.937 37.8154C127.937 37.9179 127.916 38.0193 127.875 38.1134C127.292 39.592 127.139 41.2055 127.433 42.7675C127.74 44.3291 128.488 45.7701 129.589 46.9198" fill="white"/>
<path d="M134.826 49.5081C135.033 49.5297 135.222 49.6317 135.354 49.7921C135.486 49.9525 135.549 50.1584 135.529 50.365C135.504 50.5683 135.401 50.7539 135.242 50.8825C135.082 51.0112 134.879 51.0726 134.675 51.0539C134.2 50.9976 133.729 50.9116 133.265 50.7965C132.795 50.6867 132.335 50.5393 131.889 50.3557C131.46 50.185 131.044 49.9824 130.645 49.7497C130.538 49.7111 130.442 49.6496 130.361 49.5695C130.281 49.4895 130.22 49.3928 130.181 49.2863C130.142 49.1799 130.128 49.0662 130.138 48.9534C130.148 48.8406 130.182 48.7313 130.239 48.6334C130.296 48.5354 130.374 48.4512 130.467 48.3865C130.56 48.3219 130.666 48.2785 130.778 48.2593C130.889 48.2402 131.004 48.2457 131.113 48.2757C131.222 48.3056 131.323 48.3592 131.41 48.4325C131.748 48.6318 132.101 48.8035 132.467 48.9461C132.83 49.0888 133.203 49.2056 133.583 49.2957C133.966 49.4021 134.358 49.4736 134.753 49.5094" fill="white"/>
<path d="M5.54299 56.1411L5.65523 37.339L21.0669 37.4293L20.9546 56.2315L17.1873 56.199L17.2736 41.0489L9.39919 41.0093L9.3129 56.1595L5.54299 56.1411Z" fill="white"/>
<path d="M30.6206 37.5279C31.5293 37.4643 32.4412 37.5953 33.2952 37.9121C34.1493 38.2288 34.926 38.7241 35.5735 39.3648C36.6801 40.5626 37.2746 42.1456 37.2301 43.7757C37.2432 44.5846 37.0943 45.388 36.7921 46.1385C36.4899 46.8889 36.0405 47.5713 35.4705 48.1454C34.0274 49.3735 32.1566 49.9799 30.2674 49.8321L27.355 49.8247L27.323 56.3018L23.5531 56.2835L23.6846 37.4558L30.6206 37.5279ZM30.4495 46.4417C30.8293 46.4821 31.2132 46.4408 31.5757 46.3206C31.9382 46.2004 32.2708 46.0042 32.5513 45.745C32.8317 45.4859 33.0536 45.1698 33.2019 44.8179C33.3503 44.466 33.4217 44.0865 33.4115 43.7048C33.4267 43.3443 33.3661 42.9848 33.2337 42.6492C33.1013 42.3137 32.8999 42.0096 32.6427 41.7567C32.3855 41.5038 32.0781 41.3077 31.7404 41.1809C31.4026 41.0542 31.0421 40.9997 30.682 41.021L27.4517 40.9992L27.4244 46.4137L30.4495 46.4417Z" fill="white"/>
<path d="M77.6418 60.378L77.6537 56.5633L59.3323 56.4514L59.4561 37.666L63.2401 37.6869L63.1538 52.837L67.5198 52.8623L67.6061 37.7121L71.3901 37.7331L71.3038 52.8832L75.6979 52.9136L75.7868 37.7493L79.5708 37.7703L79.482 52.9345L81.447 52.9437L81.3976 60.3938L77.6418 60.378Z" fill="white"/>
<path d="M83.0537 56.588L83.1634 37.8L95.9127 37.8703L95.8842 41.3762L86.9331 41.3294L86.9081 45.3749L95.2042 45.4186L95.1758 48.9244L86.8938 48.8833L86.8662 53.1031L95.8173 53.1499L95.803 56.6583L83.0537 56.588Z" fill="white"/>
<path d="M9.03044 58.264L9.97773 58.2622L9.93063 64.3433L8.98592 64.331L8.99651 62.2788C8.56442 62.4521 8.1031 62.541 7.63754 62.5405C7.35204 62.5805 7.06114 62.5543 6.78742 62.4638C6.51369 62.3733 6.26449 62.221 6.05912 62.0186C5.85376 61.8163 5.69775 61.5694 5.60319 61.297C5.50864 61.0246 5.47808 60.7342 5.51388 60.4481L5.53869 58.2382L6.46931 58.2479L6.47159 60.2297C6.44658 60.4122 6.45968 60.5979 6.51007 60.7751C6.56045 60.9523 6.64703 61.1172 6.76433 61.2592C6.88781 61.3717 7.0331 61.4575 7.19117 61.5115C7.34923 61.5654 7.5167 61.5862 7.68317 61.5727C8.14399 61.5488 8.59704 61.4442 9.02166 61.2636L9.03044 58.264Z" fill="white"/>
<path d="M10.9893 64.289L11.0261 58.2643L14.8665 58.2956L14.8645 59.1839L11.9547 59.1624L11.9457 60.807L14.653 60.8206L14.6369 61.7064L11.9438 61.6953L11.936 63.413L14.8458 63.4345L14.8464 64.3087L10.9893 64.289Z" fill="white"/>
<path d="M15.6024 64.3157L15.6392 58.291L16.1481 58.2966L18.6473 62.0018L21.1832 58.3275L21.7062 58.3356L21.6694 64.3602L20.7246 64.348L20.7585 60.4935L18.7796 63.3517L18.4899 63.3425L16.5527 60.4683L16.533 64.3254L15.6024 64.3157Z" fill="white"/>
<path d="M29.1193 62.6612C29.1222 62.8886 29.0781 63.1141 28.9897 63.3237C28.9013 63.5332 28.7705 63.7221 28.6056 63.8786C28.4256 64.0559 28.2099 64.1927 27.9729 64.2801C27.7359 64.3674 27.483 64.4032 27.231 64.3851L24.6699 64.369L24.7003 58.2995L27.1576 58.3258C27.3831 58.3086 27.6097 58.3405 27.8217 58.4195C28.0336 58.4985 28.2259 58.6225 28.3853 58.7831C28.5275 58.9171 28.6409 59.0789 28.7184 59.2584C28.7958 59.4379 28.8357 59.6313 28.8356 59.8268C28.8345 60.092 28.7542 60.3508 28.6052 60.5701C28.4561 60.7895 28.245 60.9593 27.9989 61.058C28.3476 61.1396 28.6562 61.3418 28.8704 61.6288C29.0845 61.9158 29.1904 62.2692 29.1693 62.6267L29.1193 62.6612ZM25.6764 59.177L25.6688 60.7345L27.0211 60.7483C27.1342 60.7587 27.2482 60.7454 27.3558 60.7093C27.4635 60.6731 27.5624 60.6149 27.6463 60.5384C27.7302 60.4619 27.7972 60.3687 27.843 60.2648C27.8889 60.1609 27.9126 60.0486 27.9126 59.9351C27.9083 59.8289 27.8824 59.7246 27.8367 59.6286C27.791 59.5326 27.7264 59.4469 27.6467 59.3765C27.567 59.3062 27.4739 59.2527 27.373 59.2192C27.2721 59.1858 27.1654 59.1731 27.0595 59.182L25.6764 59.177ZM27.0958 63.53C27.2349 63.5519 27.3771 63.5429 27.5123 63.5037C27.6475 63.4645 27.7725 63.3961 27.8783 63.3032C27.9841 63.2103 28.0682 63.0953 28.1247 62.9664C28.1811 62.8374 28.2085 62.6976 28.2049 62.5568C28.2012 62.4161 28.1667 62.2778 28.1037 62.1519C28.0408 62.026 27.9509 61.9155 27.8404 61.8282C27.73 61.7409 27.6017 61.6789 27.4646 61.6467C27.3275 61.6145 27.1851 61.6128 27.0473 61.6418L25.5937 61.624L25.6396 63.5263L27.0958 63.53Z" fill="white"/>
<path d="M32.0153 60.5241C32.2922 60.4892 32.5734 60.5155 32.839 60.6012C33.1046 60.6869 33.3481 60.8299 33.5524 61.0201C33.7567 61.2102 33.9167 61.4429 34.0212 61.7017C34.1256 61.9605 34.172 62.2391 34.157 62.5178C34.1611 62.7694 34.1141 63.0193 34.019 63.2523C33.9239 63.4854 33.7825 63.6967 33.6035 63.8736C33.3961 64.0661 33.1506 64.2129 32.8829 64.3046C32.6152 64.3962 32.3313 64.4306 32.0494 64.4056L29.8485 64.4115L29.8853 58.3869L30.8159 58.3966L30.8065 60.5219L32.0153 60.5241ZM31.9283 63.5531C32.7436 63.5563 33.1746 63.1105 33.1751 62.4696C33.1805 62.3167 33.1528 62.1645 33.0938 62.0233C33.0348 61.8822 32.946 61.7555 32.8335 61.6519C32.7209 61.5483 32.5873 61.4703 32.4417 61.4232C32.2962 61.3761 32.1422 61.3611 31.9903 61.3791L30.7674 61.3743L30.7644 63.5444L31.9283 63.5531ZM34.9652 58.4114L35.91 58.4237L35.8757 64.4342L34.9284 64.4361L34.9652 58.4114Z" fill="white"/>
<path d="M43.2993 63.5902L43.8954 63.5971L43.8886 65.7083L42.9439 65.696L42.9358 64.5436L39.2813 64.5318L39.2764 65.7547L38.3458 65.745L38.3526 63.6337L38.8333 63.6341C39.0392 63.2567 39.1959 62.8545 39.2996 62.4372C39.4786 61.6936 39.6162 60.9405 39.7115 60.1815L39.9282 58.5166L43.3213 58.5244L43.2993 63.5902ZM42.3661 63.5946L42.4272 59.3517L40.8107 59.3479L40.7386 59.7426C40.6154 61.0512 40.336 62.3403 39.9063 63.5824L42.3661 63.5946Z" fill="white"/>
<path d="M44.2966 64.4281L44.4408 63.6385C44.6021 63.7029 44.7746 63.7344 44.9483 63.7312C45.09 63.7286 45.2292 63.6931 45.3549 63.6276C45.4807 63.5621 45.5895 63.4683 45.6728 63.3537C45.8766 63.1005 46.0493 62.8239 46.1875 62.5298L44.2667 58.4495L45.3575 58.4593L46.6934 61.515L47.9917 58.4742L49.0403 58.4763L48.3982 59.9179C47.8422 61.1275 47.4082 62.068 47.0115 62.8843C46.8226 63.3072 46.5693 63.6984 46.2607 64.0438C46.1083 64.2144 45.9204 64.3494 45.7101 64.4394C45.4998 64.5294 45.2724 64.5721 45.0438 64.5645C44.8063 64.5872 44.5671 64.5435 44.353 64.4384" fill="white"/>
<path d="M49.367 64.509L49.4013 58.4984L49.9268 58.4924L52.4261 62.1976L54.9619 58.5233L55.4849 58.5314L55.4481 64.5561L54.5034 64.5438L54.5372 60.6893L52.5442 63.545L52.2661 63.5524L50.3315 60.6642L50.2977 64.5187L49.367 64.509Z" fill="white"/>
<path d="M60.2807 64.5791L59.7346 63.0225L57.5221 63.0118L56.9454 64.4944L55.9276 64.4834L58.3396 58.6157L58.9497 58.6251L61.2856 64.6606L60.2807 64.5791ZM58.6474 60.0413L57.8125 62.2198L59.443 62.2262L58.6474 60.0413Z" fill="white"/>
<path d="M61.7647 64.588L61.8015 58.5633L65.6419 58.5945L65.6399 59.4828L62.7301 59.4613L62.7211 61.1059L65.4284 61.1196L65.4123 62.0053L62.7191 61.9942L62.7114 63.7119L65.6237 63.7193L65.6218 64.6077L61.7647 64.588Z" fill="white"/>
<path d="M67.7456 59.5178L65.9857 59.5023L65.9928 58.5858L70.4741 58.6175L70.467 59.5341L68.707 59.5186L68.6774 64.6267L67.716 64.626L67.7456 59.5178Z" fill="white"/>
<path d="M70.9184 64.6426L70.9411 58.6153L74.7956 58.6491L74.7937 59.5375L71.8839 59.5159L71.8749 61.1606L74.568 61.1717L74.5661 62.06L71.8588 62.0463L71.851 63.764L74.7775 63.774L74.7614 64.6597L70.9184 64.6426Z" fill="white"/>
<path fill-rule="evenodd" clip-rule="evenodd" d="M38.2543 45.6672C38.5137 43.7227 39.3439 41.8988 40.64 40.4262C41.9361 38.9536 43.6399 37.8985 45.5357 37.3943C47.4316 36.8901 49.4343 36.9595 51.2907 37.5937C53.1471 38.2279 54.7738 39.3984 55.9648 40.9572C57.1559 42.5159 57.858 44.3929 57.9822 46.3507C58.1064 48.3085 57.6471 50.2592 56.6626 51.956C55.678 53.6527 54.2123 55.0194 52.451 55.8831C50.6896 56.7468 48.7116 57.0687 46.7673 56.8081C45.4762 56.637 44.2315 56.2129 43.1045 55.56C41.9776 54.9072 40.9905 54.0385 40.1997 53.0036C39.4089 51.9688 38.8301 50.7881 38.4963 49.5292C38.1624 48.2703 38.0802 46.958 38.2543 45.6672Z" fill="#B2B2B2"/>
<path fill-rule="evenodd" clip-rule="evenodd" d="M41.2258 46.0644C41.4054 44.7069 41.9845 43.4334 42.8894 42.4057C43.7943 41.378 44.9842 40.6424 46.308 40.2924C47.6319 39.9423 49.0299 39.9936 50.3245 40.4398C51.6191 40.8859 52.7519 41.7067 53.579 42.798C54.4062 43.8893 54.8903 45.2018 54.97 46.5688C55.0496 47.9358 54.7212 49.2956 54.0264 50.4756C53.3316 51.6556 52.3018 52.6024 51.0678 53.1959C49.8338 53.7894 48.4512 54.0028 47.0957 53.8088C45.2962 53.5477 43.6717 52.5889 42.5733 51.1398C41.475 49.6907 40.9909 47.8675 41.2258 46.0644Z" fill="white"/>
<path fill-rule="evenodd" clip-rule="evenodd" d="M45.2403 41.5529C45.8474 41.3409 46.5038 41.3137 47.1264 41.4746C47.749 41.6355 48.31 41.9773 48.7384 42.4568C49.1669 42.9364 49.4436 43.5322 49.5337 44.1689C49.6237 44.8057 49.523 45.4548 49.2443 46.0343C48.9656 46.6139 48.5214 47.0978 47.9678 47.425C47.4142 47.7522 46.776 47.908 46.1339 47.8727C45.4918 47.8374 44.8745 47.6126 44.3601 47.2267C43.8457 46.8408 43.4572 46.3111 43.2437 45.7045C43.0997 45.301 43.0371 44.8729 43.0597 44.445C43.0822 44.0171 43.1895 43.598 43.3752 43.2118C43.5609 42.8257 43.8213 42.4802 44.1415 42.1955C44.4616 41.9107 44.8351 41.6923 45.2403 41.5529Z" fill="#FDC300"/>
<path d="M44.1443 44.3682C44.1437 44.3941 44.1377 44.4196 44.1266 44.4431C44.1156 44.4665 44.0998 44.4874 44.0802 44.5044C44.0607 44.5214 44.0378 44.5341 44.013 44.5418C43.9883 44.5494 43.9622 44.5518 43.9365 44.5488C43.9034 44.5527 43.8698 44.5482 43.8389 44.5359C43.8079 44.5235 43.7806 44.5037 43.7592 44.4781C43.7379 44.4525 43.7232 44.422 43.7166 44.3893C43.71 44.3567 43.7116 44.3229 43.7213 44.291C43.7696 43.7964 43.9566 43.3256 44.2608 42.9327C44.5644 42.5488 44.971 42.2593 45.4331 42.0978C45.485 42.0799 45.5418 42.0826 45.5919 42.1053C45.6419 42.1279 45.6814 42.1689 45.7022 42.2198C45.7185 42.2732 45.7135 42.3309 45.6881 42.3806C45.6627 42.4304 45.6189 42.4683 45.5661 42.4863C45.1771 42.6173 44.8345 42.8584 44.5798 43.1803C44.3283 43.5071 44.1714 43.8968 44.1264 44.3067" fill="white"/>
<path fill-rule="evenodd" clip-rule="evenodd" d="M97.3914 61.5229C100.184 67.0723 104.559 71.6691 109.964 74.7321C115.369 77.7951 121.561 79.1868 127.757 78.7312C133.953 78.2756 139.874 75.9932 144.773 72.1725C149.672 68.3519 153.328 63.1645 155.279 57.2663C157.229 51.3681 157.388 45.0238 155.733 39.0356C154.079 33.0475 150.686 27.6842 145.984 23.624C141.282 19.5638 135.482 16.9889 129.317 16.2248C123.151 15.4608 116.898 16.5419 111.347 19.3315C103.921 23.0969 98.2868 29.6463 95.6724 37.5506C93.0579 45.455 93.6758 54.0725 97.3914 61.5229Z" fill="#B2B2B2"/>
<path fill-rule="evenodd" clip-rule="evenodd" d="M101.007 59.6773C103.431 64.5094 107.233 68.5141 111.934 71.1849C116.634 73.8556 122.02 75.0725 127.412 74.6815C132.804 74.2905 137.959 72.3092 142.225 68.9882C146.49 65.6673 149.675 61.1559 151.377 56.0246C153.078 50.8933 153.22 45.3727 151.783 40.161C150.347 34.9493 147.397 30.2807 143.307 26.7456C139.217 23.2106 134.171 20.9679 128.806 20.3012C123.441 19.6345 117.999 20.5738 113.168 23.0003C106.703 26.2617 101.791 31.9511 99.5097 38.8241C97.2279 45.697 97.7611 53.1939 100.993 59.6748" fill="white"/>
<path fill-rule="evenodd" clip-rule="evenodd" d="M116.323 51.2715C118.753 51.718 121.26 51.4347 123.528 50.4573C125.796 49.48 127.724 47.8524 129.068 45.7802C130.412 43.708 131.111 41.284 131.079 38.8144C131.046 36.3447 130.282 33.9402 128.883 31.9044C127.485 29.8686 125.515 28.2928 123.221 27.376C120.928 26.4592 118.414 26.2426 115.998 26.7534C113.581 27.2643 111.37 28.4797 109.644 30.2462C107.918 32.0127 106.754 34.2511 106.299 36.6787C105.697 39.9356 106.409 43.2986 108.279 46.0319C110.15 48.7652 113.027 50.6464 116.281 51.2638" fill="#FDC300"/>
<path d="M111.839 34.1065C111.719 34.2778 111.536 34.3943 111.33 34.4304C111.124 34.4666 110.912 34.4194 110.741 34.2992C110.569 34.1791 110.453 33.9958 110.417 33.7898C110.381 33.5837 110.428 33.3718 110.548 33.2005C111.636 31.6524 113.146 30.45 114.899 29.7368C116.651 29.0236 118.572 28.8296 120.432 29.1782C120.633 29.215 120.812 29.3306 120.929 29.4995C121.046 29.6683 121.091 29.8766 121.054 30.0785C121.013 30.281 120.894 30.4595 120.723 30.5753C120.552 30.6912 120.343 30.7354 120.139 30.6982C118.579 30.4106 116.968 30.5711 115.495 31.1612C114.024 31.7539 112.754 32.7556 111.835 34.0476" fill="white"/>
<path d="M110.309 39.7711C110.319 39.8725 110.309 39.9749 110.28 40.0726C110.251 40.1702 110.203 40.2611 110.138 40.34C110.074 40.4189 109.994 40.4843 109.904 40.5324C109.815 40.5806 109.716 40.6105 109.615 40.6204C109.411 40.6377 109.208 40.5749 109.049 40.4453C108.891 40.3158 108.789 40.1296 108.765 39.9263C108.719 39.4405 108.711 38.952 108.741 38.465C108.756 37.9855 108.809 37.5081 108.9 37.0371C108.994 36.5668 109.118 36.1028 109.27 35.6479C109.336 35.4533 109.477 35.2931 109.662 35.2025C109.846 35.1119 110.06 35.0983 110.254 35.1647C110.449 35.2312 110.609 35.3722 110.699 35.5568C110.79 35.7414 110.804 35.9544 110.737 36.1489C110.611 36.5164 110.513 36.893 110.444 37.2755C110.352 37.6565 110.281 38.0425 110.233 38.4315C110.219 38.827 110.23 39.223 110.264 39.6173" fill="white"/>
</svg>
