<svg width="197" height="76" viewBox="0 0 197 76" fill="none" xmlns="http://www.w3.org/2000/svg">
<path d="M5.19492 68.7322H1.73472V72.3783C1.73472 73.0876 1.65043 73.4343 1.38148 73.7531H0.450195V75.4666H0.992106V74.2711H5.50803V75.4666H6.07001V73.7531H5.19492V68.7322ZM2.27663 72.3703V69.2701H4.65301V73.7531H2.01973C2.22055 73.3208 2.30888 72.8453 2.27663 72.3703Z" fill="#1D1D1B"/>
<path d="M10.3368 68.6568C9.77026 68.6413 9.2118 68.7929 8.73201 69.0924C8.25222 69.3919 7.87265 69.826 7.64129 70.3396C7.40992 70.8533 7.33715 71.4235 7.43217 71.9783C7.52718 72.533 7.78572 73.0473 8.17511 73.4561C8.56449 73.865 9.06723 74.1501 9.61977 74.2753C10.1723 74.4005 10.7499 74.3603 11.2794 74.1597C11.8089 73.9592 12.2666 73.6072 12.5947 73.1484C12.9228 72.6896 13.1065 72.1445 13.1226 71.582V71.5023C13.1301 71.1359 13.0647 70.7717 12.9304 70.4304C12.796 70.0891 12.5952 69.7775 12.3395 69.5132C12.0838 69.249 11.7781 69.0373 11.44 68.8904C11.1019 68.7435 10.7379 68.6641 10.3689 68.6568H10.3368ZM10.3368 69.1949C10.7954 69.1826 11.2473 69.3053 11.6358 69.5475C12.0242 69.7898 12.3317 70.1407 12.5197 70.5562C12.7076 70.9716 12.7675 71.433 12.6918 71.8822C12.6161 72.3314 12.4082 72.7483 12.0943 73.0804C11.7804 73.4125 11.3746 73.6449 10.9279 73.7485C10.4812 73.852 10.0136 73.822 9.58404 73.6622C9.15448 73.5025 8.78215 73.22 8.51395 72.8506C8.24575 72.4811 8.09366 72.0411 8.07686 71.586V71.5222C8.06885 71.227 8.1195 70.9332 8.22593 70.6574C8.33237 70.3817 8.49248 70.1294 8.69714 69.9152C8.9018 69.7009 9.14698 69.5287 9.41868 69.4085C9.69038 69.2884 9.98327 69.2225 10.2806 69.2148H10.3288" fill="#1D1D1B"/>
<path d="M19.8189 72.5698C19.6365 72.9433 19.3511 73.2576 18.9957 73.4763C18.6404 73.6951 18.2299 73.8091 17.8118 73.8053C17.2127 73.7805 16.6463 73.5268 16.2311 73.0971C15.816 72.6675 15.5842 72.0952 15.5842 71.4998C15.5842 70.9044 15.816 70.3321 16.2311 69.9024C16.6463 69.4727 17.2127 69.219 17.8118 69.1943C18.2239 69.1922 18.6282 69.305 18.9788 69.5199C19.3294 69.7348 19.6121 70.0432 19.7948 70.4098L19.8591 70.5373L20.3368 70.2823L20.2725 70.1627C20.0435 69.7081 19.6909 69.326 19.2546 69.0598C18.8184 68.7936 18.3159 68.6539 17.8038 68.6563C17.0627 68.6838 16.3613 68.9955 15.8468 69.5257C15.3324 70.056 15.0449 70.7635 15.0449 71.4998C15.0449 72.236 15.3324 72.9436 15.8468 73.4738C16.3613 74.0041 17.0627 74.3157 17.8038 74.3433C18.319 74.3439 18.8242 74.2013 19.2619 73.9315C19.6997 73.6618 20.0526 73.2756 20.2806 72.8169L20.3448 72.6934L19.8551 72.4423L19.8189 72.5698Z" fill="#1D1D1B"/>
<path d="M21.6973 69.2464H23.612V74.2671H24.1539V69.2464H26.0727V68.7324H21.6973V69.2464Z" fill="#1D1D1B"/>
<path d="M28.9783 68.7324L26.7344 74.2671H27.3204L27.8343 73.0159H30.6442L31.1741 74.2671H31.7601L29.4439 68.7324H28.9783ZM28.031 72.4899L29.2352 69.5572L30.4395 72.4899H28.031Z" fill="#1D1D1B"/>
<path d="M36.6698 71.446C36.8819 71.3213 37.0547 71.1404 37.1689 70.9236C37.2831 70.7068 37.334 70.4627 37.3161 70.2187C37.3161 69.1229 36.4249 68.7324 35.6622 68.7324H33.623V74.2671H35.7385C36.5855 74.2671 37.4405 73.7929 37.4405 72.737C37.4504 72.4711 37.383 72.208 37.2463 71.979C37.1096 71.7501 36.9095 71.5651 36.6698 71.446ZM35.6622 69.2464C35.7909 69.2291 35.9217 69.237 36.0473 69.2699C36.1728 69.3027 36.2906 69.3598 36.3938 69.4379C36.4971 69.516 36.5839 69.6136 36.6491 69.725C36.7144 69.8364 36.7569 69.9595 36.7742 70.0872V70.2307C36.7742 71.0873 36.0717 71.2149 35.6542 71.2149H34.169V69.2464H35.6622ZM34.169 71.7289H35.7345C36.2724 71.7289 36.9026 71.9958 36.9026 72.741C36.8984 73.0175 36.7842 73.2812 36.5849 73.4745C36.3857 73.6678 36.1175 73.7751 35.8389 73.773H35.7345H34.169V71.7289Z" fill="#1D1D1B"/>
<path d="M40.1103 73.3028V68.7324H39.5684V74.2671H40.0902L43.3176 69.7047V74.2671H43.8595V68.7324H43.3497L40.1103 73.3028Z" fill="#1D1D1B"/>
<path d="M49.0222 72.6892L46.7904 68.7324H46.2686V74.2671H46.8145V69.8601L48.8175 73.4104H49.2189L51.23 69.8521V74.2671H51.7719V68.7324H51.242L49.0222 72.6892Z" fill="#1D1D1B"/>
<path d="M60.8479 71.3704C60.357 71.6402 59.8034 71.7776 59.2423 71.7689C58.299 71.7689 57.8173 71.4142 57.8173 70.7049V68.7124H57.2754V70.7288C57.2754 71.7211 57.9779 72.2909 59.2022 72.2909C59.7675 72.2919 60.3259 72.1666 60.8359 71.9243V74.2476H61.3778V68.7323H60.8359L60.8479 71.3704Z" fill="#1D1D1B"/>
<path d="M63.3477 69.2464H65.2624V74.2671H65.8043V69.2464H67.7231V68.7324H63.3477V69.2464Z" fill="#1D1D1B"/>
<path d="M71.7812 68.6568C71.2144 68.6459 70.6572 68.802 70.1799 69.1055C69.7025 69.409 69.3265 69.8461 69.0995 70.3617C68.8724 70.8773 68.8044 71.4482 68.9041 72.0021C69.0037 72.5561 69.2666 73.0683 69.6595 73.4739C70.0524 73.8796 70.5576 74.1604 71.1112 74.281C71.6649 74.4017 72.2421 74.3566 72.77 74.1515C73.2978 73.9464 73.7526 73.5906 74.0767 73.129C74.4009 72.6673 74.5799 72.1207 74.5911 71.558V71.5022C74.5986 71.1359 74.5332 70.7717 74.3989 70.4304C74.2645 70.0891 74.0637 69.7774 73.808 69.5132C73.5523 69.2489 73.2466 69.0373 72.9085 68.8903C72.5704 68.7434 72.2064 68.664 71.8374 68.6568H71.7812ZM71.7812 69.1948C72.24 69.1809 72.6927 69.3023 73.0822 69.5435C73.4717 69.7848 73.7804 70.1351 73.9696 70.5504C74.1588 70.9657 74.2198 71.4272 74.1451 71.8769C74.0703 72.3266 73.8631 72.7442 73.5496 73.0771C73.236 73.41 72.8302 73.6433 72.3833 73.7475C71.9364 73.8517 71.4685 73.8222 71.0384 73.6627C70.6084 73.5032 70.2356 73.2209 69.967 72.8513C69.6984 72.4817 69.5461 72.0414 69.5292 71.5859V71.5142C69.5217 71.2185 69.573 70.9242 69.6801 70.6482C69.7873 70.3722 69.9481 70.1198 70.1535 69.9055C70.3589 69.6912 70.6049 69.5192 70.8772 69.3993C71.1496 69.2794 71.4431 69.214 71.741 69.2068H71.7812" fill="#1D1D1B"/>
<path d="M81.6213 72.0278L79.9353 68.7324H79.3252L81.3323 72.5977L81.0754 73.0918C80.9895 73.3027 80.84 73.4822 80.6475 73.6056C80.4549 73.729 80.2286 73.7903 79.9996 73.7811H79.8751L79.8109 74.3071H79.9715C80.6137 74.3071 81.1316 74.1119 81.5771 73.2472L83.9455 68.7324H83.3353L81.6213 72.0278Z" fill="#1D1D1B"/>
<path d="M85.7949 74.2671H86.3368V69.2544H89.2551V68.7324H85.7949V74.2671Z" fill="#1D1D1B"/>
<path d="M93.3143 68.6568C92.7478 68.6413 92.1893 68.7929 91.7096 69.0924C91.2298 69.3919 90.8502 69.826 90.6188 70.3396C90.3875 70.8533 90.3147 71.4235 90.4097 71.9783C90.5047 72.533 90.7633 73.0473 91.1526 73.4561C91.542 73.865 92.0448 74.1501 92.5973 74.2753C93.1499 74.4005 93.7274 74.3603 94.2569 74.1597C94.7864 73.9592 95.2442 73.6072 95.5723 73.1484C95.9003 72.6896 96.084 72.1445 96.1001 71.582V71.5023C96.1076 71.1359 96.0423 70.7717 95.9079 70.4304C95.7735 70.0891 95.5728 69.7775 95.317 69.5132C95.0613 69.249 94.7557 69.0373 94.4176 68.8904C94.0794 68.7435 93.7155 68.6641 93.3465 68.6568H93.3143ZM93.3143 69.1949C93.7732 69.181 94.2259 69.3023 94.6153 69.5436C95.0048 69.7849 95.3136 70.1352 95.5027 70.5505C95.6919 70.9657 95.7529 71.4273 95.6782 71.877C95.6034 72.3266 95.3962 72.7443 95.0827 73.0772C94.7692 73.4101 94.3634 73.6433 93.9165 73.7475C93.4696 73.8518 93.0017 73.8223 92.5716 73.6628C92.1416 73.5033 91.7688 73.2209 91.5002 72.8513C91.2316 72.4817 91.0793 72.0414 91.0624 71.586V71.5143C91.0544 71.2191 91.1051 70.9252 91.2115 70.6494C91.3179 70.3737 91.4781 70.1215 91.6827 69.9072C91.8874 69.6929 92.1325 69.5207 92.4042 69.4006C92.6759 69.2804 92.9688 69.2146 93.2662 69.2068H93.3143" fill="#1D1D1B"/>
<path d="M102.141 68.7324H98.681V72.3785C98.681 73.0879 98.5927 73.4345 98.3278 73.7533H97.3965V75.4668H97.9384V74.2713H102.45V75.4668H102.992V73.7533H102.141V68.7324ZM99.2229 72.3706V69.2704H101.607V73.7533H98.9741C99.1749 73.321 99.2632 72.8456 99.231 72.3706" fill="#1D1D1B"/>
<path d="M108.655 71.2906H105.52V68.7324H104.979V74.2671H105.52V71.8205H108.655V74.2671H109.197V68.7324H108.655V71.2906Z" fill="#1D1D1B"/>
<path d="M114.1 68.6568C113.533 68.6413 112.975 68.7929 112.495 69.0924C112.015 69.3919 111.635 69.826 111.404 70.3396C111.173 70.8533 111.1 71.4235 111.195 71.9783C111.29 72.533 111.548 73.0473 111.938 73.4561C112.327 73.865 112.83 74.1501 113.382 74.2753C113.935 74.4005 114.513 74.3603 115.042 74.1597C115.572 73.9592 116.029 73.6072 116.357 73.1484C116.686 72.6896 116.869 72.1445 116.885 71.582V71.5023C116.893 71.1359 116.827 70.7717 116.693 70.4304C116.559 70.0891 116.358 69.7775 116.102 69.5132C115.847 69.249 115.541 69.0373 115.203 68.8904C114.865 68.7435 114.501 68.6641 114.132 68.6568H114.1ZM114.1 69.1949C114.558 69.1818 115.011 69.3038 115.4 69.5456C115.788 69.7873 116.097 70.138 116.285 70.5533C116.474 70.9687 116.534 71.4302 116.459 71.8796C116.384 72.329 116.176 72.7463 115.862 73.0788C115.549 73.4113 115.143 73.6441 114.696 73.748C114.249 73.8519 113.782 73.8221 113.352 73.6625C112.922 73.5029 112.549 73.2205 112.281 72.8509C112.013 72.4814 111.86 72.0413 111.844 71.586V71.5182C111.836 71.2231 111.886 70.9292 111.993 70.6534C112.099 70.3777 112.259 70.1255 112.464 69.9112C112.669 69.6969 112.914 69.5247 113.185 69.4046C113.457 69.2844 113.75 69.2185 114.047 69.2108H114.1" fill="#1D1D1B"/>
<path d="M126.548 68.7324H125.869L123.914 71.2228H122.734V68.7324H122.192V74.2671H122.734V71.7528H123.922L125.942 74.2671H126.628L124.392 71.4858L126.548 68.7324Z" fill="#1D1D1B"/>
<path d="M130.324 72.0277L128.634 68.732H128.028L130.035 72.5976L129.783 73.0917C129.697 73.3027 129.547 73.4822 129.355 73.6056C129.162 73.729 128.936 73.7903 128.707 73.7812H128.582L128.514 74.3032H128.679C129.321 74.3032 129.839 74.1079 130.284 73.2432L132.637 68.728H132.03L130.324 72.0277Z" fill="#1D1D1B"/>
<path d="M138.353 68.7324H134.893V72.3785C134.893 73.0879 134.805 73.4345 134.54 73.7533H133.608V75.4668H134.15V74.2713H138.666V75.4668H139.208V73.7533H138.353V68.7324ZM135.435 72.3706V69.2704H137.811V73.7533H135.178C135.383 73.3222 135.471 72.8458 135.435 72.3706Z" fill="#1D1D1B"/>
<path d="M143.584 68.7324H143.114L140.866 74.2671H141.452L141.966 73.0159H144.776L145.306 74.2671H145.892L143.612 68.8201L143.584 68.7324ZM142.151 72.4899L143.355 69.5572L144.559 72.4899H142.151Z" fill="#1D1D1B"/>
<path d="M155.397 72.5698C155.215 72.9433 154.929 73.2576 154.574 73.4763C154.219 73.6951 153.808 73.8091 153.39 73.8053C152.791 73.7805 152.224 73.5268 151.809 73.0971C151.394 72.6675 151.162 72.0952 151.162 71.4998C151.162 70.9044 151.394 70.3321 151.809 69.9024C152.224 69.4727 152.791 69.219 153.39 69.1943C153.802 69.192 154.205 69.3048 154.555 69.5198C154.905 69.7347 155.187 70.0432 155.369 70.4098L155.437 70.5373L155.915 70.2823L155.851 70.1627C155.622 69.7081 155.269 69.326 154.833 69.0598C154.397 68.7936 153.894 68.6539 153.382 68.6563C152.641 68.6838 151.939 68.9955 151.425 69.5257C150.91 70.056 150.623 70.7635 150.623 71.4998C150.623 72.236 150.91 72.9436 151.425 73.4738C151.939 74.0041 152.641 74.3157 153.382 74.3433C153.897 74.3439 154.402 74.2013 154.84 73.9315C155.278 73.6618 155.631 73.2756 155.859 72.8169L155.923 72.6934L155.433 72.4423L155.397 72.5698Z" fill="#1D1D1B"/>
<path d="M162.27 68.7324H161.591L159.632 71.2228H158.456V68.7324H157.91V74.2671H158.456V71.7528H159.64L161.659 74.2671H162.35L160.11 71.4858L162.27 68.7324Z" fill="#1D1D1B"/>
<path d="M166.496 68.7324H166.022L163.778 74.2671H164.364L164.878 73.0159H167.688L168.218 74.2671H168.804L166.524 68.8201L166.496 68.7324ZM165.075 72.4899L166.259 69.5572L167.463 72.4899H165.075Z" fill="#1D1D1B"/>
<path d="M177.25 68.7324H176.572L174.56 71.2746H174.071V68.7324H173.529V71.2746H173.031L171.028 68.7324H170.346L172.557 71.5336L170.277 74.2671H170.964L173.027 71.8046H173.529V74.2671H174.071V71.8046H174.572L176.636 74.2671H177.322L175.042 71.5336L177.25 68.7324Z" fill="#1D1D1B"/>
<path d="M179.129 74.2671H182.742V73.7451H179.675V71.7448H182.681V71.2308H179.675V69.2544H182.742V68.7324H179.129V74.2671Z" fill="#1D1D1B"/>
<path d="M184.544 69.2464H186.455V74.2671H186.997V69.2464H188.915V68.7324H184.544V69.2464Z" fill="#1D1D1B"/>
<path d="M194.483 69.2544V68.7324H190.874V74.2671H194.483V73.7451H191.416V71.7448H194.422V71.2308H191.416V69.2544H194.483Z" fill="#1D1D1B"/>
<path d="M3.19168 29.3052H7.242L6.1943 35.9799H13.0586L14.0862 29.3052H18.1606L15.5393 45.8745H11.4609L12.4404 39.7696H5.59618L4.62073 45.8745H0.566406L3.19168 29.3052Z" fill="#D40F14"/>
<path d="M18.7307 37.5902C19.0968 35.2351 20.2957 33.0864 22.1125 31.5289C23.9293 29.9714 26.2453 29.1069 28.6457 29.0903C33.2259 29.0903 36.6098 32.8999 35.8471 37.6101C35.0845 42.3203 31.2911 46.1299 25.9281 46.1299C21.3519 46.1299 17.968 42.3203 18.7307 37.6101V37.5902ZM31.7447 37.6101C32.1461 35.0358 30.5404 33.0235 28.0275 33.0235C25.5146 33.0235 23.2346 35.0159 22.8091 37.5902C22.3836 40.1644 24.0133 42.1808 26.5302 42.1808C29.0471 42.1808 31.2951 40.1884 31.7246 37.5902" fill="#D40F14"/>
<path d="M51.029 45.8745H46.9746L48.9817 33.2821H43.7071L42.7558 39.2954C42.0613 43.6509 40.4436 45.8745 35.8634 45.8745C35.6025 45.8745 35.0285 45.8506 34.6592 45.8267L35.2091 42.3478C35.474 42.3956 35.7427 42.4196 36.012 42.4196C37.441 42.4196 38.3482 41.5429 38.7536 38.9646L40.3031 29.3052H53.7024L51.029 45.8745Z" fill="#D40F14"/>
<path d="M56.4511 29.3052H60.5014L59.5259 35.438H62.7694C66.0811 35.438 68.0841 37.6616 67.6064 40.6423C67.0846 44.0056 64.8648 45.8745 61.1838 45.8745H53.8379L56.4511 29.3052ZM61.1236 42.5351C62.5767 42.5351 63.5321 41.8976 63.7207 40.6423C63.9094 39.387 63.1748 38.7734 61.7137 38.7734H58.9961L58.402 42.5351H61.1236Z" fill="#D40F14"/>
<path d="M125.528 37.7534C125.886 35.4236 127.07 33.2971 128.866 31.7559C130.662 30.2147 132.953 29.36 135.327 29.3452C139.847 29.3452 143.187 33.107 142.432 37.7534C141.677 42.3998 137.94 46.1655 132.645 46.1655C128.129 46.1655 124.786 42.4038 125.54 37.7534H125.528ZM138.386 37.7534C138.811 35.2309 137.209 33.2464 134.717 33.2464C132.224 33.2464 129.988 35.2389 129.587 37.7534C129.185 40.2679 130.763 42.2882 133.259 42.2882C135.756 42.2882 137.964 40.2958 138.386 37.7534Z" fill="#D40F14"/>
<path d="M141.544 42.4715H144.25C145.426 40.766 146.084 38.4068 146.438 36.1912L147.497 29.5801H160.106L158.059 42.4715H160.788L159.66 49.6445H155.614L156.2 45.9106H145.001L144.415 49.6445H140.4L141.544 42.4715ZM154.061 42.4715L155.494 33.4097H150.885L150.436 36.1673C150.063 38.5583 149.448 40.746 148.389 42.4715H154.061Z" fill="#D40F14"/>
<path d="M164.229 29.5801H168.227L166.722 39.2278L174.862 29.5801H179.121L176.532 45.9307H172.534L174.064 36.2829L165.899 45.9307H161.64L164.229 29.5801Z" fill="#D40F14"/>
<path d="M181.879 29.5801H185.877L184.842 36.1673H191.618L192.629 29.5801H196.655L194.066 45.9307H190.044L191.007 39.9013H184.256L183.292 45.9307H179.29L181.879 29.5801Z" fill="#D40F14"/>
<path d="M50.776 13.1504H47.4563C47.0783 13.1504 46.7159 13.0014 46.4486 12.7361C46.1814 12.4708 46.0312 12.111 46.0312 11.7358C46.0312 11.3607 46.1814 11.0009 46.4486 10.7356C46.7159 10.4703 47.0783 10.3213 47.4563 10.3213H50.776C51.1539 10.3213 51.5164 10.4703 51.7836 10.7356C52.0509 11.0009 52.201 11.3607 52.201 11.7358C52.201 12.111 52.0509 12.4708 51.7836 12.7361C51.5164 13.0014 51.1539 13.1504 50.776 13.1504Z" fill="#D40F14"/>
<path d="M58.6956 21.2915H56.1506C55.7727 21.2915 55.4102 21.1425 55.143 20.8772C54.8757 20.6119 54.7256 20.2521 54.7256 19.877C54.7256 19.5018 54.8757 19.142 55.143 18.8767C55.4102 18.6114 55.7727 18.4624 56.1506 18.4624H58.6956C59.0736 18.4624 59.436 18.6114 59.7033 18.8767C59.9705 19.142 60.1207 19.5018 60.1207 19.877C60.1207 20.2521 59.9705 20.6119 59.7033 20.8772C59.436 21.1425 59.0736 21.2915 58.6956 21.2915Z" fill="#D40F14"/>
<path d="M44.1685 58.9375H39.2551C38.8772 58.9375 38.5147 58.7884 38.2475 58.5231C37.9802 58.2578 37.8301 57.8979 37.8301 57.5227C37.8301 57.1475 37.9802 56.7876 38.2475 56.5223C38.5147 56.257 38.8772 56.1079 39.2551 56.1079H44.1685C44.5464 56.1079 44.9089 56.257 45.1761 56.5223C45.4434 56.7876 45.5935 57.1475 45.5935 57.5227C45.5935 57.8979 45.4434 58.2578 45.1761 58.5231C44.9089 58.7884 44.5464 58.9375 44.1685 58.9375Z" fill="#D40F14"/>
<path d="M120.213 30.0508C117.262 39.9016 118.439 49.2464 120.177 58.5273C120.182 58.5829 120.205 58.6352 120.244 58.6757C120.282 58.7163 120.334 58.7426 120.389 58.7505H112.847C112.75 58.7505 112.662 58.6588 112.634 58.5273C110.908 49.2464 109.72 39.9016 112.678 30.0508C114.585 24.5675 114.095 16.8207 112.678 8.19727H113.116C113.116 9.39275 113.882 10.385 114.818 10.385C115.157 10.3593 115.482 10.2337 115.749 10.0244C116.016 9.81499 116.215 9.53128 116.319 9.20945C116.319 9.1566 116.34 9.10592 116.378 9.06856C116.416 9.03119 116.467 9.0102 116.52 9.0102C116.573 9.0102 116.624 9.03119 116.662 9.06856C116.699 9.10592 116.72 9.1566 116.72 9.20945C116.803 9.54416 116.996 9.84177 117.269 10.0546C117.542 10.2674 117.879 10.383 118.226 10.383C118.573 10.383 118.91 10.2674 119.183 10.0546C119.456 9.84177 119.649 9.54416 119.731 9.20945C119.731 9.1566 119.752 9.10592 119.79 9.06856C119.828 9.03119 119.879 9.0102 119.932 9.0102C119.985 9.0102 120.036 9.03119 120.074 9.06856C120.111 9.10592 120.133 9.1566 120.133 9.20945C120.215 9.41893 120.334 9.61296 120.482 9.78328C121.686 17.7532 122.031 24.9022 120.233 30.0508" fill="#D40F14"/>
<path d="M113.939 1.0122V5.97755C113.939 6.53545 113.216 6.98975 112.333 6.98975C111.438 6.98975 110.727 6.53545 110.727 5.97755V3.94518C110.727 3.38728 110.005 2.93697 109.122 2.93697H94.8795C93.9843 2.93697 93.2738 3.38728 93.2738 3.94518V5.97755C93.2738 6.53545 92.5473 6.98975 91.6682 6.98975C90.7891 6.98975 90.0625 6.53545 90.0625 5.97755V1.0122C90.0625 0.454294 90.7851 0 91.6682 0H112.325C113.216 0 113.931 0.454294 113.931 1.0122" fill="#D40F14"/>
<path d="M73.7852 13.1504H56.4641C56.0861 13.1504 55.7237 13.0014 55.4564 12.7361C55.1892 12.4708 55.0391 12.111 55.0391 11.7358C55.0391 11.3607 55.1892 11.0009 55.4564 10.7356C55.7237 10.4703 56.0861 10.3213 56.4641 10.3213H73.7852C74.1632 10.3213 74.5256 10.4703 74.7929 10.7356C75.0601 11.0009 75.2103 11.3607 75.2103 11.7358C75.2103 12.111 75.0601 12.4708 74.7929 12.7361C74.5256 13.0014 74.1632 13.1504 73.7852 13.1504Z" fill="#D40F14"/>
<path d="M77.6464 21.2915H64.3996C64.0217 21.2915 63.6592 21.1425 63.392 20.8772C63.1247 20.6119 62.9746 20.2521 62.9746 19.877C62.9746 19.5018 63.1247 19.142 63.392 18.8767C63.6592 18.6114 64.0217 18.4624 64.3996 18.4624H77.6464C78.0244 18.4624 78.3868 18.6114 78.6541 18.8767C78.9213 19.142 79.0715 19.5018 79.0715 19.877C79.0715 20.2521 78.9213 20.6119 78.6541 20.8772C78.3868 21.1425 78.0244 21.2915 77.6464 21.2915Z" fill="#D40F14"/>
<path d="M75.475 58.9375H49.8606C49.4826 58.9375 49.1202 58.7884 48.8529 58.5231C48.5857 58.2578 48.4355 57.8979 48.4355 57.5227C48.4355 57.1475 48.5857 56.7876 48.8529 56.5223C49.1202 56.257 49.4826 56.1079 49.8606 56.1079H75.475C75.8529 56.1079 76.2154 56.257 76.4826 56.5223C76.7499 56.7876 76.9 57.1475 76.9 57.5227C76.9 57.8979 76.7499 58.2578 76.4826 58.5231C76.2154 58.7884 75.8529 58.9375 75.475 58.9375Z" fill="#D40F14"/>
<path d="M108.528 8.19715H108.211C108.211 9.36872 107.588 10.3211 106.798 10.3769C106.375 9.92176 105.898 9.52021 105.377 9.18143C105.365 9.14612 105.341 9.11581 105.31 9.09552C105.279 9.07524 105.241 9.06618 105.204 9.06986C105.148 9.06986 105.092 9.13361 105.055 9.22128C104.807 9.91865 104.305 10.3929 103.731 10.3929C103.645 10.3921 103.561 10.3814 103.478 10.361C103.262 10.2906 103.064 10.1747 102.898 10.0214C102.732 9.86796 102.601 9.68067 102.514 9.47233L102.418 9.24918V9.22128C102.35 9.02204 102.149 9.02204 102.081 9.22128C102.022 9.3827 101.947 9.53762 101.856 9.68353L101.828 9.72338C101.746 9.84434 101.651 9.95536 101.543 10.0541C101.496 10.0983 101.445 10.1383 101.39 10.1737C101.266 10.2494 101.131 10.3045 100.989 10.3371C100.918 10.3451 100.847 10.3451 100.776 10.3371C100.685 10.3378 100.594 10.3243 100.507 10.2972C100.387 10.2695 100.273 10.2209 100.17 10.1538C99.9816 10.0178 99.8208 9.84737 99.6965 9.65165C99.6684 9.60384 99.6403 9.55602 99.6122 9.50023L99.568 9.42451C99.5359 9.35279 99.5078 9.27707 99.4797 9.20136V9.17346C99.4115 8.97422 99.2108 8.97422 99.1425 9.17346C99.1406 9.17788 99.1397 9.18262 99.1397 9.18741C99.1397 9.1922 99.1406 9.19694 99.1425 9.20136C99.1144 9.27707 99.0823 9.35279 99.0502 9.42451C99.0378 9.44852 99.023 9.47122 99.006 9.49226C98.982 9.54742 98.9538 9.6007 98.9217 9.65165C98.9213 9.65874 98.9188 9.66555 98.9146 9.67122C98.9103 9.6769 98.9044 9.68118 98.8976 9.68353C98.85 9.7546 98.7977 9.82249 98.7411 9.88677C98.6529 9.98699 98.5532 10.0766 98.444 10.1538C98.3429 10.2216 98.2299 10.2703 98.1109 10.2972C97.9354 10.349 97.7485 10.349 97.573 10.2972C97.4714 10.273 97.374 10.234 97.2839 10.1817L97.1274 10.0701L97.0592 10.0143C97.0294 9.98935 97.0025 9.9613 96.9789 9.9306C96.9508 9.89872 96.9187 9.8788 96.8906 9.84293C96.8625 9.80707 96.8103 9.73932 96.7741 9.68353L96.746 9.64369C96.729 9.61986 96.7142 9.59452 96.7019 9.56797C96.6285 9.44028 96.5654 9.30704 96.5132 9.16948C96.441 8.96625 96.2523 8.96625 96.176 9.16948C96.1321 9.28854 96.0798 9.40439 96.0195 9.51617C95.9637 9.61842 95.8993 9.71574 95.8268 9.80707C95.7749 9.8719 95.7185 9.93314 95.6582 9.99037C95.6583 9.99713 95.6559 10.0037 95.6514 10.0088C95.647 10.0139 95.6409 10.0173 95.6341 10.0183C95.5855 10.0625 95.5331 10.1025 95.4776 10.1378V10.1577C95.3745 10.2249 95.2604 10.2734 95.1404 10.3012C95.0534 10.3283 94.9626 10.3418 94.8714 10.341C94.7848 10.3405 94.6986 10.3298 94.6145 10.3092C94.3998 10.2369 94.203 10.1204 94.037 9.96725C93.8709 9.81409 93.7394 9.62776 93.6511 9.42053C93.619 9.3488 93.5869 9.27309 93.5588 9.19737V9.16948C93.4865 8.97023 93.2898 8.97023 93.2176 9.16948C93.1576 9.33101 93.081 9.48592 92.9888 9.63173L92.9607 9.67158C92.8794 9.79163 92.7852 9.90253 92.6797 10.0023C92.631 10.0465 92.5786 10.0865 92.5231 10.1219V10.1418C92.3991 10.2175 92.2635 10.2727 92.1217 10.3052C92.0518 10.3199 91.9804 10.3266 91.909 10.3251C91.8178 10.3258 91.727 10.3124 91.64 10.2853C91.5187 10.2575 91.4032 10.209 91.2988 10.1418C91.0924 10.025 90.9121 9.86774 90.7689 9.67955C90.7408 9.63173 90.7127 9.58391 90.6846 9.52812C90.6565 9.47233 90.6565 9.4803 90.6445 9.45241C90.6096 9.37977 90.5788 9.30527 90.5522 9.22925V9.20136C90.4799 9.00211 90.2832 9.00211 90.211 9.20136V9.22925C90.1829 9.30497 90.1467 9.38068 90.1146 9.45241C90.1035 9.47625 90.0901 9.49894 90.0745 9.52015C90.0505 9.57531 90.0223 9.6286 89.9902 9.67955C89.9789 9.68735 89.9705 9.69852 89.9661 9.71143C89.9184 9.78249 89.8661 9.85038 89.8095 9.91466C89.7214 10.0149 89.6217 10.1045 89.5125 10.1817C89.4095 10.2488 89.2953 10.2973 89.1753 10.3251C88.9998 10.3769 88.8129 10.3769 88.6374 10.3251C88.5361 10.3001 88.4388 10.2612 88.3484 10.2095L88.1958 10.098L88.1236 10.0422L88.0433 9.95849C88.0152 9.92662 87.9871 9.90669 87.959 9.87083C87.9157 9.82105 87.8768 9.76773 87.8426 9.71143L87.8145 9.67158C87.7974 9.64776 87.7827 9.62241 87.7703 9.59587C87.6938 9.46984 87.6306 9.3363 87.5817 9.19737C87.5054 8.99414 87.3167 8.99414 87.2405 9.19737C87.1996 9.31702 87.1486 9.433 87.0879 9.54406C87.0308 9.6464 86.965 9.74372 86.8912 9.83496C86.8393 9.89979 86.783 9.96104 86.7226 10.0183C86.7227 10.025 86.7203 10.0316 86.7159 10.0367C86.7114 10.0418 86.7053 10.0452 86.6986 10.0462C86.6499 10.0904 86.5975 10.1304 86.542 10.1657C86.4376 10.2329 86.3221 10.2815 86.2008 10.3092C86.1138 10.3363 86.023 10.3497 85.9318 10.349C85.7991 10.3729 85.6631 10.3729 85.5304 10.349C85.3148 10.2786 85.117 10.1628 84.9507 10.0094C84.7844 9.85601 84.6535 9.66872 84.567 9.46038C84.5349 9.38865 84.5028 9.31294 84.4747 9.23722V9.20933C84.4065 9.01008 84.2057 9.01008 84.1375 9.20933C84.0893 9.37337 84.0248 9.53223 83.9448 9.68353L83.9167 9.72338C83.8351 9.84434 83.7395 9.95536 83.6317 10.0541C83.5845 10.0983 83.5334 10.1383 83.4792 10.1737H83.4591C83.3351 10.2494 83.1995 10.3045 83.0577 10.3371C82.987 10.3451 82.9156 10.3451 82.8449 10.3371C82.7335 10.3371 82.6226 10.321 82.5158 10.2892C81.8494 10.0621 81.3517 9.19339 81.3517 8.15332H80.9502C81.1229 9.3488 81.2754 10.5443 81.4159 11.688C82.2749 18.8847 82.3953 25.2806 80.9502 30.0186C79.8594 34.201 79.3197 38.5061 79.3446 42.8262V47.5802C79.3342 49.0377 79.5315 50.4893 79.9306 51.8919C81.0787 55.9167 83.8003 58.75 86.9755 58.75H108.383C108.608 58.75 107.901 53.7927 107.901 53.7927C107.901 53.7927 107.769 52.6291 107.709 52.0473C107.681 51.8083 107.657 51.5731 107.633 51.334L107.524 50.2501C107.496 49.9951 107.472 49.7321 107.452 49.481C107.42 49.1344 107.388 48.7877 107.356 48.4529C107.335 48.1899 107.311 47.9269 107.295 47.6559C107.267 47.3172 107.239 46.9785 107.215 46.6478C107.195 46.3808 107.175 46.1178 107.163 45.8508C107.139 45.524 107.119 45.1933 107.095 44.8625C107.095 44.5955 107.067 44.3246 107.054 44.0655C107.054 43.7388 107.026 43.416 107.01 43.0932C106.994 42.7704 106.986 42.5552 106.982 42.2962C106.978 42.0372 106.958 41.6586 106.954 41.3398C106.95 41.021 106.954 40.8019 106.954 40.5428V37.06C106.954 36.793 106.978 36.4344 106.994 36.1236C107.01 35.8127 107.018 35.6055 107.03 35.3266C107.042 35.0476 107.075 34.697 107.095 34.3901C107.115 34.0833 107.131 33.88 107.151 33.621C107.171 33.362 107.227 32.9954 107.227 32.6766C107.255 32.4255 107.279 32.1785 107.303 31.9354C107.339 31.6126 107.384 31.2978 107.424 30.979C107.46 30.7399 107.488 30.5048 107.52 30.2697C107.572 29.931 107.624 29.6082 107.681 29.2774C107.717 29.0583 107.749 28.8351 107.789 28.6159C107.853 28.2493 107.93 27.8907 108.006 27.536L108.114 26.9901C108.231 26.4442 108.359 25.9142 108.496 25.3961C108.588 25.165 108.672 24.9219 108.752 24.6748C108.759 24.6164 108.777 24.5596 108.805 24.5075C108.945 24.0532 109.082 23.583 109.206 23.0968C109.49 21.9072 109.681 20.6974 109.776 19.4785C109.808 19.1557 109.828 18.825 109.844 18.4862C109.962 15.0173 109.507 11.5526 108.5 8.22903L108.528 8.19715ZM101.973 26.233C101.977 26.3915 101.968 26.5502 101.944 26.7072C101.895 27.2938 101.801 27.8759 101.663 28.4486C101.607 28.6837 101.543 28.9108 101.471 29.134C101.467 29.1604 101.459 29.186 101.447 29.2097C101.411 29.3332 101.366 29.4488 101.326 29.5604C101.258 29.8154 101.198 30.0704 101.142 30.3295C101.122 30.4211 101.105 30.5088 101.089 30.5925C101.053 30.7638 101.013 30.9431 100.985 31.1145C100.976 31.2223 100.958 31.329 100.929 31.4333C100.909 31.5369 100.877 31.7521 100.853 31.9075C100.828 32.0629 100.824 32.1346 100.808 32.2542C100.792 32.3737 100.768 32.565 100.752 32.7164C100.736 32.8679 100.728 32.9555 100.712 33.0751C100.696 33.1946 100.684 33.3779 100.672 33.5294C100.673 33.6508 100.663 33.7721 100.644 33.892C100.616 34.0076 100.644 34.1988 100.612 34.3503C100.596 34.4733 100.596 34.5978 100.612 34.7209V38.132C100.608 38.2878 100.616 38.4436 100.636 38.5982C100.648 38.7308 100.648 38.8641 100.636 38.9967C100.631 39.1553 100.64 39.314 100.664 39.4709C100.692 39.6263 100.664 39.7259 100.692 39.8694C100.72 40.0129 100.692 40.1962 100.728 40.3595C100.764 40.5229 100.728 40.6146 100.756 40.758L100.804 41.2561C100.804 41.3797 100.828 41.5032 100.836 41.6268C100.845 41.7503 100.873 41.9734 100.893 42.1448C100.913 42.3161 100.917 42.3799 100.925 42.4955C100.961 42.7704 100.989 43.0534 101.021 43.3323C101.066 43.6566 100.992 43.9862 100.812 44.2608C100.633 44.5152 100.423 44.7468 100.186 44.9502C100.186 44.9502 100.158 44.986 100.142 44.99C100.1 45.0189 100.061 45.0523 100.026 45.0897C100.009 45.1098 99.9888 45.1261 99.9654 45.1375L99.6884 45.3208L99.6282 45.3487C99.5523 45.3953 99.4732 45.4366 99.3914 45.4722C99.3695 45.4881 99.3451 45.5002 99.3191 45.5081L99.0141 45.6197H98.9739C98.885 45.6488 98.7936 45.6701 98.7009 45.6834C98.673 45.6794 98.6446 45.6794 98.6167 45.6834C98.5098 45.6914 98.4024 45.6914 98.2955 45.6834H90.9456C89.4162 45.6834 88.0995 44.3166 87.5496 42.3759C87.3569 41.7033 87.2609 41.007 87.2646 40.3077V37.9965C87.2483 35.9146 87.5061 33.8395 88.0313 31.8238C88.7257 29.5484 88.6655 26.4601 88.2561 22.9932C88.1918 22.4353 88.1156 21.8695 88.0313 21.2916H88.2199C88.1985 21.4964 88.2385 21.7028 88.3349 21.885C88.4314 22.0672 88.5799 22.2171 88.7618 22.3158C88.8128 22.3308 88.8653 22.3402 88.9184 22.3437H89.0228C89.0901 22.3311 89.1542 22.3053 89.2114 22.268L89.2877 22.2042C89.3426 22.1597 89.3888 22.1057 89.4242 22.0448C89.4682 21.9759 89.5046 21.9024 89.5326 21.8256C89.5647 21.73 89.661 21.73 89.6931 21.8256C89.7054 21.8611 89.7201 21.8958 89.7373 21.9292C89.787 22.0299 89.8591 22.1181 89.9481 22.1871C90.0371 22.2561 90.1407 22.3042 90.2511 22.3277C90.2906 22.3437 90.3329 22.3518 90.3755 22.3516C90.4195 22.3518 90.4631 22.3436 90.504 22.3277C90.5619 22.3171 90.6167 22.294 90.6646 22.26L90.7448 22.1962C90.7767 22.172 90.8039 22.1423 90.8251 22.1086C90.8609 22.0646 90.8931 22.018 90.9215 21.9691C90.9496 21.9133 90.9696 21.8655 90.9937 21.8057C90.9992 21.7888 91.0099 21.7741 91.0243 21.7636C91.0387 21.7532 91.0561 21.7475 91.074 21.7475C91.0919 21.7475 91.1093 21.7532 91.1237 21.7636C91.1381 21.7741 91.1488 21.7888 91.1543 21.8057C91.1783 21.8732 91.2106 21.9374 91.2506 21.997C91.2558 22.0097 91.2625 22.0218 91.2707 22.0328V22.0528C91.2871 22.0796 91.3059 22.1049 91.3269 22.1285L91.367 22.1723L91.4072 22.2122C91.4159 22.2235 91.4268 22.233 91.4393 22.2401L91.5156 22.2958C91.56 22.3189 91.6072 22.3363 91.6561 22.3476C91.7387 22.3797 91.8304 22.3797 91.913 22.3476C91.9717 22.3359 92.0276 22.3129 92.0776 22.2799C92.1299 22.2438 92.1772 22.2009 92.2181 22.1524C92.2421 22.1205 92.2702 22.0926 92.2943 22.0567C92.3272 22.014 92.3542 21.9671 92.3746 21.9173V21.8814C92.3947 21.8489 92.4108 21.8141 92.4228 21.7778C92.4549 21.6822 92.5472 21.6822 92.5874 21.7778C92.5996 21.8133 92.6144 21.848 92.6315 21.8814V21.9173C92.6439 21.9413 92.6587 21.964 92.6757 21.985C92.7339 22.0811 92.8118 22.164 92.9045 22.2281C92.9544 22.2611 93.0103 22.2841 93.0691 22.2958C93.105 22.3015 93.1415 22.3015 93.1774 22.2958H93.2818C93.3491 22.2832 93.4132 22.2575 93.4705 22.2201L93.5427 22.1564C93.5989 22.1121 93.6465 22.0581 93.6832 21.997C93.7273 21.9281 93.7636 21.8546 93.7916 21.7778C93.8277 21.6822 93.9241 21.6822 93.9562 21.7778C93.9681 21.8141 93.9843 21.8489 94.0044 21.8814C94.0533 21.9959 94.131 22.096 94.2301 22.1721C94.3293 22.2481 94.4464 22.2976 94.5704 22.3158C94.6099 22.3318 94.6521 22.3399 94.6948 22.3397C94.7388 22.3398 94.7823 22.3317 94.8233 22.3158C94.882 22.304 94.9379 22.281 94.9878 22.248L95.0641 22.1843C95.0951 22.1592 95.1222 22.1296 95.1444 22.0966C95.1811 22.0542 95.2121 22.0074 95.2367 21.9571C95.2649 21.9045 95.289 21.8499 95.309 21.7937C95.3491 21.6981 95.4414 21.6981 95.4776 21.7937C95.5004 21.8603 95.53 21.9244 95.5659 21.985C95.5691 21.9995 95.5777 22.0123 95.59 22.0209V22.0408C95.6064 22.0677 95.6252 22.093 95.6462 22.1165L95.6863 22.1604L95.7224 22.2002L95.7626 22.2281L95.8348 22.2839C95.8847 22.2987 95.9357 22.3094 95.9874 22.3158C96.0299 22.3311 96.0746 22.3392 96.1198 22.3397C96.1638 22.3398 96.2074 22.3317 96.2483 22.3158C96.3056 22.3033 96.36 22.2803 96.4089 22.248C96.4612 22.2119 96.5085 22.169 96.5493 22.1205C96.5791 22.0922 96.6047 22.0601 96.6256 22.0249V22.0049C96.6414 21.981 96.6548 21.9557 96.6658 21.9292C96.6739 21.9182 96.6807 21.9061 96.6858 21.8934C96.6946 21.8566 96.7096 21.8216 96.73 21.7898C96.7661 21.6941 96.8625 21.6941 96.8946 21.7898C96.9065 21.826 96.9227 21.8608 96.9427 21.8934V21.9372L96.9829 22.0049C97.0433 22.1007 97.1224 22.1833 97.2157 22.248C97.2645 22.2803 97.319 22.3033 97.3763 22.3158C97.4188 22.3311 97.4635 22.3392 97.5087 22.3397H97.593C97.6621 22.3246 97.7285 22.2991 97.7897 22.264L97.866 22.2002C97.9178 22.1527 97.9636 22.0992 98.0025 22.0408V22.0209C98.0478 21.9521 98.0855 21.8786 98.1149 21.8017C98.151 21.7061 98.2433 21.7061 98.2795 21.8017L98.3196 21.9053C98.3732 22.0124 98.4525 22.1047 98.5505 22.1742C98.6485 22.2437 98.7622 22.2882 98.8816 22.3038C98.9197 22.3197 98.9607 22.3278 99.002 22.3277C99.1536 22.3086 99.2958 22.2443 99.4097 22.1433C99.5237 22.0422 99.6041 21.9092 99.6403 21.7619C99.6445 21.7446 99.6529 21.7287 99.6648 21.7155C99.6767 21.7023 99.6917 21.6922 99.7085 21.6861C99.7274 21.6842 99.7464 21.6887 99.7624 21.6988C99.7785 21.7089 99.7906 21.7241 99.7968 21.7419C100.042 21.9126 100.271 22.106 100.479 22.3198C100.861 22.3198 101.158 21.8376 101.158 21.2717H101.314C101.797 22.8734 102.015 24.5421 101.96 26.213" fill="#D40F14"/>
</svg>
