<svg width="166" height="43" viewBox="0 0 166 43" fill="none" xmlns="http://www.w3.org/2000/svg">
<path d="M164.344 15.0506H146.574C146.27 15.0506 146.064 15.071 146.066 15.4768C146.084 16.9921 146.066 18.5103 146.066 20.0256C146.066 20.3409 146.17 20.4664 146.482 20.4489C146.794 20.4314 147.055 20.4489 147.342 20.4489C149.024 20.4489 150.707 20.4489 152.389 20.4489C152.73 20.4489 152.894 20.5628 152.865 20.919C152.865 21.0708 152.865 21.2109 152.865 21.3744C152.865 28.364 152.865 35.3545 152.865 42.346C152.865 42.8015 152.977 42.9504 153.438 42.9299C154.822 42.9007 156.207 42.9299 157.591 42.9299C158.245 42.9299 158.245 42.9299 158.245 42.2555C158.245 35.1725 158.245 28.0905 158.245 21.0095C158.245 20.5745 158.365 20.4402 158.798 20.4431C160.718 20.4664 162.638 20.4431 164.559 20.4431C164.705 20.4431 164.845 20.4694 165 20.484V15.0243C164.791 15.0243 164.584 15.0506 164.375 15.0506" fill="#008E39"/>
<path d="M47.2687 29.3071C47.4894 21.1322 40.8887 14.8842 33.8781 14.6711C25.7011 14.4258 19.387 21.5526 19.622 28.8282C19.3841 36.1273 25.4173 42.9738 33.3794 42.9971C41.1036 43.0175 47.0623 36.574 47.2601 29.3071H47.2687ZM33.4081 37.4499C28.6188 37.4499 24.9387 33.3215 24.9731 28.764C25.0046 24.2737 28.7994 20.1366 33.5457 20.2096C37.9538 20.2767 41.995 24.297 41.7944 28.8808C41.9635 33.2602 38.1745 37.444 33.4081 37.4499Z" fill="#008E39"/>
<path d="M107.657 14.6681C99.7754 14.5863 93.4556 21.5262 93.6992 28.8574C93.4728 36.1184 99.4916 42.9854 107.491 43C115.23 43 121.248 36.4367 121.352 29.0501C121.446 21.2401 114.995 14.744 107.657 14.6681ZM107.468 37.441C105.234 37.4271 103.095 36.5128 101.521 34.8978C99.9461 33.2828 99.063 31.0985 99.0646 28.8223C99.0245 24.2094 102.931 20.1423 107.611 20.2037C112.1 20.2621 116.109 24.3875 115.872 28.8574C116.089 33.2222 112.249 37.4702 107.468 37.441Z" fill="#008E39"/>
<path d="M143.117 14.9484H124.444C123.825 14.9484 123.822 14.9484 123.822 15.5644V28.8515C123.822 33.3273 123.822 37.8031 123.822 42.2817C123.822 42.6963 123.928 42.8394 124.35 42.8306C125.72 42.8073 127.09 42.8306 128.46 42.8306C129.193 42.8306 129.193 42.8306 129.193 42.1036V20.9744C129.193 20.3496 129.193 20.3467 129.818 20.3467H137.634C138.391 20.3467 138.391 20.3467 138.391 21.1233C138.391 28.1596 138.391 35.1978 138.391 42.2379C138.391 42.6963 138.508 42.8394 138.964 42.8219C140.348 42.7927 141.733 42.8219 143.12 42.8219C143.765 42.8219 143.765 42.8219 143.765 42.1854V15.6169C143.765 14.963 143.765 14.963 143.134 14.963" fill="#008E39"/>
<path d="M15.265 27.3684C15.21 27.3326 15.1636 27.2849 15.129 27.2285C15.0945 27.1721 15.0727 27.1086 15.0653 27.0426C15.0579 26.9766 15.065 26.9098 15.0862 26.8469C15.1073 26.7841 15.142 26.7268 15.1876 26.6794C16.4057 24.8663 16.6981 22.843 16.3341 20.7263C15.9714 18.7717 14.8892 17.0323 13.3089 15.8638C11.7287 14.6953 9.7698 14.1861 7.83312 14.4404C5.74658 14.6798 4.09283 15.7571 2.76295 17.3746C2.10453 18.1835 1.62284 19.1261 1.34995 20.1394C1.29836 20.3175 1.19231 20.5336 1.50185 20.6007L6.52617 21.6898L6.69527 21.3014C6.84839 20.9645 7.07817 20.6695 7.36556 20.4411C7.65295 20.2127 7.98966 20.0574 8.34777 19.988C8.70588 19.9186 9.07506 19.9372 9.42469 20.0423C9.77433 20.1473 10.0943 20.3358 10.3582 20.592C11.3011 21.5233 11.3298 23.0182 10.4384 24.1831C9.65025 25.2137 8.54392 25.6429 7.35735 25.9641C7.19398 26.0078 6.97328 26.0721 6.9045 26.1976C6.55196 26.8399 6.23956 27.5056 5.89849 28.1888C6.50324 28.2793 7.04494 28.3377 7.57804 28.4457C9.3751 28.8136 10.8626 29.6778 11.8457 31.3099C12.7256 32.7697 12.7055 34.5214 11.8199 35.7126C10.0716 38.0483 6.35993 37.5199 5.34246 34.9156C5.25074 34.6849 5.14183 34.6236 4.90681 34.6995C4.42243 34.8455 3.92946 34.9565 3.43935 35.0849L0 35.9812C0.0544564 36.1885 0.0888518 36.3316 0.131844 36.4746C1.37288 40.5037 5.43991 43.3211 10.0687 42.7022C12.1083 42.4273 13.9918 41.4422 15.3997 39.9139C17.3401 37.8907 18.0939 35.4469 17.8273 32.6762C17.6361 30.6444 16.718 28.7552 15.2478 27.3684" fill="#008E39"/>
<path d="M76.3447 29.3071C76.5654 21.1322 69.9647 14.8842 62.957 14.6711C54.78 14.4258 48.4659 21.5526 48.698 28.8282C48.463 36.1273 54.4934 42.9738 62.4555 42.9971C70.1797 43.0175 76.1412 36.574 76.3361 29.3071H76.3447ZM62.487 37.4499C57.6977 37.4499 54.0147 33.3215 54.0491 28.764C54.0835 24.2737 57.8783 20.1366 62.6217 20.2096C67.0327 20.2767 71.0739 24.297 70.8704 28.8808C71.0395 33.2602 67.2533 37.444 62.487 37.4499Z" fill="#008E39"/>
<path d="M78.6295 33.3245H91.4296C91.4922 33.3245 91.5523 33.2994 91.5968 33.2545C91.6413 33.2097 91.6667 33.1488 91.6675 33.0851V28.7962C91.6675 28.7319 91.6424 28.6703 91.5978 28.6248C91.5532 28.5794 91.4927 28.5538 91.4296 28.5538H78.6295C78.5664 28.5538 78.5059 28.5794 78.4613 28.6248C78.4167 28.6703 78.3916 28.7319 78.3916 28.7962V33.0851C78.3924 33.1488 78.4178 33.2097 78.4623 33.2545C78.5068 33.2994 78.5669 33.3245 78.6295 33.3245Z" fill="#008E39"/>
<path d="M46.0761 2.68018C45.755 2.68018 45.6605 2.77652 45.5917 3.15607L45.0012 6.54866C45.0012 6.645 44.9697 6.79682 44.9697 6.84062C44.9697 7.04207 45.0643 7.10339 45.3137 7.10339C45.6347 7.10339 45.7292 7.00704 45.7894 6.63625L46.3913 3.25242C46.4118 3.15051 46.4233 3.04694 46.4257 2.94294C46.4257 2.74149 46.3369 2.68018 46.0875 2.68018" fill="#008E39"/>
<path d="M89.0018 2.68018C88.6837 2.68018 88.5863 2.77652 88.5175 3.15607L87.9213 6.60121C87.9068 6.68318 87.8981 6.76613 87.8955 6.84938C87.8955 7.05083 87.9901 7.11214 88.2423 7.11214C88.5605 7.11214 88.6464 7.02455 88.7181 6.64501L89.3143 3.21155C89.3294 3.12377 89.338 3.03495 89.34 2.94586C89.34 2.74441 89.2541 2.6831 89.0018 2.6831" fill="#008E39"/>
<path d="M59.1653 2.75903H58.8271L58.4287 5.11224H58.7669C59.1051 5.11224 59.2255 5.01589 59.2943 4.63634L59.5178 3.36631C59.54 3.25656 59.5544 3.14533 59.5608 3.03348C59.5608 2.81159 59.4491 2.75903 59.1739 2.75903" fill="#008E39"/>
<path d="M76.8462 3.21157L76.7344 3.7955C76.7125 3.92394 76.6981 4.05361 76.6914 4.1838C76.6914 4.40277 76.8032 4.47576 77.0726 4.47576H77.4194L77.7203 2.724H77.3764C77.0382 2.724 76.9178 2.79407 76.8462 3.18238" fill="#008E39"/>
<path d="M72.8171 2.36194L71.9258 5.47424H72.6079L72.8171 2.36194Z" fill="#008E39"/>
<path d="M54.5018 2.68018C54.1808 2.68018 54.0862 2.77652 54.0175 3.15607L53.4213 6.60121C53.4053 6.68296 53.3967 6.76603 53.3955 6.84938C53.3955 7.05083 53.4901 7.11214 53.7394 7.11214C54.0605 7.11214 54.1464 7.02455 54.2152 6.64501L54.8114 3.21155C54.8272 3.1238 54.8368 3.03501 54.84 2.94586C54.84 2.74441 54.7512 2.6831 54.5018 2.6831" fill="#008E39"/>
<path d="M6.39155 4.8378C6.19379 5.9852 6.03615 6.37351 5.64062 7.03334H6.64377L7.3861 2.75903H6.75555L6.39155 4.8378Z" fill="#008E39"/>
<path d="M24.9844 2.75903H24.6462L24.2393 5.11224H24.5775C24.9157 5.11224 25.036 5.01589 25.1048 4.63634L25.3313 3.36631C25.3519 3.25632 25.3663 3.14518 25.3742 3.03348C25.3742 2.81159 25.2596 2.75903 24.9844 2.75903Z" fill="#008E39"/>
<path d="M34.431 6.56627L34.5514 5.8714C34.5715 5.77535 34.5831 5.67762 34.5858 5.57944C34.5858 5.36047 34.474 5.28748 34.2074 5.28748H33.8692L33.5654 7.01588H33.9036C34.2418 7.01588 34.3622 6.92829 34.431 6.54874" fill="#008E39"/>
<path d="M38.8793 5.30499H38.5411L38.2373 7.0334H38.5755C38.9137 7.0334 39.0427 6.93706 39.1029 6.56627L39.2233 5.8714C39.2424 5.77518 39.2539 5.67754 39.2576 5.57944C39.2576 5.35755 39.1459 5.28748 38.8793 5.28748" fill="#008E39"/>
<path d="M163.381 5.16187H124.72L125.622 0H1.8775L0.00878906 10.3237H164.969L163.381 5.16187ZM8.14859 9.50917H6.78145L7.00787 8.19826H5.0933L4.86974 9.50917H3.5026L3.92678 7.03334H4.25925C4.68057 6.30927 4.83248 5.91513 5.06177 4.6451L5.58914 1.59703H9.103L8.16005 7.03334H8.57564L8.14859 9.50917ZM11.7656 8.19826L12.6255 3.9298L10.7482 8.19826H8.94824L10.0947 1.59703H11.4704L10.6106 5.97644L12.5395 1.59703H14.2907L13.1442 8.19826H11.7656ZM18.4437 3.81885H17.068C17.1302 3.53017 17.1733 3.23755 17.1969 2.94297C17.1969 2.75027 17.111 2.69772 16.8759 2.69772C16.575 2.69772 16.4976 2.79406 16.4374 3.1561L15.8298 6.64503C15.8141 6.72092 15.8055 6.79814 15.804 6.87568C15.804 7.05962 15.89 7.10341 16.1164 7.10341C16.403 7.10341 16.5148 7.01582 16.575 6.64503L16.7298 5.73703H18.1055L17.9851 6.42606C17.7329 7.91506 17.3718 8.27709 15.9416 8.27709C14.6891 8.27709 14.2219 8.07272 14.2219 7.20267C14.2266 6.94207 14.2525 6.68231 14.2993 6.42606L14.8353 3.36631C15.0961 1.86855 15.5031 1.51528 17.111 1.51528C18.2373 1.51528 18.5985 1.78096 18.5985 2.54006C18.58 2.97222 18.5253 3.40199 18.4351 3.82469L18.4437 3.81885ZM20.5962 8.2041H19.0829L20.0229 2.75903H19.0026L19.2004 1.59119H22.7572L22.5595 2.75903H21.5391L20.5962 8.2041ZM24.2562 6.283H24.0355L23.7059 8.2041H22.1926L23.3391 1.60287H24.8552C26.2654 1.60287 26.9131 1.7868 26.9131 2.74735C26.9102 2.93045 26.893 3.11302 26.8615 3.29332L26.6265 4.63342C26.3943 5.97352 25.7667 6.283 24.2734 6.283H24.2562ZM29.5327 8.2041L30.3926 3.93563L28.5153 8.2041H26.7154L27.8618 1.60287H29.2375L28.3777 5.98228L30.3066 1.60287H32.0721L30.9257 8.2041H29.5327ZM36.2395 2.76487H34.3192L34.0756 4.14877H34.3278C35.5889 4.14877 36.1363 4.40277 36.1363 5.28449C36.1345 5.46586 36.1163 5.64667 36.0818 5.82462L35.9615 6.50197C35.7035 7.93842 35.0185 8.2041 33.382 8.2041H31.8658L33.0122 1.60287H36.4516L36.2395 2.76487ZM40.7565 5.82462L40.6333 6.50197C40.3753 7.93842 39.6903 8.2041 38.0537 8.2041H36.5376L37.684 1.60287H39.1973L38.7559 4.14877H39.0082C40.2693 4.14877 40.8167 4.40277 40.8167 5.28449C40.8131 5.46562 40.7959 5.64619 40.7651 5.82462H40.7565ZM47.9304 3.37215L47.383 6.42314C47.0964 8.00849 46.7238 8.27417 45.1073 8.27417C43.8347 8.27417 43.3876 8.0698 43.3876 7.20559C43.3927 6.91946 43.4214 6.63427 43.4736 6.35307L43.6656 5.30201H43.058L42.5564 8.19534H41.0431L42.1896 1.59411H43.7057L43.2644 4.14H43.8691L44.0067 3.36339C44.2761 1.86563 44.6831 1.51236 46.2996 1.51236C47.5635 1.51236 48.0193 1.743 48.0193 2.59845C48.0164 2.8553 47.9905 3.11134 47.9419 3.36339L47.9304 3.37215ZM50.1115 8.19534H48.5982L49.5412 2.75611H48.5208L48.7186 1.58827H52.2755L52.0777 2.75611H51.0545L50.1115 8.19534ZM55.8438 6.42314C55.5572 7.99097 55.1846 8.27417 53.5681 8.27417C52.2955 8.27417 51.8484 8.0698 51.8484 7.20559C51.8523 6.94301 51.8782 6.68125 51.9258 6.42314L52.4618 3.36339C52.7226 1.86563 53.1382 1.51236 54.7547 1.51236C56.0186 1.51236 56.4743 1.743 56.4743 2.59845C56.4699 2.85521 56.444 3.11111 56.3969 3.36339L55.8438 6.42314ZM58.4806 6.27424H58.2485L57.9189 8.19534H56.4055L57.552 1.59411H59.0653C60.4754 1.59411 61.1261 1.77804 61.1261 2.73859C61.1232 2.92169 61.1059 3.10426 61.0745 3.28456L60.8394 4.62466C60.6073 5.96476 59.9796 6.27424 58.4864 6.27424H58.4806ZM63.7113 2.6948C63.4104 2.6948 63.3301 2.79115 63.2699 3.15318L62.6652 6.64211C62.6495 6.718 62.6409 6.79522 62.6394 6.87276C62.6394 7.05669 62.7254 7.10049 62.9518 7.10049C63.2527 7.10049 63.3473 7.0129 63.4104 6.64211L63.5651 5.73411H64.9409L64.8205 6.42314C64.5683 7.91214 64.2043 8.27417 62.7769 8.27417C61.5244 8.27417 61.0573 8.0698 61.0573 7.19976C61.062 6.93915 61.0879 6.67939 61.1347 6.42314L61.6706 3.36339C61.9286 1.86563 62.3356 1.51236 63.9463 1.51236C65.0698 1.51236 65.4338 1.77804 65.4338 2.53714C65.4153 2.9693 65.3607 3.39906 65.2705 3.82177H63.8747C63.9369 3.53309 63.98 3.24047 64.0036 2.94588C64.0036 2.75319 63.9177 2.70064 63.6826 2.70064L63.7113 2.6948ZM67.9302 8.20118L67.2997 5.19398L66.7809 8.20118H65.2676L66.4141 1.59994H67.9274L67.4344 4.44656L68.9047 1.59994H70.4467L68.6726 4.70057L69.5037 8.2041L67.9302 8.20118ZM74.0035 8.20118H72.4558L72.559 6.58664H71.5989L71.1489 8.20118H69.6356L71.745 1.59994H74.1526L74.0035 8.20118ZM78.3027 8.20118H76.7722L77.2136 5.66112H76.9901L75.8436 8.20118H74.3303L75.6716 5.47718C75.4926 5.40167 75.3425 5.26877 75.2443 5.0986C75.146 4.92843 75.1049 4.73028 75.1271 4.53415C75.1527 4.11566 75.2102 3.69983 75.299 3.2904C75.5513 1.85395 76.242 1.59994 77.9044 1.59994H79.4177L78.3027 8.20118ZM84.141 8.20118L83.5105 5.19398L82.9917 8.20118H81.4755L82.622 1.59994H84.1353L83.6423 4.44656L85.1127 1.59994H86.6518L84.8805 4.70057L85.7088 8.2041L84.141 8.20118ZM90.3089 6.42314C90.0223 7.99097 89.6526 8.27417 88.0332 8.27417C86.7607 8.27417 86.3136 8.0698 86.3136 7.20559C86.3172 6.94285 86.3441 6.68098 86.3938 6.42314L86.9298 3.36339C87.1877 1.86563 87.6033 1.51236 89.2227 1.51236C90.4866 1.51236 90.9424 1.743 90.9424 2.59845C90.9368 2.85528 90.9099 3.11117 90.8621 3.36339L90.3089 6.42314ZM95.6313 8.19534L96.6861 2.60721L94.7113 8.19534H93.0346V2.61013L92.1748 8.19826H90.8764L92.0229 1.59703H94.1925V6.79685L95.9753 1.59703H98.1306L96.9841 8.19826L95.6313 8.19534ZM100.231 8.19534L101.174 2.75611H100.398L99.4548 8.19534H97.9386L99.085 1.59411H102.891L101.745 8.19534H100.231ZM106.729 8.19534H105.181L105.284 6.5808H104.324L103.874 8.19534H102.361L104.47 1.59411H106.867L106.729 8.19534ZM109.635 8.19534L110.137 5.30201H109.36L108.873 8.19826H107.357L108.503 1.59703H110.016L109.575 4.14293H110.355L110.796 1.59703H112.309L111.163 8.19826L109.635 8.19534ZM114.92 8.19534L115.78 3.92687L113.903 8.19534H112.103L113.249 1.59411H114.625L113.765 5.97352L115.694 1.59411H117.46L116.313 8.19534H114.92ZM120.939 8.19534H119.42L119.862 5.65528H119.635L118.503 8.19534H116.99L118.331 5.47135C118.152 5.39593 118.001 5.26314 117.903 5.09303C117.804 4.92292 117.762 4.72472 117.784 4.52831C117.809 4.10966 117.868 3.69377 117.958 3.28456C118.211 1.84811 118.901 1.59411 120.564 1.59411H122.077L120.939 8.19534Z" fill="#008E39"/>
<path d="M105.553 2.36194L104.662 5.47424H105.344L105.553 2.36194Z" fill="#008E39"/>
<path d="M119.477 3.21157L119.365 3.7955C119.343 3.92394 119.329 4.05361 119.322 4.1838C119.322 4.40277 119.434 4.47576 119.703 4.47576H120.05L120.354 2.724H120.01C119.672 2.724 119.549 2.79407 119.48 3.18238" fill="#008E39"/>
</svg>
