<!-- <svg width="217" height="74" viewBox="0 0 217 74" fill="none" xmlns="http://www.w3.org/2000/svg">-->
<svg width="218" height="52" viewBox="0 0 218 52" fill="none" xmlns="http://www.w3.org/2000/svg">
<path fill-rule="evenodd" clip-rule="evenodd" d="M44.4609 0H172.524L172.443 11.2588H44.4609V0Z" fill="#009846"/>
<path fill-rule="evenodd" clip-rule="evenodd" d="M67.3998 3.6303H68.4606C69.1285 3.62046 69.7806 3.83335 70.3141 4.23536C70.5874 4.45034 70.8089 4.7241 70.962 5.03634C71.1152 5.34858 71.1961 5.69129 71.1987 6.03906C71.1966 6.05943 71.1966 6.07996 71.1987 6.10033C71.2007 6.1207 71.2007 6.14123 71.1987 6.1616V6.34925C71.2166 6.69479 71.1491 7.03942 71.0021 7.35267C70.8552 7.66592 70.6333 7.93815 70.3562 8.14529C69.8119 8.56027 69.145 8.78254 68.4606 8.77716H67.8785V11.3621H66.8981V8.77716H66.3046C65.6133 8.78862 64.9385 8.56593 64.3898 8.14529C64.119 7.93633 63.903 7.66478 63.7603 7.35395C63.6175 7.04312 63.5523 6.7023 63.5703 6.36074V6.28032C63.5669 6.25105 63.5669 6.2215 63.5703 6.19224V6.03906C63.5658 5.68561 63.6446 5.33608 63.8003 5.01874C63.956 4.70139 64.1841 4.42516 64.4664 4.21238C65.0073 3.82085 65.6599 3.61404 66.3275 3.62264L67.3998 3.6303ZM64.5813 6.03906V6.12714C64.5774 6.1435 64.5774 6.16055 64.5813 6.17692V6.2267C64.5633 6.47155 64.6035 6.71719 64.6987 6.9435C64.7939 7.16981 64.9413 7.37036 65.1289 7.52874C65.4675 7.81398 65.8963 7.97001 66.339 7.96913H66.9096V4.45364H66.3275C65.8816 4.43267 65.4441 4.58032 65.1021 4.86723C64.9376 5.01645 64.8045 5.19691 64.7105 5.3981C64.6165 5.59928 64.5635 5.81717 64.5545 6.03906H64.5813ZM68.4338 4.45364H67.8747V7.96913H68.4338C68.8763 7.96949 69.3052 7.81658 69.6477 7.5364C69.8354 7.3741 69.9824 7.17 70.0769 6.94053C70.1713 6.71106 70.2106 6.46263 70.1915 6.21521V6.03906C70.1857 5.81696 70.1344 5.59841 70.0409 5.39688C69.9474 5.19534 69.8136 5.01509 69.6477 4.86723C69.3074 4.5853 68.8754 4.43813 68.4338 4.45364ZM77.0617 5.98544H72.6156V6.06203C72.6131 6.07468 72.6131 6.08768 72.6156 6.10033V6.14245C72.6187 6.62079 72.7972 7.08136 73.1173 7.43683C73.2801 7.63022 73.4828 7.78613 73.7115 7.89387C73.9402 8.00161 74.1895 8.05863 74.4423 8.06104C74.7955 8.06787 75.1462 8.00137 75.4724 7.86573C75.7572 7.73327 76.0164 7.5518 76.2383 7.3296C76.2747 7.28224 76.3144 7.23745 76.357 7.19557L76.4872 7.05005L77.1957 7.70489C76.8665 8.10035 76.4477 8.4115 75.9741 8.61249C75.5163 8.79525 75.0271 8.88633 74.5342 8.88055H74.4231C74.0216 8.89309 73.622 8.82001 73.251 8.66616C72.8799 8.51232 72.5458 8.28123 72.2709 7.98828C71.7976 7.46285 71.5357 6.78072 71.5357 6.07352C71.5391 5.40486 71.7996 4.76314 72.2633 4.28131C72.5449 4.00091 72.8835 3.78432 73.2562 3.64622C73.6288 3.50813 74.0268 3.45177 74.4231 3.48095C74.5175 3.47543 74.6121 3.47543 74.7065 3.48095C74.8069 3.4919 74.9067 3.50852 75.0052 3.53073C75.5471 3.64386 76.0454 3.90961 76.4413 4.29663C76.6624 4.5139 76.8355 4.77505 76.9496 5.06327C77.0637 5.35148 77.1162 5.66039 77.1038 5.97013L77.0617 5.98544ZM72.8339 5.15061H75.9281C75.8093 4.95131 75.642 4.78531 75.4418 4.66809C75.2402 4.52621 75.0144 4.42238 74.7754 4.36173L74.6108 4.3311H74.4461H74.4231C74.3269 4.33143 74.2309 4.33911 74.1359 4.35407C74.0348 4.36696 73.9357 4.3927 73.841 4.43066C73.6299 4.49115 73.4305 4.58697 73.2513 4.71405C73.0693 4.83881 72.9186 5.00395 72.8109 5.19657L72.8339 5.15061ZM79.0913 4.45364H78.4288V3.6303H82.3349V7.96913C82.4129 7.96396 82.4911 7.97604 82.5639 8.0045C82.6367 8.03296 82.7023 8.07711 82.7561 8.1338C82.8589 8.25393 82.9123 8.40858 82.9055 8.56653C82.9087 8.61116 82.9087 8.65595 82.9055 8.70057C82.8977 8.75238 82.8861 8.80357 82.871 8.85375L82.4038 10.3856L81.4426 10.2975L81.9251 8.76567H78.2143L78.693 10.2975L77.7242 10.3856L77.257 8.85375V8.80779C77.2614 8.79674 77.2614 8.78438 77.257 8.77333C77.2589 8.74272 77.2589 8.71203 77.257 8.68142C77.2553 8.65336 77.2553 8.62523 77.257 8.59717C77.2527 8.51253 77.2662 8.42794 77.2965 8.34881C77.3269 8.26968 77.3734 8.19775 77.4331 8.13763C77.5549 8.02111 77.7165 7.95538 77.885 7.95381L79.0913 4.45364ZM81.3622 7.98062V4.44215H80.3665C80.267 4.43839 80.1685 4.46367 80.0831 4.51491C80.0125 4.55404 79.9592 4.61829 79.9338 4.6949L78.8271 7.96913L81.3622 7.98062ZM88.6383 6.01608H84.1654V6.09267C84.1629 6.10532 84.1629 6.11832 84.1654 6.13097V6.17309C84.1685 6.65142 84.347 7.112 84.6671 7.46746C84.8299 7.66086 85.0326 7.81676 85.2613 7.9245C85.49 8.03224 85.7393 8.08927 85.9921 8.09167C86.3453 8.09851 86.696 8.03201 87.0222 7.89637C87.307 7.7639 87.5662 7.58243 87.7881 7.36024C87.8264 7.31428 87.8647 7.26833 87.9068 7.22621L88.037 7.08068L88.7455 7.73553C88.4172 8.13186 87.9981 8.44318 87.5239 8.64312C87.0661 8.82589 86.5769 8.91697 86.084 8.91119H85.9729C85.5714 8.92373 85.1718 8.85064 84.8008 8.6968C84.4297 8.54295 84.0956 8.31187 83.8207 8.01891C83.3474 7.49349 83.0855 6.81135 83.0855 6.10416C83.0889 5.4355 83.3494 4.79378 83.8131 4.31195C84.0947 4.03154 84.4333 3.81495 84.806 3.67686C85.1786 3.53877 85.5766 3.4824 85.9729 3.51158C86.0673 3.50606 86.1619 3.50606 86.2563 3.51158C86.3567 3.52253 86.4565 3.53916 86.555 3.56136C87.0969 3.6745 87.5952 3.94025 87.9911 4.32727C88.2122 4.54454 88.3853 4.80568 88.4994 5.0939C88.6135 5.38212 88.666 5.69103 88.6536 6.00076L88.6383 6.01608ZM84.3837 5.18125H87.4779C87.3702 4.97212 87.2107 4.79411 87.0146 4.66426C86.813 4.52238 86.5872 4.41855 86.3482 4.3579L86.1836 4.32727H86.0189H85.9959C85.8997 4.3276 85.8037 4.33528 85.7087 4.35024C85.6074 4.36257 85.5083 4.38833 85.4138 4.42683C85.2027 4.48732 85.0033 4.58314 84.8241 4.71022C84.643 4.836 84.4925 5.00091 84.3837 5.19274V5.18125ZM90.262 8.71971V11.3238H89.228V3.6303H90.2199V3.87538C90.6689 3.65818 91.1609 3.54433 91.6598 3.54222C92.3409 3.53893 93.0014 3.77627 93.5247 4.21238C93.8011 4.44562 94.0191 4.74022 94.1613 5.07266C94.3036 5.4051 94.3663 5.7662 94.3442 6.12714C94.3717 6.50726 94.3121 6.88864 94.1701 7.24232C94.0281 7.59599 93.8074 7.91266 93.5247 8.16826C92.9487 8.63708 92.222 8.88068 91.4798 8.85375C91.2883 8.85375 91.0968 8.85375 90.8824 8.82311C90.6647 8.79819 90.4487 8.76111 90.2352 8.71206L90.262 8.71971ZM90.2352 4.78681V7.72404C90.3863 7.80043 90.5456 7.85952 90.71 7.9002C90.8806 7.94596 91.0549 7.97671 91.2308 7.99211H91.4338C91.8833 7.97565 92.3168 7.82048 92.6746 7.54788C92.8707 7.38403 93.0244 7.17518 93.1224 6.93914C93.2204 6.70309 93.2599 6.44684 93.2375 6.19224C93.2576 5.94261 93.2196 5.69173 93.1266 5.45922C93.0336 5.2267 92.8881 5.01885 92.7014 4.85191C92.3569 4.57005 91.9249 4.41704 91.4798 4.41918H91.3189H91.1619C90.9994 4.44146 90.8401 4.48259 90.6871 4.54172C90.5289 4.5994 90.3774 4.67386 90.2352 4.76383V4.78681ZM95.5659 3.75284C95.6819 3.70779 95.8009 3.67069 95.922 3.64178C96.0407 3.61115 96.1633 3.58817 96.3049 3.56519C96.4466 3.54222 96.6381 3.51158 96.8066 3.49626C96.9751 3.48095 97.136 3.49626 97.2968 3.49626C97.5391 3.49421 97.7812 3.51214 98.0206 3.54988C98.2275 3.5795 98.4296 3.63615 98.6218 3.71837C98.9132 3.83854 99.1559 4.05293 99.3111 4.32727C99.4745 4.6262 99.5551 4.9633 99.5447 5.30379V8.77333H98.6103V8.52824C98.3907 8.64555 98.1543 8.72822 97.9095 8.77333C97.5961 8.84021 97.2764 8.87358 96.956 8.87289H96.7492C96.2549 8.84649 95.7736 8.70486 95.3437 8.45931C95.1302 8.32732 94.9576 8.13847 94.8453 7.91391C94.733 7.68935 94.6855 7.43796 94.708 7.18791C94.6863 6.91036 94.7475 6.63262 94.8839 6.3899C95.0202 6.14719 95.2256 5.95044 95.4739 5.8246C96.0049 5.55391 96.5936 5.41594 97.1896 5.42251H97.3772H97.5687C97.7334 5.42251 97.9019 5.4608 98.0704 5.49144C98.2388 5.52207 98.392 5.55271 98.5376 5.59101C98.5614 5.29082 98.5101 4.98941 98.3882 4.71405C98.2859 4.54992 98.1284 4.4277 97.944 4.36939L97.7602 4.32727C97.7009 4.3121 97.6408 4.30059 97.5802 4.2928H97.3964H97.2125C96.9542 4.29598 96.6972 4.32939 96.4466 4.39237C96.1467 4.46904 95.8524 4.56628 95.5659 4.68341V3.75284ZM95.7382 7.16876C95.734 7.3092 95.7734 7.4475 95.8508 7.56472C95.9283 7.68194 96.0401 7.77236 96.1709 7.82361C96.4831 7.96152 96.8216 8.02949 97.1628 8.02274H97.27H97.3772C97.5906 8.01009 97.8022 7.97674 98.0091 7.92318C98.1886 7.87848 98.3631 7.81561 98.5299 7.73553V6.43733L98.4342 6.41052L98.3001 6.37222C98.1447 6.33689 97.9874 6.31005 97.8291 6.29181C97.6332 6.27155 97.4363 6.26132 97.2393 6.26117H97.113C96.7869 6.27196 96.4659 6.34474 96.1671 6.47562C96.0297 6.53516 95.9144 6.63627 95.8375 6.76473C95.7606 6.89318 95.7258 7.04252 95.7382 7.19174V7.16876ZM100.885 8.8346L99.8587 8.77716L101.391 4.44215H100.774V3.6303H104.699V8.77716H103.707V4.44215H102.631C102.553 4.43514 102.475 4.45398 102.409 4.49577C102.365 4.53419 102.328 4.57945 102.298 4.6298C102.297 4.63742 102.297 4.64516 102.298 4.65277C102.296 4.66033 102.296 4.6682 102.298 4.67575L100.885 8.8346ZM106.461 5.18508H108.23C108.518 5.16541 108.807 5.20488 109.079 5.30103C109.351 5.39718 109.6 5.548 109.812 5.74419C110.147 6.06277 110.343 6.5 110.359 6.96197V7.0309C110.341 7.48788 110.144 7.9195 109.812 8.23337C109.597 8.42716 109.346 8.57558 109.073 8.66969C108.8 8.76381 108.511 8.80166 108.222 8.78099H105.45V3.6303H106.461V5.18508ZM108.23 6.00459H106.461V7.96913H108.23C108.381 7.98034 108.533 7.95878 108.675 7.9059C108.817 7.85303 108.946 7.77009 109.053 7.66277C109.225 7.48177 109.323 7.24233 109.325 6.99261V6.95814C109.314 6.71267 109.213 6.47988 109.042 6.30329C108.936 6.19845 108.808 6.11755 108.668 6.06603C108.528 6.01451 108.379 5.99356 108.23 6.00459ZM111.175 5.18508V3.6303H112.167V5.18508H115.008V3.6303H116.004V8.77716H115.008V6.00459H112.167V8.77716H111.175V6.00459H110.482V5.18508H111.175ZM117.566 3.77582C117.681 3.73132 117.799 3.69422 117.919 3.66476C118.041 3.63413 118.164 3.61115 118.302 3.58817C118.44 3.56519 118.635 3.53456 118.803 3.51924C118.972 3.50392 119.133 3.51924 119.293 3.51924C119.536 3.51718 119.778 3.53512 120.017 3.57285C120.224 3.60248 120.426 3.65913 120.618 3.74135C120.91 3.86152 121.153 4.0759 121.308 4.35024C121.471 4.64918 121.552 4.98628 121.541 5.32677V8.7963H120.607V8.55122C120.387 8.66852 120.151 8.7512 119.906 8.7963C119.593 8.86318 119.273 8.89656 118.953 8.89587H118.746C118.252 8.86947 117.77 8.72783 117.34 8.48228C117.127 8.3503 116.954 8.16145 116.842 7.93689C116.73 7.71233 116.682 7.46094 116.705 7.21089C116.683 6.93334 116.744 6.6556 116.881 6.41288C117.017 6.17017 117.222 5.97342 117.471 5.84758C118.002 5.57688 118.59 5.43891 119.186 5.44548H119.374H119.565C119.73 5.44548 119.899 5.48378 120.067 5.51441C120.236 5.54505 120.389 5.57569 120.534 5.61398C120.558 5.31379 120.507 5.01238 120.385 4.73702C120.283 4.5729 120.125 4.45068 119.941 4.39237L119.757 4.35024C119.698 4.33507 119.638 4.32356 119.577 4.31578H119.393H119.209C118.951 4.31895 118.694 4.35237 118.443 4.41535C118.143 4.49202 117.849 4.58926 117.563 4.70639L117.566 3.77582ZM117.739 7.19174C117.735 7.33218 117.774 7.47048 117.851 7.5877C117.929 7.70492 118.041 7.79534 118.171 7.84659C118.483 7.98485 118.822 8.05284 119.163 8.04572H119.274H119.382C119.595 8.03276 119.806 7.99942 120.013 7.94615C120.193 7.90146 120.367 7.83859 120.534 7.75851V6.43733L120.439 6.41052L120.304 6.37222C120.149 6.33689 119.992 6.31005 119.833 6.29181C119.638 6.27155 119.441 6.26132 119.244 6.26117H119.117C118.791 6.27159 118.47 6.34438 118.171 6.47562C118.033 6.53455 117.917 6.6354 117.84 6.76391C117.762 6.89241 117.727 7.04208 117.739 7.19174ZM123.694 5.93949C123.393 5.86519 123.119 5.70718 122.905 5.48378C122.74 5.31377 122.646 5.08822 122.64 4.85191V4.78681C122.66 4.62833 122.712 4.47564 122.794 4.3385C122.876 4.20135 122.985 4.08275 123.115 3.99027C123.452 3.73686 123.866 3.60947 124.287 3.6303H126.807V8.77716H125.815V6.00459H125.049C124.894 6.00737 124.744 6.06579 124.628 6.16926C124.482 6.30187 124.361 6.46023 124.272 6.63646L122.974 8.8346L121.867 8.72354L123.311 6.31478C123.368 6.22897 123.43 6.14709 123.498 6.06969C123.542 6.02304 123.596 5.98646 123.655 5.96247L123.678 5.94332H123.694V5.93949ZM124.272 4.44598C124.116 4.43823 123.961 4.47403 123.824 4.54938C123.778 4.57455 123.737 4.60897 123.705 4.65048C123.673 4.69198 123.649 4.7397 123.636 4.79064C123.634 4.79481 123.633 4.7994 123.633 4.80404C123.633 4.80868 123.634 4.81327 123.636 4.81744V4.84425C123.638 4.89247 123.652 4.93942 123.677 4.98087C123.702 5.02231 123.736 5.05696 123.778 5.08168C123.898 5.16101 124.04 5.19869 124.184 5.18891H125.827V4.44215L124.272 4.44598ZM136.714 7.54788L137.147 8.31379C136.883 8.48176 136.597 8.61075 136.297 8.69674C135.998 8.78483 135.689 8.83501 135.377 8.84609H135.174C134.42 8.85414 133.685 8.61468 133.08 8.16444C132.761 7.93292 132.506 7.62491 132.338 7.26884C132.17 6.91278 132.095 6.52012 132.119 6.12714C132.094 5.73833 132.167 5.34957 132.329 4.99546C132.491 4.64135 132.739 4.33288 133.049 4.0975C133.653 3.64452 134.389 3.40234 135.144 3.40818H135.347C135.658 3.43063 135.966 3.48452 136.266 3.56902C136.565 3.65836 136.851 3.78714 137.116 3.95197L136.714 4.74085C136.646 4.7035 136.576 4.67149 136.503 4.64512L136.293 4.57618C136.118 4.5167 135.939 4.47187 135.757 4.44215C135.59 4.41235 135.421 4.39698 135.251 4.3962C134.743 4.38121 134.246 4.54372 133.846 4.85574C133.655 5.00665 133.504 5.20064 133.403 5.42169C133.303 5.64275 133.256 5.88455 133.267 6.12714C133.256 6.37197 133.302 6.61609 133.403 6.83966C133.503 7.06323 133.655 7.25995 133.846 7.41385C134.245 7.72869 134.743 7.89275 135.251 7.87722C135.42 7.8778 135.59 7.86371 135.757 7.8351C135.938 7.80355 136.117 7.75875 136.293 7.70107C136.362 7.67809 136.431 7.65511 136.503 7.62447L136.714 7.5364V7.54788ZM143.025 6.00459H138.548V6.08118C138.546 6.09383 138.546 6.10683 138.548 6.11948V6.1616C138.551 6.63994 138.73 7.10051 139.05 7.45598C139.213 7.64937 139.415 7.80527 139.644 7.91301C139.873 8.02075 140.122 8.07778 140.375 8.08019C140.728 8.08702 141.079 8.02052 141.405 7.88488C141.69 7.75241 141.949 7.57094 142.171 7.34875C142.209 7.3028 142.248 7.25684 142.29 7.21472L142.42 7.0692L143.128 7.72404C142.8 8.12037 142.381 8.43169 141.907 8.63164C141.45 8.814 140.962 8.90508 140.471 8.8997H140.356C139.954 8.91224 139.555 8.83916 139.184 8.68531C138.813 8.53146 138.478 8.30038 138.204 8.00743C137.73 7.482 137.468 6.79987 137.468 6.09267C137.472 5.42401 137.732 4.78229 138.196 4.30046C138.478 4.02005 138.816 3.80346 139.189 3.66537C139.561 3.52728 139.959 3.47091 140.356 3.50009C140.45 3.49458 140.545 3.49458 140.639 3.50009C140.74 3.51105 140.839 3.52767 140.938 3.54988C141.48 3.66301 141.978 3.92876 142.374 4.31578C142.596 4.53247 142.769 4.79352 142.884 5.08188C142.998 5.37024 143.05 5.67943 143.036 5.98927L143.025 6.00459ZM138.744 5.18508H141.834C141.726 4.97595 141.567 4.79794 141.371 4.66809C141.169 4.52621 140.943 4.42238 140.704 4.36173L140.54 4.3311H140.375H140.352C140.256 4.33143 140.16 4.33911 140.065 4.35407C139.964 4.36696 139.865 4.3927 139.77 4.43066C139.559 4.49115 139.359 4.58697 139.18 4.71405C138.999 4.83895 138.85 5.00412 138.744 5.19657V5.18508ZM148.111 3.64178V4.44215H146.196V8.77716H145.2V4.44215H143.285V3.6303L148.111 3.64178ZM149.516 5.19657H151.285C151.573 5.17392 151.862 5.21087 152.135 5.30509C152.408 5.39932 152.658 5.54879 152.871 5.74419C153.206 6.06277 153.402 6.5 153.418 6.96197V7.0309C153.4 7.48788 153.203 7.9195 152.871 8.23337C152.657 8.42742 152.407 8.57605 152.134 8.67019C151.862 8.76433 151.573 8.80203 151.285 8.78099H148.513V3.6303H149.516V5.19657ZM151.285 6.01608H149.516V7.98062H151.285C151.436 7.99204 151.587 7.97055 151.729 7.91765C151.87 7.86475 151.999 7.7817 152.105 7.67426C152.279 7.4945 152.378 7.25458 152.38 7.00409V6.96963C152.369 6.72331 152.267 6.48997 152.093 6.31478C151.988 6.21004 151.861 6.12916 151.722 6.07763C151.582 6.0261 151.433 6.00511 151.285 6.01608Z" fill="white"/>
<path fill-rule="evenodd" clip-rule="evenodd" d="M48.0907 46.3868V47.1795H46.2104V51.4302H45.2377V47.1795H43.3574V46.3868H48.0907ZM52.5597 51.5719C51.83 51.5785 51.1236 51.3153 50.576 50.8328C50.2992 50.5875 50.0806 50.2835 49.9361 49.943C49.7917 49.6025 49.7251 49.234 49.7412 48.8645C49.7227 48.5013 49.7896 48.139 49.9366 47.8064C50.0836 47.4739 50.3066 47.1804 50.5875 46.9497C51.125 46.5025 51.8032 46.2597 52.5023 46.2642H52.5482C53.2551 46.2658 53.9402 46.509 54.4898 46.9535C54.7738 47.1827 55.0001 47.4754 55.1504 47.8079C55.3007 48.1405 55.3709 48.5037 55.3553 48.8683C55.3691 49.2335 55.3022 49.5972 55.1592 49.9335C55.0162 50.2698 54.8007 50.5703 54.5281 50.8137C53.9904 51.3023 53.2862 51.5668 52.5597 51.5528V51.5719ZM52.5597 50.7562C52.7869 50.7585 53.0122 50.7149 53.2221 50.628C53.432 50.5411 53.6222 50.4128 53.7813 50.2507C53.9523 50.0794 54.086 49.8747 54.1743 49.6493C54.2626 49.424 54.3035 49.1829 54.2945 48.9411C54.3126 48.4527 54.138 47.9767 53.8082 47.616C53.6496 47.4448 53.456 47.3097 53.2406 47.2198C53.0252 47.1299 52.793 47.0874 52.5597 47.0952C52.3291 47.0901 52.1 47.1339 51.8874 47.2237C51.6749 47.3134 51.4838 47.4472 51.3266 47.616C51.001 47.9785 50.8305 48.4542 50.8518 48.9411C50.8424 49.1823 50.8825 49.4229 50.9694 49.6481C51.0563 49.8733 51.1883 50.0783 51.3573 50.2507C51.5149 50.4128 51.7037 50.5411 51.9124 50.628C52.1211 50.7149 52.3452 50.7585 52.5712 50.7562H52.5597ZM60.3183 51.4302H57.4347V46.3868H59.8894C60.321 46.3539 60.7505 46.4731 61.1034 46.7238C61.221 46.8141 61.3166 46.93 61.3829 47.0627C61.4492 47.1954 61.4846 47.3414 61.4863 47.4897C61.4884 47.5164 61.4884 47.5433 61.4863 47.5701C61.4846 47.5943 61.4846 47.6186 61.4863 47.6428C61.4618 47.7653 61.4122 47.8813 61.3408 47.9837C61.2628 48.1002 61.1642 48.2014 61.0498 48.2824C61.2217 48.3066 61.3871 48.3648 61.5363 48.4536C61.6856 48.5423 61.8157 48.6599 61.9191 48.7994C62.1153 49.0588 62.23 49.3707 62.2484 49.6955V49.8372C62.224 50.2536 62.0467 50.6463 61.7506 50.9401C61.5589 51.1199 61.3319 51.2577 61.084 51.3448C60.836 51.4318 60.5726 51.4661 60.3107 51.4455L60.3183 51.4302ZM58.3959 48.7304V50.6452H60.1728C60.3133 50.6555 60.4544 50.6356 60.5865 50.5867C60.7187 50.5378 60.8388 50.4611 60.9387 50.3618C61.1031 50.1925 61.1951 49.9659 61.1953 49.7299V49.6457C61.1661 49.4001 61.0475 49.1738 60.8621 49.01C60.6117 48.8021 60.2906 48.6992 59.966 48.7228L58.3959 48.7304ZM60.0081 47.9262C60.1545 47.9363 60.3001 47.8972 60.4217 47.8152C60.4605 47.7882 60.4926 47.7529 60.5158 47.7118C60.5391 47.6707 60.5527 47.6248 60.5558 47.5777V47.5394C60.5587 47.5269 60.5587 47.5138 60.5558 47.5012C60.5222 47.4154 60.4617 47.3428 60.3834 47.2944C60.2681 47.2249 60.1351 47.1903 60.0005 47.1948H58.4227V47.9262H60.0081ZM64.7682 46.5438C64.8816 46.4995 64.998 46.4636 65.1167 46.4366C65.2354 46.4059 65.3541 46.3829 65.4728 46.36C65.5916 46.337 65.8022 46.3102 65.9668 46.2949C66.1315 46.2795 66.2885 46.2719 66.4455 46.2719C66.684 46.272 66.9221 46.2899 67.1578 46.3255C67.3591 46.3561 67.5559 46.4114 67.7437 46.4902C68.0294 46.609 68.2678 46.8191 68.4216 47.0876C68.579 47.3816 68.6568 47.7116 68.6475 48.0449V51.4455H67.7322V51.2081C67.5148 51.3193 67.2827 51.3993 67.0429 51.4455C66.7373 51.5125 66.4253 51.5459 66.1124 51.5451H65.9094C65.4252 51.5193 64.954 51.3788 64.5346 51.1354C64.3243 51.0071 64.1541 50.8226 64.0431 50.6026C63.9321 50.3827 63.8848 50.1361 63.9066 49.8908C63.8872 49.6171 63.9497 49.344 64.0861 49.106C64.2225 48.868 64.4266 48.6759 64.6725 48.5543C65.1955 48.294 65.7733 48.1627 66.3575 48.1713H66.5413H66.7251C66.8898 48.1713 67.0544 48.2058 67.2191 48.2364C67.3838 48.2671 67.5331 48.2977 67.6748 48.3322C67.6988 48.0386 67.6488 47.7436 67.5293 47.4743C67.43 47.3139 67.2765 47.1943 67.0966 47.1373L66.9166 47.0952C66.8573 47.0801 66.7972 47.0685 66.7366 47.0608H66.5566H66.3804C66.1222 47.0614 65.865 47.0936 65.6145 47.1565C65.321 47.2306 65.0331 47.3253 64.7529 47.4399L64.7682 46.5438ZM64.9367 49.8908C64.9316 50.029 64.9698 50.1653 65.046 50.2807C65.1222 50.396 65.2326 50.4847 65.3618 50.5341C65.6679 50.6693 65.9999 50.7359 66.3345 50.7294H66.4417H66.5451C66.7559 50.7165 66.9649 50.6831 67.1693 50.6299C67.3441 50.5876 67.5137 50.5259 67.6748 50.446V49.1632L67.5829 49.1364L67.4527 49.0981C67.3263 49.0713 67.1731 49.0444 66.9893 49.0215C66.7972 49.0012 66.6042 48.991 66.4111 48.9908H66.2885C65.9691 49.0022 65.6547 49.0736 65.3618 49.2015C65.2263 49.2589 65.1124 49.3575 65.0361 49.4832C64.9598 49.609 64.925 49.7556 64.9367 49.9023V49.8908ZM71.7226 51.3919V53.9462H70.7499V46.3868H71.7226V46.628C71.943 46.5188 72.1757 46.4365 72.4157 46.3829C72.6507 46.3297 72.8909 46.3028 73.1319 46.3025C73.7918 46.2973 74.4328 46.5236 74.9432 46.942C75.2164 47.1721 75.4315 47.4633 75.5712 47.7919C75.7109 48.1206 75.7713 48.4775 75.7474 48.8338C75.7739 49.2062 75.7153 49.5798 75.576 49.9261C75.4366 50.2725 75.2202 50.5826 74.9432 50.8328C74.3787 51.2916 73.6674 51.5309 72.9404 51.5068C72.7446 51.5062 72.549 51.4947 72.3545 51.4724C72.1417 51.4509 71.9306 51.4151 71.7226 51.3651V51.3919ZM71.7226 47.5356V50.4154C71.8698 50.4918 72.0252 50.5509 72.186 50.5916C72.3532 50.6342 72.5235 50.6637 72.6953 50.6796H72.8983C73.3373 50.6639 73.7604 50.5112 74.1084 50.2431C74.3022 50.0845 74.4542 49.8807 74.551 49.6497C74.6478 49.4187 74.6865 49.1675 74.6637 48.9181C74.6833 48.6729 74.6461 48.4266 74.5552 48.1981C74.4642 47.9697 74.3218 47.7653 74.139 47.6007C73.8006 47.3252 73.3768 47.1762 72.9404 47.1795H72.7834H72.6302C72.4706 47.2036 72.3139 47.2447 72.163 47.302C72.0101 47.3603 71.8627 47.432 71.7226 47.5165V47.5356ZM80.4309 47.8994C80.7084 47.8789 80.9872 47.9148 81.2505 48.005C81.5138 48.0951 81.756 48.2377 81.9627 48.4241C82.2884 48.7219 82.4884 49.1328 82.5218 49.5729V49.661C82.5197 49.8863 82.4728 50.1089 82.3841 50.3159C82.2954 50.523 82.1665 50.7104 82.0048 50.8673C81.794 51.0613 81.5454 51.2097 81.2746 51.3033C81.0037 51.3969 80.7165 51.4336 80.4309 51.4111H77.7273V46.3868H78.7V47.9186L80.4309 47.8994ZM80.4309 50.626C80.578 50.6377 80.7259 50.617 80.8642 50.5654C81.0025 50.5138 81.1278 50.4325 81.2313 50.3273C81.3995 50.1491 81.4939 49.9137 81.4955 49.6687V49.638C81.4848 49.3972 81.3868 49.1685 81.2198 48.9947C81.1172 48.892 80.9935 48.8128 80.8573 48.7625C80.7211 48.7123 80.5756 48.6922 80.4309 48.7036H78.7V50.6184L80.4309 50.626ZM83.1116 46.3753H84.0843V51.4302H83.1116V46.3753ZM91.9391 47.168H91.2957V46.3753H95.1252V50.626C95.2017 50.6218 95.2781 50.6339 95.3494 50.6617C95.4208 50.6894 95.4854 50.7321 95.5388 50.7869C95.6381 50.9058 95.6899 51.0572 95.6843 51.2119C95.6876 51.2553 95.6876 51.2988 95.6843 51.3422C95.6765 51.394 95.665 51.4452 95.6499 51.4953L95.1903 52.9965L94.2521 52.9084L94.7231 51.4187H91.0851L91.5561 52.9084L90.6064 52.9965L90.1469 51.5068V51.4532C90.1513 51.4422 90.1513 51.4298 90.1469 51.4187C90.1488 51.3881 90.1488 51.3574 90.1469 51.3268C90.1469 51.2924 90.1469 51.2656 90.1469 51.2464C90.1423 51.1629 90.1556 51.0793 90.186 51.0014C90.2164 50.9235 90.2631 50.8529 90.323 50.7945C90.4416 50.6808 90.5991 50.6165 90.7634 50.6145L91.9391 47.168ZM94.164 50.6145V47.168H93.1913C93.0932 47.166 92.9965 47.1912 92.9118 47.2407C92.8433 47.2814 92.7917 47.3453 92.7663 47.4207L91.6825 50.626L94.164 50.6145ZM98.1008 51.4609L97.0936 51.4073L98.6024 47.1565H98.0012V46.3638H101.831V51.4302H100.858V47.1795H99.8087C99.7313 47.1705 99.6534 47.191 99.5904 47.2369C99.5469 47.2733 99.5105 47.3174 99.4832 47.3671H99.4641C99.4641 47.3671 99.4641 47.3671 99.4641 47.3901L98.1008 51.4609ZM105.446 48.627C105.154 48.5517 104.889 48.3965 104.68 48.179C104.521 48.0107 104.43 47.7899 104.423 47.5586V47.4935C104.445 47.3413 104.498 47.1951 104.577 47.0636C104.657 46.932 104.762 46.8177 104.887 46.7276C105.217 46.4794 105.623 46.3548 106.036 46.3753H108.506V51.4302H107.533V48.7151H106.767C106.614 48.7163 106.467 48.7735 106.353 48.8759C106.212 49.0056 106.095 49.16 106.009 49.3317L104.733 51.4838L103.65 51.3766L105.059 49.0176C105.113 48.9333 105.175 48.8539 105.243 48.7802C105.284 48.7328 105.335 48.6949 105.392 48.6692H105.415H105.438L105.446 48.627ZM106.009 47.1986C105.854 47.1908 105.7 47.2266 105.564 47.302C105.52 47.3267 105.481 47.3601 105.449 47.4003C105.417 47.4404 105.394 47.4864 105.381 47.5356C105.378 47.5443 105.378 47.5537 105.381 47.5624V47.5931C105.384 47.6404 105.399 47.6862 105.424 47.7268C105.448 47.7673 105.482 47.8016 105.522 47.8267C105.636 47.8997 105.77 47.9358 105.905 47.9301H107.514V47.1795L106.009 47.1986ZM119.455 46.4059V48.0028L121.423 46.4059H122.71L120.695 48.0373C120.981 48.0395 121.255 48.1504 121.461 48.3475C121.671 48.5415 121.854 48.7631 122.005 49.0062C122.029 49.0346 122.049 49.0654 122.066 49.0981C122.085 49.1287 122.101 49.1593 122.116 49.19L123.315 51.3958L122.342 51.503L121.032 49.2972C120.948 49.143 120.827 49.0116 120.68 48.9142C120.54 48.8143 120.376 48.7535 120.205 48.7381H119.439V51.4532H118.478V48.7381H117.8C117.622 48.7387 117.449 48.7934 117.302 48.8951C117.145 48.9992 117.014 49.1381 116.919 49.301L115.614 51.5068L114.56 51.3996L115.836 49.1938C115.836 49.1632 115.866 49.1325 115.885 49.1019C115.903 49.0693 115.923 49.0385 115.947 49.01C116.097 48.7669 116.28 48.5453 116.491 48.3513C116.699 48.1565 116.972 48.0459 117.256 48.0411L115.242 46.4097H116.517L118.497 48.0066V46.4097L119.455 46.4059ZM129.028 47.5548L126.175 50.446V51.457H125.203V46.3868H126.175V49.278L129.028 46.3868H130.001V51.4302H129.028V47.5548ZM135.186 51.4302H132.303V46.3868H134.761C135.193 46.3546 135.622 46.4737 135.975 46.7238C136.093 46.8141 136.188 46.93 136.255 47.0627C136.321 47.1954 136.356 47.3414 136.358 47.4897C136.36 47.5164 136.36 47.5433 136.358 47.5701C136.356 47.5943 136.356 47.6186 136.358 47.6428C136.332 47.7647 136.282 47.8804 136.213 47.9837C136.134 48.0995 136.035 48.2006 135.921 48.2824C136.093 48.3067 136.258 48.3649 136.406 48.4537C136.555 48.5425 136.684 48.66 136.787 48.7994C136.985 49.0578 137.1 49.3703 137.116 49.6955V49.8372C137.093 50.2539 136.916 50.6472 136.618 50.9401C136.428 51.12 136.201 51.2579 135.954 51.345C135.707 51.4321 135.444 51.4663 135.182 51.4455L135.186 51.4302ZM133.268 48.7304V50.6452H135.045C135.185 50.6555 135.326 50.6356 135.458 50.5867C135.59 50.5378 135.711 50.4611 135.81 50.3618C135.973 50.1914 136.065 49.9655 136.067 49.7299V49.6457C136.038 49.3992 135.918 49.1725 135.73 49.01C135.48 48.8014 135.159 48.6984 134.834 48.7228L133.268 48.7304ZM134.876 47.9262C135.023 47.9375 135.168 47.8983 135.29 47.8152C135.329 47.7889 135.362 47.7537 135.385 47.7124C135.408 47.6712 135.421 47.625 135.424 47.5777V47.5394C135.427 47.5269 135.427 47.5138 135.424 47.5012C135.39 47.4154 135.33 47.3428 135.251 47.2944C135.136 47.2242 135.003 47.1896 134.868 47.1948H133.294V47.9262H134.876ZM141.65 51.5872C140.921 51.5938 140.214 51.3306 139.667 50.8481C139.39 50.6029 139.171 50.2989 139.027 49.9583C138.882 49.6178 138.816 49.2493 138.832 48.8798C138.813 48.5167 138.88 48.1543 139.027 47.8217C139.174 47.4892 139.397 47.1958 139.678 46.965C140.216 46.5182 140.894 46.2754 141.593 46.2795H141.635C142.342 46.2811 143.027 46.5243 143.577 46.9689C143.861 47.198 144.087 47.4907 144.237 47.8232C144.388 48.1558 144.458 48.519 144.442 48.8836C144.456 49.2488 144.389 49.6125 144.246 49.9488C144.103 50.2851 143.888 50.5856 143.615 50.829C143.077 51.3176 142.373 51.5821 141.647 51.5681L141.65 51.5872ZM141.65 50.7716C141.878 50.7738 142.103 50.7302 142.313 50.6433C142.523 50.5565 142.713 50.4281 142.872 50.2661C143.043 50.0947 143.177 49.89 143.265 49.6647C143.353 49.4393 143.394 49.1982 143.385 48.9564C143.403 48.468 143.229 47.992 142.899 47.6314C142.74 47.4601 142.547 47.325 142.331 47.2351C142.116 47.1452 141.884 47.1028 141.65 47.1105C141.42 47.1059 141.191 47.1499 140.978 47.2397C140.766 47.3294 140.575 47.4629 140.417 47.6314C140.092 47.9938 139.921 48.4696 139.942 48.9564C139.933 49.1979 139.973 49.4389 140.061 49.6642C140.149 49.8895 140.282 50.0944 140.452 50.2661C140.608 50.4284 140.797 50.5569 141.005 50.6438C141.213 50.7308 141.436 50.7742 141.662 50.7716H141.65ZM150.887 46.4021V47.1948H149.007V51.4455H148.034V47.1795H146.139V46.3868L150.887 46.4021ZM152.99 47.9339V46.4021H153.962V47.9339H156.746V46.4021H157.719V51.4302H156.746V48.7151H153.962V51.4302H152.99V48.7151H152.316V47.9109L152.99 47.9339ZM162.759 47.9339C163.036 47.9134 163.315 47.9493 163.578 48.0394C163.842 48.1296 164.084 48.2722 164.291 48.4585C164.616 48.7564 164.816 49.1672 164.85 49.6074V49.6955C164.847 49.9207 164.801 50.1433 164.712 50.3504C164.623 50.5574 164.494 50.7448 164.333 50.9018C164.122 51.0958 163.873 51.2442 163.602 51.3378C163.332 51.4313 163.044 51.468 162.759 51.4455H160.04V46.3868H161.012V47.9186L162.759 47.9339ZM162.759 50.6605C162.906 50.6721 163.054 50.6514 163.192 50.5998C163.33 50.5482 163.456 50.467 163.559 50.3618C163.727 50.1836 163.822 49.9482 163.823 49.7031V49.6725C163.813 49.4317 163.715 49.2029 163.548 49.0291C163.445 48.9264 163.321 48.8472 163.185 48.797C163.049 48.7467 162.903 48.7266 162.759 48.7381H161.028V50.6528L162.759 50.6605ZM165.439 46.4097H166.412V51.4302H165.439V46.4097ZM172.47 51.4532L170.939 49.3355L169.407 51.4532H168.258L170.353 48.5313L168.821 46.4097H169.97L170.919 47.7348L171.861 46.4097H173.01L171.479 48.5313L173.592 51.4532H172.47Z" fill="#323376"/>
<path d="M165.121 41.5694C164.965 41.5694 164.812 41.5694 164.661 41.5694L162.685 41.4928V41.3472C160.277 40.8912 158.055 39.7396 156.294 38.0347V38.0156C155.113 36.8868 154.169 35.5342 153.517 34.0367C152.885 32.5408 152.564 30.9314 152.575 29.3073C152.568 27.7002 152.885 26.1082 153.508 24.6268C154.132 23.1455 155.048 21.8054 156.202 20.687C158.138 18.6767 160.721 17.413 163.497 17.1179V17.049H166.813V17.1103C169.563 17.4149 172.118 18.6754 174.032 20.6717C174.773 21.3954 175.425 22.2054 175.974 23.0843L176.284 23.5821V23.6166C177.072 25.0552 177.545 26.6453 177.67 28.281V17.4932H216.98V27.8789H212.515V41.0983H201.344V27.8789H196.91V41.0983H177.643V30.2532C177.521 31.9148 177.048 33.5317 176.257 34.9979V35.0324L175.931 35.5609L175.893 35.626L175.713 35.8978L175.606 36.0625L175.418 36.3268C174.991 36.9091 174.517 37.456 174.001 37.962C173.524 38.4304 173.012 38.8619 172.47 39.2525L172.225 39.4248L172.094 39.5091L171.933 39.6163L171.845 39.6699C169.841 40.9116 167.524 41.5559 165.167 41.5272L165.121 41.5694ZM165.04 37.4105H165.174C166.8 37.4428 168.4 36.9924 169.77 36.1161L169.881 36.0434L169.938 36.0051L170.026 35.9438C170.842 35.3767 171.558 34.6778 172.144 33.8759L172.332 33.604L172.405 33.4929L172.5 33.3397C173.249 32.1049 173.639 30.6861 173.626 29.2422C173.649 27.81 173.261 26.4014 172.508 25.1829L172.401 25.0144C172.047 24.4777 171.636 23.9808 171.175 23.5324C170.207 22.5209 168.993 21.778 167.652 21.3763V31.2948H162.67V21.407C161.3 21.7983 160.06 22.5463 159.074 23.5745C158.301 24.3164 157.688 25.2088 157.273 26.1968C156.858 27.1847 156.65 28.2472 156.661 29.3187C156.647 30.3949 156.858 31.4622 157.281 32.4517C157.705 33.4412 158.331 34.3308 159.12 35.063C160.646 36.553 162.679 37.4107 164.811 37.4641L165.04 37.4105ZM205.507 36.9433H208.448V23.7621H212.913V21.6099H201.042V23.7621H205.518L205.507 36.9433ZM189.775 36.9433H192.839V21.6061H189.775V27.1015H184.82V21.6099H181.756V36.9854H184.82V31.4939H189.729L189.775 36.9433ZM55.7002 41.5387C53.0342 41.5992 50.4205 40.7929 48.2518 39.241C47.7317 38.8697 47.239 38.4614 46.7775 38.0194H46.7583C45.5778 36.8907 44.6339 35.538 43.9819 34.0405C43.6825 33.3388 43.4542 32.6088 43.3003 31.8615C43.0706 32.9655 42.6837 34.0307 42.1514 35.0247V35.0592L41.7685 35.7025L41.734 35.7562L41.5578 36.0242L41.3817 36.277L41.24 36.4684L41.0983 36.6561C40.7331 37.1243 40.3379 37.5681 39.915 37.9849C39.4537 38.4342 38.961 38.8502 38.4406 39.2295L38.2453 39.3674L38.1228 39.4478L37.893 39.5972L37.7551 39.6891C35.7364 40.9486 33.3982 41.6012 31.019 41.5694C30.8633 41.5694 30.7101 41.5694 30.5595 41.5694L28.5835 41.4928V41.3472C26.167 40.8915 23.9378 39.7356 22.1729 38.0232V38.0041C21.4632 37.3265 20.8336 36.5696 20.2964 35.7485C20.2276 36.0296 20.1406 36.3059 20.036 36.5757C19.704 37.4398 19.216 38.2356 18.5961 38.9232C17.9756 39.6333 17.2105 40.2025 16.352 40.5928C15.4857 40.9736 14.5487 41.1668 13.6024 41.1596H0V30.0885H3.21679V23.8043H6.38762V17.5277H13.6024C14.5874 17.5209 15.5591 17.7546 16.4333 18.2084C17.3075 18.6622 18.0578 19.3224 18.6191 20.1318C19.3072 21.0778 19.7732 22.1669 19.9824 23.3179C20.549 22.3361 21.2445 21.4345 22.0503 20.6373C23.9878 18.6261 26.5723 17.3623 29.3494 17.0681V16.9992H32.6657V17.0605C35.4149 17.3651 37.9698 18.6256 39.8843 20.6219C40.6256 21.3457 41.2774 22.1556 41.8259 23.0345L42.1361 23.5324V23.5668C42.6782 24.5556 43.0717 25.6189 43.3041 26.7223C43.8498 24.3736 45.0583 22.2309 46.7859 20.5487C48.5136 18.8666 50.6877 17.7157 53.0502 17.2328C53.3527 17.1754 53.6629 17.1294 53.9769 17.0988V17.0375H57.2971V17.1064C60.0436 17.4137 62.596 18.6723 64.5119 20.6641C65.6784 21.7931 66.6125 23.1396 67.2615 24.6276C67.8874 26.1104 68.2041 27.7054 68.1921 29.3149C68.1921 29.5562 68.1921 29.7974 68.1691 30.0349H70.6583L78.1105 13.9509L85.5397 30.0349H88.4885V17.4932H99.0579V22.0006L109.627 15.0347V28.2465V28.0435V27.898L109.666 27.5763L109.712 27.2776L109.765 26.9636L109.819 26.684L109.865 26.4811L109.907 26.3011L109.957 26.102L109.98 26.0177C109.999 25.9488 110.014 25.8837 110.033 25.8224L110.06 25.7305C110.655 23.7785 111.745 22.0135 113.223 20.6066C114.398 19.4459 115.794 18.5322 117.328 17.9192C118.861 17.3062 120.502 17.0065 122.154 17.0375L122.184 17.0069L123.126 17.072L123.532 17.1103H123.555L124.076 17.1754C124.206 17.1754 124.344 17.2137 124.482 17.2405H124.505L124.693 17.2749L124.98 17.3362H125.007L125.202 17.3822L125.493 17.4549L125.57 17.4779C125.711 17.5162 125.857 17.5583 125.995 17.6043L126.117 17.6426L126.355 17.723L126.466 17.7651H126.5L126.718 17.8494L126.91 17.9221L127.239 18.0638L127.404 18.1366L127.607 18.2323L127.86 18.3587L127.986 18.4238L128.246 18.5655L128.354 18.6268L128.511 18.7148H128.541L128.618 18.7646C130.556 19.9101 132.145 21.5625 133.213 23.5438L133.596 24.2293V17.4932H154.161L148.662 29.2268L155.229 41.0983H133.684V34.3584L133.52 34.6762C132.45 36.7559 130.827 38.4999 128.83 39.7162C126.833 40.9325 124.538 41.5737 122.2 41.5694H122.18C120.54 41.5852 118.913 41.2766 117.392 40.6615C115.871 40.0464 114.487 39.1368 113.319 37.9849C112.427 37.123 111.665 36.1362 111.056 35.0554L111.01 34.9749L110.837 34.6456V34.6111L110.772 34.4809L110.726 34.3852L110.646 34.2052L110.577 34.0559L110.474 33.8069L110.432 33.7035L110.351 33.4967L110.271 33.267L110.183 32.9989L110.118 32.7921L110.026 32.4666L109.976 32.2866L109.926 32.076L109.872 31.8309L109.819 31.5437L109.792 31.3905L109.742 31.088L109.708 30.8084L109.685 30.6246V30.5021V30.3412V41.0983H67.6674V32.8534C67.067 34.8002 65.9811 36.5621 64.5119 37.9734C62.2359 40.2365 59.1662 41.5212 55.9568 41.554H55.6657L55.7002 41.5387ZM30.8888 37.4526H31.019C32.6451 37.485 34.2443 37.0345 35.6144 36.1583L35.6489 36.1353L35.7791 36.051L35.9514 35.9285C36.6636 35.4244 37.2961 34.8164 37.8279 34.1248L37.9313 33.9946L38.0462 33.8337L38.1036 33.7533L38.1611 33.6691L38.2568 33.5236L38.3066 33.447L38.3564 33.3589C39.095 32.1304 39.4793 30.7215 39.4669 29.2881C39.4895 27.856 39.1015 26.4474 38.3487 25.2288L38.2377 25.0527C37.884 24.5192 37.4745 24.025 37.016 23.5783C36.0481 22.5668 34.8341 21.8239 33.4929 21.4223V31.3407H28.5643V21.407C27.1949 21.7983 25.954 22.5463 24.9684 23.5745C24.1948 24.3161 23.5816 25.2085 23.1666 26.1965C22.7516 27.1845 22.5437 28.2472 22.5558 29.3187C22.5401 30.3951 22.7508 31.4627 23.1743 32.4523C23.5979 33.4419 24.2248 34.3314 25.0144 35.063C26.5402 36.553 28.573 37.4107 30.705 37.4641L30.8888 37.4526ZM49.6304 35.0439C49.9524 35.3495 50.2954 35.6323 50.6567 35.8902C52.1035 36.935 53.8509 37.4807 55.6351 37.445H55.8457C58.0159 37.4343 60.0941 36.5672 61.6283 35.0324C62.4085 34.2938 63.0286 33.4028 63.4502 32.4147C63.8718 31.4266 64.0859 30.3624 64.0792 29.2881C64.0912 28.2183 63.879 27.1579 63.4562 26.1751C63.0334 25.1923 62.4095 24.309 61.6245 23.5821C60.6563 22.5709 59.4424 21.8281 58.1013 21.4261V31.3292H53.1804V21.4032C51.8106 21.7956 50.5696 22.5449 49.5845 23.5745C48.8098 24.3152 48.1958 25.2075 47.7808 26.1957C47.3657 27.1839 47.1585 28.247 47.1719 29.3187C47.1549 30.3952 47.3651 31.4632 47.7888 32.453C48.2124 33.4428 48.8399 34.3321 49.6304 35.063V35.0439ZM116.183 35.063C117.566 36.3899 119.349 37.2221 121.254 37.4299C123.158 37.6377 125.079 37.2095 126.715 36.2119C127.429 35.7795 128.074 35.2425 128.629 34.6188L117.489 29.4107L128.426 23.8387C127.879 23.2636 127.257 22.7651 126.577 22.3567L126.512 22.3222L126.401 22.2571L126.309 22.2035L126.201 22.1461L126.006 22.0465L125.88 21.9814L125.765 21.9278L125.623 21.8665L125.489 21.8091L125.374 21.7593L125.236 21.7057L125.171 21.6827H125.133L125.037 21.6482H124.98L124.834 21.5985L124.501 21.5027H124.474L124.31 21.4606L124.195 21.4338H124.176L123.973 21.3878L123.835 21.361H123.812L123.555 21.3189C123.435 21.2985 123.317 21.2832 123.199 21.2729L122.962 21.25H122.912C122.69 21.25 122.456 21.227 122.226 21.227C121.106 21.1965 119.991 21.3936 118.949 21.8063C117.907 22.219 116.96 22.8388 116.164 23.6281C115.188 24.5424 114.469 25.6963 114.077 26.9751L114.058 27.044C114.058 27.0772 114.047 27.1155 114.024 27.1589L113.989 27.2968L113.943 27.4806L113.901 27.6835L113.874 27.8406L113.844 28.0244L113.813 28.2388L113.79 28.4265L113.771 28.6486V28.706V28.8745V29.5255C113.771 29.5868 113.771 29.6481 113.771 29.7055V29.9391V30.0349L113.79 30.2608V30.3451L113.817 30.548L113.847 30.7433L113.886 30.9501L113.92 31.1071L113.974 31.3292L114.031 31.5437L114.077 31.693L114.131 31.8654L114.173 31.9764L114.23 32.1411L114.28 32.2636L114.341 32.4092L114.418 32.5815L114.476 32.6964L114.521 32.7959C114.552 32.861 114.587 32.9261 114.621 32.9912L114.652 33.0487C115.065 33.7751 115.581 34.4381 116.183 35.0171V35.063ZM4.11672 37.0467H13.6024C13.9657 37.061 14.3275 36.9914 14.6595 36.8433C14.9916 36.6952 15.2851 36.4726 15.5172 36.1927C16.097 35.5691 16.4151 34.7465 16.4056 33.895V33.7112V33.6576C16.4056 33.5236 16.4056 33.3933 16.375 33.2746L16.3099 32.8151L16.2486 32.5164L16.218 32.3785L16.1222 32.0722C16.075 31.9413 16.02 31.8135 15.9576 31.6892C15.814 31.3424 15.5716 31.0454 15.2606 30.8352L12.8595 29.7285V34.2052H4.11672V37.0467ZM144.25 36.9854H148.248L144.036 29.3647L147.731 21.6099H144.25V26.3317H139.337V21.6099H137.805V36.9854H139.337V31.4939H144.25V36.9854ZM103.986 36.9854H105.518V22.6592L103.182 24.191L94.9412 29.6404V21.5985H92.6052V36.9854H99.0732V31.4939H103.986V36.9854ZM80.5576 36.9854H84.4139V34.1516H82.9051L78.122 23.743L73.2892 34.1516H71.7841V36.9854H75.6443V31.4939H80.5576V36.9854ZM126.895 29.2154L133.692 32.3938V25.7535L126.895 29.2154ZM7.34117 29.3111H12.4344L14.824 27.3542C15.2071 27.0645 15.5253 26.698 15.7584 26.2781L15.8274 26.1288L15.881 25.9794L15.9308 25.7841L15.9614 25.6194V25.5199V25.3437V25.3093C15.9614 25.2824 15.9614 25.2518 15.9614 25.2212V25.0948V24.9952C15.9614 24.9225 15.9614 24.8421 15.9614 24.7578C15.9789 23.9787 15.7541 23.2133 15.318 22.5673C15.1388 22.2791 14.888 22.0423 14.59 21.8799C14.292 21.7175 13.9571 21.635 13.6177 21.6406H10.5043V23.0307H12.8557V27.921H7.33351L7.34117 29.3111Z" fill="white"/>
<path fill-rule="evenodd" clip-rule="evenodd" d="M210.458 39.1681V25.9486H214.924V19.6759H198.928V25.9486H203.401V39.1681H210.458Z" fill="#B0CB22"/>
<path d="M210.458 25.9487H203.4V39.1682H210.458V25.9487Z" fill="#009846"/>
<path fill-rule="evenodd" clip-rule="evenodd" d="M187.677 33.6766V39.1681H194.854V19.6759H187.677V25.1713H186.881V19.6759H179.7V39.1681H186.881V33.6766H187.677Z" fill="#F0801B"/>
<path fill-rule="evenodd" clip-rule="evenodd" d="M175.629 29.4221C175.643 28.0785 175.377 26.7468 174.85 25.511C174.323 24.2751 173.545 23.162 172.566 22.2418C170.523 20.2147 168.18 19.2037 165.535 19.2088V29.3991H164.738V19.2088C163.41 19.2042 162.094 19.4708 160.872 19.9923C159.65 20.5138 158.547 21.2793 157.631 22.2418C156.667 23.1717 155.903 24.2877 155.384 25.522C154.866 26.7564 154.603 28.0832 154.613 29.4221C154.596 30.7766 154.862 32.1197 155.394 33.3654C155.927 34.6111 156.713 35.7319 157.703 36.656C159.691 38.5873 162.358 39.6589 165.129 39.6392C166.506 39.6617 167.874 39.4075 169.152 38.8918C170.429 38.3761 171.59 37.6093 172.566 36.6369C173.541 35.7064 174.316 34.5864 174.842 33.3458C175.369 32.1051 175.637 30.7699 175.629 29.4221Z" fill="#844F99"/>
<path fill-rule="evenodd" clip-rule="evenodd" d="M146.349 29.422L150.99 19.6759H142.194V24.4015H141.397V19.6759H135.741V39.1681H141.397V33.6766H142.194V39.1681H151.737L146.349 29.422Z" fill="#1660A9"/>
<path fill-rule="evenodd" clip-rule="evenodd" d="M146.348 29.422L150.99 19.6759H142.193V39.1681H151.737L146.348 29.422Z" fill="#323376"/>
<path fill-rule="evenodd" clip-rule="evenodd" d="M122.199 29.4221L131.501 24.6811C130.695 23.2553 129.573 22.0325 128.222 21.1061C126.871 20.1798 125.326 19.5743 123.706 19.3361C122.085 19.0978 120.431 19.2329 118.871 19.7312C117.31 20.2295 115.884 21.0777 114.701 22.2111C113.734 23.1503 112.966 24.2749 112.443 25.5177C111.92 26.7604 111.653 28.0958 111.657 29.4441C111.662 30.7924 111.938 32.126 112.47 33.3651C113.001 34.6042 113.777 35.7235 114.751 36.656C116.461 38.3051 118.67 39.3398 121.031 39.5977C123.393 39.8555 125.773 39.3219 127.798 38.0806C129.467 37.0723 130.816 35.6118 131.689 33.8681L122.199 29.4221Z" fill="#F0801B"/>
<path fill-rule="evenodd" clip-rule="evenodd" d="M131.501 24.6812C130.66 23.1367 129.443 21.8286 127.963 20.8771C126.484 19.9256 124.789 19.3611 123.034 19.2356L112.971 24.3557C112.075 25.8922 111.616 27.6439 111.642 29.4221C111.622 31.0854 112.034 32.7254 112.836 34.1822L131.501 24.6812Z" fill="#FECC03"/>
<path fill-rule="evenodd" clip-rule="evenodd" d="M90.5488 19.6761H96.9977V25.9488L107.582 18.9714V39.1683H101.93V33.6768H101.134V39.1683H90.5488V19.6761Z" fill="#0D6A4E"/>
<path fill-rule="evenodd" clip-rule="evenodd" d="M71.9755 32.2215H69.7275V39.1683H77.7006V33.6768H78.5009V39.1683H86.474V32.2215H84.2222L78.1065 18.9714L71.9755 32.2215Z" fill="#E41480"/>
<path fill-rule="evenodd" clip-rule="evenodd" d="M78.498 33.6767V39.1683H86.4749V32.2215H84.2232L78.498 19.8177V32.2215V33.6767Z" fill="#A92883"/>
<path fill-rule="evenodd" clip-rule="evenodd" d="M66.1352 29.4221C66.1486 28.0785 65.8833 26.7467 65.356 25.5108C64.8287 24.275 64.0509 23.1618 63.0716 22.2418C61.0292 20.2147 58.6855 19.2037 56.0406 19.2088V29.3991H55.2403V19.2088C53.9121 19.204 52.5969 19.4706 51.3754 19.9921C50.1538 20.5137 49.0517 21.2792 48.1365 22.2418C47.1727 23.1715 46.4079 24.2874 45.8885 25.5217C45.3691 26.756 45.106 28.083 45.115 29.4221C45.0978 30.777 45.3642 32.1205 45.8971 33.3663C46.43 34.6121 47.2176 35.7327 48.2093 36.656C50.1945 38.5878 52.861 39.6596 55.6309 39.6392C57.0088 39.6613 58.3772 39.407 59.6552 38.8914C60.9332 38.3757 62.0949 37.6091 63.0716 36.6369C64.0476 35.7071 64.8229 34.5872 65.3498 33.3464C65.8767 32.1056 66.144 30.7701 66.1352 29.4221Z" fill="#E32125"/>
<path fill-rule="evenodd" clip-rule="evenodd" d="M41.5232 29.4221C41.5364 28.0785 41.2709 26.7468 40.7436 25.511C40.2164 24.2751 39.4386 23.162 38.4596 22.2418C36.4172 20.2147 34.0735 19.2037 31.4286 19.2088V29.3991H30.6359V19.2088C29.3072 19.2042 27.9915 19.4708 26.7693 19.9923C25.5472 20.5138 24.4444 21.2793 23.5283 22.2418C22.5651 23.1717 21.8008 24.2877 21.2821 25.522C20.7634 26.7564 20.5009 28.0832 20.5107 29.4221C20.4922 30.7758 20.7565 32.1184 21.2867 33.364C21.8169 34.6097 22.6012 35.7309 23.5896 36.656C25.5777 38.5882 28.2466 39.6599 31.0188 39.6392C32.3963 39.6617 33.7642 39.4075 35.0416 38.8918C36.319 38.3761 37.48 37.6093 38.4557 36.6369C39.4308 35.7064 40.2056 34.5864 40.7324 33.3458C41.2592 32.1051 41.527 30.7699 41.5194 29.4221" fill="#E32125"/>
<path fill-rule="evenodd" clip-rule="evenodd" d="M40.0946 24.2676C39.6303 23.5265 39.0787 22.8438 38.4518 22.2341C36.4094 20.2122 34.0657 19.2012 31.4208 19.2012V29.3992H30.6357V39.6316H31.0187C32.3965 39.6542 33.7647 39.3998 35.0423 38.8833C36.3198 38.3669 37.4805 37.5991 38.4556 36.6254C39.0846 36.0134 39.6363 35.3266 40.0985 34.5805L40.0946 24.2676Z" fill="#F0801B"/>
<path fill-rule="evenodd" clip-rule="evenodd" d="M101.13 23.2222L107.583 18.9677V39.1683H101.93V33.6768H101.13V23.2222Z" fill="#149E77"/>
<path fill-rule="evenodd" clip-rule="evenodd" d="M187.67 33.6766V39.1681H194.854V19.6759H187.67V25.1713H186.873V33.6766H187.67Z" fill="#E32125"/>
<path fill-rule="evenodd" clip-rule="evenodd" d="M174.197 24.2676C173.735 23.5257 173.185 22.8429 172.558 22.2341C170.516 20.2122 168.172 19.2012 165.527 19.2012V29.3992H164.73V39.6316H165.113C166.491 39.6542 167.859 39.3998 169.137 38.8833C170.415 38.3669 171.575 37.5991 172.55 36.6254C173.179 36.0143 173.73 35.3274 174.189 34.5805L174.197 24.2676Z" fill="#4D386C"/>
<path fill-rule="evenodd" clip-rule="evenodd" d="M46.5664 24.2676C47.0281 23.5257 47.5785 22.8429 48.2054 22.2341C50.2478 20.2122 52.5915 19.2012 55.2364 19.2012V29.3992H56.033V39.6316H55.65C54.2722 39.6542 52.904 39.3998 51.6264 38.8833C50.3489 38.3669 49.1882 37.5991 48.2131 36.6254C47.5841 36.0143 47.0336 35.3274 46.5741 34.5805L46.5664 24.2676Z" fill="#F0801B"/>
<path fill-rule="evenodd" clip-rule="evenodd" d="M8.44809 19.7105H13.6026C14.2657 19.7041 14.92 19.8623 15.5069 20.1711C16.0937 20.4799 16.5947 20.9296 16.9649 21.4797C17.6791 22.4633 18.0674 23.6457 18.0755 24.8612C18.1156 25.7016 17.9582 26.5397 17.6159 27.3083C17.2547 27.9965 16.7492 28.5986 16.1339 29.0737C16.8755 29.4653 17.4637 30.0953 17.8036 30.862C18.2621 31.8407 18.4938 32.9101 18.4814 33.9908C18.4988 35.3559 17.9948 36.6762 17.0722 37.6824C16.6463 38.1762 16.1164 38.5696 15.5205 38.8345C14.9246 39.0993 14.2775 39.229 13.6256 39.2142H2.05664V32.2751H10.7994V31.5092H5.27726V25.9909H10.7994V25.225H8.44809V19.7105Z" fill="#AFCC3B"/>
<path fill-rule="evenodd" clip-rule="evenodd" d="M18.0678 25.2135C18.0686 25.936 17.9145 26.6503 17.6159 27.3082C17.2547 27.9965 16.7492 28.5986 16.1339 29.0736C16.8755 29.4653 17.4637 30.0953 17.8036 30.862C18.2621 31.8406 18.4938 32.9101 18.4814 33.9907C18.4988 35.3558 17.9948 36.6761 17.0722 37.6824C16.6463 38.1762 16.1164 38.5696 15.5205 38.8344C14.9246 39.0993 14.2775 39.229 13.6256 39.2142H2.05664V32.2751H10.7994V31.5092H5.27726V25.9909H10.7994V25.225H18.0755L18.0678 25.2135Z" fill="#2D9342"/>
<path fill-rule="evenodd" clip-rule="evenodd" d="M18.0567 31.4939C18.1465 31.7444 18.2207 32.0002 18.2788 32.2598H10.7998V31.4939H18.0759H18.0567Z" fill="#AFCC3B"/>
<path fill-rule="evenodd" clip-rule="evenodd" d="M18.2784 32.2751C18.3955 32.8397 18.4583 33.4142 18.4661 33.9908C18.4835 35.3559 17.9795 36.6762 17.0568 37.6824C16.6309 38.1762 16.1011 38.5696 15.5052 38.8345C14.9093 39.0993 14.2622 39.229 13.6103 39.2142H2.05664V32.2751H18.2784Z" fill="#77B631"/>
</svg>
