<svg width="160" height="104" viewBox="0 0 160 104" fill="none" xmlns="http://www.w3.org/2000/svg">
<path d="M9.92274 87.9048C9.92274 90.4239 7.28966 91.5105 4.63217 91.5105C1.97468 91.5105 0.000894811 90.3466 0.000894811 88.6048C-0.00615978 88.3956 0.0285561 88.1871 0.103013 87.9915C0.17747 87.7958 0.290175 87.617 0.43454 87.4655C0.578904 87.3139 0.752032 87.1926 0.943804 87.1087C1.13558 87.0249 1.34215 86.9801 1.55144 86.9769C1.75566 86.9747 1.95827 87.0134 2.14737 87.0905C2.33648 87.1677 2.50827 87.2818 2.65269 87.4262C2.79711 87.5706 2.91124 87.7424 2.98839 87.9315C3.06554 88.1206 3.10416 88.3232 3.10198 88.5275C3.1088 88.7201 3.07589 88.9121 3.00529 89.0914C2.9347 89.2708 2.82792 89.4337 2.69163 89.57C2.55533 89.7063 2.39243 89.8131 2.21307 89.8837C2.03371 89.9542 1.84174 89.9872 1.64911 89.9803C2.32032 90.4621 3.12636 90.7198 3.95254 90.7169C5.71877 90.7169 6.72805 89.728 6.72805 87.8682C6.72805 86.4316 6.14609 84.881 3.6229 84.881V84.2014C5.95074 84.2014 6.33736 82.6142 6.33736 81.4503C6.33736 79.9201 5.6618 78.9108 4.12753 78.9108C3.59887 78.9039 3.07695 79.0299 2.60974 79.2774C2.14252 79.5249 1.74502 79.8858 1.45376 80.3271C1.67024 80.2708 1.89685 80.2656 2.11566 80.312C2.33447 80.3585 2.53945 80.4552 2.71439 80.5946C2.88932 80.734 3.0294 80.9122 3.12351 81.1151C3.21763 81.3181 3.2632 81.5401 3.25663 81.7637C3.25993 81.9682 3.22207 82.1713 3.14532 82.3609C3.06857 82.5505 2.95448 82.7228 2.80983 82.8674C2.66519 83.0121 2.49294 83.1262 2.30333 83.2029C2.11372 83.2797 1.91061 83.3175 1.70608 83.3142C1.49679 83.3111 1.29022 83.2663 1.09845 83.1824C0.906679 83.0985 0.733551 82.9773 0.589187 82.8257C0.444822 82.6741 0.332118 82.4953 0.25766 82.2997C0.183203 82.1041 0.148487 81.8956 0.155542 81.6864C0.155542 79.9445 1.78341 78.1213 4.82752 78.1213C6.7484 78.1213 9.45879 78.8376 9.45879 81.2021C9.45879 83.0049 7.87162 84.0305 5.38913 84.4578C8.35592 84.7671 9.96343 85.8944 9.96343 87.8885" fill="#D1A13A"/>
<path d="M24.1709 84.8079C24.1709 88.6456 21.5338 91.4943 17.5821 91.4943C13.4311 91.4943 10.9893 88.7188 10.9893 84.8079C10.9893 80.9865 13.6264 78.1377 17.5821 78.1377C21.7291 78.1377 24.1709 80.9091 24.1709 84.8242V84.8079ZM20.9721 85.0195C20.9721 81.6457 19.4013 78.915 17.3868 78.915C15.5066 78.915 14.188 81.1859 14.188 84.6125C14.188 87.9863 15.7589 90.717 17.7734 90.717C19.6536 90.717 20.9721 88.4502 20.9721 85.0195Z" fill="#D1A13A"/>
<path d="M38.6991 84.8079C38.6991 88.6456 36.0619 91.4943 32.1103 91.4943C27.9633 91.4943 25.5215 88.7229 25.5215 84.8079C25.5215 80.9865 28.1546 78.1377 32.1103 78.1377C36.2573 78.1377 38.6991 80.9091 38.6991 84.8242V84.8079ZM35.5003 85.0195C35.5003 81.6457 33.9335 78.915 31.9149 78.915C30.0347 78.915 28.7162 81.1859 28.7162 84.6125C28.7162 87.9863 30.2871 90.717 32.3015 90.717C34.1817 90.717 35.5003 88.4502 35.5003 85.0195Z" fill="#D1A13A"/>
<path d="M51.8077 79.1876V90.428L51.9989 90.6233H53.0652V91.2989H47.5426V90.6233H48.6089L48.8042 90.428V81.609L43.6683 88.7798V90.428L43.8596 90.6233H44.9259V91.2989H39.4033V90.6233H40.4696L40.6608 90.428V79.1876L40.4696 78.9922H39.4033V78.3167H44.9259V78.9922H43.8596L43.6683 79.1876V87.5222L48.8042 80.3515V79.1876L48.6089 78.9922H47.5426V78.3167H53.0652V78.9922H51.9989L51.8077 79.1876Z" fill="#D1A13A"/>
<path d="M66.6377 79.1876V90.428L66.8331 90.6233H67.8993V91.2989H62.3727V90.6233H63.439L63.6343 90.428V84.9054H58.4984V90.428L58.6938 90.6233H59.76V91.2989H54.2334V90.6233H55.2997L55.495 90.428V79.1876L55.2997 78.9922H54.2334V78.3167H59.76V78.9922H58.6938L58.4984 79.1876V84.2258H63.6343V79.1876L63.439 78.9922H62.3727V78.3167H67.8993V78.9922H66.8331L66.6377 79.1876Z" fill="#D1A13A"/>
<path d="M79.2577 79.1876V90.428L79.453 90.6233H80.5193V95.2749H79.8804C79.685 92.7517 78.8914 91.2989 77.0316 91.2989H72.2823C70.4225 91.2989 69.6248 92.7517 69.4335 95.2749H68.7783V90.6233H70.0928C70.9068 88.1815 71.3137 83.0619 71.3137 79.1876L71.1184 78.9922H69.2585V78.3167H80.499V78.9922H79.4327L79.2577 79.1876ZM76.2543 79.1876L76.0589 78.9922H72.3963L72.205 79.1876C72.205 82.1503 72.0096 87.5996 71.0207 90.6233H76.0589L76.2543 90.428V79.1876Z" fill="#D1A13A"/>
<path d="M82.9696 90.0007C82.9652 89.8035 83.0008 89.6075 83.0743 89.4244C83.1478 89.2414 83.2578 89.0753 83.3974 88.936C83.5371 88.7967 83.7035 88.6873 83.8867 88.6142C84.0699 88.5412 84.2661 88.5062 84.4632 88.5112C85.1388 88.5112 85.9364 89.2071 85.7207 90.428C86.6527 90.196 87.0393 89.5571 87.8532 87.9088L82.5057 78.9922H81.4395V78.3167H87.312V78.9922H86.1887L85.9934 79.1876L89.3061 85.0031H89.4038L92.2525 79.1876L92.0613 78.9922H90.4131V78.3167H94.3484V78.9922H93.2822L88.9765 87.4246C87.8329 89.6547 87.1166 91.4942 84.6748 91.4942C83.7063 91.4942 82.9696 90.8553 82.9696 90.0007Z" fill="#D1A13A"/>
<path d="M105.271 87.9659L105.796 88.4135C104.42 90.2327 102.654 91.4943 100.273 91.4943C99.4019 91.5134 98.5358 91.3552 97.7276 91.0293C96.9193 90.7034 96.1858 90.2166 95.5715 89.5984C94.9571 88.9803 94.4749 88.2438 94.154 87.4335C93.8331 86.6233 93.6802 85.7563 93.7047 84.8851C93.7047 80.9294 96.7447 78.1214 100.582 78.1214C101.696 78.1115 102.795 78.3771 103.781 78.8946L104.07 78.3167H104.75C104.847 79.6312 105.002 81.4137 105.234 82.6387L104.595 82.83C103.529 80.0382 102.096 78.8946 100.525 78.8946C98.1406 78.8946 96.8994 81.5521 96.8994 84.7305C96.8994 87.9089 98.1203 90.5257 100.855 90.5257C102.54 90.5257 103.956 89.5164 105.291 87.9659" fill="#D1A13A"/>
<path d="M118.538 81.8003L117.899 81.9956C116.967 79.7654 115.359 79.0085 113.963 79.0085V90.4443L114.159 90.6396H115.225V91.3152H109.682V90.6396H110.748L110.94 90.4443V78.9922C109.544 78.9922 107.936 79.7492 107.008 81.9793L106.365 81.784L107.143 78.3167H117.764L118.538 81.8003Z" fill="#D1A13A"/>
<path d="M130.609 81.841C130.609 84.3235 127.976 85.6787 125.766 85.6787H123.536V90.428L123.731 90.6233H125.281V91.2989H119.271V90.6233H120.337L120.532 90.428V79.1876L120.337 78.9922H119.271V78.3167H125.782C128.183 78.3167 130.625 79.2852 130.625 81.841H130.609ZM127.426 81.9956C127.426 80.0788 126.246 78.9922 125.005 78.9922H123.719L123.523 79.1876V85.0031H124.976C126.274 85.0031 127.398 84.2665 127.398 81.9956" fill="#D1A13A"/>
<path d="M143.448 79.1876V90.428L143.644 90.6233H144.71V91.2989H139.183V90.6233H140.25L140.445 90.428V81.609L135.309 88.7798V90.428L135.504 90.6233H136.566V91.2989H131.044V90.6233H132.11L132.306 90.428V79.1876L132.11 78.9922H131.044V78.3167H136.566V78.9922H135.504L135.309 79.1876V87.5222L140.445 80.3515V79.1876L140.25 78.9922H139.183V78.3167H144.71V78.9922H143.644L143.448 79.1876Z" fill="#D1A13A"/>
<path d="M157.33 79.1876V90.428L157.522 90.6233H158.588V91.2989H153.065V90.6233H154.132L154.327 90.428V85.2921H153.513C152.447 85.2921 152.117 85.9106 151.36 87.4815L149.541 91.2989H145.626V90.6233C145.934 90.6104 146.231 90.508 146.482 90.3288C146.733 90.1496 146.926 89.9012 147.038 89.614L148.259 87.0542C148.821 85.8537 149.346 85.2514 150.257 84.9828C148.629 84.4781 147.27 83.2979 147.27 81.6497C147.27 79.2852 149.712 78.3167 152.117 78.3167H158.608V78.9922H157.542L157.33 79.1876ZM154.327 79.1876L154.132 78.9922H152.87C151.649 78.9922 150.449 79.8835 150.449 81.609C150.449 83.6845 151.592 84.6124 152.87 84.6124H154.327V79.1876Z" fill="#D1A13A"/>
<path d="M24.8255 98.1889V101.286L24.8662 101.327H25.4807V103.28H25.2325C25.1877 102.303 24.9354 101.611 24.2761 101.611H22.9738C22.3145 101.611 22.0622 102.303 22.0215 103.28H21.7529V101.335H22.3471C22.6727 100.692 22.7785 98.9377 22.7785 98.197L22.7378 98.1563H22.0704V97.8715H25.493V98.1563H24.8784L24.8255 98.1889ZM24.1744 98.1889L24.1337 98.1482H23.0959L23.0552 98.1889C23.0552 98.7668 23.0227 100.48 22.6808 101.327H24.1459L24.1866 101.286L24.1744 98.1889Z" fill="#575756"/>
<path d="M30.1041 98.1889V101.286L30.1448 101.322H30.7553V101.611H28.8018V101.322H29.4123L29.453 101.286V98.9621L27.4996 100.916V101.286L27.5403 101.322H28.1507V101.611H26.1973V101.322H26.8077L26.8484 101.286V98.1889L26.8077 98.1482H26.1973V97.8633H28.1507V98.1482H27.5403L27.4996 98.1889V100.509L29.453 98.5551V98.1889L29.4123 98.1482H28.8018V97.8633H30.7553V98.1482H30.1448L30.1041 98.1889Z" fill="#575756"/>
<path d="M31.3094 99.7719C31.2952 99.5106 31.3354 99.2492 31.4276 99.0043C31.5197 98.7594 31.6617 98.5363 31.8446 98.3492C32.0275 98.1621 32.2473 98.0151 32.4901 97.9174C32.7328 97.8197 32.9932 97.7735 33.2547 97.7818C34.0158 97.7818 34.6913 98.1888 34.6913 98.7992C34.694 98.8527 34.6861 98.9061 34.6681 98.9565C34.6502 99.0069 34.6224 99.0533 34.5865 99.093C34.5506 99.1327 34.5073 99.1649 34.4589 99.1878C34.4105 99.2107 34.3582 99.2239 34.3047 99.2266C34.2513 99.2292 34.1978 99.2214 34.1474 99.2034C34.097 99.1854 34.0507 99.1577 34.011 99.1218C33.9713 99.0859 33.9391 99.0425 33.9162 98.9941C33.8932 98.9458 33.8801 98.8934 33.8774 98.8399C33.8758 98.7436 33.9085 98.6498 33.9696 98.5753C34.0307 98.5007 34.1163 98.4503 34.2111 98.433C34.0867 98.3049 33.9362 98.2051 33.7697 98.1405C33.6033 98.0759 33.4248 98.0479 33.2466 98.0586C32.3675 98.0586 32.0257 98.7748 32.0257 99.6864C32.0257 100.757 32.5954 101.375 33.2954 101.375C33.5426 101.352 33.781 101.272 33.9927 101.142C34.2043 101.013 34.3834 100.836 34.5163 100.627L34.7361 100.814C34.5229 101.162 34.2001 101.431 33.8182 101.576C33.4363 101.722 33.0169 101.737 32.6256 101.619C32.2344 101.5 31.8933 101.256 31.6559 100.923C31.4185 100.59 31.2981 100.188 31.3135 99.78" fill="#575756"/>
<path d="M38.8787 99.011L38.6345 99.0761C38.5911 98.7933 38.4395 98.5384 38.2117 98.3652C37.9839 98.1921 37.6977 98.1143 37.4136 98.1482V101.286L37.4543 101.327H38.0647V101.611H36.0991V101.335H36.7095L36.7502 101.294V98.1563C36.4665 98.1245 36.1814 98.2031 35.954 98.3759C35.7267 98.5486 35.5746 98.8023 35.5293 99.0842L35.2852 99.0191L35.4724 97.8715H38.7077L38.8787 99.011Z" fill="#575756"/>
<path d="M43.6483 99.7069C43.6483 100.879 42.9483 101.677 41.9675 101.677C41.6993 101.692 41.4328 101.626 41.2022 101.488C40.9716 101.35 40.7874 101.147 40.6734 100.903V103.305L40.7141 103.345H41.6501V103.63H39.3711V103.37H39.9815L40.0222 103.329V98.189L39.9815 98.1483H39.3711V97.8634C39.7781 97.8634 40.185 97.8634 40.592 97.8227L40.6327 97.8634V98.5552H40.6734C40.7984 98.3209 40.985 98.125 41.213 97.9888C41.4411 97.8526 41.7019 97.7811 41.9675 97.782C42.9483 97.782 43.6483 98.5471 43.6483 99.7232V99.7069ZM42.9158 99.8168C42.9158 98.7506 42.4722 98.1483 41.8536 98.1483C41.4059 98.1483 40.9745 98.4331 40.6734 99.125V100.346C40.9745 101.038 41.4059 101.323 41.8536 101.323C42.4722 101.323 42.9158 100.883 42.9158 99.8127" fill="#575756"/>
<path d="M48.1286 98.1889V101.286L48.1693 101.322H48.7797V101.611H46.8263V101.322H47.4367L47.4774 101.286V98.9621L45.524 100.916V101.286L45.5647 101.322H46.1751V101.611H44.2217V101.322H44.8321L44.8728 101.286V98.1889L44.8321 98.1482H44.2217V97.8633H46.1751V98.1482H45.5647L45.524 98.1889V100.509L47.4774 98.5551V98.1889L47.4367 98.1482H46.8263V97.8633H48.7797V98.1482H48.1693L48.1286 98.1889Z" fill="#575756"/>
<path d="M49.4834 99.5726C49.4834 97.8633 49.8415 95.8204 52.1694 95.7227C52.4543 95.7227 52.617 95.6332 52.6659 95.5029H52.906C53.0525 95.8529 52.906 96.3738 52.2141 96.3738C50.2933 96.3738 49.984 97.5215 49.8293 98.8401C49.9806 98.5547 50.2105 98.3187 50.4918 98.16C50.7731 98.0013 51.094 97.9266 51.4165 97.9447C51.6616 97.9407 51.9049 97.9866 52.1316 98.0798C52.3583 98.173 52.5637 98.3114 52.7351 98.4866C52.9065 98.6618 53.0403 98.8702 53.1285 99.0989C53.2167 99.3276 53.2573 99.5718 53.2478 99.8168C53.2534 100.064 53.2088 100.31 53.1167 100.54C53.0246 100.77 52.887 100.979 52.7121 101.154C52.5372 101.33 52.3287 101.468 52.099 101.56C51.8694 101.653 51.6234 101.698 51.3758 101.693C50.3747 101.693 49.5037 100.944 49.5037 99.5726H49.4834ZM52.5153 99.8168C52.5153 98.9214 52.2223 98.2296 51.4165 98.2296C50.7409 98.2296 50.2363 98.9377 50.2363 99.8168C50.2363 100.696 50.5293 101.408 51.3351 101.408C52.0107 101.408 52.5153 100.7 52.5153 99.8168Z" fill="#575756"/>
<path d="M53.7529 101.335H54.3634L54.4041 101.294V98.197L54.3634 98.1563H53.7529V97.8715H55.7064V98.1563H55.0959L55.0552 98.197V99.4586H55.7064C56.7563 99.4586 57.4238 99.7679 57.4238 100.505C57.4238 101.241 56.7563 101.62 55.7064 101.62H53.7529V101.335ZM55.7878 101.335C56.3657 101.335 56.6912 101.025 56.6912 100.521C56.6912 100.016 56.3982 99.7313 55.7878 99.7313H55.0552V101.278L55.0959 101.318L55.7878 101.335Z" fill="#575756"/>
<path d="M63.5932 99.7394C63.5932 100.96 62.8037 101.693 61.8799 101.693C60.9561 101.693 60.1706 100.944 60.1706 99.7394H59.1939V101.286L59.2346 101.327H59.845V101.611H57.8916V101.335H58.5021L58.5428 101.294V98.197L58.5021 98.1563H57.8916V97.8714H59.845V98.1563H59.2346L59.1939 98.197V99.4627H60.1869C60.2033 99.0208 60.3876 98.6018 60.7021 98.2911C61.0167 97.9803 61.4378 97.8011 61.8799 97.79C62.8037 97.79 63.5932 98.5389 63.5932 99.7476V99.7394ZM62.8607 99.7476C62.8607 98.783 62.4333 98.0749 61.8432 98.0749C61.1148 98.0749 60.9032 98.7668 60.9032 99.7476C60.9032 100.728 61.3101 101.416 61.9206 101.416C62.649 101.416 62.8607 100.724 62.8607 99.7476Z" fill="#575756"/>
<path d="M67.8098 99.011L67.5656 99.0761C67.5232 98.7928 67.3719 98.5373 67.1438 98.3639C66.9158 98.1906 66.629 98.1132 66.3447 98.1482V101.286L66.3854 101.327H66.9959V101.611H65.0424V101.335H65.6529L65.6936 101.294V98.1563C65.4098 98.1245 65.1247 98.2031 64.8974 98.3759C64.6701 98.5486 64.518 98.8023 64.4727 99.0842L64.2285 99.0191L64.4157 97.8715H67.647L67.8098 99.011Z" fill="#575756"/>
<path d="M72.1562 99.7395C72.1395 100.106 72.0156 100.459 71.8 100.755C71.5844 101.052 71.2865 101.278 70.9433 101.407C70.6001 101.536 70.2267 101.561 69.8694 101.479C69.512 101.397 69.1865 101.213 68.9332 100.948C68.6798 100.683 68.5098 100.35 68.4443 99.9889C68.3787 99.6283 68.4204 99.2564 68.5643 98.9192C68.7081 98.5821 68.9478 98.2947 69.2535 98.0925C69.5593 97.8903 69.9176 97.7823 70.2842 97.782C70.538 97.7793 70.7897 97.8289 71.0237 97.9274C71.2577 98.026 71.4689 98.1715 71.6444 98.355C71.8199 98.5385 71.9558 98.756 72.0439 98.9942C72.1319 99.2323 72.1701 99.486 72.1562 99.7395ZM71.4237 99.7395C71.4237 98.775 70.919 98.0668 70.2435 98.0668C69.4295 98.0668 69.1446 98.7587 69.1446 99.7395C69.1446 100.72 69.6493 101.408 70.3249 101.408C71.1388 101.408 71.4237 100.716 71.4237 99.7395Z" fill="#575756"/>
<path d="M76.8767 99.7069C76.8767 100.879 76.1767 101.677 75.2 101.677C74.9317 101.692 74.6652 101.626 74.4346 101.488C74.204 101.35 74.0198 101.147 73.9058 100.903V103.305L73.9465 103.345H74.8825V103.63H72.6035V103.37H73.214L73.2547 103.329V98.189L73.214 98.1483H72.6035V97.8634C73.0105 97.8634 73.4174 97.8634 73.8244 97.8227L73.8651 97.8634V98.5552H73.9058C74.0309 98.3209 74.2174 98.125 74.4455 97.9888C74.6735 97.8526 74.9343 97.7811 75.2 97.782C76.1767 97.782 76.8767 98.5471 76.8767 99.7232V99.7069ZM76.1441 99.8168C76.1441 98.7506 75.7046 98.1483 75.086 98.1483C74.6384 98.1483 74.207 98.4331 73.9058 99.125V100.346C74.207 101.038 74.6384 101.323 75.086 101.323C75.7046 101.323 76.1441 100.883 76.1441 99.8127" fill="#575756"/>
<path d="M77.6659 99.7719C77.6517 99.5106 77.6919 99.2492 77.784 99.0043C77.8761 98.7594 78.0182 98.5363 78.2011 98.3492C78.384 98.1621 78.6038 98.0151 78.8465 97.9174C79.0893 97.8197 79.3496 97.7735 79.6112 97.7818C80.3681 97.7818 81.0437 98.1888 81.0437 98.7992C81.0464 98.8527 81.0385 98.9061 81.0205 98.9565C81.0025 99.0069 80.9748 99.0533 80.9389 99.093C80.903 99.1327 80.8596 99.1649 80.8113 99.1878C80.7629 99.2107 80.7105 99.2239 80.6571 99.2266C80.6036 99.2292 80.5502 99.2214 80.4998 99.2034C80.4494 99.1854 80.403 99.1577 80.3634 99.1218C80.3237 99.0859 80.2915 99.0425 80.2685 98.9941C80.2456 98.9458 80.2324 98.8934 80.2298 98.8399C80.2282 98.7436 80.2609 98.6498 80.322 98.5753C80.3831 98.5007 80.4687 98.4503 80.5635 98.433C80.4404 98.3043 80.2906 98.2041 80.1247 98.1394C79.9588 98.0748 79.7808 98.0472 79.603 98.0586C78.724 98.0586 78.3821 98.7748 78.3821 99.6864C78.3821 100.757 78.9519 101.375 79.6519 101.375C79.8996 101.354 80.1389 101.275 80.3508 101.145C80.5628 101.015 80.7415 100.838 80.8728 100.627L81.0925 100.814C80.8805 101.164 80.558 101.433 80.176 101.58C79.7939 101.726 79.374 101.741 78.9823 101.623C78.5907 101.504 78.2495 101.259 78.0127 100.925C77.7758 100.592 77.6567 100.189 77.674 99.78" fill="#575756"/>
<path d="M85.9883 101.335V101.62H84.7105L83.9454 100.289C83.8421 100.12 83.691 99.9859 83.5113 99.9032C83.3316 99.8206 83.1314 99.7933 82.9361 99.8248V101.294L82.9768 101.335H83.5872V101.62H81.6338V101.335H82.2442L82.2849 101.294V98.197L82.2442 98.1563H81.6338V97.8714H83.5872V98.1563H82.9768L82.9361 98.197V99.54C84.4174 99.54 84.1244 97.79 85.3372 97.79C85.405 97.7844 85.4733 97.7929 85.5378 97.8148C85.6023 97.8367 85.6615 97.8717 85.7119 97.9175C85.7623 97.9633 85.8027 98.0189 85.8307 98.081C85.8586 98.1431 85.8735 98.2103 85.8744 98.2784C85.876 98.3433 85.8646 98.408 85.8407 98.4684C85.8169 98.5288 85.7811 98.5839 85.7355 98.6302C85.6899 98.6765 85.6355 98.7132 85.5755 98.7381C85.5154 98.7629 85.451 98.7754 85.386 98.7749C85.2571 98.7667 85.1361 98.7102 85.0471 98.6166C84.958 98.5231 84.9076 98.3994 84.9058 98.2702C84.4581 98.5795 84.4093 99.2469 83.7907 99.5644C83.9641 99.5689 84.1327 99.6225 84.2767 99.719C84.4208 99.8156 84.5346 99.9511 84.6046 100.11L85.0523 100.924C85.2314 101.249 85.6628 101.306 85.9721 101.331" fill="#575756"/>
<path d="M90.486 101.245C90.4057 101.381 90.2914 101.494 90.1544 101.572C90.0175 101.651 89.8625 101.692 89.7046 101.693C89.5451 101.714 89.3834 101.676 89.2499 101.586C89.1165 101.496 89.0206 101.36 88.9802 101.205C88.8306 101.367 88.6476 101.494 88.4438 101.579C88.24 101.663 88.0204 101.702 87.8 101.693C86.9373 101.693 86.457 101.205 86.457 100.619C86.457 100.033 86.9373 99.5401 87.8 99.5401C88.0208 99.5308 88.2409 99.5701 88.4448 99.6552C88.6488 99.7403 88.8315 99.8691 88.9802 100.033V99.1657C88.9802 98.5064 88.7686 98.1076 88.1663 98.1076C87.8572 98.0922 87.5514 98.1779 87.2954 98.3517C87.3689 98.3906 87.4301 98.4494 87.4718 98.5213C87.5135 98.5933 87.5342 98.6756 87.5314 98.7587C87.5314 98.8666 87.4885 98.9701 87.4122 99.0465C87.3359 99.1228 87.2324 99.1657 87.1245 99.1657C87.0666 99.1661 87.0094 99.1542 86.9565 99.1307C86.9037 99.1073 86.8564 99.0729 86.8179 99.0298C86.7794 98.9866 86.7506 98.9358 86.7332 98.8806C86.7159 98.8255 86.7106 98.7673 86.7175 98.7099C86.7175 98.1401 87.4989 97.782 88.2395 97.782C88.9802 97.782 89.6476 98.0587 89.6476 99.0436V100.985C89.6476 101.139 89.7046 101.327 89.9081 101.327C90.1116 101.327 90.1686 101.196 90.2825 101.058L90.486 101.245ZM88.9802 100.399C88.8515 100.25 88.693 100.129 88.515 100.045C88.337 99.9612 88.1434 99.9153 87.9465 99.9104C87.4338 99.9104 87.1082 100.183 87.1082 100.619C87.1082 101.054 87.4338 101.327 87.9465 101.327C88.1434 101.322 88.337 101.276 88.515 101.192C88.693 101.108 88.8515 100.987 88.9802 100.838V100.399Z" fill="#575756"/>
<path d="M94.2016 98.1889V101.286L94.2423 101.327H94.8527V101.611H92.8993V101.335H93.5097L93.5504 101.294V100.02H93.3795C93.1867 99.993 92.9901 100.022 92.8133 100.103C92.6364 100.185 92.4869 100.316 92.3824 100.48L91.7313 101.611H90.8115V101.335C90.9376 101.325 91.0588 101.282 91.1631 101.211C91.2674 101.139 91.3511 101.042 91.4057 100.928L91.6662 100.443C91.7721 100.211 91.965 100.03 92.2033 99.9388C91.9689 99.8863 91.7564 99.7628 91.5947 99.5851C91.433 99.4074 91.3301 99.1841 91.2999 98.9458C91.2999 98.2051 92.0731 97.8877 92.8545 97.8877H94.8486V98.1726H94.2382L94.2016 98.1889ZM93.5504 98.1889L93.5097 98.1482H93.0295C92.4435 98.1482 92.069 98.4249 92.069 98.9377C92.069 99.4504 92.4353 99.7272 93.0295 99.7272H93.5504V98.1889Z" fill="#575756"/>
<path d="M101.743 101.335V101.62H100.465L99.7081 100.281C99.6048 100.112 99.4537 99.9777 99.274 99.8951C99.0943 99.8125 98.8941 99.7852 98.6988 99.8167V101.286L98.7395 101.327H99.3499V101.611H97.3965V101.335H98.0069L98.0476 101.294V98.197L98.0069 98.1563H97.3965V97.8714H99.3499V98.1563H98.7395L98.6988 98.197V99.54C100.18 99.54 99.8871 97.79 101.1 97.79C101.168 97.7844 101.236 97.7929 101.3 97.8148C101.365 97.8367 101.424 97.8717 101.475 97.9175C101.525 97.9633 101.565 98.0189 101.593 98.081C101.621 98.1431 101.636 98.2103 101.637 98.2784C101.639 98.3433 101.627 98.408 101.603 98.4684C101.58 98.5288 101.544 98.5839 101.498 98.6302C101.453 98.6765 101.398 98.7132 101.338 98.7381C101.278 98.7629 101.214 98.7754 101.149 98.7749C101.02 98.7667 100.899 98.7102 100.81 98.6166C100.721 98.5231 100.67 98.3994 100.668 98.2702C100.221 98.5795 100.172 99.2469 99.5534 99.5644C99.7268 99.5689 99.8953 99.6225 100.039 99.719C100.184 99.8156 100.297 99.9511 100.367 100.11L100.815 100.924C100.994 101.249 101.425 101.306 101.735 101.331" fill="#575756"/>
<path d="M105.869 99.7395C105.852 100.106 105.729 100.459 105.513 100.755C105.297 101.052 104.999 101.278 104.656 101.407C104.313 101.536 103.94 101.561 103.582 101.479C103.225 101.397 102.899 101.213 102.646 100.948C102.393 100.683 102.223 100.35 102.157 99.9889C102.092 99.6283 102.133 99.2564 102.277 98.9192C102.421 98.5821 102.661 98.2947 102.966 98.0925C103.272 97.8903 103.631 97.7823 103.997 97.782C104.251 97.7793 104.503 97.8289 104.737 97.9274C104.971 98.026 105.182 98.1715 105.357 98.355C105.533 98.5385 105.669 98.756 105.757 98.9942C105.845 99.2323 105.883 99.486 105.869 99.7395ZM105.137 99.7395C105.137 98.775 104.632 98.0668 103.956 98.0668C103.142 98.0668 102.858 98.7587 102.858 99.7395C102.858 100.72 103.362 101.408 104.038 101.408C104.852 101.408 105.137 100.716 105.137 99.7395Z" fill="#575756"/>
<path d="M111.237 98.1889V101.286L111.278 101.322H111.929V101.611H109.894V101.322H110.464L110.505 101.286V98.9214H110.464L109.325 101.526H108.714L107.493 98.7749H107.453V101.286L107.493 101.322H108.063V101.611H106.395V101.322H107.046L107.086 101.286V98.1889L107.046 98.1482H106.395V97.8633H107.819L109.178 100.916H109.219L110.546 97.8633H111.929V98.1482H111.278L111.237 98.1889Z" fill="#575756"/>
<path d="M116.471 98.1889V101.286L116.512 101.322H117.122V101.611H115.169V101.322H115.779L115.82 101.286V98.1889L115.779 98.1482H113.988L113.948 98.1889V101.286L113.988 101.322H114.599V101.611H112.646V101.322H113.256L113.297 101.286V98.1889L113.256 98.1482H112.646V97.8633H117.122V98.1482H116.512L116.471 98.1889Z" fill="#575756"/>
<path d="M121.745 101.245C121.664 101.381 121.55 101.494 121.413 101.572C121.276 101.651 121.121 101.692 120.963 101.693C120.804 101.714 120.642 101.676 120.509 101.586C120.375 101.496 120.279 101.36 120.239 101.205C120.089 101.367 119.906 101.494 119.703 101.579C119.499 101.663 119.279 101.702 119.059 101.693C118.196 101.693 117.716 101.205 117.716 100.619C117.716 100.033 118.196 99.5401 119.059 99.5401C119.28 99.5308 119.5 99.5701 119.704 99.6552C119.908 99.7403 120.09 99.8691 120.239 100.033V99.1657C120.239 98.5064 120.027 98.1076 119.425 98.1076C119.116 98.0922 118.81 98.1779 118.554 98.3517C118.628 98.3906 118.689 98.4494 118.731 98.5213C118.772 98.5933 118.793 98.6756 118.79 98.7587C118.79 98.8666 118.747 98.9701 118.671 99.0465C118.595 99.1228 118.491 99.1657 118.383 99.1657C118.325 99.1661 118.268 99.1542 118.215 99.1307C118.162 99.1073 118.115 99.0729 118.077 99.0298C118.038 98.9866 118.009 98.9358 117.992 98.8806C117.975 98.8255 117.969 98.7673 117.976 98.7099C117.976 98.1401 118.758 97.782 119.498 97.782C120.239 97.782 120.906 98.0587 120.906 99.0436V100.985C120.906 101.139 120.963 101.327 121.167 101.327C121.37 101.327 121.427 101.196 121.541 101.058L121.745 101.245ZM120.239 100.399C120.11 100.25 119.952 100.129 119.774 100.045C119.596 99.9612 119.402 99.9153 119.205 99.9104C118.693 99.9104 118.367 100.183 118.367 100.619C118.367 101.054 118.693 101.327 119.205 101.327C119.402 101.322 119.596 101.276 119.774 101.192C119.952 101.108 120.11 100.987 120.239 100.838V100.399Z" fill="#575756"/>
<path d="M126.18 98.1889V101.286L126.221 101.322H126.832V101.611H124.878V101.322H125.489L125.525 101.286V99.7353H123.572V101.286L123.613 101.322H124.227V101.611H122.27V101.322H122.88L122.921 101.286V98.1889L122.88 98.1482H122.27V97.8633H124.227V98.1482H123.613L123.572 98.1889V99.4545H125.525V98.1889L125.489 98.1482H124.878V97.8633H126.832V98.1482H126.221L126.18 98.1889Z" fill="#575756"/>
<path d="M131.447 98.1889V101.286L131.488 101.322H132.102V101.611H130.145V101.322H130.755L130.796 101.286V98.9621L128.842 100.916V101.286L128.883 101.322H129.493V101.611H127.54V101.322H128.15L128.191 101.286V98.1889L128.15 98.1482H127.54V97.8633H129.493V98.1482H128.883L128.842 98.1889V100.509L130.796 98.5551V98.1889L130.755 98.1482H130.145V97.8633H132.102V98.1482H131.488L131.447 98.1889Z" fill="#575756"/>
<path d="M136.001 98.1889V101.286L136.042 101.327H136.652V101.611H134.707V101.335H135.317L135.358 101.294V100.02H135.187C134.994 99.9946 134.798 100.025 134.622 100.108C134.446 100.191 134.297 100.323 134.194 100.488L133.543 101.62H132.619V101.335C132.746 101.326 132.868 101.283 132.973 101.212C133.078 101.14 133.162 101.042 133.217 100.928L133.478 100.443C133.584 100.211 133.777 100.03 134.015 99.9388C133.781 99.8863 133.568 99.7628 133.406 99.5851C133.245 99.4074 133.142 99.1841 133.112 98.9458C133.112 98.2051 133.885 97.8877 134.666 97.8877H136.66V98.1726H136.05L136.001 98.1889ZM135.35 98.1889L135.309 98.1482H134.829C134.243 98.1482 133.869 98.4249 133.869 98.9377C133.869 99.4504 134.235 99.7272 134.829 99.7272H135.35V98.1889Z" fill="#575756"/>
<path d="M71.8344 52.8446C71.6186 52.8446 71.4115 52.9304 71.2589 53.083C71.1063 53.2356 71.0205 53.4427 71.0205 53.6585V61.0694C71.0205 61.2853 71.1063 61.4923 71.2589 61.6449C71.4115 61.7976 71.6186 61.8833 71.8344 61.8833C72.0503 61.8833 72.2573 61.7976 72.41 61.6449C72.5626 61.4923 72.6484 61.2853 72.6484 61.0694V53.6707C72.6484 53.4549 72.5626 53.2478 72.41 53.0952C72.2573 52.9426 72.0503 52.8568 71.8344 52.8568" fill="#D1A13A"/>
<path d="M79.2456 52.8446C79.0297 52.8446 78.8227 52.9304 78.67 53.083C78.5174 53.2356 78.4316 53.4427 78.4316 53.6585V61.0694C78.4316 61.288 78.5185 61.4976 78.673 61.6521C78.8276 61.8067 79.0372 61.8935 79.2557 61.8935C79.4743 61.8935 79.6839 61.8067 79.8385 61.6521C79.993 61.4976 80.0799 61.288 80.0799 61.0694V53.6707C80.0799 53.4549 79.9941 53.2478 79.8415 53.0952C79.6888 52.9426 79.4818 52.8568 79.2659 52.8568" fill="#D1A13A"/>
<path d="M79.2456 41.7305C79.0297 41.7305 78.8227 41.8162 78.67 41.9689C78.5174 42.1215 78.4316 42.3285 78.4316 42.5444V49.9553C78.4316 50.1738 78.5185 50.3834 78.673 50.538C78.8276 50.6925 79.0372 50.7794 79.2557 50.7794C79.4743 50.7794 79.6839 50.6925 79.8385 50.538C79.993 50.3834 80.0799 50.1738 80.0799 49.9553V42.5525C80.0799 42.3367 79.9941 42.1296 79.8415 41.977C79.6888 41.8244 79.4818 41.7386 79.2659 41.7386" fill="#D1A13A"/>
<path d="M86.6567 52.8446C86.4408 52.8446 86.2338 52.9304 86.0812 53.083C85.9285 53.2356 85.8428 53.4427 85.8428 53.6585V61.0694C85.8428 61.288 85.9296 61.4976 86.0841 61.6521C86.2387 61.8067 86.4483 61.8935 86.6669 61.8935C86.8855 61.8935 87.0951 61.8067 87.2496 61.6521C87.4042 61.4976 87.491 61.288 87.491 61.0694V53.6707C87.491 53.4549 87.4052 53.2478 87.2526 53.0952C87.1 52.9426 86.8929 52.8568 86.6771 52.8568" fill="#D1A13A"/>
<path d="M86.6567 41.7305C86.4408 41.7305 86.2338 41.8162 86.0812 41.9689C85.9285 42.1215 85.8428 42.3285 85.8428 42.5444V49.9553C85.8428 50.1738 85.9296 50.3834 86.0841 50.538C86.2387 50.6925 86.4483 50.7794 86.6669 50.7794C86.8855 50.7794 87.0951 50.6925 87.2496 50.538C87.4042 50.3834 87.491 50.1738 87.491 49.9553V42.5525C87.491 42.3367 87.4052 42.1296 87.2526 41.977C87.1 41.8244 86.8929 41.7386 86.6771 41.7386" fill="#D1A13A"/>
<path d="M79.2453 14.7648C79.6126 14.7656 79.972 14.6573 80.2778 14.4537C80.5836 14.2501 80.8221 13.9603 80.963 13.621C81.104 13.2818 81.1411 12.9083 81.0696 12.5479C80.9982 12.1876 80.8213 11.8565 80.5615 11.5968C80.3018 11.337 79.9707 11.1602 79.6104 11.0887C79.25 11.0172 78.8765 11.0543 78.5373 11.1953C78.198 11.3362 77.9082 11.5747 77.7046 11.8805C77.501 12.1863 77.3928 12.5457 77.3936 12.9131C77.3946 13.4038 77.5901 13.8742 77.9371 14.2212C78.2841 14.5682 78.7545 14.7637 79.2453 14.7648Z" fill="#D1A13A"/>
<path d="M78.3298 9.29926H80.1733C80.2845 9.29939 80.3942 9.27422 80.4942 9.22565C80.5942 9.17709 80.6818 9.10641 80.7505 9.01896C80.8191 8.93151 80.8669 8.82958 80.8903 8.72091C80.9137 8.61224 80.9121 8.49967 80.8855 8.39172L79.9576 0.55762C79.9204 0.397317 79.8295 0.254573 79.6999 0.153135C79.5704 0.0516976 79.41 -0.00231739 79.2454 7.62656e-05C79.0826 -0.00101675 78.9243 0.0537241 78.7969 0.155177C78.6696 0.25663 78.5808 0.398667 78.5454 0.55762L77.6257 8.39172C77.5991 8.49967 77.5975 8.61224 77.6209 8.72091C77.6443 8.82958 77.6921 8.93151 77.7608 9.01896C77.8294 9.10641 77.917 9.17709 78.017 9.22565C78.117 9.27422 78.2267 9.29939 78.3379 9.29926" fill="#D1A13A"/>
<path d="M60.7202 38.027C60.5043 38.027 60.2973 38.1127 60.1446 38.2654C59.992 38.418 59.9062 38.625 59.9062 38.8409V42.5443C59.9062 42.7602 59.992 42.9672 60.1446 43.1198C60.2973 43.2725 60.5043 43.3582 60.7202 43.3582C60.9361 43.3582 61.1431 43.2725 61.2957 43.1198C61.4484 42.9672 61.5341 42.7602 61.5341 42.5443V38.8409C61.5341 38.625 61.4484 38.418 61.2957 38.2654C61.1431 38.1127 60.9361 38.027 60.7202 38.027Z" fill="#D1A13A"/>
<path d="M73.69 46.2599C73.6909 46.6271 73.5827 46.9863 73.3793 47.292C73.1758 47.5977 72.8863 47.8362 72.5473 47.9773C72.2083 48.1184 71.835 48.1557 71.4747 48.0846C71.1145 48.0134 70.7834 47.837 70.5235 47.5776C70.2636 47.3183 70.0864 46.9876 70.0145 46.6275C69.9425 46.2674 69.979 45.8941 70.1194 45.5547C70.2597 45.2154 70.4976 44.9253 70.8029 44.7212C71.1081 44.5171 71.4671 44.4082 71.8343 44.4082C72.3258 44.4082 72.7972 44.6032 73.1451 44.9503C73.493 45.2974 73.689 45.7684 73.69 46.2599Z" fill="#D1A13A"/>
<path d="M43.0178 71.7848V61.9036H48.7805V71.7848H50.4084V65.6111H60.6558C60.8568 65.6151 61.0528 65.5485 61.2097 65.4228C61.3666 65.2971 61.4745 65.1204 61.5145 64.9233C61.5362 64.8049 61.5313 64.6831 61.5002 64.5667C61.4692 64.4504 61.4127 64.3424 61.3348 64.2505C61.2569 64.1586 61.1597 64.0852 61.05 64.0354C60.9403 63.9857 60.8209 63.9609 60.7005 63.9629H50.4287V58.1962H60.6761C60.8771 58.2002 61.0732 58.1336 61.2301 58.0079C61.387 57.8822 61.4948 57.7054 61.5348 57.5084C61.5565 57.3899 61.5516 57.2682 61.5206 57.1518C61.4895 57.0354 61.433 56.9274 61.3551 56.8356C61.2773 56.7437 61.18 56.6702 61.0703 56.6205C60.9606 56.5708 60.8413 56.546 60.7209 56.548H50.4287V54.4928H63.6022V71.7848H65.2504V39.6711H93.2456V71.7848H94.8735V38.0269H87.4993V32.2602H100.673V34.3195H97.824C97.6241 34.3154 97.429 34.3816 97.2729 34.5066C97.1167 34.6315 97.0093 34.8072 96.9694 35.0032C96.947 35.1219 96.9513 35.2442 96.9821 35.361C97.0129 35.4779 97.0693 35.5864 97.1472 35.6788C97.2251 35.7711 97.3226 35.845 97.4327 35.895C97.5427 35.9449 97.6625 35.9698 97.7833 35.9677H100.665V41.7303H97.8159C97.6159 41.7263 97.4209 41.7925 97.2647 41.9174C97.1086 42.0423 97.0012 42.2181 96.9612 42.414C96.9389 42.5328 96.9432 42.655 96.974 42.7719C97.0047 42.8887 97.0611 42.9973 97.139 43.0896C97.217 43.182 97.3145 43.2558 97.4245 43.3058C97.5346 43.3558 97.6543 43.3806 97.7752 43.3785H100.656V49.1412H96.949V71.7848H98.5972V50.7894H108.067V71.7848H109.695V58.1962H115.462V60.2514H112.613C112.413 60.2475 112.217 60.3143 112.061 60.44C111.905 60.5658 111.798 60.7424 111.759 60.9391C111.737 61.0576 111.742 61.1794 111.773 61.2957C111.804 61.4121 111.86 61.5201 111.938 61.612C112.016 61.7038 112.113 61.7773 112.223 61.827C112.333 61.8768 112.452 61.9015 112.572 61.8996H115.454V63.9588H112.605C112.405 63.9548 112.21 64.021 112.054 64.1459C111.898 64.2708 111.79 64.4466 111.75 64.6425C111.728 64.7613 111.732 64.8835 111.763 65.0004C111.794 65.1173 111.85 65.2258 111.928 65.3181C112.006 65.4105 112.104 65.4843 112.214 65.5343C112.324 65.5843 112.444 65.6091 112.564 65.607H115.446V67.6622H112.597C112.396 67.6584 112.201 67.7252 112.045 67.8509C111.888 67.9766 111.781 68.1533 111.742 68.35C111.721 68.4684 111.725 68.5902 111.756 68.7066C111.788 68.8229 111.844 68.931 111.922 69.0228C112 69.1147 112.097 69.1882 112.207 69.2379C112.316 69.2876 112.436 69.3124 112.556 69.3104H115.438V71.7807H117.065V57.3822C117.065 57.1664 116.98 56.9593 116.827 56.8067C116.674 56.6541 116.467 56.5683 116.251 56.5683H109.711V49.9632C109.711 49.7474 109.626 49.5404 109.473 49.3877C109.32 49.2351 109.113 49.1493 108.898 49.1493H102.301V31.4381C102.301 31.2223 102.215 31.0152 102.062 30.8626C101.91 30.71 101.703 30.6242 101.487 30.6242H87.4993V27.7347C87.4993 27.5189 87.4135 27.3118 87.2609 27.1592C87.1082 27.0066 86.9012 26.9208 86.6853 26.9208H83.511C81.9727 23.3029 81.9523 16.6978 81.9523 16.6286C81.9523 16.4128 81.8666 16.2057 81.7139 16.0531C81.5613 15.9005 81.3542 15.8147 81.1384 15.8147H77.4309C77.215 15.8147 77.008 15.9005 76.8554 16.0531C76.7027 16.2057 76.617 16.4128 76.617 16.6286C76.617 16.6978 76.5966 23.2988 75.0583 26.9208H71.8799C71.664 26.9208 71.457 27.0066 71.3044 27.1592C71.1517 27.3118 71.066 27.5189 71.066 27.7347V34.3195H57.0175C56.8016 34.3195 56.5946 34.4052 56.4419 34.5579C56.2893 34.7105 56.2036 34.9175 56.2036 35.1334V52.8364H49.6066C49.3908 52.8364 49.1837 52.9222 49.0311 53.0748C48.8784 53.2275 48.7927 53.4345 48.7927 53.6504V60.2351H42.1958C41.9799 60.2351 41.7729 60.3208 41.6202 60.4735C41.4676 60.6261 41.3818 60.8331 41.3818 61.049V71.7522L43.0178 71.7848ZM78.2042 17.4385H80.2919C80.3407 19.2739 80.5849 23.7343 81.7163 26.9086H76.7757C77.9071 23.7343 78.1512 19.2739 78.2042 17.4385ZM72.6613 28.5568H85.8348V38.0269H83.7755V31.4829C83.7797 31.2825 83.7137 31.0869 83.5888 30.93C83.4639 30.7732 83.2881 30.665 83.0918 30.6242C82.9731 30.6018 82.8508 30.6062 82.734 30.6369C82.6171 30.6677 82.5085 30.7241 82.4162 30.802C82.3238 30.88 82.25 30.9775 82.2 31.0875C82.1501 31.1975 82.1252 31.3173 82.1273 31.4381V38.0269H80.0721V35.1782C80.076 34.9776 80.0092 34.7822 79.8835 34.6259C79.7577 34.4697 79.5811 34.3626 79.3844 34.3235C79.2659 34.3018 79.1441 34.3067 79.0278 34.3378C78.9114 34.3688 78.8034 34.4253 78.7115 34.5032C78.6196 34.5811 78.5462 34.6783 78.4965 34.788C78.4467 34.8977 78.4219 35.017 78.4239 35.1375V38.0229H76.3647V31.4829C76.3696 31.2847 76.3059 31.0909 76.1842 30.9344C76.0626 30.7779 75.8905 30.6683 75.6972 30.6242C75.5788 30.6025 75.457 30.6074 75.3406 30.6384C75.2243 30.6695 75.1163 30.726 75.0244 30.8039C74.9325 30.8817 74.8591 30.979 74.8093 31.0887C74.7596 31.1984 74.7348 31.3177 74.7368 31.4381V38.0269H72.6776L72.6613 28.5568ZM57.8396 35.9677H71.0131V38.0269H63.6022V52.8446H61.543V46.3046C61.5479 46.104 61.4822 45.908 61.3572 45.751C61.2322 45.594 61.0559 45.486 60.8592 45.4459C60.7408 45.4242 60.619 45.4291 60.5026 45.4602C60.3863 45.4912 60.2783 45.5477 60.1864 45.6256C60.0945 45.7035 60.0211 45.8007 59.9713 45.9104C59.9216 46.0201 59.8968 46.1394 59.8988 46.2599V52.8446H57.8396V35.9677Z" fill="#D1A13A"/>
<path d="M46.7206 71.7848V64.785C46.7206 64.5691 46.6349 64.3621 46.4822 64.2095C46.3296 64.0568 46.1226 63.9711 45.9067 63.9711C45.6908 63.9711 45.4838 64.0568 45.3312 64.2095C45.1785 64.3621 45.0928 64.5691 45.0928 64.785V71.7848H46.7206Z" fill="#D1A13A"/>
<path d="M72.6611 71.7848V64.785C72.6611 64.5691 72.5753 64.3621 72.4227 64.2095C72.27 64.0568 72.063 63.9711 71.8471 63.9711C71.6313 63.9711 71.4242 64.0568 71.2716 64.2095C71.119 64.3621 71.0332 64.5691 71.0332 64.785V71.7848H72.6611Z" fill="#D1A13A"/>
<path d="M80.0711 71.7849V64.785C80.0711 64.5665 79.9842 64.3569 79.8297 64.2023C79.6751 64.0478 79.4655 63.9609 79.247 63.9609C79.0284 63.9609 78.8188 64.0478 78.6642 64.2023C78.5097 64.3569 78.4229 64.5665 78.4229 64.785V71.7849H80.0711Z" fill="#D1A13A"/>
<path d="M87.4988 71.7849V64.785C87.4988 64.5665 87.412 64.3569 87.2574 64.2023C87.1029 64.0478 86.8933 63.9609 86.6747 63.9609C86.4561 63.9609 86.2465 64.0478 86.092 64.2023C85.9374 64.3569 85.8506 64.5665 85.8506 64.785V71.7849H87.4988Z" fill="#D1A13A"/>
<path d="M102.3 71.7848V53.6707C102.3 53.4549 102.214 53.2478 102.061 53.0952C101.909 52.9426 101.702 52.8568 101.486 52.8568C101.27 52.8568 101.063 52.9426 100.91 53.0952C100.758 53.2478 100.672 53.4549 100.672 53.6707V71.7848H102.3Z" fill="#D1A13A"/>
<path d="M106.008 71.7849V53.6708C106.008 53.4522 105.921 53.2426 105.766 53.0881C105.612 52.9335 105.402 52.8467 105.183 52.8467C104.965 52.8467 104.755 52.9335 104.601 53.0881C104.446 53.2426 104.359 53.4522 104.359 53.6708V71.7849H106.008Z" fill="#D1A13A"/>
</svg>
