<svg width="94" height="94" viewBox="0 0 94 94" fill="none" xmlns="http://www.w3.org/2000/svg">
<path fill-rule="evenodd" clip-rule="evenodd" d="M32.8625 20.952H34.4659L34.4938 27.3906L35.7789 24.1623C36.0054 23.5895 36.2024 23.0823 36.4354 22.5063C37.1855 20.609 36.634 20.9635 38.7725 20.9898L36.5881 26.6061C36.1728 27.6794 36.2598 27.4267 36.5634 28.5756C37.2889 31.2836 37.9454 34.0606 38.6971 36.7653H37.0082L35.2209 30.0838C34.6169 31.2852 34.4643 31.8564 34.4643 33.0496V36.7719H32.8247L32.8625 20.952ZM47.9077 20.9619C48.7742 20.9093 51.5299 20.8552 52.1913 21.126C53.4386 21.6397 53.5781 22.5818 53.5781 24.1918C53.5781 25.5573 53.8046 27.2626 53.1038 28.244C52.403 29.2255 51.0014 29.0876 49.5013 29.0876V36.7735L47.8798 36.7555L47.9077 20.9619ZM42.1387 21.0406C42.7279 20.888 44.1673 20.888 44.7138 21.0866C45.0161 21.2093 45.2906 21.3917 45.5207 21.6229C45.7508 21.8542 45.9319 22.1295 46.0531 22.4324C46.3107 23.1628 46.1909 31.5265 46.1909 32.9757C46.1909 34.2887 46.465 36.1433 44.5694 36.6783C44.0376 36.8277 42.5129 36.8326 42.014 36.6783C41.6994 36.5815 41.411 36.414 41.1709 36.1887C40.9309 35.9635 40.7454 35.6863 40.6288 35.3785C40.3416 34.6563 40.4745 26.2499 40.4745 24.7958C40.4745 24.0047 40.3531 22.9757 40.6731 22.2995C40.8032 21.9913 41.0034 21.7178 41.2579 21.5006C41.5123 21.2835 41.8139 21.1288 42.1387 21.0488V21.0406ZM55.7708 21.0767H58.8186L65.4311 46.0957C65.4413 46.0793 65.4507 46.0623 65.459 46.0449C65.6363 45.6739 66.1008 43.6634 66.2797 42.9954L68.73 33.6109C69.7755 29.4044 70.949 25.3029 71.9977 21.0899H75.0849V54.1181L71.7335 54.1362C71.7335 51.9221 71.7958 36.332 71.699 35.5032L66.859 54.1362H64.0164C63.6881 52.6147 63.2171 51.0309 62.8216 49.5112C62.426 47.9914 62.0141 46.4502 61.6202 44.9075C60.898 42.0747 60.0348 39.0335 59.3618 36.227C59.3077 35.9972 59.2519 35.7806 59.1419 35.71V54.1082L55.7692 54.1197L55.7708 21.0767ZM20.5991 38.6724H22.1567C22.3208 39.2961 22.1091 43.8801 22.2158 45.1668H24.653L24.6842 38.6724H26.2581L26.2483 54.4644L24.6694 54.4529C24.5627 53.0546 24.781 47.3841 24.6087 46.7801L22.2043 46.79L22.1797 54.4693L20.5795 54.4381L20.5991 38.6724ZM27.9847 54.471C27.8386 53.2203 27.9617 51.1376 27.9617 49.7984C27.9617 48.4591 27.8698 41.1425 28.0077 40.4433C28.1332 39.883 28.4641 39.39 28.935 39.0614C29.7917 38.4558 32.0271 38.551 32.7443 39.0926C33.2035 39.4429 33.5164 39.9511 33.6223 40.5188C33.7865 41.561 33.6453 43.9999 33.6453 45.1881C33.6453 46.895 33.7323 53.327 33.6289 54.4775L32.0435 54.448V46.7851H29.5915L29.58 54.4644L27.9847 54.471ZM15.746 49.6441C17.2871 49.1878 18.4754 50.2202 18.7856 51.3296C18.8771 51.6467 18.904 51.9789 18.8646 52.3066C18.8252 52.6343 18.7203 52.9507 18.5562 53.237C18.392 53.5233 18.172 53.7737 17.9092 53.9733C17.6463 54.1728 17.3461 54.3175 17.0262 54.3988C13.9686 55.1734 12.5702 50.5862 15.746 49.6392V49.6441ZM46.8704 38.6971C48.6872 38.4066 50.12 38.8103 50.5911 40.2185C50.7913 40.8225 50.6912 49.544 50.6912 50.9095C50.6912 52.0928 50.9046 54.0623 48.8481 54.4332C47.4892 54.6778 45.5312 54.5383 45.0732 52.8822C44.8697 52.147 44.9797 43.67 44.9797 42.2011C44.9797 40.9357 44.8156 39.0269 46.872 38.6971H46.8704ZM35.3834 52.9364C36.1548 52.9364 36.5897 52.9955 36.6143 52.1782C36.6718 50.2431 36.5044 39.2354 36.657 38.6626L42.3455 38.6724V52.9331L43.2958 52.9643L43.2761 56.0072H41.6857L41.6595 54.5744H36.9852V55.9825H35.3637L35.3834 52.9364ZM50.0971 69.2601C49.3815 69.2601 47.8158 69.2257 47.3299 69.5194C48.0275 71.077 51.1048 69.8625 51.1048 72.1996C51.1048 74.0525 48.6101 74.133 46.8983 74.2134C43.6979 74.3644 39.3486 73.721 37.3086 71.3658C36.7702 70.7471 36.5241 70.2892 35.6673 69.8723C34.4036 69.2519 33.1579 69.357 31.8121 69.4489C32.1403 70.4435 32.3816 70.5157 33.4533 70.7619C34.2526 70.944 34.9206 71.3987 35.0371 72.2176C35.3276 74.2446 32.8887 74.4547 31.19 74.4547C28.0356 74.4547 24.5004 73.634 21.9794 71.96C20.4416 70.9375 19.0974 69.5851 18.2505 67.8749C16.7324 64.8091 16.5404 59.5375 16.6208 55.9628L19.7999 56.0416C19.7556 59.4767 19.8278 64.5564 21.4838 67.0921C22.8329 69.1567 25.5606 70.7028 28.9924 71.1032C28.5001 69.4079 28.3983 68.9286 28.674 67.2283L28.7791 66.8689C28.9301 66.5144 32.2929 66.191 33.1251 66.191C35.1668 66.191 37.7369 66.8836 38.9711 68.364C39.6654 69.1945 39.9132 69.677 41.1474 70.2055C42.1922 70.6382 43.3013 70.8955 44.4299 70.967C44.2214 70.1858 43.9457 69.8017 43.9457 68.7776C43.9457 67.1626 44.0902 67.0494 45.7248 66.5751C51.6989 64.8452 57.6254 68.2754 65.0241 65.6199C68.1769 64.4874 70.3532 62.4917 71.4069 59.5719C71.9091 58.1834 71.8467 57.4974 72.0355 56.0318L75.2014 55.9661C75.2014 61.3822 72.303 65.8644 67.4761 68.0801C65.0586 69.1896 62.2685 69.7394 59.3257 69.8559C56.1664 69.9823 53.2532 69.27 50.0971 69.27V69.2601ZM32.137 61.1327C32.1128 60.8051 32.1057 60.4764 32.1157 60.148C32.1075 59.5769 31.9631 59.4751 32.4735 59.4603V60.0823C32.7032 59.921 32.8912 59.7072 33.0217 59.4587L33.4697 59.4866C33.2715 59.7427 33.0325 59.9645 32.7623 60.1431C32.9265 60.4992 33.3368 60.7717 33.4943 61.1475H33.0217C32.8988 60.8773 32.7138 60.64 32.4817 60.4549L32.4292 61.1606L32.137 61.1327ZM53.5158 60.189C53.288 59.9724 53.0889 59.7275 52.9233 59.4603C53.6356 59.4456 53.1678 59.4899 53.8161 60.0823V59.4554C54.274 59.4702 54.0721 59.4406 54.1444 59.6343C54.2363 59.8739 54.1148 59.8444 54.2986 60.0462C54.4349 59.736 54.558 59.4127 55.0552 59.4817C54.8911 59.7393 54.6728 59.9609 54.4874 60.2202C54.6302 60.5304 55.0142 60.9095 55.0618 61.1524C54.7155 61.1524 54.7089 61.1656 54.5366 60.9177C54.3643 60.6699 54.4496 60.7093 54.1575 60.4779L54.1345 61.1344L53.8342 61.1475L53.8013 60.4451C53.1629 61.223 53.4731 61.1508 52.9134 61.1426C53.0776 60.7306 53.3877 60.5567 53.5141 60.1841L53.5158 60.189ZM65.441 59.4636C66.0335 59.4275 65.83 59.5342 66.0975 59.91C66.493 59.5621 66.0975 59.4505 66.8081 59.4505C66.644 59.8378 66.4372 59.9428 66.3272 60.3253C66.5595 60.5571 66.7377 60.8373 66.8492 61.1459C66.1549 61.1459 66.4782 60.8964 66.0827 60.5928C65.9823 60.7936 65.8571 60.9811 65.7101 61.1508H65.3819C65.4098 60.9194 65.7577 60.5271 65.9137 60.2777L65.441 59.4636ZM27.599 60.7257C27.599 61.054 27.5383 61.3822 26.8457 61.1344C25.7674 60.7569 26.4026 58.899 27.5875 59.5293V59.8969C27.2675 59.7328 27.3594 59.718 26.9097 59.7705C26.5667 59.9593 26.3221 61.2132 27.5925 60.7257H27.599ZM28.0733 59.7525C27.6909 59.7525 27.7451 59.8378 27.7008 59.5473L27.7943 59.4915C27.8119 59.4831 27.83 59.476 27.8485 59.4702L27.9109 59.457H28.8004C28.7823 59.8509 28.8628 59.7574 28.4278 59.7574C28.455 60.2236 28.4434 60.6914 28.3934 61.1557L28.0799 61.1442L28.0733 59.7525ZM36.506 61.1524L36.2106 61.1295V59.7525C35.7757 59.7525 35.8659 59.8542 35.838 59.4521H36.9393C36.9163 59.8509 36.9951 59.7525 36.547 59.7525C36.5744 60.2193 36.5624 60.6876 36.5109 61.1524H36.506ZM47.4892 61.1098C47.4892 60.5698 47.6927 61.0474 47.7911 60.4385C47.8156 60.1108 47.82 59.782 47.8043 59.4538L48.9613 59.4718V60.8521L49.4406 60.8225L49.4997 59.4488L50.6764 59.4718L50.6452 61.1393H50.3433L50.3186 59.7426H49.8542C49.8542 60.7011 49.9789 61.1524 49.1468 61.1541C49.1468 61.7318 48.835 61.7219 48.8284 61.1393L47.8075 61.1672C47.8075 61.5759 47.8798 61.4955 47.5646 61.5299C47.4662 61.3838 47.4892 61.5299 47.4892 61.0999V61.1098ZM61.1409 61.1327H60.839L60.8143 59.736C60.3794 59.736 60.4582 59.8296 60.4418 59.4357C60.7372 59.4357 61.3231 59.3471 61.5414 59.5309C61.5004 59.8214 61.5513 59.7328 61.1721 59.736L61.1409 61.1327ZM30.6911 59.4784C31.3919 59.3963 31.7546 59.4784 31.6496 60.084C31.6118 60.2974 31.5807 60.1693 31.7136 60.3712C32.206 61.1016 31.3213 61.1787 30.696 61.1426L30.6911 59.4784ZM39.1385 59.4554C39.6309 59.4554 39.6654 59.416 40.0675 59.5949C40.1479 59.892 40.1479 59.9986 40.0117 60.2366C40.2644 60.4007 40.3859 60.5386 40.2201 60.8931C40.0544 61.2476 39.6637 61.1492 39.173 61.1508L39.1402 60.8866L39.1385 59.4554ZM45.6346 59.4554H46.0071C46.5668 59.4554 46.7654 59.7689 46.5192 60.2202C47.3234 61.0408 46.3682 61.1524 45.6608 61.1524L45.6263 60.8898L45.6346 59.4554ZM55.8102 60.3515C55.8252 60.3387 55.8395 60.325 55.8529 60.3105C56.2944 59.8624 56.2944 59.4341 56.7867 59.4127C56.8323 59.9915 56.8252 60.5733 56.7654 61.1508L56.47 61.1278L56.4585 60.1283L56.4093 60.166L56.273 60.2809C55.8184 60.7208 55.843 61.1492 55.3113 61.182V59.4554C55.7675 59.4702 55.6494 59.329 55.6494 60.473L55.8102 60.3515ZM57.179 59.4554C57.5992 59.4554 58.492 59.4242 58.0636 60.2202C58.3065 60.4828 58.3508 60.468 58.2918 60.9194C57.87 61.2329 57.7994 61.1524 57.2053 61.1524L57.179 60.8898V59.4554ZM42.2717 59.4554H42.7378C43.6011 59.4554 43.7225 60.514 42.6557 60.537L42.6327 60.6666L42.6098 61.1393L42.3061 61.1541L42.2717 60.8898V59.4554ZM52.1076 60.8225C52.0715 61.2411 52.1568 61.0195 51.9681 61.1508C51.6283 61.0704 51.7859 60.9686 51.7432 60.5288C51.3526 60.8685 51.5791 61.1541 50.9226 61.1475C51.0414 60.9162 51.1815 60.6964 51.3411 60.491C50.9325 60.2317 50.5927 59.3339 52.1027 59.4784C52.1027 59.7754 52.1027 60.0725 52.1027 60.3696C52.1027 60.4795 52.1174 60.729 52.1027 60.8225H52.1076ZM61.7597 61.1508C61.7251 60.8188 61.7153 60.4847 61.7301 60.1513C61.7203 59.5752 61.5792 59.4718 62.0879 59.4636V60.1201H62.774C62.774 59.5506 62.6099 59.4767 63.1334 59.4636L63.094 61.1623L62.7855 61.1508L62.774 60.4155H62.0879L62.0518 61.1623L61.7597 61.1508ZM59.1534 59.4784C60.34 59.0467 60.816 60.8521 59.7328 61.1475C59.1698 61.3018 58.7021 61.0408 58.5642 60.6092C58.3804 60.0397 58.6217 59.6737 59.1534 59.4784ZM37.732 59.4406C38.9793 59.1485 39.2485 60.9095 38.2244 61.1606C36.8999 61.4889 36.6012 59.7049 37.732 59.4406ZM44.2182 59.4406C45.4343 59.1436 45.7609 60.8964 44.7105 61.1524C43.4255 61.4659 43.0841 59.7164 44.2182 59.4406ZM24.9074 59.4636C26.1121 59.0763 26.5027 60.8357 25.4917 61.1409C24.5726 61.4183 24.0146 60.5419 24.3658 59.8657C24.502 59.6048 24.6415 59.5489 24.9074 59.4636ZM28.8464 61.1459C28.871 60.9145 29.109 60.4336 29.2189 60.1759C29.5472 59.4176 29.406 59.4357 29.8065 59.4062L30.4876 61.1065C30.1593 61.2443 30.1003 61.0671 30.028 60.7914C29.109 60.7914 29.4323 60.7717 29.2895 60.9177C29.0581 61.1524 29.365 61.1459 28.8464 61.1459ZM33.5649 61.1459C33.6437 60.8718 34.1443 59.4357 34.397 59.4226C34.6498 59.4094 35.1602 60.8816 35.2176 61.1459C35.1442 61.1553 35.0696 61.148 34.9993 61.1245C34.7696 61.0507 34.7548 60.6322 34.1672 60.7963C33.7257 61.0523 34.3018 61.1459 33.5616 61.1492L33.5649 61.1459ZM40.44 61.1492C40.44 61.0704 40.9521 59.439 41.2442 59.4226C41.5364 59.4062 42.037 61.0523 42.037 61.1492C41.6595 61.1492 41.8433 61.1951 41.6841 61.0343C41.6841 61.0343 41.5643 60.6469 41.0145 60.7946C40.614 61.0277 41.0752 61.1442 40.44 61.1492ZM63.4748 59.4521C64.023 59.4669 63.7784 59.5128 63.8605 60.0676C64.2659 60.1825 64.8025 60.1447 64.622 60.7979C64.5006 61.2427 63.9967 61.1492 63.4863 61.1492L63.4748 59.4521ZM22.4981 60.9604C22.7114 60.4976 22.8165 61.2017 22.8132 59.4669L23.962 59.4521C23.962 61.3756 24.1442 60.6223 24.1623 61.1902C24.1738 61.5792 23.8209 61.8565 23.8127 61.1492H22.8132C22.8132 61.5513 22.9018 61.548 22.5046 61.525L22.4981 60.9604ZM45.4737 0H47.8404C49.6209 0.0414428 51.3975 0.186114 53.1613 0.433286C54.7507 0.661299 56.3268 0.973574 57.8831 1.36879C59.3504 1.73251 60.7982 2.17074 62.2209 2.68178C65.5181 3.86839 68.7399 5.36684 71.6531 7.31827C72.2341 7.7056 72.7921 8.04698 73.3419 8.45893C75.1013 9.77192 77.2103 11.3541 78.7744 12.9264L79.444 13.5976L82.1471 16.5519L86.2962 22.2962C87.1968 23.7677 88.0095 25.2913 88.7301 26.8588L90.3714 30.87C91.988 35.1979 92.8644 39.9395 93.04 44.6859V48.2556C92.9805 49.8934 92.8359 51.527 92.6067 53.1498C91.7139 59.4505 89.5195 65.3704 86.2633 70.775C85.3932 72.2344 84.4282 73.6352 83.3748 74.9684C83.163 75.2342 82.9759 75.505 82.7511 75.7578L81.1099 77.6945C80.2187 78.6595 79.3275 79.6492 78.3198 80.4846C78.1885 80.5962 78.1031 80.6946 77.9817 80.8128L77.2365 81.4824C76.9961 81.7145 76.7436 81.9336 76.4799 82.1389L70.7373 86.2962C70.409 86.4915 70.1842 86.6343 69.8461 86.8197C68.6135 87.4926 67.4597 88.1573 66.1746 88.7301C63.4831 89.9606 60.6874 90.9492 57.8207 91.6843C53.0185 92.8857 50.0741 93.04 45.1077 93.04C38.633 93.04 30.6895 90.89 24.9599 87.8045C22.5637 86.5161 20.2003 85.0751 18.0766 83.3731C17.8107 83.1614 17.5399 82.9743 17.2871 82.7478C17.0344 82.5213 16.7816 82.326 16.5125 82.1077L14.2787 80.1136L13.6026 79.4358L10.8994 76.4816C10.6762 76.1976 10.4875 75.9744 10.2561 75.7118C10.1281 75.5674 10.0575 75.4542 9.92783 75.29C8.81015 73.8031 7.69904 72.3358 6.74548 70.7307C5.49486 68.6299 4.35584 66.5111 3.44659 64.2183C3.1643 63.5092 2.94109 62.8889 2.67029 62.1651C2.15258 60.7429 1.71425 59.2931 1.3573 57.8224C0.154276 53.0201 0 50.0757 0 45.1094C0 39.562 1.45578 33.8193 3.46629 28.7741C3.92091 27.6351 4.63485 25.984 5.24211 24.9681C6.39097 23.0364 6.94243 21.7382 8.46549 19.7047C9.07603 18.8841 9.61436 18.0437 10.2922 17.2888C11.1817 16.304 11.9909 15.2077 12.9329 14.2722L16.5568 10.8994C18.2341 9.58646 19.5996 8.51473 21.4378 7.28873L23.1989 6.22192C26.3287 4.5134 27.3824 3.97015 30.8815 2.66373C32.3039 2.14677 33.7536 1.70844 35.2242 1.35074C38.5811 0.527672 42.0181 0.0747261 45.4737 0V0ZM64.8058 61.1426C64.7702 60.8365 64.7609 60.5279 64.7779 60.2202C64.7779 59.4308 64.6499 59.4554 65.1324 59.4554C65.1324 59.9986 65.1817 60.6256 65.0963 61.1541L64.8058 61.1426Z" fill="#A13189"/>
<path fill-rule="evenodd" clip-rule="evenodd" d="M55.7705 54.1132L59.1432 54.1017V35.7035C59.2532 35.7741 59.3074 35.9907 59.3632 36.2205C60.0361 39.027 60.8994 42.0682 61.6215 44.901C62.0154 46.4437 62.4241 47.9685 62.8229 49.5046C63.2217 51.0408 63.6845 52.6082 64.0177 54.1297H66.8603L71.7053 35.4967C71.8021 36.3255 71.7397 51.9091 71.7397 54.1297L75.0911 54.1116V21.0834H72.0023C70.9536 25.2964 69.7801 29.3979 68.7346 33.6044L66.2843 42.9889C66.1004 43.6569 65.636 45.6674 65.4636 46.0384C65.4636 46.0498 65.4456 46.0728 65.4341 46.0892L58.8183 21.0686H55.7705V54.1132Z" fill="white"/>
<path fill-rule="evenodd" clip-rule="evenodd" d="M50.0971 69.2602C53.2483 69.2602 56.1697 69.9725 59.3258 69.8461C62.2685 69.7296 65.0586 69.1798 67.4762 68.0703C72.303 65.8596 75.2015 61.3823 75.2015 55.9662L72.0355 56.0368C71.8468 57.5024 71.9091 58.1884 71.4069 59.5769C70.3532 62.4967 68.177 64.4924 65.0242 65.6249C57.6255 68.2755 51.699 64.8453 45.7331 66.5768C44.0918 67.0511 43.954 67.1643 43.954 68.7793C43.954 69.8034 44.2297 70.1875 44.4381 70.9687C43.3095 70.8972 42.2005 70.6399 41.1557 70.2072C39.9214 69.6721 39.6785 69.1962 38.9794 68.3657C37.7452 66.8886 35.175 66.1927 33.1333 66.1927C32.3012 66.1927 28.9383 66.521 28.7873 66.8706L28.6823 67.23C28.4065 68.9303 28.5017 69.4095 29.0007 71.1049C25.5688 70.7094 22.8411 69.1584 21.492 67.0938C19.836 64.5581 19.7638 59.4784 19.8081 56.0433L16.6208 55.9662C16.5404 59.5408 16.7324 64.8124 18.2506 67.8783C19.0975 69.5884 20.4416 70.9408 21.9795 71.9633C24.5004 73.639 28.0356 74.458 31.1901 74.458C32.8888 74.458 35.3276 74.2479 35.0388 72.221C34.9206 71.4004 34.2526 70.9474 33.4533 70.7652C32.3865 70.5223 32.1535 70.4501 31.8121 69.4522C33.1579 69.3603 34.4036 69.2553 35.6674 69.8757C36.5175 70.2925 36.7637 70.7504 37.3086 71.3692C39.3552 73.7309 43.6979 74.3677 46.8983 74.2167C48.6101 74.1363 51.1048 74.0526 51.1048 72.2029C51.1048 69.8658 48.0292 71.0803 47.33 69.5228C47.8224 69.229 49.3815 69.2635 50.0971 69.2635" fill="white"/>
<path fill-rule="evenodd" clip-rule="evenodd" d="M35.3755 52.9413L35.3574 55.9956H36.979V54.5875H41.645L41.6713 56.0203H43.2616L43.2813 52.9774L42.331 52.9462V38.6773L36.6425 38.6675C36.4899 39.2403 36.6573 50.248 36.5998 52.1831C36.5752 53.0037 36.1403 52.9413 35.3689 52.9413H35.3755ZM38.2197 40.271H40.7111V52.9413H38.1607L38.2263 52.2536L38.2197 40.271Z" fill="white"/>
<path fill-rule="evenodd" clip-rule="evenodd" d="M46.87 38.702C44.8152 39.0302 44.9761 40.9406 44.9761 42.206C44.9761 43.6749 44.8677 52.1502 45.0713 52.8872C45.5308 54.5432 47.4888 54.6827 48.8461 54.4381C50.9026 54.0672 50.6892 52.0977 50.6892 50.9144C50.6892 49.5489 50.7893 40.8274 50.5875 40.2234C50.1181 38.8152 48.6853 38.418 46.8684 38.702H46.87ZM46.596 41.09C46.596 40.4761 46.7995 40.2693 47.4166 40.2693C48.252 40.2693 49.0709 40.1167 49.0709 41.0128V52.1043C49.0709 52.6246 48.8297 52.8494 48.3094 52.8494C47.2574 52.8494 46.5976 53.0135 46.5976 52.1043L46.596 41.09Z" fill="white"/>
<path fill-rule="evenodd" clip-rule="evenodd" d="M42.1383 21.0406C41.8134 21.1203 41.5117 21.275 41.2572 21.4921C41.0027 21.7093 40.8025 21.9829 40.6727 22.2912C40.3526 22.9658 40.4741 23.9965 40.4741 24.7875C40.4741 26.2417 40.3411 34.6481 40.6284 35.3702C40.745 35.6781 40.9304 35.9552 41.1705 36.1805C41.4106 36.4058 41.6989 36.5732 42.0136 36.6701C42.5059 36.8342 44.0372 36.8342 44.569 36.6701C46.4646 36.135 46.1889 34.2854 46.1889 32.9675C46.1889 31.5183 46.3103 23.1545 46.0526 22.4242C45.9315 22.1213 45.7504 21.8459 45.5203 21.6147C45.2901 21.3834 45.0157 21.201 44.7134 21.0784C44.1669 20.8781 42.7259 20.8781 42.1383 21.0324V21.0406ZM42.5765 22.5899C42.8933 22.498 44.0323 22.5013 44.2932 22.69C44.6937 22.9789 44.5673 23.6535 44.5673 24.2591V33.6453C44.5673 34.2772 44.6904 34.9222 44.18 35.0994C43.8796 35.2045 42.5864 35.1848 42.3599 35.0535C41.966 34.8253 42.0956 33.9522 42.0956 33.4221V24.0424C42.0956 23.3744 41.9315 22.7803 42.5765 22.5981" fill="white"/>
<path fill-rule="evenodd" clip-rule="evenodd" d="M32.8252 36.7719H34.4664V33.0496C34.4664 31.8564 34.6191 31.2853 35.223 30.0839L37.0087 36.7637H38.686C37.9376 34.059 37.2812 31.282 36.5524 28.5739C36.2439 27.4251 36.1618 27.6762 36.5771 26.6045L38.7615 20.9865C36.6279 20.9619 37.1745 20.6074 36.4244 22.5047C36.1963 23.0807 35.9993 23.5879 35.7679 24.1607L34.4812 27.389L34.4664 20.952H32.8679L32.8252 36.7719Z" fill="white"/>
<path fill-rule="evenodd" clip-rule="evenodd" d="M20.5791 54.4431L22.1793 54.4743L22.2039 46.7949L24.6083 46.7851C24.7807 47.389 24.5624 53.0579 24.6691 54.4578L26.2479 54.4693L26.2578 38.6774H24.6838L24.6526 45.1717H22.2154C22.1087 43.8834 22.3221 39.301 22.1563 38.6774H20.5988L20.5791 54.4431Z" fill="white"/>
<path fill-rule="evenodd" clip-rule="evenodd" d="M47.8799 36.7538L49.5014 36.7735V29.0876C51.0015 29.0876 52.4015 29.2271 53.1039 28.244C53.8064 27.2609 53.5783 25.5573 53.5783 24.1918C53.5783 22.5818 53.4387 21.6397 52.1914 21.126C51.5349 20.8552 48.7744 20.9093 47.9078 20.9619L47.8799 36.7538ZM49.5211 22.5736C52.303 22.5736 51.9567 22.2207 51.9567 25.0108C51.9567 27.8009 52.3014 27.4726 49.4949 27.4726L49.5211 22.5736Z" fill="white"/>
<path fill-rule="evenodd" clip-rule="evenodd" d="M38.2258 52.2553L38.1602 52.943L40.7221 52.9413L40.7172 40.271H38.2258V52.2553Z" fill="#A13189"/>
<path fill-rule="evenodd" clip-rule="evenodd" d="M42.5765 22.5981C41.9397 22.7803 42.0956 23.3744 42.0956 24.0424V33.4221C42.0956 33.9522 41.966 34.8253 42.3599 35.0535C42.5864 35.1848 43.8797 35.2045 44.18 35.0994C44.6904 34.9222 44.569 34.2788 44.5673 33.6453V24.2673C44.5673 23.6617 44.6937 22.9871 44.2932 22.6983C44.0323 22.5095 42.8933 22.5062 42.5765 22.5981Z" fill="#A13189"/>
<path fill-rule="evenodd" clip-rule="evenodd" d="M46.5983 41.0899V52.1059C46.5983 53.0184 47.2548 52.851 48.3101 52.851C48.8304 52.851 49.0717 52.6262 49.0717 52.1059V41.0144C49.0717 40.1183 48.251 40.271 47.4173 40.271C46.8018 40.271 46.5967 40.4761 46.5967 41.0916" fill="#A13189"/>
<path fill-rule="evenodd" clip-rule="evenodd" d="M15.7463 49.644C12.5705 50.5861 13.9689 55.1733 17.0265 54.4036C17.3464 54.3224 17.6466 54.1777 17.9095 53.9781C18.1723 53.7785 18.3923 53.5281 18.5565 53.2418C18.7206 52.9555 18.8255 52.6391 18.8649 52.3115C18.9043 51.9838 18.8774 51.6516 18.7859 51.3345C18.4757 50.225 17.2874 49.1927 15.7463 49.6489" fill="white"/>
<path fill-rule="evenodd" clip-rule="evenodd" d="M49.5 27.4677C52.3016 27.4677 51.9619 27.8107 51.9619 25.0058C51.9619 22.201 52.3082 22.5686 49.5263 22.5686L49.5 27.4677Z" fill="#A13189"/>
<path fill-rule="evenodd" clip-rule="evenodd" d="M29.6439 40.7437L29.6357 45.134H32.004V40.7946C31.9417 40.2464 31.4509 40.2677 30.8962 40.2694C30.2611 40.2694 29.7687 40.1709 29.6489 40.7437" fill="#A13189"/>
<path fill-rule="evenodd" clip-rule="evenodd" d="M47.4906 61.1131C47.4906 61.5415 47.4676 61.397 47.5661 61.5415C47.8812 61.5136 47.8024 61.5891 47.8074 61.1804L48.8299 61.1525C48.8299 61.7351 49.14 61.745 49.1483 61.1673C49.9804 61.1673 49.8556 60.7143 49.8556 59.7558H50.3201L50.3447 61.1525H50.6467L50.6779 59.485L49.5011 59.462L49.442 60.8357L48.9628 60.8653V59.4784L47.8057 59.4587C47.8214 59.7869 47.817 60.1158 47.7926 60.4435C47.6941 61.0524 47.4906 60.5748 47.4906 61.1147V61.1131ZM48.1471 59.7574H48.628V60.8521H48.0404C48.1202 60.652 48.1565 60.4372 48.1471 60.2219V59.7574Z" fill="white"/>
<path fill-rule="evenodd" clip-rule="evenodd" d="M53.5157 60.189C53.3894 60.5616 53.0824 60.7356 52.915 61.1475C53.4747 61.1557 53.1645 61.2279 53.8029 60.45L53.8358 61.1524L54.1361 61.1393L54.1591 60.4828C54.4512 60.7142 54.3708 60.6798 54.5382 60.9227C54.7056 61.1656 54.7171 61.1574 55.0634 61.1574C55.0158 60.9145 54.6318 60.5353 54.489 60.2251C54.6744 59.9658 54.8944 59.7443 55.0568 59.4866C54.5645 59.4177 54.4365 59.741 54.3002 60.0512C54.1164 59.8493 54.2379 59.8788 54.146 59.6376C54.0738 59.4456 54.2756 59.4735 53.8177 59.4603V60.0873C53.1694 59.4948 53.6372 59.4505 52.9249 59.4653C53.0905 59.7324 53.2896 59.9773 53.5174 60.194" fill="white"/>
<path fill-rule="evenodd" clip-rule="evenodd" d="M22.498 60.9637L22.5079 61.5283C22.9051 61.5513 22.8148 61.5546 22.8164 61.1525H23.8192C23.8274 61.8599 24.1803 61.5825 24.1688 61.1935C24.1508 60.6256 23.9686 61.379 23.9686 59.4554L22.8197 59.4686C22.8197 61.205 22.718 60.5009 22.5046 60.9637H22.498ZM23.1611 59.7558H23.6338V60.8505H23.0462C23.1094 60.6461 23.1448 60.4341 23.1513 60.2203L23.1611 59.7558Z" fill="white"/>
<path fill-rule="evenodd" clip-rule="evenodd" d="M37.732 59.4407C36.6077 59.7049 36.9113 61.4873 38.2243 61.1607C39.2419 60.9096 38.9727 59.1485 37.732 59.4407ZM37.6729 59.8346C38.3835 59.4308 38.8021 60.4763 38.2375 60.7963C37.8124 61.0392 37.302 60.7274 37.4168 60.153C37.4825 59.8428 37.5252 59.915 37.668 59.8346" fill="white"/>
<path fill-rule="evenodd" clip-rule="evenodd" d="M59.153 59.4783C58.6212 59.672 58.38 60.0396 58.5621 60.6091C58.7016 61.0408 59.1694 61.3017 59.7323 61.1474C60.8155 60.852 60.3396 59.0467 59.153 59.4783ZM59.153 59.8066C59.8554 59.3962 60.3018 60.4827 59.688 60.7913C58.9971 61.1442 58.5868 60.1348 59.153 59.8066Z" fill="white"/>
<path fill-rule="evenodd" clip-rule="evenodd" d="M24.9071 59.4701C24.6412 59.5555 24.5017 59.6113 24.3655 59.8722C24.0127 60.5484 24.5723 61.4248 25.4914 61.1475C26.5024 60.8422 26.1118 59.0811 24.9071 59.4701ZM24.8858 59.8574C25.5751 59.3552 26.0347 60.4959 25.4455 60.8077C25.3195 60.8799 25.1702 60.8995 25.03 60.8624C24.8897 60.8252 24.7697 60.7342 24.696 60.6092C24.6224 60.4841 24.601 60.335 24.6365 60.1943C24.672 60.0536 24.7616 59.9326 24.8858 59.8574Z" fill="white"/>
<path fill-rule="evenodd" clip-rule="evenodd" d="M55.6379 60.473C55.6379 59.3241 55.7561 59.4702 55.2998 59.4554V61.1869C55.8316 61.1541 55.8069 60.7257 56.2616 60.2859L56.3978 60.171L56.447 60.1332L56.4585 61.1327L56.7539 61.1541C56.8178 60.5758 56.8288 59.993 56.7868 59.4127C56.2944 59.4291 56.2944 59.8575 55.8463 60.3056C55.8329 60.3201 55.8187 60.3338 55.8037 60.3466L55.6379 60.473Z" fill="white"/>
<path fill-rule="evenodd" clip-rule="evenodd" d="M44.2181 59.4455C43.0824 59.7229 43.4237 61.4725 44.7105 61.159C45.7625 60.903 45.4359 59.1501 44.2181 59.4455ZM44.1525 59.8444C44.8549 59.3766 45.3013 60.5008 44.7236 60.8061C44.5964 60.8755 44.4473 60.8928 44.3076 60.8545C44.1678 60.8161 44.0484 60.7251 43.9745 60.6005C43.9005 60.476 43.8777 60.3276 43.9109 60.1865C43.9441 60.0455 44.0307 59.9228 44.1525 59.8444Z" fill="white"/>
<path fill-rule="evenodd" clip-rule="evenodd" d="M39.1354 60.8898L39.1683 61.154C39.6606 61.154 40.0348 61.2345 40.2154 60.8964C40.3959 60.5583 40.2597 60.3925 40.0069 60.2399C40.1431 60.0019 40.1431 59.8952 40.0627 59.5981C39.6606 59.4192 39.6294 59.4586 39.1338 59.4586L39.1354 60.8898ZM39.4916 59.7409C39.6557 59.7787 39.8379 59.777 39.7919 59.9805C39.7558 60.1447 39.6639 60.1184 39.4916 60.1447V59.7409ZM39.4916 60.4286L39.9101 60.4893C39.8937 60.8898 39.8838 60.8389 39.4916 60.8734V60.4286Z" fill="white"/>
<path fill-rule="evenodd" clip-rule="evenodd" d="M45.626 60.8899L45.6522 61.1525C46.3596 61.1525 47.3148 61.0442 46.5106 60.2203C46.7568 59.7689 46.5582 59.4554 45.9985 59.4554H45.626V60.8899ZM45.9805 60.1448C45.9805 59.8575 45.9706 59.9002 46.0724 59.7427C46.44 59.9068 46.3448 60.089 45.9805 60.1448ZM45.9805 60.4106L46.3842 60.4911C46.3842 60.8669 46.3957 60.8521 45.992 60.8702L45.9805 60.4106Z" fill="white"/>
<path fill-rule="evenodd" clip-rule="evenodd" d="M30.6914 61.1425C31.3168 61.1786 32.1932 61.1015 31.709 60.3711C31.5761 60.1693 31.6073 60.2973 31.645 60.0839C31.75 59.475 31.3873 59.3962 30.6865 59.4783L30.6914 61.1425ZM31.041 60.1446C31.0361 60.0703 31.0361 59.9958 31.041 59.9214C31.048 59.8558 31.0717 59.7931 31.11 59.7393C31.5252 59.864 31.4202 60.1102 31.0361 60.1446H31.041ZM31.0361 60.4253C31.3463 60.4401 31.3003 60.4253 31.4645 60.5894C31.407 60.8717 31.3857 60.8504 31.0476 60.8684L31.0361 60.4253Z" fill="white"/>
<path fill-rule="evenodd" clip-rule="evenodd" d="M57.168 60.8898L57.1942 61.1524C57.7966 61.1524 57.8507 61.2328 58.2807 60.9193C58.3398 60.468 58.2955 60.4828 58.0526 60.2202C58.4842 59.4242 57.5881 59.4554 57.168 59.4554V60.8898ZM57.5044 59.7409C57.6685 59.7738 57.8688 59.7672 57.8245 59.9871C57.7851 60.1808 57.6603 60.1299 57.5044 60.1512V59.7409ZM57.5438 60.427L57.9295 60.4943C57.9295 60.8471 57.9098 60.9095 57.5061 60.8455L57.5438 60.427Z" fill="white"/>
<path fill-rule="evenodd" clip-rule="evenodd" d="M61.7531 61.1426L62.0452 61.1541L62.0813 60.4074H62.7674L62.7788 61.1426L63.0874 61.1541L63.1268 59.4554C62.6082 59.4637 62.7674 59.5375 62.7674 60.1119H62.0813V59.4554C61.5725 59.4637 61.7137 59.567 61.7235 60.1431C61.7086 60.4766 61.7185 60.8107 61.7531 61.1426Z" fill="white"/>
<path fill-rule="evenodd" clip-rule="evenodd" d="M51.3277 60.491C51.1681 60.6964 51.028 60.9162 50.9092 61.1475C51.5657 61.1475 51.3408 60.8685 51.7298 60.5288C51.7725 60.9686 51.6149 61.0704 51.9546 61.1508C52.1434 61.0195 52.058 61.2411 52.0942 60.8226C52.1024 60.729 52.0942 60.4795 52.0942 60.3696C52.0942 60.0725 52.0942 59.7738 52.0942 59.4784C50.5842 59.334 50.9239 60.2317 51.3326 60.491H51.3277ZM51.7561 60.2202C51.2062 60.1792 51.1685 59.8083 51.7561 59.7377V60.2202Z" fill="white"/>
<path fill-rule="evenodd" clip-rule="evenodd" d="M33.5615 61.1508C34.3017 61.1508 33.7256 61.054 34.1671 60.798C34.7547 60.6339 34.7695 61.054 34.9992 61.1262C35.0695 61.1497 35.1441 61.1569 35.2175 61.1476C35.1568 60.8833 34.6579 59.4128 34.3969 59.4243C34.136 59.4357 33.6436 60.8735 33.5648 61.1476L33.5615 61.1508ZM34.4232 59.9987L34.6119 60.5091L34.1852 60.4796L34.4232 59.9987Z" fill="white"/>
<path fill-rule="evenodd" clip-rule="evenodd" d="M40.4404 61.1525C41.0756 61.1525 40.6144 61.031 41.0149 60.798C41.5647 60.6503 41.6861 61.0376 41.6861 61.0376C41.8503 61.2017 41.6599 61.1476 42.0374 61.1525C42.0374 61.0557 41.545 59.4095 41.2446 59.4259C40.9443 59.4423 40.4421 61.0671 40.4404 61.1525ZM41.2381 60.0496C41.2794 60.0905 41.3143 60.1376 41.3415 60.1891L41.4531 60.5173L41.028 60.496L41.2381 60.0496Z" fill="white"/>
<path fill-rule="evenodd" clip-rule="evenodd" d="M32.1371 61.1327L32.4293 61.1557L32.4818 60.45C32.7139 60.635 32.8989 60.8724 33.0218 61.1426H33.4944C33.3303 60.7667 32.9282 60.4943 32.7625 60.1381C33.0326 59.9596 33.2716 59.7378 33.4698 59.4816L33.0218 59.4537C32.8913 59.7023 32.7033 59.9161 32.4736 60.0774V59.4554C31.9632 59.4701 32.1076 59.5719 32.1158 60.1431C32.1058 60.4715 32.1129 60.8001 32.1371 61.1278" fill="white"/>
<path fill-rule="evenodd" clip-rule="evenodd" d="M28.8428 61.1524C29.3614 61.1524 29.0545 61.1524 29.2843 60.9243C29.4287 60.7782 29.1037 60.7979 30.0245 60.7979C30.095 61.0737 30.1574 61.2509 30.484 61.113L29.8029 59.4127C29.4024 59.4423 29.537 59.4242 29.2153 60.1825C29.1054 60.4401 28.8674 60.921 28.8428 61.1524ZM29.6896 60.0036L29.8751 60.5222H29.4402L29.6896 60.0036Z" fill="white"/>
<path fill-rule="evenodd" clip-rule="evenodd" d="M65.9087 60.2793C65.7528 60.5288 65.4049 60.9211 65.377 61.1525H65.7052C65.8522 60.9827 65.9773 60.7953 66.0778 60.5945C66.4733 60.8981 66.15 61.1541 66.8442 61.1475C66.7327 60.8389 66.5545 60.5587 66.3223 60.3269C66.4323 59.9494 66.6341 59.8346 66.8032 59.4521C66.086 59.4521 66.4881 59.5638 66.0925 59.9117C65.8299 59.5359 66.0334 59.4292 65.436 59.4653L65.9087 60.2793Z" fill="white"/>
<path fill-rule="evenodd" clip-rule="evenodd" d="M63.4861 61.1525C63.9965 61.1525 64.4987 61.246 64.6218 60.7996C64.8024 60.1431 64.2657 60.1858 63.8603 60.0709C63.7782 59.5162 64.0244 59.4702 63.4746 59.4554L63.4861 61.1525ZM63.8308 60.8505V60.4074C64.0179 60.4205 64.2443 60.3893 64.2805 60.6092C64.3215 60.8653 64.0408 60.8456 63.8308 60.8505Z" fill="white"/>
<path fill-rule="evenodd" clip-rule="evenodd" d="M42.2598 60.8899L42.2942 61.1541L42.5979 61.1393L42.6208 60.6667L42.6438 60.537C43.7041 60.514 43.5892 59.4554 42.7259 59.4554H42.2598V60.8899ZM42.6176 59.7558C43.192 59.8214 43.1805 60.1628 42.6176 60.2367V59.7558Z" fill="white"/>
<path fill-rule="evenodd" clip-rule="evenodd" d="M27.5992 60.7257C26.3289 61.2181 26.5735 59.9592 26.9165 59.7705C27.3662 59.718 27.2743 59.7328 27.5943 59.8969V59.5292C26.4093 58.899 25.7742 60.7569 26.8525 61.1344C27.5451 61.3756 27.6042 61.0556 27.6058 60.7257" fill="white"/>
<path fill-rule="evenodd" clip-rule="evenodd" d="M33.6225 40.5138C33.5165 39.9461 33.2036 39.4379 32.7444 39.0876C32.0272 38.546 29.7902 38.4508 28.9351 39.0564C28.4656 39.3874 28.1371 39.8821 28.0144 40.4433C27.8765 41.1424 27.9684 48.441 27.9684 49.7983C27.9684 51.1556 27.8453 53.2203 27.9914 54.4709H29.5817L29.5916 46.7916H32.0436V54.4496L33.629 54.4791C33.7324 53.3302 33.6454 46.8966 33.6454 45.1897C33.6454 44.0015 33.7833 41.5626 33.6225 40.5204V40.5138ZM30.8931 40.2759C31.4462 40.2759 31.9369 40.2529 31.9993 40.8011V45.1339H29.6359L29.6441 40.737C29.7639 40.1643 30.2563 40.2644 30.8931 40.2627" fill="white"/>
<path fill-rule="evenodd" clip-rule="evenodd" d="M59.1464 59.8115C58.5802 60.1398 58.9905 61.1557 59.6815 60.7963C60.3002 60.4811 59.8456 59.3946 59.1464 59.8115Z" fill="#A13189"/>
<path fill-rule="evenodd" clip-rule="evenodd" d="M37.6732 59.8345C37.5304 59.9149 37.4877 59.8427 37.422 60.1529C37.3022 60.7273 37.8127 61.0391 38.2427 60.7962C38.8072 60.4762 38.3887 59.4307 37.6781 59.8345" fill="#A13189"/>
<path fill-rule="evenodd" clip-rule="evenodd" d="M44.149 59.8443C44.0273 59.9228 43.9407 60.0455 43.9075 60.1865C43.8743 60.3275 43.8971 60.476 43.971 60.6005C44.045 60.7251 44.1644 60.8161 44.3041 60.8545C44.4439 60.8928 44.593 60.8755 44.7202 60.8061C45.2946 60.5074 44.8515 59.3766 44.149 59.8443Z" fill="#A13189"/>
<path fill-rule="evenodd" clip-rule="evenodd" d="M24.886 59.8575C24.7719 59.9365 24.6918 60.0556 24.6616 60.1911C24.6315 60.3266 24.6535 60.4684 24.7233 60.5883C24.7931 60.7083 24.9056 60.7975 25.0382 60.8382C25.1709 60.8788 25.314 60.868 25.4391 60.8078C26.0349 60.496 25.5687 59.3553 24.8794 59.8575" fill="#A13189"/>
<path fill-rule="evenodd" clip-rule="evenodd" d="M27.707 59.549C27.7464 59.8411 27.6972 59.7525 28.0796 59.7558V61.1426L28.3931 61.1541C28.4431 60.6898 28.4547 60.2221 28.4275 59.7558C28.8625 59.7558 28.782 59.8493 28.8001 59.4554H27.9105L27.8482 59.4686C27.8296 59.4744 27.8115 59.4815 27.794 59.4899L27.707 59.549Z" fill="white"/>
<path fill-rule="evenodd" clip-rule="evenodd" d="M36.2124 59.7558V61.1328L36.5079 61.1541C36.5593 60.6899 36.5714 60.2221 36.544 59.7558C36.992 59.7558 36.9133 59.8543 36.9362 59.4554H35.835C35.8629 59.8575 35.7726 59.7492 36.2075 59.7558" fill="white"/>
<path fill-rule="evenodd" clip-rule="evenodd" d="M60.8159 59.7558L60.8405 61.1525H61.1425L61.1737 59.7623C61.5528 59.7623 61.502 59.8477 61.543 59.5555C61.3247 59.3734 60.7388 59.462 60.4434 59.462C60.4598 59.8559 60.381 59.7623 60.8159 59.7623" fill="white"/>
<path fill-rule="evenodd" clip-rule="evenodd" d="M64.8055 61.1426L65.096 61.1541C65.1813 60.6256 65.1354 60.0052 65.1321 59.4554C64.6496 59.4554 64.7743 59.4308 64.7776 60.2202C64.7605 60.5279 64.7699 60.8365 64.8055 61.1426Z" fill="white"/>
<path fill-rule="evenodd" clip-rule="evenodd" d="M23.15 60.2202C23.1435 60.4341 23.1081 60.646 23.0449 60.8504H23.6341V59.7557H23.1516L23.15 60.2202Z" fill="#A13189"/>
<path fill-rule="evenodd" clip-rule="evenodd" d="M48.1438 60.2202C48.1532 60.4355 48.1168 60.6503 48.0371 60.8504H48.6247V59.7557H48.1438V60.2202Z" fill="#A13189"/>
<path fill-rule="evenodd" clip-rule="evenodd" d="M63.8311 60.8505C64.0411 60.8505 64.3234 60.8653 64.2808 60.6092C64.2446 60.3893 64.0182 60.4205 63.8311 60.4073V60.8505Z" fill="#A13189"/>
<path fill-rule="evenodd" clip-rule="evenodd" d="M39.4912 60.8701C39.8835 60.8356 39.8933 60.8865 39.9097 60.486L39.4912 60.4253V60.8701Z" fill="#A13189"/>
<path fill-rule="evenodd" clip-rule="evenodd" d="M45.9988 60.8702C46.4025 60.8521 46.3861 60.8702 46.391 60.4911L45.9873 60.4106L45.9988 60.8702Z" fill="#A13189"/>
<path fill-rule="evenodd" clip-rule="evenodd" d="M31.0525 60.8701C31.3906 60.8521 31.4119 60.8701 31.4694 60.5911C31.3053 60.4188 31.3512 60.4401 31.041 60.427L31.0525 60.8701Z" fill="#A13189"/>
<path fill-rule="evenodd" clip-rule="evenodd" d="M57.5059 60.8422C57.9096 60.9062 57.9227 60.8422 57.9293 60.491L57.5436 60.4237L57.5059 60.8422Z" fill="#A13189"/>
<path fill-rule="evenodd" clip-rule="evenodd" d="M51.7518 60.2202V59.741C51.1643 59.8115 51.202 60.1825 51.7518 60.2235" fill="#A13189"/>
<path fill-rule="evenodd" clip-rule="evenodd" d="M42.6182 60.2333C43.1811 60.1595 43.1926 59.8181 42.6182 59.7524V60.2333Z" fill="#A13189"/>
<path fill-rule="evenodd" clip-rule="evenodd" d="M29.4404 60.5107L29.8754 60.5173L29.6899 59.9987L29.4404 60.5107Z" fill="#A13189"/>
<path fill-rule="evenodd" clip-rule="evenodd" d="M57.5039 60.1447C57.6533 60.1266 57.7846 60.1775 57.8223 59.9806C57.8683 59.7606 57.673 59.7688 57.5039 59.7344V60.1447Z" fill="#A13189"/>
<path fill-rule="evenodd" clip-rule="evenodd" d="M41.0312 60.4943L41.4563 60.5156L41.3447 60.1874C41.3176 60.1359 41.2827 60.0888 41.2413 60.0479L41.0312 60.4943Z" fill="#A13189"/>
<path fill-rule="evenodd" clip-rule="evenodd" d="M34.1816 60.4893L34.6084 60.5188L34.4196 60.0084L34.1816 60.4893Z" fill="#A13189"/>
<path fill-rule="evenodd" clip-rule="evenodd" d="M39.4912 60.1447C39.6553 60.1152 39.7555 60.1447 39.7916 59.9806C39.8375 59.7771 39.6553 59.7787 39.4912 59.741V60.1447Z" fill="#A13189"/>
<path fill-rule="evenodd" clip-rule="evenodd" d="M31.041 60.1448C31.4251 60.1103 31.5334 59.8641 31.1149 59.7394C31.0766 59.7932 31.0529 59.8559 31.0459 59.9216C31.041 59.9959 31.041 60.0704 31.0459 60.1448" fill="#A13189"/>
<path fill-rule="evenodd" clip-rule="evenodd" d="M45.9846 60.1448C46.349 60.089 46.4442 59.9019 46.0765 59.7427C45.9748 59.9068 45.9846 59.8576 45.9846 60.1448Z" fill="#A13189"/>
</svg>
