<svg width="150" height="96" viewBox="0 0 150 96" fill="none" xmlns="http://www.w3.org/2000/svg">
<path d="M34.8813 95.78H34.3823V91.797H33.6606C33.4998 91.9868 33.3541 92.1889 33.2248 92.4015C33.0023 92.7623 32.7258 93.2074 32.4821 93.6432C31.5895 95.2224 31.2614 95.7753 30.9006 95.7753H30.4133C30.0525 95.7753 29.7221 95.2224 28.8318 93.6432C28.5975 93.2074 28.3117 92.7623 28.0891 92.4015C27.9598 92.1889 27.8141 91.9868 27.6533 91.797H26.9317V95.78H26.4326V91.3026H27.6697C28.0305 91.3026 28.3609 91.8532 29.2418 93.4347C29.4949 93.8705 29.7713 94.3367 29.9939 94.6765C30.1134 94.8953 30.2598 95.0984 30.4297 95.2809H30.8749C31.0447 95.0984 31.1911 94.8953 31.3106 94.6765C31.5332 94.3367 31.8097 93.8705 32.0627 93.4347C32.9437 91.8532 33.274 91.3026 33.6349 91.3026H34.8766L34.8813 95.78Z" fill="#1E1F1D"/>
<path d="M48.8052 94.7819H42.1957L41.6967 95.78H41.125L41.4015 95.2809L42.8072 92.4366C43.3602 91.3026 43.9975 91.3026 44.5176 91.3026H46.5115C47.0316 91.3026 47.6689 91.3026 48.2195 92.4366L49.6838 95.3653L49.897 95.78H49.323L48.8052 94.7819ZM48.5709 94.2828L47.7649 92.6592C47.3291 91.8017 46.9683 91.8017 46.5021 91.8017H44.5082C44.0396 91.8017 43.6788 91.8017 43.2454 92.6592L42.43 94.2828H48.5709Z" fill="#1E1F1D"/>
<path d="M56.3737 95.78H55.877V91.3026H61.0971C62.8261 91.3026 63.7188 91.3659 63.9929 91.6423C64.3233 91.9376 64.3233 92.2984 64.3233 92.7974C64.3233 93.2965 64.3233 93.6479 63.9929 93.9548C63.7188 94.2313 62.8215 94.2828 61.0971 94.2828H56.3737V95.78ZM56.3737 93.7838H61.0971C61.5656 93.7838 62.1678 93.7838 62.6879 93.7627C63.0141 93.758 63.3384 93.7123 63.6532 93.6268C63.8242 93.4558 63.8242 93.2965 63.8242 92.7974C63.8242 92.2984 63.8242 92.1625 63.6532 91.9914C63.6321 91.9704 63.4634 91.886 62.6879 91.8321C62.1678 91.8017 61.5633 91.8017 61.0971 91.8017H56.3737V93.7838Z" fill="#1E1F1D"/>
<path d="M79.0016 95.78H78.3643L78.3128 95.6629C78.28 95.6629 77.5701 94.6976 77.0921 94.1985C76.6563 93.7838 75.1615 93.7838 74.2806 93.7838H71.0543V95.78H70.5459V91.3026H71.0449V93.2941H74.2712C75.1521 93.2941 76.6469 93.2942 77.0827 92.8794C77.5513 92.3827 78.2706 91.4151 78.3034 91.4151L78.355 91.3003H78.9922L78.6853 91.6916C78.3057 92.2306 77.8834 92.7383 77.4225 93.2098C77.2616 93.3546 77.0737 93.466 76.8695 93.5378C77.0734 93.6113 77.2611 93.7235 77.4225 93.8682C77.8825 94.3395 78.3048 94.8464 78.6853 95.3841L79.0016 95.78Z" fill="#1E1F1D"/>
<path d="M93.6827 91.8017H85.7354V93.2988H92.6846V93.7861H85.7354V95.2809H93.6827V95.78H85.2363V93.7861V93.2988V91.3026H93.6827V91.8017Z" fill="#1E1F1D"/>
<path d="M108.276 91.8017H104.296V95.78H103.808V91.8017H99.8301V91.3026H103.808H104.296H108.276V91.8017Z" fill="#1E1F1D"/>
<path d="M53.7913 13.3994C53.693 13.4617 53.6105 13.546 53.5504 13.6456C53.4902 13.7452 53.454 13.8575 53.4445 13.9734C53.4187 14.1164 53.407 14.2616 53.3906 14.4045C53.3924 14.5988 53.4168 14.7923 53.4633 14.9809C53.4985 15.0732 53.5529 15.1569 53.6227 15.2268C53.6926 15.2966 53.7763 15.3509 53.8686 15.3862C53.9699 15.3956 54.0719 15.3956 54.1732 15.3862H54.2107C54.3949 15.3324 54.5857 15.3041 54.7777 15.3019C54.9072 15.285 55.0389 15.2954 55.1642 15.3324C55.3709 15.371 55.5654 15.4583 55.7317 15.587C55.8979 15.7158 56.0311 15.8823 56.1202 16.0727C56.2219 16.2292 56.2853 16.4074 56.3053 16.5929C56.3788 16.8604 56.4026 17.1391 56.3755 17.4152C56.8106 16.973 57.3752 16.6808 57.9875 16.5811C57.9289 16.5249 57.8422 16.5062 57.7907 16.4406C57.7819 16.4379 57.7744 16.432 57.7696 16.4242C57.6127 16.325 57.4759 16.197 57.3666 16.047C57.3633 16.0481 57.3598 16.0485 57.3564 16.0479C57.3529 16.0474 57.3497 16.046 57.3469 16.044C57.3441 16.0419 57.3419 16.0391 57.3404 16.036C57.339 16.0328 57.3383 16.0293 57.3385 16.0259C57.2144 15.9016 57.1143 15.7554 57.0433 15.5948C56.9496 15.4378 56.8582 15.2808 56.7668 15.1262L56.4435 14.6763C56.3146 14.5357 56.1858 14.3975 56.0593 14.2569L56.0241 14.2148L55.6047 13.875C55.3009 13.6679 54.963 13.5157 54.6066 13.4252C54.3402 13.3495 54.0592 13.3415 53.7889 13.4018" fill="#4DA24F"/>
<path d="M67.3801 16.4195L66.9537 16.0236C66.866 15.9703 66.787 15.9039 66.7194 15.8267C66.6324 15.7812 66.5533 15.7218 66.4851 15.651L65.9673 15.3043C65.9003 15.2813 65.8389 15.2446 65.7869 15.1965L65.3933 14.9903L65.2316 14.92C64.6918 14.6735 64.1213 14.5009 63.5353 14.4069L63.0222 14.3647C62.9682 14.3765 62.9123 14.3765 62.8582 14.3647L62.3076 14.4069L61.7547 14.5288L61.2463 14.7349L60.7777 15.0301L60.6348 15.1848H60.6512C60.7098 15.1517 60.7719 15.1249 60.8363 15.1051C61.2506 15.0064 61.6756 14.9599 62.1014 14.9669C62.604 14.964 63.1047 15.0303 63.5892 15.1637C63.9895 15.2691 64.3768 15.4184 64.7443 15.6089C65.0439 15.7572 65.33 15.9312 65.5995 16.129C66.2502 16.6152 66.8216 17.1993 67.2934 17.8604C67.9515 18.7557 68.4545 19.7552 68.7812 20.8172C68.9823 21.4858 69.0911 22.1787 69.1045 22.8767C69.1076 23.1705 69.0896 23.4641 69.0506 23.7553C68.9937 24.329 68.8597 24.8925 68.6523 25.4305C68.4613 25.9777 68.1652 26.4823 67.7808 26.9159C67.8778 26.8637 67.9717 26.8058 68.0619 26.7426L68.4813 26.3677C68.7486 26.0595 68.9841 25.7251 69.1842 25.3696C69.1846 25.357 69.1881 25.3447 69.1942 25.3337C69.2003 25.3227 69.2089 25.3134 69.2193 25.3063L69.4724 24.7206C69.4812 24.666 69.5003 24.6135 69.5286 24.566V24.5449L69.5427 24.5214C69.5919 24.3387 69.6411 24.1559 69.6926 23.9732C69.6934 23.9165 69.7061 23.8606 69.7301 23.8092C69.8069 23.3676 69.8546 22.9215 69.873 22.4737V21.9208V21.895C69.8543 21.7005 69.8379 21.5061 69.8191 21.3116C69.7629 20.9344 69.6739 20.5642 69.5966 20.194L69.4279 19.6645L69.2311 19.1514L68.9968 18.6547L68.739 18.172C68.643 18.0174 68.5446 17.8628 68.4462 17.7035L68.1228 17.2536C67.8885 16.9584 67.6355 16.6843 67.3778 16.4101" fill="#E98B19"/>
<path d="M50.7338 24.4113L50.8111 24.9876C50.8837 25.3578 50.961 25.7257 51.0665 26.0865C51.1274 26.2599 51.186 26.4356 51.2445 26.6113L51.4554 27.1174C51.5374 27.2791 51.6171 27.4431 51.6897 27.6071L51.9638 28.0757L52.2684 28.5442L52.6035 28.9871C52.7366 29.1154 52.8603 29.2532 52.9736 29.3994L53.3837 29.8048C53.5336 29.9313 53.6812 30.0601 53.8288 30.189C53.8362 30.194 53.8426 30.2004 53.8476 30.2077C54.0069 30.3202 54.1639 30.442 54.3162 30.5498C54.6844 30.7859 55.0671 30.9987 55.4619 31.1871C55.5174 31.1981 55.57 31.2205 55.6165 31.2527L56.1507 31.4448L56.3545 31.5011L56.9824 31.6323H57.041L57.6806 31.6768L58.1117 31.6557C58.1637 31.6347 58.2202 31.6274 58.2757 31.6346L58.824 31.5104L59.1895 31.3628C59.2158 31.3502 59.2446 31.3436 59.2738 31.3436C59.3031 31.3436 59.3319 31.3502 59.3582 31.3628H59.89L60.0142 31.3488L60.5203 31.234L61.0264 31.0184L61.4762 30.7021C61.6107 30.5806 61.7246 30.4382 61.8136 30.2804C61.4901 30.3252 61.1606 30.2988 60.8483 30.2031C60.1147 30.0078 59.4231 29.6798 58.8076 29.2354C58.4784 28.9996 58.1653 28.7421 57.8704 28.4646C57.6087 28.2154 57.3644 27.9484 57.1394 27.6656C56.9215 27.4056 56.7388 27.1197 56.5443 26.8409C56.3274 26.5231 56.1332 26.1904 55.9633 25.8452C55.8227 25.5687 55.6798 25.2875 55.5626 24.997C55.4291 24.669 55.2955 24.3433 55.1924 24.0059C54.8733 23.0407 54.7359 22.0247 54.7871 21.0093C54.8123 20.525 54.8909 20.0449 55.0214 19.5778C55.1252 19.2259 55.269 18.887 55.4501 18.568C55.5484 18.3776 55.6987 18.2192 55.8836 18.1111C55.7674 18.0733 55.6483 18.0451 55.5275 18.0267C55.3305 18.0271 55.1339 18.0428 54.9394 18.0736C54.4969 18.1998 54.0875 18.4213 53.7398 18.7226C53.7308 18.7424 53.7198 18.7612 53.707 18.7788C53.4101 19.0597 53.1754 19.3997 53.0182 19.7769C52.8945 20.0498 52.8055 20.3371 52.7534 20.6321C52.6622 21.1398 52.6362 21.6571 52.6761 22.1714C52.6974 22.5067 52.7413 22.8401 52.8073 23.1695C52.9038 23.6457 53.0306 24.1152 53.1869 24.5753C53.3484 25.0699 53.5418 25.5535 53.7656 26.0232C54.0111 26.5464 54.2841 27.0563 54.5833 27.5508C54.7379 27.7851 54.8996 28.0358 55.0706 28.2678C55.2416 28.4997 55.3728 28.6731 55.5392 28.8699C55.7997 29.1944 56.0807 29.5019 56.3803 29.7907C56.7218 30.1167 57.0937 30.4093 57.4909 30.6646C57.9372 30.963 58.4354 31.1752 58.9599 31.2902C59.0114 31.2902 59.0794 31.2902 59.1192 31.3417C59.0865 31.369 59.0445 31.3824 59.0021 31.3792C58.7581 31.4015 58.5127 31.4015 58.2687 31.3792C57.6166 31.3194 56.9787 31.1532 56.3803 30.8872C56.0383 30.7404 55.7099 30.564 55.3986 30.36C55.056 30.1466 54.735 29.9002 54.4403 29.6243C54.0813 29.2847 53.7513 28.9156 53.4539 28.5208C53.1917 28.1524 52.9485 27.7707 52.7253 27.3775C52.6175 27.1947 52.5425 26.9909 52.4465 26.8011C52.2466 26.3951 52.0759 25.9755 51.9357 25.5453C51.683 24.8067 51.544 24.0341 51.5234 23.2539C51.5013 22.4574 51.6482 21.6652 51.9545 20.9297C52.2602 20.1951 52.727 19.5385 53.3204 19.0084C53.4048 18.9335 53.5313 18.8983 53.5734 18.7741H53.4797C53.3696 18.8187 53.2595 18.8585 53.1517 18.9053C52.758 19.0911 52.3996 19.344 52.0927 19.6527L51.7131 20.1213C51.6997 20.1615 51.6744 20.1967 51.6405 20.2221L51.4062 20.6298C51.3406 20.7727 51.2727 20.9156 51.2094 21.0609C51.0183 21.5365 50.8792 22.0314 50.7947 22.5369L50.7385 22.9774C50.7464 23.0482 50.74 23.1199 50.7197 23.1883C50.7197 23.5959 50.7197 24.0036 50.7338 24.4113Z" fill="#E98B19"/>
<path d="M57.9878 16.5906C57.376 16.6898 56.812 16.9821 56.3782 17.4247L56.0783 17.8323C56.0267 17.9237 56.0127 18.0385 55.9072 18.0971C55.9424 18.1346 55.926 18.1744 55.9072 18.2119C55.8442 18.3725 55.7941 18.5378 55.7573 18.7063C55.6713 19.0809 55.6374 19.4657 55.6565 19.8496C55.6737 20.1879 55.7144 20.5245 55.7784 20.8571C55.8728 21.3828 56.0043 21.9011 56.172 22.4081C56.3958 23.082 56.6643 23.7403 56.9756 24.3786C57.245 24.9315 57.5192 25.4797 57.8355 26.0186C58.0698 26.4193 58.3205 26.8129 58.5758 27.2042C58.8383 27.6056 59.1271 27.9891 59.4404 28.3522C59.7101 28.6753 60.0029 28.9784 60.3167 29.2589C60.5547 29.4679 60.8085 29.6582 61.0758 29.8283C61.3304 29.9766 61.5932 30.1104 61.863 30.2289C61.9147 30.2296 61.9651 30.2451 62.0083 30.2734L62.5518 30.3718H62.9923C63.0444 30.3513 63.1006 30.3433 63.1563 30.3484L63.6929 30.1984L64.1614 29.9641L64.6183 29.5986C64.9035 29.2892 65.1164 28.9203 65.2415 28.5185C65.2415 28.4998 65.2697 28.4857 65.2837 28.4693C65.2978 28.4529 65.2837 28.4693 65.2837 28.4529C65.2954 28.2951 65.3197 28.1384 65.3564 27.9844C65.3981 27.585 65.4036 27.1827 65.3728 26.7824C65.3324 26.3315 65.254 25.8847 65.1385 25.4469C64.9975 24.8891 64.8198 24.3412 64.6066 23.8069C64.4403 23.3805 64.2669 22.9564 64.0654 22.5487C63.7983 22.0028 63.5288 21.4569 63.2149 20.9321C63.0134 20.5923 62.8096 20.2573 62.5987 19.9246C62.3782 19.5775 62.1388 19.2428 61.8818 18.9218C61.4468 18.3592 60.9457 17.8511 60.3893 17.4083C60.027 17.1266 59.6231 16.9029 59.192 16.7452C59.0679 16.7007 58.9203 16.7124 58.8219 16.5999C58.7141 16.6538 58.6133 16.5999 58.5102 16.5999H57.9948" fill="#E98B18"/>
<path d="M65.4427 28.4904L65.9113 28.4248C66.0714 28.3763 66.2279 28.3168 66.3798 28.2467L66.8484 27.9656L67.2678 27.586C67.2723 27.5718 67.2796 27.5587 67.2892 27.5475C67.2989 27.5362 67.3107 27.527 67.3241 27.5204C67.3241 27.5204 67.3241 27.5063 67.3405 27.504L67.6239 27.087C67.6239 27.0284 67.6802 26.9979 67.7106 26.9581C67.7003 26.9429 67.6947 26.9249 67.6947 26.9066C67.6947 26.8882 67.7003 26.8702 67.7106 26.855C67.7947 26.7203 67.8572 26.5733 67.8957 26.4192C68.0324 25.9968 68.1112 25.5578 68.13 25.1142C68.1515 24.4852 68.0972 23.8559 67.9684 23.2398C67.8877 22.8552 67.7869 22.4751 67.6661 22.1012C67.5197 21.6019 67.3333 21.1154 67.1085 20.6462C66.8601 20.1331 66.6071 19.6176 66.3072 19.1279C66.1338 18.8468 65.9581 18.5656 65.7707 18.2962C65.4046 17.7674 64.9879 17.2754 64.5266 16.8272C64.2358 16.5393 63.9224 16.2753 63.5894 16.0376C63.3031 15.8403 63.0015 15.6664 62.6873 15.5175C62.2679 15.3213 61.8176 15.1992 61.3566 15.1566C61.1168 15.1519 60.8771 15.166 60.6396 15.1988H60.6232C60.1459 15.2984 59.6993 15.5104 59.3205 15.8174C59.1824 15.9573 59.0562 16.1085 58.9433 16.2695C58.8883 16.3784 58.8413 16.4912 58.8027 16.6069C58.8494 16.5786 58.9011 16.5595 58.955 16.5507C59.2732 16.5076 59.5966 16.5243 59.9086 16.5999C60.3679 16.6916 60.8114 16.8494 61.2253 17.0685C61.6806 17.2942 62.1083 17.5717 62.4999 17.8956C62.7873 18.1237 63.0589 18.3711 63.3129 18.6359C63.7311 19.0748 64.1054 19.5535 64.4305 20.0651C64.7011 20.4927 64.9498 20.9337 65.1756 21.3866C65.3732 21.7991 65.55 22.2214 65.7051 22.6518C65.8983 23.1932 66.0357 23.7529 66.1151 24.3223C66.1923 24.8284 66.2135 25.3415 66.1783 25.8522C66.1474 26.583 65.9697 27.3002 65.6559 27.9609C65.5854 28.1684 65.4477 28.3465 65.2646 28.467C65.2646 28.467 65.2646 28.4787 65.2646 28.4834L65.4263 28.5044" fill="#E98B19"/>
<path d="M60.6514 15.1894C60.8889 15.1566 61.1286 15.1425 61.3683 15.1472C61.8295 15.1895 62.2797 15.3116 62.6991 15.508C63.0137 15.6575 63.3161 15.8314 63.6035 16.0282C63.932 16.2669 64.2415 16.5309 64.529 16.8177C64.9903 17.2659 65.407 17.7579 65.7731 18.2868C65.9605 18.5562 66.1362 18.8374 66.3096 19.1185C66.6024 19.6106 66.8699 20.1173 67.1109 20.6368C67.3354 21.1063 67.5226 21.5928 67.6709 22.0917C67.7833 22.4666 67.9052 22.8438 67.9708 23.2304C68.0999 23.8511 68.1534 24.4852 68.1301 25.1188C68.1114 25.5624 68.0326 26.0015 67.8958 26.4239C67.8577 26.5781 67.7952 26.7252 67.7107 26.8596C67.7009 26.875 67.6957 26.8929 67.6957 26.9112C67.6957 26.9294 67.7009 26.9473 67.7107 26.9627L67.781 26.9206C68.1654 26.4869 68.4615 25.9823 68.6526 25.4351C68.8596 24.8979 68.9936 24.3352 69.0509 23.7623C69.0897 23.4703 69.1077 23.1759 69.1047 22.8813C69.0913 22.1833 68.9825 21.4904 68.7814 20.8219C68.4547 19.7599 67.9517 18.7603 67.2936 17.865C66.8218 17.2039 66.2504 16.6198 65.5997 16.1336C65.3302 15.9358 65.0441 15.7618 64.7445 15.6135C64.377 15.423 63.9897 15.2737 63.5894 15.1683C63.1049 15.0349 62.6043 14.9687 62.1017 14.9715C61.6758 14.9646 61.2508 15.011 60.8365 15.1097C60.7721 15.1296 60.71 15.1563 60.6514 15.1894Z" fill="#E57C12"/>
<path d="M53.5894 18.7882C53.5472 18.9077 53.4207 18.9428 53.3363 19.0225C52.7429 19.5526 52.2761 20.2091 51.9704 20.9437C51.6641 21.6793 51.5172 22.4714 51.5393 23.2679C51.5599 24.0482 51.699 24.8208 51.9516 25.5593C52.0919 25.9895 52.2625 26.4092 52.4624 26.8152C52.5585 27.0049 52.6334 27.2088 52.7412 27.3915C52.9645 27.7848 53.2077 28.1664 53.4699 28.5349C53.7673 28.9296 54.0972 29.2988 54.4563 29.6384C54.7509 29.9143 55.0719 30.1607 55.4145 30.3741C55.7258 30.5781 56.0543 30.7545 56.3962 30.9013C56.9946 31.1673 57.6325 31.3335 58.2846 31.3933C58.5286 31.4156 58.774 31.4156 59.018 31.3933C59.0604 31.3965 59.1024 31.383 59.1351 31.3558C59.0953 31.2972 59.0274 31.316 58.9758 31.3043C58.4514 31.1893 57.9531 30.9771 57.5068 30.6787C57.1096 30.4234 56.7377 30.1308 56.3962 29.8048C56.0943 29.5094 55.8118 29.1948 55.5504 28.8629C55.3911 28.6661 55.2365 28.4669 55.0818 28.2608C54.9272 28.0546 54.7491 27.7922 54.5945 27.5438C54.2953 27.0493 54.0224 26.5394 53.7768 26.0162C53.553 25.5465 53.3597 25.0629 53.1981 24.5683C53.0418 24.1082 52.915 23.6387 52.8185 23.1625C52.7525 22.8331 52.7086 22.4997 52.6873 22.1644C52.6474 21.6501 52.6734 21.1328 52.7646 20.6251C52.8164 20.33 52.9054 20.0426 53.0294 19.7699C53.1867 19.3927 53.4213 19.0527 53.7182 18.7718C53.731 18.7542 53.742 18.7354 53.751 18.7156L53.5776 18.7905" fill="#E57C12"/>
<path d="M61.828 30.2688L61.8655 30.2219C61.5957 30.1034 61.3328 29.9696 61.0782 29.8212C60.811 29.6512 60.5572 29.4609 60.3191 29.2519C60.0052 28.9708 59.7116 28.6678 59.4405 28.3452C59.1287 27.9815 58.8407 27.598 58.5783 27.1971C58.3229 26.8059 58.0769 26.4123 57.8379 26.0116C57.5216 25.4821 57.2475 24.9339 56.9781 24.3715C56.6668 23.7333 56.3983 23.075 56.1744 22.4011C56.0068 21.8941 55.8752 21.3757 55.7808 20.8501C55.7169 20.5175 55.6762 20.1809 55.659 19.8426C55.6399 19.4587 55.6738 19.0739 55.7597 18.6993C55.7955 18.5305 55.8456 18.3651 55.9097 18.2049C55.9237 18.1674 55.9401 18.1276 55.9097 18.0901C55.7248 18.1982 55.5745 18.3567 55.4762 18.547C55.2951 18.866 55.1513 19.2049 55.0475 19.5568C54.917 20.0239 54.8384 20.504 54.8132 20.9883C54.762 22.0037 54.8994 23.0197 55.2185 23.985C55.3216 24.3223 55.4528 24.6504 55.5887 24.976C55.7246 25.3017 55.8488 25.5477 55.9893 25.8242C56.1593 26.1694 56.3535 26.5021 56.5704 26.8199C56.7649 27.0987 56.9476 27.3846 57.1655 27.6446C57.3905 27.9282 57.6347 28.1959 57.8965 28.4459C58.1921 28.722 58.5051 28.9787 58.8337 29.2144C59.4492 29.6588 60.1408 29.9868 60.8744 30.1821C61.1867 30.2778 61.5161 30.3042 61.8397 30.2594" fill="#E57C12"/>
<path d="M65.2861 28.4529C65.4692 28.3325 65.6069 28.1544 65.6774 27.9469C65.9912 27.2861 66.1689 26.569 66.1998 25.8382C66.235 25.3274 66.2138 24.8144 66.1366 24.3082C66.0574 23.7389 65.92 23.1791 65.7266 22.6377C65.5715 22.2073 65.3947 21.7851 65.1971 21.3725C64.9718 20.9194 64.7231 20.4784 64.452 20.0511C64.1269 19.5394 63.7526 19.0608 63.3344 18.6219C63.0804 18.357 62.8088 18.1097 62.5214 17.8815C62.1298 17.5577 61.7021 17.2802 61.2468 17.0545C60.8329 16.8354 60.3894 16.6776 59.9301 16.5859C59.6181 16.5102 59.2947 16.4935 58.9765 16.5367C58.9223 16.5444 58.8704 16.5636 58.8242 16.5929C58.9226 16.7054 59.0585 16.6937 59.1944 16.7382C59.6254 16.8958 60.0293 17.1195 60.3917 17.4012C60.9481 17.844 61.4492 18.3522 61.8841 18.9148C62.1417 19.2353 62.3811 19.5701 62.6011 19.9176C62.8119 20.2503 63.0158 20.5853 63.2173 20.925C63.5312 21.4475 63.8007 21.9958 64.0677 22.5417C64.2692 22.9493 64.4426 23.3734 64.609 23.7998C64.8222 24.3342 64.9999 24.8821 65.1408 25.4399C65.2563 25.8777 65.3347 26.3244 65.3751 26.7754C65.406 27.1757 65.4005 27.578 65.3587 27.9773C65.3221 28.1313 65.2978 28.288 65.2861 28.4459" fill="#E57C12"/>
<path d="M66.9777 14.6365C65.9051 14.9899 64.9108 15.5468 64.049 16.2766C63.074 17.083 62.3713 18.1703 62.0364 19.3904C61.7385 20.5513 61.7924 21.7746 62.191 22.9048C62.4915 23.8118 62.981 24.6447 63.6273 25.3485C63.6577 25.3813 63.6929 25.4118 63.7257 25.4446C63.7369 25.4472 63.7471 25.453 63.755 25.4613C63.7629 25.4696 63.7682 25.4801 63.7702 25.4914L63.8007 25.5196C63.8428 25.5196 63.8663 25.5196 63.8545 25.5805C63.8873 25.55 63.9201 25.5688 63.9529 25.5805C64.0888 25.6484 64.2247 25.7093 64.3583 25.7796C65.0577 26.1459 65.8009 26.4214 66.57 26.5997C67.242 26.7569 67.93 26.8356 68.6201 26.834C69.0912 26.825 69.561 26.782 70.0259 26.7051C70.2631 26.6627 70.4977 26.6071 70.7288 26.5387C71.0017 26.4646 71.2694 26.3722 71.5301 26.2623C72.042 26.047 72.5291 25.7768 72.9827 25.4563C73.396 25.1633 73.7762 24.8263 74.1167 24.4512C74.3809 24.1708 74.6164 23.8647 74.8196 23.5374C74.9904 23.2634 75.14 22.9767 75.2671 22.6799C75.4608 22.2478 75.6016 21.7939 75.6865 21.328C75.7648 20.9055 75.8009 20.4761 75.7942 20.0464C75.7852 19.6534 75.7452 19.2617 75.6747 18.8749C75.5856 18.3868 75.4434 17.91 75.2507 17.4528C74.9807 16.8197 74.6413 16.2185 74.2385 15.6604C74.0183 15.3605 73.7699 15.084 73.5567 14.7818C73.2547 14.6336 72.9413 14.5098 72.6195 14.4116C72.2993 14.4367 71.9841 14.5053 71.6824 14.6155C71.7052 14.7107 71.7048 14.81 71.6812 14.905C71.6575 15.0001 71.6113 15.088 71.5465 15.1614C71.4832 15.2621 71.3731 15.316 71.3286 15.4331C72.3759 16.6046 72.7601 18.1744 72.889 19.2686C72.8538 19.217 72.8281 19.1772 72.8046 19.1374C72.4753 18.5895 72.1065 18.0664 71.7011 17.5723C71.2388 16.995 70.7068 16.4771 70.1173 16.0306C69.9884 16.0728 69.8619 16.1196 69.7307 16.1548C69.4706 16.2363 69.2015 16.2859 68.9294 16.3024C68.9013 16.3633 68.8708 16.4195 68.8497 16.4804C68.6465 17.0595 68.552 17.6711 68.5709 18.2845C68.5709 18.6008 68.6037 18.9195 68.6225 19.2381C68.0203 18.3853 67.5939 17.4739 67.7017 16.3797C67.3979 16.3746 67.0989 16.3035 66.8254 16.1712C66.5102 16.4156 66.2452 16.7187 66.0452 17.0638C66.086 16.6113 66.2149 16.1712 66.4248 15.7682C66.4069 15.7187 66.4029 15.6652 66.413 15.6136C66.4596 15.3929 66.5855 15.197 66.7668 15.063C66.9285 14.9224 67.123 14.8287 67.2893 14.6975C67.1966 14.6597 67.0986 14.6368 66.9988 14.6295L66.9777 14.6365ZM62.8143 22.0098C62.8026 21.9348 62.7815 21.82 62.7698 21.7076C62.7151 21.3155 62.7438 20.9163 62.8541 20.5361C62.8899 20.3767 62.9782 20.234 63.1048 20.1308C63.2501 20.0253 63.3555 20.0698 63.4024 20.2549C63.4366 20.4152 63.4547 20.5784 63.4562 20.7423C63.4629 21.3421 63.5625 21.9372 63.7515 22.5065C63.866 22.781 63.9623 23.0628 64.0396 23.35C64.0912 23.5843 63.9811 23.6874 63.7655 23.6077C63.6067 23.5377 63.4704 23.4249 63.3719 23.282C63.0918 22.9014 62.9012 22.4626 62.8143 21.9981" fill="#BB251B"/>
<path d="M73.5475 14.7888C73.7654 15.0911 74.0161 15.3675 74.2293 15.6674C74.632 16.2255 74.9715 16.8267 75.2414 17.4598C75.4342 17.917 75.5764 18.3939 75.6655 18.882C75.736 19.2687 75.7759 19.6604 75.785 20.0534C75.7917 20.4832 75.7556 20.9125 75.6772 21.335C75.5935 21.8012 75.4526 22.2552 75.2578 22.6869C75.1306 22.9833 74.9819 23.2699 74.8127 23.5444C74.6086 23.8711 74.3732 24.1772 74.1098 24.4582C73.7693 24.8333 73.3891 25.1703 72.9758 25.4633C72.5222 25.7838 72.0352 26.0541 71.5232 26.2693C71.2625 26.3792 70.9948 26.4716 70.7219 26.5458C70.4908 26.6141 70.2562 26.6697 70.019 26.7121C69.5541 26.789 69.0843 26.8321 68.6132 26.841C67.9231 26.8426 67.2351 26.764 66.5631 26.6067C65.794 26.4284 65.0508 26.1529 64.3514 25.7866C64.2178 25.7163 64.0819 25.6554 63.9461 25.5875C63.9133 25.5711 63.8805 25.55 63.8477 25.5875C64.5424 26.2948 65.3782 26.848 66.3007 27.2112C67.9808 27.8976 69.848 27.9755 71.5794 27.4314C73.313 26.9344 74.8126 25.8353 75.8084 24.3317C76.6709 23.0832 77.0915 21.5823 77.0033 20.0675C76.8745 17.7808 75.7147 15.8174 73.5779 14.8076C73.5655 14.8062 73.5529 14.8062 73.5404 14.8076" fill="#DA251F"/>
<path d="M66.9769 14.6366C67.0767 14.6439 67.1748 14.6668 67.2675 14.7046C67.331 14.7094 67.3923 14.7304 67.4455 14.7655C67.0134 15.001 66.6531 15.3491 66.4029 15.7729C66.1936 16.177 66.0647 16.6178 66.0234 17.0709C66.2227 16.7254 66.4878 16.4221 66.8036 16.1783C67.0673 15.9654 67.3872 15.8335 67.7243 15.7987C67.7829 15.7987 67.8017 15.7987 67.7853 15.8737C67.7478 16.0447 67.715 16.2158 67.6798 16.3868C67.572 17.481 67.9985 18.3924 68.6006 19.2452C68.5819 18.9266 68.5537 18.6079 68.5491 18.2916C68.5301 17.6782 68.6246 17.0666 68.8279 16.4875C68.849 16.4266 68.8794 16.3704 68.9075 16.3095C69.0082 16.0463 69.1455 15.7987 69.3152 15.5738C69.348 15.5269 69.3785 15.5363 69.4183 15.5621C69.654 15.7033 69.8802 15.8599 70.0954 16.0307C70.685 16.4772 71.2169 16.995 71.6792 17.5723C72.0846 18.0665 72.4535 18.5896 72.7828 19.1374C72.8062 19.1772 72.832 19.2171 72.8671 19.2686C72.7383 18.1745 72.354 16.5977 71.3067 15.4332L70.8662 14.9974C71.1071 14.8255 71.3758 14.6963 71.6605 14.6155C71.9619 14.5043 72.2773 14.4357 72.5977 14.4117C73.0452 14.3367 73.5044 14.3601 73.9566 14.3227C73.6426 14.1777 73.3212 14.0494 72.9936 13.9384C72.3928 13.7762 71.7644 13.7427 71.1497 13.84C70.81 13.8781 70.4734 13.94 70.1423 14.0251C70.0228 14.0556 70.0204 14.0087 70.0321 13.9056C70.0848 13.3623 70.3349 12.8571 70.735 12.4858L70.8569 12.371C70.3919 12.4465 69.9494 12.6241 69.5612 12.8911C69.5554 13.2648 69.5114 13.6369 69.43 14.0017C69.3953 14.2386 69.3258 14.4691 69.2238 14.6858C69.1629 14.7889 69.0762 14.8545 68.9591 14.8053C68.8419 14.7561 68.8466 14.6436 68.8654 14.5382C68.9079 14.2473 68.9283 13.9536 68.9263 13.6596C68.9282 13.6321 68.9246 13.6044 68.9158 13.5783C68.9069 13.5521 68.893 13.528 68.8747 13.5073C68.725 13.1741 68.4811 12.8918 68.173 12.6954C67.865 12.4989 67.5063 12.3967 67.1409 12.4014C67.2159 12.5092 67.2886 12.61 67.3565 12.713C67.561 13.0041 67.6898 13.3415 67.7314 13.6947C67.7314 13.7931 67.7314 13.8236 67.6189 13.8095C66.3803 13.6431 65.1223 13.9096 64.0576 14.564C64.2802 14.5452 64.5028 14.5241 64.7254 14.5101C65.4361 14.446 66.1522 14.4759 66.8551 14.5991C66.8948 14.6068 66.9339 14.617 66.9723 14.6296" fill="#198138"/>
<path d="M69.4778 13.915C69.481 13.9626 69.481 14.0103 69.4778 14.0579C69.4735 14.3874 69.5042 14.7165 69.5692 15.0396C69.5949 15.1614 69.6067 15.2879 69.4263 15.3161C69.3471 15.326 69.2668 15.313 69.1949 15.2785C69.1231 15.244 69.0626 15.1896 69.0209 15.1216C68.871 14.8739 68.7656 14.6019 68.7093 14.318C68.5866 13.9094 68.5189 13.4863 68.5078 13.0598C68.5104 12.3954 68.6583 11.7397 68.9413 11.1386C68.9695 11.0833 69.0149 11.0385 69.0706 11.0111C69.1263 10.9836 69.1895 10.9749 69.2505 10.9863C69.578 10.9952 69.8988 11.0802 70.1877 11.2346C70.3775 11.3354 70.422 11.4197 70.3259 11.5627C69.8899 12.2274 69.6118 12.9832 69.5129 13.7721C69.5085 13.8214 69.4958 13.8697 69.4755 13.915" fill="#4BA234"/>
<path d="M62.7931 22.0169C62.8801 22.4813 63.0707 22.9202 63.3508 23.3008C63.4493 23.4437 63.5855 23.5564 63.7444 23.6265C63.9599 23.7061 64.07 23.603 64.0185 23.3687C63.9411 23.0815 63.8449 22.7998 63.7303 22.5253C63.5413 21.956 63.4417 21.3608 63.4351 20.761C63.4335 20.5972 63.4155 20.4339 63.3812 20.2737C63.3344 20.0886 63.2289 20.0394 63.0837 20.1495C62.957 20.2527 62.8687 20.3955 62.833 20.5549C62.7227 20.935 62.694 21.3343 62.7486 21.7263C62.7486 21.8388 62.7814 21.9606 62.7931 22.0286" fill="white"/>
<path d="M70.0961 16.0376C69.8808 15.8668 69.6546 15.7103 69.419 15.569C69.3791 15.5432 69.3487 15.5339 69.3159 15.5807C69.1461 15.8056 69.0089 16.0532 68.9082 16.3164C69.1803 16.2999 69.4494 16.2504 69.7095 16.1688C69.8407 16.1336 69.9672 16.0868 70.0961 16.0446" fill="#C41719"/>
<path d="M67.68 16.3867C67.7151 16.2157 67.7479 16.0446 67.7854 15.8736C67.8018 15.8033 67.7854 15.7892 67.7245 15.7986C67.3873 15.8334 67.0675 15.9653 66.8037 16.1782C67.0772 16.3105 67.3762 16.3816 67.68 16.3867Z" fill="#C41719"/>
<path d="M71.6615 14.6224C71.3767 14.7032 71.1081 14.8324 70.8672 15.0043L71.3077 15.4401C71.3522 15.323 71.4623 15.2691 71.5256 15.1683C71.5904 15.095 71.6366 15.007 71.6603 14.912C71.6839 14.817 71.6843 14.7177 71.6615 14.6224Z" fill="#C41719"/>
<path d="M66.4029 15.7752C66.6524 15.3502 67.0128 15.0011 67.4456 14.7654C67.3923 14.7303 67.3311 14.7093 67.2675 14.7045C67.1011 14.838 66.9067 14.9388 66.745 15.07C66.5636 15.204 66.4377 15.3999 66.3912 15.6206C66.381 15.6722 66.3851 15.7257 66.4029 15.7752Z" fill="#C41719"/>
<path d="M59.5079 20.8384C59.4376 21.1102 59.3392 21.3773 59.2736 21.6514C59.143 22.1543 59.0738 22.6712 59.0674 23.1907C59.0636 23.5643 59.1037 23.937 59.1869 24.3013C59.2547 24.5867 59.3448 24.8664 59.4563 25.1377C59.5833 25.4356 59.7403 25.7198 59.9249 25.9858C60.134 26.2819 60.3796 26.5503 60.6559 26.7848C60.8441 26.9495 61.0437 27.1006 61.2534 27.237C61.508 27.3989 61.777 27.5369 62.057 27.6493C62.43 27.8024 62.8179 27.9163 63.2144 27.9891C63.6547 28.0705 64.1022 28.1066 64.5499 28.0968C64.7789 28.0914 65.0074 28.0718 65.234 28.0383C65.4263 28.0153 65.6172 27.9817 65.8057 27.9375C66.1788 27.8483 66.5452 27.7332 66.9022 27.5931C68.0005 27.1436 68.9802 26.4469 69.7653 25.5571C69.845 25.4681 69.927 25.3837 69.9996 25.297C70.0184 25.2736 70.0371 25.2502 70.0722 25.2642C69.7638 25.9753 69.3096 26.6139 68.7391 27.1386C67.6721 28.1363 66.3094 28.7596 64.8568 28.9145C63.4302 29.1115 61.9788 28.8209 60.7379 28.0898C59.7264 27.5193 58.9459 26.6136 58.5309 25.529C58.2119 24.7449 58.1307 23.8843 58.2973 23.0544C58.464 22.2245 58.8711 21.462 59.468 20.8618C59.475 20.8535 59.4838 20.8471 59.4938 20.8431" fill="#C41719"/>
<path d="M64.3742 18.7086C64.3023 18.744 64.2359 18.7898 64.1774 18.8445C64.1329 18.8673 64.0944 18.9002 64.0649 18.9406C64.4543 18.9679 64.8298 19.0963 65.1544 19.3131C65.4317 19.5226 65.6643 19.7855 65.8385 20.0863C65.5777 19.9094 65.286 19.7831 64.9786 19.7137C64.7128 19.6487 64.4343 19.6568 64.1727 19.7372C64.1258 19.7372 64.1164 19.7653 64.1492 19.8074C64.2313 19.9129 64.3086 20.0207 64.3835 20.1261C64.8029 20.8454 64.7631 21.6021 64.578 22.373C64.4913 22.1387 64.4163 21.9231 64.3203 21.7029C64.1452 21.2721 63.8864 20.8802 63.5588 20.5502C63.5213 20.515 63.4815 20.4846 63.444 20.4518C63.2847 20.3018 63.1058 20.1741 62.9122 20.0722C62.8723 20.0511 62.8536 20.0722 62.8302 20.0956C62.6976 20.2654 62.5778 20.4447 62.4717 20.6322C62.1724 21.1155 61.9362 21.6352 61.7688 22.1785C61.619 22.6377 61.5046 23.1076 61.4267 23.5843C61.4267 23.6194 61.415 23.6522 61.4056 23.6991C61.1713 22.9072 60.9652 21.7076 61.3892 20.5853C61.4549 20.4424 61.5181 20.2995 61.5861 20.1495C61.354 20.1079 61.1171 20.1016 60.8832 20.1308C60.6208 20.1484 60.3617 20.1996 60.1123 20.2831C59.7539 20.3721 59.4095 20.5174 59.0674 20.6415C59.2591 20.4446 59.4609 20.2577 59.6719 20.0816C60.0744 19.7822 60.5323 19.5656 61.0191 19.4443C61.2853 19.3671 61.5561 19.306 61.8297 19.2615C61.9281 19.2451 61.9164 19.2147 61.8766 19.1467C61.6604 18.7838 61.3186 18.5129 60.916 18.3853L60.7894 18.3454C61.159 18.2537 61.5434 18.2394 61.9188 18.3033C62.0391 18.559 62.1868 18.801 62.3592 19.0249C62.4593 19.1788 62.5826 19.3163 62.7247 19.4326C62.7567 19.4619 62.7985 19.4781 62.8419 19.4781C62.8852 19.4781 62.927 19.4619 62.959 19.4326C63.034 19.3623 62.9918 19.2873 62.945 19.2194C62.8248 19.0337 62.7198 18.8386 62.631 18.636C62.6223 18.6168 62.6179 18.5961 62.6179 18.5751C62.6179 18.554 62.6223 18.5333 62.631 18.5141C62.647 18.2285 62.7462 17.9538 62.9165 17.724C63.0868 17.4942 63.3207 17.3192 63.5893 17.2208C63.5658 17.3192 63.5424 17.4106 63.5213 17.502C63.4588 17.7626 63.4669 18.0351 63.5448 18.2916C63.5682 18.3618 63.5893 18.3782 63.6643 18.3361C64.5431 17.8392 65.5578 17.6365 66.5601 17.7574L66.0423 17.9261C65.4932 18.0998 64.9675 18.3406 64.4773 18.643C64.4505 18.6604 64.4247 18.6792 64.3999 18.6992" fill="#198138"/>
<path d="M62.6055 18.5235C62.5968 18.5427 62.5923 18.5634 62.5923 18.5844C62.5923 18.6055 62.5968 18.6262 62.6055 18.6454C62.6947 18.8477 62.7997 19.0428 62.9194 19.2288C62.9663 19.2967 63.0085 19.3717 62.9335 19.442C62.9015 19.4713 62.8597 19.4875 62.8163 19.4875C62.773 19.4875 62.7312 19.4713 62.6992 19.442C62.5571 19.3257 62.4338 19.1882 62.3337 19.0343C62.1612 18.8104 62.0135 18.5684 61.8932 18.3127C61.7069 17.8938 61.5898 17.4476 61.5464 16.9912C61.5401 16.9538 61.546 16.9153 61.5633 16.8815C61.5806 16.8477 61.6084 16.8205 61.6425 16.8038C61.7875 16.7137 61.9571 16.6711 62.1275 16.682C62.24 16.682 62.2798 16.7312 62.2798 16.8436C62.2736 17.3924 62.3608 17.9383 62.5375 18.4579C62.5375 18.4837 62.5375 18.5423 62.5961 18.5235" fill="#4BA234"/>
<path d="M69.5363 20.4517C68.89 19.7047 68.0295 19.1746 67.0716 18.9335C66.1942 18.6931 65.2805 18.6137 64.3748 18.6992C64.3032 18.7352 64.237 18.7809 64.178 18.8351C64.3444 18.8749 64.5177 18.8773 64.6817 18.9265C64.8545 18.9582 65.0092 19.0535 65.1152 19.1936C65.1383 19.226 65.152 19.264 65.155 19.3037C65.4323 19.5132 65.665 19.7761 65.8392 20.0769C65.5783 19.9 65.2867 19.7737 64.9793 19.7043C64.8122 19.8811 64.6104 20.0215 64.3865 20.1167C64.8059 20.836 64.7661 21.5928 64.581 22.3636C64.4943 22.1293 64.4193 21.9114 64.3233 21.6935C64.1482 21.2627 63.8894 20.8708 63.5618 20.5408C63.5243 20.5056 63.4845 20.4752 63.447 20.4424C63.2385 20.5153 63.0223 20.564 62.8027 20.5876C62.6926 20.604 62.5824 20.6111 62.4747 20.6204C62.1767 21.1053 61.9406 21.6256 61.7718 22.1691C61.622 22.6283 61.5076 23.0982 61.4297 23.5749C61.4297 23.61 61.418 23.6428 61.4086 23.6897C61.1743 22.8978 60.9682 21.6982 61.3922 20.5759C61.3243 20.508 61.2235 20.5056 61.1462 20.4564C61.015 20.3768 60.8932 20.2948 60.8768 20.1214C60.6144 20.139 60.3553 20.1902 60.106 20.2737C59.8961 20.4402 59.6995 20.6227 59.5179 20.8196C59.4476 21.0914 59.3492 21.3585 59.2836 21.6326C59.153 22.1355 59.0838 22.6524 59.0774 23.1719C59.0736 23.5455 59.1137 23.9182 59.1969 24.2825C59.2647 24.5679 59.3548 24.8476 59.4663 25.1189C59.5933 25.4168 59.7503 25.701 59.9349 25.967C60.144 26.2631 60.3896 26.5315 60.6659 26.766C60.8544 26.9313 61.0549 27.0824 61.2657 27.2182C61.5193 27.3805 61.7875 27.5186 62.067 27.6305C62.44 27.7836 62.8279 27.8975 63.2244 27.9703C63.6647 28.0517 64.1122 28.0878 64.5599 28.078C64.7889 28.0726 65.0174 28.053 65.244 28.0195C65.4371 27.9963 65.6287 27.9627 65.8181 27.9187C66.1903 27.8292 66.5558 27.7141 66.9122 27.5743C68.0105 27.1248 68.9902 26.4281 69.7753 25.5383C69.855 25.4493 69.937 25.3649 70.0096 25.2782C70.0284 25.2548 70.0471 25.2314 70.0822 25.2454C70.0588 25.215 70.0822 25.1986 70.1033 25.1892L70.1174 25.1611C70.1156 25.1526 70.1164 25.1438 70.1198 25.1359C70.1231 25.1279 70.1288 25.1212 70.1361 25.1166L70.1806 25.0181C70.4443 24.3482 70.5539 23.6275 70.5016 22.9095C70.4522 22.0064 70.1138 21.1431 69.5363 20.447" fill="#DA251F"/>
<path d="M62.4746 20.6298C62.5813 20.4435 62.7011 20.265 62.8331 20.0956C62.8565 20.0652 62.8753 20.0511 62.9151 20.0722C63.1087 20.1741 63.2876 20.3018 63.4469 20.4518C63.2377 20.525 63.0207 20.5737 62.8003 20.597C62.6925 20.6134 62.5824 20.6205 62.4746 20.6298Z" fill="#C41719"/>
<path d="M64.3865 20.1261C64.3092 20.0206 64.2319 19.9129 64.1522 19.8074C64.1194 19.7652 64.1288 19.7488 64.1757 19.7371C64.4373 19.6568 64.7158 19.6487 64.9816 19.7137C64.8145 19.8905 64.6127 20.0309 64.3889 20.1261" fill="#C41719"/>
<path d="M60.8668 20.1402C61.1006 20.11 61.3378 20.1163 61.5697 20.1589C61.5017 20.3089 61.4385 20.4518 61.3729 20.5947C61.3049 20.5268 61.2042 20.5244 61.1269 20.4752C61.0574 20.4465 60.9964 20.4007 60.9493 20.3422C60.9022 20.2836 60.8706 20.2142 60.8574 20.1402" fill="#C41719"/>
<path d="M65.1569 19.3131C64.8323 19.0963 64.4568 18.9679 64.0674 18.9405C64.0969 18.9002 64.1354 18.8673 64.1798 18.8445C64.3462 18.8843 64.5196 18.8867 64.6836 18.9359C64.8567 18.9682 65.0114 19.0643 65.117 19.2053C65.1414 19.2361 65.1553 19.2738 65.1569 19.3131Z" fill="#C41719"/>
<path d="M72.2609 8.47924L72.4226 8.24494L72.4577 8.21214L72.5468 8.12779C72.603 8.08328 72.6616 8.03876 72.7155 7.9919C72.7693 7.94504 72.7764 7.93333 72.7295 7.90287C72.6381 7.83961 72.6592 7.75995 72.685 7.66858L72.7225 7.63343L72.7928 7.60532C72.9475 7.57882 73.1047 7.57017 73.2614 7.57954C73.2895 7.57954 73.3199 7.57954 73.3363 7.54909C73.3527 7.51863 73.3223 7.49754 73.3059 7.4788C73.267 7.43665 73.2353 7.38836 73.2122 7.33588C73.2168 7.29259 73.2373 7.25257 73.2698 7.22357C73.3023 7.19457 73.3443 7.17865 73.3879 7.1789C73.4793 7.1789 73.573 7.16484 73.6667 7.16016H73.6948H73.737L73.99 7.1953C74.1901 7.26034 74.3825 7.34675 74.564 7.45303L74.4774 7.27262C74.5078 7.14141 74.6086 7.19999 74.6859 7.1953C74.6929 7.20212 74.7015 7.207 74.711 7.20947C74.7204 7.21193 74.7303 7.2119 74.7398 7.20936L75.0982 7.34759C75.1054 7.35625 75.1143 7.36325 75.1244 7.3681C75.1345 7.37296 75.1456 7.37555 75.1568 7.37571C75.1626 7.38441 75.1707 7.39125 75.1803 7.39541C75.1898 7.39957 75.2004 7.40087 75.2107 7.39914C75.2156 7.40683 75.2227 7.41293 75.231 7.41668C75.2393 7.42042 75.2485 7.42166 75.2576 7.42022L75.7472 7.65452L76.1198 8.02236C76.1015 7.94533 76.1015 7.8651 76.1198 7.78807C76.1924 7.75527 76.258 7.80447 76.3259 7.81618C76.4595 7.91271 76.5794 8.02701 76.6821 8.15591C76.7664 8.29883 76.8484 8.44175 76.9304 8.58467C76.9585 8.6737 76.9867 8.76508 77.0218 8.87285C77.0733 8.77913 77.1179 8.70885 77.2209 8.76274C77.227 8.7676 77.2325 8.77309 77.2373 8.77914C77.2655 8.80959 77.2912 8.8424 77.317 8.8752L77.3826 8.98063L77.406 9.02515C77.4716 9.19384 77.5349 9.36253 77.5982 9.53357C77.5841 9.56402 77.6192 9.5734 77.6239 9.59448C77.7343 10.0654 77.7925 10.5471 77.7973 11.0307C77.8161 11.3822 77.809 11.7336 77.7973 12.0897C77.7973 12.3381 77.7622 12.5841 77.7434 12.8324C77.6762 12.851 77.6046 12.8443 77.5419 12.8137C77.5371 12.8056 77.5331 12.7969 77.5302 12.7879C77.5291 12.7762 77.5291 12.7645 77.5302 12.7528L77.5162 12.6989C77.4513 12.3578 77.3393 12.0274 77.1835 11.7172C77.0985 11.4965 76.9604 11.3002 76.7814 11.1457C76.6024 10.9912 76.388 10.8833 76.1573 10.8316C76.1118 10.8282 76.068 10.813 76.0302 10.7875C75.9924 10.762 75.9619 10.7271 75.9417 10.6863C75.9417 10.6863 75.9534 10.6676 75.9581 10.6558C75.9628 10.6441 76.0167 10.5973 75.9862 10.5668C75.9558 10.5364 75.9276 10.5668 75.9019 10.5856C75.7979 10.6235 75.7058 10.6881 75.6348 10.773L75.5692 10.8081H75.5481C75.5481 10.8081 75.5481 10.8081 75.5317 10.8081C75.459 10.8305 75.3819 10.8343 75.3074 10.8191C75.2329 10.804 75.1634 10.7704 75.1053 10.7214C75.0625 10.6152 75.0364 10.503 75.0279 10.3887C74.9085 10.4801 74.8288 10.6066 74.6835 10.6441C74.5945 10.6676 74.5055 10.7004 74.4141 10.7168C74.3537 10.7306 74.2909 10.7302 74.2307 10.7156C74.1705 10.701 74.1146 10.6725 74.0673 10.6324C73.976 10.5481 74.0017 10.4473 74.0392 10.3395C73.9751 10.3549 73.9141 10.381 73.8588 10.4169C73.6867 10.4718 73.5114 10.5164 73.334 10.5504C73.2375 10.5497 73.1415 10.5371 73.0482 10.5129C72.9948 10.4718 72.9548 10.4158 72.9331 10.3521C72.9114 10.2883 72.9091 10.2196 72.9263 10.1544C72.9609 9.97602 73.0276 9.80536 73.1231 9.65071C73.2384 9.4913 73.3882 9.35996 73.5613 9.26647C73.3479 9.26888 73.1353 9.29163 72.9263 9.33441C72.7292 9.34038 72.5373 9.27082 72.3898 9.13995L72.3195 9.0392L72.2797 8.97829C72.2656 8.94314 72.2492 8.91034 72.2351 8.8752L72.2211 8.83537L72.207 8.69479L72.2562 8.46049" fill="#3D833D"/>
<path d="M83.4178 8.30584C83.3732 8.34332 83.3287 8.37847 83.2866 8.4183C83.2444 8.45813 83.228 8.44407 83.2397 8.47922C83.2514 8.51436 83.2819 8.5167 83.31 8.52139C83.481 8.53673 83.649 8.57617 83.809 8.63853L83.8887 8.72757C83.8887 8.78146 83.9004 8.85175 83.8442 8.8822C83.7223 8.95015 83.7809 9.01107 83.8442 9.07667L83.9379 9.18679L83.9707 9.22662L84.0129 9.28519L84.0621 9.37423C84.0665 9.38013 84.0704 9.3864 84.0738 9.39297C84.0949 9.4492 84.1183 9.50309 84.1394 9.55698C84.1605 9.61086 84.1511 9.72098 84.1558 9.80533C84.1323 9.89408 84.0951 9.97865 84.0457 10.056C84.0457 10.0701 84.0293 10.0818 84.0222 10.0935L83.9847 10.1357C83.9637 10.1357 83.9543 10.1497 83.9496 10.1708L83.891 10.22C83.7157 10.327 83.5056 10.3615 83.3053 10.3161L82.7289 10.1193C82.8608 10.2473 82.9729 10.3941 83.0616 10.5551L83.0944 10.6254V10.6464C83.1541 10.811 83.185 10.9845 83.1858 11.1596C83.19 11.2268 83.1727 11.2937 83.1365 11.3505C83.1003 11.4073 83.047 11.4512 82.9843 11.4759C82.8893 11.4775 82.7943 11.4696 82.7008 11.4524C82.5324 11.3838 82.3682 11.3056 82.2088 11.2181L82.0635 11.108C82.0776 11.3821 81.9534 11.4852 81.6957 11.4384C81.575 11.4042 81.4598 11.3529 81.3536 11.2861C81.2515 11.194 81.1589 11.092 81.0771 10.9815C81.0535 11.1149 80.9878 11.2372 80.8897 11.3306C80.7915 11.3636 80.6851 11.3631 80.5871 11.3292C80.4892 11.2953 80.4053 11.2298 80.3485 11.1432C80.3042 11.0686 80.2402 11.0077 80.1634 10.9674C80.1329 10.9557 80.0767 10.9323 80.1001 11.0026C80.1493 11.1385 80.058 11.1572 79.9689 11.176C79.9039 11.1876 79.8381 11.1946 79.7721 11.197C79.4549 11.2188 79.1591 11.3654 78.9497 11.6047L78.8818 11.682L78.8654 11.6984C78.8292 11.7211 78.8013 11.7548 78.7857 11.7945C78.5164 12.1187 78.3027 12.4852 78.1531 12.8793C78.0796 12.8931 78.0036 12.8841 77.9352 12.8535C77.9317 12.8091 77.9317 12.7644 77.9352 12.72C77.9891 12.3919 78.0407 12.0616 78.0969 11.7336C78.1649 11.3118 78.2609 10.8948 78.3617 10.4801C78.4209 10.2399 78.4993 10.0049 78.596 9.77721L79.0645 9.07432L79.1091 9.03684C79.245 8.90798 79.2871 8.915 79.3738 9.07198C79.3738 9.07198 79.3855 9.07198 79.3926 9.07198L79.5167 8.83769L79.8424 8.46047L80.0322 8.30584L80.1142 8.24961L80.2196 8.19806L80.4117 8.16057C80.5523 8.22852 80.4118 8.32927 80.4399 8.42064C80.5656 8.31386 80.6987 8.21599 80.8382 8.12777L81.3583 7.98954C81.3733 7.99455 81.3894 7.99567 81.4049 7.9928C81.4205 7.98993 81.4351 7.98317 81.4473 7.97314C81.4715 7.97572 81.4958 7.96902 81.5153 7.95439L81.9417 7.87708H82.0659C82.1432 7.87708 82.1877 7.91457 82.169 8.00125C82.1508 8.01723 82.1365 8.03714 82.1271 8.05946C82.1178 8.08179 82.1137 8.10595 82.1151 8.13011C82.2895 8.0731 82.4681 8.03001 82.6493 8.00125H82.8367H82.8789C82.9108 8.01197 82.9454 8.01197 82.9773 8.00125C83.0757 8.03406 83.1811 8.03405 83.2772 8.07623C83.3732 8.1184 83.4248 8.17463 83.4014 8.28006" fill="#3D833D"/>
<path d="M76.5668 29.8258C76.5106 29.8891 76.4567 29.9571 76.3958 30.0156C76.2435 30.1679 76.1615 30.1609 76.0444 29.9852C75.9263 29.8081 75.8347 29.6147 75.7726 29.4111C75.5751 28.8395 75.4146 28.2556 75.2923 27.6633C75.3415 27.6141 75.4 27.6422 75.4563 27.6399C75.6581 27.6665 75.863 27.6554 76.0608 27.6071C76.1701 27.5595 76.2607 27.4773 76.3187 27.3731C76.3767 27.269 76.3988 27.1487 76.3817 27.0307C76.3667 26.9163 76.3138 26.8103 76.2313 26.7296C76.1489 26.6489 76.0418 26.5982 75.9272 26.5855L75.1587 26.5129C75.1165 26.5129 75.0673 26.5129 75.0345 26.4754C75.0135 26.3676 74.9947 26.2599 74.9713 26.1544C74.9057 25.8616 74.8729 25.5617 74.7932 25.2735C74.7969 25.2608 74.7976 25.2473 74.7951 25.2343C74.7927 25.2213 74.7872 25.209 74.7792 25.1985C74.7564 24.9678 74.7204 24.7386 74.6714 24.512C74.6518 24.3172 74.6157 24.1244 74.5636 23.9357C74.5782 23.8665 74.5682 23.7945 74.5355 23.7318C74.5386 23.7187 74.5389 23.705 74.5365 23.6917C74.5341 23.6784 74.529 23.6657 74.5214 23.6545C74.5287 23.5649 74.5143 23.4749 74.4793 23.3921C74.4802 23.3843 74.4802 23.3765 74.4793 23.3687C74.4875 23.3496 74.4905 23.3288 74.4881 23.3082C74.4856 23.2876 74.4777 23.2681 74.4652 23.2515C74.4677 23.2486 74.469 23.2448 74.469 23.241C74.469 23.2371 74.4677 23.2334 74.4652 23.2304C74.4709 23.2198 74.4728 23.2075 74.4707 23.1956C74.4686 23.1837 74.4625 23.1729 74.4535 23.1648C74.4598 23.1529 74.4632 23.1397 74.4632 23.1262C74.4632 23.1127 74.4598 23.0994 74.4535 23.0875C74.4609 23.0678 74.4633 23.0466 74.4604 23.0257C74.4576 23.0048 74.4495 22.985 74.4371 22.968C74.4392 22.9649 74.4403 22.9612 74.4403 22.9575C74.4403 22.9537 74.4392 22.95 74.4371 22.9469C74.4443 22.9375 74.4482 22.926 74.4482 22.9141C74.4482 22.9023 74.4443 22.8907 74.4371 22.8813C74.4371 22.8813 74.4371 22.8649 74.4371 22.8556C74.4352 22.72 74.4155 22.5853 74.3785 22.4549C74.3808 22.4514 74.3821 22.4474 74.3821 22.4432C74.3821 22.439 74.3808 22.435 74.3785 22.4315C74.3996 22.3893 74.3785 22.3518 74.3574 22.3143C74.3584 22.305 74.3584 22.2956 74.3574 22.2862C74.3692 22.2481 74.3692 22.2072 74.3574 22.1691C74.3293 21.9793 74.3082 21.7872 74.2778 21.5974C74.2574 21.3748 74.2253 21.1535 74.1817 20.9343C74.1832 20.9333 74.1843 20.9318 74.1852 20.9302C74.186 20.9286 74.1864 20.9268 74.1864 20.925C74.1864 20.9232 74.186 20.9214 74.1852 20.9197C74.1843 20.9181 74.1832 20.9167 74.1817 20.9156C74.1884 20.9056 74.1921 20.8937 74.1921 20.8816C74.1921 20.8695 74.1884 20.8577 74.1817 20.8477C74.1852 20.8349 74.1858 20.8215 74.1834 20.8085C74.1809 20.7955 74.1755 20.7833 74.1676 20.7727C74.1676 20.5665 74.1208 20.3673 74.1161 20.1612C74.17 20.1213 74.2262 20.1401 74.2825 20.1448C75.2899 20.2385 76.2958 20.3338 77.3002 20.4306C77.4024 20.4431 77.5061 20.4248 77.598 20.3781C77.6898 20.3313 77.7656 20.2583 77.8156 20.1682C77.8625 20.0891 77.8884 19.9993 77.8909 19.9073C77.8934 19.8154 77.8725 19.7243 77.8301 19.6427C77.7876 19.5611 77.7251 19.4917 77.6484 19.441C77.5716 19.3903 77.4832 19.3599 77.3915 19.3528C76.3161 19.2615 75.2407 19.1537 74.1653 19.053C74.1044 19.053 74.0411 19.053 73.9919 19.0037C73.9919 18.9616 73.9802 18.9171 73.9755 18.8725C73.9404 18.6382 73.9451 18.3899 73.8959 18.1509C73.8973 18.1498 73.8985 18.1484 73.8993 18.1468C73.9001 18.1452 73.9006 18.1434 73.9006 18.1415C73.9006 18.1397 73.9001 18.1379 73.8993 18.1363C73.8985 18.1347 73.8973 18.1333 73.8959 18.1322C73.9018 17.9274 73.8877 17.7226 73.8537 17.5207C73.8553 17.5174 73.8562 17.5138 73.8562 17.5101C73.8562 17.5065 73.8553 17.5028 73.8537 17.4996C73.8624 17.316 73.8498 17.132 73.8162 16.9513C73.8396 16.8201 73.8045 16.6889 73.8162 16.5577C73.8638 16.5449 73.9139 16.5449 73.9615 16.5577C74.3832 16.5952 74.8073 16.635 75.229 16.6772C75.3081 16.6884 75.3886 16.6822 75.4651 16.6592C75.5416 16.6361 75.6121 16.5967 75.6718 16.5436C75.7529 16.473 75.8103 16.3792 75.8363 16.2748C75.8622 16.1705 75.8556 16.0607 75.8171 15.9603C75.7848 15.8599 75.7226 15.7718 75.6388 15.7078C75.5551 15.6437 75.4538 15.6067 75.3485 15.6018C74.8284 15.5573 74.3082 15.5034 73.7881 15.4542C73.8045 15.2972 73.8232 15.1402 73.8396 14.9856C73.9288 14.6293 74.0829 14.2926 74.2942 13.9922C74.4698 13.7966 74.6619 13.6163 74.8682 13.4533C74.9073 13.4367 74.9419 13.411 74.9689 13.3783C75.2917 13.2002 75.6326 13.0573 75.9858 12.9519C76.251 12.8965 76.5194 12.8574 76.7894 12.8348C76.9394 12.8348 77.0893 12.816 77.2369 12.8066C77.2395 12.8093 77.2426 12.8113 77.246 12.8128C77.2495 12.8142 77.2531 12.8149 77.2568 12.8149C77.2605 12.8149 77.2642 12.8142 77.2676 12.8128C77.271 12.8113 77.2741 12.8093 77.2767 12.8066C77.3719 12.8253 77.4698 12.8253 77.5649 12.8066H77.593C77.6557 12.8372 77.7273 12.8439 77.7945 12.8254C77.8608 12.8514 77.9332 12.8579 78.0031 12.8441C78.0714 12.8747 78.1474 12.8837 78.221 12.8699C78.3605 12.9141 78.5057 12.9378 78.6521 12.9402C79.029 13.0329 79.3993 13.1511 79.7603 13.294C80.0732 13.4565 80.3698 13.6487 80.6459 13.868C80.665 13.8848 80.683 13.9028 80.6998 13.9219C80.9331 14.1543 81.1312 14.4195 81.2879 14.7091L81.3136 14.7536L81.4472 15.1168C81.4659 15.2175 81.4847 15.3183 81.5058 15.4167L81.5198 15.4753C81.5177 15.4908 81.5177 15.5066 81.5198 15.5221C81.5401 15.9984 81.475 16.4745 81.3277 16.9279C81.3019 16.8951 81.2644 16.8951 81.227 16.8904L79.1394 16.6959C79.0681 16.6881 78.996 16.6966 78.9286 16.721C78.8612 16.7454 78.8002 16.7849 78.7505 16.8365C78.6701 16.9138 78.6156 17.0141 78.5946 17.1236C78.5737 17.2332 78.5872 17.3465 78.6333 17.448C78.6709 17.5422 78.7354 17.6233 78.8187 17.6812C78.902 17.7391 79.0005 17.7713 79.1019 17.7737C79.6994 17.8323 80.2968 17.8862 80.8966 17.9424C80.9505 17.9424 81.0114 17.9424 81.0559 17.9916L81.0348 18.1087C80.9856 18.3243 80.9036 18.5328 80.8732 18.7531C80.8709 18.7556 80.8696 18.759 80.8696 18.7624C80.8696 18.7659 80.8709 18.7692 80.8732 18.7718C80.8265 18.8795 80.7911 18.9918 80.7677 19.1068C80.674 19.4255 80.585 19.7418 80.496 20.0604C80.494 20.0632 80.493 20.0664 80.493 20.0698C80.493 20.0731 80.494 20.0764 80.496 20.0792C80.4862 20.0871 80.4791 20.098 80.4758 20.1102C80.4724 20.1223 80.4729 20.1352 80.4772 20.1471C80.4751 20.1493 80.4739 20.1522 80.4739 20.1553C80.4739 20.1584 80.4751 20.1613 80.4772 20.1635C80.4678 20.1718 80.4608 20.1825 80.4571 20.1945C80.4533 20.2065 80.453 20.2193 80.4561 20.2315C80.4561 20.2315 80.4561 20.2315 80.4561 20.2479C80.4022 20.3525 80.3673 20.466 80.353 20.5829C80.352 20.5946 80.352 20.6064 80.353 20.618C80.3443 20.6348 80.3364 20.652 80.3296 20.6696C80.2848 20.7872 80.248 20.9078 80.2195 21.0304V21.0585V21.089C80.1751 21.1592 80.1508 21.2402 80.1492 21.3233C80.0973 21.4251 80.061 21.534 80.0414 21.6466C79.8962 22.0191 79.772 22.3963 79.6595 22.7759C79.6013 22.8885 79.561 23.0094 79.54 23.1344C79.54 23.1344 79.54 23.1344 79.54 23.1531C79.5253 23.1685 79.5143 23.1871 79.5078 23.2074C79.5013 23.2277 79.4995 23.2492 79.5025 23.2703C79.5025 23.2703 79.4908 23.2703 79.5025 23.2843C79.3854 23.5561 79.294 23.8373 79.2003 24.1161C79.1308 24.2629 79.0728 24.4148 79.0269 24.5706C78.9238 24.8541 78.7926 25.1282 78.7177 25.4211C78.6384 25.5692 78.5778 25.7266 78.5372 25.8897L78.5255 25.9155C78.4608 26.0277 78.4119 26.1483 78.3803 26.2739C78.3592 26.2739 78.3615 26.2974 78.3662 26.3138C78.3709 26.3302 78.3545 26.3395 78.3475 26.3512C78.3372 26.3572 78.3294 26.3666 78.3256 26.3778C78.3217 26.389 78.322 26.4012 78.3264 26.4122C78.3184 26.4173 78.3123 26.4249 78.309 26.4337C78.3056 26.4425 78.3051 26.4522 78.3076 26.4614C78.2426 26.5654 78.1951 26.6794 78.1671 26.7988C78.1649 26.8019 78.1638 26.8055 78.1638 26.8093C78.1638 26.8131 78.1649 26.8167 78.1671 26.8198C78.0241 27.0893 77.9328 27.3775 77.8016 27.6539C77.7245 27.8051 77.6587 27.9617 77.6048 28.1225L77.5884 28.1577C77.5776 28.1651 77.5693 28.1755 77.5643 28.1875C77.5593 28.1996 77.5579 28.2128 77.5602 28.2256C77.5602 28.2256 77.5602 28.2467 77.5415 28.2584C77.5308 28.2658 77.5224 28.2762 77.5175 28.2883C77.5125 28.3003 77.5111 28.3135 77.5134 28.3264L77.497 28.3568C77.4228 28.4779 77.3585 28.6049 77.3049 28.7364C77.176 28.9847 77.0518 29.2378 76.9253 29.4885L76.8878 29.5447C76.8261 29.6147 76.7756 29.6937 76.7379 29.779C76.7379 29.7954 76.7168 29.8094 76.7074 29.8235L76.5668 29.8258ZM78.4529 24.2004C78.538 24.132 78.6001 24.0393 78.6311 23.9346C78.6621 23.83 78.6604 23.7184 78.6263 23.6147C78.5991 23.5134 78.54 23.4236 78.4576 23.3586C78.3753 23.2935 78.2743 23.2568 78.1694 23.2539L75.7866 23.0196C75.717 23.0087 75.646 23.0124 75.5779 23.0306C75.5098 23.0487 75.4463 23.0809 75.3914 23.125C75.3365 23.1691 75.2914 23.2242 75.259 23.2867C75.2266 23.3493 75.2076 23.4179 75.2032 23.4882C75.1906 23.5609 75.1934 23.6355 75.2115 23.7071C75.2297 23.7786 75.2627 23.8456 75.3085 23.9035C75.3542 23.9615 75.4117 24.0091 75.4772 24.0433C75.5426 24.0775 75.6145 24.0975 75.6882 24.102C76.4778 24.1793 77.2697 24.252 78.0593 24.3363C78.1298 24.3473 78.202 24.3421 78.2702 24.321C78.3384 24.2999 78.4009 24.2634 78.4529 24.2145" fill="#E98B19"/>
<path d="M77.9375 12.8535C77.8677 12.8673 77.7953 12.8608 77.729 12.8348C77.7478 12.5864 77.7735 12.3404 77.7829 12.0921C77.797 11.7383 77.804 11.3892 77.7829 11.033C77.778 10.5494 77.7198 10.0677 77.6095 9.59681C77.6095 9.57573 77.5697 9.56635 77.5838 9.53589C77.5966 9.52935 77.6067 9.51846 77.6123 9.50516C77.6179 9.49186 77.6186 9.47702 77.6142 9.46326C77.5864 9.29636 77.5456 9.13186 77.4924 8.97124C77.4957 8.96208 77.4964 8.95214 77.4943 8.9426C77.4923 8.93306 77.4875 8.92431 77.4807 8.91735C77.4841 8.89933 77.4836 8.88078 77.4791 8.86297C77.4747 8.84517 77.4664 8.82855 77.4549 8.81426C77.4496 8.77399 77.4418 8.73408 77.4315 8.69477C77.3471 8.37613 77.2581 8.05749 77.1738 7.74119C77.1769 7.72903 77.1771 7.71627 77.1743 7.70402C77.1714 7.69177 77.1656 7.6804 77.1573 7.67091V7.63107C77.1573 7.55844 77.1573 7.48815 77.1573 7.41787L77.1855 7.26557L77.1995 7.22574L77.2276 7.16483C77.2678 7.10874 77.3204 7.0628 77.3814 7.03067C77.4425 6.99853 77.5101 6.98109 77.5791 6.97973C77.5346 6.92116 77.5064 6.87899 77.476 6.84384C77.31 6.67716 77.1835 6.47541 77.1058 6.25342C77.0027 5.88792 77.2206 5.59974 77.5603 5.65128C77.5603 5.65128 77.5744 5.65128 77.5814 5.63722C77.5647 5.60001 77.5369 5.5689 77.5018 5.54819C77.4932 5.51509 77.4733 5.48606 77.4455 5.46619C77.4283 5.41902 77.3993 5.37706 77.3612 5.34435L77.326 5.27875L77.2792 5.15223C77.2462 5.08704 77.2272 5.01573 77.2231 4.9428C77.2191 4.86987 77.2302 4.79689 77.2557 4.72846C77.2812 4.66002 77.3206 4.59761 77.3715 4.54514C77.4223 4.49267 77.4834 4.45128 77.551 4.42357C77.551 4.42357 77.5627 4.42357 77.565 4.42357C77.5761 4.42995 77.5886 4.4333 77.6013 4.4333C77.6141 4.4333 77.6266 4.42995 77.6377 4.42357H77.6517H77.6939C77.7595 4.45872 77.8274 4.48918 77.8556 4.56415C77.9001 4.52666 77.893 4.4798 77.9001 4.43763C77.9155 4.31203 77.9478 4.18909 77.9961 4.07213C78.0296 3.98526 78.0812 3.90648 78.1474 3.841C78.2136 3.77553 78.293 3.72484 78.3802 3.69229C78.4675 3.65974 78.5606 3.64607 78.6535 3.65217C78.7464 3.65828 78.837 3.68403 78.9192 3.72772L78.9778 3.74412L79.0106 3.76755C79.0343 3.8027 79.0689 3.82906 79.109 3.84252L79.273 4.0323C79.3408 4.15366 79.3831 4.28761 79.3972 4.42592C79.3972 4.45403 79.3972 4.46575 79.4394 4.46106C79.5349 4.43903 79.6352 4.45257 79.7214 4.49915C79.8077 4.54572 79.874 4.62215 79.908 4.7141C79.9903 4.85141 80.0284 5.01071 80.0171 5.1704C80.0057 5.33009 79.9456 5.48244 79.8447 5.60676C79.758 5.71923 79.676 5.84106 79.5917 5.96055C79.7533 5.8926 79.915 5.82466 80.0368 6.01444C80.0368 6.05895 80.0696 6.08238 80.0907 6.11519C80.1118 6.14799 80.0907 6.1433 80.0907 6.15736V6.19953C80.0855 6.20799 80.0828 6.21772 80.0828 6.22765C80.0828 6.23757 80.0855 6.2473 80.0907 6.25576C80.0907 6.31199 80.0907 6.37057 80.079 6.4268L79.99 6.66109L79.9689 6.68686C79.9617 6.69967 79.9554 6.71298 79.9502 6.72669L79.9291 6.75481C79.9139 6.76339 79.9008 6.77517 79.8907 6.78934C79.8806 6.8035 79.8737 6.8197 79.8705 6.83681L79.84 6.87899L79.2941 7.48581C79.5659 7.45067 79.6292 7.53267 79.5284 7.79274C79.5097 7.84429 79.4933 7.89817 79.4745 7.95206C79.4745 7.96612 79.4628 7.98017 79.4581 7.99189L79.4347 8.02235C79.2654 8.27674 79.109 8.53949 78.9661 8.80958C78.9574 8.81485 78.9503 8.82249 78.9458 8.83162C78.9412 8.84074 78.9393 8.85098 78.9403 8.86113C78.9297 8.86834 78.9211 8.87815 78.9154 8.88964C78.9096 8.90113 78.9069 8.9139 78.9075 8.92673C78.7605 9.19219 78.6381 9.47062 78.542 9.75848C78.542 9.77722 78.542 9.78893 78.5655 9.78659C78.4691 10.0144 78.3908 10.2494 78.3312 10.4895C78.2304 10.9042 78.1344 11.3212 78.0664 11.743C78.0102 12.071 77.9586 12.4013 77.9048 12.7293C77.9012 12.7738 77.9012 12.8184 77.9048 12.8629" fill="#4BA34F"/>
<path d="M75.0346 26.4755C75.0674 26.5153 75.1166 26.5083 75.1587 26.513L75.9272 26.5856C76.0419 26.5982 76.149 26.649 76.2314 26.7297C76.3138 26.8104 76.3667 26.9164 76.3817 27.0307C76.3989 27.1487 76.3767 27.269 76.3187 27.3732C76.2607 27.4773 76.1701 27.5595 76.0608 27.6071C75.8629 27.6543 75.6581 27.6654 75.4563 27.6399C75.4 27.6399 75.3415 27.6141 75.2923 27.6633C75.2609 27.6511 75.2337 27.6299 75.2142 27.6024C75.1946 27.575 75.1835 27.5424 75.1822 27.5087C75.1142 27.1807 75.0439 26.8527 74.9736 26.5247L75.0346 26.4802" fill="#E26B0E"/>
<path d="M73.9383 19.0061C73.9875 19.0554 74.0507 19.0483 74.1117 19.0554C75.1871 19.1561 76.2625 19.2639 77.3379 19.3552C77.4296 19.3623 77.518 19.3927 77.5947 19.4434C77.6714 19.4941 77.734 19.5635 77.7764 19.6451C77.8189 19.7267 77.8398 19.8178 77.8373 19.9097C77.8347 20.0017 77.8088 20.0915 77.762 20.1706C77.7119 20.2607 77.6361 20.3337 77.5443 20.3805C77.4525 20.4272 77.3488 20.4455 77.2465 20.433C76.2406 20.3346 75.2347 20.2393 74.2288 20.1472C74.1726 20.1472 74.1163 20.1237 74.0625 20.1636C73.9898 20.0933 74.0156 19.9878 73.9664 19.9082C73.966 19.7775 73.9527 19.6473 73.9266 19.5193C73.943 19.5193 73.9383 19.4982 73.9266 19.4888C73.9277 19.4693 73.9277 19.4497 73.9266 19.4302C73.9364 19.3524 73.9364 19.2737 73.9266 19.1959C73.9266 19.1303 73.8961 19.06 73.957 19.0015" fill="#E26B0E"/>
<path d="M78.3131 24.2075C78.2611 24.2564 78.1986 24.2929 78.1304 24.314C78.0622 24.3351 77.9901 24.3403 77.9195 24.3293C77.1299 24.2567 76.338 24.184 75.5484 24.095C75.4747 24.0905 75.4028 24.0705 75.3374 24.0363C75.2719 24.0021 75.2145 23.9545 75.1687 23.8965C75.1229 23.8386 75.0899 23.7716 75.0717 23.7001C75.0536 23.6285 75.0508 23.5539 75.0634 23.4812C75.0678 23.4109 75.0868 23.3422 75.1192 23.2797C75.1516 23.2172 75.1967 23.1621 75.2516 23.118C75.3065 23.0739 75.3701 23.0417 75.4381 23.0236C75.5062 23.0054 75.5772 23.0017 75.6468 23.0126L78.0296 23.2469C78.1345 23.2498 78.2355 23.2865 78.3179 23.3515C78.4002 23.4165 78.4593 23.5064 78.4865 23.6077C78.5206 23.7114 78.5223 23.823 78.4913 23.9276C78.4603 24.0323 78.3982 24.125 78.3131 24.1934" fill="#E26B0E"/>
<path d="M80.9935 17.9916C80.949 17.9401 80.888 17.9471 80.8342 17.9424C80.2344 17.8862 79.6369 17.8323 79.0394 17.7737C78.9362 17.773 78.8354 17.7417 78.7499 17.6837C78.6644 17.6257 78.598 17.5437 78.5591 17.448C78.5144 17.3463 78.5016 17.2333 78.5225 17.124C78.5434 17.0148 78.5971 16.9145 78.6763 16.8365C78.7263 16.7846 78.7876 16.7449 78.8555 16.7205C78.9233 16.6961 78.9959 16.6877 79.0676 16.696L81.1551 16.8904C81.1926 16.8904 81.2301 16.8904 81.2559 16.9279C81.1883 17.2871 81.1007 17.6422 80.9935 17.9916Z" fill="#E26B0E"/>
<path d="M73.723 15.4565C74.2431 15.5057 74.7632 15.5596 75.2834 15.6042C75.3887 15.6091 75.49 15.6461 75.5737 15.7101C75.6575 15.7742 75.7196 15.8623 75.752 15.9626C75.7904 16.063 75.7971 16.1728 75.7711 16.2772C75.7452 16.3815 75.6878 16.4754 75.6067 16.546C75.547 16.5991 75.4765 16.6385 75.4 16.6615C75.3235 16.6846 75.243 16.6908 75.1639 16.6796C74.7421 16.6374 74.3181 16.5976 73.8963 16.5601C73.8488 16.5472 73.7986 16.5472 73.7511 16.5601C73.7325 16.5232 73.7252 16.4816 73.73 16.4406C73.7351 16.1981 73.7249 15.9555 73.6995 15.7143C73.7323 15.6346 73.6503 15.5479 73.7183 15.48" fill="#E26B0E"/>
<path d="M77.8089 4.14712L78.0432 3.90111L78.0901 3.873L78.2096 3.79334C78.2846 3.75585 78.3595 3.71836 78.4322 3.67619C78.4673 3.6551 78.5142 3.6223 78.4697 3.57778C78.3783 3.48641 78.4181 3.39972 78.4697 3.30834L78.5212 3.27789L78.6079 3.26149C78.788 3.2648 78.9672 3.28838 79.1421 3.33177C79.1749 3.33177 79.2124 3.34583 79.2358 3.31537C79.2592 3.28491 79.2358 3.25211 79.2171 3.22634C79.1822 3.16966 79.1562 3.10805 79.1397 3.04359C79.1553 2.99573 79.1875 2.95501 79.2304 2.9288C79.2734 2.90259 79.3243 2.89261 79.374 2.90067L79.6974 2.9405H79.7278L79.777 2.95456L80.0582 3.04828C80.2726 3.16694 80.4737 3.30833 80.658 3.47001C80.6369 3.39503 80.6181 3.31772 80.5971 3.23571C80.6627 3.09514 80.7634 3.18417 80.8524 3.19354C80.8585 3.20328 80.8673 3.21108 80.8777 3.21606C80.888 3.22103 80.8996 3.22297 80.911 3.22165L81.2906 3.45595C81.307 3.47704 81.321 3.49812 81.3515 3.50047C81.3557 3.51201 81.3634 3.52199 81.3734 3.5291C81.3835 3.53621 81.3954 3.54011 81.4077 3.5403C81.4121 3.54979 81.419 3.55789 81.4277 3.56369C81.4363 3.56948 81.4465 3.57274 81.4569 3.5731L81.9677 3.94328L82.3121 4.44702C82.3065 4.35694 82.3201 4.2667 82.3519 4.18227C82.4433 4.16352 82.5042 4.23381 82.5862 4.26193C82.7181 4.40266 82.8307 4.56022 82.9213 4.73052L83.1087 5.27642C83.1228 5.38654 83.1345 5.49432 83.1509 5.62787C83.2305 5.53181 83.2961 5.45917 83.4016 5.54352L83.4203 5.56461L83.4883 5.69347C83.507 5.73799 83.5234 5.7825 83.5398 5.82936L83.5585 5.88325C83.5937 6.09177 83.6312 6.30029 83.6663 6.50647C83.6429 6.53928 83.6804 6.55802 83.6827 6.58379C83.7067 7.1455 83.6682 7.70814 83.5679 8.26135C83.5117 8.67136 83.425 9.07201 83.3336 9.47265C83.268 9.75381 83.1837 10.0326 83.0993 10.3114C83.0158 10.319 82.9324 10.2957 82.865 10.2458V10.213V10.1732C82.865 10.1521 82.865 10.131 82.865 10.1099C82.865 9.7051 82.809 9.30221 82.6987 8.91269C82.5511 8.35741 82.284 7.90053 81.7193 7.67561C81.6683 7.66116 81.6218 7.63403 81.5841 7.59675C81.5464 7.55947 81.5188 7.51325 81.5038 7.4624L81.5295 7.43194C81.5577 7.40382 81.6092 7.37805 81.5811 7.33588C81.553 7.29371 81.5131 7.31948 81.4803 7.33588C81.3533 7.35781 81.2339 7.41184 81.1336 7.49286L81.0516 7.51863H81.0258C81.0232 7.51632 81.0199 7.51505 81.0164 7.51505C81.013 7.51505 81.0096 7.51632 81.0071 7.51863C80.9191 7.52852 80.8301 7.5161 80.7482 7.48253C80.6663 7.44895 80.5942 7.39529 80.5385 7.32651C80.5126 7.19613 80.5078 7.06243 80.5244 6.93055C80.3651 7.00787 80.248 7.13439 80.0746 7.1461C79.9665 7.15973 79.8578 7.16755 79.7489 7.16953C79.6768 7.17393 79.6048 7.16064 79.5391 7.13083C79.4733 7.10102 79.4159 7.05559 79.3717 6.99849C79.285 6.88369 79.3365 6.7642 79.4021 6.65642C79.3217 6.66005 79.2424 6.67749 79.1678 6.70797C78.9588 6.73368 78.7482 6.74542 78.5376 6.74311C78.4276 6.72361 78.321 6.68809 78.2213 6.63768C78.1687 6.57998 78.1346 6.50788 78.1233 6.43064C78.1121 6.3534 78.1241 6.27455 78.158 6.20423C78.2445 6.0002 78.3684 5.81423 78.5235 5.65598C78.6908 5.4997 78.891 5.38282 79.1093 5.31391C78.8651 5.26931 78.6171 5.24891 78.3689 5.253C78.1422 5.21624 77.9379 5.09482 77.7972 4.91327C77.7761 4.86875 77.7574 4.82658 77.7387 4.78206C77.7271 4.75607 77.7169 4.72948 77.7082 4.7024C77.7082 4.66023 77.6894 4.61805 77.6777 4.57588C77.6789 4.5595 77.6789 4.54306 77.6777 4.52668L77.6918 4.36267L77.7972 4.11432" fill="#3D833D"/>
<path d="M90.6083 6.39165L90.4349 6.49005C90.4091 6.50645 90.3623 6.5088 90.3669 6.55097C90.3716 6.59314 90.4091 6.60252 90.4396 6.61423C90.6306 6.66727 90.8134 6.74609 90.9831 6.84853L91.0558 6.96567C91.037 7.02893 91.0417 7.11328 90.9714 7.13437C90.8168 7.18591 90.8707 7.26791 90.9246 7.36866C90.955 7.41552 90.9808 7.46472 91.0089 7.51392L91.037 7.56547L91.0722 7.64279C91.0722 7.68027 91.098 7.71776 91.1097 7.75525V7.78102C91.1237 7.84662 91.1354 7.91457 91.1495 7.98252L91.1143 8.26836C91.0677 8.36508 91.0069 8.45431 90.9339 8.53311L90.8988 8.5706L90.8449 8.61042C90.835 8.60899 90.825 8.61133 90.8167 8.61697C90.8085 8.62261 90.8026 8.63115 90.8004 8.64088L90.7207 8.6854C90.497 8.77042 90.249 8.76453 90.0296 8.669L89.4087 8.31521C89.5325 8.49014 89.6288 8.68292 89.6945 8.8869L89.7156 8.97358V9.0017C89.7496 9.20176 89.7496 9.40612 89.7156 9.60618C89.7057 9.68431 89.671 9.75721 89.6166 9.81414C89.5622 9.87108 89.491 9.90906 89.4134 9.92248C89.304 9.90545 89.1971 9.87556 89.0947 9.83345C88.9166 9.71959 88.746 9.59437 88.584 9.45857L88.441 9.30394C88.3989 9.62024 88.2349 9.71161 87.949 9.60149C87.8184 9.53621 87.6984 9.4517 87.5929 9.3508C87.4944 9.22335 87.4096 9.08593 87.3398 8.94078C87.2578 9.09073 87.1969 9.23365 87.0517 9.30159C86.9325 9.31663 86.8116 9.29225 86.7075 9.23218C86.6035 9.17211 86.5219 9.07965 86.4753 8.9689C86.4377 8.87708 86.3772 8.79641 86.2996 8.7346C86.2668 8.71351 86.2082 8.67368 86.2223 8.76037C86.2457 8.92438 86.1379 8.92672 86.0301 8.92907C85.9518 8.92856 85.8735 8.92308 85.7958 8.91267C85.6136 8.88956 85.4287 8.90293 85.2517 8.95201C85.0747 9.00108 84.9092 9.08488 84.7649 9.19851L84.6712 9.27114L84.6478 9.2852C84.602 9.30479 84.5629 9.33737 84.5353 9.37891C84.1568 9.69003 83.8329 10.0622 83.5771 10.4801C83.4934 10.4783 83.412 10.4522 83.3428 10.4051C83.3509 10.3536 83.3626 10.3027 83.3779 10.2528C83.5091 9.88734 83.6419 9.52261 83.7762 9.15867C83.9496 8.69008 84.1487 8.2379 84.3526 7.78336C84.4776 7.52148 84.6234 7.26999 84.7884 7.03128C85.0227 6.79698 85.257 6.56269 85.4913 6.32839C85.51 6.31668 85.5311 6.3073 85.5498 6.29325C85.7326 6.17844 85.7841 6.1925 85.845 6.39165C85.845 6.39165 85.8591 6.39165 85.8638 6.41039L86.0559 6.1761L86.5104 5.81528L86.7635 5.67939L86.8666 5.63488L87.0001 5.59973H87.2344C87.3797 5.70751 87.1946 5.79185 87.2063 5.90197C87.3744 5.80761 87.549 5.72539 87.7288 5.65596L88.352 5.61145C88.3679 5.62118 88.3861 5.62634 88.4047 5.62634C88.4233 5.62634 88.4416 5.62118 88.4574 5.61145C88.4706 5.61786 88.485 5.6212 88.4996 5.6212C88.5142 5.6212 88.5287 5.61786 88.5418 5.61145H89.0455L89.1838 5.6419C89.2728 5.66299 89.3173 5.71219 89.2775 5.80591C89.2527 5.81989 89.2316 5.83946 89.2157 5.86305C89.1999 5.88664 89.1897 5.91361 89.1861 5.9418C89.3981 5.91429 89.612 5.90411 89.8257 5.91134L90.0389 5.95586L90.0858 5.96992C90.119 5.98979 90.1573 5.99956 90.1959 5.99803C90.3013 6.05895 90.4302 6.08004 90.5263 6.15032C90.5496 6.16114 90.5705 6.17648 90.5879 6.19544C90.6052 6.21441 90.6187 6.23662 90.6274 6.26081C90.6361 6.28499 90.6399 6.31066 90.6387 6.33634C90.6374 6.36202 90.631 6.38719 90.62 6.41039" fill="#3D833D"/>
<path d="M78.0737 29.5026C77.994 29.5635 77.919 29.6267 77.8394 29.683C77.6332 29.8212 77.5535 29.7978 77.4434 29.5705C77.3476 29.3418 77.286 29.1002 77.2607 28.8536C77.1574 28.1552 77.101 27.4508 77.092 26.7449C77.1576 26.7004 77.2208 26.7449 77.2841 26.7449C77.5106 26.8194 77.7488 26.8519 77.987 26.841C78.1224 26.8102 78.244 26.7358 78.3329 26.629C78.4219 26.5223 78.4732 26.3893 78.479 26.2506C78.4875 26.117 78.4508 25.9844 78.3747 25.8743C78.2986 25.7642 78.1876 25.683 78.0596 25.6437L77.1974 25.393C77.1482 25.379 77.092 25.3743 77.0615 25.3227C77.0615 25.1962 77.0615 25.0674 77.0615 24.9408C77.0615 24.5917 77.0779 24.238 77.0615 23.8935C77.0679 23.8796 77.0711 23.8644 77.0711 23.849C77.0711 23.8337 77.0679 23.8185 77.0615 23.8045C77.0861 23.5366 77.0955 23.2675 77.0896 22.9985C77.1095 22.7717 77.1095 22.5436 77.0896 22.3167C77.1224 22.2429 77.1274 22.1597 77.1037 22.0824C77.1105 22.0682 77.1141 22.0526 77.1141 22.0368C77.1141 22.0209 77.1105 22.0053 77.1037 21.9911C77.131 21.891 77.135 21.786 77.1154 21.6841C77.1143 21.6748 77.1143 21.6654 77.1154 21.656C77.1275 21.635 77.1339 21.6112 77.1339 21.5869C77.1339 21.5626 77.1275 21.5388 77.1154 21.5178C77.1183 21.5141 77.1198 21.5096 77.1198 21.5049C77.1198 21.5002 77.1183 21.4957 77.1154 21.492C77.1238 21.4813 77.1283 21.4681 77.1283 21.4545C77.1283 21.4409 77.1238 21.4277 77.1154 21.417C77.1219 21.4023 77.1252 21.3863 77.1252 21.3702C77.1252 21.3541 77.1219 21.3381 77.1154 21.3233C77.1269 21.3017 77.1329 21.2775 77.1329 21.253C77.1329 21.2285 77.1269 21.2044 77.1154 21.1827C77.1181 21.1794 77.1195 21.1753 77.1195 21.171C77.1195 21.1668 77.1181 21.1626 77.1154 21.1593C77.124 21.1482 77.1286 21.1346 77.1286 21.1207C77.1286 21.1067 77.124 21.0931 77.1154 21.082V21.0539C77.1431 20.8993 77.1502 20.7417 77.1365 20.5853C77.1398 20.5818 77.1416 20.5772 77.1416 20.5724C77.1416 20.5676 77.1398 20.563 77.1365 20.5595C77.1486 20.5385 77.155 20.5147 77.155 20.4904C77.155 20.4661 77.1486 20.4423 77.1365 20.4213C77.1376 20.4096 77.1376 20.3978 77.1365 20.3861C77.1606 20.346 77.1713 20.2992 77.167 20.2526C77.1787 20.0183 77.1951 19.8051 77.2021 19.5825C77.2021 19.3224 77.2536 19.0647 77.2372 18.8023C77.2372 18.8023 77.2372 18.7882 77.2372 18.7789C77.2458 18.7678 77.2504 18.7542 77.2504 18.7402C77.2504 18.7262 77.2458 18.7126 77.2372 18.7016C77.2442 18.6878 77.2479 18.6725 77.2479 18.657C77.2479 18.6416 77.2442 18.6263 77.2372 18.6125C77.2935 18.3782 77.2724 18.1439 77.3122 17.9096C77.3802 17.8745 77.4434 17.9096 77.5067 17.9284L80.8946 18.9124C81.0088 18.9495 81.1314 18.9514 81.2467 18.918C81.362 18.8846 81.4646 18.8173 81.5412 18.725C81.6117 18.6445 81.6606 18.5474 81.6834 18.4428C81.7061 18.3382 81.702 18.2296 81.6713 18.1271C81.6406 18.0246 81.5845 17.9315 81.508 17.8566C81.4316 17.7817 81.3374 17.7274 81.2343 17.6988C80.023 17.3614 78.8187 16.9959 77.6121 16.6515C77.5401 16.6442 77.473 16.6118 77.4223 16.5601V16.4055C77.4364 16.1243 77.4926 15.8455 77.4903 15.562C77.4926 15.5585 77.4938 15.5545 77.4938 15.5503C77.4938 15.5461 77.4926 15.542 77.4903 15.5386C77.5403 15.3074 77.5685 15.0721 77.5746 14.8357C77.5769 14.8318 77.5781 14.8273 77.5781 14.8228C77.5781 14.8183 77.5769 14.8138 77.5746 14.8099C77.625 14.602 77.6509 14.3889 77.6519 14.175C77.7058 14.0297 77.6941 13.8727 77.7386 13.7275C77.7958 13.7221 77.8534 13.7326 77.905 13.7579C78.3736 13.8938 78.8562 14.0297 79.3295 14.1703C79.4172 14.2007 79.5105 14.2114 79.6029 14.2017C79.6952 14.192 79.7842 14.1621 79.8637 14.1141C79.972 14.0518 80.0585 13.9577 80.1114 13.8445C80.1642 13.7312 80.1808 13.6045 80.1589 13.4815C80.1437 13.3579 80.0905 13.2421 80.0065 13.1501C79.9225 13.0582 79.812 12.9947 79.6903 12.9684C79.1046 12.802 78.5188 12.6286 77.9378 12.4576L78.0994 11.9304C78.2784 11.5421 78.5288 11.1908 78.8375 10.8948C79.08 10.7074 79.3387 10.5419 79.6107 10.4005C79.6593 10.3909 79.7051 10.3701 79.7442 10.3396C80.151 10.2049 80.5713 10.1154 80.9977 10.0725C81.3106 10.0693 81.6235 10.0833 81.9349 10.1146C82.1059 10.1404 82.2793 10.1592 82.4503 10.1802C82.4555 10.1874 82.463 10.1925 82.4716 10.1946C82.4802 10.1968 82.4892 10.1958 82.4972 10.192C82.601 10.2369 82.7122 10.2624 82.8252 10.2669H82.8556C82.9231 10.3168 83.0064 10.3401 83.0899 10.3325C83.1607 10.3755 83.2415 10.3989 83.3242 10.4005C83.3935 10.4476 83.4748 10.4736 83.5585 10.4755C83.7057 10.5558 83.8634 10.615 84.0271 10.6512C84.4389 10.8379 84.8366 11.054 85.2173 11.2978C85.539 11.5524 85.8363 11.8363 86.1053 12.146L86.1545 12.221C86.3704 12.5375 86.5386 12.884 86.6536 13.2495L86.6747 13.3057C86.6981 13.4533 86.7239 13.6033 86.7473 13.7509V14.1023C86.7473 14.1258 86.7473 14.1492 86.7473 14.1726C86.7387 14.1891 86.7316 14.2064 86.7262 14.2242C86.6887 14.7912 86.4263 15.2808 86.2014 15.7846C86.1892 15.7673 86.1735 15.7527 86.1553 15.7418C86.1372 15.7309 86.117 15.724 86.0959 15.7213L83.753 15.0419C83.6743 15.0183 83.5913 15.0128 83.5101 15.0258C83.429 15.0388 83.3518 15.0699 83.2844 15.1168C83.1763 15.1885 83.0927 15.2917 83.045 15.4123C82.9972 15.5329 82.9876 15.6653 83.0173 15.7916C83.0419 15.9066 83.0992 16.012 83.1823 16.0952C83.2655 16.1783 83.3709 16.2357 83.4859 16.2602L85.5008 16.8459C85.5641 16.8647 85.6344 16.8694 85.6742 16.935C85.6578 16.9795 85.6414 17.024 85.6227 17.0662C85.5219 17.3005 85.3884 17.5231 85.2993 17.7691C85.2972 17.7693 85.2952 17.77 85.2934 17.7711C85.2916 17.7723 85.2901 17.7738 85.2889 17.7756C85.2878 17.7774 85.2871 17.7794 85.2869 17.7815C85.2866 17.7837 85.2869 17.7858 85.2876 17.7878C85.2102 17.9012 85.1443 18.0221 85.0908 18.1486C84.9151 18.4907 84.7464 18.8351 84.573 19.1795C84.5691 19.1806 84.5657 19.1832 84.5635 19.1866C84.5614 19.1901 84.5606 19.1942 84.5613 19.1983C84.5489 19.2057 84.5388 19.2164 84.5322 19.2292C84.5256 19.2421 84.5227 19.2565 84.5238 19.2709C84.5238 19.2709 84.5121 19.2709 84.5238 19.2896C84.5112 19.2969 84.5008 19.3076 84.4937 19.3204C84.4867 19.3332 84.4833 19.3477 84.484 19.3623C84.484 19.3623 84.484 19.3623 84.484 19.381C84.4001 19.4896 84.3351 19.6116 84.2919 19.7418C84.2866 19.7555 84.2803 19.7689 84.2731 19.7817L84.2356 19.8355C84.1578 19.9593 84.0889 20.0885 84.0295 20.2221L84.0154 20.2526L83.9967 20.2877C83.9343 20.3535 83.8899 20.4342 83.8678 20.522C83.7869 20.6278 83.7214 20.7446 83.6733 20.8688C83.4273 21.2624 83.2047 21.6654 82.9892 22.0754C82.8997 22.1924 82.8279 22.3218 82.776 22.4597C82.7643 22.4597 82.7596 22.4597 82.7619 22.4784C82.7423 22.4931 82.7259 22.5118 82.7138 22.5331C82.7017 22.5545 82.6942 22.5781 82.6916 22.6026C82.6877 22.6031 82.6841 22.6051 82.6815 22.6081C82.6789 22.6111 82.6775 22.615 82.6776 22.619C82.4855 22.9025 82.3215 23.2047 82.1528 23.5046C82.0406 23.6526 81.9403 23.8093 81.8529 23.9732C81.6748 24.2754 81.471 24.5636 81.3163 24.8799C81.1924 25.0337 81.0877 25.2021 81.0047 25.3813C80.9991 25.3903 80.9928 25.3989 80.986 25.4071C80.8907 25.5222 80.8118 25.6499 80.7517 25.7866C80.7236 25.7866 80.7236 25.8077 80.7282 25.8288C80.7329 25.8499 80.7072 25.8546 80.6954 25.8686C80.6828 25.873 80.6722 25.8818 80.6657 25.8935C80.6592 25.9052 80.6573 25.9189 80.6603 25.9319C80.6501 25.9359 80.6413 25.943 80.6354 25.9523C80.6295 25.9616 80.6268 25.9725 80.6275 25.9835C80.5301 26.0883 80.4509 26.2087 80.3932 26.3396C80.3891 26.3412 80.3856 26.3441 80.3835 26.348C80.3814 26.3518 80.3806 26.3563 80.3815 26.3607C80.1589 26.6371 79.9855 26.9487 79.7793 27.2369C79.6582 27.3936 79.5486 27.5588 79.4513 27.7313L79.4256 27.7688C79.4118 27.7747 79.4 27.7845 79.3917 27.797C79.3834 27.8094 79.3789 27.8241 79.3787 27.8391L79.3506 27.8719C79.3369 27.8786 79.3254 27.8889 79.3172 27.9017C79.3089 27.9145 79.3043 27.9293 79.3037 27.9445C79.2939 27.9544 79.2852 27.9654 79.278 27.9773C79.1668 28.0993 79.0657 28.2302 78.9757 28.3686C78.7719 28.624 78.5774 28.8864 78.3783 29.1441L78.322 29.2003C78.2325 29.2661 78.1535 29.3451 78.0877 29.4346C78.0741 29.4506 78.0592 29.4655 78.0432 29.4791L78.0737 29.5026ZM81.2671 23.4367C81.3791 23.377 81.4703 23.2849 81.5288 23.1724C81.5874 23.0599 81.6105 22.9323 81.5951 22.8064C81.5865 22.6843 81.5388 22.5682 81.4591 22.4754C81.3793 22.3825 81.2717 22.3179 81.1523 22.291L78.5118 21.5365C78.4355 21.509 78.3543 21.4976 78.2734 21.5029C78.1924 21.5081 78.1135 21.53 78.0414 21.5672C77.9692 21.6043 77.9056 21.6559 77.8543 21.7188C77.803 21.7816 77.7652 21.8544 77.7433 21.9325C77.713 22.0129 77.6999 22.0987 77.7049 22.1845C77.7099 22.2703 77.733 22.354 77.7726 22.4303C77.8121 22.5065 77.8673 22.5736 77.9345 22.6271C78.0018 22.6806 78.0795 22.7194 78.1627 22.7408L80.8266 23.514C80.9039 23.5403 80.986 23.5491 81.067 23.5398C81.148 23.5304 81.226 23.5032 81.2952 23.4601" fill="#E98B19"/>
<path d="M83.3495 10.3958C83.2668 10.3942 83.186 10.3708 83.1152 10.3278C83.1902 10.049 83.2746 9.77022 83.3495 9.48906C83.4409 9.08842 83.5276 8.68777 83.5838 8.27776C83.6841 7.72455 83.7226 7.16192 83.6986 6.6002C83.6986 6.57443 83.6588 6.55569 83.6822 6.52289C83.6981 6.51813 83.7118 6.5081 83.7212 6.49447C83.7306 6.48084 83.735 6.46441 83.7338 6.44791C83.7369 6.25135 83.726 6.05482 83.701 5.85983C83.7072 5.85004 83.7106 5.83865 83.7106 5.82703C83.7106 5.81541 83.7072 5.80402 83.701 5.79423C83.7101 5.77482 83.7149 5.75361 83.7149 5.73214C83.7149 5.71067 83.7101 5.68946 83.701 5.67005C83.701 5.62319 83.701 5.57399 83.701 5.52713C83.6729 5.14523 83.6424 4.76333 83.6143 4.38143C83.6213 4.36847 83.6249 4.35398 83.6249 4.33926C83.6249 4.32454 83.6213 4.31005 83.6143 4.29708V4.25022C83.626 4.16822 83.6401 4.08622 83.6518 4.01593C83.6635 3.94564 83.6939 3.90347 83.7174 3.84958L83.7385 3.80506L83.7877 3.7418C83.8453 3.68631 83.9153 3.64527 83.9918 3.62206C84.0684 3.59884 84.1494 3.59411 84.2281 3.60825C84.1906 3.52859 84.1672 3.47705 84.1391 3.42785C83.9963 3.20046 83.9052 2.94453 83.872 2.6781C83.8322 2.23763 84.1438 1.95647 84.5234 2.08768C84.5234 2.08768 84.5374 2.08768 84.5468 2.07596C84.5359 2.02995 84.5114 1.9883 84.4765 1.95647C84.4744 1.91676 84.4577 1.87922 84.4296 1.85104C84.4218 1.79347 84.3983 1.73915 84.3617 1.69406C84.3617 1.66595 84.3429 1.63783 84.3359 1.60972L84.3078 1.45742C84.2844 1.37567 84.2782 1.28997 84.2894 1.20569C84.3007 1.12141 84.3291 1.04034 84.3731 0.967567C84.4171 0.894791 84.4756 0.831863 84.545 0.782713C84.6144 0.733563 84.6931 0.699247 84.7764 0.681907C84.7791 0.683822 84.7824 0.684847 84.7858 0.684847C84.7891 0.684847 84.7924 0.683822 84.7951 0.681907C84.8075 0.689342 84.8217 0.693269 84.8361 0.693269C84.8506 0.693269 84.8648 0.689342 84.8771 0.681907C84.88 0.683552 84.8832 0.684418 84.8865 0.684418C84.8898 0.684418 84.893 0.683552 84.8959 0.681907H84.9427C85.0173 0.725619 85.0725 0.795932 85.0974 0.878714C85.1559 0.845913 85.1583 0.78734 85.1747 0.740481C85.2215 0.600801 85.2861 0.467722 85.3668 0.344521C85.425 0.256255 85.5008 0.180983 85.5895 0.123441C85.6782 0.0658993 85.7778 0.0273325 85.8821 0.0101673C85.9864 -0.00699791 86.0932 -0.00239027 86.1956 0.0237007C86.298 0.0497916 86.394 0.0968008 86.4774 0.161771C86.4972 0.175002 86.5184 0.186003 86.5406 0.194573L86.5734 0.229717C86.5929 0.274544 86.6267 0.311634 86.6695 0.335149L86.8148 0.588189C86.8643 0.739116 86.8826 0.898544 86.8686 1.05678C86.8686 1.08958 86.8686 1.10129 86.9132 1.10598C87.0248 1.10436 87.1333 1.14265 87.2192 1.21395C87.3052 1.28526 87.3628 1.38489 87.3817 1.49491C87.4456 1.67001 87.4542 1.86045 87.4064 2.04059C87.3587 2.22073 87.2568 2.3819 87.1147 2.50238C86.9905 2.61016 86.8804 2.73668 86.7468 2.85148C86.9483 2.80931 87.1475 2.76479 87.2459 3.0108C87.2341 3.06 87.2669 3.09515 87.2833 3.13732V3.18887C87.2833 3.18887 87.2833 3.18887 87.2833 3.20292V3.25213C87.2776 3.2621 87.2746 3.27341 87.2746 3.28493C87.2746 3.29644 87.2776 3.30776 87.2833 3.31773L87.2318 3.50985L87.0819 3.74415L87.0537 3.77226L87.0209 3.81209L86.9905 3.83786C86.972 3.84529 86.9552 3.85638 86.9411 3.87047C86.927 3.88457 86.9159 3.90137 86.9085 3.91987L86.864 3.96204L86.1048 4.53606C86.4235 4.55715 86.4797 4.66258 86.3204 4.94139L86.2243 5.11243L86.1962 5.1546L86.1634 5.18272C85.9155 5.43674 85.6809 5.70341 85.4605 5.98166C85.4488 5.98554 85.4384 5.99265 85.4305 6.00219C85.4226 6.01172 85.4176 6.02329 85.416 6.03555C85.4028 6.04214 85.3912 6.05171 85.3823 6.06349C85.3733 6.07528 85.3672 6.08897 85.3645 6.1035C85.1392 6.37577 84.9385 6.66744 84.7647 6.97508C84.753 6.99382 84.7647 7.01022 84.7881 7.01256C84.6287 7.25588 84.4885 7.51126 84.3687 7.77637C84.1649 8.2309 83.9657 8.68543 83.7924 9.15168C83.658 9.51405 83.5253 9.87877 83.394 10.2458C83.3788 10.2957 83.367 10.3466 83.3589 10.3981" fill="#4BA34F"/>
<path d="M77.0541 25.3485C77.0845 25.4001 77.1408 25.4047 77.19 25.4188L78.0522 25.6695C78.1801 25.7087 78.2911 25.79 78.3672 25.9001C78.4433 26.0102 78.4801 26.1427 78.4716 26.2763C78.4657 26.4151 78.4144 26.5481 78.3255 26.6548C78.2366 26.7615 78.115 26.836 77.9795 26.8667C77.7414 26.8777 77.5032 26.8452 77.2767 26.7707C77.2134 26.7707 77.1501 26.7191 77.0845 26.7707C77.0515 26.7494 77.0252 26.7191 77.0086 26.6835C76.992 26.6478 76.9858 26.6082 76.9908 26.5692C76.9908 26.1803 76.9768 25.789 76.9697 25.3977L77.0494 25.3602" fill="#E26B0E"/>
<path d="M77.4316 16.5577C77.4822 16.6095 77.5494 16.6418 77.6214 16.6491C78.828 17.0006 80.0323 17.352 81.2436 17.6964C81.3467 17.725 81.4409 17.7793 81.5173 17.8542C81.5937 17.9291 81.6499 18.0222 81.6805 18.1247C81.7112 18.2273 81.7154 18.3359 81.6926 18.4404C81.6699 18.545 81.621 18.6421 81.5505 18.7226C81.4738 18.815 81.3712 18.8822 81.2559 18.9156C81.1407 18.9491 81.018 18.9471 80.9038 18.9101L77.5159 17.926C77.4527 17.9073 77.3894 17.8721 77.3215 17.9073C77.2559 17.8112 77.3074 17.6941 77.2676 17.5933C77.295 17.4442 77.3083 17.2928 77.3074 17.1411C77.3285 17.1411 77.3238 17.1201 77.3074 17.106V17.0357C77.3285 16.9497 77.3402 16.8618 77.3426 16.7733C77.3566 16.696 77.3426 16.6093 77.4199 16.5577" fill="#E26B0E"/>
<path d="M81.2975 23.4601C81.2282 23.5032 81.1503 23.5304 81.0692 23.5397C80.9882 23.5491 80.9061 23.5402 80.8289 23.514L78.1649 22.7408C78.0817 22.7193 78.004 22.6806 77.9368 22.6271C77.8695 22.5736 77.8143 22.5065 77.7748 22.4303C77.7352 22.354 77.7121 22.2702 77.7071 22.1845C77.7021 22.0987 77.7152 22.0128 77.7455 21.9325C77.7675 21.8544 77.8052 21.7816 77.8565 21.7188C77.9078 21.6559 77.9715 21.6043 78.0436 21.5672C78.1157 21.53 78.1947 21.5081 78.2756 21.5028C78.3565 21.4976 78.4377 21.509 78.514 21.5365L81.1897 22.3144C81.3091 22.3413 81.4167 22.4059 81.4964 22.4988C81.5762 22.5916 81.6239 22.7077 81.6325 22.8298C81.6479 22.9557 81.6247 23.0833 81.5662 23.1958C81.5076 23.3083 81.4164 23.4004 81.3045 23.4601" fill="#E26B0E"/>
<path d="M85.7214 16.935C85.6815 16.8694 85.6113 16.8647 85.548 16.8459L83.5331 16.2602C83.4181 16.2357 83.3126 16.1784 83.2295 16.0952C83.1463 16.0121 83.089 15.9066 83.0645 15.7916C83.035 15.6653 83.0449 15.5331 83.0926 15.4125C83.1403 15.2919 83.2237 15.1888 83.3316 15.1168C83.399 15.0699 83.4762 15.0388 83.5573 15.0258C83.6384 15.0128 83.7214 15.0183 83.8002 15.0419L86.1431 15.7213C86.1641 15.724 86.1843 15.731 86.2025 15.7418C86.2206 15.7527 86.2363 15.7673 86.2485 15.7846C86.0928 16.1799 85.9153 16.5663 85.7167 16.942" fill="#E26B0E"/>
<path d="M77.9609 12.4623C78.5443 12.6333 79.1324 12.809 79.7135 12.973C79.8352 12.9994 79.9456 13.0629 80.0296 13.1548C80.1136 13.2468 80.1669 13.3626 80.182 13.4861C80.2039 13.6092 80.1873 13.7359 80.1345 13.8492C80.0817 13.9624 79.9952 14.0565 79.8868 14.1187C79.8074 14.1667 79.7183 14.1967 79.626 14.2064C79.5337 14.2161 79.4403 14.2054 79.3526 14.175C78.884 14.0344 78.4037 13.8985 77.9281 13.7626C77.8765 13.7373 77.819 13.7268 77.7618 13.7322C77.7474 13.6864 77.7474 13.6373 77.7618 13.5916C77.8187 13.3146 77.8594 13.0345 77.8836 12.7528C77.9398 12.6708 77.8649 12.5537 77.9586 12.481" fill="#E26B0E"/>
<path d="M67.9851 29.3503C69.6977 28.9747 71.46 28.8806 73.2028 29.0715C75.7566 29.2917 78.6127 31.8455 79.0602 34.8117C79.3906 36.3487 79.5452 37.8224 79.7631 39.3406C79.8046 39.6152 79.7702 39.8959 79.6636 40.1524C79.5571 40.4088 79.3825 40.6313 79.1586 40.7956C78.694 41.1721 78.1165 41.3817 77.5185 41.3907C77.3152 41.4054 77.1124 41.3565 76.9382 41.2507C76.7639 41.1449 76.6269 40.9875 76.5462 40.8003C76.2278 40.0675 75.9463 39.3191 75.7028 38.5581C75.1756 36.9368 74.2126 35.7278 72.4953 35.3436C71.7367 35.1855 70.9587 35.1429 70.1874 35.217C68.4912 35.3576 66.994 35.9832 65.9209 37.3749C65.5381 37.8525 65.2603 38.4055 65.1057 38.9978C64.9511 39.59 64.9231 40.2082 65.0236 40.812C65.1407 41.5899 64.883 42.2037 64.1684 42.52C63.5803 42.7801 62.273 43.3893 61.638 43.4408C60.5204 43.5345 59.206 43.1105 58.7421 42.117C58.1259 40.7933 58.0931 38.537 58.3766 37.068C58.8292 34.977 60.0671 33.1395 61.8348 31.9346C63.8919 30.4749 65.3493 29.9009 67.9851 29.3573V29.3503ZM60.019 36.187C60.8113 34.5587 62.1412 33.2537 63.7842 32.4922C66.2067 31.3265 68.8325 30.6422 71.5159 30.4773C73.4723 30.339 75.2412 30.8592 76.6704 32.2696C76.8766 32.4711 77.0734 32.6867 77.2749 32.8952C77.2507 32.7731 77.1968 32.6588 77.1179 32.5625C75.9136 30.9224 74.2056 30.257 72.268 30.1563C68.4443 29.9595 65.0048 31.0935 61.9356 33.3685C60.9843 34.0713 60.2252 34.9523 60.005 36.18" fill="#454D5B"/>
<path d="M72.0135 46.4352C68.8973 47.0467 66.1842 45.6526 64.9963 43.0918C64.9474 43.0219 64.9279 42.9356 64.9419 42.8515C64.956 42.7674 65.0024 42.6922 65.0713 42.6419C65.289 42.432 65.456 42.1751 65.5595 41.8909C65.6631 41.6067 65.7004 41.3027 65.6688 41.0019C65.4977 38.3262 66.6387 36.7119 69.2371 36.0161C70.0987 35.7795 70.9995 35.7205 71.8846 35.8427C73.5247 36.077 74.6821 37.1922 75.1765 38.9939C75.3358 39.5844 75.556 40.1654 75.7669 40.7348C75.8275 40.9272 75.9345 41.1018 76.0785 41.2432C76.4346 41.5501 76.3971 41.8805 76.273 42.2811C75.5513 44.5842 73.9652 45.9291 72.0135 46.4352ZM66.6387 41.3041C66.7807 42.0653 67.1449 42.7675 67.6853 43.3221C68.2257 43.8767 68.9182 44.2589 69.6755 44.4206C70.4328 44.5823 71.221 44.5161 71.9408 44.2306C72.6606 43.945 73.2797 43.4527 73.7202 42.8158C74.1607 42.1789 74.4027 41.4259 74.4159 40.6516C74.429 39.8774 74.2127 39.1165 73.7942 38.465C73.3756 37.8135 72.7736 37.3005 72.0639 36.9906C71.3543 36.6807 70.5688 36.5878 69.8064 36.7236C69.2961 36.8133 68.8088 37.0033 68.3725 37.2828C67.9363 37.5623 67.5599 37.9257 67.2652 38.3518C66.9706 38.7779 66.7634 39.2583 66.6559 39.7651C66.5483 40.2719 66.5425 40.795 66.6387 41.3041Z" fill="#454D5B"/>
<path d="M72.1047 38.1949C72.5788 38.5151 72.9469 38.9689 73.1624 39.4989C73.3779 40.0288 73.4309 40.6108 73.3147 41.1709C73.1985 41.731 72.9184 42.2439 72.51 42.6445C72.1015 43.045 71.5832 43.315 71.0209 43.4202C70.4586 43.5254 69.8778 43.4609 69.3522 43.2352C68.8266 43.0094 68.38 42.6324 68.0692 42.1521C67.7584 41.6719 67.5975 41.11 67.6068 40.5381C67.6162 39.9661 67.7954 39.4098 68.1217 38.94C68.5551 38.3181 69.2155 37.8914 69.9607 37.752C70.7058 37.6126 71.4758 37.7717 72.1047 38.1949ZM68.2037 40.1326C68.5247 39.2797 69.0237 38.6073 69.9679 38.4128C70.8723 38.2254 71.6385 38.5885 72.3601 39.0899C72.0808 38.6872 71.6801 38.3842 71.2164 38.2253C70.7528 38.0664 70.2505 38.0598 69.7828 38.2066C68.8691 38.4948 68.2224 39.268 68.2084 40.1326" fill="#E16554"/>
<path d="M80.4641 38.3824C80.3611 38.4902 80.0518 38.8158 80.1338 39.1134C80.1712 39.1998 80.2267 39.2772 80.2966 39.3403C80.3666 39.4034 80.4493 39.4506 80.5391 39.4789C82.1112 40.1419 104.454 34.4087 105.037 34.4439C105.098 34.4474 105.159 34.4344 105.213 34.4064C105.412 34.2986 105.487 33.9378 105.405 33.6754C105.347 33.5001 105.231 33.3495 105.077 33.2479C104.922 33.1464 104.738 33.0997 104.554 33.1154C104.508 33.1227 104.463 33.1369 104.421 33.1576C104.308 33.2138 92.357 35.9926 89.7188 36.6392L89.5314 36.6837C84.7518 37.8412 81.4341 37.3679 80.4641 38.3824Z" fill="#454D5B"/>
<path d="M118.219 36.9226C114.997 37.5903 111.736 35.5403 111.141 32.307C110.977 31.4591 110.991 30.5864 111.182 29.7442C111.373 28.9021 111.737 28.1088 112.251 27.4149C112.954 26.4777 114.018 25.9951 115.105 25.6225C117.019 24.9665 118.809 25.3156 120.494 26.3465C121.197 26.7776 121.527 27.4922 121.829 28.2068C122.012 28.6403 122.092 29.1182 122.27 29.554C122.386 29.8765 122.565 30.1728 122.797 30.4256C122.873 30.4932 122.933 30.5764 122.973 30.6694C123.014 30.7624 123.033 30.8631 123.031 30.9645C123.041 32.3626 122.566 33.7208 121.686 34.8074C120.806 35.894 119.577 36.6416 118.207 36.9226H118.219ZM117.792 34.8585C118.554 34.6983 119.251 34.3153 119.795 33.7581C120.339 33.2009 120.705 32.4946 120.846 31.7291C120.987 30.9635 120.898 30.1732 120.589 29.4585C120.281 28.7438 119.766 28.137 119.112 27.7152C118.458 27.2934 117.693 27.0756 116.914 27.0895C116.136 27.1034 115.379 27.3484 114.74 27.7933C114.102 28.2382 113.609 28.863 113.326 29.5882C113.043 30.3135 112.982 31.1065 113.151 31.8665C113.375 32.8758 113.988 33.756 114.857 34.3162C115.726 34.8763 116.781 35.0712 117.792 34.8585Z" fill="#454D5B"/>
<path d="M124.495 30.0157L124.312 30.0532C123.164 30.2406 122.723 29.8681 122.819 28.7083C122.866 28.4162 123.017 28.1511 123.246 27.9633C123.531 27.7409 123.856 27.5762 124.204 27.4783C124.839 27.2815 125.268 27.5369 125.479 28.1648C125.494 28.199 125.506 28.2342 125.516 28.2702C125.865 29.3855 125.629 29.7884 124.495 30.0157Z" fill="#454D5B"/>
<path d="M114.782 29.1816C115.146 28.7414 115.632 28.4189 116.179 28.255C116.726 28.091 117.31 28.093 117.856 28.2605C118.402 28.4281 118.886 28.7538 119.247 29.1965C119.608 29.6391 119.83 30.1789 119.884 30.7475C119.938 31.3161 119.823 31.888 119.552 32.391C119.282 32.894 118.868 33.3055 118.363 33.5735C117.859 33.8415 117.286 33.9539 116.718 33.8965C116.15 33.8392 115.611 33.6147 115.171 33.2513C114.582 32.7618 114.21 32.0591 114.137 31.2966C114.064 30.5342 114.296 29.7739 114.782 29.1816ZM119.015 29.7486C118.729 28.9801 117.593 28.4085 116.651 28.5607C115.602 28.7318 114.744 29.5916 114.728 30.4937C115.639 28.3335 117.626 28.385 119.015 29.7486Z" fill="#E16554"/>
<path d="M122.59 28.3287C122.405 27.9468 122.22 27.5532 122.026 27.1573C121.69 26.4934 121.156 25.9505 120.498 25.6039C117.508 23.9498 114.566 24.5823 112.15 26.5739C111.36 27.2252 110.979 28.1694 110.77 29.1511C110.585 30.0321 110.536 30.9364 110.376 31.8244C110.28 32.4145 110.148 32.9981 109.98 33.5723C109.916 33.7712 109.805 33.9516 109.655 34.0977C109.506 34.2439 109.323 34.3514 109.123 34.411C108.42 34.6875 107.658 34.781 106.909 34.6828C106.687 34.643 106.471 34.5769 106.265 34.486C106.179 34.462 106.098 34.4212 106.028 34.3659C105.958 34.3107 105.899 34.2421 105.856 34.1641C105.812 34.0862 105.784 34.0004 105.774 33.9116C105.764 33.8229 105.771 33.7331 105.796 33.6472C105.951 32.6936 105.77 31.7518 105.562 30.8169C105.353 29.8399 104.493 26.6629 104.669 25.6624C104.995 23.8349 105.43 23.118 107.246 21.5693C107.458 21.3885 107.683 21.2233 107.919 21.0749C110.683 19.3693 115.224 18.4227 118.331 17.9893C119.704 17.7972 119.922 17.6824 121.283 18.0104C122.555 18.315 123.82 20.4283 123.783 22.2417C123.701 22.668 123.57 23.0832 123.392 23.4788C123.113 24.0716 123.649 25.4164 123.729 26.0209C123.743 26.1217 123.745 26.2224 123.766 26.3208C123.893 26.9159 123.928 27.4454 123.188 27.7125C122.953 27.7992 122.787 28.0991 122.581 28.31L122.59 28.3287ZM105.531 24.2543L105.616 24.3176C106.068 23.9334 106.494 23.514 106.977 23.1789C107.471 22.8483 107.989 22.5561 108.528 22.305C111.639 20.8032 114.854 19.6458 118.291 19.1701C119.359 19.0202 120.444 18.9733 121.52 18.8796C120.243 18.6384 118.935 18.6241 117.654 18.8374C115.457 19.227 113.305 19.8386 111.232 20.6626C109.641 21.2882 108.062 21.9582 106.714 23.0571C106.3 23.4354 105.909 23.8383 105.543 24.2637L105.531 24.2543ZM123.319 23.1625C124.038 21.991 122.932 19.1795 122.173 18.9944C122.152 20.0675 122.602 22.2745 123.319 23.1625Z" fill="#454D5B"/>
<path d="M89.1097 34.6476C88.0859 31.3253 86.823 26.4051 86.6215 22.8462C86.3872 22.8954 86.1857 22.9329 85.9936 22.9751C76.6382 24.997 61.1747 28.1834 51.7584 29.9032C51.4031 29.9596 51.0546 30.0523 50.7181 30.1796C50.6529 30.2325 50.6021 30.3011 50.5705 30.379C50.539 30.4568 50.5277 30.5414 50.5377 30.6248C50.5612 30.7349 50.7861 30.8591 50.9243 30.8731C51.5874 30.8731 51.8264 31.0114 52.0396 31.6369C52.1625 32.0447 52.2649 32.4584 52.3465 32.8764C52.6675 34.2939 53.2837 37.2999 53.6375 38.708C53.853 39.5632 54.427 39.9404 55.2049 39.8443C55.2752 39.8443 56.3037 39.767 57.8852 39.6639C57.8345 38.7711 57.8888 37.8754 58.0469 36.9953C58.5161 34.8174 59.8035 32.9027 61.6433 31.6463C63.67 30.2077 65.1367 29.5915 67.9037 29.0246C69.6483 28.6404 71.4441 28.5438 73.2198 28.7387C76.0009 28.973 78.8921 31.6908 79.3607 34.7132C79.6161 35.9948 79.8012 36.8617 79.916 37.9325C82.7018 37.3514 87.151 36.4259 88.2101 36.1916C89.3534 35.9409 89.4448 35.7723 89.098 34.65L89.1097 34.6476ZM54.2138 38.8321C53.9554 38.1992 53.763 37.5413 53.6398 36.8688C53.436 35.6387 52.9955 32.8131 52.8596 31.5667C53.0166 32.3305 53.1829 33.0919 53.3282 33.8581C53.4735 34.6242 53.9233 37.0421 54.0592 37.8411C54.181 38.544 54.2935 39.2586 55.2494 39.3523C55.043 39.4135 54.8211 39.3935 54.629 39.2963C54.4369 39.1992 54.2892 39.0323 54.2162 38.8298L54.2138 38.8321ZM54.734 30.2359C61.9807 28.4763 69.3095 26.9721 76.6312 25.7327C75.9658 26.131 56.2897 30.1843 54.734 30.2359ZM88.0039 35.538C87.8597 35.5356 87.7215 35.48 87.6159 35.3818C87.5104 35.2836 87.4449 35.1497 87.4322 35.0061C86.8394 32.0329 85.9022 27.4805 85.2743 24.5144C85.2486 24.4487 85.2365 24.3785 85.239 24.308C85.2415 24.2375 85.2584 24.1682 85.2887 24.1046C85.319 24.0409 85.3621 23.9841 85.4152 23.9377C85.4684 23.8913 85.5305 23.8563 85.5977 23.8349C86.3005 27.2135 87.308 32.1618 88.0039 35.538Z" fill="#454D5B"/>
<path d="M85.3749 22.8087L84.0887 23.0711C84.0334 22.8517 83.9896 22.6296 83.9575 22.4057C83.927 22.1081 83.8052 22.0472 83.5099 22.1105C81.413 22.5533 73.1588 24.2449 71.0572 24.6877L69.7545 24.9548C69.6701 24.9736 69.5881 25.0017 69.4686 25.0368C69.5389 25.3859 69.6092 25.7233 69.6842 26.0865L68.3956 26.3512C68.3253 26.0138 68.255 25.6694 68.1777 25.3016L54.1082 28.1951C54.1715 28.5044 54.2324 28.8043 54.298 29.1206L53.0164 29.3853C52.9532 29.0737 52.8946 28.7855 52.8243 28.4482L50.9874 28.8254C50.9148 28.4763 50.8539 28.174 50.7812 27.8273C50.9101 27.7921 51.0366 27.7523 51.1655 27.7265L85.5413 20.6625C86.2582 20.5149 86.2582 20.5173 86.3988 21.2389C86.4129 21.3115 86.4222 21.3842 86.4433 21.5083L85.1617 21.7731C85.239 22.1456 85.3046 22.476 85.3773 22.818" fill="#454D5B"/>
<path d="M101.511 19.5778C101.4 19.468 101.264 19.3875 101.115 19.3435H101.082V19.3107C100.538 17.7153 99.8585 16.1695 99.0504 14.6904C98.8442 14.2898 98.364 13.3526 97.6868 13.3104C97.6194 13.3075 97.5518 13.3122 97.4853 13.3245C97.3073 13.3573 96.9371 13.4088 96.4263 13.4815C94.4465 13.7626 90.3347 14.3483 89.2967 14.9809C89.1893 15.0327 89.0941 15.1067 89.0174 15.198C88.9406 15.2892 88.8841 15.3957 88.8516 15.5104C88.8576 15.6122 88.8789 15.7126 88.9148 15.808V15.8221V15.8385C88.9148 15.9533 89.0718 17.0404 89.934 21.5553V21.5998C89.9218 21.6702 89.9054 21.7398 89.8848 21.8083C89.8232 22.0086 89.7801 22.214 89.7559 22.4222C89.2452 27.7571 91.7193 32.8319 91.9958 33.3778L103.195 31.077C103.406 31.0325 103.59 30.9066 103.709 30.7267C103.827 30.5469 103.87 30.3276 103.828 30.1164L101.766 20.0933C101.735 19.9012 101.647 19.7231 101.513 19.5825L101.511 19.5778ZM93.1767 22.6518C93.1801 22.6678 93.1803 22.6843 93.1773 22.7004C93.1744 22.7165 93.1682 22.7318 93.1593 22.7455C93.1504 22.7593 93.1388 22.7711 93.1253 22.7803C93.1118 22.7896 93.0966 22.796 93.0806 22.7994L91.4686 23.1297C91.4377 23.2488 91.3669 23.3537 91.2681 23.4271C91.1693 23.5004 91.0484 23.5376 90.9254 23.5327C90.8025 23.5278 90.6849 23.4809 90.5923 23.3999C90.4997 23.3189 90.4376 23.2086 90.4163 23.0874C90.395 22.9662 90.4159 22.8414 90.4754 22.7337C90.5349 22.626 90.6294 22.5419 90.7433 22.4954C90.8573 22.4489 90.9837 22.4427 91.1015 22.478C91.2194 22.5133 91.3217 22.5878 91.3913 22.6893L93.0197 22.455C93.051 22.4502 93.0829 22.4578 93.1087 22.4761C93.1345 22.4945 93.1522 22.5222 93.1579 22.5534L93.1767 22.6518ZM99.8119 19.4911L91.0984 21.2811C90.996 21.3036 90.8901 21.3053 90.787 21.2861C90.684 21.2669 90.5858 21.2271 90.4984 21.1692C90.4109 21.1113 90.336 21.0364 90.2781 20.9489C90.2202 20.8615 90.1805 20.7633 90.1613 20.6603C89.4115 16.7194 89.2428 15.5479 89.2241 15.5058C89.2924 15.4038 89.3883 15.3233 89.5006 15.2738C89.7349 15.1332 90.3253 14.8989 91.8295 14.5897C93.4063 14.264 95.3439 13.9922 96.4872 13.8282C97.005 13.7532 97.3752 13.7017 97.5627 13.6665C97.5985 13.6631 97.6346 13.6631 97.6704 13.6665C98.139 13.6947 98.5725 14.5569 98.7177 14.838C99.3528 16.0067 99.91 17.2159 100.386 18.4579C100.426 18.5639 100.442 18.6773 100.434 18.7903C100.426 18.9032 100.394 19.0132 100.339 19.1124C100.285 19.2117 100.209 19.298 100.118 19.3654C100.027 19.4328 99.9228 19.4797 99.8119 19.5028" fill="#454D5B"/>
<path d="M118.354 16.9514C118.23 16.7477 118.076 16.5637 117.897 16.4055C116.805 15.4004 114.957 15.5808 114.2 15.6557C113.823 15.6932 113.546 15.7448 113.467 15.7612C110.076 16.4125 108.336 16.7476 105.367 17.3778C104.784 16.3633 103.563 14.8263 103.008 14.1422C102.305 13.2753 101.986 12.9356 101.548 12.5982C101.707 12.5185 101.815 12.4436 101.829 12.3428C101.864 12.1319 101.485 11.907 101.377 11.8414C100.348 11.244 99.1091 11.49 98.7857 11.5509C95.8945 12.1132 92.4246 12.4459 89.5967 13.4416C89.3022 13.5404 89.023 13.68 88.7673 13.8564C88.1754 14.2664 87.722 14.8465 87.4669 15.5198C87.4669 15.5386 87.4435 15.555 87.4365 15.5737C87.3929 15.668 87.3637 15.7683 87.3498 15.8713C87.1319 17.577 88.1862 21.0984 88.4111 21.7287C88.4304 21.8135 88.4187 21.9024 88.3783 21.9794C88.3127 22.0965 88.3127 22.0754 88.2823 22.0871C88.048 22.1785 87.5513 22.947 87.6145 24.9221C87.6239 25.3633 87.6639 25.8032 87.734 26.2389C88.5142 30.4913 89.5428 36.105 90.8314 36.0488C90.877 36.0457 90.922 36.0363 90.965 36.0207C93.0736 35.2826 102.64 33.1646 105.503 32.5391C105.455 31.9806 105.368 31.4262 105.241 30.8802C105.201 30.6881 105.133 30.4117 105.053 30.0719C104.62 28.2491 104.207 26.4029 104.35 25.6086C104.69 23.6968 105.194 22.8955 107.04 21.3187C107.261 21.1272 107.496 20.9526 107.743 20.7962C110.765 18.9218 115.646 18.0315 118.286 17.6636L118.607 17.6168C118.543 17.3829 118.456 17.1561 118.347 16.9397L118.354 16.9514ZM87.4763 15.876C87.4834 15.8194 87.4959 15.7637 87.5138 15.7096C87.6301 15.6927 87.7486 15.6996 87.8621 15.7298C87.9757 15.76 88.082 15.8129 88.1745 15.8853C88.2548 15.9695 88.3086 16.0754 88.3291 16.1899C88.8727 18.5751 88.9617 20.3393 89.3155 20.9883C89.3489 21.0439 89.3637 21.1088 89.3577 21.1734C89.3249 21.3725 88.8891 21.6022 88.5377 21.6982C88.3315 21.1101 87.2631 17.5442 87.4763 15.876ZM101.89 20.0535L103.95 30.0743C103.976 30.196 103.978 30.3218 103.955 30.4443C103.932 30.5668 103.885 30.6834 103.816 30.7875C103.748 30.8916 103.659 30.9809 103.556 31.0503C103.452 31.1198 103.336 31.1679 103.214 31.1919L91.8436 33.5348L91.8764 33.4505C91.6421 32.9819 89.0929 27.8274 89.6131 22.3988C89.639 22.1831 89.6829 21.9699 89.7443 21.7615C89.7632 21.7014 89.7788 21.6404 89.7911 21.5787V21.5576C88.8094 16.4195 88.7673 15.9182 88.7696 15.8197C88.7279 15.7088 88.7057 15.5915 88.704 15.473C88.7385 15.3379 88.8018 15.2118 88.8896 15.1034C88.9773 14.9951 89.0874 14.9069 89.2124 14.8451C90.2691 14.1984 94.4044 13.6103 96.3936 13.3292C96.8833 13.2589 97.2722 13.2027 97.4456 13.1699C97.5229 13.1565 97.6015 13.1518 97.6799 13.1558C98.4343 13.2027 98.9216 14.1516 99.1559 14.6084C99.9617 16.0832 100.64 17.6242 101.183 19.2147C101.341 19.2687 101.485 19.3594 101.602 19.4794C101.755 19.6398 101.856 19.8421 101.892 20.0605L101.89 20.0535ZM104.496 17.9893C103.982 18.329 102.713 18.9265 102.263 18.5587C102.161 18.4539 102.074 18.3357 102.005 18.2072C101.426 17.3591 101.229 16.7499 99.8658 14.5194C99.7557 14.3367 99.5355 13.8962 99.6597 13.5822C99.7135 13.4416 100.037 13.2636 100.102 13.212C100.454 12.9332 100.965 12.8465 101.274 12.72C101.759 13.0808 102.056 13.3901 102.804 14.3109C103.635 15.3089 104.403 16.3574 105.105 17.4504C104.924 17.6508 104.723 17.8322 104.505 17.9917L104.496 17.9893ZM105.833 19.7723C105.822 19.72 105.822 19.666 105.832 19.6135C105.842 19.561 105.862 19.511 105.892 19.4663C105.921 19.4217 105.959 19.3833 106.003 19.3534C106.047 19.3235 106.097 19.3026 106.15 19.292L108.146 18.882C108.25 18.8633 108.357 18.8859 108.444 18.945C108.532 19.004 108.593 19.0949 108.614 19.1983L105.833 19.7723ZM105.728 19.2592C105.717 19.2069 105.716 19.1529 105.726 19.1004C105.736 19.0479 105.757 18.9979 105.786 18.9532C105.816 18.9086 105.853 18.8702 105.898 18.8403C105.942 18.8104 105.992 18.7895 106.044 18.7789L108.04 18.3689C108.144 18.3502 108.251 18.3728 108.339 18.4318C108.426 18.4909 108.487 18.5818 108.509 18.6852L105.728 19.2592ZM105.622 18.7461C105.612 18.6938 105.611 18.6398 105.621 18.5873C105.631 18.5348 105.651 18.4848 105.681 18.4401C105.71 18.3955 105.748 18.3571 105.792 18.3272C105.837 18.2973 105.886 18.2764 105.939 18.2658L107.935 17.8558C107.987 17.8448 108.041 17.8443 108.094 17.8543C108.146 17.8643 108.196 17.8846 108.241 17.914C108.286 17.9434 108.324 17.9813 108.354 18.0256C108.384 18.0699 108.405 18.1197 108.415 18.1721L105.622 18.7461Z" fill="#454D5B"/>
<path d="M149.349 46.3296L127.272 56.5519L125.657 53.9325C125.657 53.9325 128.08 49.3778 128.771 45.861C129.462 42.3442 127.963 40.8471 126.292 40.4441C124.622 40.0411 117.127 43.4407 117.127 43.4407C116.857 43.9983 116.916 43.6914 116.513 47.3417C116.11 50.9921 118.261 52.4142 118.415 52.1073C118.57 51.8004 118.434 51.6645 118.394 51.4044C118.354 51.1443 118.914 49.8674 119.779 48.6374C120.644 47.4073 123.507 46.0601 123.795 46.2569C124.083 46.4538 124.16 46.7255 124.083 48.293C124.006 49.8604 122.89 51.6926 122.084 52.7305C121.278 53.7684 120.297 55.5421 120.99 56.1114C121.684 56.6807 122.373 58.9956 122.373 58.9956C122.373 58.9956 121.67 59.3025 112.689 64.6046C103.709 69.9067 89.8619 80.607 89.1707 83.2194C88.4795 85.8318 90.8623 85.7544 92.3993 85.5998C93.9363 85.4452 124.563 76.9309 124.563 76.9309C124.563 76.9309 126.466 74.5106 128.251 68.3416C130.036 62.1726 128.08 58.4286 128.08 58.4286L148.023 47.979L149.349 46.3296ZM121.738 69.7333C119.995 72.8541 119.894 73.0767 119.894 73.0767C119.894 73.0767 104.85 78.264 104.215 78.1492C103.58 78.0344 107.244 68.8125 122.834 60.9145C122.834 60.9145 124.737 64.3633 121.738 69.7333Z" fill="#454D5B"/>
<path d="M114.111 53.2086L111.651 54.3613C111.651 54.3613 111.885 55.193 111.03 57.7656C109.517 62.2734 106.075 62.8873 105.766 63.0419C105.456 63.1966 105.063 61.5612 105.583 57.9976C106.265 53.3819 109.648 52.0441 110.972 52.1402C111.368 52.1441 111.755 52.2638 112.084 52.4846C112.509 52.754 112.584 52.3698 112.738 51.9855C112.893 51.6013 112.778 50.219 111.97 48.45C111.161 46.6811 108.626 45.0691 107.752 45.184C106.878 45.2988 105.456 46.3297 103.235 49.0123C101.014 51.695 99.5075 58.6958 99.5075 58.6958C99.5075 58.6958 95.0559 63.8971 93.8844 64.0377C91.8672 64.2954 89.9928 59.7313 89.9928 59.7313L93.7228 54.6167C93.7228 54.6167 95.8619 54.5159 97.2067 54.3238C98.5516 54.1317 99.8191 51.7091 99.859 51.4022C99.8988 51.0952 99.5497 51.0179 97.359 51.1327C95.1684 51.2475 92.8559 50.0151 92.8559 50.0151C92.8559 50.0151 92.3873 49.9003 91.8578 50.4368C91.3283 50.9734 88.2543 55.7202 88.2543 55.7202C88.2543 55.7202 87.6733 54.1434 87.35 53.1219C86.9307 51.8248 86.8011 50.4516 86.9704 49.099L80.7124 50.3712C80.7124 50.3712 80.5226 51.1491 81.2911 54.4175C82.0596 57.6859 84.3697 60.7013 84.3697 60.7013C83.5093 61.9518 82.4849 63.081 81.3239 64.0588C79.5948 65.4435 78.3343 61.8166 78.3343 61.8166C78.3343 61.8166 73.9155 65.0826 72.4933 65.6965C71.0711 66.3103 72.3785 61.2777 72.4535 59.8555C72.5284 58.4333 74.1826 51.7091 74.1826 51.7091L64.1243 53.7662C64.1243 53.7662 63.9532 56.1091 62.5967 60.5092C61.2401 64.9093 57.6109 67.3694 56.1699 68.494C54.729 69.6186 56.2543 63.5386 56.2543 63.5386L47.9509 65.2396C47.9509 65.2396 47.7166 66.0456 46.2803 68.9555C44.8441 71.8655 41.6507 74.5974 40.7275 74.5107C39.8044 74.424 38.3986 73.9812 41.1094 69.0821C43.8202 64.183 48.9911 61.6643 49.3988 61.7767C49.8065 61.8892 50.0314 61.922 50.1767 61.7486C50.3219 61.5752 50.4649 61.0856 50.0033 60.1343C49.5417 59.1831 46.0203 56.1302 44.7293 55.8397C43.4383 55.5492 42.1052 56.8776 39.1062 60.5092C36.1072 64.1408 34.0056 71.2305 34.0056 71.2305C34.0056 71.2305 31.4799 73.5407 30.5568 73.686C29.6337 73.8312 28.57 70.0825 26.7823 64.1455C25.1633 58.7684 23.4202 50.39 23.1039 48.8577C25.3507 45.1254 27.9327 41.6648 30.8614 38.9283C35.4325 34.6594 37.9347 32.6796 39.2491 31.9228C39.2816 31.9948 39.3082 32.0692 39.3288 32.1454C39.4834 32.7218 37.2201 38.2558 37.2201 38.2558C37.2201 38.2558 43.1759 35.7957 44.7527 32.6046C46.3295 29.4135 45.5962 26.1123 45.0597 25.2665C44.5231 24.4207 42.637 23.9217 40.8705 24.1138C40.2321 24.2313 39.6207 24.4648 39.0664 24.8026L39.043 24.819C37.5552 25.639 35.7136 27.0682 34.1228 28.5677C29.5874 32.3342 25.4614 36.5678 21.8129 41.1986C23.0242 37.1992 25.0743 28.7809 20.2337 30.4538C13.9335 32.6445 5.63246 36.5642 5.63246 36.5642L6.55558 38.5229C6.55558 38.5229 9.43741 35.6411 10.3582 37.5436C11.279 39.4461 12.3192 54.8135 7.9965 65.8066C5.9019 70.0731 0 84.7611 0 84.7611L10.6019 82.5868C10.6019 82.5868 13.5212 69.3726 17.9072 59.1573C18.6733 63.1638 20.7515 73.9835 21.1569 75.7314C21.6559 77.8822 24.1535 80.183 28.0733 79.5363C31.993 78.8897 35.2591 75.7759 35.2591 75.7759C35.2591 75.7759 36.4493 77.5425 37.1335 78.0813C37.8176 78.6202 39.3241 80.0026 43.5133 77.0036C47.7025 74.0046 49.1036 69.4546 49.1036 69.4546C49.1036 69.4546 49.1903 72.7347 50.7437 74.0351C52.297 75.3354 53.5224 75.6751 57.7889 73.4329C62.0554 71.1907 66.1908 60.3757 66.1908 60.3757C66.1908 60.3757 65.6425 63.0841 65.1247 65.5044C64.6069 67.9246 63.5877 71.5375 67.5942 72.0646C71.6006 72.5918 74.295 68.8103 74.295 68.8103C74.295 68.8103 75.4899 70.3941 76.816 70.6846C78.1422 70.9752 80.2602 70.0802 81.4129 69.5319C82.5656 68.9837 86.4713 64.286 86.4713 64.286C86.4713 64.286 88.3152 67.1679 88.5449 67.4561C88.7745 67.7442 90.1849 69.4452 93.6994 68.2339C97.2138 67.0226 100.007 61.8986 100.007 61.8986C100.007 61.8986 100.065 62.6179 100.093 63.0513C100.121 63.4848 100.871 65.2982 101.159 65.7012C101.447 66.1042 102.774 66.9992 103.465 67.1444C104.156 67.2897 106.443 67.0624 108.078 65.905C109.568 64.8484 110.54 64.6351 112.621 60.1273C113.793 57.5946 114.111 53.2132 114.111 53.2132" fill="#454D5B"/>
</svg>
