<svg width="198" height="52" viewBox="0 0 198 52" fill="none" xmlns="http://www.w3.org/2000/svg">
<path fill-rule="evenodd" clip-rule="evenodd" d="M47.5416 0.405273H3.50331C2.57144 0.411949 1.68007 0.785432 1.02373 1.44421C0.367383 2.10298 -0.000632771 2.99355 8.1675e-07 3.92156V48.1141C-0.000632771 49.0421 0.367383 49.9327 1.02373 50.5914C1.68007 51.2502 2.57144 51.6237 3.50331 51.6304H47.5416C48.4734 51.6237 49.3648 51.2502 50.0211 50.5914C50.6775 49.9327 51.0455 49.0421 51.0449 48.1141V3.92156C51.0455 2.99355 50.6775 2.10298 50.0211 1.44421C49.3648 0.785432 48.4734 0.411949 47.5416 0.405273V0.405273ZM46.4569 46.2502C46.4563 46.5286 46.3454 46.7956 46.1484 46.9931C45.9514 47.1906 45.684 47.3027 45.4045 47.3051C32.1575 47.3051 18.9128 47.4338 5.64498 47.4338C5.5054 47.4335 5.36725 47.4057 5.23852 47.3519C5.10979 47.2982 4.99302 47.2196 4.89496 47.1207C4.79691 47.0217 4.7195 46.9044 4.66721 46.7755C4.61491 46.6467 4.58878 46.5087 4.5903 46.3697V33.1205C4.58968 32.8421 4.69982 32.5748 4.89662 32.3771C5.09341 32.1794 5.36084 32.0674 5.64037 32.0656H17.8304V19.4001C17.8304 19.1735 17.9035 18.9529 18.039 18.7708C18.1745 18.5888 18.3651 18.4549 18.5827 18.3889C18.7005 18.3476 18.8249 18.3281 18.9497 18.3314H31.1374V5.65671C31.1368 5.37813 31.2469 5.11061 31.4436 4.91255C31.6403 4.71448 31.9077 4.60196 32.1875 4.59953H45.3999C45.6798 4.60195 45.9475 4.71441 46.1446 4.9124C46.3417 5.1104 46.4523 5.37792 46.4523 5.65671L46.4569 46.2502Z" fill="#E20613"/>
<path d="M126.08 36.8322H129.403C130.423 36.8322 131.194 36.6621 131.711 36.3174C132.228 35.9726 132.505 35.3062 132.505 34.3225C132.505 33.3389 132.239 32.6747 131.711 32.3276C131.183 31.9806 130.412 31.8128 129.403 31.8128H126.08V36.8322ZM122.648 41.4792V30.0984C122.646 29.9854 122.667 29.8732 122.709 29.7682C122.751 29.6633 122.813 29.5677 122.893 29.487C122.969 29.4041 123.061 29.3382 123.165 29.2938C123.268 29.2494 123.38 29.2275 123.493 29.2296H130.442C134.107 29.2296 135.941 30.9273 135.946 34.3225C135.951 37.7178 134.116 39.4154 130.442 39.4154H126.08V41.4838C126.081 41.597 126.06 41.7092 126.016 41.8139C125.973 41.9185 125.909 42.0134 125.828 42.0928C125.75 42.1739 125.656 42.2381 125.552 42.2816C125.448 42.325 125.336 42.3468 125.224 42.3457H123.511C123.398 42.3467 123.285 42.3248 123.181 42.2813C123.076 42.2379 122.981 42.1738 122.902 42.0928C122.82 42.0152 122.755 41.9214 122.711 41.8173C122.667 41.7132 122.646 41.6012 122.648 41.4884V41.4792ZM107.878 30.9648V30.0984C107.874 29.9838 107.894 29.8697 107.936 29.7631C107.978 29.6564 108.041 29.5594 108.122 29.4781C108.203 29.3968 108.3 29.3328 108.407 29.29C108.514 29.2473 108.628 29.2267 108.743 29.2296H120.299C120.413 29.2266 120.526 29.2469 120.632 29.2892C120.738 29.3315 120.834 29.3949 120.915 29.4755C120.997 29.557 121.061 29.6543 121.103 29.7614C121.146 29.8686 121.166 29.9832 121.162 30.0984V30.9556C121.166 31.0694 121.146 31.1827 121.103 31.2884C121.061 31.394 120.997 31.4897 120.915 31.5692C120.834 31.6496 120.738 31.7126 120.632 31.7545C120.526 31.7964 120.413 31.8163 120.299 31.8128H116.237V41.493C116.239 41.6052 116.218 41.7166 116.174 41.82C116.131 41.9234 116.065 42.0164 115.983 42.0928C115.904 42.1717 115.81 42.2339 115.707 42.2758C115.603 42.3176 115.492 42.3383 115.381 42.3365H113.659C113.547 42.3381 113.436 42.3173 113.332 42.2755C113.228 42.2337 113.134 42.1716 113.054 42.0928C112.973 42.0159 112.908 41.9228 112.865 41.8194C112.822 41.7161 112.8 41.6049 112.803 41.493V31.8128H108.736C108.622 31.8166 108.508 31.7969 108.402 31.755C108.295 31.7131 108.199 31.6498 108.118 31.5692C108.036 31.4897 107.972 31.394 107.929 31.2884C107.887 31.1827 107.867 31.0694 107.871 30.9556L107.878 30.9648ZM93.2485 41.4792V30.0984C93.2466 29.9844 93.2684 29.8712 93.3124 29.766C93.3565 29.6608 93.422 29.5659 93.5046 29.487C93.5854 29.4034 93.6826 29.3373 93.7903 29.293C93.8979 29.2487 94.0136 29.2271 94.1301 29.2296H95.8263C95.9393 29.2279 96.0513 29.25 96.1551 29.2943C96.2589 29.3387 96.3521 29.4044 96.4287 29.487C96.51 29.5667 96.5742 29.6619 96.6174 29.767C96.6607 29.8721 96.682 29.9848 96.6802 30.0984V34.2099H102.948V30.0984C102.947 29.9844 102.969 29.8714 103.013 29.7663C103.057 29.6611 103.122 29.5661 103.205 29.487C103.283 29.4046 103.377 29.3392 103.482 29.2949C103.587 29.2506 103.7 29.2284 103.814 29.2296H105.508C105.624 29.2265 105.74 29.2478 105.847 29.2921C105.954 29.3365 106.051 29.4029 106.131 29.487C106.213 29.5662 106.279 29.6612 106.324 29.7662C106.369 29.8713 106.392 29.9842 106.392 30.0984V41.4792C106.393 41.5923 106.371 41.7044 106.326 41.8085C106.282 41.9125 106.216 42.0063 106.133 42.0837C106.053 42.1648 105.957 42.229 105.851 42.2724C105.745 42.3158 105.631 42.3376 105.517 42.3365H103.823C103.596 42.3384 103.377 42.2508 103.214 42.0928C103.13 42.0169 103.064 41.9241 103.02 41.8206C102.976 41.7171 102.955 41.6054 102.958 41.493V36.7931H96.6802V41.493C96.6827 41.6049 96.6615 41.7161 96.6182 41.8194C96.5749 41.9228 96.5103 42.0159 96.4287 42.0928C96.3497 42.1715 96.2557 42.2336 96.1523 42.2754C96.0488 42.3172 95.938 42.338 95.8263 42.3365H94.1301C94.0157 42.337 93.9023 42.3149 93.7966 42.2715C93.6908 42.2281 93.5947 42.1643 93.5139 42.0837C93.4289 42.0076 93.3612 41.9143 93.3155 41.8101C93.2697 41.7058 93.2469 41.593 93.2485 41.4792ZM79.3553 41.4585V30.08C79.3535 29.967 79.3753 29.855 79.4195 29.7509C79.4636 29.6468 79.5289 29.5531 79.6114 29.4755C79.6914 29.3962 79.7865 29.3335 79.8911 29.2913C79.9958 29.2491 80.1078 29.2281 80.2207 29.2296H90.7168C90.8305 29.2274 90.9433 29.2492 91.0479 29.2936C91.1525 29.338 91.2465 29.4039 91.3237 29.487C91.4046 29.567 91.4685 29.6623 91.5118 29.7673C91.555 29.8723 91.5766 29.9849 91.5753 30.0984V30.9556C91.5772 31.0688 91.5559 31.1812 91.5126 31.286C91.4693 31.3907 91.4051 31.4855 91.3237 31.5646C91.2452 31.6454 91.1507 31.7092 91.0463 31.7519C90.9418 31.7946 90.8297 31.8154 90.7168 31.8128H82.7893V34.4719H89.6205C89.733 34.4705 89.8446 34.4922 89.9482 34.5357C90.0519 34.5792 90.1454 34.6435 90.2229 34.7247C90.303 34.8053 90.366 34.9013 90.408 35.0067C90.45 35.1121 90.4703 35.2249 90.4675 35.3383V36.2002C90.4688 36.3133 90.4471 36.4255 90.4039 36.5301C90.3607 36.6348 90.2968 36.7297 90.216 36.8092C90.1383 36.8901 90.0447 36.9541 89.9411 36.9972C89.8374 37.0403 89.7259 37.0616 89.6136 37.0597H82.7824V39.7578H90.6983C90.809 39.755 90.919 39.7754 91.0212 39.8178C91.1234 39.8602 91.2155 39.9235 91.2914 40.0038C91.3704 40.0828 91.4325 40.1768 91.4741 40.2803C91.5158 40.3837 91.536 40.4945 91.5337 40.6059V41.4838C91.5359 41.5969 91.5144 41.7093 91.4707 41.8137C91.427 41.9181 91.362 42.0124 91.2799 42.0906C91.2003 42.1714 91.1051 42.2354 91 42.2784C90.8948 42.3215 90.782 42.3428 90.6683 42.3411H80.2207C80.1059 42.3405 79.9923 42.3172 79.8865 42.2727C79.7807 42.2282 79.6848 42.1632 79.6044 42.0816C79.5239 42 79.4605 41.9033 79.4177 41.7972C79.375 41.691 79.3537 41.5775 79.3553 41.4631V41.4585ZM63.2257 41.4838V30.0846C63.2235 29.9718 63.245 29.8598 63.2887 29.7557C63.3324 29.6516 63.3974 29.5578 63.4796 29.4801C63.5597 29.401 63.6549 29.3385 63.7595 29.2963C63.864 29.2541 63.976 29.233 64.0889 29.2342H65.8036C65.9165 29.2325 66.0286 29.2546 66.1323 29.2989C66.2361 29.3433 66.3294 29.409 66.4059 29.4916C66.4868 29.5716 66.5508 29.6669 66.594 29.7719C66.6372 29.8769 66.6588 29.9895 66.6575 30.103V39.7555H72.7779V30.08C72.777 29.968 72.7984 29.8571 72.841 29.7535C72.8836 29.6499 72.9465 29.5558 73.026 29.4766C73.1054 29.3975 73.1999 29.3349 73.3039 29.2925C73.408 29.2501 73.5194 29.2287 73.6318 29.2296H75.3535C75.4668 29.2278 75.5792 29.2497 75.6834 29.2941C75.7876 29.3384 75.8812 29.4042 75.9581 29.487C76.039 29.567 76.1029 29.6623 76.1461 29.7673C76.1893 29.8723 76.2109 29.9849 76.2097 30.0984V39.7509H77.1928C77.3066 39.7493 77.4194 39.7711 77.5243 39.815C77.6291 39.8589 77.7237 39.924 77.8021 40.0061C77.8839 40.0854 77.9486 40.1806 77.9923 40.2857C78.0359 40.3908 78.0576 40.5037 78.0559 40.6174V41.4769C78.0581 41.59 78.0366 41.7024 77.9929 41.8068C77.9492 41.9112 77.8842 42.0055 77.8021 42.0837C77.7228 42.1643 77.6279 42.228 77.5232 42.2711C77.4185 42.3142 77.3061 42.3356 77.1928 42.3342H64.0889C63.9754 42.3352 63.863 42.3133 63.7583 42.2698C63.6535 42.2264 63.5588 42.1623 63.4796 42.0814C63.3974 42.0037 63.3324 41.9099 63.2887 41.8058C63.245 41.7017 63.2235 41.5897 63.2257 41.4769V41.4838ZM179.735 7.31595C179.735 7.00798 179.899 6.8563 180.231 6.8563H180.974C181.115 6.85343 181.252 6.89696 181.365 6.98011C181.479 7.06325 181.561 7.18134 181.6 7.31595C181.773 7.74342 182.165 7.95486 182.767 7.95256C183.37 7.95026 183.764 7.73653 183.921 7.31595C183.961 7.1798 184.045 7.06073 184.161 6.97751C184.276 6.89429 184.416 6.85165 184.558 6.8563H185.32C185.652 6.8563 185.821 7.01258 185.821 7.31595C185.838 7.68586 185.772 8.0549 185.627 8.39607C185.483 8.73725 185.263 9.04193 184.985 9.28784C184.348 9.76088 183.574 10.0164 182.779 10.0164C181.984 10.0164 181.21 9.76088 180.573 9.28784C180.295 9.04182 180.076 8.73705 179.932 8.39586C179.788 8.05467 179.722 7.6857 179.74 7.31595H179.735ZM176.059 23.2933V11.9124C176.055 11.7969 176.076 11.6819 176.12 11.575C176.164 11.4681 176.231 11.3716 176.315 11.2919C176.399 11.2101 176.498 11.1462 176.608 11.1039C176.717 11.0616 176.834 11.0419 176.952 11.046H178.609C178.724 11.0439 178.839 11.0645 178.946 11.1067C179.053 11.1489 179.151 11.2118 179.234 11.2919C179.317 11.3692 179.383 11.4629 179.427 11.567C179.471 11.6711 179.492 11.7833 179.49 11.8963V21.0433L184.694 11.9124C184.839 11.6696 185.035 11.4611 185.269 11.3011C185.462 11.1482 185.697 11.059 185.943 11.046H188.641C188.754 11.044 188.866 11.0657 188.969 11.1097C189.073 11.1536 189.166 11.2188 189.243 11.3011C189.323 11.3817 189.386 11.4773 189.428 11.5822C189.47 11.6871 189.492 11.7993 189.49 11.9124V23.2933C189.492 23.4074 189.469 23.5205 189.423 23.6252C189.377 23.7298 189.31 23.8235 189.225 23.9C189.142 23.9812 189.044 24.0451 188.936 24.0881C188.828 24.1311 188.713 24.1523 188.597 24.1505H186.935C186.82 24.1522 186.705 24.131 186.598 24.088C186.491 24.0449 186.394 23.981 186.312 23.9C186.229 23.8222 186.164 23.7281 186.119 23.6236C186.075 23.5192 186.052 23.4067 186.054 23.2933V14.8128L181.283 23.2933C181.135 23.5392 180.93 23.747 180.686 23.9C180.47 24.0551 180.213 24.1423 179.947 24.1505H176.926C176.813 24.1523 176.7 24.131 176.595 24.0879C176.489 24.0448 176.394 23.9809 176.315 23.9C176.232 23.8224 176.166 23.7283 176.122 23.6238C176.078 23.5192 176.056 23.4066 176.059 23.2933ZM169.984 23.3117V11.9124C169.983 11.7989 170.004 11.6863 170.047 11.5812C170.091 11.4762 170.155 11.3809 170.236 11.3011C170.313 11.2189 170.406 11.1538 170.51 11.1099C170.614 11.0659 170.725 11.0442 170.838 11.046H172.551C172.666 11.0425 172.78 11.0634 172.886 11.1074C172.993 11.1514 173.088 11.2174 173.167 11.3011C173.247 11.3813 173.311 11.4767 173.353 11.5817C173.396 11.6867 173.417 11.7991 173.416 11.9124V23.2933C173.417 23.4067 173.395 23.5192 173.351 23.6236C173.306 23.7281 173.24 23.8222 173.158 23.9C173.079 23.9805 172.984 24.0441 172.88 24.0872C172.776 24.1302 172.664 24.1518 172.551 24.1505H170.838C170.727 24.1539 170.617 24.1353 170.514 24.0958C170.41 24.0564 170.316 23.9969 170.236 23.9207C170.154 23.8444 170.089 23.7518 170.046 23.6488C170.002 23.5458 169.981 23.4348 169.984 23.3232V23.3117ZM159.442 21.5788H163.192C164.212 21.5788 164.722 20.9989 164.722 19.839C164.722 18.6792 164.212 18.0985 163.192 18.097H159.442V21.5788ZM156.01 23.2749V11.9124C156.007 11.7979 156.027 11.6839 156.069 11.5772C156.111 11.4706 156.174 11.3735 156.255 11.2919C156.336 11.2107 156.433 11.1469 156.54 11.1046C156.646 11.0623 156.761 11.0424 156.876 11.046H158.588C158.701 11.0437 158.813 11.0653 158.917 11.1093C159.021 11.1532 159.114 11.2186 159.19 11.3011C159.272 11.3809 159.336 11.4762 159.379 11.5812C159.422 11.6863 159.444 11.7989 159.442 11.9124V15.5023H163.192C164.626 15.5023 165.812 15.8853 166.751 16.6514C167.689 17.4175 168.158 18.4785 168.156 19.8344C168.156 21.195 167.695 22.2522 166.742 23.0152C165.789 23.7782 164.619 24.1643 163.192 24.1643H156.832C156.722 24.1658 156.614 24.1436 156.514 24.0992C156.414 24.0547 156.325 23.9891 156.253 23.9069C156.099 23.7382 156.016 23.5167 156.022 23.2887L156.01 23.2749ZM144.058 16.063H148.93C149.098 16.0709 149.266 16.0456 149.425 15.9884C149.583 15.9312 149.729 15.8433 149.853 15.7298C149.972 15.6056 150.064 15.4581 150.123 15.2968C150.183 15.1354 150.208 14.9636 150.197 14.7921C150.212 14.6222 150.19 14.451 150.132 14.2904C150.074 14.1299 149.982 13.9838 149.861 13.8624C149.741 13.741 149.596 13.6472 149.435 13.5875C149.275 13.5277 149.103 13.5036 148.932 13.5166H144.058V16.063ZM144.058 21.6799H149.269C149.469 21.6935 149.67 21.6628 149.856 21.5901C150.043 21.5174 150.211 21.4044 150.349 21.2593C150.609 20.9343 150.741 20.5254 150.718 20.1102C150.742 19.6942 150.608 19.2845 150.345 18.9611C150.207 18.8164 150.04 18.7034 149.854 18.6303C149.668 18.5573 149.468 18.5258 149.269 18.5382H144.058V21.6799ZM140.624 11.9124C140.623 11.7985 140.645 11.6856 140.689 11.5805C140.733 11.4754 140.798 11.3803 140.88 11.3011C140.958 11.219 141.053 11.1539 141.158 11.11C141.263 11.0661 141.376 11.0443 141.489 11.046H148.893C149.663 11.0376 150.43 11.1532 151.164 11.3884C151.846 11.6189 152.451 12.0334 152.911 12.5858C153.399 13.1917 153.654 13.9514 153.629 14.7278C153.629 15.6639 153.219 16.466 152.401 17.134C153.571 17.7614 154.157 18.7773 154.15 20.1884C154.15 21.4447 153.684 22.4177 152.752 23.1071C151.754 23.8173 150.55 24.1807 149.324 24.1413H141.489C141.376 24.1428 141.264 24.1213 141.159 24.0783C141.054 24.0352 140.959 23.9714 140.88 23.8908C140.797 23.8129 140.732 23.7187 140.688 23.6142C140.644 23.5098 140.622 23.3974 140.624 23.2841V11.9124ZM128.459 14.3348C127.844 15.0656 127.536 16.1542 127.536 17.6006C127.536 19.0469 127.844 20.1363 128.459 20.8686C129.075 21.5949 130.067 21.9588 131.436 21.9603C132.821 21.9603 133.8 21.5949 134.413 20.8686C135.027 20.1424 135.337 19.0484 135.337 17.6006C135.337 16.1527 135.03 15.0725 134.413 14.3348C133.797 13.597 132.81 13.2362 131.436 13.2362C130.063 13.2362 129.078 13.6016 128.459 14.3348ZM125.967 22.7946C124.725 21.7037 124.104 19.9716 124.102 17.5983C124.1 15.2249 124.722 13.4928 125.967 12.4019C127.215 11.311 129.038 10.7656 131.436 10.7656C133.835 10.7656 135.657 11.311 136.904 12.4019C138.144 13.4959 138.765 15.228 138.766 17.5983C138.768 19.9685 138.147 21.7006 136.904 22.7946C135.662 23.887 133.84 24.4332 131.436 24.4332C129.033 24.4332 127.21 23.887 125.967 22.7946ZM113.315 18.6463H116.638C117.661 18.6463 118.432 18.4762 118.96 18.1314C119.489 17.7867 119.752 17.1202 119.752 16.1389C119.752 15.1575 119.489 14.491 118.96 14.144C118.432 13.797 117.661 13.6292 116.638 13.6292H113.315V18.6463ZM109.874 23.2933V11.9124C109.872 11.7995 109.893 11.6873 109.935 11.5824C109.977 11.4774 110.04 11.3818 110.119 11.3011C110.195 11.2188 110.288 11.1535 110.391 11.1095C110.495 11.0656 110.606 11.0439 110.719 11.046H117.67C121.335 11.046 123.169 12.7436 123.172 16.1389C123.175 19.5341 121.341 21.2318 117.67 21.2318H113.315V23.3002C113.317 23.4134 113.296 23.5259 113.253 23.6307C113.21 23.7355 113.145 23.8302 113.064 23.9092C112.986 23.9903 112.893 24.0544 112.789 24.0976C112.685 24.1407 112.574 24.1619 112.461 24.1597H110.747C110.633 24.1612 110.521 24.1397 110.416 24.0966C110.311 24.0536 110.217 23.9898 110.137 23.9092C110.055 23.8311 109.99 23.7369 109.946 23.6324C109.903 23.528 109.881 23.4156 109.883 23.3025L109.874 23.2933ZM97.4211 21.5765H103.848V13.6292H101.132C100.616 13.6111 100.112 13.7811 99.7127 14.1072C99.3178 14.4549 99.0472 14.9212 98.9419 15.4356L97.4211 21.5765ZM92.3438 23.3025V22.4177C92.3419 22.3057 92.363 22.1945 92.4059 22.0909C92.4487 21.9873 92.5124 21.8936 92.593 21.8155C92.6699 21.7357 92.7624 21.6725 92.8649 21.6298C92.9673 21.5871 93.0774 21.5658 93.1885 21.5673H93.8808L95.5725 14.6542C96.1556 12.261 98.1296 11.0621 101.494 11.0575H106.417C106.529 11.0572 106.64 11.0789 106.744 11.1214C106.847 11.1639 106.941 11.2263 107.021 11.305C107.1 11.3838 107.163 11.4774 107.206 11.5805C107.249 11.6835 107.271 11.794 107.271 11.9055V23.3117C107.274 23.4231 107.253 23.5338 107.21 23.6367C107.167 23.7397 107.103 23.8325 107.022 23.9092C106.941 23.9855 106.846 24.0452 106.743 24.0846C106.639 24.1241 106.528 24.1426 106.417 24.139H93.1839C93.0711 24.1409 92.9591 24.1198 92.8547 24.0771C92.7504 24.0345 92.6558 23.9711 92.5769 23.8908C92.4967 23.8109 92.4334 23.7159 92.3906 23.6113C92.3478 23.5068 92.3264 23.3947 92.3276 23.2818L92.3438 23.3025ZM81.8085 18.4026H87.5781V13.6292H84.9841C84.4344 13.6177 83.8973 13.7938 83.4619 14.1283C83.0266 14.4627 82.7192 14.9354 82.5909 15.4678L81.8085 18.4026ZM76.9782 23.3094L79.2653 14.606C79.8807 12.2357 81.8954 11.049 85.3095 11.046H90.2206C90.3271 11.0428 90.4329 11.0642 90.5298 11.1085C90.6267 11.1527 90.712 11.2186 90.7791 11.3011C90.9281 11.4628 91.0105 11.6745 91.0099 11.894V23.3117C91.0127 23.4235 90.9915 23.5347 90.9477 23.6377C90.904 23.7408 90.8386 23.8333 90.756 23.9092C90.5913 24.0628 90.3723 24.1454 90.1467 24.139H88.4343C88.3217 24.1445 88.2091 24.1269 88.1035 24.0874C87.9979 24.0478 87.9016 23.9872 87.8204 23.9092C87.7399 23.8285 87.6768 23.7322 87.6351 23.6263C87.5935 23.5203 87.5741 23.407 87.5781 23.2933V20.995H81.1161L80.5046 23.2933C80.4441 23.5407 80.2978 23.7588 80.0915 23.9092C79.8978 24.0582 79.66 24.1391 79.4153 24.139H77.6175C77.5147 24.1457 77.4119 24.1266 77.3184 24.0837C77.2249 24.0408 77.1437 23.9753 77.082 23.8931C76.9971 23.7867 76.9515 23.6544 76.9528 23.5185C76.9528 23.4496 76.9666 23.3783 76.9759 23.2887L76.9782 23.3094ZM63.235 23.2749V11.9124C63.2339 11.7974 63.2558 11.6833 63.2994 11.5768C63.343 11.4703 63.4074 11.3734 63.4888 11.2919C63.566 11.2077 63.6602 11.1406 63.7652 11.0951C63.8702 11.0495 63.9836 11.0265 64.0981 11.0276H65.8128C65.9264 11.0262 66.0389 11.0491 66.1428 11.0947C66.2467 11.1402 66.3396 11.2075 66.4152 11.2919C66.4962 11.3736 66.5602 11.4706 66.6034 11.5771C66.6465 11.6836 66.6681 11.7976 66.6667 11.9124V16.2791H68.6261C69.1303 16.2879 69.6239 16.1348 70.0339 15.8424C70.5145 15.456 70.9078 14.9727 71.1878 14.4244L72.5979 11.8963C72.921 11.3126 73.3572 11.0161 73.9111 11.0115H76.0158C76.2466 11.0115 76.392 11.0942 76.4358 11.2666C76.4476 11.3085 76.4538 11.3518 76.4543 11.3953C76.443 11.5724 76.3892 11.7443 76.2974 11.8963L74.3126 15.5046C74.0605 15.9839 73.7359 16.4218 73.3502 16.8031C72.9608 17.1612 72.483 17.4102 71.9655 17.5247C72.4413 17.6551 72.8697 17.9182 73.2002 18.2831C73.6199 18.7026 73.9943 19.1648 74.3172 19.6621L76.5928 23.3002C76.6847 23.4369 76.7381 23.5956 76.7474 23.7598C76.748 23.8132 76.7386 23.8662 76.7197 23.9161C76.6597 24.0816 76.512 24.162 76.2743 24.162H74.1972C73.9238 24.1506 73.6588 24.0648 73.431 23.9138C73.1748 23.7619 72.9569 23.5536 72.7941 23.3048L71.1763 20.7445C70.8728 20.2164 70.4828 19.7425 70.0223 19.3426C69.6263 19.0251 69.1298 18.8581 68.6215 18.8715H66.6621V23.3117C66.665 23.4233 66.644 23.5343 66.6006 23.6373C66.5573 23.7403 66.4925 23.833 66.4106 23.9092C66.3305 23.9855 66.2361 24.0451 66.1326 24.0845C66.0292 24.124 65.9189 24.1425 65.8082 24.139H64.0889C63.975 24.1403 63.8621 24.118 63.7572 24.0737C63.6524 24.0294 63.5579 23.964 63.4796 23.8816C63.3978 23.8008 63.3332 23.7044 63.2895 23.5982C63.2459 23.492 63.2242 23.3781 63.2257 23.2634" fill="#E20613"/>
<path d="M192.592 4.60874C192.847 4.60874 193.091 4.70939 193.271 4.88862C193.452 5.06785 193.554 5.31103 193.554 5.5648V46.4733C193.554 46.7271 193.452 46.9702 193.271 47.1495C193.091 47.3287 192.847 47.4293 192.592 47.4293H60.6317C60.3768 47.4293 60.1324 47.3287 59.952 47.1495C59.7716 46.9702 59.6699 46.7271 59.6693 46.4733V5.5648C59.6699 5.31103 59.7716 5.06785 59.952 4.88862C60.1324 4.70939 60.3768 4.60874 60.6317 4.60874H192.592ZM192.592 0.405278H60.6317C59.2573 0.405278 57.9393 0.948796 56.9672 1.91633C55.9952 2.88386 55.4489 4.1962 55.4482 5.5648V46.4733C55.4489 47.8419 55.9952 49.1542 56.9672 50.1218C57.9393 51.0893 59.2573 51.6328 60.6317 51.6328H192.592C193.273 51.6337 193.948 51.5009 194.577 51.2419C195.207 50.9829 195.779 50.6028 196.261 50.1234C196.744 49.644 197.126 49.0746 197.387 48.4479C197.648 47.8212 197.782 47.1494 197.782 46.471V5.5625C197.781 4.88445 197.647 4.21316 197.386 3.58698C197.124 2.9608 196.742 2.392 196.26 1.91308C195.778 1.43415 195.206 1.05449 194.576 0.795779C193.947 0.537066 193.273 0.404372 192.592 0.405278Z" fill="#E20613"/>
</svg>
