<svg width="94" height="94" viewBox="0 0 94 94" fill="none" xmlns="http://www.w3.org/2000/svg">
<path d="M46.52 93.04C20.8684 93.04 0 72.1716 0 46.52C0 20.8684 20.8684 0 46.52 0C72.1716 0 93.04 20.8684 93.04 46.52C93.04 72.1716 72.1716 93.04 46.52 93.04ZM46.52 1.67247C21.7843 1.67247 1.67247 21.7843 1.67247 46.52C1.67247 71.2557 21.7843 91.3675 46.52 91.3675C71.2557 91.3675 91.3675 71.2487 91.3675 46.52C91.3675 21.7913 71.2487 1.67247 46.52 1.67247Z" fill="#1D1D1B"/>
<path d="M17.0881 42.6902H12.7219V38.8065H10.7168V66.8403H12.7219V44.6976H17.0881V66.8403H19.0955V38.8065H17.0881V42.6902Z" fill="#1D1D1B"/>
<path d="M36.958 60.9515H32.9478C32.8994 60.9563 32.8504 60.9507 32.8044 60.9349C32.7583 60.9191 32.7161 60.8937 32.6808 60.8602C32.6476 60.8247 32.6222 60.7825 32.6065 60.7365C32.5907 60.6904 32.5849 60.6416 32.5894 60.5931V38.8089H30.5843V60.5931C30.5648 60.9086 30.6126 61.2246 30.7244 61.5202C30.8363 61.8158 31.0097 62.0843 31.2332 62.3077C31.4567 62.5312 31.7251 62.7047 32.0208 62.8165C32.3164 62.9284 32.6324 62.9762 32.9478 62.9566H36.958V66.8403H38.9631V38.8065H36.958V60.9515Z" fill="#1D1D1B"/>
<path d="M48.0422 61.3989L43.676 64.1114V38.8065H41.6709V67.5501L48.0422 63.7343V66.8403H50.0497V38.8065H48.0422V61.3989Z" fill="#1D1D1B"/>
<path d="M59.1295 42.6902H54.761V38.8065H52.7559V66.8403H54.761V44.6976H59.1295V66.8403H61.1346V38.8065H59.1295V42.6902Z" fill="#1D1D1B"/>
<path d="M24.0001 38.8065L20.7207 66.8403H22.7211L23.1896 62.9566H26.7407L27.1951 66.8403H29.2072L25.9279 38.8065H24.0001ZM26.4971 60.9515H23.4238L24.9628 47.8084L26.4971 60.9515Z" fill="#1D1D1B"/>
<path d="M79.0374 38.8065H77.126L73.8467 66.8403H75.8588L76.3132 62.9566H79.8643L80.3187 66.8403H82.3308L79.0374 38.8065ZM79.623 60.9515H76.5428L78.0817 47.8084L79.623 60.9515Z" fill="#1D1D1B"/>
<path d="M70.6394 41.3784L72.2206 40.4297V38.0967L67.852 40.8092L65.8469 42.053V38.8064H63.8418V66.8402H65.8469V44.2478L68.8709 42.4371L70.4731 45.6439V66.8402H72.4806V45.0559L70.6394 41.3784Z" fill="#1D1D1B"/>
<path d="M36.3074 60.3588H33.2623C33.2442 60.3588 33.227 60.3517 33.2142 60.3389C33.2015 60.3262 33.1943 60.3089 33.1943 60.2909V38.8837C33.1943 38.8657 33.2015 38.8484 33.2142 38.8357C33.227 38.823 33.2442 38.8158 33.2623 38.8158H36.3074C36.3254 38.8158 36.3427 38.823 36.3554 38.8357C36.3682 38.8484 36.3753 38.8657 36.3753 38.8837V60.3003C36.3753 60.3183 36.3682 60.3356 36.3554 60.3483C36.3427 60.361 36.3254 60.3682 36.3074 60.3682" fill="#F7A600"/>
<path d="M16.4275 66.8404H13.3824C13.3644 66.8404 13.3471 66.8332 13.3344 66.8205C13.3216 66.8077 13.3145 66.7904 13.3145 66.7724V45.3559C13.3145 45.3379 13.3216 45.3206 13.3344 45.3079C13.3471 45.2951 13.3644 45.288 13.3824 45.288H16.4275C16.4455 45.288 16.4628 45.2951 16.4755 45.3079C16.4883 45.3206 16.4954 45.3379 16.4954 45.3559V66.7724C16.4954 66.7904 16.4883 66.8077 16.4755 66.8205C16.4628 66.8332 16.4455 66.8404 16.4275 66.8404Z" fill="#EA516D"/>
<path d="M69.74 45.7938L68.6157 43.5474C68.6103 43.5359 68.6026 43.5256 68.5929 43.5174C68.5833 43.5091 68.572 43.5029 68.5598 43.4994C68.5476 43.4958 68.5348 43.4949 68.5222 43.4968C68.5096 43.4986 68.4975 43.5031 68.4869 43.5099L66.6129 44.6296C66.5988 44.638 66.5873 44.6501 66.5794 44.6645C66.5716 44.6789 66.5678 44.6952 66.5684 44.7116V66.7582C66.5684 66.7831 66.5783 66.8069 66.5959 66.8245C66.6134 66.8421 66.6373 66.8519 66.6621 66.8519H69.6534C69.6784 66.8519 69.7025 66.8421 69.7205 66.8246C69.7384 66.8071 69.7488 66.7833 69.7494 66.7582V45.8359C69.7494 45.8219 69.7494 45.8078 69.7494 45.7938" fill="#8A1002"/>
<path d="M40.1466 23.7097C40.3629 23.6798 40.5727 23.6141 40.7674 23.5153C42.0323 18.8938 44.562 15.1647 48.3122 12.1992C48.3357 12.3468 48.352 12.4592 48.3708 12.5716C48.5254 13.5086 48.6448 14.4455 48.8393 15.3614C49.0243 16.2164 49.2796 17.0573 49.542 17.8936C49.8449 18.8383 50.2371 19.752 50.7132 20.6224C50.9263 21.016 51.1676 21.3931 51.4159 21.7936C51.6971 21.9832 52.0173 22.1073 52.3529 22.1567C52.6123 22.163 52.8706 22.12 53.1141 22.0302C53.0792 21.9914 53.0464 21.9507 53.0158 21.9084C52.7511 21.543 52.4794 21.187 52.2287 20.8122C51.6349 19.8838 51.1566 18.8864 50.8045 17.842C50.454 16.8545 50.1715 15.8441 49.9589 14.818C49.8582 14.3495 49.7879 13.881 49.706 13.4125C49.6521 13.094 49.6005 12.7754 49.556 12.4545C49.5279 12.2554 49.5162 12.0563 49.4905 11.8033C49.7996 11.9649 50.0807 12.0985 50.3478 12.2577C50.9805 12.6833 51.5825 13.1529 52.1491 13.6632C52.5428 13.9863 53.024 14.1845 53.5311 14.2324C54.3734 14.3038 55.2144 14.0811 55.911 13.6023C56.2576 13.368 56.5926 13.1338 56.9159 12.8738C57.1039 12.7078 57.2829 12.5318 57.4523 12.3468C56.8775 12.1568 56.3271 11.8997 55.8126 11.5808C55.3699 11.3091 54.9482 11.0022 54.5266 10.6977C54.1997 10.435 53.8358 10.2219 53.4468 10.0653C52.9299 9.87799 52.3763 9.81461 51.8305 9.88021C51.2965 9.93341 50.7823 10.1107 50.329 10.3979C50.0198 10.597 49.7294 10.8289 49.4436 11.0397C49.3335 10.5572 49.0079 10.4283 48.6355 10.5267C48.6151 10.5261 48.5951 10.5215 48.5766 10.513C48.5581 10.5046 48.5415 10.4925 48.5277 10.4775C48.42 10.3557 48.3239 10.2222 48.2138 10.1051C47.6399 9.46125 46.9641 8.91603 46.2134 8.49117C45.3994 8.03824 44.4975 7.76581 43.5689 7.69241C42.9723 7.64285 42.3716 7.68153 41.7863 7.80719C41.1072 7.94695 40.4599 8.21142 39.8773 8.58721C39.3666 8.93154 38.8817 9.31569 38.3875 9.68579C37.6699 10.22 36.9109 10.6963 36.1177 11.11C35.4363 11.4811 34.7209 11.7862 33.9814 12.0212C33.9814 12.0422 33.9814 12.054 33.9814 12.061C34.4568 12.5825 34.979 13.0592 35.5415 13.4852C35.968 13.8083 36.4156 14.1025 36.8813 14.3659C37.3723 14.6386 37.8856 14.8689 38.4156 15.0546C39.4425 15.4187 40.5568 15.4563 41.6059 15.1623C42.5429 14.8953 43.2925 14.3261 44.0022 13.6866C44.327 13.3962 44.662 13.1158 45.0071 12.8457C45.6127 12.3651 46.2566 11.935 46.9326 11.5597C47.1153 11.4613 47.3097 11.3817 47.4971 11.2927C43.4611 14.5322 40.7322 18.608 39.5095 23.6231C39.7175 23.6964 39.9384 23.7259 40.1583 23.7097" fill="#489034"/>
<path d="M59.0895 25.4174C58.9417 24.5608 58.6669 23.7311 58.2744 22.9555C58.0721 22.5704 57.794 22.2302 57.4569 21.9553C56.7026 21.3416 55.8172 21.2198 54.8802 21.3815C54.2519 21.4958 53.6476 21.716 53.093 22.0326C52.8495 22.1225 52.5912 22.1654 52.3317 22.1591C51.9961 22.1097 51.676 21.9856 51.3947 21.7961C51.3104 21.7961 51.2355 21.775 51.1605 21.7609C50.729 21.6685 50.2866 21.6377 49.8464 21.6696C49.4331 21.6999 49.0258 21.7858 48.6354 21.9249C48.2032 22.0851 47.8016 22.3181 47.4478 22.6136C46.8528 23.0984 46.5577 23.7637 46.3305 24.4687C46.2813 24.621 46.2415 24.7779 46.2016 24.9161C46.033 24.6397 45.8714 24.3516 45.6863 24.0776C45.4691 23.7372 45.1823 23.4467 44.8448 23.225C44.5073 23.0034 44.1267 22.8557 43.7281 22.7916C43.2381 22.7205 42.7387 22.7524 42.2617 22.8853C41.7361 23.0253 41.2324 23.2373 40.7649 23.5154C40.5703 23.6142 40.3605 23.6799 40.1442 23.7098C39.9243 23.7259 39.7034 23.6964 39.4954 23.6231C39.1698 23.5693 38.8629 23.5224 38.5584 23.4662C37.5634 23.3101 36.5452 23.5065 35.6796 24.0213C35.1381 24.3292 34.6923 24.7807 34.3913 25.326C34.0195 26.0872 33.8173 26.9199 33.7986 27.7668C33.7807 28.1356 33.7909 28.5052 33.8291 28.8724C33.8648 29.3204 33.9337 29.7651 34.0352 30.2029C34.1636 30.6588 34.3201 31.1062 34.5037 31.5428C34.7664 32.1867 35.1478 32.7755 35.6281 33.2785C36.1503 33.8452 36.7898 34.2912 37.502 34.5855C38.0822 34.831 38.6985 34.9805 39.3267 35.0283C39.3082 34.2266 39.0459 33.4496 38.5748 32.8006C37.5441 32.0979 36.7688 31.2429 36.7688 29.5213C36.7688 26.9142 38.5373 24.4055 40.2824 24.4055C42.0275 24.4055 43.796 26.9142 43.796 29.5213C43.796 31.2453 43.0207 32.0979 41.99 32.8006C41.5264 33.4356 41.2652 34.1956 41.2404 34.9814C41.3716 34.9674 41.5028 34.951 41.6316 34.9275C42.3143 34.8238 42.9825 34.6406 43.6227 34.3818C44.4583 34.04 45.1979 33.4997 45.7777 32.8077C46.1837 32.3143 46.4958 31.7506 46.6982 31.1446C46.7802 30.9103 46.8411 30.662 46.9067 30.4418C47.1409 30.7792 47.3752 31.1446 47.6469 31.4608C48.1693 32.0763 48.8255 32.5642 49.5653 32.8873C50.3058 33.2082 51.101 33.3839 51.9077 33.405C51.8551 32.6195 51.5679 31.8679 51.0832 31.2476C50.5444 30.3761 50.2687 29.3675 50.2891 28.3431C50.2891 28.24 50.2891 28.1393 50.2891 28.0385C50.2891 26.8673 50.8911 23.1687 50.8911 23.1687H51.5001V28.6476H52.1373L52.3903 23.1687H53.0461L53.2991 28.6476H53.9362V23.171H54.5453C54.5453 23.171 55.1449 26.8627 55.1449 28.0409C55.1449 28.1416 55.1449 28.2423 55.1449 28.3454C55.1692 29.3672 54.8975 30.3743 54.3626 31.2453C53.8912 31.854 53.6065 32.5862 53.5427 33.3534C53.7783 33.3366 54.0128 33.3076 54.2454 33.2668C54.8209 33.1615 55.3827 32.9918 55.9202 32.7608C56.4597 32.5307 56.9582 32.2142 57.396 31.8239C57.9433 31.3279 58.3799 30.7221 58.6772 30.046C59.0006 29.319 59.1857 28.5382 59.223 27.7434C59.2749 26.9597 59.2269 26.1726 59.0801 25.401" fill="#8A1002"/>
<path d="M26.207 71.8156H26.6872V73.0336H28.355V71.8156H28.8352V74.6967H28.355V73.4787H26.6872V74.6967H26.207V71.8156Z" fill="#1D1D1B"/>
<path d="M32.2849 74.3172C32.3609 74.3157 32.4361 74.3015 32.5074 74.2751V74.6662C32.3919 74.7088 32.2698 74.731 32.1467 74.7318C32.0327 74.7418 31.9186 74.7131 31.8229 74.6501C31.7272 74.5872 31.6556 74.4938 31.6197 74.3851C31.3041 74.6441 30.9057 74.7805 30.4977 74.7693C29.987 74.7693 29.4834 74.4976 29.4834 73.8909C29.4834 73.1484 30.1674 72.9188 30.7858 72.9188C31.0537 72.9219 31.3205 72.9525 31.5822 73.0102V72.9071C31.5822 72.4761 31.2894 72.188 30.76 72.188C30.3992 72.1877 30.0421 72.2611 29.7106 72.4035V71.935C30.0639 71.8116 30.435 71.7467 30.8092 71.7429C31.5775 71.7429 32.0624 72.1646 32.0624 72.968V74.097C32.0624 74.2704 32.1584 74.3172 32.2966 74.3172H32.2849ZM30.6101 74.3547C30.7942 74.3554 30.9765 74.3183 31.1457 74.2458C31.3149 74.1733 31.4674 74.0668 31.5939 73.9331V73.406C31.3534 73.3554 31.1088 73.3272 30.8631 73.3217C30.4438 73.3217 29.987 73.4482 29.987 73.8675C29.987 74.2048 30.2915 74.3547 30.6101 74.3547Z" fill="#1D1D1B"/>
<path d="M34.457 74.7435C34.3384 74.7438 34.2207 74.7216 34.1104 74.678V74.3008C34.1719 74.3234 34.2369 74.3353 34.3024 74.336C34.8107 74.336 34.9794 73.3639 35.0333 71.8156H37.1531V74.6967H36.6729V72.2606H35.5017C35.4057 73.7363 35.2019 74.7435 34.457 74.7435Z" fill="#1D1D1B"/>
<path d="M40.7273 74.7693C40.3578 74.7839 39.9961 74.6595 39.7138 74.4206C39.4315 74.1816 39.249 73.8455 39.2024 73.4786H38.4997V74.6967H38.0195V71.8155H38.4997V73.0336H39.2024C39.2407 72.7407 39.3626 72.465 39.5535 72.2396C39.7443 72.0142 39.9961 71.8486 40.2787 71.7626C40.5613 71.6766 40.8626 71.6739 41.1467 71.7547C41.4308 71.8356 41.6855 71.9966 41.8805 72.2185C42.0754 72.4404 42.2023 72.7137 42.2459 73.0059C42.2895 73.298 42.248 73.5965 42.1263 73.8656C42.0046 74.1348 41.808 74.3631 41.5598 74.5234C41.3117 74.6837 41.0227 74.769 40.7273 74.7693ZM40.7273 74.3125C40.9363 74.3125 41.1405 74.2505 41.3143 74.1345C41.488 74.0184 41.6234 73.8534 41.7033 73.6604C41.7833 73.4673 41.8042 73.2549 41.7635 73.05C41.7227 72.8451 41.6221 72.6568 41.4743 72.5091C41.3266 72.3613 41.1384 72.2607 40.9334 72.22C40.7285 72.1792 40.5161 72.2001 40.3231 72.2801C40.13 72.36 39.965 72.4954 39.849 72.6692C39.7329 72.8429 39.6709 73.0471 39.6709 73.2561C39.6635 73.3968 39.6857 73.5374 39.7362 73.669C39.7867 73.8005 39.8642 73.92 39.9638 74.0196C40.0635 74.1192 40.1829 74.1967 40.3145 74.2472C40.446 74.2977 40.5867 74.3199 40.7273 74.3125Z" fill="#1D1D1B"/>
<path d="M44.2923 74.7692C43.4233 74.7692 42.7979 74.1743 42.7979 73.0827C42.7979 72.1153 43.1703 71.443 43.688 71.1268C44.5148 70.6161 45.0934 70.8316 45.5057 70.4241V70.9277C45.0911 71.2228 44.6296 71.0963 43.969 71.4805C43.6227 71.7132 43.3781 72.0692 43.2851 72.476C43.404 72.3058 43.5631 72.1674 43.7481 72.073C43.9331 71.9787 44.1385 71.9312 44.3462 71.9349C44.5327 71.9298 44.7183 71.9626 44.8917 72.0313C45.0652 72.0999 45.223 72.2031 45.3554 72.3345C45.4879 72.4658 45.5923 72.6227 45.6625 72.7956C45.7326 72.9685 45.7669 73.1538 45.7633 73.3404C45.7633 74.2398 45.1637 74.7692 44.2923 74.7692ZM44.2806 74.3125C44.5353 74.3125 44.7796 74.2113 44.9597 74.0312C45.1398 73.8511 45.241 73.6068 45.241 73.3521C45.241 73.0974 45.1398 72.8531 44.9597 72.673C44.7796 72.4929 44.5353 72.3917 44.2806 72.3917C44.1516 72.3886 44.0233 72.411 43.903 72.4576C43.7827 72.5043 43.6728 72.5742 43.5797 72.6635C43.4865 72.7527 43.4119 72.8595 43.3601 72.9777C43.3084 73.0958 43.2805 73.2231 43.278 73.3521C43.2744 73.4828 43.2983 73.6128 43.3479 73.7338C43.3976 73.8547 43.4721 73.964 43.5665 74.0544C43.6609 74.1449 43.7732 74.2146 43.8962 74.259C44.0192 74.3035 44.1501 74.3217 44.2806 74.3125Z" fill="#1D1D1B"/>
<path d="M47.8084 71.743C48.1067 71.7471 48.3972 71.8394 48.6432 72.0082C48.8893 72.1769 49.0799 72.4147 49.1912 72.6915C49.3025 72.9684 49.3295 73.2719 49.2688 73.5641C49.208 73.8562 49.0623 74.1239 48.8498 74.3334C48.6374 74.5429 48.3678 74.6849 48.0748 74.7416C47.7819 74.7983 47.4787 74.7671 47.2034 74.652C46.9282 74.5369 46.6931 74.343 46.5277 74.0946C46.3624 73.8462 46.2741 73.5545 46.2741 73.2562C46.2681 73.054 46.3038 72.8528 46.3791 72.6651C46.4544 72.4774 46.5675 72.3073 46.7115 72.1653C46.8555 72.0233 47.0272 71.9125 47.2159 71.8398C47.4046 71.7672 47.6063 71.7342 47.8084 71.743ZM47.8084 72.2114C47.5994 72.2114 47.3952 72.2734 47.2214 72.3895C47.0477 72.5056 46.9123 72.6706 46.8323 72.8636C46.7524 73.0566 46.7315 73.269 46.7722 73.474C46.813 73.6789 46.9136 73.8671 47.0613 74.0149C47.2091 74.1626 47.3973 74.2632 47.6023 74.304C47.8072 74.3448 48.0196 74.3238 48.2126 74.2439C48.4057 74.1639 48.5707 74.0285 48.6867 73.8548C48.8028 73.6811 48.8648 73.4768 48.8648 73.2679C48.8722 73.1272 48.8499 72.9865 48.7995 72.855C48.749 72.7234 48.6715 72.604 48.5718 72.5044C48.4722 72.4048 48.3528 72.3272 48.2212 72.2767C48.0897 72.2263 47.949 72.204 47.8084 72.2114Z" fill="#1D1D1B"/>
<path d="M50.0215 71.8156H50.49V73.9237L52.2538 71.8156H52.6637V74.6967H52.1952V72.5886L50.4291 74.6967H50.0215V71.8156ZM51.3473 71.3729C51.0477 71.3815 50.7535 71.2927 50.5087 71.1199V70.6865C50.7548 70.8589 51.048 70.9513 51.3485 70.9513C51.6489 70.9513 51.9421 70.8589 52.1882 70.6865V71.1199C51.9426 71.2928 51.6475 71.3815 51.3473 71.3729Z" fill="#1D1D1B"/>
<path d="M55.0674 71.8156H56.6461C57.1521 71.8156 57.5339 72.0849 57.5339 72.5956C57.5381 72.7272 57.5044 72.8573 57.4366 72.9703C57.3689 73.0832 57.2702 73.1743 57.1521 73.2327C57.2907 73.2795 57.4109 73.3691 57.4951 73.4887C57.5793 73.6084 57.6233 73.7517 57.6206 73.8979C57.6206 74.3664 57.3137 74.6967 56.6836 74.6967H55.0439L55.0674 71.8156ZM56.5993 73.0336C56.8499 73.0336 57.049 72.9376 57.049 72.6448C57.0516 72.5867 57.0415 72.5289 57.0192 72.4752C56.9969 72.4216 56.9632 72.3735 56.9202 72.3344C56.8773 72.2953 56.8263 72.2661 56.7709 72.2489C56.7154 72.2317 56.6568 72.2269 56.5993 72.2348H55.5499V73.0336H56.5993ZM56.6297 74.2751C56.9296 74.2751 57.1451 74.1861 57.1451 73.8675C57.1451 73.5489 56.8874 73.4482 56.6461 73.4482H55.5499V74.2751H56.6297Z" fill="#1D1D1B"/>
<path d="M58.3516 71.8156H58.8318V73.0172H59.4127L60.3262 71.8156H60.8837L59.7921 73.2491L61.0172 74.6967H60.4527L59.3963 73.4599H58.8318V74.6967H58.3516V71.8156Z" fill="#1D1D1B"/>
<path d="M64.3435 71.8156L62.9264 75.1277C62.6266 75.8304 62.2611 76.0881 61.8419 76.0881C61.7358 76.0886 61.6302 76.0744 61.528 76.0459V75.6313C61.61 75.6564 61.6952 75.669 61.781 75.6688C62.1042 75.6688 62.3384 75.4346 62.5258 74.9661L62.6336 74.7014L61.2656 71.8156H61.7739L62.8608 74.1579L63.8329 71.8156H64.3435Z" fill="#1D1D1B"/>
<path d="M66.1239 71.7429C66.4369 71.7344 66.7458 71.8157 67.014 71.9772V72.4456C66.7727 72.2724 66.4818 72.182 66.1848 72.188C65.6273 72.188 65.0441 72.4995 65.0441 73.2561C65.0441 74.0127 65.6086 74.3242 66.1731 74.3242C66.4784 74.3244 66.7783 74.2435 67.0421 74.09V74.5702C66.7492 74.7076 66.4286 74.7757 66.1052 74.7693C65.3486 74.7693 64.5615 74.3008 64.5615 73.2678C64.5615 72.2348 65.372 71.7429 66.1216 71.7429" fill="#1D1D1B"/>
<path d="M23.7756 72.7595C23.8673 72.7632 23.956 72.7937 24.0305 72.8474C24.1051 72.9011 24.1622 72.9754 24.1948 73.0613C24.2274 73.1472 24.234 73.2407 24.2139 73.3303C24.1938 73.4199 24.1477 73.5016 24.0815 73.5653C24.0153 73.629 23.9319 73.6718 23.8415 73.6884C23.7512 73.705 23.658 73.6947 23.5735 73.6587C23.489 73.6228 23.4169 73.5628 23.3662 73.4862C23.3155 73.4096 23.2884 73.3198 23.2883 73.228C23.2862 73.1643 23.2975 73.1008 23.3215 73.0418C23.3455 72.9827 23.3816 72.9293 23.4275 72.8852C23.4735 72.841 23.5282 72.807 23.5882 72.7853C23.6481 72.7637 23.712 72.7549 23.7756 72.7595Z" fill="#1D1D1B"/>
<path d="M69.2576 72.7595C69.3495 72.7627 69.4384 72.7929 69.5132 72.8463C69.5881 72.8997 69.6456 72.9739 69.6785 73.0597C69.7115 73.1456 69.7185 73.2392 69.6986 73.329C69.6787 73.4187 69.6328 73.5007 69.5667 73.5646C69.5006 73.6285 69.4171 73.6715 69.3267 73.6883C69.2363 73.705 69.143 73.6949 69.0583 73.659C68.9737 73.6231 68.9015 73.5631 68.8507 73.4864C68.7999 73.4098 68.7728 73.3199 68.7727 73.2279C68.7706 73.1644 68.7818 73.1012 68.8057 73.0423C68.8295 72.9834 68.8654 72.9302 68.9111 72.886C68.9568 72.8419 69.0113 72.8078 69.0709 72.786C69.1306 72.7642 69.1942 72.7552 69.2576 72.7595Z" fill="#1D1D1B"/>
</svg>
