<svg width="35" height="34" viewBox="0 0 35 34" fill="none"
    xmlns="http://www.w3.org/2000/svg">
    <path d="M17.6483 0C8.22012 0 0.577148 7.61113 0.577148 17C0.577148 26.3889 8.22012 34 17.6483 34C27.0764 34 34.7194 26.3889 34.7194 17C34.7194 7.61113 27.0764 0 17.6483 0ZM24.161 8.65739L21.7998 8.65843C19.9483 8.65843 19.5903 9.53461 19.5903 10.8202V13.655H24.0055L24.0035 18.095H19.5906V29.489H14.9854V18.095H11.1356V13.655H14.9854V10.3805C14.9854 6.58052 17.3168 4.51096 20.7206 4.51096L24.1613 4.51617V8.65739H24.161Z" fill="white"/>
</svg>
