<svg width="35" height="34" viewBox="0 0 35 34" fill="none"
    xmlns="http://www.w3.org/2000/svg">
    <path d="M17.94 21.8213C20.7304 21.8213 22.9924 19.6385 22.9924 16.9458C22.9924 14.2531 20.7304 12.0703 17.94 12.0703C15.1497 12.0703 12.8877 14.2531 12.8877 16.9458C12.8877 19.6385 15.1497 21.8213 17.94 21.8213Z" fill="white"/>
    <path d="M25.7601 17.2179C25.7601 21.3852 22.2589 24.7629 17.94 24.7629C13.6211 24.7629 10.1199 21.3852 10.1199 17.2179C10.1199 16.4711 10.2331 15.7497 10.4427 15.0684H8.13184V25.6516C8.13184 26.1998 8.58171 26.6475 9.13183 26.6475H26.6514C27.2019 26.6475 27.6521 26.1998 27.6521 25.6516V15.0684H25.4373C25.6466 15.7497 25.7601 16.4711 25.7601 17.2179Z" fill="white"/>
    <path d="M23.664 12.2124H26.5075C27.1306 12.2124 27.6398 11.7053 27.6398 11.0847V8.38486C27.6398 7.76398 27.1306 7.25684 26.5075 7.25684H23.664C23.0405 7.25684 22.5313 7.76398 22.5313 8.38486V11.0847C22.5309 11.7049 23.0405 12.2124 23.664 12.2124Z" fill="white"/>
    <path d="M17.9159 0C8.4877 0 0.844727 7.61113 0.844727 17C0.844727 26.3889 8.4877 34 17.9159 34C27.344 34 34.987 26.3889 34.987 17C34.987 7.61113 27.344 0 17.9159 0ZM27.2661 29.5273H8.56594C6.78915 29.5273 5.33649 28.2177 5.33649 26.312V7.6887C5.33649 5.78226 6.78915 4.47304 8.56594 4.47304H27.2661C29.0426 4.47304 30.4956 5.78226 30.4956 7.6887V26.312C30.4956 28.2177 29.0422 29.5273 27.2661 29.5273Z" fill="white"/>
</svg>
