<svg width="35" height="34" viewBox="0 0 35 34" fill="none"
    xmlns="http://www.w3.org/2000/svg">
    <path d="M17.1844 0C7.7566 0 0.113281 7.61113 0.113281 17C0.113281 26.3889 7.7566 34 17.1844 34C26.6122 34 34.2555 26.3889 34.2555 17C34.2555 7.61113 26.6122 0 17.1844 0ZM25.8438 18.8386C26.6394 19.6125 27.4812 20.3409 28.1955 21.1948C28.5119 21.5725 28.8102 21.9631 29.0373 22.4024C29.3614 23.0289 29.0687 23.7158 28.5057 23.753L25.0083 23.7523C24.1051 23.8268 23.3862 23.464 22.7802 22.849C22.2965 22.359 21.8477 21.8355 21.3817 21.3287C21.1914 21.1207 20.9909 20.9249 20.752 20.7708C20.2752 20.4619 19.8609 20.5565 19.5878 21.0525C19.3094 21.5572 19.2459 22.1165 19.2193 22.6783C19.1812 23.4995 18.9326 23.7141 18.1051 23.7527C16.337 23.8351 14.6594 23.568 13.1003 22.6803C11.7248 21.8974 10.6602 20.7923 9.73249 19.5412C7.926 17.1023 6.5425 14.4254 5.29941 11.6717C5.01963 11.0515 5.22431 10.7197 5.91135 10.7068C7.0528 10.6849 8.19425 10.6877 9.3357 10.7057C9.80025 10.713 10.1076 10.9777 10.2861 11.4143C10.9029 12.9256 11.6591 14.3635 12.6067 15.697C12.8593 16.0522 13.117 16.4063 13.4841 16.657C13.8893 16.9339 14.198 16.8424 14.3891 16.392C14.5114 16.1057 14.5641 15.7997 14.5906 15.4929C14.6815 14.4421 14.6923 13.3917 14.5351 12.345C14.4373 11.6901 14.0674 11.2671 13.4118 11.1433C13.0779 11.0803 13.1268 10.9572 13.2892 10.7673C13.5711 10.439 13.8351 10.2358 14.3629 10.2358L18.3143 10.2351C18.9371 10.3569 19.0768 10.6351 19.1613 11.2598L19.1648 15.6327C19.1575 15.8744 19.2867 16.591 19.7226 16.7492C20.0719 16.864 20.3024 16.585 20.5113 16.3649C21.4589 15.3635 22.1341 14.1816 22.7387 12.9583C23.0055 12.4188 23.2357 11.8605 23.4592 11.3012C23.6255 10.8877 23.884 10.6842 24.3527 10.6911L28.1578 10.6957C28.2699 10.6957 28.3838 10.6967 28.4948 10.7158C29.1361 10.825 29.3118 11.0998 29.1134 11.7228C28.8011 12.7016 28.1944 13.5169 27.6014 14.3343C26.9657 15.2094 26.2877 16.0539 25.6583 16.9329C25.0799 17.7363 25.1257 18.1409 25.8438 18.8386Z" fill="white"/>
</svg>
